<?xml version="1.0" encoding="UTF-8" standalone="no"?>
<!-- Created with Inkscape (http://www.inkscape.org/) -->
<svg xmlns:dc="http://purl.org/dc/elements/1.1/" xmlns:cc="http://creativecommons.org/ns#" xmlns:rdf="http://www.w3.org/1999/02/22-rdf-syntax-ns#" xmlns:svg="http://www.w3.org/2000/svg" xmlns="http://www.w3.org/2000/svg" xmlns:sodipodi="http://sodipodi.sourceforge.net/DTD/sodipodi-0.dtd" xmlns:inkscape="http://www.inkscape.org/namespaces/inkscape" id="svg6399" version="1.1" inkscape:version="0.48.1 " width="183.75" height="271.25" xml:space="preserve" sodipodi:docname="Cobra_08.pdf"><metadata id="metadata6405"><rdf:RDF><cc:Work rdf:about=""><dc:format>image/svg+xml</dc:format><dc:type rdf:resource="http://purl.org/dc/dcmitype/StillImage"/><dc:title/></cc:Work></rdf:RDF></metadata><defs id="defs6403"/><sodipodi:namedview pagecolor="#ffffff" bordercolor="#666666" borderopacity="1" objecttolerance="10" gridtolerance="10" guidetolerance="10" inkscape:pageopacity="0" inkscape:pageshadow="2" inkscape:window-width="640" inkscape:window-height="480" id="namedview6401" showgrid="false" inkscape:zoom="1.0728111" inkscape:cx="91.875" inkscape:cy="135.625" inkscape:window-x="390" inkscape:window-y="102" inkscape:window-maximized="0" inkscape:current-layer="g6407"/><g id="g6407" inkscape:groupmode="layer" inkscape:label="Cobra_08" transform="matrix(1.25,0,0,-1.25,0,271.25)"><g id="g6409" transform="scale(0.24,0.24)"><path d="m 241.113,893.895 6.481,-3.989 2.242,0 0,-1.496 7.977,-5.605 18.191,-19.071 22.93,-16.578 22.058,-25.301 1.621,-4.609 9.473,-11.094 11.09,-15.953 3.113,-3.988 2.371,-5.484 4.735,-4.739 4.859,-12.586 3.117,-5.609 6.352,-25.426 -0.871,-25.301 -4.61,-20.566 -6.48,-21.312 -7.102,-17.45 -3.988,-10.218 -7.106,-15.082 -9.468,-14.208 -13.461,-17.449 -31.528,-41.879 -17.324,-16.578 -23.051,-25.426 -5.609,-9.347 -24.551,-29.539 -9.344,-5.485 -9.472,-9.347 -7.102,-2.367 -6.355,-5.61 -4.738,-2.367 -1.743,-3.117 -2.246,-2.367 3.117,-0.872 3.118,0.872 5.605,0.871 38.008,8.601 29.285,3.989 24.551,1.496 90.097,-0.871 44.989,-1.497 6.355,0 33.274,-3.988 30.156,-5.609 30.035,-8.477 20.438,-11.094 11.089,-7.972 7.977,-7.106 8.598,-7.976 10.468,-13.336 7.977,-19.07 2.242,-14.208 -2.242,-13.46 -4.863,-10.223 -19.813,-22.184 -20.562,-15.828 -34.77,-14.211 -4.859,-3.113 -11.715,-2.496 -5.606,-3.113 -7.976,-1.747 -9.473,-2.242 -6.23,-3.242 -10.465,-0.746 -10.969,-5.484 -7.976,-1.621 -10.219,0 -12.711,-3.243 -0.871,0.875 -0.621,0 -1.621,-1.496 5.605,-3.988 13.336,-0.871 11.965,-1.621 48.226,-1.496 37.262,-0.75 17.32,-2.367 6.356,0 25.297,-8.848 26.047,-17.324 15.078,-18.2 7.976,-19.941 0.746,-26.797 -3.117,-10.219 -4.859,-11.964 -17.32,-22.063 -25.297,-26.1718 -7.977,-5.6094 -10.344,-7.9766 -14.828,-6.9804 -2.492,-2.3672 -4.863,-0.75 -2.242,-2.4922 -22.18,-4.6094 -22.93,-2.4922 -39.629,-4.6133 -15.828,-1.7461 -2.367,-1.6171 -126.488,-0.625 -32.524,-1.6211 -56.953,-5.4844 -22.804,-4.8594 -6.356,-0.7461 -4.734,-2.3711 -1.746,0 L 140.547,9.22656 134.316,7.60547 123.973,0.5 l -6.231,1.49609 0,11.09371 5.606,6.3555 20.562,15.8281 29.285,10.3477 36.266,4.7344 58.695,8.7265 59.942,4.7344 43.492,-0.7461 22.055,0.7461 31.777,3.9883 0.875,0.8711 36.262,7.1055 38.132,14.207 15.079,9.4726 18.07,19.0701 4.738,11.094 0,12.59 -2.371,11.09 -1.617,7.726 -18.82,15.082 -9.594,1.621 -14.332,3.243 -6.231,2.242 -10.343,0 -15.825,2.492 -64.054,0 -17.45,-2.492 -3.984,0 -1.496,-1.496 -15.078,-0.746 -7.106,-1.497 -26.793,0 -1.742,-1.746 -7.105,2.368 -13.207,0 -34.149,1.621 -7.972,0.871 -22.805,0.625 -14.332,0.871 -11.84,3.117 -10.344,0.871 -11.09,4.738 -8.597,2.368 -31.778,19.691 -14.957,12.715 -4.734,5.484 -6.355,0 -21.309,7.352 -28.5391,7.726 -23.8008,14.336 -18.9414,15.828 -8.7265,11.094 -10.2188,18.07 -2.36718,5.61 0.625,0.871 -3.73828,7.105 -2.49219,15.704 -2.367187,2.492 0.871097,31.66 6.23047,19.691 15.07817,26.172 17.4453,20.567 0,1.496 1.4961,0 5.6093,6.355 26.168,19.695 5.4844,3.989 53.8356,29.289 7.727,5.609 3.363,4.735 11.715,10.218 8.848,11.965 0,7.106 1.621,25.3 -7.106,25.301 -14.453,31.66 -9.472,15.953 -1.497,5.485 -22.179,37.265 -3.117,6.231 -7.102,26.051 0.621,28.664 7.352,21.191 20.437,31.781 11.84,14.082 10.219,14.211 1.746,1.743 -33.899,-0.747 -13.707,15.704 -3.117,5.734 0,6.98 8.727,11.84 21.433,20.567 23.676,11.09 32.402,7.105 28.536,-1.496 23.679,-5.609 0,0 z m 110.035,-506.399 0,0 -4.859,-1.492 -13.457,1.492 -27.664,-3.113 -16.574,0 -14.207,-0.875 0,0.875 -25.297,-4.863 -10.344,-3.114 -39.504,-9.472 -18.195,-15.082 -7.852,-15.704 -3.113,-11.093 2.242,-13.586 2.367,-3.989 5.61,-2.242 27.664,-3.242 55.332,-2.242 14.203,1.496 67.172,6.23 15.824,2.493 11.094,0.875 30.031,3.738 30.156,7.977 20.563,8.722 14.207,11.965 1.621,9.473 -3.988,7.976 -15.828,11.719 -41.122,9.598 -7.976,0 -12.586,1.492 -9.598,-0.621 -5.48,2.242 -18.195,0.875 -2.247,1.492" style="fill:#231f20;fill-opacity:1;fill-rule:nonzero;stroke:none" id="path6411"/><path d="m 240.488,887.664 18.821,-20.566 11.089,-16.7 2.493,-17.449 0,-7.976 -1.621,-1.496 1.621,-2.493 -3.118,-27.671 -9.593,-39.508 -7.977,-38.762 -0.621,-29.164 1.496,-6.484 2.242,-18.196 6.481,-38.761 2.367,-22.063 0.746,-27.043 -7.851,-25.926 -7.973,-19.941 -12.586,-17.324 -4.863,-9.473 -15.7,-18.195 -14.457,-13.586 -48.101,-34.653 -31.653,-30.16 -11.093,-13.461 -7.977,-16.578 -2.367,-11.09 0,-10.222 0.875,-7.102 1.492,-1.496 0,-3.988 7.977,-14.457 18.941,-14.832 18.945,-8.852 38.754,-5.484 15.078,-1.621 34.149,-1.493 37.258,0 5.484,1.493 13.332,0 1.496,2.496 2.492,-1.621 7.106,0 1.496,1.621 15.824,0 19.067,3.113 42.621,3.863 6.355,2.496 11.961,0 39.383,11.09 11.961,6.235 7.105,2.367 11.961,10.219 3.864,7.976 -0.747,14.211 -6.355,8.848 -13.336,9.472 -15.949,6.231 -34.149,5.609 -49.843,3.988 -58.325,-0.871 -7.101,-1.621 -21.309,-1.496 -24.551,-3.988 -16.574,-4.734 -11.965,-1.497 -19.066,-7.105 -11.09,-5.609 -13.336,-14.332 -8.847,-22.809 0,-8.848 3.367,-12.715 0.621,-0.621 -17.32,3.114 -21.434,11.093 -12.586,14.207 -7.105,17.45 0.871,14.211 11.714,23.679 23.68,25.426 17.57,11.094 18.942,3.113 11.84,3.988 32.523,7.856 52.09,4.734 42.621,0 7.102,1.496 18.32,-1.496 7.852,1.496 4.859,-1.496 44.988,-2.492 15.078,0 20.563,-2.242 0,-0.875 27.664,-3.863 11.09,-3.989 27.043,-6.23 11.715,-5.485 27.664,-18.32 14.207,-14.957 9.593,-19.07 3.243,-11.094 0,-14.082 -3.989,-10.469 -10.343,-12.59 -1.618,-3.117 -27.668,-21.437 -20.562,-7.852 -25.297,-11.965 -64.926,-19.07 -27.664,-4.609 -22.183,-5.485 -80.504,-11.965 -54.707,-5.609 -26.168,1.621 -51.344,3.988 -16.699,3.989 -36.262,7.976 -18.1953,6.231 -26.1719,13.461 -11.0899,8.601 -4.8593,2.492 -16.5743,19.692 -9.4726,16.578 -3.1133,10.469 -3.11718,15.703 0.625,27.047 3.36328,12.59 19.6914,37.265 24.5469,27.543 30.1601,19.695 15.6991,8.723 11.094,7.977 26.168,13.461 17.324,15.703 34.02,45.246 7.976,26.797 0,0.871 -0.875,31.656 -2.367,26.176 0,15.082 -1.617,11.715 0.871,54.715 0.746,0 2.367,5.609 0,5.484 8.727,36.391 7.226,18.199 2.243,16.578 1.621,6.356 -2.243,16.699 8.598,3.117 1.621,1.496 -0.75,4.735 -2.367,2.371 -9.594,-4.614 -24.551,-3.988 -41,-0.871 -22.804,-3.242 -9.223,10.469 -5.234,6.234 -1.496,1.617 0.625,4.738 21.433,22.934 13.336,9.473 5.606,1.617 27.668,8.851 16.574,1.497 19.937,-1.497 26.168,-5.609 0,0" style="fill:#6f7570;fill-opacity:1;fill-rule:nonzero;stroke:none" id="path6413"/><path d="m 212.574,872.582 -2.242,-3.988 -11.09,-6.356 -6.355,1.496 -10.719,11.59 10.719,3.617 7.601,1.493 8.348,-1.618 3.738,-6.234 0,0" style="fill:#231f20;fill-opacity:1;fill-rule:nonzero;stroke:none" id="path6415"/><path d="m 202.355,871.711 0,-2.367 -1.496,-1.621 -4.859,0.871 -1.617,1.621 1.617,3.988 4.859,-0.871 1.496,-1.621 0,0" style="fill:#515070;fill-opacity:1;fill-rule:nonzero;stroke:none" id="path6417"/><path d="m 295.82,840.055 15.828,-18.2 37.758,-54.464 11.09,-34.153 1.746,-5.484 -0.871,-21.313 -1.621,-1.742 -3.988,-21.316 -19.692,-52.223 -15.949,-23.805 -45.734,-59.949 -15.703,-13.586 9.472,22.934 0,4.738 2.242,3.988 1.622,16.7 -1.622,27.668 1.622,3.988 11.835,6.234 12.711,0.871 3.989,1.497 0.875,0 1.492,1.621 0,0.871 -7.973,3.117 -14.957,-1.621 -7.972,-3.988 -2.247,-2.368 -4.859,23.68 0,11.965 18.941,7.976 17.575,1.497 17.195,-2.368 2.367,1.496 0,2.493 -6.355,4.609 -19.688,1.746 -10.219,-1.746 -20.562,-7.727 -0.871,-0.871 -2.371,8.598 -2.242,28.668 19.691,9.473 16.574,0.625 22.055,-4.614 3.117,-1.621 2.492,0 2.367,2.492 -2.367,4.614 -18.07,6.48 -15.078,2.242 -15.078,-3.113 -15.078,-8.726 0.871,17.324 2.492,7.105 -0.871,3.988 20.558,14.333 7.977,3.117 22.059,1.621 12.585,-2.371 7.106,-3.114 10.215,-2.492 0.875,0 0.621,0.871 -3.738,5.485 -15.079,7.976 -13.332,2.242 -26.171,-3.113 -14.207,-7.855 -4.86,-3.985 3.363,10.965 0.625,7.977 3.364,11.093 11.715,6.481 11.964,1.496 13.332,-0.871 7.106,-0.625 3.863,-1.621 2.367,2.246 -3.117,5.605 -13.332,3.993 -3.988,-1.621 -3.988,1.621 -20.438,-4.739 -2.367,-1.496 -0.875,0 -0.746,0.625 0,1.617 0.746,0 0.875,7.981 1.496,6.355 0,8.598 2.367,7.105 0,14.211 -2.367,11.09 -1.496,8.852 7.851,-7.106 11.09,-8.847 0,0" style="fill:#cac4b4;fill-opacity:1;fill-rule:nonzero;stroke:none" id="path6419"/><path d="m 210.332,815.5 0,-10.219 -3.988,-15.707 -10.344,0 -31.527,1.496 -7.977,-1.496 -3.988,0 -1.492,-2.492 0.621,-3.117 9.597,-1.742 34.766,-0.625 7.977,-1.621 -3.989,-11.965 -4.734,-18.071 0,-1.621 -7.106,3.989 -5.48,4.613 -27.043,0.871 -7.727,-0.871 -7.976,-3.867 -2.492,-2.367 2.492,-2.368 11.094,2.368 28.41,-0.747 7.851,-4.738 5.61,-7.976 -4.739,-29.289 -0.871,-3.989 -32.277,9.598 -16.695,-0.871 -2.371,-3.117 0,-1.621 3.117,-1.497 11.965,0 22.804,-5.609 11.961,-4.734 1.496,-8.723 0,-30.785 -10.964,3.113 -22.93,2.367 -3.242,-1.742 -0.746,-3.117 2.242,-2.367 23.054,-2.242 14.207,-3.993 1.497,-20.562 0,-3.117 -9.348,0.625 -7.227,-2.371 -1.496,-2.243 1.496,-1.621 13.457,0 4.86,-5.484 0,-34.148 -7.973,-20.567 -12.59,-18.195 -0.871,-0.871 0.871,24.55 -7.972,29.29 -26.793,51.601 -15.079,25.922 -6.355,11.965 -4.738,11.094 -4.86,17.449 1.621,27.793 4.86,15.707 7.101,11.09 12.59,21.316 25.297,30.035 3.988,1.621 4.86,3.989 32.273,0.871 0.875,0.625 7.102,0 3.988,-9.473 0,0" style="fill:#cac4b4;fill-opacity:1;fill-rule:nonzero;stroke:none" id="path6421"/><path d="m 412.711,237.063 38.758,-4.614 9.594,0.625 59.32,-0.625 16.574,-2.492 2.492,-2.367 11.09,-3.117 18.816,-10.219 23.055,-17.449 11.094,-24.68 0.871,-12.586 0,-8.601 -4.859,-19.071 -19.692,-26.922 -38.879,-36.2692 -30.035,-15.0781 -66.547,-8.8516 -45.859,-4.6094 -54.707,0 -49.723,-0.875 -2.242,1.7461 -25.422,-3.3633 -0.625,0.8711 -4.859,-1.4961 -56.949,-4.8593 -42.743,-8.7266 -37.261,-14.20704 12.836,13.33594 11.089,7.9766 22.184,8.7226 52.961,7.9766 5.484,1.4961 7.977,0 12.586,2.4922 12.711,0.75 32.273,3.8632 10.469,-1.496 8.473,2.3671 79.132,0.875 2.368,-1.7461 66.547,11.9649 47.355,17.4492 15.078,11.8399 16.574,18.0742 5.61,14.457 -2.242,18.82 0,7.106 -3.368,7.226 -6.976,8.727 -12.711,7.976 -17.449,5.485 -33.895,5.605 -27.789,3.118 -22.93,-2.493 -20.687,0.871 -22.805,-1.496 -12.586,-3.363 -24.676,-1.496 -55.207,0.871 -65.796,5.484 -27.665,7.852 -20.562,10.348 -11.84,7.976 -9.469,7.727 -2.492,2.492 7.973,0 50.722,-3.988 3.114,1.496 17.324,-1.496 22.305,0 26.918,3.988 67.168,7.105 11.089,0.872 18.196,5.484 10.219,2.492 22.929,-6.48 10.219,-0.871 0,0" style="fill:#6f7570;fill-opacity:1;fill-rule:nonzero;stroke:none" id="path6423"/><path d="m 239.617,814.629 c 20.563,-0.625 -4.238,-97.219 -4.238,-145.953 0,-48.731 -1.121,-100.953 -12.086,-100.953 -10.969,0 -23.43,53.343 -23.43,102.078 0,48.73 19.192,145.324 39.754,144.828" style="fill:#6f7570;fill-opacity:1;fill-rule:nonzero;stroke:none" id="path6425"/><path d="m 237.5,808.395 c 16.574,-0.747 -7.105,-90.114 -7.105,-133.735 0,-43.621 1.371,-94.351 -8.598,-94.351 -9.844,0 -18.692,53.347 -18.692,96.968 0,43.746 17.821,131.743 34.395,131.118" style="fill:#777e77;fill-opacity:1;fill-rule:nonzero;stroke:none" id="path6427"/><path d="m 235.504,802.164 c 12.461,-0.875 -10.094,-83.008 -10.094,-121.519 0,-38.641 3.738,-87.622 -4.984,-87.622 -8.723,0 -14.207,53.219 -14.207,91.856 0,38.516 16.699,118.156 29.285,117.285" style="fill:#7e8880;fill-opacity:1;fill-rule:nonzero;stroke:none" id="path6429"/><path d="m 233.387,795.934 c 8.597,-0.875 -13.086,-75.907 -13.086,-109.434 0,-33.527 6.23,-80.766 -1.246,-80.766 -7.602,0 -9.594,53.098 -9.594,86.625 0,33.528 15.453,104.571 23.926,103.575" style="fill:#849086;fill-opacity:1;fill-rule:nonzero;stroke:none" id="path6431"/><path d="m 159.488,492.191 c 59.942,6.731 -87.3591,-74.031 -87.3591,-132.984 0,-58.832 177.2071,-101.582 93.7151,-101.582 -83.4963,0 -148.6682,36.77 -148.6682,95.723 0,58.953 82.4961,132.113 142.3122,138.843" style="fill:#6f7570;fill-opacity:1;fill-rule:nonzero;stroke:none" id="path6433"/><path d="M 157.992,488.953 C 196.625,490.695 65.2773,417.66 65.7773,358.832 66.1484,300.004 226.906,261.242 163.352,260.867 99.7969,260.617 22.0352,297.012 22.0352,355.84 21.9102,414.793 119.359,487.332 157.992,488.953" style="fill:#777e77;fill-opacity:1;fill-rule:nonzero;stroke:none" id="path6435"/><path d="M 156.496,485.836 C 173.82,482.348 58.4219,417.16 59.2969,358.457 60.168,299.754 204.598,264.855 160.859,264.23 117.242,263.609 26.7695,299.504 26.7695,358.332 26.6445,417.285 139.176,489.324 156.496,485.836" style="fill:#7e8880;fill-opacity:1;fill-rule:nonzero;stroke:none" id="path6437"/><path d="M 155,482.594 C 151.141,473.996 51.5703,416.664 52.8164,358.082 54.0625,299.379 182.293,268.469 158.492,267.473 134.566,266.477 31.6289,301.996 31.5039,360.949 31.3789,419.777 158.988,491.195 155,482.594" style="fill:#849086;fill-opacity:1;fill-rule:nonzero;stroke:none" id="path6439"/><path d="m 421.559,236.063 c -32.649,-5.235 -68.164,-16.575 -91.969,-36.02 -4.36,-3.488 -6.231,-8.473 -7.102,-14.082 l -40.129,0.621 -65.796,5.484 -27.665,7.852 -20.562,10.348 -11.84,7.976 -9.469,7.727 -2.492,2.492 7.973,0 50.722,-3.988 3.114,1.496 17.324,-1.496 22.305,0 26.918,3.988 67.168,7.105 11.089,0.872 18.196,5.484 10.219,2.492 22.929,-6.48 10.219,-0.871 0,0 8.848,-1" style="fill:#5f615e;fill-opacity:1;fill-rule:nonzero;stroke:none" id="path6441"/><path d="m 222.297,441.34 c -7.852,-7.852 -18.445,-20.067 -18.445,-25.801 -0.872,-0.871 -3.239,-2.367 -3.239,-3.238 -5.234,-9.848 -5.984,-26.922 -3.367,-40.133 l -1.246,-0.375 -11.09,-5.609 -13.336,-14.332 -8.847,-22.809 0,-8.848 3.367,-12.715 0.621,-0.621 -17.32,3.114 -21.434,11.093 -12.586,14.207 -7.105,17.45 0.871,14.211 11.714,23.679 23.68,25.426 17.57,11.094 18.942,3.113 11.84,3.988 29.41,7.106" style="fill:#5f615e;fill-opacity:1;fill-rule:nonzero;stroke:none" id="path6443"/><path d="m 385.297,437.477 c 121.129,13.961 164.867,-31.782 164.867,-77.774 0,-45.867 -91.844,-82.383 -153.527,-82.383 -61.813,0 92.34,35.52 92.34,81.512 0,45.867 -224.684,64.563 -103.68,78.645" style="fill:#6f7570;fill-opacity:1;fill-rule:nonzero;stroke:none" id="path6445"/><path d="m 387.789,435.605 c 92.84,11.469 157.391,-28.289 157.391,-74.281 0,-45.867 -96.828,-81.14 -146.301,-81.761 -49.598,-0.625 94.461,35.519 94.461,81.511 0,45.867 -198.145,62.942 -105.551,74.531" style="fill:#777e77;fill-opacity:1;fill-rule:nonzero;stroke:none" id="path6447"/><path d="m 390.406,433.738 c 64.551,8.973 149.789,-24.929 149.789,-70.793 0,-45.992 -101.937,-79.894 -139.199,-81.14 -37.133,-1.371 96.832,35.523 96.832,81.386 0,45.993 -171.976,61.45 -107.422,70.547" style="fill:#7b847c;fill-opacity:1;fill-rule:nonzero;stroke:none" id="path6449"/><path d="m 392.898,431.867 c 36.262,6.481 142.313,-21.437 142.313,-67.301 0,-45.992 -106.922,-78.773 -131.969,-80.64 -24.926,-1.871 98.946,35.644 98.946,81.512 0,45.992 -145.555,59.824 -109.29,66.429" style="fill:#828c82;fill-opacity:1;fill-rule:nonzero;stroke:none" id="path6451"/><path d="m 506.922,212.758 c 44.738,-4.363 76.641,-30.91 79.758,-54.344 3.113,-23.305 -9.348,-60.8202 -63.309,-82.1327 -53.957,-21.1875 14.582,17.4492 34.274,63.5627 19.687,46.117 -95.336,77.277 -50.723,72.914" style="fill:#6f7570;fill-opacity:1;fill-rule:nonzero;stroke:none" id="path6453"/><path d="m 511.535,210.391 c 39.004,-5.239 69.535,-32.157 72.278,-53.469 2.742,-21.317 -10.965,-56.461 -59.817,-78.8986 -48.976,-22.3086 18.692,17.0782 36.387,61.9456 17.82,44.871 -87.856,75.781 -48.848,70.422" style="fill:#777e77;fill-opacity:1;fill-rule:nonzero;stroke:none" id="path6455"/><path d="m 516.145,208.145 c 33.273,-6.356 62.433,-33.653 64.675,-52.719 2.371,-19.196 -12.461,-52.223 -56.324,-75.6565 -43.867,-23.4297 22.805,16.7032 38.754,60.4495 15.828,43.625 -80.504,74.16 -47.105,67.926" style="fill:#7e8880;fill-opacity:1;fill-rule:nonzero;stroke:none" id="path6457"/><path d="m 520.633,205.777 c 27.664,-7.355 55.328,-35.023 57.324,-51.972 1.867,-16.953 -14.082,-47.735 -52.965,-72.2894 -38.754,-24.4297 27.043,16.4532 41,58.8284 13.957,42.375 -72.902,72.789 -45.359,65.433" style="fill:#849086;fill-opacity:1;fill-rule:nonzero;stroke:none" id="path6459"/><path d="m 199.242,871.336 8.723,0 -1.121,5.359 -7.602,-5.359" style="fill:#d3d2d2;fill-opacity:1;fill-rule:nonzero;stroke:none" id="path6461"/><path d="m 192.637,870.215 6.105,0.25 -4.359,-2.617 -1.746,2.367" style="fill:#918f90;fill-opacity:1;fill-rule:nonzero;stroke:none" id="path6463"/><path d="m 115.496,838.184 c 17.199,-4.489 77.391,0.746 90.598,5.859 1.121,0 3.117,0.996 4.238,0.996 0,0.496 2.992,2.117 2.992,2.117 l 1.121,0 c 0,0.5 1.993,1.496 3.114,1.496 0,0.5 1,0.5 1,1.621 3.113,0 11.339,4.114 14.453,5.61 1.996,-1 1.496,-6.731 3.117,-8.727 l 0.496,0 c 0.5,-1.121 -3.113,-13.957 -3.613,-13.957 0,-6.109 -9.719,-15.707 -15.078,-22.312 l 0.25,0.75 -2.243,16.699 8.598,3.117 1.621,1.496 -0.75,4.735 -2.367,2.371 -9.594,-4.614 -24.551,-3.988 -41,-0.871 -22.804,-3.242 -9.223,10.469 -0.375,0.375" style="fill:#646764;fill-opacity:1;fill-rule:nonzero;stroke:none" id="path6465"/><path d="m 130.328,850.273 c 0,0 -2.617,-1.621 -2.121,-2.617 l 0.5,0 c 1.621,-2.121 6.731,-0.996 6.731,-4.613 l 0.496,-0.621 1,0 0,8.351 -6.606,-0.5" style="fill:#646764;fill-opacity:1;fill-rule:nonzero;stroke:none" id="path6467"/><path d="m 114.129,855.133 c 2.492,0.75 4.734,1.621 6.851,2.371 2.118,0.496 12.336,4.109 12.336,7.226 5.235,0 11.465,9.723 19.192,9.723 0,0.5 7.726,3.113 8.726,3.113 0,1 10.84,5.239 11.836,5.239 1.621,1.492 8.352,1.492 9.848,2.988 6.477,0 24.797,0.5 34.145,6.855 l -2.743,0.625 -19.937,1.497 -16.574,-1.497 -27.668,-8.851 -5.606,-1.617 -13.336,-9.473 -17.07,-18.199" style="fill:#757d77;fill-opacity:1;fill-rule:nonzero;stroke:none" id="path6469"/><path d="m 120.234,727.879 c 15.575,14.707 36.012,18.199 54.582,4.113 l -0.25,-0.371 c -18.441,-0.25 -36.015,-0.5 -54.332,-3.742" style="fill:#d3cdbc;fill-opacity:1;fill-rule:nonzero;stroke:none" id="path6471"/><path d="m 130.453,763.402 c 2.863,2.989 5.481,6.356 9.098,8.473 9.344,5.359 37.012,6.484 45.609,-1.742 l -0.375,-0.875 c -6.73,0.625 -10.719,-1.121 -17.195,-1.992 -13.086,-0.375 -24.18,-0.996 -37.137,-3.864" style="fill:#d3cdbc;fill-opacity:1;fill-rule:nonzero;stroke:none" id="path6473"/><path d="m 137.555,682.887 c 17.445,18.695 22.804,11.34 39.629,2.242 l -0.25,-1.371 c -8.348,-1.121 -10.965,0.996 -18.567,1.496 -6.105,0.375 -14.457,-1.621 -20.812,-2.367" style="fill:#d3cdbc;fill-opacity:1;fill-rule:nonzero;stroke:none" id="path6475"/><path d="m 155.75,634.027 c 4.984,7.606 8.348,13.336 16.574,7.977 l 0,-1.867 c -5.234,-3.367 -10.469,-4.864 -16.574,-6.11" style="fill:#d3cdbc;fill-opacity:1;fill-rule:nonzero;stroke:none" id="path6477"/><path d="m 175.438,589.781 c -7.227,6.731 -8.473,7.106 -5.481,16.578 8.848,-5.359 7.727,-6.48 5.481,-16.578" style="fill:#d3cdbc;fill-opacity:1;fill-rule:nonzero;stroke:none" id="path6479"/><path d="m 281.238,579.563 c 2.121,10.718 3.617,21.812 13.711,28.789 3.239,2.246 11.09,3.242 15.449,4.488 l 0,1.246 c -11.464,3.738 -21.433,4.238 -29.035,-7.102 -7.226,-10.722 -4.109,-16.453 -0.125,-27.421 l 0,0 z m 1,4.984 c -0.375,-1.742 -0.625,-3.363 -1,-4.984 l 1,4.984" style="fill:#d3cdbc;fill-opacity:1;fill-rule:nonzero;stroke:none" id="path6481"/><path d="m 274.137,636.398 c 1.621,12.211 2.492,14.082 15.328,17.571 14.082,3.742 26.918,1.496 40.5,-2.742 l 0,-1.368 -25.918,-3.117 c -5.359,-0.5 -18.82,-0.25 -23.18,-2.992 -2.867,-1.746 -4.488,-4.984 -6.73,-7.352" style="fill:#d3cdbc;fill-opacity:1;fill-rule:nonzero;stroke:none" id="path6483"/><path d="m 267.781,691.609 c 9.098,2.743 20.938,7.606 30.407,7.856 10.468,0.121 29.16,-2.742 35.89,-11.594 l -0.25,-0.496 c -22.18,3.363 -43.988,0.871 -66.047,4.234" style="fill:#d3cdbc;fill-opacity:1;fill-rule:nonzero;stroke:none" id="path6485"/><path d="m 279.621,730.246 c 18.567,16.328 39.254,13.215 57.695,-3.363 l -0.496,-1.121 c -6.855,1.621 -14.207,4.984 -20.812,5.98 -3.488,0.5 -6.856,-0.746 -10.344,-0.621 -10.469,0.125 -15.453,0.996 -26.043,-0.875" style="fill:#d3cdbc;fill-opacity:1;fill-rule:nonzero;stroke:none" id="path6487"/><path d="m 279.621,771.254 c 14.828,11.715 32.649,10.344 47.356,0.25 l -0.25,-0.5 c -16.329,-0.871 -30.907,0 -47.106,0.25" style="fill:#d3cdbc;fill-opacity:1;fill-rule:nonzero;stroke:none" id="path6489"/><path d="m 285.102,806.027 c 9.722,6.231 9.847,7.106 19.816,0.871 l -0.125,-0.246 c -9.473,-5.859 -9.348,-5.363 -19.691,-0.625" style="fill:#d3cdbc;fill-opacity:1;fill-rule:nonzero;stroke:none" id="path6491"/><path d="m 164.473,803.66 c 14.332,7.477 20.937,10.594 36.265,1.496 -12.961,-4.738 -22.808,-4.238 -36.265,-1.496" style="fill:#d3cdbc;fill-opacity:1;fill-rule:nonzero;stroke:none" id="path6493"/></g></g></svg>