<?xml version="1.0" encoding="UTF-8" standalone="no"?>
<!-- Created with Inkscape (http://www.inkscape.org/) -->
<svg xmlns:dc="http://purl.org/dc/elements/1.1/" xmlns:cc="http://creativecommons.org/ns#" xmlns:rdf="http://www.w3.org/1999/02/22-rdf-syntax-ns#" xmlns:svg="http://www.w3.org/2000/svg" xmlns="http://www.w3.org/2000/svg" xmlns:sodipodi="http://sodipodi.sourceforge.net/DTD/sodipodi-0.dtd" xmlns:inkscape="http://www.inkscape.org/namespaces/inkscape" width="210mm" height="297mm" id="svg2" sodipodi:version="0.32" inkscape:version="0.46" sodipodi:docname="oca_gris.svg" inkscape:output_extension="org.inkscape.output.svg.inkscape">
  <defs id="defs4">
    <inkscape:perspective sodipodi:type="inkscape:persp3d" inkscape:vp_x="0 : 526.18109 : 1" inkscape:vp_y="0 : 1000 : 0" inkscape:vp_z="744.09448 : 526.18109 : 1" inkscape:persp3d-origin="372.04724 : 350.78739 : 1" id="perspective10"/>
    <inkscape:perspective id="perspective2498" inkscape:persp3d-origin="372.04724 : 350.78739 : 1" inkscape:vp_z="744.09448 : 526.18109 : 1" inkscape:vp_y="0 : 1000 : 0" inkscape:vp_x="0 : 526.18109 : 1" sodipodi:type="inkscape:persp3d"/>
  </defs>
  <sodipodi:namedview id="base" pagecolor="#ffffff" bordercolor="#666666" borderopacity="1.0" inkscape:pageopacity="0.0" inkscape:pageshadow="2" inkscape:zoom="0.5" inkscape:cx="350.65131" inkscape:cy="558.05905" inkscape:document-units="px" inkscape:current-layer="layer6" showgrid="false" inkscape:window-width="1024" inkscape:window-height="697" inkscape:window-x="0" inkscape:window-y="25"/>
  <metadata id="metadata7">
    <rdf:RDF>
      <cc:Work rdf:about="">
        <dc:format>image/svg+xml</dc:format>
        <dc:type rdf:resource="http://purl.org/dc/dcmitype/StillImage"/>
      </cc:Work>
    </rdf:RDF>
  </metadata>
  <g inkscape:groupmode="layer" id="layer6" inkscape:label="patas" style="display:inline">
    <g id="g3543">
      <path sodipodi:nodetypes="ccsssscscssscssssssss" id="path3529" d="M 276,654.36218 C 294.5,657.86218 294.5,657.86218 294.5,657.86218 C 294.5,657.86218 293.48205,671.65354 292,677.36218 C 291.39105,679.70775 287.66402,682.84038 289,684.86218 C 292.22032,689.73564 302.82815,696.36218 301,696.36218 C 301,696.36218 309.09423,701.20837 313,701.86218 C 322.06798,703.38013 343.5,698.86218 343.5,698.86218 C 343.5,698.86218 330.4749,709.17435 331,715.36218 C 331.27817,718.64016 339,722.86218 339,722.86218 C 339,722.86218 330.25251,722.30179 326.5,722.36218 C 314.01913,722.56305 305.4768,720.23902 293,719.86218 C 290.73112,719.79365 279.53441,723.35537 277.5,724.36218 C 276.41613,724.89858 275.5,727.86218 275.5,727.86218 C 275.5,727.86218 263.12953,719.52148 261,713.86218 C 258.45551,707.10011 260.9133,696.77924 263,689.86218 C 263.98886,686.58428 267.86971,683.22748 268.5,679.86218 C 268.91787,677.63106 269.36392,673.65767 267.5,672.36218 C 264.72112,670.43077 258.01108,677.89024 256.5,674.86218 C 255.35942,672.57656 260.92907,670.85759 263,669.36218 C 265.56535,667.50975 269.93651,666.26104 272,663.86218 C 274.01659,661.51785 276,654.36218 276,654.36218 z" style="fill:#d26956;fill-opacity:1;fill-rule:evenodd;stroke:#000000;stroke-width:1px;stroke-linecap:butt;stroke-linejoin:miter;stroke-opacity:1"/>
      <path sodipodi:nodetypes="cscsscsc" id="path3539" d="M 278,723.86218 C 278,723.86218 274.42833,714.56445 274,710.36218 C 273.28253,703.32316 276,686.86218 276,686.86218 C 276,686.86218 279.02339,699.65199 282.5,703.86218 C 285.75995,707.81 292.42206,710.56981 297,712.86218 C 303.62525,716.17972 320,721.86218 320,721.86218 C 320,721.86218 300.38088,720.06147 296,720.36218 C 287.76937,720.92714 278,723.86218 278,723.86218 z" style="fill:#962d0f;fill-opacity:1;fill-rule:evenodd;stroke:#000000;stroke-width:1px;stroke-linecap:butt;stroke-linejoin:miter;stroke-opacity:1"/>
      <path sodipodi:nodetypes="csscscssc" id="path3541" d="M 286,691.86218 C 286,691.86218 295.55393,696.5316 299.5,698.36218 C 304.56398,700.71135 311.42094,705.17104 317,705.36218 C 324.65139,705.62432 337,702.86218 337,702.86218 C 337,702.86218 333.04744,708.04442 330.5,712.36218 C 329.18421,714.59236 333.5,720.36218 333.5,720.36218 C 333.5,720.36218 312.61353,716.06045 306,711.36218 C 303.651,709.69344 298.67028,707.21008 297,704.86218 C 294.22572,700.96239 286,691.86218 286,691.86218 z" style="fill:#962d0f;fill-opacity:1;fill-rule:evenodd;stroke:#000000;stroke-width:1px;stroke-linecap:butt;stroke-linejoin:miter;stroke-opacity:1"/>
    </g>
    <g id="g3556" transform="translate(0.5,-2)">
      <path sodipodi:nodetypes="ccccsssssssssssssssssssscc" id="path3548" d="M 354,678.86218 C 359.5,682.36218 365,681.86218 365,681.86218 L 376,680.36218 L 379,679.36218 C 379,679.36218 380.66115,686.3329 380.5,689.36218 C 380.3106,692.92261 377.39865,697.29816 377.5,700.86218 C 377.63889,705.74615 382.30403,711.99753 384.5,716.36218 C 386.81977,720.97289 388.48775,726.11874 393,727.86218 C 398.88492,730.13599 407.06446,721.20503 413,721.86218 C 416.26978,722.22419 423.94852,732.63297 427,733.86218 C 433.2052,736.36179 435.12123,736.84631 441,736.86218 C 445.51246,736.87436 457.04704,735.45147 458,739.86218 C 458.49482,742.15241 452.5469,742.58382 452,744.86218 C 451.20008,748.19462 456.60067,751.93656 456.5,755.36218 C 456.43103,757.70904 454.92156,761.01307 453,762.36218 C 448.79724,765.31291 441.60697,761.89966 436.5,761.36218 C 427.20668,760.3841 415.5128,756.40653 406.5,754.36218 C 397.66222,752.35753 390.19362,753.73382 382,749.86218 C 379.58532,748.7212 367.82667,746.00898 370,742.36218 C 371.11609,740.4894 370.24892,735.46622 368,734.86218 C 366.5659,734.47699 365.9841,738.4116 364.5,738.36218 C 362.90636,738.30912 360.75262,735.9374 361,734.36218 C 361.40709,731.77002 368.33998,732.48122 368.5,729.86218 C 368.94167,722.63358 367.19553,716.37808 365.5,710.86218 C 363.84388,705.47448 357.5,693.86218 357.5,693.86218 L 354,678.86218 z" style="fill:#d26956;fill-opacity:1;fill-rule:evenodd;stroke:#000000;stroke-width:1px;stroke-linecap:butt;stroke-linejoin:miter;stroke-opacity:1"/>
      <path sodipodi:nodetypes="cscsscssscs" id="path3550" d="M 395.5,734.86218 C 396.50588,732.85043 405.6204,730.58892 410,728.86218 C 412.38456,727.92203 418,725.86218 418,725.86218 C 418,725.86218 423.537,731.12702 426.5,732.36218 C 430.55312,734.05177 436.62597,733.97443 441,734.36218 C 446.73582,734.87065 456.5,738.86218 456.5,738.86218 C 456.5,738.86218 444.267,740.20812 439,740.36218 C 433.45035,740.52451 426.04959,740.02668 420.5,739.86218 C 415.84962,739.72433 409.61133,739.97911 405,739.36218 C 401.79054,738.9328 394.5,736.86218 394.5,736.86218 L 395.5,734.86218 z" style="fill:#962d0f;fill-opacity:1;fill-rule:evenodd;stroke:#000000;stroke-width:1px;stroke-linecap:butt;stroke-linejoin:miter;stroke-opacity:1"/>
      <path sodipodi:nodetypes="ccssssscc" id="path3554" d="M 399.5,746.36218 L 417,745.36218 C 417,745.36218 428.55903,745.52773 433.5,745.86218 C 439.21841,746.24925 447.9179,744.41917 452.5,747.86218 C 455.99621,750.48925 458.00033,756.77423 455.5,760.36218 C 452.92576,764.0562 446.7333,761.24619 443,760.86218 C 436.8478,760.22936 428.98371,757.42591 423,755.86218 C 418.03592,754.56491 406.5,751.36218 406.5,751.36218 L 399.5,746.36218 z" style="fill:#962d0f;fill-opacity:1;fill-rule:evenodd;stroke:#000000;stroke-width:1px;stroke-linecap:butt;stroke-linejoin:miter;stroke-opacity:1"/>
    </g>
    <path style="fill:#f0f0f0;fill-opacity:1;fill-rule:evenodd;stroke:#000000;stroke-width:1px;stroke-linecap:butt;stroke-linejoin:miter;stroke-opacity:1" d="M 342,665.86218 C 350.5,672.86218 349.46209,670.22229 352,672.86218 C 353.73018,674.66189 354.5402,678.31568 356.5,679.86218 C 358.99514,681.83113 363.32665,683.18238 366.5,683.36218 C 369.87874,683.55362 374.89199,683.01875 377.5,680.86218 C 379.51883,679.1928 380.1683,675.34629 381,672.86218 C 382.02804,669.79165 382.45016,665.42532 383.5,662.36218 C 384.67526,658.93308 388.5,651.36218 388.5,651.36218 L 342,665.86218 z" id="path3561" sodipodi:nodetypes="csssssscc"/>
  </g>
  <g inkscape:groupmode="layer" id="layer2" inkscape:label="Cuerpo" style="display:inline">
    <path style="fill:#f0f0f0;fill-opacity:1;fill-rule:evenodd;stroke:#000000;stroke-width:1px;stroke-linecap:butt;stroke-linejoin:miter;stroke-opacity:1" d="M 552.5,265.93361 C 554.00984,257.02558 542.8685,252.88623 537.5,249.1479 C 533.91333,246.65034 521.87049,243.40368 517.5,243.43362 C 511.36394,243.47564 504.43733,247.3582 501.07143,250.21933 C 492.0595,257.87976 483.96324,267.07087 477.5,275.57647 C 472.16078,282.60287 465.74478,293.02885 461.42857,300.93361 C 455.08809,312.54564 448.21017,328.81296 445,341.6479 C 441.25066,356.63849 440.75091,377.09258 440,392.36218 C 439.7053,398.35494 440.76984,407.84034 440,413.79075 C 438.91964,422.14125 436.84697,431.08919 435.71428,439.1479 C 435.21856,442.67482 431.52112,446.9974 428.92857,446.29075 C 419.53468,443.73027 402.93748,438.50102 391.42857,438.07647 C 382.34338,437.74133 368.37979,437.44831 358.57143,438.43361 C 345.54581,439.7421 328.33442,443.1678 315.71429,446.6479 C 310.87848,447.98141 304.64013,450.45629 300,452.36218 C 283.85781,458.99244 262.16118,470.81434 245.71429,476.6479 C 229.45195,482.416 218.57143,486.6479 191.42857,490.93361 C 164.28571,495.21933 152.66671,508.22033 136.42857,512.00504 C 126.50136,514.31882 111.52116,512.05361 95.000004,511.64789 C 89.092391,511.50282 71.495249,516.50462 70,520.21933 C 74.518149,524.95428 97.142857,529.14789 97.142857,529.14789 C 97.142857,529.14789 68.559031,525.67333 61.428571,533.79075 C 57.751671,537.97659 52.142857,540.57647 56.071428,549.86218 C 59.591858,558.18319 88.487351,551.40736 99.285714,558.07646 C 98.635291,564.43934 100.34375,564.57909 102.85714,565.21933 C 114.32955,568.14173 131.57655,576.22412 142.5,583.43361 C 152.75593,590.20254 164.25465,602.40713 174.28571,609.50504 C 189.00009,619.91683 210.55741,630.73167 227.14286,637.36218 C 242.68326,643.57491 262.99049,649.48322 278.57143,654.86218 C 288.20078,658.18649 301.26443,663.34641 311.42857,665.21933 C 336.29327,669.8011 366.21691,663.91051 391.07143,658.79076 C 404.34536,656.05648 426.45988,648.03667 438.21429,641.29075 C 462.44661,627.38367 485.37876,600.12258 507.85714,580.57647 C 519.89283,570.11081 531.20603,548.80496 534.64286,532.36219 C 540.01096,506.6797 534.95039,492.5953 532.5,477.36218 C 530.28292,463.57951 523.31975,449.58123 518.57143,437.71933 C 514.29776,427.04316 505.96767,413.54523 502.85714,402.36218 C 500.07939,392.37554 501.10705,377.57914 502.85714,367.36218 C 504.4751,357.91661 506.80423,348.51367 511.42857,340.93361 C 516.00825,333.42675 516.88211,329.29695 523.92857,323.07647 C 528.29859,319.21869 545.35714,308.07647 545.35714,308.07647 L 552.5,265.93361 z" id="path2525" sodipodi:nodetypes="cssssssssssssssssssccsscsssssssssssssssscs"/>
  </g>
  <g inkscape:groupmode="layer" id="layer3" inkscape:label="pico" style="display:inline">
    <path style="fill:#fb9354;fill-opacity:1;fill-rule:evenodd;stroke:#000000;stroke-width:1px;stroke-linecap:butt;stroke-linejoin:miter;stroke-opacity:1" d="M 519.99999,290.21933 C 519.28571,299.50504 520.35714,299.86219 520.35714,299.86219 C 520.35714,299.86219 531.49154,303.60394 536.42857,304.50504 C 539.07203,304.98752 542.67215,305.1121 545.35714,305.21933 C 547.49829,305.30484 549.95543,305.11368 552.49999,305.21933 C 554.99912,305.32309 560.59344,308.13245 561.78571,305.93361 C 562.17466,305.2163 561.32112,303.9791 560.71428,303.43361 C 558.54668,301.48518 554.10506,301.7303 551.42857,300.57647 C 548.03591,299.1139 544.1594,295.83934 540.71428,294.50504 C 538.46018,293.63202 535.61647,294.0603 533.21429,293.79076 C 530.76537,293.51598 527.03236,293.32177 524.64285,292.71933 C 523.1089,292.3326 519.99999,290.21933 519.99999,290.21933 z" id="path3298" sodipodi:nodetypes="ccsssssssssc"/>
    <path style="fill:#fb9354;fill-opacity:1;fill-rule:evenodd;stroke:#000000;stroke-width:1px;stroke-linecap:butt;stroke-linejoin:miter;stroke-opacity:1" d="M 530.35714,265.93361 C 527.5,277.71932 526.07143,282.36218 526.07143,282.36218 L 519.64286,289.1479 C 519.64286,289.1479 520.97781,291.07953 521.78572,291.6479 C 523.75497,293.03327 526.90277,294.16047 529.28572,294.50504 C 532.0509,294.90488 535.85976,293.11775 538.57143,293.79075 C 540.90827,294.37073 543.27018,296.87572 545.35714,298.07647 C 547.76636,299.46263 551.09615,301.09776 553.57143,302.36218 C 555.70497,303.45204 558.34741,305.56257 560.71429,305.93361 C 562.10653,306.15186 564.21835,306.04945 565.35714,305.21932 C 566.32514,304.51369 567.18883,302.84491 567.14286,301.6479 C 567.07094,299.77504 565.02131,297.81347 563.92857,296.29075 C 562.28886,294.00584 559.62263,291.33707 557.85714,289.1479 C 556.41772,287.36304 554.32526,285.08231 553.21429,283.07647 C 552.32721,281.47487 551.33797,279.17353 551.07143,277.36218 C 550.83694,275.76863 551.69974,273.59276 551.42857,272.00504 C 551.2912,271.20071 551.05643,269.92553 550.35714,269.50504 C 549.25147,268.84019 547.36159,269.86703 546.07143,269.86218 C 544.88801,269.85773 542.14286,269.50504 542.14286,269.50504 C 542.14286,269.50504 539.21954,267.37703 537.85714,266.6479 C 536.62909,265.99067 534.96336,264.91304 533.57143,264.86218 C 532.55566,264.82507 530.35714,265.93361 530.35714,265.93361 z" id="path3300" sodipodi:nodetypes="cccssssssssssssssscssc"/>
    <path style="fill:#aa0301;fill-opacity:1;fill-rule:evenodd;stroke:#aa0301;stroke-width:1px;stroke-linecap:butt;stroke-linejoin:miter;stroke-opacity:1" d="M 540.35714,280.93361 C 546.07143,284.50504 545.71428,287.71932 545.71428,287.71932 L 545.35714,287.00504 L 541.42857,283.07647 L 540.35714,280.93361 z" id="path3302"/>
  </g>
  <g inkscape:groupmode="layer" id="layer4" inkscape:label="ojo" style="display:inline">
    <path style="fill:#55140b;fill-opacity:1;fill-rule:evenodd;stroke:#000000;stroke-width:1px;stroke-linecap:butt;stroke-linejoin:miter;stroke-opacity:1" d="M 509.74823,253.45778 C 512.25136,252.51901 510.02666,252.44478 512.14733,252.5739 C 515.40908,252.7725 514.86359,252.36758 515.5566,253.20525 C 516.15298,253.92612 516.98725,254.94538 517.1981,255.8569 C 517.45549,256.96961 517.31887,258.61794 516.81929,259.64497 C 516.24505,260.82549 514.87185,262.16454 513.66257,262.67543 C 512.65003,263.10321 511.03417,263.17625 510.00076,262.8017 C 509.09278,262.47261 508.36701,260.95381 508.10673,260.02377 C 506.97409,255.97668 509.74823,253.45778 509.74823,253.45778 z" id="path3305" sodipodi:nodetypes="cssssssss"/>
    <path sodipodi:type="arc" style="opacity:1;fill:#000000;fill-opacity:1;stroke:#000000;stroke-width:0.5;stroke-linecap:butt;stroke-linejoin:miter;stroke-miterlimit:4;stroke-dasharray:none;stroke-opacity:1" id="path3307" sodipodi:cx="508.67493" sodipodi:cy="265.07455" sodipodi:rx="1.5783633" sodipodi:ry="0.75761443" d="M 510.25329,265.07455 A 1.5783633,0.75761443 0 1 1 507.09656,265.07455 A 1.5783633,0.75761443 0 1 1 510.25329,265.07455 z" transform="matrix(0.5196012,0,0,1.0825025,248.72312,-30.455606)"/>
  </g>
  <g inkscape:groupmode="layer" id="layer5" inkscape:label="plumas" style="display:inline">
    <path style="fill:none;fill-rule:evenodd;stroke:#000000;stroke-width:0.5;stroke-linecap:butt;stroke-linejoin:miter;stroke-miterlimit:4;stroke-dasharray:none;stroke-opacity:1" d="M 516.8193,304.59676 C 503.30851,308.13229 506.64496,307.54525 502.17208,308.25856 C 497.44666,309.01214 486.26218,309.39498 486.26218,309.39498" id="path3312" sodipodi:nodetypes="csc"/>
    <path style="fill:none;fill-rule:evenodd;stroke:#000000;stroke-width:0.5;stroke-linecap:butt;stroke-linejoin:miter;stroke-miterlimit:4;stroke-dasharray:none;stroke-opacity:1" d="M 535.75966,307.87976 C 515.68288,312.67798 517.07183,312.29917 515.68288,312.80425 C 514.29392,313.30933 501.66701,315.83471 501.66701,315.83471" id="path3314" sodipodi:nodetypes="csc"/>
    <path style="fill:none;fill-rule:evenodd;stroke:#000000;stroke-width:0.5;stroke-linecap:butt;stroke-linejoin:miter;stroke-miterlimit:4;stroke-dasharray:none;stroke-opacity:1" d="M 539.16892,310.53141 C 520.98618,317.22367 526.56616,315.59589 520.98618,317.22367 C 517.74786,318.16835 510.00077,319.62278 510.00077,319.62278" id="path3316" sodipodi:nodetypes="css"/>
    <path style="fill:none;fill-rule:evenodd;stroke:#000000;stroke-width:0.5;stroke-linecap:butt;stroke-linejoin:miter;stroke-miterlimit:4;stroke-dasharray:none;stroke-opacity:1" d="M 468.83705,297.9045 C 464.67017,299.546 464.67017,299.546 464.67017,299.546" id="path3318"/>
    <path style="fill:none;fill-rule:evenodd;stroke:#000000;stroke-width:0.5;stroke-linecap:butt;stroke-linejoin:miter;stroke-miterlimit:4;stroke-dasharray:none;stroke-opacity:1" d="M 468.58451,304.34422 C 468.10571,304.58905 466.78119,305.5162 466.1854,306.11199 C 465.42498,306.87241 467.19326,304.72532 466.1854,305.73318 C 465.75321,306.16538 465.22709,306.63965 464.92271,307.24841 C 464.80125,307.49133 464.40959,307.72212 464.29136,307.87976" id="path3320"/>
    <path style="fill:none;fill-rule:evenodd;stroke:#000000;stroke-width:0.5;stroke-linecap:butt;stroke-linejoin:miter;stroke-miterlimit:4;stroke-dasharray:none;stroke-opacity:1" d="M 472.87766,306.74333 C 472.85221,306.79424 471.06185,307.97892 470.35228,308.5111 C 469.80616,308.92069 469.02985,309.37835 468.45824,309.52125 C 468.30044,309.5607 467.69572,310.18785 467.57436,310.27887" id="path3322"/>
    <path style="fill:none;fill-rule:evenodd;stroke:#000000;stroke-width:0.5;stroke-linecap:butt;stroke-linejoin:miter;stroke-miterlimit:4;stroke-dasharray:none;stroke-opacity:1" d="M 478.93858,303.08153 C 478.55868,303.17651 477.65478,304.63896 477.42335,305.10184 C 477.12052,305.70749 476.88665,306.17524 476.53946,306.8696 C 476.17969,307.58915 475.94439,308.05974 475.65558,308.63737 C 475.39621,309.15612 475.23134,309.81922 474.7717,310.27887 C 474.71217,310.33839 474.7717,310.44723 474.7717,310.53141" id="path3324"/>
    <path style="fill:none;fill-rule:evenodd;stroke:#000000;stroke-width:0.5;stroke-linecap:butt;stroke-linejoin:miter;stroke-miterlimit:4;stroke-dasharray:none;stroke-opacity:1" d="M 475.78185,315.32963 C 475.40608,315.7054 474.33592,316.57191 473.63528,317.0974 C 472.88407,317.6608 472.38286,317.72361 471.61497,318.10755 C 470.84228,318.4939 470.21225,318.62295 469.72093,318.99143 C 469.46856,319.18071 469.17099,319.28676 468.83705,319.37024" id="path3326"/>
    <path style="fill:none;fill-rule:evenodd;stroke:#000000;stroke-width:0.5;stroke-linecap:butt;stroke-linejoin:miter;stroke-miterlimit:4;stroke-dasharray:none;stroke-opacity:1" d="M 485.12576,311.28902 C 484.74083,311.57772 484.03074,312.72145 483.7368,313.30933 C 483.69471,313.3935 483.65262,313.47768 483.61053,313.56186" id="path3328"/>
    <path style="fill:none;fill-rule:evenodd;stroke:#000000;stroke-width:0.5;stroke-linecap:butt;stroke-linejoin:miter;stroke-miterlimit:4;stroke-dasharray:none;stroke-opacity:1" d="M 481.59023,319.74905 C 481.42886,320.07177 480.28641,320.54779 479.69619,321.13801 C 479.0511,321.7831 479.04356,321.98075 478.81231,322.90577 C 478.60609,323.73064 478.63038,324.30331 478.18096,325.05235 C 477.78618,325.71031 477.57322,326.0389 477.17081,326.44131 C 476.79892,326.8132 476.31954,327.04004 475.90812,327.45146" id="path3330"/>
    <path style="fill:none;fill-rule:evenodd;stroke:#000000;stroke-width:0.5;stroke-linecap:butt;stroke-linejoin:miter;stroke-miterlimit:4;stroke-dasharray:none;stroke-opacity:1" d="M 487.65114,326.18877 C 486.80147,327.03845 485.80879,327.65231 484.99949,328.46161 C 484.07813,329.38297 482.59127,329.86879 482.0953,330.86073 C 481.96745,331.11644 481.64293,331.19479 481.46396,331.23953" id="path3332"/>
    <path style="fill:none;fill-rule:evenodd;stroke:#000000;stroke-width:0.5;stroke-linecap:butt;stroke-linejoin:miter;stroke-miterlimit:4;stroke-dasharray:none;stroke-opacity:1" d="M 487.77741,333.89118 C 487.71521,334.01559 488.2161,336.80839 488.02995,337.55299 C 487.85969,338.23402 487.16102,338.93073 486.64099,339.32075 C 485.81188,339.94259 485.26595,340.4783 484.62068,340.96225 C 484.38103,341.14199 484.24064,341.34168 483.98934,341.46733" id="path3334"/>
    <path style="fill:none;fill-rule:evenodd;stroke:#000000;stroke-width:0.5;stroke-linecap:butt;stroke-linejoin:miter;stroke-miterlimit:4;stroke-dasharray:none;stroke-opacity:1" d="M 494.46967,336.41656 C 493.60431,337.06559 496.03056,340.47597 496.48998,341.08852 C 496.62597,341.26985 496.07852,340.89096 495.85863,340.83598" id="path3336"/>
    <path style="fill:none;fill-rule:evenodd;stroke:#000000;stroke-width:0.5;stroke-linecap:butt;stroke-linejoin:miter;stroke-miterlimit:4;stroke-dasharray:none;stroke-opacity:1" d="M 503.05597,321.26428 C 503.48603,321.83769 501.84453,322.07983 501.41447,322.65324" id="path3338"/>
    <path style="fill:none;fill-rule:evenodd;stroke:#000000;stroke-width:0.5;stroke-linecap:butt;stroke-linejoin:miter;stroke-miterlimit:4;stroke-dasharray:none;stroke-opacity:1" d="M 505.96016,324.29473 C 506.24253,324.67124 504.70522,327.81476 504.31866,328.58788 C 504.29204,328.64112 504.23448,328.67206 504.19239,328.71415" id="path3340"/>
    <path style="fill:none;fill-rule:evenodd;stroke:#000000;stroke-width:0.5;stroke-linecap:butt;stroke-linejoin:miter;stroke-miterlimit:4;stroke-dasharray:none;stroke-opacity:1" d="M 513.03122,327.19892 C 512.91967,327.42203 513.18367,330.2902 512.90496,330.987" id="path3342"/>
    <path style="fill:none;fill-rule:evenodd;stroke:#000000;stroke-width:0.5;stroke-linecap:butt;stroke-linejoin:miter;stroke-miterlimit:4;stroke-dasharray:none;stroke-opacity:1" d="M 505.96016,337.80552 C 505.8503,338.02523 510.10063,341.81973 510.88465,342.60375 C 511.63943,343.35853 512.0969,343.67456 510.75838,342.60375" id="path3344"/>
    <path style="fill:none;fill-rule:evenodd;stroke:#000000;stroke-width:0.5;stroke-linecap:butt;stroke-linejoin:miter;stroke-miterlimit:4;stroke-dasharray:none;stroke-opacity:1" d="M 504.5712,339.32075 C 504.64536,339.39491 504.43582,342.05312 504.5712,342.73002 C 504.70479,343.39796 505.21321,344.14032 505.32881,344.37152" id="path3346"/>
    <path style="fill:none;fill-rule:evenodd;stroke:#000000;stroke-width:0.5;stroke-linecap:butt;stroke-linejoin:miter;stroke-miterlimit:4;stroke-dasharray:none;stroke-opacity:1" d="M 499.2679,344.11898 C 499.38521,344.70557 500.13679,344.97289 500.40432,345.50794" id="path3348"/>
    <path style="fill:none;fill-rule:evenodd;stroke:#000000;stroke-width:0.5;stroke-linecap:butt;stroke-linejoin:miter;stroke-miterlimit:4;stroke-dasharray:none;stroke-opacity:1" d="M 499.01536,353.8417 C 499.07127,354.12123 499.82056,354.28269 499.6467,354.97812" id="path3350"/>
    <path style="fill:none;fill-rule:evenodd;stroke:#000000;stroke-width:0.5;stroke-linecap:butt;stroke-linejoin:miter;stroke-miterlimit:4;stroke-dasharray:none;stroke-opacity:1" d="M 485.63084,346.01301 C 485.69373,346.3275 483.65987,347.45967 483.23172,347.78078 C 482.70802,348.17356 482.08601,348.25661 481.46396,348.41213" id="path3352"/>
    <path style="fill:none;fill-rule:evenodd;stroke:#000000;stroke-width:0.5;stroke-linecap:butt;stroke-linejoin:miter;stroke-miterlimit:4;stroke-dasharray:none;stroke-opacity:1" d="M 480.45381,355.35693 C 480.086,355.63278 478.65857,356.02489 477.92842,356.99842 C 477.89271,357.04604 478.0126,357.0826 478.05469,357.12469" id="path3354"/>
    <path style="fill:none;fill-rule:evenodd;stroke:#000000;stroke-width:0.5;stroke-linecap:butt;stroke-linejoin:miter;stroke-miterlimit:4;stroke-dasharray:none;stroke-opacity:1" d="M 481.59023,359.39754 C 481.27665,359.81564 480.07307,360.87324 479.56992,361.54411 C 479.51345,361.6194 479.48574,361.71247 479.44365,361.79665" id="path3356"/>
    <path style="fill:none;fill-rule:evenodd;stroke:#000000;stroke-width:0.5;stroke-linecap:butt;stroke-linejoin:miter;stroke-miterlimit:4;stroke-dasharray:none;stroke-opacity:1" d="M 490.30279,358.00858 C 490.07426,358.31329 493.59102,360.54442 494.09086,361.54411" id="path3358"/>
    <path style="fill:none;fill-rule:evenodd;stroke:#000000;stroke-width:0.5;stroke-linecap:butt;stroke-linejoin:miter;stroke-miterlimit:4;stroke-dasharray:none;stroke-opacity:1" d="M 487.0198,365.20591 C 486.24356,366.2409 485.57524,368.60009 484.87322,370.00414 C 484.43479,370.88101 484.96484,370.18737 484.99949,370.25668" id="path3360"/>
    <path style="fill:none;fill-rule:evenodd;stroke:#000000;stroke-width:0.5;stroke-linecap:butt;stroke-linejoin:miter;stroke-miterlimit:4;stroke-dasharray:none;stroke-opacity:1" d="M 494.97475,365.45845 C 494.75289,365.90217 497.22138,367.53534 495.47982,367.09995" id="path3362"/>
    <path style="fill:none;fill-rule:evenodd;stroke:#000000;stroke-width:0.5;stroke-linecap:butt;stroke-linejoin:miter;stroke-miterlimit:4;stroke-dasharray:none;stroke-opacity:1" d="M 473.25647,349.67482 C 473.02348,350.14079 472.15174,351.11899 471.36243,351.31632" id="path3364"/>
    <path style="fill:none;fill-rule:evenodd;stroke:#000000;stroke-width:0.5;stroke-linecap:butt;stroke-linejoin:miter;stroke-miterlimit:4;stroke-dasharray:none;stroke-opacity:1" d="M 471.99378,359.90261 C 471.72385,359.97009 468.88118,362.38387 468.83705,362.42799" id="path3366"/>
    <path style="fill:none;fill-rule:evenodd;stroke:#000000;stroke-width:0.5;stroke-linecap:butt;stroke-linejoin:miter;stroke-miterlimit:4;stroke-dasharray:none;stroke-opacity:1" d="M 470.47855,370.25668 C 470.32601,370.40921 469.09767,371.13449 468.58451,371.51937 C 468.24949,371.77064 468.58481,371.51877 468.45824,371.7719" id="path3368"/>
    <path style="fill:none;fill-rule:evenodd;stroke:#000000;stroke-width:0.5;stroke-linecap:butt;stroke-linejoin:miter;stroke-miterlimit:4;stroke-dasharray:none;stroke-opacity:1" d="M 469.8472,380.3582 C 469.09918,380.91922 466.9676,381.60245 465.93286,382.37851 C 465.42255,382.76124 465.87288,382.3985 465.55406,382.50477" id="path3370"/>
    <path style="fill:none;fill-rule:evenodd;stroke:#000000;stroke-width:0.5;stroke-linecap:butt;stroke-linejoin:miter;stroke-miterlimit:4;stroke-dasharray:none;stroke-opacity:1" d="M 459.99822,374.42355 C 459.75072,374.60918 459.99822,377.82529 459.99822,378.59043 C 459.99822,379.14321 459.51911,378.31551 459.49314,378.21163" id="path3372"/>
    <path style="fill:none;fill-rule:evenodd;stroke:#000000;stroke-width:0.5;stroke-linecap:butt;stroke-linejoin:miter;stroke-miterlimit:4;stroke-dasharray:none;stroke-opacity:1" d="M 463.02867,356.74588 C 463.02867,357.60383 462.60482,357.91636 461.26091,358.51365 C 459.47709,359.30646 461.70906,358.34826 460.25075,358.63992 C 459.2332,358.84343 458.87177,359.4713 457.97791,359.65007 C 457.22646,359.80036 456.32806,360.41604 455.95761,360.7865 C 455.51495,361.22915 454.64132,361.74214 454.06357,362.17545 C 453.48713,362.60779 453.35326,362.97255 452.67461,363.31188" id="path3374"/>
    <path style="fill:none;fill-rule:evenodd;stroke:#000000;stroke-width:0.5;stroke-linecap:butt;stroke-linejoin:miter;stroke-miterlimit:4;stroke-dasharray:none;stroke-opacity:1" d="M 468.20571,388.31315 C 467.80285,388.61529 465.92846,389.64008 465.17525,389.82838 C 464.4777,390.00277 464.9073,390.09633 464.67017,390.33346" id="path3376"/>
    <path style="fill:none;fill-rule:evenodd;stroke:#000000;stroke-width:0.5;stroke-linecap:butt;stroke-linejoin:miter;stroke-miterlimit:4;stroke-dasharray:none;stroke-opacity:1" d="M 475.90812,392.22749 C 475.43018,392.34698 475.69863,393.22234 475.40304,393.61645 C 474.85589,394.34599 473.52455,395.24241 473.00393,395.76303" id="path3378"/>
    <path style="fill:none;fill-rule:evenodd;stroke:#000000;stroke-width:0.5;stroke-linecap:butt;stroke-linejoin:miter;stroke-miterlimit:4;stroke-dasharray:none;stroke-opacity:1" d="M 463.53375,395.76303 C 463.076,396.37336 461.52105,397.43393 461.00837,398.28841" id="path3380"/>
    <path style="fill:none;fill-rule:evenodd;stroke:#000000;stroke-width:0.5;stroke-linecap:butt;stroke-linejoin:miter;stroke-miterlimit:4;stroke-dasharray:none;stroke-opacity:1" d="M 463.40748,407.12724 C 462.22,408.71055 459.53216,411.45101 457.5991,413.06189 C 456.87713,413.66353 455.69751,413.88642 454.82118,414.32458 C 454.0936,414.68837 454.35366,414.37574 454.56865,413.94577" id="path3382"/>
    <path style="fill:none;fill-rule:evenodd;stroke:#000000;stroke-width:0.5;stroke-linecap:butt;stroke-linejoin:miter;stroke-miterlimit:4;stroke-dasharray:none;stroke-opacity:1" d="M 474.39289,408.76874 C 473.80484,409.06277 473.71825,409.98994 473.1302,410.28397" id="path3384"/>
    <path style="fill:none;fill-rule:evenodd;stroke:#000000;stroke-width:0.5;stroke-linecap:butt;stroke-linejoin:miter;stroke-miterlimit:4;stroke-dasharray:none;stroke-opacity:1" d="M 484.62068,384.27254 C 484.52755,384.31911 486.38845,385.20196 486.38845,386.79792 C 486.38845,387.64639 486.17609,387.81812 485.63084,387.68181" id="path3386"/>
    <path style="fill:none;fill-rule:evenodd;stroke:#000000;stroke-width:0.5;stroke-linecap:butt;stroke-linejoin:miter;stroke-miterlimit:4;stroke-dasharray:none;stroke-opacity:1" d="M 484.87322,376.44386 C 484.87322,377.01597 483.12895,379.07201 482.47411,379.72686" id="path3388"/>
    <path style="fill:none;fill-rule:evenodd;stroke:#000000;stroke-width:0.5;stroke-linecap:butt;stroke-linejoin:miter;stroke-miterlimit:4;stroke-dasharray:none;stroke-opacity:1" d="M 496.11117,383.76747 C 496.11117,384.51211 497.29338,384.74293 497.6264,385.40896 C 497.74334,385.64284 497.80506,385.94495 497.87894,386.16658" id="path3390"/>
    <path style="fill:none;fill-rule:evenodd;stroke:#000000;stroke-width:0.5;stroke-linecap:butt;stroke-linejoin:miter;stroke-miterlimit:4;stroke-dasharray:none;stroke-opacity:1" d="M 449.26535,398.66722 C 449.3011,398.73872 446.74794,402.92846 446.48743,403.97052 C 446.41199,404.27225 446.31898,404.47586 446.23489,404.72813" id="path3392"/>
    <path style="fill:none;fill-rule:evenodd;stroke:#000000;stroke-width:0.5;stroke-linecap:butt;stroke-linejoin:miter;stroke-miterlimit:4;stroke-dasharray:none;stroke-opacity:1" d="M 446.9925,391.72242 C 446.76967,392.61374 444.63147,395.07456 443.83578,396.2681 C 443.38924,396.9379 442.89628,397.38948 442.57308,398.03587" id="path3394"/>
    <path style="fill:none;fill-rule:evenodd;stroke:#000000;stroke-width:0.5;stroke-linecap:butt;stroke-linejoin:miter;stroke-miterlimit:4;stroke-dasharray:none;stroke-opacity:1" d="M 452.80088,380.98955 C 452.46715,381.49014 451.14955,382.01937 450.65431,383.00985 C 450.51812,383.28222 450.20056,383.37285 450.02296,383.51493" id="path3396"/>
    <path style="fill:none;fill-rule:evenodd;stroke:#000000;stroke-width:0.5;stroke-linecap:butt;stroke-linejoin:miter;stroke-miterlimit:4;stroke-dasharray:none;stroke-opacity:1" d="M 455.45253,391.34361 C 455.02399,392.20069 453.03348,393.27752 452.42207,394.50034 C 452.39545,394.55358 452.33789,394.58452 452.2958,394.62661" id="path3398"/>
    <path style="fill:none;fill-rule:evenodd;stroke:#000000;stroke-width:0.5;stroke-linecap:butt;stroke-linejoin:miter;stroke-miterlimit:4;stroke-dasharray:none;stroke-opacity:1" d="M 458.98806,365.07964 C 458.74089,365.57399 457.21805,366.76623 456.58895,367.60502 C 455.78182,368.6812 454.83422,369.50593 453.81103,370.38294 C 451.81078,372.09745 449.80919,374.175 448.12892,376.19132 C 447.37637,377.09438 446.64457,378.08629 445.98235,378.96924 C 445.92588,379.04453 445.89817,379.1376 445.85608,379.22178" id="path3400"/>
    <path style="fill:none;fill-rule:evenodd;stroke:#000000;stroke-width:0.5;stroke-linecap:butt;stroke-linejoin:miter;stroke-miterlimit:4;stroke-dasharray:none;stroke-opacity:1" d="M 448.00265,361.1653 C 447.9774,361.19897 448.00265,361.08112 448.00265,361.1653 z" id="path3402"/>
    <path style="fill:none;fill-rule:evenodd;stroke:#000000;stroke-width:0.5;stroke-linecap:butt;stroke-linejoin:miter;stroke-miterlimit:4;stroke-dasharray:none;stroke-opacity:1" d="M 450.65431,366.97368 C 450.04024,367.79244 447.82103,368.98361 446.86623,370.25668 C 446.309,370.99965 445.55435,372.69568 445.351,373.03459" id="path3404"/>
    <path style="fill:none;fill-rule:evenodd;stroke:#000000;stroke-width:0.5;stroke-linecap:butt;stroke-linejoin:miter;stroke-miterlimit:4;stroke-dasharray:none;stroke-opacity:1" d="M 450.52804,357.12469 C 450.25144,357.49349 445.41361,359.23996 444.08831,359.90261 C 443.80913,360.04221 444.04913,359.98098 443.96204,360.15515" id="path3406"/>
    <path style="fill:none;fill-rule:evenodd;stroke:#000000;stroke-width:0.5;stroke-linecap:butt;stroke-linejoin:miter;stroke-miterlimit:4;stroke-dasharray:none;stroke-opacity:1" d="M 454.06357,349.42228 C 453.51453,349.6968 451.99101,351.38598 451.28565,352.32647 C 450.87711,352.87119 450.38949,353.02709 450.02296,353.21035" id="path3408"/>
    <path style="fill:none;fill-rule:evenodd;stroke:#000000;stroke-width:0.5;stroke-linecap:butt;stroke-linejoin:miter;stroke-miterlimit:4;stroke-dasharray:none;stroke-opacity:1" d="M 449.89669,361.03903 C 449.43542,361.65406 448.49433,362.43469 447.75012,362.8068" id="path3410"/>
    <path style="fill:none;fill-rule:evenodd;stroke:#000000;stroke-width:0.5;stroke-linecap:butt;stroke-linejoin:miter;stroke-miterlimit:4;stroke-dasharray:none;stroke-opacity:1" d="M 464.29136,342.35121 C 463.41073,343.52539 461.82961,344.0583 462.14479,345.63421 C 462.29907,346.40561 462.364,347.40901 462.27106,347.78078 C 462.19888,348.06951 461.6818,347.86496 461.38718,347.90705" id="path3412"/>
    <path style="fill:none;fill-rule:evenodd;stroke:#000000;stroke-width:0.5;stroke-linecap:butt;stroke-linejoin:miter;stroke-miterlimit:4;stroke-dasharray:none;stroke-opacity:1" d="M 451.66446,345.12913 C 451.53094,345.6632 449.70765,347.29122 448.88654,347.90705" id="path3414"/>
    <path style="fill:none;fill-rule:evenodd;stroke:#000000;stroke-width:0.5;stroke-linecap:butt;stroke-linejoin:miter;stroke-miterlimit:4;stroke-dasharray:none;stroke-opacity:1" d="M 470.73109,333.0073 C 469.29369,334.08535 466.11576,335.17989 465.68032,336.92164" id="path3416"/>
    <path style="fill:none;fill-rule:evenodd;stroke:#000000;stroke-width:0.5;stroke-linecap:butt;stroke-linejoin:miter;stroke-miterlimit:4;stroke-dasharray:none;stroke-opacity:1" d="M 468.33197,323.15831 C 466.9301,324.20972 464.08069,326.1469 462.14479,328.08281 C 461.94917,328.27843 461.88903,328.42383 461.76598,328.58788" id="path3418"/>
    <path style="fill:none;fill-rule:evenodd;stroke:#000000;stroke-width:0.5;stroke-linecap:butt;stroke-linejoin:miter;stroke-miterlimit:4;stroke-dasharray:none;stroke-opacity:1" d="M 461.76598,319.74905 C 459.98876,321.52627 457.75356,324.39282 455.70507,326.44131 C 455.59932,326.54706 455.29595,326.85043 455.19999,326.94638" id="path3420"/>
    <path style="fill:none;fill-rule:evenodd;stroke:#000000;stroke-width:0.5;stroke-linecap:butt;stroke-linejoin:miter;stroke-miterlimit:4;stroke-dasharray:none;stroke-opacity:1" d="M 455.70507,330.86073 C 454.73217,331.83363 451.84748,333.1857 450.40177,334.26999" id="path3422"/>
    <path style="fill:none;fill-rule:evenodd;stroke:#000000;stroke-width:0.5;stroke-linecap:butt;stroke-linejoin:miter;stroke-miterlimit:4;stroke-dasharray:none;stroke-opacity:1" d="M 497.24759,321.76935 C 497.02122,321.99573 496.46032,325.42353 496.23744,326.31504" id="path3424"/>
    <path style="fill:none;fill-rule:evenodd;stroke:#000000;stroke-width:0.5;stroke-linecap:butt;stroke-linejoin:miter;stroke-miterlimit:4;stroke-dasharray:none;stroke-opacity:1" d="M 492.44937,319.37024 C 492.40078,319.41883 492.49446,321.58898 492.3231,322.27443" id="path3426"/>
    <path style="fill:none;fill-rule:evenodd;stroke:#000000;stroke-width:0.5;stroke-linecap:butt;stroke-linejoin:miter;stroke-miterlimit:4;stroke-dasharray:none;stroke-opacity:1" d="M 490.17652,316.97113 C 488.27568,318.87197 483.75891,319.77901 481.84276,322.65324" id="path3428"/>
    <path style="fill:none;fill-rule:evenodd;stroke:#000000;stroke-width:0.5;stroke-linecap:butt;stroke-linejoin:miter;stroke-miterlimit:4;stroke-dasharray:none;stroke-opacity:1" d="M 484.99949,396.89945 C 484.61259,397.28635 485.42039,397.9096 485.63084,398.41468 C 485.96635,399.21991 486.22604,405.82395 484.36815,405.35948" id="path3430"/>
    <path style="fill:none;fill-rule:evenodd;stroke:#000000;stroke-width:0.5;stroke-linecap:butt;stroke-linejoin:miter;stroke-miterlimit:4;stroke-dasharray:none;stroke-opacity:1" d="M 472.62512,421.90072 C 472.63848,421.93277 472.0193,423.69268 471.86751,424.29984 C 471.45853,425.93574 471.19585,427.37061 469.97347,428.59298 C 468.70945,429.857 468.03802,431.41232 466.81675,432.6336 C 466.0049,433.44544 465.41632,434.25672 464.5439,434.78017 C 463.75799,435.25172 462.70833,436.61574 462.01852,437.30555 C 461.19661,438.12747 461.21302,439.24747 460.37702,440.08347 C 459.67031,440.79019 459.98103,441.86842 459.2406,442.60885 C 458.59234,443.25711 458.24262,444.47855 457.85164,445.2605 C 457.13641,446.69096 456.39542,448.14344 455.83134,449.55365 C 455.66073,449.98016 455.4006,450.64527 455.32626,450.94261" id="path3432"/>
    <path style="fill:none;fill-rule:evenodd;stroke:#000000;stroke-width:0.5;stroke-linecap:butt;stroke-linejoin:miter;stroke-miterlimit:4;stroke-dasharray:none;stroke-opacity:1" d="M 449.64415,439.19959 C 449.64256,439.20358 451.40599,438.36977 453.17969,437.30555 C 453.99005,436.81933 455.0846,436.98444 455.95761,436.54794 C 456.60295,436.22526 457.51398,436.27894 458.10418,436.04286 C 458.69811,435.80529 459.5527,435.74386 459.87195,435.66405" id="path3434"/>
    <path style="fill:none;fill-rule:evenodd;stroke:#000000;stroke-width:0.5;stroke-linecap:butt;stroke-linejoin:miter;stroke-miterlimit:4;stroke-dasharray:none;stroke-opacity:1" d="M 451.15938,447.02827 C 451.99186,446.69528 453.60594,445.79313 454.82118,444.88169 C 455.36565,444.47334 455.66988,444.15927 455.95761,443.87154" id="path3436"/>
    <path style="fill:none;fill-rule:evenodd;stroke:#000000;stroke-width:0.5;stroke-linecap:butt;stroke-linejoin:miter;stroke-miterlimit:4;stroke-dasharray:none;stroke-opacity:1" d="M 450.2755,429.09806 C 451.46978,428.20235 447.69432,430.76012 446.86623,432.00225 C 445.99773,433.305 444.1876,434.8004 443.20443,435.53778 C 442.50675,436.06104 441.43118,436.45735 440.80532,436.92674 C 440.27366,437.32548 439.45225,437.39592 439.41636,437.43182" id="path3438"/>
    <path style="fill:none;fill-rule:evenodd;stroke:#000000;stroke-width:0.5;stroke-linecap:butt;stroke-linejoin:miter;stroke-miterlimit:4;stroke-dasharray:none;stroke-opacity:1" d="M 442.82562,446.77573 C 442.82183,446.77857 442.91799,443.88089 443.07816,443.2402 C 443.30914,442.3163 443.50637,441.52736 443.70951,440.71482 C 443.99942,439.55515 444.17779,438.32266 444.84593,437.43182 C 445.4345,436.64705 445.92511,435.84756 446.48743,435.28525 C 446.59538,435.17729 446.70441,434.95977 446.73996,434.90644" id="path3440"/>
    <path style="fill:none;fill-rule:evenodd;stroke:#000000;stroke-width:0.5;stroke-linecap:butt;stroke-linejoin:miter;stroke-miterlimit:4;stroke-dasharray:none;stroke-opacity:1" d="M 443.83578,453.46799 C 444.27909,453.02468 442.45641,454.506 441.31039,455.4883 C 441.10577,455.66369 440.8895,455.82501 440.67905,455.99337 C 440.28146,456.31145 439.9795,456.48393 439.41636,456.62472" id="path3442"/>
    <path style="fill:none;fill-rule:evenodd;stroke:#000000;stroke-width:0.5;stroke-linecap:butt;stroke-linejoin:miter;stroke-miterlimit:4;stroke-dasharray:none;stroke-opacity:1" d="M 438.91128,445.63931 C 438.58262,445.90224 438.19875,446.0993 437.90113,446.39692" id="path3444"/>
    <path style="fill:none;fill-rule:evenodd;stroke:#000000;stroke-width:0.5;stroke-linecap:butt;stroke-linejoin:miter;stroke-miterlimit:4;stroke-dasharray:none;stroke-opacity:1" d="M 437.77486,454.98322 C 437.60953,455.11548 435.59148,453.17129 434.99694,452.45784 C 434.31112,451.63485 434.50908,451.32572 433.98679,451.19515" id="path3446"/>
    <path style="fill:none;fill-rule:evenodd;stroke:#000000;stroke-width:0.5;stroke-linecap:butt;stroke-linejoin:miter;stroke-miterlimit:4;stroke-dasharray:none;stroke-opacity:1" d="M 292.5,658.36218 C 285.5,652.36218 289,656.36218 285.5,652.36218 C 282,648.36218 283.5,652.86218 280,645.86218 C 276.5,638.86218 280.91178,640.08384 282,637.86218 C 283.1748,635.46377 285.88931,632.99248 287.5,630.86218 C 288.73046,629.23477 291.0082,627.34224 291.5,625.36218 C 291.75567,624.3328 291.7175,622.64333 291,621.86218 C 289.64623,620.3883 286.41608,620.93978 284.5,620.36218 C 283.27294,619.99228 281.76104,619.09085 280.5,618.86218 C 277.99092,618.4072 274.53906,618.6262 272,618.86218 C 269.56866,619.08815 266.43458,620.17421 264,620.36218 C 259.21191,620.73185 252.48176,620.58597 248,619.86218 C 235.81406,617.8942 223.51334,609.32031 212,604.36218 C 204.97517,601.33699 195.61529,597.20118 189,593.36218 C 184.89737,590.98133 178.14479,589.66884 174,587.36218 C 170.71279,585.53278 166.18316,583.12823 162.5,582.36218 C 159.26914,581.6902 154.73726,583.00259 151.5,582.36218 C 148.79471,581.82701 145.64233,579.65154 143,578.86218 C 139.19471,577.7254 130,576.36218 130,576.36218" id="path3488" sodipodi:nodetypes="csssssssssssssssssc"/>
    <path style="fill:none;fill-rule:evenodd;stroke:#000000;stroke-width:0.5;stroke-linecap:butt;stroke-linejoin:miter;stroke-miterlimit:4;stroke-dasharray:none;stroke-opacity:1" d="M 421.5,513.36218 C 419,519.36218 416.08884,523.54098 413,527.36218 C 410.66533,530.2504 406.15875,532.84021 404,535.86218 C 401.89293,538.8118 400.07701,543.40096 399,546.86218 C 397.73238,550.93596 397.80381,556.79984 396.5,560.86218 C 395.4338,564.18419 393.90206,568.83184 391.5,571.36218 C 388.68121,574.33151 383.24194,576.20074 379.5,577.86218 C 374.557,580.0569 367.7008,582.37837 362.5,583.86218 C 355.11532,585.96907 344.93815,587.4526 337.5,589.36218 C 332.35096,590.68408 325.07123,591.64854 320.5,594.36218 C 315.02764,597.61076 310.82603,605.87887 305.5,609.36218 C 302.3995,611.38996 297.58263,612.91893 294,613.86218 C 291.94859,614.40229 289.04937,614.31437 287,614.86218 C 283.8785,615.69658 277,618.86218 277,618.86218" id="path3490" sodipodi:nodetypes="cssssssssssssc"/>
    <path style="fill:none;fill-rule:evenodd;stroke:#000000;stroke-width:0.5;stroke-linecap:butt;stroke-linejoin:miter;stroke-miterlimit:4;stroke-dasharray:none;stroke-opacity:1" d="M 387,479.36218 C 367,474.86218 373.12211,475.44725 367,474.86218 C 357.28963,473.93419 344.21315,474.96375 334.5,475.86218 C 323.76875,476.85478 309.55511,479.18626 299,481.36218 C 285.49539,484.14614 267.79791,489.21656 254.5,492.86218 C 239.43775,496.99149 219.7833,504.14611 204.5,507.36218 C 191.17241,510.16671 173.08416,512.38212 159.5,513.36218 C 146.48297,514.30133 116,513.86218 116,513.86218" id="path3494" sodipodi:nodetypes="cssssssc"/>
    <path style="fill:none;fill-rule:evenodd;stroke:#000000;stroke-width:0.5;stroke-linecap:butt;stroke-linejoin:miter;stroke-miterlimit:4;stroke-dasharray:none;stroke-opacity:1" d="M 317.5,597.36218 C 311.5,594.36218 313.33585,595.1866 311.5,594.36218 C 309.28935,593.36945 305.85914,592.91656 304,591.36218 C 302.91436,590.4545 302.65855,588.17475 301.5,587.36218 C 299.74169,586.12895 296.17317,587.20866 294.5,585.86218 C 293.08799,584.72586 292.91268,581.92807 292,580.36218 C 290.97263,578.59951 289.70163,575.98777 288,574.86218 C 286.33087,573.75809 283.40226,573.98381 281.5,573.36218 C 280.41414,573.00734 279.07244,572.25571 278,571.86218 C 276.08466,571.15934 273.2162,570.96543 271.5,569.86218 C 269.98062,568.88546 268.80991,566.60581 267.5,565.36218 C 266.80345,564.70088 265,563.36218 265,563.36218 C 265,563.36218 260.25183,562.00065 258.5,560.86218 C 257.2549,560.05302 256.13758,558.31659 255,557.36218 C 253.5973,556.18534 251.2484,555.20158 250,553.86218 C 248.80731,552.58254 247.51932,550.5326 247,548.86218 C 246.28611,546.56591 245.28608,545.28288 245,540.36218 C 244.791,536.76723 247,533.86218 247,533.86218 C 247,533.86218 241.40464,534.3472 239,534.36218 C 235.99631,534.38089 231.74553,535.08062 229,533.86218 C 227.25494,533.08774 225.18399,531.14464 224.5,529.36218 C 223.47754,526.69768 225.01996,522.71605 225,519.86218 C 224.98423,517.60724 224.5,512.36218 224.5,512.36218 C 224.5,512.36218 218.55331,512.78715 216,512.86218 C 213.30117,512.94149 209.67138,513.25426 207,512.86218 C 205.45055,512.63477 202,511.36218 202,511.36218 L 202,507.36218" id="path3496" sodipodi:nodetypes="csssssssssscssssscsssscsscc"/>
    <path style="fill:none;fill-rule:evenodd;stroke:#000000;stroke-width:0.5;stroke-linecap:butt;stroke-linejoin:miter;stroke-opacity:1;stroke-miterlimit:4;stroke-dasharray:none" d="M 282.5,616.86218 C 283.42433,615.19392 286.89114,612.91661 289,611.86218 C 291.49529,610.61454 292.48479,610.37739 294,608.86218 C 295.61346,607.24872 297.88222,606.17107 299.5,605.36218 C 301.61202,604.30617 302.64686,603.28875 304.5,602.36218 C 306.64555,601.28941 308.46874,598.89344 309.5,597.86218 C 310.7761,596.58608 311.656,594.82084 312,594.36218" id="path3500"/>
    <path style="fill:none;fill-rule:evenodd;stroke:#000000;stroke-width:0.5;stroke-linecap:butt;stroke-linejoin:miter;stroke-opacity:1;stroke-miterlimit:4;stroke-dasharray:none" d="M 271.5,612.86218 C 271.95822,612.40396 277.32867,610.19785 279,609.36218 C 281.4183,608.15303 282.55136,606.5865 285,605.36218 C 287.31409,604.20514 289.32104,602.04114 290.5,600.86218 C 292.11532,599.24686 294.15069,598.7115 296,596.86218 C 297.91751,594.94467 299.39947,594.66245 302,593.36218 C 303.42921,592.64758 304.15777,592.20441 305,591.36218" id="path3502"/>
    <path style="fill:none;fill-rule:evenodd;stroke:#000000;stroke-width:0.5;stroke-linecap:butt;stroke-linejoin:miter;stroke-opacity:1;stroke-miterlimit:4;stroke-dasharray:none" d="M 254.5,610.36218 C 256.07084,609.57676 261.42022,607.40207 264.5,605.86218 C 267.5666,604.32888 270.78036,603.74203 274,602.36218 C 275.23506,601.83287 276.29815,600.96311 277.5,600.36218 C 280.81649,598.70394 280.71259,595.30903 284.5,594.36218 C 286.28663,593.91552 289.4318,591.16333 290.5,590.36218 C 292.73045,588.68935 293.36268,588.41145 294,585.86218" id="path3504"/>
    <path style="fill:none;fill-rule:evenodd;stroke:#000000;stroke-width:0.5;stroke-linecap:butt;stroke-linejoin:miter;stroke-opacity:1;stroke-miterlimit:4;stroke-dasharray:none" d="M 247,604.86218 C 248.27551,603.90555 252.73893,601.74272 254.5,600.86218 C 256.89588,599.66424 257.28287,599.04147 260,598.36218 C 262.2553,597.79836 264.73573,595.74432 266.5,594.86218 C 268.74015,593.74211 271.45068,592.38684 273.5,591.36218 C 275.94096,590.1417 277.17173,588.77632 279,587.86218 C 281.46296,586.6307 282.38464,585.4487 284.5,583.86218 C 286.67555,582.23052 287.60566,582.65086 289,579.86218" id="path3506"/>
    <path style="fill:none;fill-rule:evenodd;stroke:#000000;stroke-width:0.5;stroke-linecap:butt;stroke-linejoin:miter;stroke-opacity:1;stroke-miterlimit:4;stroke-dasharray:none" d="M 230,599.36218 C 230.6207,598.89666 236.31647,598.54571 239,595.86218 C 240.98606,593.87613 243.97201,593.38318 246,591.86218 C 247.89637,590.43991 250.36876,590.08561 252,588.86218 C 254.4534,587.02213 258.18102,585.77167 261,584.36218 C 263.72126,583.00155 265.35232,581.68602 268,580.36218 C 270.54927,579.08755 273.25406,578.10812 275,576.36218 C 276.44936,574.91282 278.51718,574.845 280,573.36218" id="path3508"/>
    <path style="fill:none;fill-rule:evenodd;stroke:#000000;stroke-width:0.5;stroke-linecap:butt;stroke-linejoin:miter;stroke-opacity:1;stroke-miterlimit:4;stroke-dasharray:none" d="M 225,595.86218 C 226.58968,594.3324 231.41134,591.40651 234.5,589.86218 C 237.17147,588.52645 239.73415,586.67864 243,585.86218 C 245.67328,585.19386 247.59918,583.56259 250,582.36218 C 251.96855,581.37791 254.77989,579.08229 256,577.86218 C 257.07271,576.78947 261.4622,575.24663 263,574.86218 C 264.76696,574.42044 267.01593,571.33032 267.5,570.36218 C 267.66667,570.02885 267.83333,569.69552 268,569.36218" id="path3512"/>
    <path style="fill:none;fill-rule:evenodd;stroke:#000000;stroke-width:0.5;stroke-linecap:butt;stroke-linejoin:miter;stroke-opacity:1;stroke-miterlimit:4;stroke-dasharray:none" d="M 193,588.86218 C 193.11833,588.62553 198.98393,586.62022 200.5,585.86218 C 202.35945,584.93246 204.03857,583.97754 206.5,583.36218 C 209.49636,582.61309 210.93076,582.28912 213.5,580.36218 C 215.36001,578.96717 219.11002,577.33468 221,576.86218 C 223.85058,576.14954 225.45301,573.88568 227.5,572.86218 C 230.64737,571.2885 234.4203,570.09406 237.5,568.86218 C 240.50984,567.65825 242.9338,567.47542 246,566.86218 C 248.12957,566.43627 251.02038,564.85199 253,563.86218 C 254.46965,563.12736 255.9702,562.39198 257,561.36218" id="path3514"/>
    <path style="fill:none;fill-rule:evenodd;stroke:#000000;stroke-width:0.5;stroke-linecap:butt;stroke-linejoin:miter;stroke-opacity:1;stroke-miterlimit:4;stroke-dasharray:none" d="M 176,582.86218 C 178.61984,581.55226 184.02171,578.85133 188,576.86218 C 191.43075,575.14681 196.35228,573.77411 200,572.86218 C 202.96652,572.12055 206.62383,569.26931 208.5,567.86218 C 211.06112,565.94135 214.71532,565.97605 217.5,564.86218 C 220.54746,563.6432 224.77571,562.04325 227.5,561.36218 C 232.86003,560.02218 231.50014,559.66215 233,559.36218 C 237.20601,558.52098 238.66197,555.69669 242,554.86218 C 244.66049,554.19706 245.59932,552.33735 247.5,551.86218" id="path3516"/>
    <path style="fill:none;fill-rule:evenodd;stroke:#000000;stroke-width:0.5;stroke-linecap:butt;stroke-linejoin:miter;stroke-opacity:1;stroke-miterlimit:4;stroke-dasharray:none" d="M 160.5,572.86218 C 162.6615,572.32181 166.27737,571.2235 169,569.86218 C 171.91633,568.40402 174.75465,566.48486 178,564.86218 C 180.80286,563.46075 183.90393,562.91022 187,561.36218 C 189.35863,560.18287 192.15705,559.07292 195,558.36218 C 197.39581,557.76323 200.73568,555.49434 203,554.36218 C 205.72116,553.0016 208.18653,552.01892 210.5,550.86218 C 213.29515,549.46461 216.16235,548.28101 219,546.86218 C 221.39719,545.66359 224.10434,544.78392 226,543.36218 C 227.86516,541.96331 230.48098,540.36694 232.5,539.86218 C 233.71574,539.55825 235.10527,538.05955 236.5,537.36218" id="path3518"/>
    <path style="fill:none;fill-rule:evenodd;stroke:#000000;stroke-width:0.5;stroke-linecap:butt;stroke-linejoin:miter;stroke-opacity:1;stroke-miterlimit:4;stroke-dasharray:none" d="M 129,565.86218 C 132.89709,564.88791 138.93412,561.36218 145,561.36218 C 146.11875,561.36218 153.41365,558.25877 155,557.86218 C 158.3092,557.03488 160.48841,555.4645 163.5,554.86218 C 167.38904,554.08438 171.85613,552.24347 176,550.86218 C 179.37292,549.73787 183.95203,549.86218 187.5,549.86218 C 191.94713,549.86218 195.16686,549.77875 199,547.86218 C 201.14191,546.79123 205.50088,546.98696 208,546.36218 C 210.80607,545.66066 214.02446,543.59995 216.5,542.36218 C 218.77994,541.22221 221.95578,539.99824 224.5,539.36218 C 227.23389,538.67871 229.20124,537.93687 231.5,537.36218 C 233.17385,536.94372 233.50974,536.73475 235,536.36218" id="path3520"/>
    <path style="fill:none;fill-rule:evenodd;stroke:#000000;stroke-width:0.5;stroke-linecap:butt;stroke-linejoin:miter;stroke-opacity:1;stroke-miterlimit:4;stroke-dasharray:none" d="M 119,539.86218 C 119.90095,539.63695 126.2564,535.73398 129,534.36218 C 131.73586,532.99425 134.69712,532.76362 137.5,531.36218 C 143.17692,528.52372 145.75879,526.81905 151.5,525.86218 C 155.78083,525.14871 159.34077,522.29403 164,521.36218 C 175.61957,519.03827 160.43358,520.21765 172,516.36218 C 174.87301,515.40451 178.44384,515.62622 181.5,514.86218 C 184.37379,514.14373 187.45764,514.36218 190.5,514.36218 C 193.42799,514.36218 195.96222,513.86218 199,513.86218 C 201.08438,513.86218 203.29971,513.41225 205.5,512.86218" id="path3522"/>
    <path style="fill:none;fill-rule:evenodd;stroke:#000000;stroke-width:0.5;stroke-linecap:butt;stroke-linejoin:miter;stroke-opacity:1;stroke-miterlimit:4;stroke-dasharray:none" d="M 71.5,520.36218 C 105,528.36218 100.91834,521.96232 106,526.36218 C 108.4767,528.50658 101.25938,534.0868 103,536.86218 C 104.86055,539.8288 111,539.36218 114.5,538.86218 C 118,538.36218 123.67686,535.54849 127.5,533.86218 C 129.95507,532.7793 135.5,529.86218 135.5,529.86218" id="path3524" sodipodi:nodetypes="cssssc"/>
    <path style="fill:none;fill-rule:evenodd;stroke:#000000;stroke-width:0.57505935;stroke-linecap:butt;stroke-linejoin:miter;stroke-miterlimit:4;stroke-dasharray:none;stroke-opacity:1" d="M 105.53753,554.32465 C 108.62157,552.30274 115.43589,549.68434 120.19423,547.01437 C 124.76724,544.4484 131.96211,543.45721 137.56513,540.31327 C 142.54885,537.51685 151.19463,535.42663 156.56455,534.22137 C 161.37329,533.14207 165.86139,531.78461 170.67841,531.78461 C 174.9056,531.78461 180.20866,531.0907 184.24942,529.95704 C 184.97321,529.75398 185.69699,529.55092 186.42078,529.34785 C 189.45356,528.49698 192.82063,528.15511 195.64908,527.52028 C 200.92884,526.33526 206.05479,521.09805 211.39145,519.6008 C 215.7688,518.37271 221.01731,515.1134 223.87679,513.5089 C 224.11513,513.37517 224.72413,513.03345 224.96247,512.89971" id="path3526"/>
  </g>
</svg>