<?xml version="1.0" encoding="UTF-8" standalone="no"?>
<svg
   xmlns:dc="http://purl.org/dc/elements/1.1/"
   xmlns:cc="http://creativecommons.org/ns#"
   xmlns:rdf="http://www.w3.org/1999/02/22-rdf-syntax-ns#"
   xmlns:svg="http://www.w3.org/2000/svg"
   xmlns="http://www.w3.org/2000/svg"
   version="1.1"
   id="svg2"
   height="180mm"
   width="180mm">
  <defs
     id="defs4" />
  <metadata
     id="metadata7">
    <rdf:RDF>
      <cc:Work
         rdf:about="">
        <dc:format>image/svg+xml</dc:format>
        <dc:type
           rdf:resource="http://purl.org/dc/dcmitype/StillImage" />
        <dc:title></dc:title>
      </cc:Work>
    </rdf:RDF>
  </metadata>
  <g
     transform="translate(0,-442.20473)"
     style="display:inline"
     id="layer6">
    <g
       transform="translate(29.212823,279.86919)"
       id="g3543">
      <path
         style="fill:#d26956;fill-opacity:1;fill-rule:evenodd;stroke:#000000;stroke-width:1px;stroke-linecap:butt;stroke-linejoin:miter;stroke-opacity:1"
         d="m 276,654.36218 c 18.5,3.5 18.5,3.5 18.5,3.5 0,0 -1.01795,13.79136 -2.5,19.5 -0.60895,2.34557 -4.33598,5.4782 -3,7.5 3.22032,4.87346 13.82815,11.5 12,11.5 0,0 8.09423,4.84619 12,5.5 9.06798,1.51795 30.5,-3 30.5,-3 0,0 -13.0251,10.31217 -12.5,16.5 0.27817,3.27798 8,7.5 8,7.5 0,0 -8.74749,-0.56039 -12.5,-0.5 -12.48087,0.20087 -21.0232,-2.12316 -33.5,-2.5 -2.26888,-0.0685 -13.46559,3.49319 -15.5,4.5 -1.08387,0.5364 -2,3.5 -2,3.5 0,0 -12.37047,-8.3407 -14.5,-14 -2.54449,-6.76207 -0.0867,-17.08294 2,-24 0.98886,-3.2779 4.86971,-6.6347 5.5,-10 0.41787,-2.23112 0.86392,-6.20451 -1,-7.5 -2.77888,-1.93141 -9.48892,5.52806 -11,2.5 -1.14058,-2.28562 4.42907,-4.00459 6.5,-5.5 2.56535,-1.85243 6.93651,-3.10114 9,-5.5 2.01659,-2.34433 4,-9.5 4,-9.5 z"
         id="path3529" />
      <path
         style="fill:#962d0f;fill-opacity:1;fill-rule:evenodd;stroke:#000000;stroke-width:1px;stroke-linecap:butt;stroke-linejoin:miter;stroke-opacity:1"
         d="m 278,723.86218 c 0,0 -3.57167,-9.29773 -4,-13.5 -0.71747,-7.03902 2,-23.5 2,-23.5 0,0 3.02339,12.78981 6.5,17 3.25995,3.94782 9.92206,6.70763 14.5,9 6.62525,3.31754 23,9 23,9 0,0 -19.61912,-1.80071 -24,-1.5 -8.23063,0.56496 -18,3.5 -18,3.5 z"
         id="path3539" />
      <path
         style="fill:#962d0f;fill-opacity:1;fill-rule:evenodd;stroke:#000000;stroke-width:1px;stroke-linecap:butt;stroke-linejoin:miter;stroke-opacity:1"
         d="m 286,691.86218 c 0,0 9.55393,4.66942 13.5,6.5 5.06398,2.34917 11.92094,6.80886 17.5,7 7.65139,0.26214 20,-2.5 20,-2.5 0,0 -3.95256,5.18224 -6.5,9.5 -1.31579,2.23018 3,8 3,8 0,0 -20.88647,-4.30173 -27.5,-9 -2.349,-1.66874 -7.32972,-4.1521 -9,-6.5 -2.77428,-3.89979 -11,-13 -11,-13 z"
         id="path3541" />
    </g>
    <g
       transform="translate(29.712823,277.86919)"
       id="g3556">
      <path
         style="fill:#d26956;fill-opacity:1;fill-rule:evenodd;stroke:#000000;stroke-width:1px;stroke-linecap:butt;stroke-linejoin:miter;stroke-opacity:1"
         d="m 354,678.86218 c 5.5,3.5 11,3 11,3 l 11,-1.5 3,-1 c 0,0 1.66115,6.97072 1.5,10 -0.1894,3.56043 -3.10135,7.93598 -3,11.5 0.13889,4.88397 4.80403,11.13535 7,15.5 2.31977,4.61071 3.98775,9.75656 8.5,11.5 5.88492,2.27381 14.06446,-6.65715 20,-6 3.26978,0.36201 10.94852,10.77079 14,12 6.2052,2.49961 8.12123,2.98413 14,3 4.51246,0.0122 16.04704,-1.41071 17,3 0.49482,2.29023 -5.4531,2.72164 -6,5 -0.79992,3.33244 4.60067,7.07438 4.5,10.5 -0.069,2.34686 -1.57844,5.65089 -3.5,7 -4.20276,2.95073 -11.39303,-0.46252 -16.5,-1 -9.29332,-0.97808 -20.9872,-4.95565 -30,-7 -8.83778,-2.00465 -16.30638,-0.62836 -24.5,-4.5 -2.41468,-1.14098 -14.17333,-3.8532 -12,-7.5 1.11609,-1.87278 0.24892,-6.89596 -2,-7.5 -1.4341,-0.38519 -2.0159,3.54942 -3.5,3.5 -1.59364,-0.0531 -3.74738,-2.42478 -3.5,-4 0.40709,-2.59216 7.33998,-1.88096 7.5,-4.5 0.44167,-7.2286 -1.30447,-13.4841 -3,-19 -1.65612,-5.3877 -8,-17 -8,-17 z"
         id="path3548" />
      <path
         style="fill:#962d0f;fill-opacity:1;fill-rule:evenodd;stroke:#000000;stroke-width:1px;stroke-linecap:butt;stroke-linejoin:miter;stroke-opacity:1"
         d="m 395.5,734.86218 c 1.00588,-2.01175 10.1204,-4.27326 14.5,-6 2.38456,-0.94015 8,-3 8,-3 0,0 5.537,5.26484 8.5,6.5 4.05312,1.68959 10.12597,1.61225 14.5,2 5.73582,0.50847 15.5,4.5 15.5,4.5 0,0 -12.233,1.34594 -17.5,1.5 -5.54965,0.16233 -12.95041,-0.3355 -18.5,-0.5 -4.65038,-0.13785 -10.88867,0.11693 -15.5,-0.5 -3.20946,-0.42938 -10.5,-2.5 -10.5,-2.5 z"
         id="path3550" />
      <path
         style="fill:#962d0f;fill-opacity:1;fill-rule:evenodd;stroke:#000000;stroke-width:1px;stroke-linecap:butt;stroke-linejoin:miter;stroke-opacity:1"
         d="m 399.5,746.36218 17.5,-1 c 0,0 11.55903,0.16555 16.5,0.5 5.71841,0.38707 14.4179,-1.44301 19,2 3.49621,2.62707 5.50033,8.91205 3,12.5 -2.57424,3.69402 -8.7667,0.88401 -12.5,0.5 -6.1522,-0.63282 -14.01629,-3.43627 -20,-5 -4.96408,-1.29727 -16.5,-4.5 -16.5,-4.5 z"
         id="path3554" />
    </g>
    <path
       id="path3561"
       d="m 371.21282,945.73137 c 8.5,7 7.46209,4.36011 10,7 1.73018,1.79971 2.5402,5.4535 4.5,7 2.49514,1.96895 6.82665,3.3202 10,3.5 3.37874,0.19144 8.39199,-0.34343 11,-2.5 2.01883,-1.66938 2.6683,-5.51589 3.5,-8 1.02804,-3.07053 1.45016,-7.43686 2.5,-10.5 1.17526,-3.4291 5,-11 5,-11 z"
       style="fill:#f0f0f0;fill-opacity:1;fill-rule:evenodd;stroke:#000000;stroke-width:1px;stroke-linecap:butt;stroke-linejoin:miter;stroke-opacity:1" />
  </g>
  <g
     transform="translate(0,-442.20473)"
     style="display:inline"
     id="layer2">
    <path
       id="path2525"
       d="m 581.71282,545.8028 c 1.50984,-8.90803 -9.6315,-13.04738 -15,-16.78571 -3.58667,-2.49756 -15.62951,-5.74422 -20,-5.71428 -6.13606,0.042 -13.06267,3.92458 -16.42857,6.78571 -9.01193,7.66043 -17.10819,16.85154 -23.57143,25.35714 -5.33922,7.0264 -11.75522,17.45238 -16.07143,25.35714 -6.34048,11.61203 -13.2184,27.87935 -16.42857,40.71429 -3.74934,14.99059 -4.24909,35.44468 -5,50.71428 -0.2947,5.99276 0.76984,15.47816 0,21.42857 -1.08036,8.3505 -3.15303,17.29844 -4.28572,25.35715 -0.49572,3.52692 -4.19316,7.8495 -6.78571,7.14285 -9.39389,-2.56048 -25.99109,-7.78973 -37.5,-8.21428 -9.08519,-0.33514 -23.04878,-0.62816 -32.85714,0.35714 -13.02562,1.30849 -30.23701,4.73419 -42.85714,8.21429 -4.83581,1.33351 -11.07416,3.80839 -15.71429,5.71428 -16.14219,6.63026 -37.83882,18.45216 -54.28571,24.28572 -16.26234,5.7681 -27.14286,10 -54.28572,14.28571 -27.14286,4.28572 -38.76186,17.28672 -55,21.07143 -9.92721,2.31378 -24.90741,0.0486 -41.42856,-0.35715 -5.90762,-0.14507 -23.50476,4.85673 -25.000007,8.57144 4.518147,4.73495 27.142857,8.92856 27.142857,8.92856 0,0 -28.583826,-3.47456 -35.714286,4.64286 -3.6769,4.18584 -9.285714,6.78572 -5.357143,16.07143 3.52043,8.32101 32.415919,1.54518 43.214289,8.21428 -0.65043,6.36288 1.05803,6.50263 3.57142,7.14287 11.47241,2.9224 28.71941,11.00479 39.64286,18.21428 10.25593,6.76893 21.75465,18.97352 31.78571,26.07143 14.71438,10.41179 36.2717,21.22663 52.85715,27.85714 15.5404,6.21273 35.84763,12.12104 51.42857,17.5 9.62935,3.32431 22.693,8.48423 32.85714,10.35715 24.8647,4.58177 54.78834,-1.30882 79.64286,-6.42857 13.27393,-2.73428 35.38845,-10.75409 47.14286,-17.50001 24.23232,-13.90708 47.16447,-41.16817 69.64285,-60.71428 12.03569,-10.46566 23.34889,-31.77151 26.78572,-48.21428 5.3681,-25.68249 0.30753,-39.76689 -2.14286,-55.00001 -2.21708,-13.78267 -9.18025,-27.78095 -13.92857,-39.64285 -4.27367,-10.67617 -12.60376,-24.1741 -15.71429,-35.35715 -2.77775,-9.98664 -1.75009,-24.78304 0,-35 1.61796,-9.44557 3.94709,-18.84851 8.57143,-26.42857 4.57968,-7.50686 5.45354,-11.63666 12.5,-17.85714 4.37002,-3.85778 21.42857,-15 21.42857,-15 z"
       style="fill:#f0f0f0;fill-opacity:1;fill-rule:evenodd;stroke:#000000;stroke-width:1px;stroke-linecap:butt;stroke-linejoin:miter;stroke-opacity:1" />
  </g>
  <g
     transform="translate(0,-442.20473)"
     style="display:inline"
     id="layer3">
    <path
       id="path3298"
       d="m 549.21281,570.08852 c -0.71428,9.28571 0.35715,9.64286 0.35715,9.64286 0,0 11.1344,3.74175 16.07143,4.64285 2.64346,0.48248 6.24358,0.60706 8.92857,0.71429 2.14115,0.0855 4.59829,-0.10565 7.14285,0 2.49913,0.10376 8.09345,2.91312 9.28572,0.71428 0.38895,-0.71731 -0.46459,-1.95451 -1.07143,-2.5 -2.1676,-1.94843 -6.60922,-1.70331 -9.28571,-2.85714 -3.39266,-1.46257 -7.26917,-4.73713 -10.71429,-6.07143 -2.2541,-0.87302 -5.09781,-0.44474 -7.49999,-0.71428 -2.44892,-0.27478 -6.18193,-0.46899 -8.57144,-1.07143 -1.53395,-0.38673 -4.64286,-2.5 -4.64286,-2.5 z"
       style="fill:#fb9354;fill-opacity:1;fill-rule:evenodd;stroke:#000000;stroke-width:1px;stroke-linecap:butt;stroke-linejoin:miter;stroke-opacity:1" />
    <path
       id="path3300"
       d="m 559.56996,545.8028 c -2.85714,11.78571 -4.28571,16.42857 -4.28571,16.42857 l -6.42857,6.78572 c 0,0 1.33495,1.93163 2.14286,2.5 1.96925,1.38537 5.11705,2.51257 7.5,2.85714 2.76518,0.39984 6.57404,-1.38729 9.28571,-0.71429 2.33684,0.57998 4.69875,3.08497 6.78571,4.28572 2.40922,1.38616 5.73901,3.02129 8.21429,4.28571 2.13354,1.08986 4.77598,3.20039 7.14286,3.57143 1.39224,0.21825 3.50406,0.11584 4.64285,-0.71429 0.968,-0.70563 1.83169,-2.37441 1.78572,-3.57142 -0.0719,-1.87286 -2.12155,-3.83443 -3.21429,-5.35715 -1.63971,-2.28491 -4.30594,-4.95368 -6.07143,-7.14285 -1.43942,-1.78486 -3.53188,-4.06559 -4.64285,-6.07143 -0.88708,-1.6016 -1.87632,-3.90294 -2.14286,-5.71429 -0.23449,-1.59355 0.62831,-3.76942 0.35714,-5.35714 -0.13737,-0.80433 -0.37214,-2.07951 -1.07143,-2.5 -1.10567,-0.66485 -2.99555,0.36199 -4.28571,0.35714 -1.18342,-0.004 -3.92857,-0.35714 -3.92857,-0.35714 0,0 -2.92332,-2.12801 -4.28572,-2.85714 -1.22805,-0.65723 -2.89378,-1.73486 -4.28571,-1.78572 -1.01577,-0.0371 -3.21429,1.07143 -3.21429,1.07143 z"
       style="fill:#fb9354;fill-opacity:1;fill-rule:evenodd;stroke:#000000;stroke-width:1px;stroke-linecap:butt;stroke-linejoin:miter;stroke-opacity:1" />
    <path
       id="path3302"
       d="m 569.56996,560.8028 c 5.71429,3.57143 5.35714,6.78571 5.35714,6.78571 l -0.35714,-0.71428 -3.92857,-3.92857 z"
       style="fill:#aa0301;fill-opacity:1;fill-rule:evenodd;stroke:#aa0301;stroke-width:1px;stroke-linecap:butt;stroke-linejoin:miter;stroke-opacity:1" />
  </g>
  <g
     transform="translate(0,-442.20473)"
     style="display:inline"
     id="layer4">
    <path
       id="path3305"
       d="m 538.96105,533.32697 c 2.50313,-0.93877 0.27843,-1.013 2.3991,-0.88388 3.26175,0.1986 2.71626,-0.20632 3.40927,0.63135 0.59638,0.72087 1.43065,1.74013 1.6415,2.65165 0.25739,1.11271 0.12077,2.76104 -0.37881,3.78807 -0.57424,1.18052 -1.94744,2.51957 -3.15672,3.03046 -1.01254,0.42778 -2.6284,0.50082 -3.66181,0.12627 -0.90798,-0.32909 -1.63375,-1.84789 -1.89403,-2.77793 -1.13264,-4.04709 1.6415,-6.56599 1.6415,-6.56599 z"
       style="fill:#55140b;fill-opacity:1;fill-rule:evenodd;stroke:#000000;stroke-width:1px;stroke-linecap:butt;stroke-linejoin:miter;stroke-opacity:1" />
    <ellipse
       ry="0.8201195"
       rx="0.82011944"
       cy="536.35742"
       cx="542.24402"
       id="path3307"
       style="opacity:1;fill:#000000;fill-opacity:1;stroke:#000000;stroke-width:0.37498987;stroke-linecap:butt;stroke-linejoin:miter;stroke-miterlimit:4;stroke-dasharray:none;stroke-opacity:1" />
  </g>
  <g
     transform="translate(0,-442.20473)"
     style="display:inline"
     id="layer5">
    <path
       id="path3312"
       d="m 546.03212,584.46595 c -13.51079,3.53553 -10.17434,2.94849 -14.64722,3.6618 -4.72542,0.75358 -15.9099,1.13642 -15.9099,1.13642"
       style="fill:none;fill-rule:evenodd;stroke:#000000;stroke-width:0.5;stroke-linecap:butt;stroke-linejoin:miter;stroke-miterlimit:4;stroke-dasharray:none;stroke-opacity:1" />
    <path
       id="path3314"
       d="m 564.97248,587.74895 c -20.07678,4.79822 -18.68783,4.41941 -20.07678,4.92449 -1.38896,0.50508 -14.01587,3.03046 -14.01587,3.03046"
       style="fill:none;fill-rule:evenodd;stroke:#000000;stroke-width:0.5;stroke-linecap:butt;stroke-linejoin:miter;stroke-miterlimit:4;stroke-dasharray:none;stroke-opacity:1" />
    <path
       id="path3316"
       d="m 568.38174,590.4006 c -18.18274,6.69226 -12.60276,5.06448 -18.18274,6.69226 -3.23832,0.94468 -10.98541,2.39911 -10.98541,2.39911"
       style="fill:none;fill-rule:evenodd;stroke:#000000;stroke-width:0.5;stroke-linecap:butt;stroke-linejoin:miter;stroke-miterlimit:4;stroke-dasharray:none;stroke-opacity:1" />
    <path
       id="path3318"
       d="m 498.04987,577.77369 c -4.16688,1.6415 -4.16688,1.6415 -4.16688,1.6415"
       style="fill:none;fill-rule:evenodd;stroke:#000000;stroke-width:0.5;stroke-linecap:butt;stroke-linejoin:miter;stroke-miterlimit:4;stroke-dasharray:none;stroke-opacity:1" />
    <path
       id="path3320"
       d="m 497.79733,584.21341 c -0.4788,0.24483 -1.80332,1.17198 -2.39911,1.76777 -0.76042,0.76042 1.00786,-1.38667 0,-0.37881 -0.43219,0.4322 -0.95831,0.90647 -1.26269,1.51523 -0.12146,0.24292 -0.51312,0.47371 -0.63135,0.63135"
       style="fill:none;fill-rule:evenodd;stroke:#000000;stroke-width:0.5;stroke-linecap:butt;stroke-linejoin:miter;stroke-miterlimit:4;stroke-dasharray:none;stroke-opacity:1" />
    <path
       id="path3322"
       d="m 502.09048,586.61252 c -0.0254,0.0509 -1.81581,1.23559 -2.52538,1.76777 -0.54612,0.40959 -1.32243,0.86725 -1.89404,1.01015 -0.1578,0.0394 -0.76252,0.6666 -0.88388,0.75762"
       style="fill:none;fill-rule:evenodd;stroke:#000000;stroke-width:0.5;stroke-linecap:butt;stroke-linejoin:miter;stroke-miterlimit:4;stroke-dasharray:none;stroke-opacity:1" />
    <path
       id="path3324"
       d="m 508.1514,582.95072 c -0.3799,0.095 -1.2838,1.55743 -1.51523,2.02031 -0.30283,0.60565 -0.5367,1.0734 -0.88389,1.76776 -0.35977,0.71955 -0.59507,1.19014 -0.88388,1.76777 -0.25937,0.51875 -0.42424,1.18185 -0.88388,1.6415 -0.0595,0.0595 0,0.16836 0,0.25254"
       style="fill:none;fill-rule:evenodd;stroke:#000000;stroke-width:0.5;stroke-linecap:butt;stroke-linejoin:miter;stroke-miterlimit:4;stroke-dasharray:none;stroke-opacity:1" />
    <path
       id="path3326"
       d="m 504.99467,595.19882 c -0.37577,0.37577 -1.44593,1.24228 -2.14657,1.76777 -0.75121,0.5634 -1.25242,0.62621 -2.02031,1.01015 -0.77269,0.38635 -1.40272,0.5154 -1.89404,0.88388 -0.25237,0.18928 -0.54994,0.29533 -0.88388,0.37881"
       style="fill:none;fill-rule:evenodd;stroke:#000000;stroke-width:0.5;stroke-linecap:butt;stroke-linejoin:miter;stroke-miterlimit:4;stroke-dasharray:none;stroke-opacity:1" />
    <path
       id="path3328"
       d="m 514.33858,591.15821 c -0.38493,0.2887 -1.09502,1.43243 -1.38896,2.02031 -0.0421,0.0842 -0.0842,0.16835 -0.12627,0.25253"
       style="fill:none;fill-rule:evenodd;stroke:#000000;stroke-width:0.5;stroke-linecap:butt;stroke-linejoin:miter;stroke-miterlimit:4;stroke-dasharray:none;stroke-opacity:1" />
    <path
       id="path3330"
       d="m 510.80305,599.61824 c -0.16137,0.32272 -1.30382,0.79874 -1.89404,1.38896 -0.64509,0.64509 -0.65263,0.84274 -0.88388,1.76776 -0.20622,0.82487 -0.18193,1.39754 -0.63135,2.14658 -0.39478,0.65796 -0.60774,0.98655 -1.01015,1.38896 -0.37189,0.37189 -0.85127,0.59873 -1.26269,1.01015"
       style="fill:none;fill-rule:evenodd;stroke:#000000;stroke-width:0.5;stroke-linecap:butt;stroke-linejoin:miter;stroke-miterlimit:4;stroke-dasharray:none;stroke-opacity:1" />
    <path
       id="path3332"
       d="m 516.86396,606.05796 c -0.84967,0.84968 -1.84235,1.46354 -2.65165,2.27284 -0.92136,0.92136 -2.40822,1.40718 -2.90419,2.39912 -0.12785,0.25571 -0.45237,0.33406 -0.63134,0.3788"
       style="fill:none;fill-rule:evenodd;stroke:#000000;stroke-width:0.5;stroke-linecap:butt;stroke-linejoin:miter;stroke-miterlimit:4;stroke-dasharray:none;stroke-opacity:1" />
    <path
       id="path3334"
       d="m 516.99023,613.76037 c -0.0622,0.12441 0.43869,2.91721 0.25254,3.66181 -0.17026,0.68103 -0.86893,1.37774 -1.38896,1.76776 -0.82911,0.62184 -1.37504,1.15755 -2.02031,1.6415 -0.23965,0.17974 -0.38004,0.37943 -0.63134,0.50508"
       style="fill:none;fill-rule:evenodd;stroke:#000000;stroke-width:0.5;stroke-linecap:butt;stroke-linejoin:miter;stroke-miterlimit:4;stroke-dasharray:none;stroke-opacity:1" />
    <path
       id="path3336"
       d="m 523.68249,616.28575 c -0.86536,0.64903 1.56089,4.05941 2.02031,4.67196 0.13599,0.18133 -0.41146,-0.19756 -0.63135,-0.25254"
       style="fill:none;fill-rule:evenodd;stroke:#000000;stroke-width:0.5;stroke-linecap:butt;stroke-linejoin:miter;stroke-miterlimit:4;stroke-dasharray:none;stroke-opacity:1" />
    <path
       id="path3338"
       d="m 532.26879,601.13347 c 0.43006,0.57341 -1.21144,0.81555 -1.6415,1.38896"
       style="fill:none;fill-rule:evenodd;stroke:#000000;stroke-width:0.5;stroke-linecap:butt;stroke-linejoin:miter;stroke-miterlimit:4;stroke-dasharray:none;stroke-opacity:1" />
    <path
       id="path3340"
       d="m 535.17298,604.16392 c 0.28237,0.37651 -1.25494,3.52003 -1.6415,4.29315 -0.0266,0.0532 -0.0842,0.0842 -0.12627,0.12627"
       style="fill:none;fill-rule:evenodd;stroke:#000000;stroke-width:0.5;stroke-linecap:butt;stroke-linejoin:miter;stroke-miterlimit:4;stroke-dasharray:none;stroke-opacity:1" />
    <path
       id="path3342"
       d="m 542.24404,607.06811 c -0.11155,0.22311 0.15245,3.09128 -0.12626,3.78808"
       style="fill:none;fill-rule:evenodd;stroke:#000000;stroke-width:0.5;stroke-linecap:butt;stroke-linejoin:miter;stroke-miterlimit:4;stroke-dasharray:none;stroke-opacity:1" />
    <path
       id="path3344"
       d="m 535.17298,617.67471 c -0.10986,0.21971 4.14047,4.01421 4.92449,4.79823 0.75478,0.75478 1.21225,1.07081 -0.12627,0"
       style="fill:none;fill-rule:evenodd;stroke:#000000;stroke-width:0.5;stroke-linecap:butt;stroke-linejoin:miter;stroke-miterlimit:4;stroke-dasharray:none;stroke-opacity:1" />
    <path
       id="path3346"
       d="m 533.78402,619.18994 c 0.0742,0.0742 -0.13538,2.73237 0,3.40927 0.13359,0.66794 0.64201,1.4103 0.75761,1.6415"
       style="fill:none;fill-rule:evenodd;stroke:#000000;stroke-width:0.5;stroke-linecap:butt;stroke-linejoin:miter;stroke-miterlimit:4;stroke-dasharray:none;stroke-opacity:1" />
    <path
       id="path3348"
       d="m 528.48072,623.98817 c 0.11731,0.58659 0.86889,0.85391 1.13642,1.38896"
       style="fill:none;fill-rule:evenodd;stroke:#000000;stroke-width:0.5;stroke-linecap:butt;stroke-linejoin:miter;stroke-miterlimit:4;stroke-dasharray:none;stroke-opacity:1" />
    <path
       id="path3350"
       d="m 528.22818,633.71089 c 0.0559,0.27953 0.8052,0.44099 0.63134,1.13642"
       style="fill:none;fill-rule:evenodd;stroke:#000000;stroke-width:0.5;stroke-linecap:butt;stroke-linejoin:miter;stroke-miterlimit:4;stroke-dasharray:none;stroke-opacity:1" />
    <path
       id="path3352"
       d="m 514.84366,625.8822 c 0.0629,0.31449 -1.97097,1.44666 -2.39912,1.76777 -0.5237,0.39278 -1.14571,0.47583 -1.76776,0.63135"
       style="fill:none;fill-rule:evenodd;stroke:#000000;stroke-width:0.5;stroke-linecap:butt;stroke-linejoin:miter;stroke-miterlimit:4;stroke-dasharray:none;stroke-opacity:1" />
    <path
       id="path3354"
       d="m 509.66663,635.22612 c -0.36781,0.27585 -1.79524,0.66796 -2.52539,1.64149 -0.0357,0.0476 0.0842,0.0842 0.12627,0.12627"
       style="fill:none;fill-rule:evenodd;stroke:#000000;stroke-width:0.5;stroke-linecap:butt;stroke-linejoin:miter;stroke-miterlimit:4;stroke-dasharray:none;stroke-opacity:1" />
    <path
       id="path3356"
       d="m 510.80305,639.26673 c -0.31358,0.4181 -1.51716,1.4757 -2.02031,2.14657 -0.0565,0.0753 -0.0842,0.16836 -0.12627,0.25254"
       style="fill:none;fill-rule:evenodd;stroke:#000000;stroke-width:0.5;stroke-linecap:butt;stroke-linejoin:miter;stroke-miterlimit:4;stroke-dasharray:none;stroke-opacity:1" />
    <path
       id="path3358"
       d="m 519.51561,637.87777 c -0.22853,0.30471 3.28823,2.53584 3.78807,3.53553"
       style="fill:none;fill-rule:evenodd;stroke:#000000;stroke-width:0.5;stroke-linecap:butt;stroke-linejoin:miter;stroke-miterlimit:4;stroke-dasharray:none;stroke-opacity:1" />
    <path
       id="path3360"
       d="m 516.23262,645.0751 c -0.77624,1.03499 -1.44456,3.39418 -2.14658,4.79823 -0.43843,0.87687 0.0916,0.18323 0.12627,0.25254"
       style="fill:none;fill-rule:evenodd;stroke:#000000;stroke-width:0.5;stroke-linecap:butt;stroke-linejoin:miter;stroke-miterlimit:4;stroke-dasharray:none;stroke-opacity:1" />
    <path
       id="path3362"
       d="m 524.18757,645.32764 c -0.22186,0.44372 2.24663,2.07689 0.50507,1.6415"
       style="fill:none;fill-rule:evenodd;stroke:#000000;stroke-width:0.5;stroke-linecap:butt;stroke-linejoin:miter;stroke-miterlimit:4;stroke-dasharray:none;stroke-opacity:1" />
    <path
       id="path3364"
       d="m 502.46929,629.54401 c -0.23299,0.46597 -1.10473,1.44417 -1.89404,1.6415"
       style="fill:none;fill-rule:evenodd;stroke:#000000;stroke-width:0.5;stroke-linecap:butt;stroke-linejoin:miter;stroke-miterlimit:4;stroke-dasharray:none;stroke-opacity:1" />
    <path
       id="path3366"
       d="m 501.2066,639.7718 c -0.26993,0.0675 -3.1126,2.48126 -3.15673,2.52538"
       style="fill:none;fill-rule:evenodd;stroke:#000000;stroke-width:0.5;stroke-linecap:butt;stroke-linejoin:miter;stroke-miterlimit:4;stroke-dasharray:none;stroke-opacity:1" />
    <path
       id="path3368"
       d="m 499.69137,650.12587 c -0.15254,0.15253 -1.38088,0.87781 -1.89404,1.26269 -0.33502,0.25127 3e-4,-6e-4 -0.12627,0.25253"
       style="fill:none;fill-rule:evenodd;stroke:#000000;stroke-width:0.5;stroke-linecap:butt;stroke-linejoin:miter;stroke-miterlimit:4;stroke-dasharray:none;stroke-opacity:1" />
    <path
       id="path3370"
       d="m 499.06002,660.22739 c -0.74802,0.56102 -2.8796,1.24425 -3.91434,2.02031 -0.51031,0.38273 -0.06,0.02 -0.3788,0.12626"
       style="fill:none;fill-rule:evenodd;stroke:#000000;stroke-width:0.5;stroke-linecap:butt;stroke-linejoin:miter;stroke-miterlimit:4;stroke-dasharray:none;stroke-opacity:1" />
    <path
       id="path3372"
       d="m 489.21104,654.29274 c -0.2475,0.18563 0,3.40174 0,4.16688 0,0.55278 -0.47911,-0.27492 -0.50508,-0.3788"
       style="fill:none;fill-rule:evenodd;stroke:#000000;stroke-width:0.5;stroke-linecap:butt;stroke-linejoin:miter;stroke-miterlimit:4;stroke-dasharray:none;stroke-opacity:1" />
    <path
       id="path3374"
       d="m 492.24149,636.61507 c 0,0.85795 -0.42385,1.17048 -1.76776,1.76777 -1.78382,0.79281 0.44815,-0.16539 -1.01016,0.12627 -1.01755,0.20351 -1.37898,0.83138 -2.27284,1.01015 -0.75145,0.15029 -1.64985,0.76597 -2.0203,1.13643 -0.44266,0.44265 -1.31629,0.95564 -1.89404,1.38895 -0.57644,0.43234 -0.71031,0.7971 -1.38896,1.13643"
       style="fill:none;fill-rule:evenodd;stroke:#000000;stroke-width:0.5;stroke-linecap:butt;stroke-linejoin:miter;stroke-miterlimit:4;stroke-dasharray:none;stroke-opacity:1" />
    <path
       id="path3376"
       d="m 497.41853,668.18234 c -0.40286,0.30214 -2.27725,1.32693 -3.03046,1.51523 -0.69755,0.17439 -0.26795,0.26795 -0.50508,0.50508"
       style="fill:none;fill-rule:evenodd;stroke:#000000;stroke-width:0.5;stroke-linecap:butt;stroke-linejoin:miter;stroke-miterlimit:4;stroke-dasharray:none;stroke-opacity:1" />
    <path
       id="path3378"
       d="m 505.12094,672.09668 c -0.47794,0.11949 -0.20949,0.99485 -0.50508,1.38896 -0.54715,0.72954 -1.87849,1.62596 -2.39911,2.14658"
       style="fill:none;fill-rule:evenodd;stroke:#000000;stroke-width:0.5;stroke-linecap:butt;stroke-linejoin:miter;stroke-miterlimit:4;stroke-dasharray:none;stroke-opacity:1" />
    <path
       id="path3380"
       d="m 492.74657,675.63222 c -0.45775,0.61033 -2.0127,1.6709 -2.52538,2.52538"
       style="fill:none;fill-rule:evenodd;stroke:#000000;stroke-width:0.5;stroke-linecap:butt;stroke-linejoin:miter;stroke-miterlimit:4;stroke-dasharray:none;stroke-opacity:1" />
    <path
       id="path3382"
       d="m 492.6203,686.99643 c -1.18748,1.58331 -3.87532,4.32377 -5.80838,5.93465 -0.72197,0.60164 -1.90159,0.82453 -2.77792,1.26269 -0.72758,0.36379 -0.46752,0.0512 -0.25253,-0.37881"
       style="fill:none;fill-rule:evenodd;stroke:#000000;stroke-width:0.5;stroke-linecap:butt;stroke-linejoin:miter;stroke-miterlimit:4;stroke-dasharray:none;stroke-opacity:1" />
    <path
       id="path3384"
       d="m 503.60571,688.63793 c -0.58805,0.29403 -0.67464,1.2212 -1.26269,1.51523"
       style="fill:none;fill-rule:evenodd;stroke:#000000;stroke-width:0.5;stroke-linecap:butt;stroke-linejoin:miter;stroke-miterlimit:4;stroke-dasharray:none;stroke-opacity:1" />
    <path
       id="path3386"
       d="m 513.8335,664.14173 c -0.0931,0.0466 1.76777,0.92942 1.76777,2.52538 0,0.84847 -0.21236,1.0202 -0.75761,0.88389"
       style="fill:none;fill-rule:evenodd;stroke:#000000;stroke-width:0.5;stroke-linecap:butt;stroke-linejoin:miter;stroke-miterlimit:4;stroke-dasharray:none;stroke-opacity:1" />
    <path
       id="path3388"
       d="m 514.08604,656.31305 c 0,0.57211 -1.74427,2.62815 -2.39911,3.283"
       style="fill:none;fill-rule:evenodd;stroke:#000000;stroke-width:0.5;stroke-linecap:butt;stroke-linejoin:miter;stroke-miterlimit:4;stroke-dasharray:none;stroke-opacity:1" />
    <path
       id="path3390"
       d="m 525.32399,663.63666 c 0,0.74464 1.18221,0.97546 1.51523,1.64149 0.11694,0.23388 0.17866,0.53599 0.25254,0.75762"
       style="fill:none;fill-rule:evenodd;stroke:#000000;stroke-width:0.5;stroke-linecap:butt;stroke-linejoin:miter;stroke-miterlimit:4;stroke-dasharray:none;stroke-opacity:1" />
    <path
       id="path3392"
       d="m 478.47817,678.53641 c 0.0358,0.0715 -2.51741,4.26124 -2.77792,5.3033 -0.0754,0.30173 -0.16845,0.50534 -0.25254,0.75761"
       style="fill:none;fill-rule:evenodd;stroke:#000000;stroke-width:0.5;stroke-linecap:butt;stroke-linejoin:miter;stroke-miterlimit:4;stroke-dasharray:none;stroke-opacity:1" />
    <path
       id="path3394"
       d="m 476.20532,671.59161 c -0.22283,0.89132 -2.36103,3.35214 -3.15672,4.54568 -0.44654,0.6698 -0.9395,1.12138 -1.2627,1.76777"
       style="fill:none;fill-rule:evenodd;stroke:#000000;stroke-width:0.5;stroke-linecap:butt;stroke-linejoin:miter;stroke-miterlimit:4;stroke-dasharray:none;stroke-opacity:1" />
    <path
       id="path3396"
       d="m 482.0137,660.85874 c -0.33373,0.50059 -1.65133,1.02982 -2.14657,2.0203 -0.13619,0.27237 -0.45375,0.363 -0.63135,0.50508"
       style="fill:none;fill-rule:evenodd;stroke:#000000;stroke-width:0.5;stroke-linecap:butt;stroke-linejoin:miter;stroke-miterlimit:4;stroke-dasharray:none;stroke-opacity:1" />
    <path
       id="path3398"
       d="m 484.66535,671.2128 c -0.42854,0.85708 -2.41905,1.93391 -3.03046,3.15673 -0.0266,0.0532 -0.0842,0.0842 -0.12627,0.12627"
       style="fill:none;fill-rule:evenodd;stroke:#000000;stroke-width:0.5;stroke-linecap:butt;stroke-linejoin:miter;stroke-miterlimit:4;stroke-dasharray:none;stroke-opacity:1" />
    <path
       id="path3400"
       d="m 488.20088,644.94883 c -0.24717,0.49435 -1.77001,1.68659 -2.39911,2.52538 -0.80713,1.07618 -1.75473,1.90091 -2.77792,2.77792 -2.00025,1.71451 -4.00184,3.79206 -5.68211,5.80838 -0.75255,0.90306 -1.48435,1.89497 -2.14657,2.77792 -0.0565,0.0753 -0.0842,0.16836 -0.12627,0.25254"
       style="fill:none;fill-rule:evenodd;stroke:#000000;stroke-width:0.5;stroke-linecap:butt;stroke-linejoin:miter;stroke-miterlimit:4;stroke-dasharray:none;stroke-opacity:1" />
    <path
       id="path3402"
       d="m 477.21547,641.03449 c -0.0253,0.0337 0,-0.0842 0,0 z"
       style="fill:none;fill-rule:evenodd;stroke:#000000;stroke-width:0.5;stroke-linecap:butt;stroke-linejoin:miter;stroke-miterlimit:4;stroke-dasharray:none;stroke-opacity:1" />
    <path
       id="path3404"
       d="m 479.86713,646.84287 c -0.61407,0.81876 -2.83328,2.00993 -3.78808,3.283 -0.55723,0.74297 -1.31188,2.439 -1.51523,2.77791"
       style="fill:none;fill-rule:evenodd;stroke:#000000;stroke-width:0.5;stroke-linecap:butt;stroke-linejoin:miter;stroke-miterlimit:4;stroke-dasharray:none;stroke-opacity:1" />
    <path
       id="path3406"
       d="m 479.74086,636.99388 c -0.2766,0.3688 -5.11443,2.11527 -6.43973,2.77792 -0.27918,0.1396 -0.0392,0.0784 -0.12627,0.25254"
       style="fill:none;fill-rule:evenodd;stroke:#000000;stroke-width:0.5;stroke-linecap:butt;stroke-linejoin:miter;stroke-miterlimit:4;stroke-dasharray:none;stroke-opacity:1" />
    <path
       id="path3408"
       d="m 483.27639,629.29147 c -0.54904,0.27452 -2.07256,1.9637 -2.77792,2.90419 -0.40854,0.54472 -0.89616,0.70062 -1.26269,0.88388"
       style="fill:none;fill-rule:evenodd;stroke:#000000;stroke-width:0.5;stroke-linecap:butt;stroke-linejoin:miter;stroke-miterlimit:4;stroke-dasharray:none;stroke-opacity:1" />
    <path
       id="path3410"
       d="m 479.10951,640.90822 c -0.46127,0.61503 -1.40236,1.39566 -2.14657,1.76777"
       style="fill:none;fill-rule:evenodd;stroke:#000000;stroke-width:0.5;stroke-linecap:butt;stroke-linejoin:miter;stroke-miterlimit:4;stroke-dasharray:none;stroke-opacity:1" />
    <path
       id="path3412"
       d="m 493.50418,622.2204 c -0.88063,1.17418 -2.46175,1.70709 -2.14657,3.283 0.15428,0.7714 0.21921,1.7748 0.12627,2.14657 -0.0722,0.28873 -0.58926,0.0842 -0.88388,0.12627"
       style="fill:none;fill-rule:evenodd;stroke:#000000;stroke-width:0.5;stroke-linecap:butt;stroke-linejoin:miter;stroke-miterlimit:4;stroke-dasharray:none;stroke-opacity:1" />
    <path
       id="path3414"
       d="m 480.87728,624.99832 c -0.13352,0.53407 -1.95681,2.16209 -2.77792,2.77792"
       style="fill:none;fill-rule:evenodd;stroke:#000000;stroke-width:0.5;stroke-linecap:butt;stroke-linejoin:miter;stroke-miterlimit:4;stroke-dasharray:none;stroke-opacity:1" />
    <path
       id="path3416"
       d="m 499.94391,612.87649 c -1.4374,1.07805 -4.61533,2.17259 -5.05077,3.91434"
       style="fill:none;fill-rule:evenodd;stroke:#000000;stroke-width:0.5;stroke-linecap:butt;stroke-linejoin:miter;stroke-miterlimit:4;stroke-dasharray:none;stroke-opacity:1" />
    <path
       id="path3418"
       d="m 497.54479,603.0275 c -1.40187,1.05141 -4.25128,2.98859 -6.18718,4.9245 -0.19562,0.19562 -0.25576,0.34102 -0.37881,0.50507"
       style="fill:none;fill-rule:evenodd;stroke:#000000;stroke-width:0.5;stroke-linecap:butt;stroke-linejoin:miter;stroke-miterlimit:4;stroke-dasharray:none;stroke-opacity:1" />
    <path
       id="path3420"
       d="m 490.9788,599.61824 c -1.77722,1.77722 -4.01242,4.64377 -6.06091,6.69226 -0.10575,0.10575 -0.40912,0.40912 -0.50508,0.50507"
       style="fill:none;fill-rule:evenodd;stroke:#000000;stroke-width:0.5;stroke-linecap:butt;stroke-linejoin:miter;stroke-miterlimit:4;stroke-dasharray:none;stroke-opacity:1" />
    <path
       id="path3422"
       d="m 484.91789,610.72992 c -0.9729,0.9729 -3.85759,2.32497 -5.3033,3.40926"
       style="fill:none;fill-rule:evenodd;stroke:#000000;stroke-width:0.5;stroke-linecap:butt;stroke-linejoin:miter;stroke-miterlimit:4;stroke-dasharray:none;stroke-opacity:1" />
    <path
       id="path3424"
       d="m 526.46041,601.63854 c -0.22637,0.22638 -0.78727,3.65418 -1.01015,4.54569"
       style="fill:none;fill-rule:evenodd;stroke:#000000;stroke-width:0.5;stroke-linecap:butt;stroke-linejoin:miter;stroke-miterlimit:4;stroke-dasharray:none;stroke-opacity:1" />
    <path
       id="path3426"
       d="m 521.66219,599.23943 c -0.0486,0.0486 0.0451,2.21874 -0.12627,2.90419"
       style="fill:none;fill-rule:evenodd;stroke:#000000;stroke-width:0.5;stroke-linecap:butt;stroke-linejoin:miter;stroke-miterlimit:4;stroke-dasharray:none;stroke-opacity:1" />
    <path
       id="path3428"
       d="m 519.38934,596.84032 c -1.90084,1.90084 -6.41761,2.80788 -8.33376,5.68211"
       style="fill:none;fill-rule:evenodd;stroke:#000000;stroke-width:0.5;stroke-linecap:butt;stroke-linejoin:miter;stroke-miterlimit:4;stroke-dasharray:none;stroke-opacity:1" />
    <path
       id="path3430"
       d="m 514.21231,676.76864 c -0.3869,0.3869 0.4209,1.01015 0.63135,1.51523 0.33551,0.80523 0.5952,7.40927 -1.26269,6.9448"
       style="fill:none;fill-rule:evenodd;stroke:#000000;stroke-width:0.5;stroke-linecap:butt;stroke-linejoin:miter;stroke-miterlimit:4;stroke-dasharray:none;stroke-opacity:1" />
    <path
       id="path3432"
       d="m 501.83794,701.76991 c 0.0134,0.0321 -0.60582,1.79196 -0.75761,2.39912 -0.40898,1.6359 -0.67166,3.07077 -1.89404,4.29314 -1.26402,1.26402 -1.93545,2.81934 -3.15672,4.04062 -0.81185,0.81184 -1.40043,1.62312 -2.27285,2.14657 -0.78591,0.47155 -1.83557,1.83557 -2.52538,2.52538 -0.82191,0.82192 -0.8055,1.94192 -1.6415,2.77792 -0.70671,0.70672 -0.39599,1.78495 -1.13642,2.52538 -0.64826,0.64826 -0.99798,1.8697 -1.38896,2.65165 -0.71523,1.43046 -1.45622,2.88294 -2.0203,4.29315 -0.17061,0.42651 -0.43074,1.09162 -0.50508,1.38896"
       style="fill:none;fill-rule:evenodd;stroke:#000000;stroke-width:0.5;stroke-linecap:butt;stroke-linejoin:miter;stroke-miterlimit:4;stroke-dasharray:none;stroke-opacity:1" />
    <path
       id="path3434"
       d="m 478.85697,719.06878 c -0.002,0.004 1.76184,-0.82982 3.53554,-1.89404 0.81036,-0.48622 1.90491,-0.32111 2.77792,-0.75761 0.64534,-0.32268 1.55637,-0.269 2.14657,-0.50508 0.59393,-0.23757 1.44852,-0.299 1.76777,-0.37881"
       style="fill:none;fill-rule:evenodd;stroke:#000000;stroke-width:0.5;stroke-linecap:butt;stroke-linejoin:miter;stroke-miterlimit:4;stroke-dasharray:none;stroke-opacity:1" />
    <path
       id="path3436"
       d="m 480.3722,726.89746 c 0.83248,-0.33299 2.44656,-1.23514 3.6618,-2.14658 0.54447,-0.40835 0.8487,-0.72242 1.13643,-1.01015"
       style="fill:none;fill-rule:evenodd;stroke:#000000;stroke-width:0.5;stroke-linecap:butt;stroke-linejoin:miter;stroke-miterlimit:4;stroke-dasharray:none;stroke-opacity:1" />
    <path
       id="path3438"
       d="m 479.48832,708.96725 c 1.19428,-0.89571 -2.58118,1.66206 -3.40927,2.90419 -0.8685,1.30275 -2.67863,2.79815 -3.6618,3.53553 -0.69768,0.52326 -1.77325,0.91957 -2.39911,1.38896 -0.53166,0.39874 -1.35307,0.46918 -1.38896,0.50508"
       style="fill:none;fill-rule:evenodd;stroke:#000000;stroke-width:0.5;stroke-linecap:butt;stroke-linejoin:miter;stroke-miterlimit:4;stroke-dasharray:none;stroke-opacity:1" />
    <path
       id="path3440"
       d="m 472.03844,726.64492 c -0.004,0.003 0.0924,-2.89484 0.25254,-3.53553 0.23098,-0.9239 0.42821,-1.71284 0.63135,-2.52538 0.28991,-1.15967 0.46828,-2.39216 1.13642,-3.283 0.58857,-0.78477 1.07918,-1.58426 1.6415,-2.14657 0.10795,-0.10796 0.21698,-0.32548 0.25253,-0.37881"
       style="fill:none;fill-rule:evenodd;stroke:#000000;stroke-width:0.5;stroke-linecap:butt;stroke-linejoin:miter;stroke-miterlimit:4;stroke-dasharray:none;stroke-opacity:1" />
    <path
       id="path3442"
       d="m 473.0486,733.33718 c 0.44331,-0.44331 -1.37937,1.03801 -2.52539,2.02031 -0.20462,0.17539 -0.42089,0.33671 -0.63134,0.50507 -0.39759,0.31808 -0.69955,0.49056 -1.26269,0.63135"
       style="fill:none;fill-rule:evenodd;stroke:#000000;stroke-width:0.5;stroke-linecap:butt;stroke-linejoin:miter;stroke-miterlimit:4;stroke-dasharray:none;stroke-opacity:1" />
    <path
       id="path3444"
       d="m 468.1241,725.5085 c -0.32866,0.26293 -0.71253,0.45999 -1.01015,0.75761"
       style="fill:none;fill-rule:evenodd;stroke:#000000;stroke-width:0.5;stroke-linecap:butt;stroke-linejoin:miter;stroke-miterlimit:4;stroke-dasharray:none;stroke-opacity:1" />
    <path
       id="path3446"
       d="m 466.98768,734.85241 c -0.16533,0.13226 -2.18338,-1.81193 -2.77792,-2.52538 -0.68582,-0.82299 -0.48786,-1.13212 -1.01015,-1.26269"
       style="fill:none;fill-rule:evenodd;stroke:#000000;stroke-width:0.5;stroke-linecap:butt;stroke-linejoin:miter;stroke-miterlimit:4;stroke-dasharray:none;stroke-opacity:1" />
    <path
       id="path3488"
       d="m 321.71282,938.23137 c -7,-6 -3.5,-2 -7,-6 -3.5,-4 -2,0.5 -5.5,-6.5 -3.5,-7 0.91178,-5.77834 2,-8 1.1748,-2.39841 3.88931,-4.8697 5.5,-7 1.23046,-1.62741 3.5082,-3.51994 4,-5.5 0.25567,-1.02938 0.2175,-2.71885 -0.5,-3.5 -1.35377,-1.47388 -4.58392,-0.9224 -6.5,-1.5 -1.22706,-0.3699 -2.73896,-1.27133 -4,-1.5 -2.50908,-0.45498 -5.96094,-0.23598 -8.5,0 -2.43134,0.22597 -5.56542,1.31203 -8,1.5 -4.78809,0.36967 -11.51824,0.22379 -16,-0.5 -12.18594,-1.96798 -24.48666,-10.54187 -36,-15.5 -7.02483,-3.02519 -16.38471,-7.161 -23,-11 -4.10263,-2.38085 -10.85521,-3.69334 -15,-6 -3.28721,-1.8294 -7.81684,-4.23395 -11.5,-5 -3.23086,-0.67198 -7.76274,0.64041 -11,0 -2.70529,-0.53517 -5.85767,-2.71064 -8.5,-3.5 -3.80529,-1.13678 -13,-2.5 -13,-2.5"
       style="fill:none;fill-rule:evenodd;stroke:#000000;stroke-width:0.5;stroke-linecap:butt;stroke-linejoin:miter;stroke-miterlimit:4;stroke-dasharray:none;stroke-opacity:1" />
    <path
       id="path3490"
       d="m 450.71282,793.23137 c -2.5,6 -5.41116,10.1788 -8.5,14 -2.33467,2.88822 -6.84125,5.47803 -9,8.5 -2.10707,2.94962 -3.92299,7.53878 -5,11 -1.26762,4.07378 -1.19619,9.93766 -2.5,14 -1.0662,3.32201 -2.59794,7.96966 -5,10.5 -2.81879,2.96933 -8.25806,4.83856 -12,6.5 -4.943,2.19472 -11.7992,4.51619 -17,6 -7.38468,2.10689 -17.56185,3.59042 -25,5.5 -5.14904,1.3219 -12.42877,2.28636 -17,5 -5.47236,3.24858 -9.67397,11.51669 -15,15 -3.1005,2.02778 -7.91737,3.55675 -11.5,4.5 -2.05141,0.54011 -4.95063,0.45219 -7,1 -3.1215,0.8344 -10,4 -10,4"
       style="fill:none;fill-rule:evenodd;stroke:#000000;stroke-width:0.5;stroke-linecap:butt;stroke-linejoin:miter;stroke-miterlimit:4;stroke-dasharray:none;stroke-opacity:1" />
    <path
       id="path3494"
       d="m 416.21282,759.23137 c -20,-4.5 -13.87789,-3.91493 -20,-4.5 -9.71037,-0.92799 -22.78685,0.10157 -32.5,1 -10.73125,0.9926 -24.94489,3.32408 -35.5,5.5 -13.50461,2.78396 -31.20209,7.85438 -44.5,11.5 -15.06225,4.12931 -34.7167,11.28393 -50,14.5 -13.32759,2.80453 -31.41584,5.01994 -45,6 -13.01703,0.93915 -43.5,0.5 -43.5,0.5"
       style="fill:none;fill-rule:evenodd;stroke:#000000;stroke-width:0.5;stroke-linecap:butt;stroke-linejoin:miter;stroke-miterlimit:4;stroke-dasharray:none;stroke-opacity:1" />
    <path
       id="path3496"
       d="m 346.71282,877.23137 c -6,-3 -4.16415,-2.17558 -6,-3 -2.21065,-0.99273 -5.64086,-1.44562 -7.5,-3 -1.08564,-0.90768 -1.34145,-3.18743 -2.5,-4 -1.75831,-1.23323 -5.32683,-0.15352 -7,-1.5 -1.41201,-1.13632 -1.58732,-3.93411 -2.5,-5.5 -1.02737,-1.76267 -2.29837,-4.37441 -4,-5.5 -1.66913,-1.10409 -4.59774,-0.87837 -6.5,-1.5 -1.08586,-0.35484 -2.42756,-1.10647 -3.5,-1.5 -1.91534,-0.70284 -4.7838,-0.89675 -6.5,-2 -1.51938,-0.97672 -2.69009,-3.25637 -4,-4.5 -0.69655,-0.6613 -2.5,-2 -2.5,-2 0,0 -4.74817,-1.36153 -6.5,-2.5 -1.2451,-0.80916 -2.36242,-2.54559 -3.5,-3.5 -1.4027,-1.17684 -3.7516,-2.1606 -5,-3.5 -1.19269,-1.27964 -2.48068,-3.32958 -3,-5 -0.71389,-2.29627 -1.71392,-3.5793 -2,-8.5 -0.209,-3.59495 2,-6.5 2,-6.5 0,0 -5.59536,0.48502 -8,0.5 -3.00369,0.0187 -7.25447,0.71844 -10,-0.5 -1.74506,-0.77444 -3.81601,-2.71754 -4.5,-4.5 -1.02246,-2.6645 0.51996,-6.64613 0.5,-9.5 -0.0158,-2.25494 -0.5,-7.5 -0.5,-7.5 0,0 -5.94669,0.42497 -8.5,0.5 -2.69883,0.0793 -6.32862,0.39208 -9,0 -1.54945,-0.22741 -5,-1.5 -5,-1.5 v -4"
       style="fill:none;fill-rule:evenodd;stroke:#000000;stroke-width:0.5;stroke-linecap:butt;stroke-linejoin:miter;stroke-miterlimit:4;stroke-dasharray:none;stroke-opacity:1" />
    <path
       id="path3500"
       d="m 311.71282,896.73137 c 0.92433,-1.66826 4.39114,-3.94557 6.5,-5 2.49529,-1.24764 3.48479,-1.48479 5,-3 1.61346,-1.61346 3.88222,-2.69111 5.5,-3.5 2.11202,-1.05601 3.14686,-2.07343 5,-3 2.14555,-1.07277 3.96874,-3.46874 5,-4.5 1.2761,-1.2761 2.156,-3.04134 2.5,-3.5"
       style="fill:none;fill-rule:evenodd;stroke:#000000;stroke-width:0.5;stroke-linecap:butt;stroke-linejoin:miter;stroke-miterlimit:4;stroke-dasharray:none;stroke-opacity:1" />
    <path
       id="path3502"
       d="m 300.71282,892.73137 c 0.45822,-0.45822 5.82867,-2.66433 7.5,-3.5 2.4183,-1.20915 3.55136,-2.77568 6,-4 2.31409,-1.15704 4.32104,-3.32104 5.5,-4.5 1.61532,-1.61532 3.65069,-2.15068 5.5,-4 1.91751,-1.91751 3.39947,-2.19973 6,-3.5 1.42921,-0.7146 2.15777,-1.15777 3,-2"
       style="fill:none;fill-rule:evenodd;stroke:#000000;stroke-width:0.5;stroke-linecap:butt;stroke-linejoin:miter;stroke-miterlimit:4;stroke-dasharray:none;stroke-opacity:1" />
    <path
       id="path3504"
       d="m 283.71282,890.23137 c 1.57084,-0.78542 6.92022,-2.96011 10,-4.5 3.0666,-1.5333 6.28036,-2.12015 9.5,-3.5 1.23506,-0.52931 2.29815,-1.39907 3.5,-2 3.31649,-1.65824 3.21259,-5.05315 7,-6 1.78663,-0.44666 4.9318,-3.19885 6,-4 2.23045,-1.67283 2.86268,-1.95073 3.5,-4.5"
       style="fill:none;fill-rule:evenodd;stroke:#000000;stroke-width:0.5;stroke-linecap:butt;stroke-linejoin:miter;stroke-miterlimit:4;stroke-dasharray:none;stroke-opacity:1" />
    <path
       id="path3506"
       d="m 276.21282,884.73137 c 1.27551,-0.95663 5.73893,-3.11946 7.5,-4 2.39588,-1.19794 2.78287,-1.82071 5.5,-2.5 2.2553,-0.56382 4.73573,-2.61786 6.5,-3.5 2.24015,-1.12007 4.95068,-2.47534 7,-3.5 2.44096,-1.22048 3.67173,-2.58586 5.5,-3.5 2.46296,-1.23148 3.38464,-2.41348 5.5,-4 2.17555,-1.63166 3.10566,-1.21132 4.5,-4"
       style="fill:none;fill-rule:evenodd;stroke:#000000;stroke-width:0.5;stroke-linecap:butt;stroke-linejoin:miter;stroke-miterlimit:4;stroke-dasharray:none;stroke-opacity:1" />
    <path
       id="path3508"
       d="m 259.21282,879.23137 c 0.6207,-0.46552 6.31647,-0.81647 9,-3.5 1.98606,-1.98605 4.97201,-2.479 7,-4 1.89637,-1.42227 4.36876,-1.77657 6,-3 2.4534,-1.84005 6.18102,-3.09051 9,-4.5 2.72126,-1.36063 4.35232,-2.67616 7,-4 2.54927,-1.27463 5.25406,-2.25406 7,-4 1.44936,-1.44936 3.51718,-1.51718 5,-3"
       style="fill:none;fill-rule:evenodd;stroke:#000000;stroke-width:0.5;stroke-linecap:butt;stroke-linejoin:miter;stroke-miterlimit:4;stroke-dasharray:none;stroke-opacity:1" />
    <path
       id="path3512"
       d="m 254.21282,875.73137 c 1.58968,-1.52978 6.41134,-4.45567 9.5,-6 2.67147,-1.33573 5.23415,-3.18354 8.5,-4 2.67328,-0.66832 4.59918,-2.29959 7,-3.5 1.96855,-0.98427 4.77989,-3.27989 6,-4.5 1.07271,-1.07271 5.4622,-2.61555 7,-3 1.76696,-0.44174 4.01593,-3.53186 4.5,-4.5 0.16667,-0.33333 0.33333,-0.66666 0.5,-1"
       style="fill:none;fill-rule:evenodd;stroke:#000000;stroke-width:0.5;stroke-linecap:butt;stroke-linejoin:miter;stroke-miterlimit:4;stroke-dasharray:none;stroke-opacity:1" />
    <path
       id="path3514"
       d="m 222.21282,868.73137 c 0.11833,-0.23665 5.98393,-2.24196 7.5,-3 1.85945,-0.92972 3.53857,-1.88464 6,-2.5 2.99636,-0.74909 4.43076,-1.07306 7,-3 1.86001,-1.39501 5.61002,-3.0275 7.5,-3.5 2.85058,-0.71264 4.45301,-2.9765 6.5,-4 3.14737,-1.57368 6.9203,-2.76812 10,-4 3.00984,-1.20393 5.4338,-1.38676 8.5,-2 2.12957,-0.42591 5.02038,-2.01019 7,-3 1.46965,-0.73482 2.9702,-1.4702 4,-2.5"
       style="fill:none;fill-rule:evenodd;stroke:#000000;stroke-width:0.5;stroke-linecap:butt;stroke-linejoin:miter;stroke-miterlimit:4;stroke-dasharray:none;stroke-opacity:1" />
    <path
       id="path3516"
       d="m 205.21282,862.73137 c 2.61984,-1.30992 8.02171,-4.01085 12,-6 3.43075,-1.71537 8.35228,-3.08807 12,-4 2.96652,-0.74163 6.62383,-3.59287 8.5,-5 2.56112,-1.92083 6.21532,-1.88613 9,-3 3.04746,-1.21898 7.27571,-2.81893 10,-3.5 5.36003,-1.34 4.00014,-1.70003 5.5,-2 4.20601,-0.8412 5.66197,-3.66549 9,-4.5 2.66049,-0.66512 3.59932,-2.52483 5.5,-3"
       style="fill:none;fill-rule:evenodd;stroke:#000000;stroke-width:0.5;stroke-linecap:butt;stroke-linejoin:miter;stroke-miterlimit:4;stroke-dasharray:none;stroke-opacity:1" />
    <path
       id="path3518"
       d="m 189.71282,852.73137 c 2.1615,-0.54037 5.77737,-1.63868 8.5,-3 2.91633,-1.45816 5.75465,-3.37732 9,-5 2.80286,-1.40143 5.90393,-1.95196 9,-3.5 2.35863,-1.17931 5.15705,-2.28926 8,-3 2.39581,-0.59895 5.73568,-2.86784 8,-4 2.72116,-1.36058 5.18653,-2.34326 7.5,-3.5 2.79515,-1.39757 5.66235,-2.58117 8.5,-4 2.39719,-1.19859 5.10434,-2.07826 7,-3.5 1.86516,-1.39887 4.48098,-2.99524 6.5,-3.5 1.21574,-0.30393 2.60527,-1.80263 4,-2.5"
       style="fill:none;fill-rule:evenodd;stroke:#000000;stroke-width:0.5;stroke-linecap:butt;stroke-linejoin:miter;stroke-miterlimit:4;stroke-dasharray:none;stroke-opacity:1" />
    <path
       id="path3520"
       d="m 158.21282,845.73137 c 3.89709,-0.97427 9.93412,-4.5 16,-4.5 1.11875,0 8.41365,-3.10341 10,-3.5 3.3092,-0.8273 5.48841,-2.39768 8.5,-3 3.88904,-0.7778 8.35613,-2.61871 12.5,-4 3.37292,-1.12431 7.95203,-1 11.5,-1 4.44713,0 7.66686,-0.0834 11.5,-2 2.14191,-1.07095 6.50088,-0.87522 9,-1.5 2.80607,-0.70152 6.02446,-2.76223 8.5,-4 2.27994,-1.13997 5.45578,-2.36394 8,-3 2.73389,-0.68347 4.70124,-1.42531 7,-2 1.67385,-0.41846 2.00974,-0.62743 3.5,-1"
       style="fill:none;fill-rule:evenodd;stroke:#000000;stroke-width:0.5;stroke-linecap:butt;stroke-linejoin:miter;stroke-miterlimit:4;stroke-dasharray:none;stroke-opacity:1" />
    <path
       id="path3522"
       d="m 148.21282,819.73137 c 0.90095,-0.22523 7.2564,-4.1282 10,-5.5 2.73586,-1.36793 5.69712,-1.59856 8.5,-3 5.67692,-2.83846 8.25879,-4.54313 14,-5.5 4.28083,-0.71347 7.84077,-3.56815 12.5,-4.5 11.61957,-2.32391 -3.56642,-1.14453 8,-5 2.87301,-0.95767 6.44384,-0.73596 9.5,-1.5 2.87379,-0.71845 5.95764,-0.5 9,-0.5 2.92799,0 5.46222,-0.5 8.5,-0.5 2.08438,0 4.29971,-0.44993 6.5,-1"
       style="fill:none;fill-rule:evenodd;stroke:#000000;stroke-width:0.5;stroke-linecap:butt;stroke-linejoin:miter;stroke-miterlimit:4;stroke-dasharray:none;stroke-opacity:1" />
    <path
       id="path3524"
       d="m 100.71282,800.23137 c 33.5,8 29.41834,1.60014 34.5,6 2.4767,2.1444 -4.74062,7.72462 -3,10.5 1.86055,2.96662 8,2.5 11.5,2 3.5,-0.5 9.17686,-3.31369 13,-5 2.45507,-1.08288 8,-4 8,-4"
       style="fill:none;fill-rule:evenodd;stroke:#000000;stroke-width:0.5;stroke-linecap:butt;stroke-linejoin:miter;stroke-miterlimit:4;stroke-dasharray:none;stroke-opacity:1" />
    <path
       id="path3526"
       d="m 134.75035,834.19384 c 3.08404,-2.02191 9.89836,-4.64031 14.6567,-7.31028 4.57301,-2.56597 11.76788,-3.55716 17.3709,-6.7011 4.98372,-2.79642 13.6295,-4.88664 18.99942,-6.0919 4.80874,-1.0793 9.29684,-2.43676 14.11386,-2.43676 4.22719,0 9.53025,-0.69391 13.57101,-1.82757 0.72379,-0.20306 1.44757,-0.40612 2.17136,-0.60919 3.03278,-0.85087 6.39985,-1.19274 9.2283,-1.82757 5.27976,-1.18502 10.40571,-6.42223 15.74237,-7.91948 4.37735,-1.22809 9.62586,-4.4874 12.48534,-6.0919 0.23834,-0.13373 0.84734,-0.47545 1.08568,-0.60919"
       style="fill:none;fill-rule:evenodd;stroke:#000000;stroke-width:0.57505935;stroke-linecap:butt;stroke-linejoin:miter;stroke-miterlimit:4;stroke-dasharray:none;stroke-opacity:1" />
  </g>
</svg>
