<?xml version="1.0" encoding="UTF-8"?>
<svg width="640" height="480" xmlns="http://www.w3.org/2000/svg">
 <!-- Created with SVG-edit - http://svg-edit.googlecode.com/ -->
 <title>koala</title>
 <g>
  <title>Layer 1</title>

  <path id="svg_31" d="m253.993591,284.369934c2.066681,-6.133362 -5.866608,-17.266724 -12.799896,-19.400055c-6.933319,-2.133362 -9.833252,-4.833435 -26.299927,1.599884c-8.233337,3.216675 -15.216644,5.68335 -21.012512,17.087524c-5.795807,11.404175 -17.904144,24.245819 -19.887482,18.212494c-4.93335,-3.333344 -15.866669,-16.166656 -11.299988,-6c0.799988,3.066681 6.599976,15.633331 -1.100006,9.699982c-3.200012,-1.733307 -15.899994,-10.966644 -11.600006,-7.699982c2.133331,3.199982 15.766663,14.899994 8.399994,12.100006c-3.600006,-0.533325 -16.199982,-1.066681 -11.799988,0.399963c4.266632,2 21.533325,4 13.799988,4c-2.533356,3.066711 -14.56665,12.633331 -5.600006,9.200012c5.466675,-1.599976 11.43335,-6.199951 15.900024,-5.299988c3.06665,-1.599976 3.633301,-3.700012 7.699982,-4.299988c4.066681,-0.600037 7.800018,-2.799988 13.200012,-1.400024c5.399963,1.400024 12.799957,11.300018 20.699921,14.200012c7.899994,2.899963 31.799988,2.799957 32.199982,-6.300018" stroke-linecap="null" stroke-linejoin="null" stroke-dasharray="null" stroke-width="5" stroke="#000000" fill="#bfbfbf"/>
  <path id="svg_30" d="m259.089874,159.154373c-9.66658,-1.933243 -18.933212,6.53334 -21.799942,8.200058c-2.866699,1.666718 -10.399963,21.533325 -18.999939,16.199997c-8.600037,-5.333328 -20,-16.666565 -29,-19.999908c-9,-3.333344 -23.400024,-5.333389 -24.200012,-10.400055c-0.799988,-5.066666 5.19989,-15.333267 1.199951,-5.200104l-8.399902,4.400101c1.999939,4.399902 -3.200195,-17.599945 -1.600098,-8.800049c0.800018,4.399994 3.599976,11.999969 -3.199921,10.000046c-4.533325,1.333328 -14.666626,-2.933228 -8.800079,-2.399902c4.399994,0.266663 11.600006,6.933243 8.400085,7.199905c-2.133331,3.333328 -11.06665,12.266617 -4.800018,7.600037c3.06665,-1.466675 11.333466,-6.133347 9.200012,-4.40004c0.400024,2.933334 -2.400024,17.866684 -1.199951,12.799957c1.600006,-1.46666 5.199738,-14.933472 7.199951,-8.399948c2.000214,6.533524 50.133331,61.333481 60,60.400009c9.866669,-0.933472 39.333267,-17.066711 47.200027,-35.199921" stroke-linecap="null" stroke-linejoin="null" stroke-dasharray="null" stroke-width="5" stroke="#000000" fill="#bfbfbf"/>
  <path id="svg_4" d="m126.5,429.5c-1.666672,-60.166687 19.666656,-127.333313 -2,-179.5c-10.833328,-26.083344 -30.666656,-92.166672 -5.999992,-88.25c24.666664,3.916672 2.833336,-61.166672 1.999992,-91.25l63,-3c-16.833344,84.833344 26.333328,100.666656 12.5,179.5c-13.833328,78.833344 14.333344,119.666687 12.5,179.5l-82,3z" stroke-linecap="null" stroke-linejoin="null" stroke-dasharray="null" stroke-width="5" stroke="#000000" fill="#7f3f00"/>
  <path id="svg_19" d="m135.634766,427c-1.184296,-59.169464 13.974625,-125.222809 -1.421158,-176.524872c-7.697899,-25.651001 -28.290985,-83.599503 -10.763451,-79.747726c17.527534,3.851761 21.513313,-61.158501 7.92115,-96.777107l44.766251,-2.950272c-11.961349,83.427254 18.711823,98.998131 8.882187,176.524849c-9.82962,77.526733 10.184921,117.683228 8.882202,176.524841l-58.267181,2.950287z" stroke-linecap="null" stroke-linejoin="null" stroke-dasharray="null" stroke-width="0" stroke="#000000" fill="#7a4a1d"/>
  <path id="svg_20" d="m201.899994,252.300003c0,-23.204422 5.412766,-57.404282 15.869125,-71.003204c10.45636,-13.598923 13.456314,-6.596893 30.030899,-6.596893c16.574585,0 37.774506,-33.502045 45.530853,-18.903122c7.756348,14.598923 14.569122,74.798798 14.569122,98.00322c0,46.408829 -25.35083,82.499985 -58.5,82.499985c-16.574585,0 -31.574585,-9.397797 -42.430939,-24.59668c-10.856354,-15.198883 -5.069061,-36.198883 -5.069061,-59.403305z" stroke-linecap="null" stroke-linejoin="null" stroke-dasharray="null" stroke-width="2" stroke="#000000" fill="#7f7f7f"/>
  <path id="svg_17" d="m198.380249,141.124908c2.166,-2.083008 -2.197006,10.698013 9.660004,23.21701c11.858002,12.519012 17.078003,26.101013 38.41098,25.618011c21.333038,-0.483017 26.328033,-13.933014 37.750031,-27.056c11.421997,-13.123016 8.617004,-25.984009 10.75,-21.349014c2.134003,4.634995 7.066986,-5.774002 6.25,-0.998993c-0.816986,4.774979 5.617004,1.326996 4.75,-2.824997c-0.867004,-4.152008 3.132996,-4.239014 5.200012,-1.332001c2.066986,2.905975 4.950989,0.003998 4.324982,-3.296021c-0.626007,-3.298981 6.242004,2.040024 5.274994,-0.35498c-0.96698,-2.394012 15.367004,-26.691002 -6.799988,-35.575005c-22.166992,-8.884003 -11.5,14.677994 -27,8.690994c-15.5,-5.987 -64.500015,-4.442001 -78.000015,1.158997c-13.5,5.600998 4.5,-17.241989 -21.332993,-11.587997c-25.834015,5.654999 -11.459015,35.695 -9.667007,34.764015c1.792007,-0.931 4.371994,1.605972 3.302002,4.248993c-1.069,2.643005 2.354004,4.895004 2.688995,3.397003c0.335007,-1.498001 3.867004,0.534988 4.300003,2.408981c0.434006,1.874023 5.197006,-3.529984 5.994995,-0.204987c0.796997,3.32399 -0.190994,5.242004 4.143005,1.075989z" stroke-linecap="null" stroke-linejoin="null" stroke-dasharray="null" stroke-width="2" stroke="#000000" fill="#7f7f7f"/>
  <ellipse ry="5.5" rx="5.25" id="svg_10" cy="137.75" cx="225.75" stroke-linecap="null" stroke-linejoin="null" stroke-dasharray="null" stroke-width="2" stroke="#b2b2b2" fill="#000000"/>
  <ellipse id="svg_11" ry="5.5" rx="5.25" cy="138.75" cx="272.5" stroke-linecap="null" stroke-linejoin="null" stroke-dasharray="null" stroke-width="2" stroke="#b2b2b2" fill="#000000"/>
  <path id="svg_5" d="m236.25,152.75c0,-10.497238 8.370178,-17 12,-17.25c3.629822,-0.25 12,6.752762 12,17.25c0,10.497238 0.629822,15.25 -12.25,15.25c-12.879822,0 -11.75,-4.752762 -11.75,-15.25z" stroke-linecap="null" stroke-linejoin="null" stroke-dasharray="null" stroke-width="5" stroke="#000000" fill="#000000"/>
  <ellipse transform="rotate(90 242.875 165.75)" ry="3" rx="1.625" id="svg_8" cy="165.75" cx="242.875" stroke-linecap="null" stroke-linejoin="null" stroke-dasharray="null" stroke="#000000" fill="#3f3f3f"/>
  <ellipse id="svg_9" transform="rotate(90 252.75 165.25)" ry="3" rx="1.625" cy="165.25" cx="252.75" stroke-linecap="null" stroke-linejoin="null" stroke-dasharray="null" stroke="#000000" fill="#3f3f3f"/>
  <path id="svg_23" d="m203.000107,255.399994c0,-19.944748 2.07312,-37.594757 6.334717,-52.258545c4.261597,-14.663788 7.611588,-22.441422 13.965179,-22.441422c12.707184,0 0.600266,34.710464 0.600266,74.59996c0,9.972382 39.206665,14.321106 1.755646,37.48465c-37.451019,23.163544 8.940247,20.141998 16.309402,25.373932c14.738327,10.463837 11.659592,7.076538 19.555893,4.874023c7.896301,-2.202515 15.463989,-3.443054 18.583954,-6.35437c6.239929,-5.822601 14.188995,-15.328217 17.894806,-19.578217c3.705811,-4.25 1.546021,3.014404 -4.419769,11.20163c-5.96579,8.187195 -14.23764,18.29718 -19.75592,21.738373c-11.036591,6.882355 -36.059174,6.089386 -39.59137,4.388214c-3.532196,-1.701172 -24.667267,-19.937744 -27.998047,-26.469666c-6.661575,-13.063812 -3.234756,-32.613831 -3.234756,-52.558563z" stroke-linecap="null" stroke-linejoin="null" stroke-dasharray="null" stroke-width="0" stroke="#000000" fill="#bfbfbf"/>
  <path id="svg_32" d="m203.370499,254.493652c0,-23.204437 5.41275,-57.404282 15.86911,-71.00322c10.45636,-13.598907 19.456238,-4.19693 36.030823,-4.19693c16.5746,0 29.374588,-35.902008 37.130997,-21.30307c7.756287,14.598907 16.969055,74.798798 16.969055,98.00322c0,46.408844 -25.3508,82.5 -58.499985,82.5c-16.574585,0 -31.574585,-9.397797 -42.430969,-24.59668c-10.856354,-15.198883 -5.069031,-36.198914 -5.069031,-59.40332z" stroke-linecap="null" stroke-linejoin="null" stroke-dasharray="null" stroke-width="5" stroke="#000000" fill="none"/>
  <path id="svg_26" d="m250.399872,197.999908c-9.666611,-1.933243 -18.933228,6.53334 -21.799942,8.200058c-2.866714,1.666718 -10.399963,21.533325 -18.999969,16.199997c-8.600006,-5.333328 -19.999969,-16.666565 -28.999969,-19.999908c-9,-3.333344 -23.400024,-5.333389 -24.200027,-10.400055c-0.800003,-5.066666 5.19989,-15.333267 1.199951,-5.200104l-8.399918,4.400101c1.999969,4.399902 -3.200195,-17.59996 -1.600082,-8.800049c0.800003,4.399994 3.599976,11.999969 -3.199921,10.000046c-4.533325,1.333328 -14.666626,-2.933228 -8.800064,-2.399902c4.399994,0.266663 11.599991,6.933243 8.40007,7.199905c-2.133331,3.333328 -11.066666,12.266617 -4.800018,7.600037c3.066666,-1.466675 11.33345,-6.133347 9.200012,-4.40004c0.400009,2.933334 -2.400009,17.866684 -1.199951,12.799957c1.599991,-1.46666 5.199738,-14.933472 7.199951,-8.399948c2.000214,6.533524 50.133331,61.333481 60,60.400009c9.866669,-0.933472 39.333267,-17.066711 47.200043,-35.199921" stroke-linecap="null" stroke-linejoin="null" stroke-dasharray="null" stroke-width="5" stroke="#000000" fill="#7f7f7f"/>
  <path id="svg_28" d="m270.599823,282.800171c2.066681,-6.133362 -5.866608,-17.266724 -12.799896,-19.400085c-6.933319,-2.133362 -9.833267,-4.833405 -26.299927,1.599915c-8.233337,3.216675 -15.21666,5.683319 -21.012497,17.087494c-5.795837,11.404175 -17.90416,24.245819 -19.887497,18.212494c-4.933334,-3.333344 -15.866669,-16.166656 -11.300003,-6c0.800003,3.066681 6.599991,15.633331 -1.100006,9.700012c-3.199997,-1.733337 -15.899994,-10.966675 -11.599991,-7.700012c2.133331,3.200012 15.766663,14.899994 8.399994,12.100006c-3.600006,-0.533325 -16.199997,-1.066681 -11.800003,0.399994c4.266663,2 21.53334,4 13.800003,4c-2.53334,3.066681 -14.566666,12.633331 -5.600006,9.200012c5.466675,-1.600006 11.433334,-6.199982 15.900009,-5.299988c3.066666,-1.600006 3.633331,-3.700012 7.699997,-4.300018c4.566666,-0.133331 12.633331,-4.766663 13.699997,0.100006" stroke-linecap="null" stroke-linejoin="null" stroke-dasharray="null" stroke-width="5" stroke="#000000" fill="#7f7f7f"/>
  <path id="svg_12" d="m175.5,122.150002c4.416672,-0.166656 8.833328,-0.083344 12.75,2.25c3.916672,2.333344 12.583328,2.833328 16.75,7.499992c4.166672,4.666672 3.166672,6.75 5.25,12.25c2.083328,5.5 4.833328,8.75 6.5,13.75c1.666672,5 6.833328,7.75 11.25,9.5c4.416672,1.75 6.5,2.75 10,3.5c5.333328,-0.083328 11.666656,0.833328 17,0.75c3.166656,-0.916672 6.333344,-2.333328 9.5,-3.25c3.166656,-0.916672 6.25,-4.166672 9.5,-8.75c3.25,-4.583328 3.5,-6.166672 5.5,-9c1.333344,-4 1.916656,-6.25 4.5,-11.5c2.583344,-5.25 1.666656,-5.666672 5,-9c3.333344,-3.333321 6.416656,-5.916664 13,-4.999992c6.583344,0.916672 13.166656,-1.083344 19.75,-4.25l-1,10.749992l-4.25,2l-2.25,3.25l-6,-2l-2.5,5.75l-5.25,-0.75l-5.5,2l-6.5,16.75l-7.75,8.75l-8.75,11.25l-10.75,7.75l-12.25,3.5l-9.75,-0.75l-7.5,-2l-7.5,-4.25l-6.5,-7.25l-5.75,-5.5l-5.5,-7.5l-4.25,-7.25l-1.75,-7l-1.5,-5.25l-2.75,-1l-2.5,-3.25l-3,0l-2,0.5l-2.25,-1.75l-3.25,-0.25l-2.25,-3.25l-0.25,-4l-5.25,-1.5l0,-6.499992z" stroke-linecap="null" stroke-linejoin="null" stroke-dasharray="null" stroke-width="0" stroke="#cccccc" fill="#bfbfbf"/>
  <path id="svg_2" d="m199.97905,140.885025c2.165924,-2.083008 -2.197052,10.697998 9.659958,23.216949c11.858032,12.519043 17.078033,26.101044 38.41095,25.618011c21.332977,-0.482971 26.327972,-13.932983 37.749969,-27.055939c11.421997,-13.123032 8.617004,-25.984039 10.75,-21.34906c2.133972,4.63504 7.067017,-5.773972 6.25,-0.998993c-0.817017,4.774994 5.617004,1.327026 4.75,-2.824966c-0.867004,-4.152054 3.132996,-4.239014 5.200012,-1.332001c2.066956,2.90596 4.950989,0.004013 4.324951,-3.296021c-0.625977,-3.298965 6.242035,2.039993 5.275055,-0.354996c-0.96701,-2.393982 15.367004,-26.690994 -6.800018,-35.574997c-22.166992,-8.884033 -11.5,14.677979 -27,8.690964c-15.5,-5.986969 -64.499908,-4.442017 -77.999969,1.158997c-13.499924,5.600998 4.500061,-17.241959 -21.332932,-11.587967c-25.833984,5.654984 -11.458984,35.695007 -9.667053,34.763992c1.792053,-0.931 4.372009,1.606003 3.302002,4.249023c-1.06897,2.642975 2.354065,4.895004 2.689026,3.396973c0.335022,-1.498016 3.867004,0.535034 4.300018,2.409012c0.43399,1.874023 5.197021,-3.530014 5.995026,-0.204987c0.796967,3.323959 -0.19104,5.241989 4.143005,1.076004z" stroke-linecap="null" stroke-linejoin="null" stroke-dasharray="null" stroke-width="5" stroke="#000000" fill="none"/>
  <path stroke-width="4" id="svg_7" d="m228.699997,165.350006c13,6.25 25.750015,5.5 38.250015,0.75" stroke-linecap="null" stroke-linejoin="null" stroke-dasharray="null" stroke="#000000" fill="none"/>
 </g>
</svg>