<?xml version="1.0" encoding="UTF-8"?>
<!-- Generator: Adobe Illustrator 12.0.1, SVG Export Plug-In . SVG Version: 6.00 Build 51448)  -->
<!DOCTYPE svg PUBLIC "-//W3C//DTD SVG 1.1//EN" "http://www.w3.org/Graphics/SVG/1.1/DTD/svg11.dtd" [
	<!ENTITY ns_svg "http://www.w3.org/2000/svg">
	<!ENTITY ns_xlink "http://www.w3.org/1999/xlink">
]>
<svg version="1.1" id="Layer_1" xmlns="http://www.w3.org/2000/svg" xmlns:xlink="http://www.w3.org/1999/xlink" width="456.025" height="201.012" viewBox="0 0 456.025 201.012" overflow="visible" enable-background="new 0 0 456.025 201.012" xml:space="preserve">
<g>
	<path fill-rule="evenodd" clip-rule="evenodd" d="M278.262,12.467c0.284,1.96,2.33,2.157,2.447,4.283   c-2.804,1.787-6.862,5.233-10.401,4.283c-0.538-1.966,2.017-0.838,1.836-2.447C267.596,11.833,284.756,2.083,278.262,12.467z"/>
	<path fill-rule="evenodd" clip-rule="evenodd" d="M263.578,14.915c-3.479,1.677-6.312-1.035-9.79-2.448   C254.563,7.985,265.157,9.504,263.578,14.915z"/>
	<path fill-rule="evenodd" clip-rule="evenodd" d="M248.892,11.855c4.187,0.589,2.57,4.145,1.837,7.342   c-1.912-0.071-2.661,1.34-4.896,0.611C245.091,15.396,247.269,13.903,248.892,11.855z"/>
	<path fill-rule="evenodd" clip-rule="evenodd" d="M291.112,12.467c1.727,0.813,0.079,3.676,2.447,4.895   c0.219,3.622-6.96,5.204-9.178,2.447C285.792,16.531,289.958,16.004,291.112,12.467z"/>
	<path fill-rule="evenodd" clip-rule="evenodd" d="M234.819,19.809c0,1.836,0,3.672,0,5.508c-3.256,2.95-8.521,1.65-12.237,3.059   c-0.57-3.426-0.491-3.888-2.447-6.119C225.735,17.591,229.232,15.752,234.819,19.809z"/>
	<path fill-rule="evenodd" clip-rule="evenodd" d="M262.965,18.586c-0.25,4.342-8.243,5.72-11.625,3.06   C251.698,17.196,259.423,16.086,262.965,18.586z"/>
	<path fill-rule="evenodd" clip-rule="evenodd" d="M294.17,18.586c4.816-0.532,6.722,1.845,6.119,6.731   c-1.936,0.84-2.045,0.133-4.283,0c-1.419,1.274,0.686,2.58-1.224,3.671c-3.909-0.17-6.159-1.999-8.565-3.671   c1.729-3.089,6.295-4.269,8.565-1.224C296.333,22.896,293.407,21.022,294.17,18.586z"/>
	<path fill-rule="evenodd" clip-rule="evenodd" d="M313.139,22.869c0.161,6.069,0.01,11.169,6.118,13.461   c-1.488,1.571-2.495,3.624-5.506,3.671c-0.086-4.177-7.966-2.636-7.344-9.178c1.016-1.024,3.594-0.487,5.508-0.611   c-1.548-3.318-7.145-1.46-9.179,0C300.587,24.492,308.8,24.112,313.139,22.869z"/>
	<path fill-rule="evenodd" clip-rule="evenodd" d="M243.385,24.093c2.272,1.195,5.058,1.878,6.731,3.671   c1.016,1.615-1.03,4.397-3.06,4.895C243.569,32.068,243.073,28.485,243.385,24.093z"/>
	<path fill-rule="evenodd" clip-rule="evenodd" d="M278.875,33.883c1.499,1.561,3.468,2.651,3.06,6.118   c-4.465,2.047-10.302-1.201-8.566-5.506c1.821-1.061,3.104,0.198,4.282-0.612c-1.004-2.054-4.932-1.186-6.118-3.06   C272.009,19.996,284.932,27.687,278.875,33.883z"/>
	<path fill-rule="evenodd" clip-rule="evenodd" d="M266.637,27.152c0.433,2.269-1.046,2.626-0.612,4.895   c-2.065-0.382-2.724-2.172-4.895-2.448c-1.617,1.646-2.032,4.494-4.896,4.895c-2.725-1.933-2.158-3.895-1.224-7.342   c1.863,0.176,4.177-0.098,4.283,1.835c1.132-0.092,0.375-2.072,1.224-2.447C263.615,26.004,264.142,26.173,266.637,27.152z"/>
	<path fill-rule="evenodd" clip-rule="evenodd" d="M316.198,25.928c3.019-0.366,3.713,1.59,6.731,1.224   c1.487,2.129,2.442,4.884,0.612,7.342c-2.942-0.322-4.77-1.758-7.344-2.447C315.973,28.551,315.464,28.466,316.198,25.928z"/>
	<path fill-rule="evenodd" clip-rule="evenodd" d="M283.769,27.152c2.111,0.744,3.689,2.021,4.896,3.671   c-0.273,2.787-1.573,4.546-2.447,6.73C280.946,36.977,280.411,30.133,283.769,27.152z"/>
	<path fill-rule="evenodd" clip-rule="evenodd" d="M213.405,37.554c-3.558-1.337-4.967-4.823-9.79-4.895   C205.692,22.95,221.236,31.105,213.405,37.554z"/>
	<path fill-rule="evenodd" clip-rule="evenodd" d="M156.5,35.718C143.454,34.47,161.84,21.371,156.5,35.718L156.5,35.718z"/>
	<path fill-rule="evenodd" clip-rule="evenodd" d="M143.651,29.6c3.715,0.365,4.776,3.383,5.507,6.73   c-3.59,3.461-7.231-1.076-7.343-4.895C142.697,31.092,143.308,30.481,143.651,29.6z"/>
	<path fill-rule="evenodd" clip-rule="evenodd" d="M232.984,36.942c-0.544,0.271-1.094,0.537-1.224,1.223   c-2.568-0.287-4.913-0.798-5.507-3.06c-1.076,0.148-1.395,1.053-1.224,2.448c1.912,1.148,4.87,1.25,4.895,4.284   c-1.495,0.544-2.652,1.426-4.895,1.223c-1.151-1.418-2.529-2.605-1.223-4.895c-1.763-0.073-4.006,0.334-4.895-0.612   C217.887,29.48,232.705,29.916,232.984,36.942z"/>
	<path fill-rule="evenodd" clip-rule="evenodd" d="M342.508,41.837c-1.926,1.479-3.671-1.312-6.118-1.224   C331.792,26.443,350.072,33.558,342.508,41.837z"/>
	<path fill-rule="evenodd" clip-rule="evenodd" d="M266.025,32.659c2.531,5.069-3.702,7.993-7.343,5.507   C258.261,33.46,262.255,33.172,266.025,32.659z"/>
	<path fill-rule="evenodd" clip-rule="evenodd" d="M329.66,32.659c2.511,4.148,2.694,8.899-0.612,12.237   c-3.429-0.854-5.517-3.049-7.954-4.895C324.292,37.896,325.841,34.144,329.66,32.659z"/>
	<path fill-rule="evenodd" clip-rule="evenodd" d="M135.697,33.271c3.902,1.809,7.738,3.683,7.342,9.79   C137.88,41.729,135.899,38.157,135.697,33.271z"/>
	<path fill-rule="evenodd" clip-rule="evenodd" d="M198.108,33.883c7.989,0.876,15.434,9.957,8.566,17.132   c-0.936-3.993,2.022-4.876-1.224-7.955C202.806,40.554,192.49,42.018,198.108,33.883z"/>
	<path fill-rule="evenodd" clip-rule="evenodd" d="M173.021,35.106c0.612,0,1.223,0,1.835,0c0.809,6.175,3.076,12.898,3.671,18.356   C168.764,55.105,170.568,42.333,173.021,35.106z"/>
	<path fill-rule="evenodd" clip-rule="evenodd" d="M301.514,35.106c5.521-0.422,7.919,2.279,8.565,6.731   c-2.166,1.757-5.468,1.965-7.954,0.611C300.953,40.97,301.739,37.532,301.514,35.106z"/>
	<path fill-rule="evenodd" clip-rule="evenodd" d="M136.309,44.896c-0.988-0.172-1.054,0.579-1.835,0.612   c-2.719-1.98-5.726-6.909-6.119-9.178C132.345,35.514,136.691,39.33,136.309,44.896z"/>
	<path fill-rule="evenodd" clip-rule="evenodd" d="M125.295,47.956c-2.965-1.567-7.052-3.511-6.119-7.342   C120.932,33.402,130.635,40.945,125.295,47.956z"/>
	<path fill-rule="evenodd" clip-rule="evenodd" d="M153.441,46.732c-1.14,0.084-2.045,0.403-2.447,1.224   c-2.666-1.618-5.563-3.002-5.507-7.342C150.153,36.66,155.206,41.381,153.441,46.732z"/>
	<path fill-rule="evenodd" clip-rule="evenodd" d="M217.688,38.778c0,2.856-1.428,4.283-4.283,4.283   C213.404,40.205,214.831,38.777,217.688,38.778z"/>
	<path fill-rule="evenodd" clip-rule="evenodd" d="M97.761,42.449c0.413,2.259,1.392,4.317,0.612,6.119   c-2.031-1.143-10.155-1.182-11.625-4.895C87.918,38.091,93.996,41.017,97.761,42.449z"/>
	<path fill-rule="evenodd" clip-rule="evenodd" d="M255.624,45.508c-0.545,0.271-1.095,0.537-1.224,1.224   c-3.923,1.033-5.735-4.372-3.06-6.119C254.11,40.903,255.704,42.368,255.624,45.508z"/>
	<path fill-rule="evenodd" clip-rule="evenodd" d="M248.892,46.12c-2.646,2.774-6.551-0.837-8.566-2.447   C241.294,38.846,249.371,42.053,248.892,46.12z"/>
	<path fill-rule="evenodd" clip-rule="evenodd" d="M167.514,43.061c0.116,6.717,2.166,10.055-2.447,12.85   c-1.719-0.729-3.518-1.377-5.506-1.835C156.035,49.257,158.002,37.536,167.514,43.061z"/>
	<path fill-rule="evenodd" clip-rule="evenodd" d="M239.103,42.449c-0.06,3.562-3.001,6.984-6.119,5.507   C232.093,45.736,235.336,40.012,239.103,42.449z"/>
	<path fill-rule="evenodd" clip-rule="evenodd" d="M319.257,46.732c0.789-0.843,2.658-0.606,4.284-0.612   c2.595,2.35,1.963,7.229-2.448,7.342c-1.443-1.208-0.849-4.454-1.836-6.118c-1.416,3.571-4.79,1.387-8.565,2.447   C309.797,43.82,319.074,37.694,319.257,46.732z"/>
	<path fill-rule="evenodd" clip-rule="evenodd" d="M106.327,42.449c1.003,1.481,1.559,2.972,0.612,4.896   C101.971,48.942,100.949,41.101,106.327,42.449z"/>
	<path fill-rule="evenodd" clip-rule="evenodd" d="M195.66,43.061c1.835,1.414-1.007,6.025,0.611,9.79   C191.081,51.944,192.385,44.937,195.66,43.061z"/>
	<path fill-rule="evenodd" clip-rule="evenodd" d="M258.071,43.061c2.458,0.194,4.875,0.427,6.118,1.835c0,0.408,0,0.816,0,1.224   c-0.029,2.498-5.232,2.123-6.118,1.835C257.171,47.066,257.171,43.951,258.071,43.061z"/>
	<path fill-rule="evenodd" clip-rule="evenodd" fill="#FCF3B9" d="M47.588,43.673c-0.659,1.789-1.691,3.204-4.283,3.059   C42.126,45.107,44.678,43.124,47.588,43.673z"/>
	<path fill-rule="evenodd" clip-rule="evenodd" d="M287.44,51.015c-0.743,3.743-5.548,3.426-8.565,4.895   c-0.95-4.557-4.881-6.134-5.507-11.014c2.863-0.251,6.679,1.972,7.954-1.223C285.694,43.787,285.241,48.728,287.44,51.015z"/>
	<path fill-rule="evenodd" clip-rule="evenodd" d="M83.076,48.567c-0.779,2.206-7.031,1.485-7.955,0   C75.385,42.142,81.761,44.872,83.076,48.567z"/>
	<path fill-rule="evenodd" clip-rule="evenodd" d="M116.729,54.075c-13.033-0.969,0.225-16.775,1.836-5.507   C118.97,51.405,117.632,51.466,116.729,54.075z"/>
	<path fill-rule="evenodd" clip-rule="evenodd" d="M223.806,45.508c-0.23,3.033-0.799,5.728-1.835,7.954   C209.854,59.382,212.872,38.942,223.806,45.508z"/>
	<path fill-rule="evenodd" clip-rule="evenodd" d="M305.796,44.896c0.138,2.514,2.7,2.603,2.447,5.507   c-3.565,1.286-7.075,0.052-9.789-1.224C296.836,43.912,301.177,44.312,305.796,44.896z"/>
	<path fill-rule="evenodd" clip-rule="evenodd" d="M180.363,44.896c3.173,0.498,3.917,3.426,7.342,3.671   c1.959,4.731,1.424,10.799-3.671,11.625C179.46,56.287,181.25,49.347,180.363,44.896z"/>
	<path fill-rule="evenodd" clip-rule="evenodd" d="M201.779,44.896c2.278,1.226,1.396,1.831,1.836,4.895   C200.641,49.961,200.197,45.872,201.779,44.896z"/>
	<path fill-rule="evenodd" clip-rule="evenodd" d="M268.472,46.732c0.988-0.172,1.054,0.578,1.836,0.612   c1.421,3.06,0.191,8.195-2.447,9.178C264.015,55.094,266.711,48.214,268.472,46.732z"/>
	<path fill-rule="evenodd" clip-rule="evenodd" d="M59.825,52.851c-4.339-0.668-5.545,1.798-8.566,2.447   C49.878,49.169,63.784,43.605,59.825,52.851z"/>
	<path fill-rule="evenodd" clip-rule="evenodd" d="M333.331,48.567c1.18,2.945-0.971,7.523-3.671,7.343   C324.423,55.56,326.275,45.405,333.331,48.567z"/>
	<path fill-rule="evenodd" clip-rule="evenodd" d="M335.166,47.956c3.725-0.256,5.962,0.974,6.731,3.671   c-1.392,1.261-2.344,2.959-5.507,2.448C334.954,53.062,335.065,50.505,335.166,47.956z"/>
	<path fill-rule="evenodd" clip-rule="evenodd" d="M130.802,57.746c-5.472,5.301-8.602-7.038-4.896-9.178   C129.915,49.251,130.452,53.405,130.802,57.746z"/>
	<path fill-rule="evenodd" clip-rule="evenodd" d="M150.994,49.791c-1.333,2.747-3.396,4.763-7.343,4.895   c-1.319-1.333-2.464-2.838-3.059-4.895C143.959,49.992,146.725,49.015,150.994,49.791z"/>
	<path fill-rule="evenodd" clip-rule="evenodd" d="M95.313,54.075c-0.942,0.689-1.505,1.757-2.448,2.447   c-3.95-0.129-4.975-3.183-8.566-3.671c0-0.816,0-1.631,0-2.447C88.447,48.846,94.613,50.184,95.313,54.075z"/>
	<path fill-rule="evenodd" clip-rule="evenodd" d="M230.537,58.97c-0.493-0.491-3.146-0.404-4.283-1.835   c0.355-1.987-0.417-2.847-0.612-4.284c1.887-0.153,1.876-2.203,3.06-3.06c4.364,2.692-1.099,11.067,7.342,7.955   c0.798,4.266-3.789,3.146-6.119,4.283C229.091,61.249,228.979,59.031,230.537,58.97z"/>
	<path fill-rule="evenodd" clip-rule="evenodd" d="M291.112,49.791c3.934,1.369,8.596,2.01,10.402,5.507   c-3.357,1.13-6.141,2.834-7.955,5.507c-2.028-0.215-2.654-1.833-3.671-3.06C290.984,54.917,290.862,52.131,291.112,49.791z"/>
	<path fill-rule="evenodd" clip-rule="evenodd" d="M101.432,50.403c1.306,0.734,3.333,0.746,3.672,2.447   c-0.054,2.598-1.445,3.858-4.283,3.671C99.334,54.355,99.851,52.229,101.432,50.403z"/>
	<path fill-rule="evenodd" clip-rule="evenodd" d="M139.368,57.746c-1.36,0.476-2.386,1.285-4.283,1.224   C128.628,52.07,141.155,45.854,139.368,57.746z"/>
	<path fill-rule="evenodd" clip-rule="evenodd" d="M232.984,50.403c3.076,0.187,3.59,2.937,5.507,4.283   c-1.357,3.687-4.973,0.036-6.73-1.224C231.666,51.94,232.722,51.568,232.984,50.403z"/>
	<path fill-rule="evenodd" clip-rule="evenodd" d="M319.87,56.522c-1.031,1.008-2.75,1.329-3.672,2.448   c-1.511-1.753-4.417-2.11-5.506-4.284C311.711,49.809,321.695,48.489,319.87,56.522z"/>
	<path fill-rule="evenodd" clip-rule="evenodd" d="M84.912,55.91c-4.339,2.023-8.809-4.119-11.625-0.612   c-1.71,1.701,1.393,1.713,2.447,2.448c-2.91,2.8-11.545-0.124-12.237,4.895c0.449,0.571,1.113,0.927,1.835,1.223   c2.275-2.662,7.988-2.884,9.79-1.223c3.733-0.904,6.664-5.767,11.014-2.448c-5.531,7.919-19.246,5.043-26.922,5.507   c-0.852-1.8-2.988-2.315-3.06-4.895c0.821-0.403,1.14-1.308,1.224-2.448C66.715,55.671,75.649,48.961,84.912,55.91z"/>
	<path fill-rule="evenodd" clip-rule="evenodd" d="M246.445,52.239c2.196,3.006,2.905,8.294,3.06,11.625   c-2.837-1.242-5.574-2.583-7.342-4.894C243.045,56.181,245.581,55.045,246.445,52.239z"/>
	<path fill-rule="evenodd" clip-rule="evenodd" d="M37.186,52.851c0.803,0.216,0.962,1.078,1.835,1.224   c0.099,4.487-2.658,8.332-6.73,6.73C34.32,58.551,36.452,56.4,37.186,52.851z"/>
	<path fill-rule="evenodd" clip-rule="evenodd" d="M334.555,54.686c0.95,0.885,2.854,0.816,3.671,1.836   c1.302,1.482-1.363,2.706-2.448,3.671c-1.563-0.679-4.25-0.236-4.896-1.835C331.238,56.265,333.867,56.446,334.555,54.686z"/>
	<path fill-rule="evenodd" clip-rule="evenodd" d="M152.217,55.298c0.989-0.172,1.054,0.579,1.836,0.612   c0.329,3.388-0.823,5.296-1.836,7.342c-4.376,0.857-7.017-1.713-5.506-4.895C149.722,58.514,151.879,57.815,152.217,55.298z"/>
	<path fill-rule="evenodd" clip-rule="evenodd" d="M196.884,55.298c2.46,0.903,1.319,8.051-1.224,7.955   C194.161,60.353,195.394,57.012,196.884,55.298z"/>
	<path fill-rule="evenodd" clip-rule="evenodd" d="M189.541,57.134c0.989-0.173,1.054,0.578,1.836,0.611   c1.195,2.727,0.501,6.932-0.612,9.178c1.839,2.492,3.384,6.035,0.612,8.566c-2.855-3.06-5.275-6.555-6.731-11.014   C185.798,61.549,190.469,62.14,189.541,57.134z"/>
	<path fill-rule="evenodd" clip-rule="evenodd" d="M309.467,62.028c-1.023,0.812-2.05,1.622-4.282,1.224   c0.837,2.859,2.77,2.647,2.447,5.506c0.847-2.184,5.928-2.758,7.954-0.611c1.221-0.615,0.966-2.706,3.06-2.447   c0.744,2.11,2.021,3.689,3.671,4.895c1.941-0.915,3.771-1.94,4.283-4.283c7.773,6.007-10.048,12.223-10.402,2.447   c-1.526,1.329-2.135,3.576-3.671,4.895c0.068,1.563,1.122,2.142,1.836,3.06c-0.86,2.199-2.055,4.064-4.896,4.284   c-0.271-0.545-0.537-1.095-1.224-1.224c-0.623-2.663,1.267-2.813,1.836-4.283c-0.237-2.21-3.357-1.538-2.447-4.895   c-2.091-0.459-0.777,2.485-3.06,1.835c-1.343-1.309-3.04-2.262-4.283-3.672c-1.643-1.739,1.921-3.251,2.447-5.506   c0.217-0.927-1.101-1.555-0.611-2.447C304.178,57.059,308.432,54.452,309.467,62.028z"/>
	<path fill-rule="evenodd" clip-rule="evenodd" d="M46.364,57.746c1.234,1.449,1.774,4.258,0,5.507   c-1.28-1.779-4.33-1.789-4.283-4.895C43.517,58.163,44.377,57.391,46.364,57.746z"/>
	<path fill-rule="evenodd" clip-rule="evenodd" d="M114.281,58.97c0.573,2.411,1.823,6.693,0,7.954   c-2.637-0.218-4.446-1.264-5.506-3.06C109.189,60.812,110.619,58.774,114.281,58.97z"/>
	<path fill-rule="evenodd" clip-rule="evenodd" d="M214.628,59.581c2.957,0.103,4.77,1.349,7.343,1.835   c-0.542,4.965-1.087,9.926-3.06,13.461c-2.27-0.586-4.55-1.161-6.119-2.447C213.379,67.574,214.392,63.219,214.628,59.581z"/>
	<path fill-rule="evenodd" clip-rule="evenodd" d="M94.702,60.193c3.773,0.51,7.303,1.263,8.566,4.283   C99.787,65.943,95.528,63.373,94.702,60.193z"/>
	<path fill-rule="evenodd" clip-rule="evenodd" d="M316.198,61.417C315.157,74.276,304.016,56.675,316.198,61.417L316.198,61.417z"/>
	<path fill-rule="evenodd" clip-rule="evenodd" d="M326.6,62.641c-0.268,3.403-2.811,4.531-6.118,4.895   C317.475,63.29,323.665,59.139,326.6,62.641z"/>
	<path fill-rule="evenodd" clip-rule="evenodd" d="M123.46,72.431c-3.637-0.86,0.933-7.138-1.836-9.79   C127.83,60.143,125.642,69.959,123.46,72.431z"/>
	<path fill-rule="evenodd" clip-rule="evenodd" d="M286.217,62.028c2.384-0.14,3.172,1.315,4.895,1.835   c-1.321,2.146-0.466,6.47-4.283,6.119c0.325-1.714,0.897-3.181,1.224-4.895c-1.496-1.057-3.041,3.054-3.671,4.895   C282.591,67.352,285.469,64.155,286.217,62.028z"/>
	<path fill-rule="evenodd" clip-rule="evenodd" d="M234.819,62.641c1.821,0.219,3.105,0.974,4.284,1.835   c0.683,2.75,1.207,7.292-0.612,9.178C233.021,72.555,232.441,66.099,234.819,62.641z"/>
	<path fill-rule="evenodd" clip-rule="evenodd" d="M38.41,63.252c1.752-0.121,3.339-0.076,3.059,1.835   C40.209,66.357,38.366,65.086,38.41,63.252z"/>
	<path fill-rule="evenodd" clip-rule="evenodd" d="M130.802,63.864c0.815,0,1.631,0,2.447,0c0.329,3.388-0.822,5.296-1.835,7.343   C128.493,70.011,130.031,66.24,130.802,63.864z"/>
	<path fill-rule="evenodd" clip-rule="evenodd" d="M264.801,63.864c4.706,3.44-0.773,13.225-3.06,13.461   C257.785,72.646,263.445,67.28,264.801,63.864z"/>
	<path fill-rule="evenodd" clip-rule="evenodd" d="M337.614,65.088c0.589,3.037-1.632,3.264-1.836,5.507   c0.003,2.24,3.59,0.897,3.06,3.671c-4.605,1.414-5.013-3.592-8.565-4.283C329.756,65.277,334.184,62.189,337.614,65.088z"/>
	<path fill-rule="evenodd" clip-rule="evenodd" d="M138.756,64.476c2.652,3.28-2.884,10.972-6.119,10.402   C134.08,70.814,136.964,68.191,138.756,64.476z"/>
	<path fill-rule="evenodd" clip-rule="evenodd" d="M154.053,65.7c3.421,1.882,4.997,5.609,6.118,9.79   c-1.869,1.423-4.97-0.012-6.73-0.612C152.304,72.209,153.381,68.386,154.053,65.7z"/>
	<path fill-rule="evenodd" clip-rule="evenodd" d="M345.568,67.536c-0.084,2.567-1.115,4.187-2.447,5.507   c-2.286,0.654-1.744-1.52-3.671-1.224c0-1.427,0-2.855,0-4.283C341.433,65.686,343.771,65.522,345.568,67.536z"/>
	<path fill-rule="evenodd" clip-rule="evenodd" d="M244.61,66.312c6.504,0.316,2.765,10.415,1.835,14.073   C242.229,77.57,242.523,71.149,244.61,66.312z"/>
	<path fill-rule="evenodd" clip-rule="evenodd" d="M145.486,67.536c2.297,0.967,2.586,3.94,2.448,7.342   c-1.323,0.513-2.087,1.584-4.283,1.224C141.059,73.271,143.494,69.323,145.486,67.536z"/>
	<path fill-rule="evenodd" clip-rule="evenodd" fill="#FCF3B9" d="M414.097,139.736c-3.92-1.292-7.293,1.128-11.013-1.835   c2.848-4.326-0.146-8.064,1.223-14.073c-1.586-1.862-3.931-0.614-5.507,0.611c0.779,4.537,1.216,9.996-1.835,12.237   c-3.931-0.352-6.347-2.219-9.178-3.671c-1.051-4.518,2.229-4.704,4.283-6.118c-5.444-4.997-13.5,2.084-16.521,5.506   c-3.82-0.87-8.054-1.328-7.954-6.119c2.746-0.518,4.906-1.62,5.507-4.283c-1.28-2.924-3.688,0.913-5.507,1.223   c-7.336,1.825-10.228-3.353-13.461-3.671c1.612-6.02,10.569-1.495,15.296-3.671c-0.794-4.938,4.191-8.118,6.731-11.625   c-2.753-1.911-4.479,2.437-6.731,3.06c-4.106-0.436-6.808,0.533-7.954,3.059c0.112,1.927,3.296,0.784,3.061,3.06   c-3.69,2.661-9.663-0.716-13.462,1.835c-2.465-0.594-3.445-2.673-4.896-4.283c0.783-3.092,3.014-4.737,3.673-7.954   c-3.087-2.75-7.192,3.17-13.462,1.224c3.132,1.83-2.414,1.277-3.672,0.612c2.523-4.39,7.438-6.838,11.015-12.238   c5.924-8.945,8.292-20.438,17.743-23.25c5.232-1.556,12.856,0.206,17.744,1.224c-2.276,2.005-3.746,4.819-5.506,7.342   c1.289,2.994,6.89,1.676,7.954,4.895c0.604,2.44-1.829,1.842-1.224,4.283c0.297,2.762,3.102,3.018,6.118,3.06   c0.524,3.555,3.222,4.937,3.671,8.566c-3.425,0.654-3.304,4.854-7.953,4.283c-2.257,2.639-3.521,6.271-6.119,8.566   c4.052,0.841,14.12-2.494,15.909-7.955c4.35,2.177,7.519,5.535,11.014,8.566c-0.708,1.087-2.494,4.218,0,4.895   c1.285,0.004,3.174-2.458,1.835-3.06c1.343-1.696,2.508,1.938,4.283,1.835c-1.346,3.316-0.812,6.394,1.836,8.566   c2.102-2.431,5.896-0.188,6.117-3.671c3.418,0.866,5.719,2.849,8.567,4.283c-1.103,5.47-6.664,1.667-9.178,3.059   C412.426,130.39,415.942,134.647,414.097,139.736z M362.088,74.266c0.219,3.861,3.879,4.28,6.731,5.507   C367.555,76.847,365.618,71.267,362.088,74.266z M352.911,96.293c0.687,0.129,0.953,0.679,1.224,1.224   c3.44-0.955,7.372-4.304,6.73-7.342c-0.135-0.477-0.513-0.711-1.225-0.612C358.942,93.351,352.398,91.294,352.911,96.293z    M390.234,114.038c0.444,1.871-1.055,1.8-0.611,3.671c2.556-0.516,2.89,1.189,4.895,1.224c0.938-1.327,4.086-6.213,1.225-7.342   C394.471,112.971,392.887,114.039,390.234,114.038z"/>
	<path fill-rule="evenodd" clip-rule="evenodd" d="M207.286,69.371c1.477,1.16,3.311,6.793,0,7.342   C206.587,73.811,205.677,71.551,207.286,69.371z"/>
	<path fill-rule="evenodd" clip-rule="evenodd" d="M225.642,71.207c2.326-0.491,0.778,2.893,1.224,4.283   C225.432,75.012,224.391,72.53,225.642,71.207z"/>
	<path fill-rule="evenodd" clip-rule="evenodd" d="M182.199,73.042c6.045-2.121,5.831,9.41,1.224,11.013   C179.758,81.324,185.867,75.524,182.199,73.042z"/>
	<path fill-rule="evenodd" clip-rule="evenodd" d="M284.993,73.042c0.805,0.216,0.963,1.077,1.836,1.224   c0.084,2.531-1.391,3.504-2.447,4.895c-2.28,0.648-1.976-1.288-3.06-1.835C281.558,74.911,283.809,74.509,284.993,73.042z"/>
	<path fill-rule="evenodd" clip-rule="evenodd" d="M368.82,79.773c-2.853-1.227-6.513-1.646-6.731-5.507   C365.618,71.267,367.555,76.847,368.82,79.773z"/>
	<path fill-rule="evenodd" clip-rule="evenodd" d="M114.281,75.49c0.816-1.74,2.721,0.472,3.671,0.612   c0.103,1.326-2.17,0.277-3.06,0.611C114.993,76.002,114.758,75.625,114.281,75.49z"/>
	<path fill-rule="evenodd" clip-rule="evenodd" d="M334.555,76.102c0.304,3.567-0.556,5.971-3.061,6.73   C326.597,81.429,329.526,71.167,334.555,76.102z"/>
	<path fill-rule="evenodd" clip-rule="evenodd" d="M321.705,80.385c0.03,2.069-1.425,2.654-2.447,3.671   c-1.494-0.34-1.303-2.367-3.671-1.835c0.434-2.269-1.046-2.625-0.611-4.895C318.396,75.435,319.754,78.978,321.705,80.385z"/>
	<path fill-rule="evenodd" clip-rule="evenodd" d="M163.231,77.325c3.924,2.604,8.205,4.849,8.566,11.014   c-2.551,0.65-2.699,0.158-5.507,0c-1.129-3.562-4.072-5.31-4.895-9.179C162.277,78.819,162.888,78.207,163.231,77.325z"/>
	<path fill-rule="evenodd" clip-rule="evenodd" d="M270.92,77.325c-0.154,2.498-1.582,3.722-2.448,5.507   C265.254,81.942,266.342,75.764,270.92,77.325z"/>
	<path fill-rule="evenodd" clip-rule="evenodd" d="M300.29,77.325c0.789,0.843,2.658,0.605,4.283,0.612   c0.084,1.14,0.402,2.045,1.224,2.447c-0.56,3.111-2.112,5.23-4.895,6.119c-1.06-1.184-2.74-1.747-3.672-3.06   C297.128,80.283,300.522,80.617,300.29,77.325z"/>
	<path fill-rule="evenodd" clip-rule="evenodd" d="M341.285,78.549c0.549,3.812-1.055,5.472-4.283,5.507   c-1.256-0.986-1.419-3.067-1.224-5.507C337.87,77.617,339.651,77.131,341.285,78.549z"/>
	<path fill-rule="evenodd" clip-rule="evenodd" d="M122.848,77.938c1.96-0.172,2.225,2.68,1.224,3.671   C121.757,82.133,121.906,78.869,122.848,77.938z"/>
	<path fill-rule="evenodd" clip-rule="evenodd" d="M65.944,78.549c3.416-1.227,4.513,5.607,1.224,5.507   C67.357,81.623,65.754,80.982,65.944,78.549z"/>
	<path fill-rule="evenodd" clip-rule="evenodd" d="M138.756,79.161c3.397,0.76,12.177,1.705,7.954,7.955   C141.935,86.588,138.525,84.695,138.756,79.161z"/>
	<path fill-rule="evenodd" clip-rule="evenodd" d="M133.861,80.997c0.28,1.912-1.307,1.956-3.059,1.835   c0.077-1.098-0.749-1.291-0.612-2.448C130.975,79.543,133.849,79.32,133.861,80.997z"/>
	<path fill-rule="evenodd" clip-rule="evenodd" d="M159.56,85.892c-3.459,2.234-7.455-0.146-7.343-4.895   C155.862,79.006,159.792,80.782,159.56,85.892z"/>
	<path fill-rule="evenodd" clip-rule="evenodd" d="M193.824,79.773c0.612,0,1.224,0,1.836,0c0.449,3.228,1.251,6.097-2.447,7.342   c-0.526-0.494-0.364-1.676-1.224-1.835C191.66,82.503,193.219,81.615,193.824,79.773z"/>
	<path fill-rule="evenodd" clip-rule="evenodd" d="M296.619,86.503c-4.869,1.703-8.812-0.188-8.566-3.671   C288.361,78.461,297.656,79.471,296.619,86.503z"/>
	<path fill-rule="evenodd" clip-rule="evenodd" d="M281.322,80.385c0.135,0.641-0.125,7.445-0.612,11.014   c-0.711-0.099-1.089,0.135-1.223,0.612c-2.208-0.852-2.721-3.399-5.508-3.671C275.518,84.779,277.874,82.035,281.322,80.385z"/>
	<path fill-rule="evenodd" clip-rule="evenodd" d="M119.788,82.833c0.081,1.508,0.093,2.948-0.612,3.671   C113.917,87.119,115.454,80.124,119.788,82.833z"/>
	<path fill-rule="evenodd" clip-rule="evenodd" d="M314.975,82.22c0.755,2.846,2.626,4.145,0.611,6.73   c-4.31,0.842-5.525-1.409-6.73-3.671C309.139,82.503,311.574,81.878,314.975,82.22z"/>
	<path fill-rule="evenodd" clip-rule="evenodd" d="M177.916,82.833c4.898,0.642,2.143,8.131,3.059,10.401   C174.662,93.156,175.966,85.429,177.916,82.833z"/>
	<path fill-rule="evenodd" clip-rule="evenodd" d="M207.286,83.444c1.082,3.872-0.05,6.661-1.224,9.79   C200.703,92.879,201.426,82.558,207.286,83.444z"/>
	<path fill-rule="evenodd" clip-rule="evenodd" d="M329.66,83.444c4.195-0.116,8.492-0.334,7.954,4.284   C334.221,89.294,329.387,87.529,329.66,83.444z"/>
	<path fill-rule="evenodd" clip-rule="evenodd" d="M259.907,85.892c1.374,2.819,0.744,8.889-3.672,7.954   C256.107,89.842,258.001,87.861,259.907,85.892z"/>
	<path fill-rule="evenodd" clip-rule="evenodd" d="M327.824,87.115c0.691,6.073-8.445,6.906-9.178,1.835   C319.216,85.611,325.493,85.109,327.824,87.115z"/>
	<path fill-rule="evenodd" clip-rule="evenodd" d="M126.519,86.503c1.952-0.525,1.893,0.963,3.06,1.224   C129.314,89.806,125.587,89.151,126.519,86.503z"/>
	<path fill-rule="evenodd" clip-rule="evenodd" d="M162.62,88.951c2.537-0.293,1.855,2.631,4.282,2.448   c0.57,3.672-0.019,9.207-1.835,13.461C158.941,102.758,163.379,95.246,162.62,88.951z"/>
	<path fill-rule="evenodd" clip-rule="evenodd" d="M291.724,90.786c-0.881,3.031-5.583,5.106-8.566,2.448   C283.028,88.686,289.443,87.818,291.724,90.786z"/>
	<path fill-rule="evenodd" clip-rule="evenodd" d="M302.125,89.563c4.312-2.139,8.761,0.162,9.178,3.671   C312.845,106.211,290.458,95.351,302.125,89.563z"/>
	<path fill-rule="evenodd" clip-rule="evenodd" d="M359.64,89.563c0.712-0.1,1.09,0.135,1.225,0.612   c0.642,3.038-3.29,6.387-6.73,7.342c-0.271-0.545-0.537-1.094-1.224-1.224C352.398,91.294,358.942,93.351,359.64,89.563z"/>
	<path fill-rule="evenodd" clip-rule="evenodd" d="M145.486,90.786c1.552,3.154,1.166,6.627-2.447,7.343   c-2.925-0.338-3.071-3.457-3.059-6.731C142.101,90.95,143.238,89.521,145.486,90.786z"/>
	<path fill-rule="evenodd" clip-rule="evenodd" d="M158.336,93.846c-0.035,2.005-1.74,2.339-1.224,4.895   c-4.301-0.593-7.687-2.103-7.342-7.342C153.196,89.077,156.472,91.307,158.336,93.846z"/>
	<path fill-rule="evenodd" clip-rule="evenodd" d="M293.559,90.786c2.196,0.66,3.43,2.281,3.06,5.507   c-3.443,1.044-6.334,2.641-8.566,4.895c-2.041,0.001-2.088-1.991-4.283-1.836c0.007-1.625-0.231-3.494,0.612-4.283   c2.86-0.209,3.981,1.32,6.118,1.835C292.5,95.846,291.537,91.824,293.559,90.786z"/>
	<path fill-rule="evenodd" clip-rule="evenodd" d="M330.882,97.517c-2.555,0.517-2.889-1.189-4.895-1.224   C325.296,87.383,337.329,91.989,330.882,97.517z"/>
	<path fill-rule="evenodd" clip-rule="evenodd" d="M114.281,95.07c-0.494,0.526-1.676,0.364-1.835,1.224   c-1.423-0.617-1.973-2.106-1.835-4.283C112.98,90.664,114.33,92.35,114.281,95.07z"/>
	<path fill-rule="evenodd" clip-rule="evenodd" d="M325.376,98.741c-4.46,0.585-6.534-1.216-6.73-4.895   C321.591,92.541,326.182,94.313,325.376,98.741z"/>
	<path fill-rule="evenodd" clip-rule="evenodd" d="M81.241,96.293c2.833-0.306,4.04,3.315,3.059,4.895   C82.527,100.31,81.777,98.408,81.241,96.293z"/>
	<path fill-rule="evenodd" clip-rule="evenodd" d="M182.199,96.905c2.375,0.153,1.182,6.174,0.612,7.342   C177.324,104.1,180.838,98.774,182.199,96.905z"/>
	<path fill-rule="evenodd" clip-rule="evenodd" d="M316.198,98.741c0.777,4.04-3.49,3.036-4.895,4.895   c0.016,3.034,4.47-0.195,4.895,1.224c-0.013,1.441,1.055,1.801,0.612,3.671c-2.242,2.193-4.42,0.323-6.73-0.612   C309.165,104.311,309.523,95.885,316.198,98.741z"/>
	<path fill-rule="evenodd" clip-rule="evenodd" d="M187.706,98.741c1.925-0.293,2.392,0.872,3.672,1.224   c0.008,3.476-1.405,5.53-3.06,7.342c-1.921,0.29-1.617-1.647-3.06-1.836C185.41,102.564,187.133,101.228,187.706,98.741z"/>
	<path fill-rule="evenodd" clip-rule="evenodd" d="M51.259,105.471c0-0.815,0-1.631,0-2.447c2.302,1.319,2.386-1.164,3.06-3.059   c1.02,0,2.04,0,3.059,0C57.524,103.986,55.504,105.842,51.259,105.471z"/>
	<path fill-rule="evenodd" clip-rule="evenodd" d="M305.185,104.248c-0.705,9.72-13.52,6.083-12.238-0.612   C293.973,98.282,303.007,99.587,305.185,104.248z"/>
	<path fill-rule="evenodd" clip-rule="evenodd" d="M156.5,101.8c0.121,3.997-0.358,7.392-3.06,8.566   C147.93,108.837,149.525,98.503,156.5,101.8z"/>
	<path fill-rule="evenodd" clip-rule="evenodd" d="M318.034,101.188c3.239-0.18,4.133,1.985,4.283,4.895   c-1.216,0.008-0.777,1.67-2.447,1.224C317.169,107.48,316.847,102.973,318.034,101.188z"/>
	<path fill-rule="evenodd" clip-rule="evenodd" d="M148.546,102.412c-0.961,2.745,0.633,5.889-1.223,8.566c-1.02,0-2.04,0-3.06,0   C141.646,107.074,141.904,100.121,148.546,102.412z"/>
	<path fill-rule="evenodd" clip-rule="evenodd" d="M288.052,110.978c-4.012,3.022-8.556,1.062-14.073,0   c-0.434-2.269,1.046-2.625,0.612-4.895C283.082,104.395,287.637,99.15,288.052,110.978z"/>
	<path fill-rule="evenodd" clip-rule="evenodd" d="M310.08,110.978c-0.195,1.437-0.967,2.297-0.612,4.283   c-2.961,1.918-6.163,1.09-6.73-2.448C305.285,111.82,307.066,108.072,310.08,110.978z"/>
	<path fill-rule="evenodd" clip-rule="evenodd" d="M297.842,115.261c-0.571,0.449-0.927,1.113-1.224,1.836   c-2.257,0.386-4.675-2.213-6.119-0.612C286.393,112.071,297.54,109.441,297.842,115.261z"/>
	<path fill-rule="evenodd" clip-rule="evenodd" d="M314.363,112.202c0.533,2.981-0.837,4.058-1.224,6.119c-1.021,0-2.039,0-3.06,0   C308.869,115.796,311.486,110.538,314.363,112.202z"/>
	<path fill-rule="evenodd" clip-rule="evenodd" d="M395.742,111.59c2.861,1.129-0.287,6.016-1.225,7.342   c-2.005-0.035-2.339-1.74-4.895-1.224c-0.443-1.871,1.056-1.8,0.611-3.671C392.887,114.039,394.471,112.971,395.742,111.59z"/>
	<path fill-rule="evenodd" clip-rule="evenodd" d="M158.948,114.65c0.501,3.152-1.39,3.913-1.836,6.118   c-1.165-0.262-1.537-1.318-3.059-1.224C151.151,115.147,156.469,110.119,158.948,114.65z"/>
	<path fill-rule="evenodd" clip-rule="evenodd" fill="#FCF3B9" d="M445.303,114.038c1.812,1.333,0.279,2.838,1.835,4.895   c2.736,0.88,5.109,0.49,6.119-1.835c2.182,8.421-3.051,18.6-13.461,18.356c-2.623-1.913-3.004-3.08-2.447-7.343   c1.932-0.553,2.617,0.855,5.506,0.612c5.595-3.231-0.146-8.485-4.895-8.566c0.64-1.4,0.389-3.691,1.224-4.895   C440.962,114.5,443.055,115.378,445.303,114.038z"/>
	<path fill-rule="evenodd" clip-rule="evenodd" d="M171.797,116.485c2.978,0.285,3.499,3.026,5.506,4.283   c-0.926,2.133-1.118,5.001-3.06,6.119C171.017,125.777,169.784,119.145,171.797,116.485z"/>
	<path fill-rule="evenodd" clip-rule="evenodd" d="M281.322,117.097c0.612,0,1.224,0,1.836,0c3.724,6.115,0.031,13.776-6.119,9.178   C276.475,121.225,281.269,121.531,281.322,117.097z"/>
	<path fill-rule="evenodd" clip-rule="evenodd" d="M292.947,118.321c-0.736,3.312-4.629,3.402-6.729,2.447   C285.917,116.637,290.554,116.575,292.947,118.321z"/>
	<path fill-rule="evenodd" clip-rule="evenodd" d="M303.349,117.097c5.013,0.267,9.465,2.219,5.507,7.342   C306.086,124.562,301.435,121.351,303.349,117.097z"/>
	<path fill-rule="evenodd" clip-rule="evenodd" d="M299.066,121.992c-1.678,1.547-4.264,1.236-5.507-0.612   C293.322,116.416,299.612,117.265,299.066,121.992z"/>
	<path fill-rule="evenodd" clip-rule="evenodd" d="M90.418,118.321c1.84-0.617,1.084,1.363,1.224,2.447c-0.612,0-1.224,0-1.835,0   C89.548,119.489,90.227,119.148,90.418,118.321z"/>
	<path fill-rule="evenodd" clip-rule="evenodd" d="M163.843,119.544c4.638,0.257,6.035,3.756,5.507,9.179   c-2.594,0.146-4.333-0.562-6.119-1.224C162.876,125.863,162.967,121.724,163.843,119.544z"/>
	<path fill-rule="evenodd" clip-rule="evenodd" d="M97.761,120.156c2.04,0,4.079,0,6.119,0c0.946,1.922,0.391,3.414-0.612,4.895   C99.761,125.09,97.372,124.013,97.761,120.156z"/>
	<path fill-rule="evenodd" clip-rule="evenodd" d="M152.217,120.156c-0.242,2-0.531,3.956-2.447,4.283   C149.771,122.197,149.532,119.714,152.217,120.156z"/>
	<path fill-rule="evenodd" clip-rule="evenodd" d="M299.678,122.604c0.611,0,1.224,0,1.836,0c0.312,5.974,0.688,9.13-3.672,11.014   c-1.495-0.341-2.235-1.436-3.06-2.448C294.159,126.058,299.397,126.81,299.678,122.604z"/>
	<path fill-rule="evenodd" clip-rule="evenodd" d="M156.5,123.828c2.286-0.654,1.744,1.52,3.671,1.224   c-0.472,2.92,0.957,3.938,0.612,6.731C154.751,136.442,153.495,125.865,156.5,123.828z"/>
	<path fill-rule="evenodd" clip-rule="evenodd" d="M288.052,131.17c-3.301-4.254,2.24-10.197,4.895-4.895   C292.08,128.67,291.773,131.627,288.052,131.17z"/>
	<path fill-rule="evenodd" clip-rule="evenodd" d="M86.748,126.887c1.822,1.665-1.25,3.609-3.06,3.671   C82.178,128.742,85.539,127.878,86.748,126.887z"/>
	<path fill-rule="evenodd" clip-rule="evenodd" d="M98.373,129.334c-1.099,2.165-1.651,4.875-5.507,4.283   C89.142,128.838,95.168,124.563,98.373,129.334z"/>
	<path fill-rule="evenodd" clip-rule="evenodd" fill="#FCF3B9" d="M426.947,127.499c0,0.816,0,1.632,0,2.448   c1.326,0.103,0.276-2.171,0.611-3.06c2.328-0.483,5.05,2.303,6.73,1.835c1.448,7.432-6.4,15.429-11.624,20.192   c-1.707-2.169-2.663-5.089-5.509-6.119C418.211,135.487,421.498,130.413,426.947,127.499z M422.665,142.184   c4.44,1.009,5.353-4.205,4.894-6.119C425.27,135.02,422.05,138.292,422.665,142.184z"/>
	<path fill-rule="evenodd" clip-rule="evenodd" d="M171.797,129.947c3.716,0.287,2.723,2.958,1.835,5.506   C170.785,135.071,171.592,131.977,171.797,129.947z"/>
	<path fill-rule="evenodd" clip-rule="evenodd" d="M164.455,130.558c4.705-0.422,4.779,3.787,5.506,7.342   c-1.323,0.513-2.087,1.584-4.283,1.224C164.326,137.416,163.44,132.671,164.455,130.558z"/>
	<path fill-rule="evenodd" clip-rule="evenodd" d="M287.44,136.065c-0.559,1.889-2.862,2.032-4.895,2.448   C275.984,132.093,288.689,128.774,287.44,136.065z"/>
	<path fill-rule="evenodd" clip-rule="evenodd" d="M297.23,136.676c-0.39,3.282-1.512,5.83-3.671,7.343   C284.696,143.395,290.329,131.56,297.23,136.676z"/>
	<path fill-rule="evenodd" clip-rule="evenodd" d="M86.135,136.065c1.427-0.523,2.637,2.14,3.06,0.611   c1.688,0.797,1.223,3.308,0.612,4.895C86.243,142.257,84.687,138.439,86.135,136.065z"/>
	<path fill-rule="evenodd" clip-rule="evenodd" d="M158.336,136.676c3.106-0.659,3.765,1.131,4.895,2.448   c-0.754,1.897-1.858,3.445-4.283,3.671C157.73,140.544,157.545,139.603,158.336,136.676z"/>
	<path fill-rule="evenodd" clip-rule="evenodd" d="M170.573,139.125c1.728,0.312,2.599,1.48,4.283,1.835   c0.449,3.509-1.125,4.994-1.835,7.342c-2.246,0.002-2.345-2.143-3.671-3.059C170.221,142.884,171.887,142.263,170.573,139.125z"/>
	<path fill-rule="evenodd" clip-rule="evenodd" d="M286.217,140.348c2.661,2.417-3.006,8.662-7.343,6.118   c-0.324-2.566,1.068-3.418,1.224-5.506C281.929,141.532,285.742,143.669,286.217,140.348z"/>
	<path fill-rule="evenodd" clip-rule="evenodd" d="M81.853,146.466c-0.738,2.28-6.331,1.252-6.119-1.223   C77.88,143.543,79.251,146.708,81.853,146.466z"/>
	<path fill-rule="evenodd" clip-rule="evenodd" fill="#FCF3B9" d="M432.453,146.466c-0.412,3.064,1.635,3.669,3.061,4.895   c1.622-0.009,3.603,0.34,3.671-1.224c1.402,1.842-2.551,3.544-4.896,3.671c-2.127,5.624-7.897,7.604-13.461,9.79   c-2.904-3.78-0.66-7.148-3.06-9.79C423.121,152.09,425.541,144.634,432.453,146.466z M427.558,159.315   c1.65-1.205,2.927-2.783,3.672-4.895c-1.061-1.794-2.869-2.841-5.507-3.06C422.134,153.428,423.009,158.996,427.558,159.315z"/>
	<path fill-rule="evenodd" clip-rule="evenodd" d="M300.29,147.079c-0.443,1.872,1.056,1.8,0.612,3.671   c-1.293,0.543-1.809,1.863-3.672,1.835c-0.811-1.024-1.62-2.05-1.224-4.283C297.367,147.826,298.393,147.017,300.29,147.079z"/>
	<path fill-rule="evenodd" clip-rule="evenodd" d="M175.468,147.69c2.521-0.32,3.114,3.31,1.835,4.895   C175.103,152.542,175.37,150.032,175.468,147.69z"/>
	<path fill-rule="evenodd" clip-rule="evenodd" d="M292.335,147.69c1.751,3.151-1.632,4.342-3.06,6.118   C285.752,152.549,287.542,146.11,292.335,147.69z"/>
	<path fill-rule="evenodd" clip-rule="evenodd" fill="#FCF3B9" d="M443.467,149.526c-4.123,10.032-1.332,33.231-15.296,29.369   c-7.123,4.592-15.158,2.663-22.641-0.612c-0.728-4.246,3.056-5.673,1.837-8.565c13.695-4.03,27.259-8.158,34.265-20.191   C442.243,149.526,442.855,149.526,443.467,149.526z M428.782,166.046c1.986,1.228,6.196,0.329,5.507-3.06   C431.399,162.953,429.591,164,428.782,166.046z"/>
	<path fill-rule="evenodd" clip-rule="evenodd" d="M169.961,150.75c3.221,0.224,6.423,6.111,2.447,7.955   C169.209,157.733,169.068,154.351,169.961,150.75z"/>
	<path fill-rule="evenodd" clip-rule="evenodd" d="M425.723,151.361c2.638,0.218,4.446,1.265,5.507,3.06   c-0.745,2.111-2.021,3.69-3.672,4.895C423.009,158.996,422.134,153.428,425.723,151.361z"/>
	<path fill-rule="evenodd" clip-rule="evenodd" d="M73.286,151.973c3.097-0.65,3.086,1.809,4.895,2.448   C76.362,156.198,73.232,154.098,73.286,151.973z"/>
	<path fill-rule="evenodd" clip-rule="evenodd" fill="#FCF3B9" d="M343.121,154.421c1.26,2.438,0.19,5.227,0,7.955   c-3.461-0.007-4.205-2.73-4.283-6.119C340.249,155.627,340.81,154.151,343.121,154.421z"/>
	<path fill-rule="evenodd" clip-rule="evenodd" d="M290.5,157.48c0.215,2.204,0.936,2.949,0,4.896c-0.815,0-1.631,0-2.447,0   C286.798,160.675,287.561,156.902,290.5,157.48z"/>
	<path fill-rule="evenodd" clip-rule="evenodd" fill="#FCF3B9" d="M408.59,157.48c-0.655,4.124,3.857,3.079,5.507,4.896   c0,1.427,0,2.854,0,4.283c-1.525,0.515-3.278,0.801-5.507,0.611c-0.849-0.782-0.375-2.889-1.223-3.671   c-1.89,0.151-3.459,0.621-4.896,1.225c-1.375,0.257-0.017,3.246-1.224,3.671c-4.869,0.434-9.134,1.471-14.686,1.223   c0.297-2.335-0.174-3.905-1.224-4.894c-3.096,0.371-5.823,1.111-5.507,4.894c-2.662,0.841-3.871,0.226-6.118,0   c1.024-4.694-1.824-5.518-2.448-8.566c7.484,1.49,18.202-2.351,23.251,3.06c2.997,0.549,2.875-2.021,6.119-1.225   c2.556-0.492,1.129-3.145,1.836-4.282C405.09,158.875,405.498,156.834,408.59,157.48z"/>
	<path fill-rule="evenodd" clip-rule="evenodd" d="M296.619,158.092c4.699,0.357,0.472,3.977,0.611,6.731   C293.719,164.732,295.857,159.425,296.619,158.092z"/>
	<path fill-rule="evenodd" clip-rule="evenodd" d="M73.898,159.928c0.906,0.318,1.542,0.905,2.448,1.223   c-0.009,1.624,0.339,3.604-1.224,3.672C72.863,165.031,72.899,161.107,73.898,159.928z"/>
	<path fill-rule="evenodd" clip-rule="evenodd" d="M63.496,161.151c1.543,0.313,4.14,0.48,4.284,3.672   C65.191,164.76,64.124,163.176,63.496,161.151z"/>
	<path fill-rule="evenodd" clip-rule="evenodd" fill="#FCF3B9" d="M362.088,161.763c1.475-0.25,1.33,1.117,3.061,0.612   c-0.396,3.863,1.301,5.633,3.671,6.729c-0.808,1.16-3.88-0.566-5.507-0.61C363.506,164.391,362.634,165.127,362.088,161.763z"/>
	<path fill-rule="evenodd" clip-rule="evenodd" d="M434.289,162.986c0.689,3.389-3.521,4.288-5.507,3.06   C429.591,164,431.399,162.953,434.289,162.986z"/>
	<path fill-rule="evenodd" clip-rule="evenodd" fill="#FCF3B9" d="M353.523,163.599c2.157,0.086,1.742,2.745,2.446,4.284   c-1.491,0.71-3.63,0.182-4.895,0C350.624,165.187,353.055,165.376,353.523,163.599z"/>
	<path fill-rule="evenodd" clip-rule="evenodd" d="M173.021,166.046c0.352,3.003-0.794,4.509-3.06,4.895   C166.413,168.472,168.599,162.621,173.021,166.046z"/>
	<path fill-rule="evenodd" clip-rule="evenodd" d="M280.098,167.27c1.508-0.081,2.948-0.093,3.671,0.612   c0.484,2.116-0.68,2.583-1.224,3.671c-1.522,0.094-1.894-0.961-3.059-1.224C279.236,168.855,280.604,169,280.098,167.27z"/>
	<path fill-rule="evenodd" clip-rule="evenodd" d="M293.559,173.389c-1.925,0.293-2.392-0.871-3.671-1.224   C290.754,169.86,293.959,170.053,293.559,173.389z"/>
	<path fill-rule="evenodd" clip-rule="evenodd" d="M271.532,174.612c2.201,1.268,5.73,1.205,6.118,4.283   c-1.741,1.145-5.329-0.097-6.729-1.223C270.725,176.252,271.018,175.323,271.532,174.612z"/>
	<path fill-rule="evenodd" clip-rule="evenodd" d="M286.829,174.612c1.081,1.024-0.543,2.051,0,4.283   c-1.978-0.469-3.202-1.692-3.671-3.671C283.88,174.519,285.321,174.533,286.829,174.612z"/>
	<path fill-rule="evenodd" clip-rule="evenodd" d="M172.409,175.224c2.28-0.647,1.976,1.288,3.06,1.836   C174.573,178.693,172.111,176.804,172.409,175.224z"/>
	<path fill-rule="evenodd" clip-rule="evenodd" d="M255.011,176.449c1.209,0.423,1.632,1.632,1.836,3.059   c-2.116,0.484-2.583-0.68-3.672-1.225C252.988,176.874,254.944,177.605,255.011,176.449z"/>
	<path fill-rule="evenodd" clip-rule="evenodd" d="M171.797,181.343c1.348,0.487,2.443,1.229,2.447,3.059   c-1.784,0.154-2.11-1.151-3.059-1.835C171.301,182.071,171.799,181.957,171.797,181.343z"/>
	<path fill-rule="evenodd" clip-rule="evenodd" d="M150.994,185.626c-2.238,0.401-2.347-1.323-4.283-1.225   C147.229,181.718,151.106,182.749,150.994,185.626z"/>
	<path fill-rule="evenodd" clip-rule="evenodd" d="M167.514,182.567c0.837,0.783,0.837,2.889,0,3.671   c-2.813,0.569-2.132-2.355-4.283-2.446C164.157,182.88,165.917,182.805,167.514,182.567z"/>
	<path fill-rule="evenodd" clip-rule="evenodd" fill="#FCF3B9" d="M242.774,180.12c0.581-3.09,3.945-3.397,5.507-5.508   c8.15,0.871,17.526,3.939,22.64-1.835c1.098-0.077,1.29,0.75,2.447,0.612c4.794-4.586,12.984-12.114,4.282-18.356   c0.979-1.716,2.755,0.859,4.896,0c0.969-2.091,3.718-2.401,3.672-5.507c-2.641,0.345-8.017-0.17-9.179,3.06   c-3.173-1.872-2.223-6.7-0.611-9.179c0.289-2.94-3.739-1.564-3.06-4.894c0.326-2.529,4.661-1.049,4.895-3.672   c-0.064-5.896-5.854-3.136-6.73-7.342c-0.974-4.677,10.726-12.392-1.224-13.461c-0.664-2.803-0.943-5.992-1.224-9.178   c5.049,1.122,6.652-5.808,8.565-9.79c-0.195-2.863-4.01-2.109-4.895-4.284c-4.717,0.727-4.849,5.962-4.283,10.402   c-5.799-0.663-1.969-7.479-3.671-12.238c-3.862,0.43-4.814,7.001-4.895,9.179c-2.569,1.728-7.078,0.162-8.566-1.224   c-0.399-4.62,4.384-8.712,3.06-14.073c-2.945,0.114-1.742,4.377-3.671,5.507c-1.872,0.444-1.8-1.056-3.672-0.612   c-0.926,3.153-3.109,5.049-3.672,8.566c-2.324-0.123-4.353-0.542-6.118-1.224c-1.116-6.023-3.107-11.17-7.343-14.073   c1.506,3.697,1.5,10.068,1.224,15.296c-1.224,0-2.447,0-3.671,0c-1.183-4.12-2.541-8.065-6.119-9.79   c0.469,3.435,1.604,9.735-0.612,14.685c-4.231,1.276-6.539,4.474-11.625,4.895c-1.187-1.26,0.061-4.956-3.06-4.283   c-1.162,1.489-0.417,4.885-1.224,6.73c-2.046,1.013-3.954,2.164-7.342,1.835c-0.232-2.679,1.749-3.146,1.835-5.506   c-0.263-2.184-2.759-2.136-4.283-3.06c-1.587,3.207-5.521,5.581-3.671,10.402c-4.29,0.936-9.112-2.136-10.402,1.224   c-2.961,0.31-1.033-4.27-3.671-4.283c-1.669-0.445-1.231,1.216-2.447,1.224c-0.181,4.057,1.557,6.194,3.06,8.566   c2.384,0.817,3.172-0.315,4.895,0.611c-0.886,2.786-3.688,3.655-4.895,6.119c0.631,2.836,3.727,3.208,4.283,6.119   c-2.233,0.397-3.259-0.413-4.283-1.224c-5.732,3.094,0.954,8.369,4.283,9.79c-0.889,2.503-3.252-0.271-4.283,1.835   c-0.982,4.463,4.175,6.004,3.671,7.954c0.616,1.841-1.363,1.084-2.448,1.224c-0.328,2.882-1.262,6.021,1.224,7.343   c-2.509,2.882-1.15,4.483-0.612,8.565c-4.378,4.678-0.112,10.684-1.224,15.909c-1.278,6.013-8.446,8.536-9.79,14.073   c-9.784-0.232-23.02,3.61-28.758-4.896c-0.135-1.97,1.082-2.589,0.612-4.895c-1.936,1.328-1.245,5.281-4.895,4.895   c-0.271-0.545-0.538-1.095-1.224-1.224c-0.355-2.599,1.648-2.839,3.06-3.671c-2.909-6.354,7.25-9.581,15.296-7.343   c1.69,0.961,2.091,3.212,4.283,3.672c1.349-1.293-0.785-1.81-0.611-3.672c2.39-2.302,7.004-2.379,6.119-7.954   c2.285-0.654,1.743,1.519,3.671,1.224c-0.343-1.9-0.73-3.758-3.06-3.672c0-1.835,0-3.671,0-5.506c1.927-0.687,1.386-0.056,3.671,0   c0.311-2.871,0.929-4.184-1.224-5.506c-0.908,0.266,0.242,0.783,0,1.835c-1.867-0.504-1.467-1.72-3.671-0.612   c-1.423-1.637-2.471-3.647-3.06-6.119c1.311-0.728,3.418-0.66,4.283-1.835c0.386-2.832-0.479-4.416-1.835-5.507   c-2.238,0.209-2.8,2.096-3.671,3.671c-2.671-1.349-2.781-4.724-1.224-7.342c-5.857-5.564-8.405-14.438-11.014-23.251   c0.895-2.165,3.245-2.875,4.284-4.894c-0.874-1.667-3.181-0.575-6.119-1.224c-0.949-4.966-3.273-8.557-5.507-12.237   c-1.819,2.059,1.158,4.526,1.224,6.73c-1.361,1.289-2.951-0.645-5.507,0c-0.773-1.47-0.787-3.7-1.835-4.895   c-2.644,0.62-3.04,3.487-5.507,4.283c-2.268-0.995-4.496-2.03-4.895-4.896c-3.988-0.316-3.489,3.853-5.507,5.507   c-1.701-0.542-2.214-2.272-4.283-2.447c-3.708,4.287-7.602,7.659-14.073,4.895c1.952-5.114,9.016-11.34,3.06-17.132   c1.312-5.554-1.307-10.388-4.283-13.461c-4.624,2.297,1.023,7.142,2.447,9.178c-0.556,2.504-3.001,3.118-5.507,3.671   c-1.973,3.69-1.603,9.453,3.06,9.79c-1.035,5.03-4.9-0.472-7.343-1.223c-6.249,2.459,1.2,6.718,1.224,10.402   c-2.014-1.861-6.376-1.375-6.73-4.895c-1.946,0.936-2.692,0.215-4.895,0c-1.343-1.416,1.568-2.027,0.612-4.895   c-0.556-1.28-1.806-1.865-3.671-1.835c-2.932-0.28-2.186,3.116-4.895,3.059c-1.958-0.081-2.692-1.387-2.447-3.671   c-1.02,0-2.04,0-3.06,0c-1.318,0.518-0.987,2.684-1.835,3.671c-9.484,3.313-22.813,6.022-21.416,22.027   c-2.401,1.313-5.171,1.034-5.507,3.671c-10.872,3.819-17.661-13.089-3.671-8.566c4.791-0.331,5.261-7.404,2.447-10.401   c-2.889,0.689-3.574-0.345-5.507-0.612c-4.76,6.476-15.031,12.154-22.639,4.283c-0.361-2.196,0.711-2.96,1.224-4.283   c-1.8-2.305-2.082,0.679-4.895-0.612c-1.577-7.793,2.757-22.014,9.79-26.922c0.647,7.259-0.918,11.624,1.224,18.968   c1.931,1.742,5.665,1.678,9.179,1.835c-0.753-2.307-3.184-2.935-6.119-3.059c0.307-2.551-1.789-2.698-1.224-5.507   c4.129,1.07,3.667-2.451,6.73-2.447c-0.6-2.648-6.465,1.447-7.342-3.059c4.388,0.513,3.798-3.952,5.507-6.119   c2.192,0.052,3.535,0.952,5.506,1.224c-0.767-4.942-9.729-1.692-12.849-4.283c1.362-8.646,17.773-12.157,22.639-4.895   c1.569-1.808-0.201-5.483-0.611-7.343c-2.893-1.389-9.795,2.675-11.626-1.223c6.552-4.461,6.813-15.214,13.461-19.58   c2.862,2.244,7.228,3.036,9.79,2.447c4.561-1.046,5.6-8.086,11.625-6.73c1.48,2.19,2.336,5.006,6.118,4.895   c1.75-0.086,1.12-2.552,1.224-4.283c2.652,0.612,3.899,2.627,7.342,2.447c0.482-2.521-2.93-1.149-2.447-3.671   c2.032-0.277,3.402,2.237,5.507,2.448c4.815,0.482,7.781-5.613,12.85-6.119c6.98-0.698,12.069,4.602,20.191,1.836   c0.881-0.343,1.493-0.955,1.835-1.836c0.566-4.646-6.4-1.757-7.954-4.283c3.296-3.531,13.85,2.699,18.968,1.224   c-0.121-3.959-3.618-4.54-4.895-7.342c4.302-4.825,6.971,1.146,11.625,2.447c3.214,0.899,4.938-1.265,7.342,0.612   c0.881-0.343,1.494-0.955,1.836-1.836c-0.157-4.126-3.384-5.183-6.73-6.119c0.525-2.33,3.522-2.189,4.895-3.671   c2.702,1.785,2.679,6.295,7.343,6.119c3.164-1.148-0.295-6.568,0.612-7.342c4.288-0.209,3.585,4.573,5.506,6.73   c6.854-0.141,13.436,1.186,11.626,9.178c3.681,5.107,11.685,0.483,8.566-7.342c2.506-0.262,3.92,0.567,5.507,1.224   c-0.011,3.886,2.913,4.837,5.507,6.118c0.605,2.441-1.829,1.843-1.224,4.283c0.977,2.899,5.046,2.705,4.895,6.731   c15.761-1.49-1.254-20.284-4.283-25.087c0.986-0.914,3.068,0.527,5.507,0c0.53,6.613,14.541,14.982,15.908,4.283   c-1.442-1.821-2.76-3.767-4.895-4.895c6.09-7.023,6.622,5.056,11.625,6.119c2.536,0.539,8.376-0.958,8.566-4.283   c-1.495-2.584-3.593-4.565-7.342-4.895c0.327-1.917,2.282-2.205,4.283-2.447c2.594,1.396,5.463,3.271,9.178,1.835   c-1.518-4.162,2.471-7.032,6.73-7.343c1.178,5.757,5.128,8.741,11.626,9.178c2.443-3.194,4.158-10.042,1.223-13.461   c3.595-0.332,6.215,0.312,6.119,3.671c8.05-0.959,13.812-5.372,18.968,1.224c0.35,2.398-2.122,3.816-0.611,5.506   c5.041-4.502,6.627-12.537,16.521-9.178c-0.506,1.729,0.862,1.585,0.611,3.06c0.644,2.684-2.069,2.01-1.835,4.283   c-0.104,1.531,0.939,1.915,1.835,2.447c4.098-0.186,3.656-4.91,5.507-7.342c9.385,1.322,6.833,10.797,14.073,14.073   c2.546-1.941-0.893-9.867,4.283-9.178c1.327,1.973-2.257,6.276-0.612,8.566c4.73,2.473,8.746-1.034,10.402-3.671   c3.404-0.549,4.373,1.337,6.118,2.447c-0.372,2.279-1.295,4.007-2.447,5.507c3.855,5.43,15.228,2.485,21.416,6.73   c1.935,0.101,2.045-1.626,4.282-1.223c2.832,0.227,3.47,2.65,6.119,3.059c-0.484,1.964-2.222,2.674-3.06,4.283   c0.272,2.38,2.798,2.506,4.284,3.671c-0.705,2.561-1.046,5.664,1.223,6.73c6.833-0.039,10.012-6.519,15.909-5.507   c-0.646,5.337,2.308,7.074,7.342,6.731c0.444,1.871-1.056,1.8-0.612,3.671c0.868-0.052,1.734-0.101,1.836,0.612   c3.511-0.161,2.495-4.847,5.507-5.507c0.926,1.725,1.479,3.825,1.225,6.73c2.32,0.535,4.264,1.447,5.507,3.06   c2.863-0.196,2.108-4.01,4.283-4.895c4.756,2.79,5.191,9.901,11.013,11.625c0.496-0.116,0.61-0.613,1.224-0.612   c0.969-3.619-2.146-3.155-1.836-6.118c1.558,0.688,2.985,1.503,4.284,2.447c-0.099,7.237,5.92,8.357,7.954,13.461   c1.224,0,2.448,0,3.671,0c1.576-0.463,2.126-1.953,1.836-4.283c2.367-0.532,2.176,1.495,3.671,1.836   c-0.456,3.623-3.444,4.714-3.059,9.178c3.281,0.427,3.655-2.055,4.895-3.671c8.992,0.662,6.131,8.719-0.612,9.79   c-1.505,9.161,11.842,10.788,14.073,4.283c2.109,2.173,3.853,4.714,4.896,7.955c-2.759,1.117-1.845,5.907-6.119,5.507   c-2.766-0.09-2.624-3.087-3.671-4.895c-0.814,0.613-1.848,1.009-2.447,1.836c-7.899-2.094-10.564-9.425-17.133-12.849   c5.711-4.044,1.749-10.688-2.448-14.073c-1.474-0.25-1.329,1.117-3.059,0.612c1.134,3.113,0.437,6.042-1.225,7.955   c-1.86-0.586-3.659-1.235-5.507-1.835c-0.28-3.138,2.73-2.982,2.448-6.119c-2.557-3.358-4.811-7.018-7.342-10.402   c-1.476-0.25-1.331,1.117-3.061,0.612c0.995,4.7-2.64,5.083-1.224,8.566c-1.888-0.15-3.459-0.62-4.894-1.223   c2.821-4.674,3.664-12.628-4.284-12.238c-2.709,2.013,0.468,6.149-1.225,9.178c-1.861,0.463-6.035,0.062-8.565-0.612   c1.279-4.219,4.021-8.876,3.672-12.849c-2.462,0.599-2.549,3.57-6.119,3.06c-2.672-2.019-2.26-7.123-6.73-7.343   c-3.79,5.642,5.806,11.139,4.895,15.909c-9.768-0.635-8.7-12.104-15.297-15.909c-2.94,1.049-4.166,4.566-4.894,6.119   c1.435,3.353,7.269,5.243,6.117,9.178c-3.41,2.639-6.488-2.481-7.953-5.507c-2.506,0.554-4.953,1.167-5.508,3.671   c0.788,1.749,2.139,2.119,4.283,3.671c0.78,7.507-12.41,8.069-6.119,15.297c-1.025,2.441-2.92,4.015-3.059,7.343   c-1.975,0.547-0.86-1.996-1.836-2.448c-2.305,0.143-2.591,2.305-4.895,2.448c0,2.243,0,4.487,0,6.731   c-3.364,0.679-4.269,2.88-4.283,5.506c-2.789-1.108-5.366-1.722-7.343,0.612c0.065,1.567,0.347,2.917,1.224,3.671   c-3.496,3.376-11.126,5.403-9.79,11.625c-0.709,0.514-1.64,0.807-3.059,0.612c1.195,7.314-7.623,4.614-9.79,8.566   c1.459,2.007,0.82,6.114,4.895,5.506c-0.084,2.159-1.751,2.736-1.836,4.896c-2.64-0.012-2.254-3.048-4.894-3.06   c-2.572,2.023-2.581,4.634-1.836,7.954c1.758,0.127,3.107-0.155,3.671-1.224c0.245,2.907-0.26,10.337-3.671,11.625   c0.114,7.001,3.868,11.603,3.059,17.745c-4.622,4.962-13.505,5.666-17.132,11.626c-6.586,0.043-11.025,8.533-17.744,7.954   c-6.332-0.547-13.501,3.116-20.191-1.225c-0.095-2.788-0.507-2.4,0-4.895c-3.236,0.396-1.898,2.093-1.225,4.282   C237.829,190.703,246.75,178.574,242.774,180.12z M57.377,99.965c-1.02,0-2.039,0-3.059,0c-0.673,1.896-0.757,4.378-3.06,3.059   c0,0.816,0,1.632,0,2.447C55.504,105.842,57.524,103.986,57.377,99.965z M272.144,18.586c0.181,1.609-2.374,0.481-1.836,2.447   c3.539,0.95,7.598-2.496,10.401-4.283c-0.117-2.126-2.163-2.323-2.447-4.283C284.756,2.083,267.596,11.833,272.144,18.586z    M253.788,12.467c3.478,1.413,6.312,4.125,9.79,2.448C265.157,9.504,254.563,7.985,253.788,12.467z M245.833,19.809   c2.234,0.729,2.983-0.682,4.896-0.611c0.733-3.197,2.35-6.753-1.837-7.342C247.269,13.903,245.091,15.396,245.833,19.809z    M284.381,19.809c2.218,2.757,9.396,1.175,9.178-2.447c-2.368-1.219-0.721-4.082-2.447-4.895   C289.958,16.004,285.792,16.531,284.381,19.809z M220.135,22.257c1.956,2.23,1.877,2.693,2.447,6.119   c3.716-1.409,8.981-0.109,12.237-3.059c0-1.836,0-3.671,0-5.508C229.232,15.752,225.735,17.591,220.135,22.257z M251.34,21.646   c3.382,2.661,11.375,1.283,11.625-3.06C259.423,16.086,251.698,17.196,251.34,21.646z M294.783,24.093   c-2.271-3.044-6.836-1.865-8.565,1.224c2.406,1.672,4.656,3.501,8.565,3.671c1.909-1.091-0.195-2.397,1.224-3.671   c2.238,0.133,2.348,0.84,4.283,0c0.603-4.886-1.303-7.263-6.119-6.731C293.407,21.022,296.333,22.896,294.783,24.093z    M302.737,30.212c2.034-1.46,7.631-3.318,9.179,0c-1.914,0.125-4.492-0.413-5.508,0.611c-0.622,6.542,7.258,5.001,7.344,9.178   c3.011-0.047,4.018-2.1,5.506-3.671c-6.108-2.292-5.957-7.392-6.118-13.461C308.8,24.112,300.587,24.492,302.737,30.212z    M237.879,38.778c2.961-0.244,6.228-1.549,8.566-0.612c0.843-0.789,0.606-2.657,0.612-4.283c-1.902-1.361-5.433-1.094-6.119-3.671   c1.513-1.563,1.839-5.936-0.612-6.731c-2.106,2.584-6.166,3.215-5.507,8.566c3.316,0.848,3.599,0.409,5.507,0.611   C237.859,33.913,235.671,35.941,237.879,38.778z M247.057,32.659c2.029-0.498,4.075-3.28,3.06-4.895   c-1.674-1.793-4.459-2.476-6.731-3.671C243.073,28.485,243.569,32.068,247.057,32.659z M271.532,30.823   c1.187,1.874,5.114,1.005,6.118,3.06c-1.178,0.81-2.461-0.449-4.282,0.612c-1.735,4.305,4.102,7.553,8.566,5.506   c0.408-3.467-1.561-4.558-3.06-6.118C284.932,27.687,272.009,19.996,271.532,30.823z M260.518,26.541   c-0.849,0.375-0.092,2.355-1.224,2.447c-0.106-1.933-2.42-1.659-4.283-1.835c-0.935,3.448-1.501,5.409,1.224,7.342   c2.863-0.401,3.278-3.249,4.896-4.895c2.171,0.276,2.829,2.065,4.895,2.448c-0.434-2.269,1.045-2.626,0.612-4.895   C264.142,26.173,263.615,26.004,260.518,26.541z M316.198,32.047c2.574,0.689,4.401,2.125,7.344,2.447   c1.83-2.458,0.875-5.213-0.612-7.342c-3.019,0.366-3.713-1.59-6.731-1.224C315.464,28.466,315.973,28.551,316.198,32.047z    M286.217,37.554c0.874-2.184,2.174-3.944,2.447-6.73c-1.206-1.649-2.784-2.927-4.896-3.671   C280.411,30.133,280.946,36.977,286.217,37.554z M203.615,32.659c4.823,0.072,6.232,3.558,9.79,4.895   C221.236,31.105,205.692,22.95,203.615,32.659z M156.5,35.718C161.84,21.371,143.454,34.47,156.5,35.718L156.5,35.718z    M141.815,31.435c0.111,3.819,3.752,8.356,7.343,4.895c-0.731-3.348-1.792-6.366-5.507-6.73   C143.308,30.481,142.697,31.092,141.815,31.435z M218.911,37.554c0.889,0.946,3.132,0.539,4.895,0.612   c-1.306,2.29,0.072,3.477,1.223,4.895c2.243,0.203,3.4-0.679,4.895-1.223c-0.025-3.034-2.983-3.136-4.895-4.284   c-0.171-1.395,0.148-2.3,1.224-2.448c0.594,2.261,2.939,2.772,5.507,3.06c0.13-0.687,0.679-0.952,1.224-1.223   C232.705,29.916,217.887,29.48,218.911,37.554z M336.39,40.613c2.447-0.088,4.192,2.703,6.118,1.224   C350.072,33.558,331.792,26.443,336.39,40.613z M258.682,38.166c3.641,2.486,9.874-0.438,7.343-5.507   C262.255,33.172,258.261,33.46,258.682,38.166z M321.093,40.001c2.438,1.846,4.525,4.041,7.954,4.895   c3.307-3.338,3.123-8.089,0.612-12.237C325.841,34.144,324.292,37.896,321.093,40.001z M143.039,43.061   c0.396-6.107-3.439-7.981-7.342-9.79C135.899,38.157,137.88,41.729,143.039,43.061z M289.276,42.449   c-1.44,5.733,7.335,7.799,7.343,1.836C295.129,42.233,291.597,40.236,289.276,42.449z M300.29,43.061   c-0.695-3.18-0.833-6.917-1.835-9.79c-3.537,0.011-6.695,1.154-7.955,4.895c1.511,1.958,5.192,1.742,5.507,4.895   C297.906,43.864,297.752,42.895,300.29,43.061z M205.45,43.061c3.246,3.079,0.288,3.962,1.224,7.955   c6.868-7.175-0.577-16.256-8.566-17.132C192.49,42.018,202.806,40.554,205.45,43.061z M178.528,53.462   c-0.595-5.458-2.862-12.182-3.671-18.356c-0.612,0-1.224,0-1.835,0C170.568,42.333,168.764,55.105,178.528,53.462z M302.125,42.449   c2.486,1.354,5.788,1.146,7.954-0.611c-0.646-4.453-3.045-7.153-8.565-6.731C301.739,37.532,300.953,40.97,302.125,42.449z    M128.354,36.33c0.394,2.269,3.4,7.198,6.119,9.178c0.782-0.034,0.848-0.785,1.835-0.612   C136.691,39.33,132.345,35.514,128.354,36.33z M119.176,40.613c-0.933,3.832,3.154,5.775,6.119,7.342   C130.635,40.945,120.932,33.402,119.176,40.613z M145.486,40.613c-0.056,4.34,2.842,5.725,5.507,7.342   c0.402-0.821,1.308-1.14,2.447-1.224C155.206,41.381,150.153,36.66,145.486,40.613z M213.405,43.061   c2.855,0,4.283-1.427,4.283-4.283C214.831,38.777,213.404,40.205,213.405,43.061z M86.748,43.673   c1.471,3.712,9.594,3.751,11.625,4.895c0.779-1.802-0.2-3.859-0.612-6.119C93.996,41.017,87.918,38.091,86.748,43.673z    M251.34,40.613c-2.676,1.747-0.863,7.151,3.06,6.119c0.129-0.687,0.679-0.953,1.224-1.224   C255.704,42.368,254.11,40.903,251.34,40.613z M240.326,43.673c2.015,1.61,5.919,5.221,8.566,2.447   C249.371,42.053,241.294,38.846,240.326,43.673z M159.56,54.075c1.988,0.458,3.787,1.107,5.506,1.835   c4.613-2.794,2.563-6.132,2.447-12.85C158.002,37.536,156.035,49.257,159.56,54.075z M232.984,47.956   c3.118,1.478,6.06-1.945,6.119-5.507C235.336,40.012,232.093,45.736,232.984,47.956z M310.692,49.791   c3.775-1.06,7.149,1.124,8.565-2.447c0.987,1.664,0.393,4.911,1.836,6.118c4.411-0.113,5.043-4.992,2.448-7.342   c-1.626,0.006-3.495-0.231-4.284,0.612C319.074,37.694,309.797,43.82,310.692,49.791z M106.939,47.344   c0.946-1.923,0.391-3.414-0.612-4.896C100.949,41.101,101.971,48.942,106.939,47.344z M196.271,52.851   c-1.618-3.765,1.224-8.376-0.611-9.79C192.385,44.937,191.081,51.944,196.271,52.851z M258.071,47.956   c0.886,0.287,6.089,0.662,6.118-1.835c0-0.408,0-0.816,0-1.224c-1.243-1.408-3.66-1.641-6.118-1.835   C257.171,43.951,257.171,47.066,258.071,47.956z M343.733,48.567c1.443,3.86,1.206,9.399,7.342,8.567   C357.857,50.5,346.721,36.724,343.733,48.567z M281.322,43.673c-1.275,3.195-5.091,0.972-7.954,1.223   c0.626,4.88,4.557,6.457,5.507,11.014c3.018-1.469,7.822-1.152,8.565-4.895C285.241,48.728,285.694,43.787,281.322,43.673z    M75.122,48.567c0.923,1.485,7.175,2.206,7.955,0C81.761,44.872,75.385,42.142,75.122,48.567z M118.565,48.567   c-1.612-11.268-14.87,4.539-1.836,5.507C117.632,51.466,118.97,51.405,118.565,48.567z M221.971,53.462   c1.037-2.227,1.605-4.921,1.835-7.954C212.872,38.942,209.854,59.382,221.971,53.462z M298.455,49.18   c2.714,1.275,6.224,2.51,9.789,1.224c0.253-2.904-2.31-2.993-2.447-5.507C301.177,44.312,296.836,43.912,298.455,49.18z    M184.034,60.193c5.095-0.826,5.631-6.895,3.671-11.625c-3.425-0.246-4.169-3.173-7.342-3.671   C181.25,49.347,179.46,56.287,184.034,60.193z M203.615,49.791c-0.44-3.064,0.442-3.669-1.836-4.895   C200.197,45.872,200.641,49.961,203.615,49.791z M237.879,51.626c3.446,0.277,6.282,1.31,7.955-1.223   C245.597,44.395,235.729,47.095,237.879,51.626z M267.861,56.522c2.639-0.983,3.868-6.118,2.447-9.178   c-0.782-0.034-0.848-0.785-1.836-0.612C266.711,48.214,264.015,55.094,267.861,56.522z M51.259,55.298   c3.021-0.649,4.227-3.115,8.566-2.447C63.784,43.605,49.878,49.169,51.259,55.298z M251.952,48.567   c-3.061,4.953,3.188,6.143,4.896,6.73c-1.496,5.238-2.112,9.163-0.612,14.685c3.899-2.424,7.024-11.826,1.836-14.685   c-1.031-2.041,0.389-2.089,0.611-4.283C257.165,49.655,253.634,47.811,251.952,48.567z M329.66,55.91   c2.7,0.18,4.851-4.397,3.671-7.343C326.275,45.405,324.423,55.56,329.66,55.91z M336.39,54.075   c3.163,0.511,4.115-1.188,5.507-2.448c-0.77-2.697-3.007-3.927-6.731-3.671C335.065,50.505,334.954,53.062,336.39,54.075z    M125.907,48.567c-3.707,2.14-0.576,14.479,4.896,9.178C130.452,53.405,129.915,49.251,125.907,48.567z M140.592,49.791   c0.594,2.057,1.74,3.562,3.059,4.895c3.947-0.132,6.01-2.148,7.343-4.895C146.725,49.015,143.959,49.992,140.592,49.791z    M84.299,50.403c0,0.816,0,1.631,0,2.447c3.591,0.488,4.616,3.542,8.566,3.671c0.942-0.69,1.505-1.758,2.448-2.447   C94.613,50.184,88.447,48.846,84.299,50.403z M229.924,62.028c2.33-1.137,6.917-0.017,6.119-4.283   c-8.441,3.112-2.978-5.263-7.342-7.955c-1.184,0.857-1.173,2.907-3.06,3.06c0.195,1.437,0.967,2.297,0.612,4.284   c1.137,1.432,3.791,1.345,4.283,1.835C228.979,59.031,229.091,61.249,229.924,62.028z M289.888,57.746   c1.017,1.227,1.643,2.844,3.671,3.06c1.814-2.673,4.598-4.377,7.955-5.507c-1.807-3.497-6.469-4.138-10.402-5.507   C290.862,52.131,290.984,54.917,289.888,57.746z M100.82,56.522c2.838,0.187,4.229-1.073,4.283-3.671   c-0.338-1.701-2.366-1.713-3.672-2.447C99.851,52.229,99.334,54.355,100.82,56.522z M135.085,58.97   c1.897,0.061,2.923-0.749,4.283-1.224C141.155,45.854,128.628,52.07,135.085,58.97z M231.76,53.462   c1.757,1.26,5.373,4.91,6.73,1.224c-1.917-1.346-2.431-4.096-5.507-4.283C232.722,51.568,231.666,51.94,231.76,53.462z    M310.692,54.686c1.089,2.174,3.995,2.531,5.506,4.284c0.922-1.119,2.641-1.44,3.672-2.448   C321.695,48.489,311.711,49.809,310.692,54.686z M57.377,58.357c-0.083,1.14-0.402,2.045-1.224,2.448   c0.072,2.58,2.208,3.095,3.06,4.895c7.676-0.464,21.391,2.412,26.922-5.507c-4.35-3.319-7.281,1.543-11.014,2.448   c-1.802-1.661-7.515-1.439-9.79,1.223c-0.723-0.296-1.387-0.652-1.835-1.223c0.692-5.019,9.327-2.095,12.237-4.895   c-1.055-0.734-4.157-0.747-2.447-2.448c2.817-3.507,7.287,2.635,11.625,0.612C75.649,48.961,66.715,55.671,57.377,58.357z    M242.163,58.97c1.768,2.311,4.505,3.652,7.342,4.894c-0.154-3.331-0.863-8.619-3.06-11.625   C245.581,55.045,243.045,56.181,242.163,58.97z M32.291,60.805c4.072,1.601,6.83-2.244,6.73-6.73   c-0.873-0.146-1.032-1.008-1.835-1.224C36.452,56.4,34.32,58.551,32.291,60.805z M205.45,65.7   c3.115-3.353,4.662-7.351,1.835-12.238c-1.835,0-3.671,0-5.507,0C202.829,57.715,203.157,62.69,205.45,65.7z M330.882,58.357   c0.646,1.599,3.332,1.156,4.896,1.835c1.085-0.965,3.75-2.189,2.448-3.671c-0.816-1.02-2.721-0.951-3.671-1.836   C333.867,56.446,331.238,56.265,330.882,58.357z M146.71,58.357c-1.51,3.182,1.13,5.752,5.506,4.895   c1.013-2.046,2.165-3.954,1.836-7.342c-0.783-0.034-0.848-0.785-1.836-0.612C151.879,57.815,149.722,58.514,146.71,58.357z    M195.66,63.252c2.542,0.097,3.684-7.051,1.224-7.955C195.394,57.012,194.161,60.353,195.66,63.252z M184.646,64.476   c1.456,4.458,3.875,7.954,6.731,11.014c2.771-2.532,1.227-6.074-0.612-8.566c1.113-2.246,1.808-6.451,0.612-9.178   c-0.783-0.034-0.848-0.785-1.836-0.611C190.469,62.14,185.798,61.549,184.646,64.476z M302.125,60.805   c-0.489,0.893,0.828,1.52,0.611,2.447c-0.526,2.255-4.09,3.767-2.447,5.506c1.243,1.41,2.94,2.363,4.283,3.672   c2.282,0.65,0.969-2.294,3.06-1.835c-0.91,3.357,2.21,2.685,2.447,4.895c-0.569,1.47-2.459,1.62-1.836,4.283   c0.687,0.129,0.953,0.679,1.224,1.224c2.841-0.22,4.035-2.085,4.896-4.284c-0.714-0.917-1.768-1.496-1.836-3.06   c1.536-1.319,2.145-3.566,3.671-4.895c0.354,9.776,18.176,3.561,10.402-2.447c-0.513,2.343-2.342,3.369-4.283,4.283   c-1.649-1.206-2.927-2.785-3.671-4.895c-2.094-0.258-1.839,1.832-3.06,2.447c-2.026-2.146-7.107-1.573-7.954,0.611   c0.322-2.859-1.61-2.647-2.447-5.506c2.232,0.397,3.259-0.412,4.282-1.224C308.432,54.452,304.178,57.059,302.125,60.805z    M42.081,58.357c-0.047,3.106,3.003,3.116,4.283,4.895c1.774-1.249,1.234-4.058,0-5.507C44.377,57.391,43.517,58.163,42.081,58.357   z M176.081,79.773c5.261-7.397-0.178-19.09-7.343-21.416C173.271,64.75,170.942,74.602,176.081,79.773z M108.775,63.864   c1.061,1.795,2.869,2.842,5.506,3.06c1.823-1.26,0.573-5.543,0-7.954C110.619,58.774,109.189,60.812,108.775,63.864z    M212.792,72.431c1.569,1.286,3.849,1.861,6.119,2.447c1.972-3.535,2.518-8.496,3.06-13.461c-2.573-0.487-4.386-1.732-7.343-1.835   C214.392,63.219,213.379,67.574,212.792,72.431z M103.268,64.476c-1.263-3.02-4.793-3.773-8.566-4.283   C95.528,63.373,99.787,65.943,103.268,64.476z M271.532,71.207c3.064,0.004,2.187-3.933,4.896-4.284   c1.208,3.679-2.881,6.193-2.448,11.014c3.587-2.736,5.784-6.862,6.119-12.85c-3.877-0.803-3.164-3.492-5.507-4.895   C272.947,63.196,268.552,67.322,271.532,71.207z M316.198,61.417C304.016,56.675,315.157,74.276,316.198,61.417L316.198,61.417z    M320.482,67.536c3.308-0.364,5.851-1.492,6.118-4.895C323.665,59.139,317.475,63.29,320.482,67.536z M121.624,62.641   c2.77,2.652-1.8,8.93,1.836,9.79C125.642,69.959,127.83,60.143,121.624,62.641z M284.381,69.983   c0.63-1.841,2.175-5.952,3.671-4.895c-0.326,1.714-0.898,3.181-1.224,4.895c3.817,0.351,2.962-3.973,4.283-6.119   c-1.723-0.521-2.511-1.976-4.895-1.835C285.469,64.155,282.591,67.352,284.381,69.983z M238.491,73.654   c1.819-1.886,1.295-6.428,0.612-9.178c-1.179-0.861-2.462-1.617-4.284-1.835C232.441,66.099,233.021,72.555,238.491,73.654z    M41.469,65.088c0.28-1.912-1.307-1.956-3.059-1.835C38.366,65.086,40.209,66.357,41.469,65.088z M162.62,71.818   c1.892,1.779,3.027,4.314,6.73,4.284c1.804-5.049-2.256-11.067-7.343-12.85C160.527,66.593,164.329,67.493,162.62,71.818z    M131.414,71.207c1.013-2.047,2.164-3.955,1.835-7.343c-0.815,0-1.631,0-2.447,0C130.031,66.24,128.493,70.011,131.414,71.207z    M261.742,77.325c2.286-0.237,7.766-10.021,3.06-13.461C263.445,67.28,257.785,72.646,261.742,77.325z M330.272,69.983   c3.553,0.691,3.96,5.697,8.565,4.283c0.53-2.773-3.057-1.431-3.06-3.671c0.204-2.244,2.425-2.47,1.836-5.507   C334.184,62.189,329.756,65.277,330.272,69.983z M132.638,74.878c3.235,0.57,8.771-7.122,6.119-10.402   C136.964,68.191,134.08,70.814,132.638,74.878z M153.441,74.878c1.761,0.6,4.861,2.035,6.73,0.612   c-1.122-4.181-2.697-7.908-6.118-9.79C153.381,68.386,152.304,72.209,153.441,74.878z M199.943,65.7   c-4.436,0.522-3.622,10.469,1.835,9.79C203.036,72.592,202.703,66.562,199.943,65.7z M339.45,67.536c0,1.427,0,2.855,0,4.283   c1.927-0.295,1.385,1.878,3.671,1.224c1.332-1.32,2.363-2.939,2.447-5.507C343.771,65.522,341.433,65.686,339.45,67.536z    M246.445,80.385c0.93-3.658,4.669-13.757-1.835-14.073C242.523,71.149,242.229,77.57,246.445,80.385z M143.651,76.102   c2.196,0.36,2.96-0.711,4.283-1.224c0.139-3.402-0.151-6.375-2.448-7.342C143.494,69.323,141.059,73.271,143.651,76.102z    M207.286,76.713c3.311-0.549,1.477-6.183,0-7.342C205.677,71.551,206.587,73.811,207.286,76.713z M226.866,75.49   c-0.446-1.39,1.102-4.773-1.224-4.283C224.391,72.53,225.432,75.012,226.866,75.49z M183.423,84.056   c4.606-1.603,4.821-13.134-1.224-11.013C185.867,75.524,179.758,81.324,183.423,84.056z M290.5,73.654   c-0.673,8.06,6.209,4.349,10.402,3.06C300.233,72.486,293.749,71.796,290.5,73.654z M281.322,77.325   c1.084,0.548,0.779,2.483,3.06,1.835c1.057-1.391,2.531-2.364,2.447-4.895c-0.873-0.147-1.031-1.008-1.836-1.224   C283.809,74.509,281.558,74.911,281.322,77.325z M114.893,76.713c0.889-0.334,3.163,0.715,3.06-0.611   c-0.95-0.141-2.855-2.353-3.671-0.612C114.758,75.625,114.993,76.002,114.893,76.713z M331.495,82.833   c2.505-0.759,3.364-3.164,3.061-6.73C329.526,71.167,326.597,81.429,331.495,82.833z M76.958,78.549   c-0.899,3.898,1.216,9.139,2.447,12.85c2.447-0.203,3.396,1.091,6.119,0.612c1.234-1.417,2.392-2.911,4.284-3.671   c-0.807-4.7-2.513-8.501-4.896-11.626C81.062,76.127,79.277,77.606,76.958,78.549z M314.975,77.325   c-0.435,2.27,1.045,2.626,0.611,4.895c2.368-0.531,2.177,1.495,3.671,1.835c1.022-1.017,2.478-1.602,2.447-3.671   C319.754,78.978,318.396,75.435,314.975,77.325z M161.396,79.161c0.823,3.869,3.766,5.616,4.895,9.179   c2.808,0.158,2.956,0.65,5.507,0c-0.361-6.166-4.643-8.411-8.566-11.014C162.888,78.207,162.277,78.819,161.396,79.161z    M268.472,82.833c0.866-1.785,2.294-3.009,2.448-5.507C266.342,75.764,265.254,81.942,268.472,82.833z M297.23,83.444   c0.932,1.313,2.612,1.875,3.672,3.06c2.782-0.889,4.335-3.008,4.895-6.119c-0.821-0.402-1.14-1.308-1.224-2.447   c-1.625-0.007-3.494,0.231-4.283-0.612C300.522,80.617,297.128,80.283,297.23,83.444z M335.778,78.549   c-0.195,2.439-0.032,4.521,1.224,5.507c3.229-0.035,4.832-1.694,4.283-5.507C339.651,77.131,337.87,77.617,335.778,78.549z    M124.071,81.608c1.001-0.991,0.737-3.843-1.224-3.671C121.906,78.869,121.757,82.133,124.071,81.608z M67.167,84.056   c3.289,0.101,2.192-6.733-1.224-5.507C65.754,80.982,67.357,81.623,67.167,84.056z M146.71,87.115   c4.223-6.25-4.557-7.194-7.954-7.955C138.525,84.695,141.935,86.588,146.71,87.115z M130.19,80.385   c-0.137,1.157,0.689,1.35,0.612,2.448c1.752,0.12,3.339,0.076,3.059-1.835C133.849,79.32,130.975,79.543,130.19,80.385z    M152.217,80.997c-0.112,4.749,3.884,7.129,7.343,4.895C159.792,80.782,155.862,79.006,152.217,80.997z M191.989,85.28   c0.86,0.16,0.698,1.342,1.224,1.835c3.699-1.245,2.896-4.115,2.447-7.342c-0.612,0-1.224,0-1.836,0   C193.219,81.615,191.66,82.503,191.989,85.28z M288.052,82.833c-0.245,3.483,3.697,5.374,8.566,3.671   C297.656,79.471,288.361,78.461,288.052,82.833z M273.979,88.339c2.787,0.272,3.3,2.819,5.508,3.671   c0.134-0.477,0.512-0.711,1.223-0.612c0.487-3.568,0.747-10.373,0.612-11.014C277.874,82.035,275.518,84.779,273.979,88.339z    M119.176,86.503c0.705-0.723,0.692-2.163,0.612-3.671C115.454,80.124,113.917,87.119,119.176,86.503z M308.856,85.28   c1.205,2.262,2.421,4.513,6.73,3.671c2.015-2.585,0.144-3.884-0.611-6.73C311.574,81.878,309.139,82.503,308.856,85.28z    M180.975,93.234c-0.917-2.27,1.839-9.759-3.059-10.401C175.966,85.429,174.662,93.156,180.975,93.234z M206.062,93.234   c1.174-3.129,2.306-5.918,1.224-9.79C201.426,82.558,200.703,92.879,206.062,93.234z M337.614,87.728   c0.538-4.618-3.759-4.4-7.954-4.284C329.387,87.529,334.221,89.294,337.614,87.728z M256.235,93.846   c4.416,0.936,5.046-5.134,3.672-7.954C258.001,87.861,256.107,89.842,256.235,93.846z M318.646,88.951   c0.732,5.071,9.869,4.237,9.178-1.835C325.493,85.109,319.216,85.611,318.646,88.951z M129.578,87.728   c-1.167-0.261-1.107-1.749-3.06-1.224C125.587,89.151,129.314,89.806,129.578,87.728z M165.066,104.86   c1.817-4.254,2.406-9.79,1.835-13.461c-2.427,0.184-1.745-2.741-4.282-2.448C163.379,95.246,158.941,102.758,165.066,104.86z    M283.158,93.234c2.983,2.659,7.686,0.583,8.566-2.448C289.443,87.818,283.028,88.686,283.158,93.234z M311.303,93.234   c-0.417-3.509-4.866-5.81-9.178-3.671C290.458,95.351,312.845,106.211,311.303,93.234z M139.98,91.398   c-0.012,3.274,0.134,6.393,3.059,6.731c3.613-0.716,4-4.189,2.447-7.343C143.238,89.521,142.101,90.95,139.98,91.398z    M149.77,91.398c-0.345,5.24,3.041,6.75,7.342,7.342c-0.516-2.556,1.189-2.89,1.224-4.895   C156.472,91.307,153.196,89.077,149.77,91.398z M290.5,96.905c-2.137-0.515-3.258-2.045-6.118-1.835   c-0.844,0.789-0.605,2.658-0.612,4.283c2.195-0.155,2.242,1.837,4.283,1.836c2.232-2.254,5.123-3.851,8.566-4.895   c0.37-3.227-0.863-4.847-3.06-5.507C291.537,91.824,292.5,95.846,290.5,96.905z M325.988,96.293c2.006,0.034,2.34,1.74,4.895,1.224   C337.329,91.989,325.296,87.383,325.988,96.293z M110.61,92.01c-0.137,2.177,0.413,3.667,1.835,4.283   c0.16-0.86,1.342-0.698,1.835-1.224C114.33,92.35,112.98,90.664,110.61,92.01z M172.409,103.024   c2.395,0.355,3.553-0.526,4.895-1.224c0.276-3.335-1.091-5.027-0.611-8.566C168.547,90.698,170.036,100.07,172.409,103.024z    M318.646,93.846c0.196,3.679,2.271,5.48,6.73,4.895C326.182,94.313,321.591,92.541,318.646,93.846z M84.299,101.188   c0.981-1.58-0.226-5.201-3.059-4.895C81.777,98.408,82.527,100.31,84.299,101.188z M182.811,104.248   c0.569-1.168,1.762-7.189-0.612-7.342C180.838,98.774,177.324,104.1,182.811,104.248z M310.08,107.918   c2.311,0.935,4.488,2.806,6.73,0.612c0.442-1.87-0.625-2.229-0.612-3.671c-0.425-1.419-4.879,1.81-4.895-1.224   c1.404-1.859,5.672-0.855,4.895-4.895C309.523,95.885,309.165,104.311,310.08,107.918z M185.258,105.471   c1.442,0.189,1.139,2.125,3.06,1.836c1.654-1.812,3.068-3.866,3.06-7.342c-1.28-0.353-1.747-1.517-3.672-1.224   C187.133,101.228,185.41,102.564,185.258,105.471z M292.947,103.636c-1.281,6.695,11.533,10.332,12.238,0.612   C303.007,99.587,293.973,98.282,292.947,103.636z M153.441,110.366c2.702-1.174,3.181-4.569,3.06-8.566   C149.525,98.503,147.93,108.837,153.441,110.366z M319.87,107.307c1.67,0.446,1.231-1.216,2.447-1.224   c-0.15-2.909-1.044-5.075-4.283-4.895C316.847,102.973,317.169,107.48,319.87,107.307z M144.263,110.978c1.02,0,2.04,0,3.06,0   c1.856-2.677,0.262-5.821,1.223-8.566C141.904,100.121,141.646,107.074,144.263,110.978z M274.591,106.083   c0.434,2.27-1.046,2.626-0.612,4.895c5.518,1.062,10.062,3.022,14.073,0C287.637,99.15,283.082,104.395,274.591,106.083z    M163.843,117.097c3.087-0.992,4.922-3.236,4.283-7.955C161.886,105.434,159.171,114.862,163.843,117.097z M302.737,112.813   c0.567,3.538,3.77,4.366,6.73,2.448c-0.354-1.986,0.417-2.847,0.612-4.283C307.066,108.072,305.285,111.82,302.737,112.813z    M290.5,116.485c1.444-1.601,3.862,0.998,6.119,0.612c0.297-0.723,0.652-1.387,1.224-1.836   C297.54,109.441,286.393,112.071,290.5,116.485z M310.08,118.321c1.021,0,2.039,0,3.06,0c0.387-2.061,1.757-3.138,1.224-6.119   C311.486,110.538,308.869,115.796,310.08,118.321z M154.053,119.544c1.522-0.094,1.894,0.962,3.059,1.224   c0.446-2.205,2.337-2.966,1.836-6.118C156.469,110.119,151.151,115.147,154.053,119.544z M174.244,126.887   c1.942-1.118,2.133-3.986,3.06-6.119c-2.007-1.256-2.529-3.998-5.506-4.283C169.784,119.145,171.017,125.777,174.244,126.887z    M277.039,126.275c6.15,4.599,9.843-3.062,6.119-9.178c-0.612,0-1.224,0-1.836,0C281.269,121.531,276.475,121.225,277.039,126.275z    M286.217,120.768c2.101,0.955,5.993,0.865,6.729-2.447C290.554,116.575,285.917,116.637,286.217,120.768z M308.856,124.439   c3.958-5.123-0.494-7.075-5.507-7.342C301.435,121.351,306.086,124.562,308.856,124.439z M293.559,121.38   c1.243,1.849,3.829,2.16,5.507,0.612C299.612,117.265,293.322,116.416,293.559,121.38z M163.231,127.499   c1.786,0.662,3.525,1.37,6.119,1.224c0.527-5.422-0.87-8.921-5.507-9.179C162.967,121.724,162.876,125.863,163.231,127.499z    M149.77,124.439c1.916-0.327,2.205-2.282,2.447-4.283C149.532,119.714,149.771,122.197,149.77,124.439z M294.783,131.17   c0.824,1.012,1.564,2.107,3.06,2.448c4.359-1.884,3.983-5.04,3.672-11.014c-0.612,0-1.225,0-1.836,0   C299.397,126.81,294.159,126.058,294.783,131.17z M160.783,131.782c0.345-2.792-1.084-3.811-0.612-6.731   c-1.927,0.296-1.385-1.878-3.671-1.224C153.495,125.865,154.751,136.442,160.783,131.782z M292.947,126.275   c-2.654-5.302-8.195,0.641-4.895,4.895C291.773,131.627,292.08,128.67,292.947,126.275z M173.633,135.453   c0.888-2.548,1.88-5.22-1.835-5.506C171.592,131.977,170.785,135.071,173.633,135.453z M165.678,139.125   c2.196,0.36,2.96-0.711,4.283-1.224c-0.728-3.555-0.802-7.764-5.506-7.342C163.44,132.671,164.326,137.416,165.678,139.125z    M282.545,138.513c2.032-0.416,4.336-0.559,4.895-2.448C288.689,128.774,275.984,132.093,282.545,138.513z M293.559,144.019   c2.159-1.513,3.281-4.061,3.671-7.343C290.329,131.56,284.696,143.395,293.559,144.019z M158.948,142.795   c2.425-0.226,3.529-1.774,4.283-3.671c-1.13-1.317-1.789-3.107-4.895-2.448C157.545,139.603,157.73,140.544,158.948,142.795z    M169.35,145.243c1.326,0.917,1.425,3.062,3.671,3.059c0.71-2.349,2.285-3.833,1.835-7.342c-1.684-0.355-2.556-1.523-4.283-1.835   C171.887,142.263,170.221,142.884,169.35,145.243z M280.098,140.96c-0.155,2.088-1.548,2.94-1.224,5.506   c4.337,2.544,10.004-3.701,7.343-6.118C285.742,143.669,281.929,141.532,280.098,140.96z M296.006,148.302   c-0.396,2.233,0.413,3.259,1.224,4.283c1.863,0.027,2.379-1.292,3.672-1.835c0.443-1.872-1.056-1.8-0.612-3.671   C298.393,147.017,297.367,147.826,296.006,148.302z M177.304,152.585c1.279-1.585,0.685-5.215-1.835-4.895   C175.37,150.032,175.103,152.542,177.304,152.585z M289.276,153.809c1.428-1.776,4.811-2.967,3.06-6.118   C287.542,146.11,285.752,152.549,289.276,153.809z M172.409,158.705c3.976-1.844,0.773-7.73-2.447-7.955   C169.068,154.351,169.209,157.733,172.409,158.705z M288.052,162.375c0.816,0,1.632,0,2.447,0c0.936-1.947,0.215-2.692,0-4.896   C287.561,156.902,286.798,160.675,288.052,162.375z M297.23,164.823c-0.14-2.754,4.088-6.374-0.611-6.731   C295.857,159.425,293.719,164.732,297.23,164.823z M169.961,170.941c2.266-0.386,3.412-1.892,3.06-4.895   C168.599,162.621,166.413,168.472,169.961,170.941z M279.487,170.33c1.165,0.263,1.536,1.317,3.059,1.224   c0.544-1.088,1.708-1.555,1.224-3.671c-0.723-0.705-2.163-0.693-3.671-0.612C280.604,169,279.236,168.855,279.487,170.33z    M289.888,172.166c1.279,0.353,1.746,1.517,3.671,1.224C293.959,170.053,290.754,169.86,289.888,172.166z M270.92,177.672   c1.4,1.126,4.988,2.367,6.729,1.223c-0.388-3.078-3.917-3.016-6.118-4.283C271.018,175.323,270.725,176.252,270.92,177.672z    M283.158,175.224c0.469,1.979,1.693,3.202,3.671,3.671c-0.543-2.232,1.081-3.259,0-4.283   C285.321,174.533,283.88,174.519,283.158,175.224z M175.468,177.06c-1.084-0.548-0.78-2.483-3.06-1.836   C172.111,176.804,174.573,178.693,175.468,177.06z M253.175,178.283c1.089,0.545,1.556,1.709,3.672,1.225   c-0.204-1.427-0.627-2.636-1.836-3.059C254.944,177.605,252.988,176.874,253.175,178.283z M171.186,182.567   c0.948,0.684,1.274,1.989,3.059,1.835c-0.004-1.83-1.099-2.571-2.447-3.059C171.799,181.957,171.301,182.071,171.186,182.567z    M146.71,184.402c1.936-0.099,2.045,1.626,4.283,1.225C151.106,182.749,147.229,181.718,146.71,184.402z M163.231,183.792   c2.151,0.091,1.47,3.016,4.283,2.446c0.837-0.782,0.837-2.888,0-3.671C165.917,182.805,164.157,182.88,163.231,183.792z"/>
	<path fill-rule="evenodd" clip-rule="evenodd" d="M404.919,170.33c-9.623,0.258-37.242,5.023-53.845,0   c-6.348-1.921-16.527-7.404-16.52-15.296c0.004-4.715,3.742-5.715,4.895-10.402c17.692-5.67,22.888,9.325,35.487,14.074   c14.875,0.895,35.047-0.422,44.667-9.79c-3.726-5.249-12.31-5.64-17.744-9.179c-14.054-2.761-25.328-3.531-34.876-8.566   c-12.228-6.447-20.238-18.484-34.266-23.863c-9.907,6.591-19.801,18.655-24.475,32.429c-0.76,2.238-0.337,5.411-1.224,7.955   c-0.942,2.702-3.338,4.768-3.671,6.73c-0.957,5.647,3.918,10.796,3.671,15.909c-2.878,4.756-8.582,8.684-14.685,12.237   c-12.607,7.341-33.435,18.348-52.009,8.566c-8.116-8.521,1.821-14.042,7.343-18.968c6.565-0.145,11.75,3.155,17.743,1.836   c4.071-0.897,12.679-5.915,13.462-9.791c0.718-3.556-2.353-5.122-4.283-8.567c-6.749-12.034-5.474-36.187-8.566-52.62   c-5.737-2.369-16.336,0.018-22.027-4.283c-25.306-0.219-33.873,16.3-57.515,17.745c-2.56,9.911-1.397,22.59-2.448,34.876   c-0.691,8.079-2.976,16.235-3.059,23.863c-0.023,2.11,0.895,4.096,0.612,6.119c-0.847,6.066-9.347,18.854-14.074,19.58   c-2.932,0.449-6.934-0.94-11.625-1.225c-9.661-0.583-18.238,0.219-23.863-7.342c-1.75-10.221,6.188-17.189,15.297-15.908   c2.615,0.367,3.615,2.768,6.118,2.446c11.451-1.463,5.112-19.735,1.835-26.922c-5.616-12.316-10.954-28.529-15.908-40.995   c-6.838,1.509-12.237-1.764-17.745,0c-5.995,14.437-17.552,24.83-27.534,36.712c-5.636,6.708-13.42,14.513-18.356,23.25   c-1.941,3.438-1.28,6.237-3.671,7.954c-1.983,1.427-18.461,3.784-22.639,3.672c-5.878-0.158-13.537-4.702-14.685-7.343   c-1.406-3.235,0.245-6.453,2.448-10.401c6.319-4.357,13.046-2.57,18.355-4.896c4.926-2.158,6.236-6.896,11.626-9.79   c6-12.151,11.06-25.244,17.132-37.324c-9.819-11.242-27.12-5.785-37.936,0.612c-1.416,2.459-1.338,6.412-1.224,10.402   c-4.899,9.514-20.151,8.467-24.475-0.612c0.28-2.983,2.579-3.947,3.671-6.118c-8.533,3.383-17.982-0.478-23.863-6.119   c-2.352-10.124,4.648-20.009,7.955-29.981c1.404-4.237,1.247-9.669,3.059-12.85c4.563-8.008,22.642-23.922,32.429-26.922   c10.04-3.078,26.772-1.44,39.16-3.671c3.8-0.684,7.292-3.836,11.014-2.448c1.934-0.759,0.115-1.779,1.835-3.059   c15.396-3.093,28.13-13.098,44.667-17.132c4.245-1.036,10.195-1.631,15.296-2.448c10.345-1.657,18.076,3.446,29.981,3.671   c23.604,0.445,39.112-14.106,60.575-15.297c7.743-0.429,19.588-1.238,26.923-0.611c1.707,0.146,3.52,1.559,5.507,1.835   c4.665,0.649,8.159,0.457,13.461,1.835c5.325,1.385,8.062,3.785,14.072,6.119c7.279,2.827,14.86,3.678,22.028,6.73   c3.404,1.45,5.429,2.746,9.178,3.671c3.188,0.787,7.081,3.381,10.401,5.507c3.645,2.333,7.175,3.216,10.402,4.895   c2.553,1.328,4.157,3.985,6.731,5.507c4.415,2.613,10.025,3.106,14.684,5.507c1.569,0.809,2.596,2.873,4.284,3.671   c2.365,1.117,5.671,1.184,8.565,2.447c2.091,0.913,4.149,3.057,6.118,3.671c5.966,1.86,11.204,3.121,16.521,6.731   c3.068,2.083,6.309,5.967,9.79,8.566c8.661,6.466,14.993,11.935,20.804,21.416c3.238,5.284,5.023,11.213,8.566,15.908   c4.306,17.109-0.987,27.609-8.566,40.996c-1.701,11.053-1.302,30.869-9.179,35.488C429.079,185.222,392.906,186.112,404.919,170.33   z M246.445,189.909c-0.674-2.189-2.012-3.887,1.225-4.282c-0.507,2.494-0.095,2.106,0,4.895c6.69,4.341,13.859,0.678,20.191,1.225   c6.719,0.579,11.158-7.911,17.744-7.954c3.627-5.96,12.51-6.664,17.132-11.626c0.81-6.142-2.944-10.743-3.059-17.745   c3.411-1.288,3.916-8.718,3.671-11.625c-0.563,1.069-1.913,1.351-3.671,1.224c-0.745-3.32-0.736-5.931,1.836-7.954   c2.64,0.011,2.254,3.048,4.894,3.06c0.085-2.159,1.752-2.736,1.836-4.896c-4.074,0.608-3.436-3.499-4.895-5.506   c2.167-3.952,10.985-1.252,9.79-8.566c1.419,0.195,2.35-0.099,3.059-0.612c-1.336-6.222,6.294-8.249,9.79-11.625   c-0.877-0.754-1.158-2.104-1.224-3.671c1.977-2.334,4.554-1.72,7.343-0.612c0.015-2.626,0.919-4.828,4.283-5.506   c0-2.244,0-4.488,0-6.731c2.304-0.143,2.59-2.305,4.895-2.448c0.976,0.452-0.139,2.995,1.836,2.448   c0.139-3.328,2.033-4.901,3.059-7.343c-6.291-7.228,6.899-7.79,6.119-15.297c-2.145-1.552-3.495-1.922-4.283-3.671   c0.555-2.504,3.002-3.118,5.508-3.671c1.465,3.025,4.543,8.146,7.953,5.507c1.151-3.935-4.683-5.825-6.117-9.178   c0.728-1.553,1.953-5.07,4.894-6.119c6.597,3.806,5.529,15.274,15.297,15.909c0.911-4.771-8.685-10.268-4.895-15.909   c4.471,0.221,4.059,5.324,6.73,7.343c3.57,0.51,3.657-2.46,6.119-3.06c0.35,3.972-2.393,8.63-3.672,12.849   c2.53,0.674,6.704,1.075,8.565,0.612c1.692-3.029-1.484-7.166,1.225-9.178c7.948-0.39,7.105,7.563,4.284,12.238   c1.435,0.603,3.006,1.073,4.894,1.223c-1.416-3.483,2.219-3.866,1.224-8.566c1.729,0.505,1.585-0.862,3.061-0.612   c2.531,3.384,4.785,7.043,7.342,10.402c0.282,3.137-2.729,2.981-2.448,6.119c1.848,0.6,3.646,1.249,5.507,1.835   c1.661-1.913,2.358-4.841,1.225-7.955c1.729,0.505,1.585-0.862,3.059-0.612c4.197,3.386,8.159,10.029,2.448,14.073   c6.568,3.424,9.233,10.755,17.133,12.849c0.6-0.827,1.633-1.223,2.447-1.836c1.047,1.808,0.905,4.805,3.671,4.895   c4.274,0.4,3.36-4.39,6.119-5.507c-1.043-3.24-2.786-5.782-4.896-7.955c-2.231,6.505-15.578,4.878-14.073-4.283   c6.743-1.071,9.604-9.128,0.612-9.79c-1.239,1.616-1.613,4.098-4.895,3.671c-0.386-4.464,2.603-5.555,3.059-9.178   c-1.495-0.341-1.304-2.368-3.671-1.836c0.29,2.33-0.26,3.82-1.836,4.283c-1.223,0-2.447,0-3.671,0   c-2.034-5.104-8.053-6.224-7.954-13.461c-1.299-0.944-2.727-1.76-4.284-2.447c-0.311,2.963,2.805,2.499,1.836,6.118   c-0.613-0.001-0.728,0.496-1.224,0.612c-5.821-1.724-6.257-8.836-11.013-11.625c-2.175,0.885-1.42,4.699-4.283,4.895   c-1.243-1.612-3.187-2.524-5.507-3.06c0.254-2.906-0.299-5.005-1.225-6.73c-3.012,0.66-1.996,5.346-5.507,5.507   c-0.102-0.712-0.968-0.664-1.836-0.612c-0.443-1.871,1.057-1.8,0.612-3.671c-5.034,0.343-7.988-1.394-7.342-6.731   c-5.897-1.012-9.076,5.468-15.909,5.507c-2.269-1.066-1.928-4.17-1.223-6.73c-1.486-1.166-4.012-1.291-4.284-3.671   c0.838-1.609,2.575-2.319,3.06-4.283c-2.649-0.409-3.287-2.832-6.119-3.059c-2.237-0.403-2.348,1.324-4.282,1.223   c-6.188-4.245-17.561-1.301-21.416-6.73c1.152-1.5,2.075-3.228,2.447-5.507c-1.745-1.11-2.714-2.997-6.118-2.447   c-1.656,2.637-5.672,6.144-10.402,3.671c-1.645-2.29,1.939-6.593,0.612-8.566c-5.176-0.689-1.737,7.237-4.283,9.178   c-7.24-3.275-4.688-12.75-14.073-14.073c-1.851,2.433-1.409,7.157-5.507,7.342c-0.896-0.532-1.939-0.916-1.835-2.447   c-0.234-2.273,2.479-1.6,1.835-4.283c0.251-1.474-1.117-1.33-0.611-3.06c-9.894-3.358-11.479,4.676-16.521,9.178   c-1.511-1.69,0.961-3.108,0.611-5.506c-5.155-6.596-10.918-2.184-18.968-1.224c0.096-3.359-2.524-4.002-6.119-3.671   c2.936,3.418,1.221,10.267-1.223,13.461c-6.498-0.438-10.448-3.421-11.626-9.178c-4.26,0.311-8.248,3.181-6.73,7.343   c-3.715,1.435-6.584-0.44-9.178-1.835c-2,0.242-3.956,0.531-4.283,2.447c3.749,0.329,5.847,2.311,7.342,4.895   c-0.19,3.325-6.03,4.822-8.566,4.283c-5.003-1.062-5.536-13.142-11.625-6.119c2.135,1.128,3.453,3.074,4.895,4.895   c-1.368,10.699-15.378,2.33-15.908-4.283c-2.439,0.527-4.521-0.914-5.507,0c3.029,4.803,20.044,23.597,4.283,25.087   c0.151-4.026-3.918-3.832-4.895-6.731c-0.605-2.44,1.829-1.842,1.224-4.283c-2.594-1.281-5.518-2.232-5.507-6.118   c-1.587-0.657-3.001-1.486-5.507-1.224c3.119,7.825-4.885,12.449-8.566,7.342c1.81-7.992-4.771-9.318-11.626-9.178   c-1.921-2.158-1.219-6.939-5.506-6.73c-0.907,0.774,2.552,6.194-0.612,7.342c-4.664,0.177-4.641-4.333-7.343-6.119   c-1.373,1.482-4.37,1.341-4.895,3.671c3.347,0.936,6.574,1.993,6.73,6.119c-0.342,0.881-0.955,1.493-1.836,1.836   c-2.405-1.877-4.128,0.287-7.342-0.612c-4.654-1.302-7.323-7.272-11.625-2.447c1.277,2.802,4.774,3.383,4.895,7.342   c-5.118,1.475-15.671-4.755-18.968-1.224c1.554,2.526,8.52-0.362,7.954,4.283c-0.342,0.881-0.955,1.493-1.835,1.836   c-8.122,2.766-13.211-2.534-20.191-1.836c-5.068,0.506-8.034,6.601-12.85,6.119c-2.104-0.21-3.475-2.725-5.507-2.448   c-0.482,2.522,2.93,1.149,2.447,3.671c-3.443,0.18-4.69-1.835-7.342-2.447c-0.104,1.731,0.526,4.197-1.224,4.283   c-3.782,0.111-4.638-2.705-6.118-4.895c-6.025-1.356-7.064,5.684-11.625,6.73c-2.562,0.588-6.928-0.203-9.79-2.447   c-6.648,4.366-6.91,15.119-13.461,19.58c1.831,3.898,8.733-0.166,11.626,1.223c0.411,1.859,2.181,5.535,0.611,7.343   c-4.865-7.263-21.277-3.752-22.639,4.895c3.12,2.591,12.082-0.659,12.849,4.283c-1.971-0.272-3.314-1.172-5.506-1.224   c-1.708,2.167-1.119,6.632-5.507,6.119c0.877,4.506,6.743,0.411,7.342,3.059c-3.063-0.004-2.602,3.517-6.73,2.447   c-0.565,2.809,1.531,2.956,1.224,5.507c2.935,0.125,5.366,0.752,6.119,3.059c-3.514-0.157-7.248-0.094-9.179-1.835   c-2.142-7.344-0.576-11.708-1.224-18.968c-7.032,4.908-11.367,19.129-9.79,26.922c2.813,1.291,3.095-1.693,4.895,0.612   c-0.513,1.323-1.584,2.087-1.224,4.283c7.608,7.871,17.879,2.193,22.639-4.283c1.933,0.268,2.618,1.301,5.507,0.612   c2.814,2.997,2.344,10.07-2.447,10.401c-13.99-4.522-7.201,12.385,3.671,8.566c0.335-2.637,3.106-2.358,5.507-3.671   c-1.397-16.005,11.931-18.714,21.416-22.027c0.848-0.987,0.518-3.154,1.835-3.671c1.02,0,2.04,0,3.06,0   c-0.245,2.284,0.489,3.59,2.447,3.671c2.709,0.057,1.963-3.339,4.895-3.059c1.865-0.03,3.116,0.556,3.671,1.835   c0.957,2.868-1.955,3.479-0.612,4.895c2.203,0.215,2.949,0.936,4.895,0c0.354,3.52,4.717,3.034,6.73,4.895   c-0.024-3.684-7.472-7.942-1.224-10.402c2.443,0.751,6.308,6.253,7.343,1.223c-4.663-0.337-5.032-6.1-3.06-9.79   c2.505-0.553,4.951-1.167,5.507-3.671c-1.424-2.036-7.071-6.88-2.447-9.178c2.976,3.073,5.595,7.907,4.283,13.461   c5.957,5.792-1.108,12.018-3.06,17.132c6.472,2.764,10.366-0.608,14.073-4.895c2.068,0.175,2.582,1.905,4.283,2.447   c2.018-1.654,1.519-5.823,5.507-5.507c0.399,2.866,2.627,3.9,4.895,4.896c2.468-0.796,2.863-3.664,5.507-4.283   c1.048,1.195,1.062,3.424,1.835,4.895c2.556-0.645,4.146,1.289,5.507,0c-0.066-2.204-3.043-4.671-1.224-6.73   c2.234,3.681,4.558,7.271,5.507,12.237c2.938,0.649,5.246-0.442,6.119,1.224c-1.039,2.02-3.389,2.729-4.284,4.894   c2.609,8.813,5.157,17.687,11.014,23.251c-1.557,2.619-1.447,5.993,1.224,7.342c0.871-1.576,1.434-3.462,3.671-3.671   c1.356,1.091,2.221,2.675,1.835,5.507c-0.865,1.176-2.972,1.107-4.283,1.835c0.589,2.472,1.637,4.482,3.06,6.119   c2.204-1.108,1.804,0.108,3.671,0.612c0.242-1.052-0.908-1.569,0-1.835c2.152,1.322,1.534,2.636,1.224,5.506   c-2.285-0.056-1.744-0.687-3.671,0c0,1.835,0,3.671,0,5.506c2.329-0.086,2.716,1.771,3.06,3.672   c-1.928,0.295-1.386-1.878-3.671-1.224c0.885,5.575-3.729,5.652-6.119,7.954c-0.174,1.862,1.96,2.379,0.611,3.672   c-2.191-0.46-2.592-2.711-4.283-3.672c-8.046-2.238-18.206,0.989-15.296,7.343c-1.411,0.832-3.415,1.072-3.06,3.671   c0.687,0.129,0.953,0.679,1.224,1.224c3.65,0.387,2.959-3.566,4.895-4.895c0.47,2.306-0.747,2.925-0.612,4.895   c5.738,8.506,18.974,4.663,28.758,4.896c1.344-5.537,8.512-8.061,9.79-14.073c1.111-5.226-3.154-11.231,1.224-15.909   c-0.539-4.082-1.897-5.683,0.612-8.565c-2.486-1.323-1.552-4.461-1.224-7.343c1.085-0.139,3.064,0.617,2.448-1.224   c0.503-1.95-4.654-3.491-3.671-7.954c1.03-2.107,3.394,0.668,4.283-1.835c-3.329-1.421-10.015-6.696-4.283-9.79   c1.024,0.812,2.05,1.621,4.283,1.224c-0.556-2.911-3.652-3.283-4.283-6.119c1.207-2.464,4.009-3.333,4.895-6.119   c-1.723-0.927-2.511,0.206-4.895-0.611c-1.503-2.373-3.241-4.509-3.06-8.566c1.216-0.008,0.778-1.669,2.447-1.224   c2.638,0.014,0.71,4.593,3.671,4.283c1.29-3.359,6.113-0.288,10.402-1.224c-1.85-4.821,2.084-7.195,3.671-10.402   c1.523,0.924,4.02,0.875,4.283,3.06c-0.087,2.36-2.067,2.827-1.835,5.506c3.388,0.329,5.296-0.823,7.342-1.835   c0.806-1.845,0.062-5.242,1.224-6.73c3.121-0.673,1.873,3.022,3.06,4.283c5.086-0.42,7.395-3.619,11.625-4.895   c2.216-4.95,1.081-11.25,0.612-14.685c3.578,1.725,4.936,5.67,6.119,9.79c1.224,0,2.447,0,3.671,0   c0.276-5.228,0.282-11.599-1.224-15.296c4.236,2.902,6.227,8.05,7.343,14.073c1.765,0.682,3.793,1.101,6.118,1.224   c0.562-3.517,2.746-5.413,3.672-8.566c1.872-0.444,1.8,1.056,3.672,0.612c1.929-1.129,0.726-5.393,3.671-5.507   c1.324,5.36-3.459,9.453-3.06,14.073c1.488,1.386,5.997,2.952,8.566,1.224c0.08-2.177,1.032-8.749,4.895-9.179   c1.702,4.759-2.128,11.575,3.671,12.238c-0.565-4.44-0.434-9.675,4.283-10.402c0.885,2.175,4.699,1.42,4.895,4.284   c-1.913,3.982-3.517,10.912-8.565,9.79c0.28,3.186,0.56,6.375,1.224,9.178c11.949,1.069,0.25,8.784,1.224,13.461   c0.876,4.207,6.666,1.447,6.73,7.342c-0.233,2.623-4.568,1.143-4.895,3.672c-0.68,3.33,3.349,1.954,3.06,4.894   c-1.611,2.479-2.562,7.307,0.611,9.179c1.162-3.23,6.538-2.714,9.179-3.06c0.046,3.106-2.703,3.416-3.672,5.507   c-2.141,0.859-3.916-1.716-4.896,0c8.702,6.242,0.512,13.77-4.282,18.356c-1.157,0.138-1.35-0.689-2.447-0.612   c-5.113,5.774-14.489,2.706-22.64,1.835c-1.562,2.11-4.926,2.418-5.507,5.508C246.75,178.574,237.829,190.703,246.445,189.909z    M43.305,46.732c2.592,0.145,3.625-1.271,4.283-3.059C44.678,43.124,42.126,45.107,43.305,46.732z M417.156,142.795   c2.846,1.03,3.802,3.95,5.509,6.119c5.224-4.763,13.072-12.76,11.624-20.192c-1.681,0.467-4.402-2.319-6.73-1.835   c-0.335,0.889,0.715,3.162-0.611,3.06c0-0.816,0-1.632,0-2.448C421.498,130.413,418.211,135.487,417.156,142.795z M416.545,128.11   c2.514-1.392,8.075,2.411,9.178-3.059c-2.849-1.435-5.149-3.417-8.567-4.283c-0.221,3.483-4.016,1.24-6.117,3.671   c-2.648-2.172-3.182-5.25-1.836-8.566c-1.775,0.103-2.94-3.532-4.283-1.835c1.339,0.602-0.55,3.063-1.835,3.06   c-2.494-0.677-0.708-3.808,0-4.895c-3.495-3.032-6.664-6.39-11.014-8.566c-1.789,5.461-11.857,8.795-15.909,7.955   c2.599-2.295,3.862-5.928,6.119-8.566c4.649,0.57,4.528-3.629,7.953-4.283c-0.449-3.629-3.146-5.011-3.671-8.566   c-3.017-0.042-5.821-0.298-6.118-3.06c-0.605-2.44,1.828-1.842,1.224-4.283c-1.064-3.219-6.665-1.901-7.954-4.895   c1.76-2.523,3.229-5.337,5.506-7.342c-4.888-1.019-12.512-2.78-17.744-1.224c-9.451,2.812-11.819,14.306-17.743,23.25   c-3.576,5.4-8.491,7.849-11.015,12.238c1.258,0.665,6.804,1.218,3.672-0.612c6.27,1.947,10.375-3.974,13.462-1.224   c-0.659,3.217-2.89,4.862-3.673,7.954c1.45,1.61,2.431,3.689,4.896,4.283c3.799-2.552,9.771,0.826,13.462-1.835   c0.235-2.276-2.948-1.132-3.061-3.06c1.146-2.526,3.848-3.495,7.954-3.059c2.252-0.623,3.979-4.971,6.731-3.06   c-2.54,3.508-7.525,6.688-6.731,11.625c-4.727,2.176-13.684-2.349-15.296,3.671c3.233,0.318,6.125,5.496,13.461,3.671   c1.818-0.31,4.227-4.147,5.507-1.223c-0.601,2.663-2.761,3.765-5.507,4.283c-0.1,4.791,4.134,5.249,7.954,6.119   c3.021-3.422,11.077-10.503,16.521-5.506c-2.055,1.414-5.334,1.601-4.283,6.118c2.831,1.452,5.247,3.319,9.178,3.671   c3.051-2.241,2.614-7.701,1.835-12.237c1.576-1.226,3.921-2.474,5.507-0.611c-1.369,6.009,1.625,9.747-1.223,14.073   c3.72,2.964,7.093,0.544,11.013,1.835C415.942,134.647,412.426,130.39,416.545,128.11z M390.234,92.01   c5.456,7.033,7.277,12.315,14.686,17.132c2.72,1.769,7.641,2.858,9.79,4.895c0.879,0.833,0.369,2.501,1.224,3.06   c2.161,1.412,5.777,1.21,7.954,2.447c0.917,0.522,1.661,2.549,2.448,3.06c2.976,1.933,5.964,2.423,8.565,3.671   c4.94-21.352-12.424-38.698-28.758-44.055c-4.008-6.802-12.939-8.68-22.026-10.402C388.271,77.714,388.931,84.058,390.234,92.01z    M88.583,113.426c-3.428,5.546-6.958,10.99-9.178,17.744c0.451,1.385,2.333,1.339,2.448,3.059   c-0.192,1.857-3.457,2.483-4.895,1.224c-3.612,5.158-5.785,11.755-8.566,17.744c0.901,1.228,4.312,4.062,1.224,5.507   c-4.611-6.097-7.067,1.487-12.238,3.059c-0.443,1.871,1.056,1.8,0.612,3.671c-2.668-0.391-3.483-2.636-6.731-2.448   c-0.706,1.988,1.869,3.764,0,4.896c-1.645-0.925-3.038-2.098-1.835-4.284c-7.788-0.472-15.242,6.486-11.014,12.238   c3.534-0.353,4.334-6.663,6.73-6.119c-4.948,4.59-2.911,12.38,6.119,11.014c7.235-3.272,14.625-1.658,20.192-4.282   c4.568-9.098,9.838-17.493,15.908-25.087c0.098-1.729-1.838-1.425-1.835-3.059c1.401-1.25,2.546-2.756,4.895-3.059   c1.327,1.273-0.075,1.978-0.611,3.059c3.513-1.125,6.556-4.457,4.283-7.954c1.593-2.549,5.806-3.417,7.954-3.672   c-0.322-3.778-0.568-7.945,2.447-9.789c1.899-0.064,1.746,1.925,4.284,1.223c0.86-1.178,1.617-2.462,1.835-4.283   c-1.574-0.466-2.594-1.486-3.06-3.06c0.06-2.183,0.286-4.201,1.835-4.895c1.539,1.521,2.976,3.144,5.507,3.671   c0.614-2.721,2.62-3.479,1.224-6.73c-6.075,2.028-8.544-0.3-13.461,0.612c0.09,1.518,0.114,2.969-1.224,3.06   c-1.489-1.287,0.542-2.72-0.611-3.672C96.104,110.217,94.725,114.362,88.583,113.426z M439.184,115.261   c-0.835,1.204-0.584,3.495-1.224,4.895c4.748,0.082,10.489,5.335,4.895,8.566c-2.889,0.243-3.574-1.166-5.506-0.612   c-0.557,4.263-0.176,5.43,2.447,7.343c10.41,0.244,15.643-9.935,13.461-18.356c-1.01,2.325-3.383,2.715-6.119,1.835   c-1.556-2.057-0.023-3.562-1.835-4.895C443.055,115.378,440.962,114.5,439.184,115.261z M417.768,153.809   c2.399,2.642,0.155,6.01,3.06,9.79c5.563-2.187,11.334-4.167,13.461-9.79c2.345-0.127,6.298-1.829,4.896-3.671   c-0.068,1.564-2.049,1.214-3.671,1.224c-1.426-1.226-3.473-1.831-3.061-4.895C425.541,144.634,423.121,152.09,417.768,153.809z    M441.632,149.526c-7.006,12.033-20.569,16.162-34.265,20.191c1.219,2.893-2.564,4.319-1.837,8.565   c7.482,3.275,15.518,5.204,22.641,0.612c13.964,3.862,11.173-19.337,15.296-29.369   C442.855,149.526,442.243,149.526,441.632,149.526z M338.837,156.256c0.078,3.389,0.822,6.112,4.283,6.119   c0.19-2.728,1.26-5.517,0-7.955C340.81,154.151,340.249,155.627,338.837,156.256z M402.472,158.705   c-0.707,1.137,0.72,3.79-1.836,4.282c-3.244-0.796-3.122,1.773-6.119,1.225c-5.049-5.411-15.767-1.57-23.251-3.06   c0.624,3.048,3.473,3.873,2.448,8.566c2.247,0.226,3.456,0.841,6.118,0c-0.316-3.783,2.411-4.523,5.507-4.894   c1.05,0.989,1.521,2.559,1.224,4.894c5.552,0.248,9.816-0.789,14.686-1.223c1.207-0.426-0.151-3.414,1.224-3.671   c1.437-0.604,3.006-1.073,4.896-1.225c0.848,0.782,0.374,2.889,1.223,3.671c2.229,0.189,3.981-0.097,5.507-0.611   c0-1.429,0-2.856,0-4.283c-1.649-1.817-6.162-0.771-5.507-4.896C405.498,156.834,405.09,158.875,402.472,158.705z M363.313,168.495   c1.627,0.044,4.699,1.771,5.507,0.61c-2.37-1.097-4.067-2.866-3.671-6.729c-1.73,0.505-1.586-0.863-3.061-0.612   C362.634,165.127,363.506,164.391,363.313,168.495z M351.075,167.882c1.265,0.182,3.403,0.71,4.895,0   c-0.704-1.539-0.289-4.197-2.446-4.284C353.055,165.376,350.624,165.187,351.075,167.882z"/>
	<path fill-rule="evenodd" clip-rule="evenodd" d="M240.326,32.659c-1.908-0.203-2.191,0.236-5.507-0.611   c-0.659-5.351,3.401-5.982,5.507-8.566c2.452,0.795,2.125,5.168,0.612,6.731c0.686,2.577,4.216,2.31,6.119,3.671   c-0.006,1.625,0.23,3.494-0.612,4.283c-2.338-0.937-5.605,0.369-8.566,0.612C235.671,35.941,237.859,33.913,240.326,32.659z"/>
	<path fill-rule="evenodd" clip-rule="evenodd" d="M296.006,43.061c-0.314-3.153-3.996-2.938-5.507-4.895   c1.26-3.741,4.418-4.884,7.955-4.895c1.002,2.874,1.14,6.61,1.835,9.79C297.752,42.895,297.906,43.864,296.006,43.061z"/>
	<path fill-rule="evenodd" clip-rule="evenodd" d="M296.619,44.285c-0.008,5.963-8.783,3.897-7.343-1.836   C291.597,40.236,295.129,42.233,296.619,44.285z"/>
	<path fill-rule="evenodd" clip-rule="evenodd" d="M351.075,57.134c-6.136,0.832-5.898-4.707-7.342-8.567   C346.721,36.724,357.857,50.5,351.075,57.134z"/>
	<path fill-rule="evenodd" clip-rule="evenodd" d="M245.833,50.403c-1.673,2.533-4.509,1.5-7.955,1.223   C235.729,47.095,245.597,44.395,245.833,50.403z"/>
	<path fill-rule="evenodd" clip-rule="evenodd" d="M201.779,53.462c1.836,0,3.671,0,5.507,0c2.827,4.887,1.279,8.885-1.835,12.238   C203.157,62.69,202.829,57.715,201.779,53.462z"/>
	<path fill-rule="evenodd" clip-rule="evenodd" d="M258.682,51.015c-0.223,2.194-1.643,2.242-0.611,4.283   c5.188,2.859,2.063,12.261-1.836,14.685c-1.5-5.522-0.884-9.447,0.612-14.685c-1.707-0.588-7.956-1.777-4.896-6.73   C253.634,47.811,257.165,49.655,258.682,51.015z"/>
	<path fill-rule="evenodd" clip-rule="evenodd" d="M274.591,60.193c2.343,1.403,1.63,4.092,5.507,4.895   c-0.335,5.988-2.532,10.113-6.119,12.85c-0.433-4.821,3.656-7.335,2.448-11.014c-2.709,0.351-1.831,4.288-4.896,4.284   C268.552,67.322,272.947,63.196,274.591,60.193z"/>
	<path fill-rule="evenodd" clip-rule="evenodd" d="M168.738,58.357c7.165,2.325,12.604,14.018,7.343,21.416   C170.942,74.602,173.271,64.75,168.738,58.357z"/>
	<path fill-rule="evenodd" clip-rule="evenodd" d="M201.779,75.49c-5.458,0.68-6.271-9.268-1.835-9.79   C202.703,66.562,203.036,72.592,201.779,75.49z"/>
	<path fill-rule="evenodd" clip-rule="evenodd" d="M162.007,63.252c5.087,1.782,9.147,7.801,7.343,12.85   c-3.703,0.031-4.838-2.505-6.73-4.284C164.329,67.493,160.527,66.593,162.007,63.252z"/>
	<path fill-rule="evenodd" clip-rule="evenodd" d="M300.902,76.713c-4.193,1.29-11.075,5-10.402-3.06   C293.749,71.796,300.233,72.486,300.902,76.713z"/>
	<path fill-rule="evenodd" clip-rule="evenodd" d="M84.912,76.713c2.382,3.125,4.088,6.926,4.896,11.626   c-1.892,0.76-3.05,2.253-4.284,3.671c-2.722,0.479-3.672-0.815-6.119-0.612c-1.231-3.711-3.346-8.951-2.447-12.85   C79.277,77.606,81.062,76.127,84.912,76.713z"/>
	<path fill-rule="evenodd" clip-rule="evenodd" d="M176.692,93.234c-0.479,3.539,0.888,5.231,0.611,8.566   c-1.342,0.697-2.5,1.579-4.895,1.224C170.036,100.07,168.547,90.698,176.692,93.234z"/>
	<path fill-rule="evenodd" clip-rule="evenodd" d="M168.126,109.143c0.639,4.718-1.196,6.962-4.283,7.955   C159.171,114.862,161.886,105.434,168.126,109.143z"/>
	<path fill-rule="evenodd" clip-rule="evenodd" d="M427.558,136.065c0.459,1.914-0.453,7.128-4.894,6.119   C422.05,138.292,425.27,135.02,427.558,136.065z"/>
	<path fill-rule="evenodd" clip-rule="evenodd" fill="#FCF3B9" d="M100.82,112.813c1.154,0.952-0.877,2.385,0.611,3.672   c1.338-0.09,1.314-1.542,1.224-3.06c4.917-0.913,7.386,1.416,13.461-0.612c1.396,3.252-0.61,4.009-1.224,6.73   c-2.531-0.527-3.968-2.149-5.507-3.671c-1.55,0.694-1.775,2.712-1.835,4.895c0.466,1.574,1.486,2.594,3.06,3.06   c-0.219,1.821-0.975,3.104-1.835,4.283c-2.538,0.702-2.384-1.287-4.284-1.223c-3.015,1.844-2.769,6.011-2.447,9.789   c-2.148,0.255-6.361,1.123-7.954,3.672c2.273,3.497-0.77,6.829-4.283,7.954c0.537-1.082,1.938-1.786,0.611-3.059   c-2.349,0.303-3.494,1.809-4.895,3.059c-0.002,1.634,1.934,1.33,1.835,3.059c-6.07,7.595-11.34,15.99-15.908,25.087   c-5.567,2.624-12.957,1.01-20.192,4.282c-9.029,1.366-11.067-6.424-6.119-11.014c-2.396-0.544-3.196,5.767-6.73,6.119   c-4.229-5.752,3.226-12.709,11.014-12.238c-1.203,2.186,0.191,3.359,1.835,4.284c1.869-1.132-0.706-2.908,0-4.896   c3.248-0.188,4.063,2.057,6.731,2.448c0.444-1.871-1.056-1.8-0.612-3.671c5.17-1.572,7.626-9.155,12.238-3.059   c3.087-1.445-0.323-4.28-1.224-5.507c2.782-5.989,4.954-12.586,8.566-17.744c1.438,1.259,4.703,0.633,4.895-1.224   c-0.115-1.72-1.997-1.674-2.448-3.059c2.22-6.754,5.75-12.198,9.178-17.744C94.725,114.362,96.104,110.217,100.82,112.813z    M89.807,120.768c0.611,0,1.223,0,1.835,0c-0.14-1.084,0.616-3.064-1.224-2.447C90.227,119.148,89.548,119.489,89.807,120.768z    M103.268,125.051c1.002-1.481,1.558-2.973,0.612-4.895c-2.04,0-4.08,0-6.119,0C97.372,124.013,99.761,125.09,103.268,125.051z    M83.688,130.558c1.809-0.062,4.882-2.006,3.06-3.671C85.539,127.878,82.178,128.742,83.688,130.558z M92.866,133.618   c3.856,0.592,4.409-2.118,5.507-4.283C95.168,124.563,89.142,128.838,92.866,133.618z M89.807,141.571   c0.611-1.587,1.075-4.098-0.612-4.895c-0.423,1.528-1.632-1.135-3.06-0.611C84.687,138.439,86.243,142.257,89.807,141.571z    M75.733,145.243c-0.212,2.476,5.381,3.503,6.119,1.223C79.251,146.708,77.88,143.543,75.733,145.243z M78.181,154.421   c-1.809-0.639-1.798-3.098-4.895-2.448C73.232,154.098,76.362,156.198,78.181,154.421z M75.122,164.823   c1.563-0.069,1.215-2.049,1.224-3.672c-0.906-0.318-1.542-0.905-2.448-1.223C72.899,161.107,72.863,165.031,75.122,164.823z    M67.78,164.823c-0.144-3.192-2.74-3.359-4.284-3.672C64.124,163.176,65.191,164.76,67.78,164.823z"/>
</g>
</svg>