<?xml version="1.0" encoding="UTF-8"?>
<svg width="299.6752" height="311.04831" xmlns="http://www.w3.org/2000/svg" xmlns:xlink="http://www.w3.org/1999/xlink">
 <defs>
  <linearGradient id="linearGradient5799">
   <stop stop-color="#724601" id="stop5801" offset="0"/>
   <stop stop-color="#724601" stop-opacity="0" id="stop5803" offset="1"/>
  </linearGradient>
  <linearGradient id="linearGradient5787">
   <stop stop-color="#603b01" id="stop5789" offset="0"/>
   <stop stop-color="#8f5802" id="stop5791" offset="1"/>
  </linearGradient>
  <linearGradient id="linearGradient5744">
   <stop stop-color="#2e3436" id="stop5746" offset="0"/>
   <stop stop-color="#2e3436" stop-opacity="0" id="stop5748" offset="1"/>
  </linearGradient>
  <radialGradient r="177" fy="805.93121" fx="277" cy="805.93121" cx="277" gradientTransform="matrix(0.9366418,-0.3502888,0.259887,0.6949153,-191.90082,382.33827)" gradientUnits="userSpaceOnUse" id="radialGradient6929" xlink:href="#linearGradient5787"/>
  <radialGradient r="120.91526" fy="484.20187" fx="280.72141" cy="484.20187" cx="280.72141" gradientTransform="matrix(1,0,0,0.4239766,0,278.91161)" gradientUnits="userSpaceOnUse" id="radialGradient6931" xlink:href="#linearGradient5799"/>
  <radialGradient r="101.22242" fy="212.22556" fx="267.87634" cy="212.22556" cx="267.87634" gradientTransform="matrix(1,0,0,0.3502929,1.4285714,136.45589)" gradientUnits="userSpaceOnUse" id="radialGradient6933" xlink:href="#linearGradient5744"/>
  <clipPath id="clipPath3683" clipPathUnits="userSpaceOnUse">
   <path fill="#ffffff" stroke="#000000" stroke-width="10.629921" stroke-linecap="round" stroke-linejoin="bevel" stroke-miterlimit="4" stroke-dashoffset="0" id="path3685" d="m1220.101685,-672.276794c-107.032471,13.479431 -371.352234,-28.054504 -392.373779,192.664459l0,128.299805c0,14.423798 14.173767,26.035736 31.779724,26.035736c17.605957,0 31.779724,-11.611938 31.779724,-26.035736l0,-128.299805c42.856506,-18.048981 267.084106,94.267731 364.178101,0.724701l0,123.414734c0,13.874329 14.173828,25.042633 31.779785,25.042633c17.605957,0 31.779663,-11.168304 31.779663,-25.042633l0,-123.414734c-2.732544,-114.845642 9.50293,-175.488098 -98.923218,-193.38916z"/>
  </clipPath>
 </defs>
 <metadata id="metadata4">image/svg+xml</metadata>
 <g>
  <title>Layer 1</title>
  <g externalResourcesRequired="false" id="layer1">
   <g externalResourcesRequired="false" transform="matrix(0.284019 0 0 0.277975 133.483 91.8743)" id="g6906">
    <path fill="url(#radialGradient6929)" stroke-width="2" stroke-linecap="round" stroke-linejoin="bevel" stroke-miterlimit="4" stroke-dashoffset="0" d="m225.320862,401.930664c0,117.298828 -43.942657,205.502075 -116.310783,205.502075c-72.368134,0 -121.689262,-81.207458 -121.689262,-198.506256c0,-117.298828 47.976498,-219.493713 120.344627,-219.493713c72.368156,0 117.655418,95.199066 117.655418,212.497894z" id="path5752"/>
    <path fill="url(#radialGradient6931)" stroke-width="24.80315" stroke-linecap="round" stroke-linejoin="bevel" stroke-miterlimit="4" stroke-dashoffset="0" id="path5797" d="m237.957458,245.272446a120.91526,42.072849 0 1 1 -241.830504,0a120.91526,42.072849 0 1 1 241.830504,0z"/>
    <path fill="#8f5902" stroke-width="2" stroke-linecap="round" stroke-linejoin="bevel" stroke-miterlimit="4" stroke-dashoffset="0" id="path5186" d="m204.892227,39.147049a94.285713,117.14286 0 1 1 -188.571426,0a94.285713,117.14286 0 1 1 188.571426,0z"/>
    <path fill="#8f5902" stroke-width="2" stroke-linecap="round" stroke-linejoin="bevel" stroke-miterlimit="4" stroke-dashoffset="0" d="m173.539566,-64.304428c-9.196472,-0.114227 -19.086578,2.653625 -28.0625,8.46875c-20.516418,13.291718 -28.469116,37.516998 -17.75,54.0625c10.719116,16.545486 36.077332,19.197968 56.59375,5.90625c20.516418,-13.291718 28.469116,-37.516998 17.749985,-54.0625c-6.029495,-9.306854 -16.70723,-14.228149 -28.531235,-14.375zm-135.875,7.15625c-11.824005,0.146866 -22.470504,5.036911 -28.499998,14.34375c-10.719118,16.545502 -2.766418,40.770782 17.749998,54.0625c20.516403,13.291718 45.843384,10.670502 56.5625,-5.875c10.719116,-16.545502 2.766418,-40.770782 -17.75,-54.0625c-8.975937,-5.815125 -18.866043,-8.582977 -28.0625,-8.46875zm68.65625,110.59375c-71.759995,0 -129.999985,52.462158 -130,117.125c0,64.662872 65.382843,82.013397 137.142853,82.013397c71.76001,0 122.857132,-17.350525 122.857132,-82.013397c0,-64.662872 -58.240005,-117.125 -129.999985,-117.125z" id="path5697"/>
    <path fill="#e9b96e" stroke-width="2" stroke-linecap="round" stroke-linejoin="bevel" stroke-miterlimit="4" stroke-dashoffset="0" d="m109.164566,-1.554428c-30.754288,0 -55.6875,25.76001 -55.6875,57.5c0,14.84613 5.445923,28.388428 14.40625,38.59375c-25.272339,11.351501 -42.28125,32.36554 -42.28125,56.40625c0,36.077148 38.257843,65.34375 85.375,65.34375c47.117126,0 85.34375,-29.266602 85.34375,-65.34375c0,-24.870789 -18.179626,-46.518158 -44.90625,-57.5625c8.385529,-10.06488 13.46875,-23.132385 13.46875,-37.4375c0,-31.73999 -24.964447,-57.5 -55.71875,-57.5z" id="path5704"/>
    <path fill="#eeeeec" stroke-width="2" stroke-linecap="round" stroke-linejoin="bevel" stroke-miterlimit="4" stroke-dashoffset="0" id="path5709" d="m93.477081,55.351528a11.078112,21.652676 0 1 1 -22.156265,0a11.078112,21.652676 0 1 1 22.156265,0z"/>
    <path fill="#2e3436" stroke-width="2" stroke-linecap="round" stroke-linejoin="bevel" stroke-miterlimit="4" stroke-dashoffset="0" d="m175.03511,142.941116c-9.185577,26.388275 -35.839417,45.5 -67.28125,45.5c-21.668457,0 -41.056381,-9.097992 -54.03125,-23.375c11.943222,17.079865 32.478622,28.375 55.8125,28.375c32.372925,0 59.395721,-21.712555 65.5,-50.5z" id="path5713"/>
    <path fill="#2e3436" stroke-width="2" stroke-linecap="round" stroke-linejoin="bevel" stroke-miterlimit="4" stroke-dashoffset="0" id="path5720" d="m94.892258,120.932755a6.07143,6.78571 0 1 1 -12.142868,0a6.07143,6.78571 0 1 1 12.142868,0z"/>
    <path fill="#2e3436" stroke-width="2" stroke-linecap="round" stroke-linejoin="bevel" stroke-miterlimit="4" stroke-dashoffset="0" d="m124.892258,119.504181a6.07143,6.78571 0 1 1 -12.142868,0a6.07143,6.78571 0 1 1 12.142868,0z" id="path5722"/>
    <path fill="#2e3436" stroke-width="2" stroke-linecap="round" stroke-linejoin="bevel" stroke-miterlimit="4" stroke-dashoffset="0" d="m87.590347,63.869423a6.07143,6.78571 0 1 1 -12.142868,0a6.07143,6.78571 0 1 1 12.142868,0z" id="path5724"/>
    <path fill="url(#radialGradient6933)" stroke-width="2" stroke-linecap="round" stroke-linejoin="bevel" stroke-miterlimit="4" stroke-dashoffset="0" d="m171.798508,-63.581207c-6.347321,0.168777 -12.961273,1.691666 -19.34375,4.625c18.666718,11.763733 33.757111,31.006729 42.71875,54.5625c12.117081,-13.524765 15.458466,-31.61171 6.906235,-44.8125c-6.029495,-9.306854 -16.70723,-14.228149 -28.531235,-14.375c-0.574799,-0.007141 -1.170197,-0.015427 -1.75,0zm-134.125015,7.15625c-11.82402,0.146866 -22.470489,5.036911 -28.499998,14.34375c-9.563402,14.761597 -4.261427,35.637192 11.562498,49.40625c6.827835,-24.542328 20.061386,-45.376907 37.1875,-59.46875c-6.711624,-2.939606 -13.659073,-4.363113 -20.25,-4.28125z" id="path5728"/>
    <path fill="#8f5902" stroke-width="2" stroke-linecap="round" stroke-linejoin="bevel" stroke-miterlimit="4" stroke-dashoffset="0" d="m495.695862,-225.929428c-39.391113,0.255539 -89.950806,30.417542 -93.34375,56.84375c-12.420898,-8.955078 9.868225,-41.986664 -7.375,-49.40625c-6.177063,-9.17186 -29.003052,58.438126 -28.3125,70.9375c75.408447,154.71225 -147.399155,243.381714 -208.593796,370.03125c55.413635,34.895248 10.541412,96.594254 30.446289,42.046371c82.366898,-58.171677 219.222153,-276.26123 222.803757,-340.421371c12.635315,-13.867447 19.66449,-32.944443 35.875,-42.75c43.933716,-20.210007 32.931519,-17.586975 78,-47c-11.814941,-18.659851 -49.762939,30.58493 -64.28125,5.6875c15.253784,-13.92662 77.604248,-20.106003 77.03125,-52.375c-66.666382,7.911896 -90.09198,64.365433 -92.5,26.78125c21.988342,-16.07962 46.586365,-15.885117 72.8125,-36.375c-6.689087,-2.824142 -14.386963,-4.05304 -22.5625,-4z" id="path5759"/>
    <path fill="#8f5902" fill-rule="evenodd" stroke-width="24.80315" stroke-miterlimit="4" d="m-76.735153,-330.487946c-7.501228,-0.127441 -14.991135,0.229156 -22.412392,1.076477c-59.37014,6.778656 -115.632607,46.127106 -136.59449,117.743942l-0.067307,0.222717l-0.067291,0.222717c-38.401474,146.471603 24.421204,313.901276 136.291603,399.408875c51.802956,45.435562 107.004458,98.993637 108.797724,170.602524l26.719885,-0.81665c-2.190727,-87.480103 -66.488979,-146.874161 -118.893394,-192.837265l-0.370178,-0.296951l-0.370171,-0.296967c-102.5868,-77.921669 -161.287743,-235.033249 -126.532463,-367.597214c17.600616,-60.133041 63.021255,-91.265305 113.845566,-97.068253c50.824318,-5.802887 131.251495,59.165222 138.613609,61.804459l18.845268,6.755798c29.802399,-25.813919 -85.297325,-98.032242 -137.805969,-98.92421z" id="path5767"/>
    <path transform="translate(3.52089 -5.68434e-14)" fill="#8f5902" stroke-width="2" stroke-linecap="round" stroke-linejoin="bevel" stroke-miterlimit="4" stroke-dashoffset="0" d="m158.462082,385.658417c-26.872894,-0.004486 -68.100723,27.240631 -103.577797,71.173859c-45.410688,56.234436 -61.985861,116.033997 -42.193252,139.202881c37.104758,43.434082 76.888999,-8.29364 122.299674,-64.528198c11.434097,-62.849731 7.44313,42.970154 51.443726,108.971069c-0.648438,-0.08844 -1.287048,-0.154541 -1.932938,-0.266968c-11.567062,1.593201 -24.939606,-0.518005 -34.378662,8.42572c-9.650467,10.435425 -2.378418,31.959167 11.625229,32.219604c11.417816,1.955078 20.981888,-9.346191 32.362885,-6.794006c9.885162,3.805786 15.849106,13.860291 21.897415,22.429077c4.176468,8.86792 -3.119675,19.789124 3.065079,28.036377c4.014114,6.131226 11.053177,3.940857 15.712006,0.356018c7.949814,-2.134949 13.408173,6.947388 21.09668,7.239075c10.150833,1.908752 22.879044,-3.094177 25.542374,-14.774719c2.150513,-9.659851 -3.30484,-19.812195 -11.459534,-23.9422c-11.315216,-8.470886 -23.128738,-16.240845 -34.157837,-25.128906c-6.475067,-6.614319 -9.845657,-16.731873 -17.065048,-22.399414c13.081512,-22.661682 15.526215,-71.921631 19.467422,-126.237976c-6.334396,-58.327759 -16.169312,-130.63858 -79.747421,-133.981293z" id="path5783"/>
    <path fill="#8f5902" stroke-width="2" stroke-linecap="round" stroke-linejoin="bevel" stroke-miterlimit="4" stroke-dashoffset="0" id="path6575" d="m45.487,376.972137c30.152473,-3.964508 80.149307,18.41394 125.982193,59.068054c58.666061,52.037201 85.465836,112.046539 66.434814,139.159454c-35.677017,50.828003 -87.411789,2.668335 -146.077881,-49.368896c-21.449463,-63.952423 -2.458435,45.972656 -42.778046,121.38446c0.715454,-0.187927 1.422974,-0.351013 2.132263,-0.56366c13.197502,-0.040527 27.912773,-4.21582 39.730621,3.733643c12.259628,9.476257 7.051834,33.026184 -8.62542,35.361633c-12.543381,3.724182 -24.824821,-6.668945 -37.245003,-2.326599c-10.569839,5.431213 -15.882767,16.810547 -21.494183,26.650513c-3.470051,9.876648 6.214508,20.207092 0.405899,29.731506c-3.663227,6.99469 -11.861879,5.744324 -17.581055,2.687012c-9.212954,-1.058228 -14.091936,9.231323 -22.678944,10.668823c-11.128098,3.489136 -26.096085,0.139771 -30.686493,-11.666321c-3.737823,-9.771423 0.991074,-21.177856 9.574738,-26.692688c11.534668,-10.513916 23.724503,-20.369202 34.880814,-31.276672c6.358337,-7.861755 8.75272,-18.924744 16.076065,-25.907471c-17.78624,-21.739075 -27.285278,-72.823547 -39.156906,-128.968201c-0.891876,-61.848083 0.226227,-138.815186 71.106522,-151.674591z"/>
    <path fill="#8f5902" stroke-width="2" stroke-linecap="round" stroke-linejoin="bevel" stroke-miterlimit="4" stroke-dashoffset="0" d="m-330.960388,126.508072c-0.791992,0.077271 -1.286194,0.530579 -1.4375,1.46875c-12.541443,13.967468 21.550995,34.629913 14.03125,47.96875c-14.163574,-22.566559 -72.696228,-28.757874 -108.5625,-12.46875c-7.443939,3.380737 -13.924652,7.724487 -18.8125,13.09375c32.401703,7.601074 54.638855,-2.906067 81.34375,2.46875c13.577332,35.128693 -25.88092,-3.80957 -89.71875,16.96875c13.013885,29.533966 62.217896,11.005096 81.90625,17.25c-2.737366,28.690948 -45.319336,1.449066 -53.71875,23.34375c7.749176,9.798737 39.640869,4.017303 88,3.9375c18.8284,2.102539 33.213501,16.460617 50.5,23.749985c12.68811,23.8703 58.253799,62.553406 114.124954,100.75c77.740265,-24.357056 156.860909,-60.519775 224.84375,-108.21875c1.621414,-0.092773 3.109177,-0.167969 4.53125,-0.218719c-12.738449,-4.309402 -28.905304,-15.383957 -36,-41.093765c-69.666901,11.054565 -141.904236,63.788406 -212.5625,98.875015c-50.303558,-27.856781 -85.85881,-66.819016 -84.468704,-133.875015c-1.442352,-3.636414 -7.20575,-11.189728 -14.53125,-19.53125c-14.101593,-16.057434 -33.924927,-35.009644 -39.46875,-34.46875zm387.031204,130.093765c17.663849,5.975616 28.714355,-1.025284 0,0z" id="path6593"/>
    <path fill="#e9b96e" fill-rule="evenodd" stroke-width="1px" d="m-334.299103,186.449173c-13.26593,3.217529 -17.317108,20.226563 -14.770752,32.082092c3.970398,15.858551 24.724609,9.696289 33.69577,1.900421c31.964691,-16.842804 3.486084,-27.51062 -18.925018,-33.982513z" id="path6612"/>
    <path fill="#e9b96e" fill-rule="evenodd" stroke-width="1px" id="path6622" d="m442.348267,-136.810394c2.053223,-13.49527 -12.149292,-23.69368 -24.084961,-25.833099c-16.179749,-2.339645 -18.347656,19.201248 -14.535889,30.458603c3.463928,35.964172 24.134094,13.6577 38.62085,-4.625504z"/>
    <path fill="#e9b96e" fill-rule="evenodd" stroke-width="1px" d="m68.177551,350.781677c-15.789642,25.396454 -20.509659,63.933472 -21.405304,89.718384c-9.910538,83.696045 83.433517,60.026306 113.773575,13.573853c22.671692,-60.519043 -35.910614,-143.254089 -92.368271,-103.292236z" id="path6624"/>
    <path fill="#eeeeec" stroke-width="2" stroke-linecap="round" stroke-linejoin="bevel" stroke-miterlimit="4" stroke-dashoffset="0" d="m144.291061,56.250881a11.078112,21.652676 0 1 1 -22.15625,0a11.078112,21.652676 0 1 1 22.15625,0z" id="path2473"/>
    <path fill="#2e3436" stroke-width="2" stroke-linecap="round" stroke-linejoin="bevel" stroke-miterlimit="4" stroke-dashoffset="0" id="path2475" d="m138.404312,64.768784a6.07143,6.78571 0 1 1 -12.142853,0a6.07143,6.78571 0 1 1 12.142853,0z"/>
   </g>
  </g>
 </g>
</svg>