<?xml version="1.0" encoding="UTF-8" standalone="no"?>
<!-- Created with Inkscape (http://www.inkscape.org/) -->
<svg xmlns:dc="http://purl.org/dc/elements/1.1/" xmlns:cc="http://web.resource.org/cc/" xmlns:rdf="http://www.w3.org/1999/02/22-rdf-syntax-ns#" xmlns:svg="http://www.w3.org/2000/svg" xmlns="http://www.w3.org/2000/svg" xmlns:sodipodi="http://sodipodi.sourceforge.net/DTD/sodipodi-0.dtd" xmlns:inkscape="http://www.inkscape.org/namespaces/inkscape" width="615.24139" height="689.26709" id="svg2" inkscape:label="Pozad  " sodipodi:version="0.32" inkscape:version="0.44.1" sodipodi:docbase="D:\_petr_\School\INKSCAPE\svg\06.Zvirata" sodipodi:docname="panda.svg" version="1.0">
  <defs id="defs3"/>
  <sodipodi:namedview id="base" pagecolor="#ffffff" bordercolor="#666666" borderopacity="1.0" inkscape:pageopacity="0.0" inkscape:pageshadow="2" inkscape:zoom="0.35" inkscape:cx="226.5403" inkscape:cy="387.80303" inkscape:document-units="px" inkscape:current-layer="layer1" inkscape:window-width="1024" inkscape:window-height="712" inkscape:window-x="-4" inkscape:window-y="-4"/>
  <metadata id="metadata6">
    <rdf:RDF>
      <cc:Work rdf:about="">
        <dc:format>image/svg+xml</dc:format>
        <dc:type rdf:resource="http://purl.org/dc/dcmitype/StillImage"/>
        <cc:license rdf:resource="http://web.resource.org/cc/PublicDomain"/>
        <dc:title>panda</dc:title>
        <dc:creator>
          <cc:Agent>
            <dc:title/>
          </cc:Agent>
        </dc:creator>
        <dc:publisher>
          <cc:Agent>
            <dc:title>ZS a MS Machovo nam.</dc:title>
          </cc:Agent>
        </dc:publisher>
        <dc:language>cz</dc:language>
        <dc:subject>
          <rdf:Bag>
            <rdf:li>panda</rdf:li>
            <rdf:li>giant panda</rdf:li>
          </rdf:Bag>
        </dc:subject>
      </cc:Work>
      <cc:License rdf:about="http://web.resource.org/cc/PublicDomain">
        <cc:permits rdf:resource="http://web.resource.org/cc/Reproduction"/>
        <cc:permits rdf:resource="http://web.resource.org/cc/Distribution"/>
        <cc:permits rdf:resource="http://web.resource.org/cc/DerivativeWorks"/>
      </cc:License>
    </rdf:RDF>
  </metadata>
  <g inkscape:label="Vrstva 1" inkscape:groupmode="layer" id="layer1" transform="translate(-63.1868,-111.1876)">
    <g id="g4663" transform="matrix(0.840045,0,0,0.909521,142.1169,-5.533261)" inkscape:export-filename="/media/KINGSTON/inkscape/9.c/Tomas Krauskopf/vyrobky inscapeu/zvirata/panda.png" inkscape:export-xdpi="90" inkscape:export-ydpi="90">
      <path id="path3758" d="M 184.35284,852.35198 L 146.9772,855.88751 L 105.05586,859.42305 L 60.609153,862.4535 L 22.728432,869.0195 L -1.5152288,871.54488 L -34.345187,866.49411 L -72.225907,861.44335 L -93.43911,844.77583 L -92.428958,813.46111 L -78.791899,778.10577 L -53.538085,774.57023 L -30.809653,777.60069 L -6.5659915,783.66161 L 33.335034,776.08546 L 69.195449,769.01439 L 149.64286,776.46932 L 185.17857,835.21933 L 184.35284,852.35198 z " style="fill:#060606;fill-opacity:1;fill-rule:evenodd;stroke:black;stroke-width:1px;stroke-linecap:butt;stroke-linejoin:miter;stroke-opacity:1"/>
      <g transform="translate(-451.4286,60)" id="g3735">
        <path style="fill:#ccc;fill-opacity:1;fill-rule:evenodd;stroke:black;stroke-width:1px;stroke-linecap:butt;stroke-linejoin:miter;stroke-opacity:1" d="M 731.35045,157.45368 L 742.9672,147.85723 L 755.59411,136.74556 L 774.28193,126.64403 L 797.01036,121.59327 L 824.28448,120.58312 L 827.82002,131.18972 L 834.89108,143.31155 L 843.98246,149.87754 L 854.08398,155.93845 L 865.70074,161.49429 L 882.36825,167.05013 L 894.49008,168.56536 L 893.98501,158.46384 L 899.03577,153.41307 L 913.68298,164.01968 L 927.82512,178.66689 L 942.47233,200.89024 L 960.15,218.56791 L 968.23122,234.73035 L 990.95965,252.40802 L 1019.2439,280.18722 L 1037.4267,302.41057 L 1038.4368,317.56286 L 1016.2135,303.42073 L 993.99011,297.35981 L 969.74645,297.35981 L 936.41141,304.43088 L 901.56115,324.63393 L 884.89363,347.86744 L 868.73119,368.57557 L 853.57891,384.23293 L 836.40631,400.39537 L 824.78956,408.98167 L 791.45452,410.4969 L 771.25147,407.46644 L 744.48243,397.36491 L 738.42152,394.83953 L 730.3403,381.20247 L 724.27938,372.61618 L 707.10679,360.99942 L 693.9748,333.7253 L 688.92404,300.39027 L 691.9545,272.106 L 697.51034,231.6999 L 702.05602,208.46639 L 710.64232,183.21257 L 731.35045,157.45368 z " id="path1932"/>
        <path style="fill:#080808;fill-opacity:1;fill-rule:evenodd;stroke:black;stroke-width:1px;stroke-linecap:butt;stroke-linejoin:miter;stroke-opacity:1" d="M 730.84537,156.69607 L 725.03699,149.87754 L 720.99638,140.53363 L 717.96593,133.21002 L 710.89486,131.69479 L 703.82379,133.96764 L 697.2578,144.06916 L 694.73242,148.86739 L 694.73242,158.46384 L 694.73242,165.78744 L 696.50018,173.11105 L 703.31871,183.46511 L 707.8644,192.05141 L 710.89486,182.7075 L 730.84537,156.69607 z " id="path1934"/>
        <path style="fill:#080808;fill-opacity:1;fill-rule:evenodd;stroke:black;stroke-width:1px;stroke-linecap:butt;stroke-linejoin:miter;stroke-opacity:1" d="M 824.53702,120.07804 L 826.30479,99.874992 L 833.12332,85.227782 L 840.19438,76.136402 L 846.2553,71.590722 L 862.67028,68.812802 L 885.14617,74.621172 L 898.27816,83.712552 L 907.36953,104.42067 L 912.92537,117.30012 L 914.4406,129.42195 C 914.4406,129.42195 911.66268,140.28109 910.39999,140.28109 C 909.1373,140.28109 898.78323,153.41307 898.78323,153.41307 L 894.23755,157.20115 L 894.23755,168.06028 L 882.11572,167.05013 L 865.95327,161.74683 L 854.58906,156.44353 L 846.00276,151.39277 L 834.63855,142.55393 L 827.31494,131.69479 L 824.53702,120.07804 z " id="path1936"/>
        <path style="fill:#282828;fill-opacity:1;fill-rule:evenodd;stroke:black;stroke-width:1px;stroke-linecap:butt;stroke-linejoin:miter;stroke-opacity:1" d="M 718.85436,249.37558 L 726.35436,255.44701 L 726.35436,261.51844 L 726.35436,269.37558 L 722.78294,276.87558 L 723.14008,285.08987 L 722.06865,295.80415 L 721.71151,304.73272 L 720.99722,313.30415 L 717.42579,315.80415 L 710.28294,307.94701 L 707.42579,298.30415 L 711.35436,281.87558 L 713.14008,270.80415 L 713.14008,261.16129 L 718.85436,249.37558 z " id="path1938"/>
        <path style="fill:#080808;fill-opacity:1;fill-rule:evenodd;stroke:black;stroke-width:1px;stroke-linecap:butt;stroke-linejoin:miter;stroke-opacity:1" d="M 720.99638,275.13645 L 724.78446,270.84331 L 724.02684,263.77224 L 718.72354,264.02478 L 715.69308,269.32808 L 718.72354,276.14661 L 720.99638,275.13645 z " id="path1940"/>
        <path style="fill:#282828;fill-opacity:1;fill-rule:evenodd;stroke:black;stroke-width:1px;stroke-linecap:butt;stroke-linejoin:miter;stroke-opacity:1" d="M 823.02179,236.49812 L 828.57763,238.26589 L 828.83017,247.86234 L 825.29463,257.96386 L 819.48626,265.54001 L 811.40504,270.08569 L 804.58651,267.81285 L 792.46468,258.46894 L 781.60554,248.11487 L 774.78701,241.04381 L 775.03955,229.42705 L 780.59538,220.58822 L 789.18168,215.28492 L 795.2426,216.04253 L 802.81874,221.09329 L 808.62712,228.4169 L 823.02179,236.49812 z " id="path1944"/>
        <path style="fill:#080808;fill-opacity:1;fill-rule:evenodd;stroke:black;stroke-width:1px;stroke-linecap:butt;stroke-linejoin:miter;stroke-opacity:1" d="M 765.64008,293.66129 L 763.14008,297.23272 L 755.64008,296.51844 L 743.85436,298.66129 L 737.42579,303.66129 L 731.35436,305.80415 L 724.56865,310.80415 L 723.85436,318.30415 L 727.78294,325.80415 L 734.92579,328.66129 L 746.71151,329.73272 L 751.35436,331.16129 L 753.49722,323.66129 L 762.06865,317.58987 L 769.92579,307.58987 L 769.92579,297.58987 L 765.64008,293.66129 z " id="path1946"/>
        <path style="fill:#1c1c1c;fill-opacity:1;fill-rule:evenodd;stroke:black;stroke-width:1px;stroke-linecap:butt;stroke-linejoin:miter;stroke-opacity:1" d="M 756.35436,304.37558 L 748.85436,308.30415 L 746.35436,312.23272 L 748.85436,317.94701 L 759.21151,310.08987 L 762.06865,304.01844 L 756.35436,304.37558 z " id="path1948"/>
        <path style="fill:#080808;fill-opacity:1;fill-rule:evenodd;stroke:black;stroke-width:1px;stroke-linecap:butt;stroke-linejoin:miter;stroke-opacity:1" d="M 756.71151,346.16129 L 760.28294,357.58987 L 766.71151,367.23272 L 774.56865,373.30415 L 790.64008,377.94701 L 809.21151,375.08987 L 818.14008,361.87558 L 818.49722,343.30415 L 820.28294,327.94701 L 820.28294,315.08987 L 801.71151,330.08987 L 780.67598,329.44737 L 761.71151,337.58987 L 756.71151,346.16129 z " id="path1952" sodipodi:nodetypes="cccccccccccccc"/>
        <path style="fill:#282828;fill-opacity:1;fill-rule:evenodd;stroke:black;stroke-width:1px;stroke-linecap:butt;stroke-linejoin:miter;stroke-opacity:1" d="M 740.64008,321.16129 L 732.42579,317.94701 L 728.49722,317.94701 L 728.49722,321.16129 L 735.28294,325.08987 L 740.64008,321.16129 z " id="path1950"/>
        <path style="fill:#080808;fill-opacity:1;fill-rule:evenodd;stroke:black;stroke-width:1px;stroke-linecap:butt;stroke-linejoin:miter;stroke-opacity:1" d="M 803.32382,240.28619 L 795.2426,237.50827 L 789.68676,239.52858 L 788.6766,245.58949 L 793.72737,250.13518 L 799.28321,248.11487 L 803.32382,240.28619 z " id="path1942"/>
        <path style="fill:none;fill-rule:evenodd;stroke:black;stroke-width:1px;stroke-linecap:butt;stroke-linejoin:miter;stroke-opacity:1" d="M 773.95949,241.11071 L 787.84909,255.50539 L 799.46584,264.8493 L 808.80976,272.42544 L 821.94174,285.05235 L 821.68921,303.2351 L 819.92143,331.51937 L 818.40621,362.32902 L 809.0623,375.71354 L 796.94047,377.4813 L 767.3935,375.96608 L 757.79705,364.34932 L 741.63461,358.79349 L 721.43157,313.08408 L 723.19933,283.53712 L 722.94679,276.97113 L 726.9874,269.39499 L 726.73486,255.25285 L 718.90618,249.19193 L 715.87572,244.89878" id="path2844" sodipodi:nodetypes="cccccccccccccccccccc"/>
        <path style="fill:#dd9797;fill-opacity:1;fill-rule:evenodd;stroke:black;stroke-width:1px;stroke-linecap:butt;stroke-linejoin:miter;stroke-opacity:1" d="M 801.71151,330.44701 L 797.78294,346.87558 L 797.78294,356.16129 L 799.56865,362.94701 L 800.64008,372.94701 L 803.14008,380.80415 L 803.14008,386.51844 L 799.92579,392.58987 L 792.42579,395.44701 L 784.21151,395.80415 L 772.06865,387.23272 L 766.71151,365.08987 L 764.92579,350.44701 L 764.92579,337.58987 L 779.96169,329.29944 L 801.71151,330.44701 z " id="path1954" sodipodi:nodetypes="cccccccccccccccc"/>
        <path style="fill:#78965f;fill-opacity:1;fill-rule:evenodd;stroke:black;stroke-width:1px;stroke-linecap:butt;stroke-linejoin:miter;stroke-opacity:1" d="M 735.35715,378.79075 L 750.35715,367.00504 L 756.42858,367.00504 L 787.85715,369.86218 L 786.07144,365.57647 L 766.42858,363.79075 L 756.07144,363.07647 L 770.00001,354.50504 L 789.64287,339.14789 L 799.97463,331.00232 L 790.56636,330.34931 L 775.00001,342.71932 L 758.57144,354.50504 L 741.07144,364.86218 L 728.92858,374.50504 L 715.7143,363.43361 L 712.14287,364.14789 L 718.2143,370.57647 L 712.14287,392.00504 L 721.42858,398.07647 L 735.35715,378.79075 z " id="path2848" sodipodi:nodetypes="ccccccccccccccccccccc"/>
        <path style="fill:#060606;fill-opacity:1;fill-rule:evenodd;stroke:black;stroke-width:1px;stroke-linecap:butt;stroke-linejoin:miter;stroke-opacity:1" d="M 1037.7829,316.87558 L 1016.7115,304.01844 L 994.21151,296.87558 L 969.56865,296.87558 L 935.99722,304.01844 L 900.64008,324.01844 L 885.64008,345.80415 L 868.85436,367.23272 L 854.92579,381.51844 L 836.71151,399.73272 L 824.56865,409.01844 L 790.99722,410.44701 L 773.14008,406.87558 L 738.49722,395.08986 L 725.99722,374.73272 L 704.92579,371.51844 L 692.78294,371.51844 L 680.99722,375.08986 L 656.71151,401.16129 L 646.35436,414.73272 L 639.21151,421.87558 L 637.06865,439.37558 L 639.56865,449.37558 L 644.92579,455.08986 L 654.21151,455.80415 L 670.28294,470.80415 L 677.42579,487.23272 L 689.56865,502.94701 L 702.06865,512.58986 L 718.49722,522.94701 L 732.42579,538.66129 L 770.28294,576.87558 L 795.64008,600.80415 L 816.35436,606.87558 L 840.64008,608.30415 L 911.35437,597.23272 L 964.21151,583.66129 L 1002.7829,572.23272 L 1022.4258,571.51844 L 1030.9972,570.80415 L 1053.8544,560.08986 L 1088.4972,540.08986 L 1084.9258,500.08986 L 1080.6401,460.80415 L 1073.1401,428.30415 L 1067.0686,400.08986 L 1064.2115,370.08986 L 1050.6401,337.23272 L 1037.7829,316.87558 z " id="path2846"/>
      </g>
      <path sodipodi:nodetypes="cccccccccccccccccccccccccccccc" id="path3752" d="M 272.14286,590.21932 L 254.28571,614.86218 L 241.78571,639.1479 L 211.07143,684.86218 L 183.21429,715.93361 L 172.85714,732.71932 L 173.21429,742.00504 L 153.92857,754.50504 L 130,769.50504 L 118.92857,788.07647 L 102.5,800.57647 L 78.571429,791.29075 L 68.928572,761.29075 L 64.642857,735.21932 L 71.428572,722.00504 L 95.357143,694.50504 L 108.57143,675.21932 L 127.14286,652.00504 L 135.71429,635.57647 L 147.85714,620.93361 L 150.71429,617.36218 L 192.85714,575.21932 L 187.85714,562.71932 L 214.64286,543.07647 L 223.57143,540.21933 L 225.71429,548.07647 L 238.92857,564.1479 L 257.14286,575.21932 L 267.14286,583.79075 L 272.14286,590.21932 z " style="fill:#060606;fill-opacity:1;fill-rule:evenodd;stroke:black;stroke-width:1px;stroke-linecap:butt;stroke-linejoin:miter;stroke-opacity:1"/>
      <path id="path3754" d="M 273.03571,589.86218 L 256.07143,612.71932 L 240.89286,641.29075 L 216.42857,677.71932 L 210.89286,685.93361 L 184.10714,714.86218 L 173.03571,732.71932 L 173.21429,742.71932 L 130.35714,770.04075 L 122.5,782.54075 L 121.07143,788.43361 L 119.64286,795.75504 L 123.75,802.18361 L 125.89286,810.04075 L 144.10714,829.68361 L 164.64286,836.29075 L 181.32238,841.74538 L 184.85792,820.53217 L 193.94929,799.31897 L 208.09142,794.77328 L 230.31478,800.8342 L 269.71073,791.74283 L 292.43916,779.621 L 328.29958,755.37733 L 354.05847,736.68951 L 378.30213,728.10322 L 403.55594,718.50677 L 432.85037,708.91032 L 477.80215,708.91032 L 507.60165,717.49661 L 524.26917,736.68951 L 527.29963,762.95348 L 521.23871,788.71237 L 516.69303,815.98649 L 511.64226,841.2403 L 535.38085,832.654 L 567.20065,822.55248 L 583.3631,806.89511 L 598.01031,782.14638 L 623.26412,745.78088 L 634.88088,709.41539 L 637.91133,648.30116 L 637.40626,622.54227 L 637.40626,599.81384 L 614.46429,613.96932 L 600.89286,621.46932 L 580,630.75504 L 562.32143,632.00504 L 551.25,632.18361 L 518.92857,641.82647 L 486.78572,650.3979 L 457.67857,658.07647 L 436.60714,661.29075 L 390.71429,668.96932 L 365.35714,667.18361 L 345,662.00504 L 326.07143,644.68361 L 305.17857,622.54075 L 273.03571,589.86218 z " style="fill:#ccc;fill-opacity:1;fill-rule:evenodd;stroke:black;stroke-width:1px;stroke-linecap:butt;stroke-linejoin:miter;stroke-opacity:1"/>
      <path id="path3756" d="M 230.31478,800.32912 L 208.34396,794.26821 L 194.7069,799.06643 L 185.61553,820.0271 L 181.57492,840.98776 L 181.82746,847.30122 L 190.41375,861.69589 L 201.52543,878.36341 L 229.30463,885.68701 L 282.84271,885.68701 L 319.2082,881.14133 L 375.77675,869.52457 L 428.80976,865.98904 L 486.89353,864.97889 L 512.14734,841.2403 L 519.21841,801.33927 L 528.05724,762.95348 L 524.01663,735.9319 L 507.34912,717.24408 L 477.80215,708.1527 L 432.34529,708.65778 L 353.55339,736.18444 L 330.06734,753.35703 L 293.19678,779.11592 L 270.21581,791.23775 L 230.31478,800.32912 z " style="fill:#060606;fill-opacity:1;fill-rule:evenodd;stroke:black;stroke-width:1px;stroke-linecap:butt;stroke-linejoin:miter;stroke-opacity:1"/>
      <path sodipodi:nodetypes="ccccccc" id="path3760" d="M -64.902301,783.40906 L -74.498751,787.19713 L -76.01398,796.79358 L -70.963216,798.56135 L -64.397225,797.5512 L -58.588848,791.99536 L -64.902301,783.40906 z " style="fill:#dab6b6;fill-opacity:1;fill-rule:evenodd;stroke:black;stroke-width:1px;stroke-linecap:butt;stroke-linejoin:miter;stroke-opacity:1"/>
      <path id="path4649" d="M -58.336309,836.4417 L -67.932759,842.36337 L -71.468293,852.74589 L -65.407377,854.93389 L -56.568542,852.96873 L -52.022856,843.62431 L -58.336309,836.4417 z " style="fill:#dab6b6;fill-opacity:1;fill-rule:evenodd;stroke:black;stroke-width:1px;stroke-linecap:butt;stroke-linejoin:miter;stroke-opacity:1"/>
      <path sodipodi:nodetypes="ccccccc" style="fill:#dab6b6;fill-opacity:1;fill-rule:evenodd;stroke:black;stroke-width:1px;stroke-linecap:butt;stroke-linejoin:miter;stroke-opacity:1" d="M -76.013978,823.56262 L -85.105352,825.07785 L -88.640886,834.6743 L -82.57997,838.20984 L -75.256364,836.94715 L -71.72083,829.87608 L -76.013978,823.56262 z " id="path4651"/>
      <path sodipodi:nodetypes="ccccccc" id="path4653" d="M -69.953063,803.86465 L -79.549513,804.8748 L -83.085047,814.47125 L -77.024131,818.00679 L -68.690372,816.23902 L -66.41753,810.43064 L -69.953063,803.86465 z " style="fill:#dab6b6;fill-opacity:1;fill-rule:evenodd;stroke:black;stroke-width:1px;stroke-linecap:butt;stroke-linejoin:miter;stroke-opacity:1"/>
      <path id="path4655" d="M 218.25173,819.87567 L 214.30604,823.84489 L 214.00252,829.64607 L 217.64471,833.61529 L 221.59039,829.95139 L 223.41149,819.87567 L 221.28688,816.21176 L 218.25173,819.87567 z " style="fill:#dab6b6;fill-opacity:1;fill-rule:evenodd;stroke:black;stroke-width:1.20543611px;stroke-linecap:butt;stroke-linejoin:miter;stroke-opacity:1"/>
      <path style="fill:#dab6b6;fill-opacity:1;fill-rule:evenodd;stroke:black;stroke-width:1px;stroke-linecap:butt;stroke-linejoin:miter;stroke-opacity:1" d="M 188.64599,822.29995 L 185.363,825.58294 L 185.11046,830.38117 L 188.14092,833.66416 L 191.42391,830.6337 L 192.93914,822.29995 L 191.17137,819.26949 L 188.64599,822.29995 z " id="path4657"/>
      <path id="path4659" d="M 199.33469,807.79536 L 194.95002,811.51461 L 194.61273,816.95043 L 198.66012,820.66968 L 203.04479,817.23653 L 205.0685,807.79536 L 202.70751,804.36221 L 199.33469,807.79536 z " style="fill:#dab6b6;fill-opacity:1;fill-rule:evenodd;stroke:black;stroke-width:1.23005927px;stroke-linecap:butt;stroke-linejoin:miter;stroke-opacity:1"/>
      <path style="fill:#dab6b6;fill-opacity:1;fill-rule:evenodd;stroke:black;stroke-width:1.17332017px;stroke-linecap:butt;stroke-linejoin:miter;stroke-opacity:1" d="M 209.75513,811.08234 L 205.94574,814.97743 L 205.65271,820.67026 L 209.16908,824.56535 L 212.97846,820.96987 L 214.73664,811.08234 L 212.68543,807.48686 L 209.75513,811.08234 z " id="path4661"/>
    </g>
  </g>
</svg>