<?xml version="1.0" encoding="UTF-8" standalone="no"?>
<!-- Created with Inkscape (http://www.inkscape.org/) -->
<svg xmlns:dc="http://purl.org/dc/elements/1.1/" xmlns:cc="http://web.resource.org/cc/" xmlns:rdf="http://www.w3.org/1999/02/22-rdf-syntax-ns#" xmlns:svg="http://www.w3.org/2000/svg" xmlns="http://www.w3.org/2000/svg" xmlns:sodipodi="http://sodipodi.sourceforge.net/DTD/sodipodi-0.dtd" xmlns:inkscape="http://www.inkscape.org/namespaces/inkscape" width="690.95416" height="860.63617" id="svg2" inkscape:label="Pozad  " sodipodi:version="0.32" inkscape:version="0.44.1" sodipodi:docbase="D:\_petr_\School\INKSCAPE\svg\06.Zvirata" sodipodi:docname="papousek.svg" version="1.0">
  <defs id="defs3"/>
  <sodipodi:namedview id="base" pagecolor="#ffffff" bordercolor="#666666" borderopacity="1.0" inkscape:pageopacity="0.0" inkscape:pageshadow="2" inkscape:zoom="0.49497475" inkscape:cx="561.65707" inkscape:cy="532.96249" inkscape:document-units="px" inkscape:current-layer="layer1" showguides="true" inkscape:guide-bbox="true" inkscape:window-width="1024" inkscape:window-height="712" inkscape:window-x="-4" inkscape:window-y="-4"/>
  <metadata id="metadata6">
    <rdf:RDF>
      <cc:Work rdf:about="">
        <dc:format>image/svg+xml</dc:format>
        <dc:type rdf:resource="http://purl.org/dc/dcmitype/StillImage"/>
        <dc:title>papousek</dc:title>
        <dc:publisher>
          <cc:Agent>
            <dc:title>ZS a MS Machovo nam.</dc:title>
          </cc:Agent>
        </dc:publisher>
        <dc:creator>
          <cc:Agent>
            <dc:title>Krauskopf Tom</dc:title>
          </cc:Agent>
        </dc:creator>
        <dc:language>cz</dc:language>
        <dc:subject>
          <rdf:Bag>
            <rdf:li>papousek</rdf:li>
            <rdf:li>parrot</rdf:li>
          </rdf:Bag>
        </dc:subject>
        <cc:license rdf:resource="http://web.resource.org/cc/PublicDomain"/>
      </cc:Work>
      <cc:License rdf:about="http://web.resource.org/cc/PublicDomain">
        <cc:permits rdf:resource="http://web.resource.org/cc/Reproduction"/>
        <cc:permits rdf:resource="http://web.resource.org/cc/Distribution"/>
        <cc:permits rdf:resource="http://web.resource.org/cc/DerivativeWorks"/>
      </cc:License>
    </rdf:RDF>
  </metadata>
  <g inkscape:label="Vrstva 1" inkscape:groupmode="layer" id="layer1" transform="translate(-24.74319,-119.6456)">
    <g id="g2966" inkscape:export-filename="/media/KINGSTON/inkscape/9.c/Tomas Krauskopf/vyrobky inscapeu/zvirata/papousek.png" inkscape:export-xdpi="90" inkscape:export-ydpi="90">
      <path sodipodi:nodetypes="cccccccccccccccccc" id="path1962" d="M 557.16959,619.99149 L 570.95058,619.48032 L 595.01321,623.12348 L 579.29843,608.29023 L 570.96005,602.43959 L 567.75298,604.16037 L 540.81344,576.62796 L 515.15684,550.4722 L 506.17699,549.43972 L 502.32845,538.0826 L 497.83852,531.19951 L 493.99007,532.23197 L 483.08599,525.69303 L 487.57592,542.21247 L 512.27045,563.55007 L 544.34129,585.23183 L 558.45244,601.75128 L 557.16959,619.99149 z " style="fill:#11110f;fill-opacity:1;fill-rule:evenodd;stroke:black;stroke-width:0.9302296px;stroke-linecap:butt;stroke-linejoin:miter;stroke-opacity:1"/>
      <path id="path1964" d="M 25.191827,586.45701 L 45.565815,587.38443 L 80.998773,580.89246 L 165.15197,592.94899 L 210.32901,582.74731 L 288.28159,587.38443 L 340.5452,598.51353 L 481.39117,616.13461 L 565.54445,617.98946 L 715.24872,630.97341 L 714.36286,837.78921 L 643.49694,811.82128 L 530.99736,791.41798 L 423.81262,772.86943 L 352.06084,765.45005 L 287.39572,752.46613 L 261.70685,748.75644 L 195.27,732.06274 L 143.89225,716.29652 L 87.199481,714.44167 L 49.109102,734.84505 L 25.191827,733.91758 L 25.191827,586.45701 z " style="fill:#493a25;fill-opacity:1;fill-rule:evenodd;stroke:black;stroke-width:0.89727628px;stroke-linecap:butt;stroke-linejoin:miter;stroke-opacity:1"/>
      <path id="path1966" d="M 397.40888,248.85383 L 309.71678,349.84527 L 359.20012,496.08612 L 476.33177,545.92606 L 488.8592,544.94237 L 482.28229,525.9245 L 494.80972,533.13818 L 497.31518,531.49871 L 502.95255,539.69606 L 506.71077,549.205 L 515.47998,551.50026 L 566.84256,603.63545 L 570.91393,602.97967 L 583.44136,610.84912 L 571.85346,590.84757 L 585.63366,601.99598 L 573.73261,568.22287 L 576.86445,568.22287 L 572.47985,553.46762 L 566.21617,519.03872 L 557.13373,493.46297 L 548.9909,476.41247 L 541.78761,453.78777 L 535.2107,427.55622 L 527.06788,407.55467 L 520.80421,387.88101 L 514.8536,372.14208 L 493.24381,334.76214 L 487.91967,325.25321 L 496.68888,328.20425 L 491.67789,317.05584 L 462.23834,287.87325 L 453.78236,276.06906 L 419.64506,258.36277 L 397.40888,248.85383 z " style="fill:#599d43;fill-opacity:1;fill-rule:evenodd;stroke:black;stroke-width:0.89727628px;stroke-linecap:butt;stroke-linejoin:miter;stroke-opacity:1"/>
      <path id="path1952" d="M 195.40382,121.07793 L 211.06317,120.09425 L 238.62348,120.42214 L 274.63994,136.16107 L 301.8871,157.1463 L 340.09578,192.88677 L 385.1946,233.21777 L 388.63967,240.43144 L 397.40888,247.97301 L 404.92532,277.4835 L 402.41987,293.22242 L 399.28795,304.69872 L 392.71104,320.43765 L 392.08466,330.60237 L 395.52973,339.12762 L 399.91433,354.21077 L 406.17809,376.50757 L 408.99678,386.6723 L 408.37039,397.49281 L 400.85387,408.96911 L 390.83197,411.92016 L 377.99131,410.93647 L 364.83749,413.55963 L 398.9748,438.80749 L 410.5627,463.39956 L 412.12861,475.85955 L 426.84835,494.87741 L 439.68901,505.69793 L 466.62294,539.47103 L 476.01854,544.71735 L 490.73827,543.73366 L 514.54045,563.73521 L 544.91953,584.72044 L 559.01288,600.45937 L 557.76011,618.16567 L 485.72737,616.85408 L 473.19985,601.77095 L 459.1065,594.22938 L 439.06263,591.60622 L 416.82637,596.52464 L 396.15611,587.67149 L 386.76052,581.44151 L 366.71665,581.7694 L 347.92546,587.67149 C 347.92546,587.67149 336.33756,590.29465 335.08479,590.62255 C 333.83211,590.95044 326.62882,587.67149 326.62882,587.67149 C 326.62882,587.67149 313.78815,585.37623 310.96946,585.70413 C 308.15086,586.03203 294.99705,577.50677 294.99705,577.50677 L 284.34868,567.01415 L 267.43665,553.57049 L 245.51362,534.55262 L 227.9752,509.96055 L 229.85427,518.4858 L 214.82139,495.86109 L 217.01369,505.04213 L 206.05218,479.13848 L 204.79941,488.97531 L 198.84889,450.61169 L 196.65658,419.46172 L 191.33245,399.78807 L 181.93685,393.55808 L 176.92586,383.06546 L 175.67309,359.12918 L 169.72257,346.99709 L 167.8435,318.79818 L 160.01383,294.20611 L 146.86001,259.44931 L 160.95336,282.89375 L 176.4561,302.56742 L 186.47808,309.4532 L 199.63189,322.24107 L 206.99171,325.68396 L 206.2088,324.04449 L 204.48626,312.24029 L 227.34882,312.40424 L 250.99438,304.04294 L 257.25805,297.15716 L 259.60697,283.54954 L 255.84875,263.38404 L 257.41467,254.203 L 249.11523,238.95592 L 253.3433,225.51225 L 264.30481,211.4128 L 269.47233,196.32966 L 275.42286,178.13153 L 274.63994,160.91708 L 279.3377,157.63814 L 265.5575,143.86658 L 244.73062,131.24265 L 224.53013,125.8324 L 195.40382,121.07793 z " style="fill:#66bf2a;fill-opacity:1;fill-rule:evenodd;stroke:black;stroke-width:0.89727628px;stroke-linecap:butt;stroke-linejoin:miter;stroke-opacity:1"/>
      <path id="path1932" d="M 274.63994,161.40893 L 269.00257,158.12998 L 260.85974,152.22789 L 255.84875,148.29315 L 251.46415,148.29315 L 245.20039,150.9163 L 241.44217,158.12998 L 236.43118,168.6226 L 228.91474,177.80364 L 220.14553,186.32889 L 205.11265,194.19835 L 194.46428,196.8215 L 181.93685,196.8215 L 169.40942,198.78887 L 154.37645,202.72361 L 136.83803,209.93728 L 125.56337,220.42989 L 113.03594,216.49517 L 104.89303,204.69097 L 102.38758,185.6731 L 108.65134,169.27838 L 136.83803,146.98157 L 167.53027,129.27529 L 195.09067,121.40582 L 224.53013,125.99634 L 244.57409,131.24265 L 265.87073,144.35842 L 279.02455,157.47419 L 274.63994,161.40893 z " style="fill:#365da2;fill-opacity:1;fill-rule:evenodd;stroke:black;stroke-width:0.89727628px;stroke-linecap:butt;stroke-linejoin:miter;stroke-opacity:1"/>
      <path id="path1934" d="M 125.87652,219.7741 L 129.94798,229.93883 L 143.72818,246.00565 L 146.86001,259.12142 L 160.32698,282.40191 L 156.56876,271.25351 L 150.30508,255.51459 L 146.86001,242.07092 L 143.72818,220.42989 L 153.43692,215.83937 L 163.14566,213.54411 L 182.56324,217.80674 L 210.43678,220.102 L 224.84337,230.92251 L 236.43118,245.34986 L 256.1619,264.36773 L 257.10152,254.5309 L 249.27184,239.11987 L 253.65645,225.67621 L 264.30481,210.92096 L 269.31572,197.1494 L 275.26633,177.80364 L 274.63994,160.75313 L 269.78557,158.29393 L 256.00537,148.4571 L 251.7773,147.63736 L 245.98339,150.58841 L 235.80488,169.44233 L 227.66197,178.95127 L 219.83238,186.98468 L 205.26918,194.19835 L 194.15113,196.65756 L 182.40662,196.8215 L 168.93966,198.78887 L 154.84622,202.39571 L 136.21165,209.60939 L 125.87652,219.7741 z " style="fill:#dfe3e8;fill-opacity:1;fill-rule:evenodd;stroke:black;stroke-width:0.89727628px;stroke-linecap:butt;stroke-linejoin:miter;stroke-opacity:1"/>
      <path id="path1936" d="M 181.53978,209.92242 L 185.30449,207.14015 L 184.86156,202.50302 L 180.43249,202.03931 L 176.88921,202.96673 L 176.00334,205.98086 L 181.53978,209.92242 z " style="fill:#362918;fill-opacity:1;fill-rule:evenodd;stroke:black;stroke-width:0.89727628px;stroke-linecap:butt;stroke-linejoin:miter;stroke-opacity:1"/>
      <path id="path1938" d="M 135.03403,213.86398 L 137.0271,217.34182 L 136.36274,221.28338 L 131.71217,220.1241 L 132.37652,216.64625 L 135.03403,213.86398 z " style="fill:#362918;fill-opacity:1;fill-rule:evenodd;stroke:black;stroke-width:0.89727628px;stroke-linecap:butt;stroke-linejoin:miter;stroke-opacity:1"/>
      <path id="path1940" d="M 259.71369,186.73679 L 265.25013,183.95452 L 267.68613,173.28913 L 264.14285,162.8556 L 259.9352,156.59548 L 254.62027,154.27691 L 247.09077,156.13177 L 244.21184,163.31931 L 243.7689,174.91212 L 250.19112,184.41823 L 259.71369,186.73679 z " style="fill:#432644;fill-opacity:1;fill-rule:evenodd;stroke:black;stroke-width:0.89727628px;stroke-linecap:butt;stroke-linejoin:miter;stroke-opacity:1"/>
      <path id="path1942" d="M 256.17041,159.60961 L 259.27085,162.62374 L 262.59263,169.11572 L 261.92827,175.37583 L 257.49921,176.99883 L 253.29148,175.14398 L 249.52677,169.34757 L 249.74819,163.55117 L 251.96276,158.21847 L 256.17041,159.60961 z " style="fill:#14111a;fill-opacity:1;fill-rule:evenodd;stroke:black;stroke-width:0.89727628px;stroke-linecap:butt;stroke-linejoin:miter;stroke-opacity:1"/>
      <path id="path1944" d="M 251.93391,158.62182 L 250.05485,163.21234 L 250.99438,165.17971 L 253.03007,165.5076 L 254.7526,164.52392 L 256.47514,162.22866 L 255.22237,159.44156 L 251.93391,158.62182 z " style="fill:#fefdf9;fill-opacity:1;fill-rule:evenodd;stroke:black;stroke-width:0.89727628px;stroke-linecap:butt;stroke-linejoin:miter;stroke-opacity:1"/>
      <path id="path1946" d="M 219.20599,227.64357 L 218.89276,235.51303 L 217.32684,247.64512 L 217.64008,256.49826 L 212.94224,262.72826 L 209.49725,268.63035 L 205.73894,286.66454 L 203.85988,308.63346 L 206.05218,324.70028 L 207.30495,326.33975 L 200.10166,322.73291 L 186.00822,309.61714 L 176.92586,302.73136 L 160.64021,282.40191 L 150.46161,256.33432 L 146.54678,241.74303 L 143.57156,220.59384 L 153.12368,215.83937 L 163.14566,213.21622 L 183.18962,217.97069 L 210.74993,219.93806 L 219.20599,227.64357 z " style="fill:#47444b;fill-opacity:1;fill-rule:evenodd;stroke:black;stroke-width:0.89727628px;stroke-linecap:butt;stroke-linejoin:miter;stroke-opacity:1"/>
      <path id="path1948" d="M 205.89556,284.36928 L 215.76092,280.10665 L 222.65107,267.97456 L 225.93952,256.99011 L 228.75812,240.10355 L 229.07136,235.84092 L 235.64826,243.87433 L 237.05756,246.00565 L 256.1619,264.20378 L 259.49227,283.65271 L 257.2777,297.10038 L 251.51983,303.59235 L 240.00411,308.69319 L 228.04553,312.40289 L 204.57115,312.40289 L 203.54664,308.30557 L 205.89556,284.36928 z " style="fill:#47444b;fill-opacity:1;fill-rule:evenodd;stroke:black;stroke-width:0.89727628px;stroke-linecap:butt;stroke-linejoin:miter;stroke-opacity:1"/>
      <path id="path1950" d="M 219.20599,226.98778 L 218.42299,240.75934 L 217.32684,247.48118 L 217.79661,256.33432 L 212.94224,262.56431 L 209.34063,268.13852 L 205.73894,284.20534 L 216.07416,280.10665 L 222.65107,268.46641 L 225.93952,257.318 L 228.28835,243.87433 L 229.22797,235.51303 L 224.68675,230.26673 L 219.20599,226.98778 z " style="fill:#111217;fill-opacity:1;fill-rule:evenodd;stroke:black;stroke-width:0.89727628px;stroke-linecap:butt;stroke-linejoin:miter;stroke-opacity:1"/>
      <path id="path1954" d="M 199.69915,624.94515 L 197.04164,614.27976 L 194.38422,609.17892 L 217.85852,587.38443 L 272.77964,557.24312 L 288.72443,570.69078 L 294.92523,577.18276 L 302.89767,581.81988 L 297.58274,585.99329 L 289.6103,585.52958 L 286.06701,580.89246 L 261.70685,591.55785 L 239.11833,603.15066 L 226.71682,606.39665 L 210.32901,619.3806 L 203.68537,625.87257 L 199.69915,624.94515 z " style="fill:#202625;fill-opacity:1;fill-rule:evenodd;stroke:black;stroke-width:0.89727628px;stroke-linecap:butt;stroke-linejoin:miter;stroke-opacity:1"/>
      <path id="path1956" d="M 197.92751,619.84431 L 193.27693,625.64072 L 191.50529,630.97341 L 191.06236,635.61054 L 192.16964,644.42108 L 194.60564,650.91305 L 191.28378,649.75377 L 187.07614,644.88479 L 184.1972,640.01581 L 182.86849,631.66898 L 184.41871,622.85844 L 195.04857,610.80192 L 197.04164,614.27976 L 197.92751,619.84431 z " style="fill:#141011;fill-opacity:1;fill-rule:evenodd;stroke:black;stroke-width:0.89727628px;stroke-linecap:butt;stroke-linejoin:miter;stroke-opacity:1"/>
      <path sodipodi:nodetypes="ccccccccccccccccccccc" id="path1958" d="M 484.49152,616.59832 L 466.33215,614.74347 L 440.20035,610.57006 L 422.04098,608.2515 L 397.68082,605.00551 L 365.34821,605.46922 L 328.14361,610.57006 L 299.35438,627.72743 L 289.16737,637.46539 L 281.63786,616.59832 L 300.24016,605.93293 L 325.92903,595.73126 L 335.23018,590.16671 L 365.34821,581.35617 L 387.05095,580.89246 L 398.12375,588.31186 L 417.16889,597.1224 L 439.75741,591.55785 L 459.68851,594.80383 L 472.97588,602.22323 L 484.49152,616.59832 z " style="fill:#202625;fill-opacity:1;fill-rule:evenodd;stroke:black;stroke-width:0.89727628px;stroke-linecap:butt;stroke-linejoin:miter;stroke-opacity:1"/>
      <path id="path1960" d="M 285.40266,627.95928 L 281.85928,631.66898 L 279.64479,639.08838 L 277.87315,646.04407 L 279.20186,652.53605 L 285.18115,662.73772 L 280.75208,660.1873 L 275.88,654.85461 L 272.55813,647.43521 L 271.67235,633.98755 L 274.55129,626.10443 L 281.85928,619.14874 L 285.40266,627.95928 z " style="fill:#141011;fill-opacity:1;fill-rule:evenodd;stroke:black;stroke-width:0.89727628px;stroke-linecap:butt;stroke-linejoin:miter;stroke-opacity:1"/>
      <path id="path1968" d="M 401.1671,298.46873 L 408.37039,306.01031 L 418.39229,318.47028 L 421.83736,322.40502 L 407.11762,320.76554 L 410.24946,332.24184 L 416.19998,342.07867 L 420.89782,344.70183 L 423.71651,356.83392 L 429.3538,364.04759 L 432.48572,375.85178 L 427.78788,384.04915 L 417.76599,389.29545 L 409.30993,387.98387 L 397.40888,346.99709 L 392.08466,329.94658 L 392.39789,320.76554 L 398.34841,305.68241 L 401.1671,298.46873 z " style="fill:#fd3c4b;fill-opacity:1;fill-rule:evenodd;stroke:black;stroke-width:0.89727628px;stroke-linecap:butt;stroke-linejoin:miter;stroke-opacity:1"/>
      <path id="path1970" d="M 398.03527,438.47959 L 407.11762,454.21852 L 416.82637,474.87586 L 429.3538,491.92637 L 441.88132,503.40267 L 434.36479,486.68005 L 424.3429,468.31797 L 411.81538,446.02117 L 404.61217,435.20065 L 398.03527,438.47959 z " style="fill:#9d581d;fill-opacity:1;fill-rule:evenodd;stroke:black;stroke-width:0.89727628px;stroke-linecap:butt;stroke-linejoin:miter;stroke-opacity:1"/>
      <path sodipodi:nodetypes="ccccccccccccccc" id="path1972" d="M 404.61217,434.87276 L 416.51322,454.21852 L 429.66703,477.17112 L 439.06263,496.18899 L 446.89222,511.60002 L 450.96367,520.78106 L 466.30979,539.79893 L 475.70539,545.04524 L 471.32078,535.8642 L 462.86472,514.87897 L 451.90321,490.61478 L 436.24394,467.0064 L 417.1396,435.85644 L 413.38138,431.92171 L 404.61217,434.87276 z " style="fill:#161a1b;fill-opacity:1;fill-rule:evenodd;stroke:black;stroke-width:0.89727628px;stroke-linecap:butt;stroke-linejoin:miter;stroke-opacity:1"/>
      <path id="path1974" d="M 523.30966,528.32263 L 525.81511,512.9116 L 527.06788,494.87741 L 527.38111,476.51533 L 522.99651,458.80904 L 517.35913,449.3001 L 517.98552,459.79273 L 517.98552,473.56429 L 516.73275,484.0569 L 516.73275,496.18899 L 523.93604,530.61789 L 523.30966,528.32263 z " style="fill:#373c38;fill-opacity:1;fill-rule:evenodd;stroke:black;stroke-width:0.89727628px;stroke-linecap:butt;stroke-linejoin:miter;stroke-opacity:1"/>
      <path sodipodi:nodetypes="ccccccccccccccccc" id="path1976" d="M 508.27669,794.90071 L 507.02401,814.57431 L 516.4196,802.11435 L 527.06788,829.65747 L 535.83709,860.47951 L 558.3865,870.97215 L 564.02387,892.61315 L 576.5513,911.63103 L 587.19958,928.6816 L 609.1226,949.66679 L 616.63913,964.09415 L 609.74899,925.40259 L 596.59517,877.53007 L 574.04576,798.83543 L 522.05689,789.65439 L 507.65039,786.37548 L 508.27669,794.90071 z " style="fill:#4f5128;fill-opacity:1;fill-rule:evenodd;stroke:black;stroke-width:0.89727628px;stroke-linecap:butt;stroke-linejoin:miter;stroke-opacity:1"/>
      <path sodipodi:nodetypes="ccccccccccc" id="path1978" d="M 615.69951,952.94571 L 626.03473,979.83312 L 624.15557,942.12521 L 621.02374,925.40259 L 592.83695,810.63959 L 590.95789,802.11435 L 574.67215,799.49123 L 592.83695,863.10271 L 601.60616,897.20367 L 609.74899,929.00945 L 615.69951,952.94571 z " style="fill:#599d43;fill-opacity:1;fill-rule:evenodd;stroke:black;stroke-width:0.89727628px;stroke-linecap:butt;stroke-linejoin:miter;stroke-opacity:1"/>
      <path style="fill:#66bf2a;fill-opacity:1;fill-rule:evenodd;stroke:black;stroke-width:0.89727628px;stroke-linecap:butt;stroke-linejoin:miter;stroke-opacity:1" d="M 195.40382,121.07793 L 211.06317,120.09425 L 238.62348,120.42214 L 274.63994,136.16107 L 301.8871,157.1463 L 340.09578,192.88677 L 385.1946,233.21777 L 388.63967,240.43144 L 397.40888,247.97301 L 404.92532,277.4835 L 402.41987,293.22242 L 399.28795,304.69872 L 392.71104,320.43765 L 392.08466,330.60237 L 395.52973,339.12762 L 399.91433,354.21077 L 406.17809,376.50757 L 408.99678,386.6723 L 408.37039,397.49281 L 400.85387,408.96911 L 390.83197,411.92016 L 377.99131,410.93647 L 364.83749,413.55963 L 398.9748,438.80749 L 410.5627,463.39956 L 412.12861,475.85955 L 426.84835,494.87741 L 439.68901,505.69793 L 466.62294,539.47103 L 476.01854,544.71735 L 490.73827,543.73366 L 514.54045,563.73521 L 544.91953,584.72044 L 559.01288,600.45937 L 557.76011,618.16567 L 485.72737,616.85408 L 473.19985,601.77095 L 459.1065,594.22938 L 439.06263,591.60622 L 416.82637,596.52464 L 396.15611,587.67149 L 386.76052,581.44151 L 366.71665,581.7694 L 347.92546,587.67149 C 347.92546,587.67149 336.33756,590.29465 335.08479,590.62255 C 333.83211,590.95044 326.62882,587.67149 326.62882,587.67149 C 326.62882,587.67149 313.78815,585.37623 310.96946,585.70413 C 308.15086,586.03203 294.99705,577.50677 294.99705,577.50677 L 284.34868,567.01415 L 267.43665,553.57049 L 245.51362,534.55262 L 227.9752,509.96055 L 229.85427,518.4858 L 214.82139,495.86109 L 217.01369,505.04213 L 206.05218,479.13848 L 204.79941,488.97531 L 198.84889,450.61169 L 196.65658,419.46172 L 191.33245,399.78807 L 181.93685,393.55808 L 176.92586,383.06546 L 175.67309,359.12918 L 169.72257,346.99709 L 167.8435,318.79818 L 160.01383,294.20611 L 146.86001,259.44931 L 160.95336,282.89375 L 176.4561,302.56742 L 186.47808,309.4532 L 199.63189,322.24107 L 206.99171,325.68396 L 206.2088,324.04449 L 204.48626,312.24029 L 227.34882,312.40424 L 250.99438,304.04294 L 257.25805,297.15716 L 259.60697,283.54954 L 255.84875,263.38404 L 257.41467,254.203 L 249.11523,238.95592 L 253.3433,225.51225 L 264.30481,211.4128 L 269.47233,196.32966 L 275.42286,178.13153 L 274.63994,160.91708 L 279.3377,157.63814 L 265.5575,143.86658 L 244.73062,131.24265 L 224.53013,125.8324 L 195.40382,121.07793 z " id="path2071"/>
    </g>
  </g>
</svg>