<?xml version="1.0" encoding="UTF-8" standalone="no"?>
<!-- Created with Inkscape (http://www.inkscape.org/) -->
<svg xmlns:dc="http://purl.org/dc/elements/1.1/" xmlns:cc="http://creativecommons.org/ns#" xmlns:rdf="http://www.w3.org/1999/02/22-rdf-syntax-ns#" xmlns:svg="http://www.w3.org/2000/svg" xmlns="http://www.w3.org/2000/svg" xmlns:sodipodi="http://sodipodi.sourceforge.net/DTD/sodipodi-0.dtd" xmlns:inkscape="http://www.inkscape.org/namespaces/inkscape" id="svg6255" version="1.1" inkscape:version="0.48.1 " width="388.75" height="271.25" xml:space="preserve" sodipodi:docname="Pelican_16.pdf"><metadata id="metadata6261"><rdf:RDF><cc:Work rdf:about=""><dc:format>image/svg+xml</dc:format><dc:type rdf:resource="http://purl.org/dc/dcmitype/StillImage"/><dc:title/></cc:Work></rdf:RDF></metadata><defs id="defs6259"/><sodipodi:namedview pagecolor="#ffffff" bordercolor="#666666" borderopacity="1" objecttolerance="10" gridtolerance="10" guidetolerance="10" inkscape:pageopacity="0" inkscape:pageshadow="2" inkscape:window-width="640" inkscape:window-height="480" id="namedview6257" showgrid="false" inkscape:zoom="1.0728111" inkscape:cx="194.375" inkscape:cy="135.625" inkscape:window-x="491" inkscape:window-y="118" inkscape:window-maximized="0" inkscape:current-layer="g6263"/><g id="g6263" inkscape:groupmode="layer" inkscape:label="Pelican_16" transform="matrix(1.25,0,0,-1.25,0,271.25)"><g id="g6265" transform="scale(0.24,0.24)"><path d="m 585.469,897.648 9.109,-3.929 5.5,-1.571 13.195,-7.855 5.34,-8.016 10.684,-23.726 23.875,-38.653 0,-1.414 -17.438,-1.257 0,-1.571 2.989,-2.515 -1.575,-1.414 3.93,-7.856 -3.93,-4.086 -5.339,4.086 -2.512,2.672 -5.5,0 -2.668,-2.672 10.68,-29.383 5.339,-6.597 1.575,1.414 2.355,-5.344 -1.101,-9.27 -2.829,-2.671 -13.351,7.855 -14.609,11.941 -2.668,5.5 -1.258,0 -1.258,1.258 -3.926,-9.269 0,-6.602 -12.098,-21.367 -13.195,-10.688 -45.238,-23.882 -9.426,-8.012 -5.183,0 -21.364,-13.356 9.422,0 13.195,2.668 30.633,-5.183 38.645,-17.285 13.195,-1.258 17.277,-4.242 87.5,4.242 85.141,-1.57 34.715,-6.598 35.816,-11.942 11.938,-5.343 17.437,-4.086 23.879,-17.285 15.863,-6.442 11.942,-8.172 18.848,-9.269 3.929,-3.926 1.254,1.254 6.758,-6.598 14.609,-5.5 22.46,-13.199 20.11,-17.285 31.89,-30.481 2.67,0 31.73,-36.14 8.17,-10.371 8.01,-5.5 27.96,-35.668 6.6,-9.426 5.18,-3.93 11.94,-14.613 10.68,-11.941 2.67,-5.5 17.44,-15.868 14.61,-13.355 17.28,-14.613 7.85,-3.93 16.18,-13.355 7.86,-5.188 0,-9.426 -12.1,-6.758 -15.87,-2.511 -1.25,-1.414 26.55,-21.055 18.53,-10.688 10.69,-3.925 8.01,0 1.41,-4.243 0,-3.929 -6.76,0 -37.07,-11.942 -2.82,0 -5.34,-9.429 -37.23,-21.211 -16.03,-5.184 -18.53,1.254 -15.87,6.602 -2.83,2.672 -19.95,-6.602 -23.87,3.93 -6.6,1.257 0,1.415 -57.18,11.941 -20.11,0 -10.68,3.926 -14.608,0 -13.196,5.5 -10.527,7.855 -33.457,9.274 -34.402,1.414 -8.012,3.925 -21.207,-23.882 -9.426,-14.614 -6.598,-2.828 -13.195,-11.785 -5.496,-2.828 2.668,-31.895 9.269,-34.414 9.426,-11.941 0,-17.281 -4.086,-4.0862 L 845.762,94.25 820.629,63.7656 806.02,46.3281 758.105,6.25781 744.754,2.32813 731.402,13.1719 l -21.207,9.2695 -14.609,2.6719 -5.34,3.9297 -13.351,2.6718 -10.528,2.8282 -13.195,0 -38.484,1.2539 -5.5,2.6719 -3.926,0 -5.184,7.8593 0,8.0117 34.402,15.8711 35.817,14.6133 14.609,12.0977 7.852,11.9411 4.242,10.684 3.926,3.93 1.258,0 1.257,-1.258 6.754,10.683 6.598,2.672 13.352,-3.926 3.929,2.512 22.617,0 16.024,12.102 2.515,3.926 2.829,9.269 9.265,-1.414 18.696,-17.281 0,-2.672 3.925,-2.516 2.672,2.516 -2.672,10.683 -1.257,1.415 -8.168,25.296 -5.184,9.114 0,4.242 -1.258,1.258 -1.41,5.187 -21.367,9.426 -6.438,11.941 -10.683,7.856 -10.684,6.758 -1.41,3.929 -11.941,8.168 -3.926,0 -1.258,-24.039 14.609,-33.312 7.856,-17.282 0,-10.687 -2.672,-2.668 -9.109,2.668 -29.536,-11.781 -13.351,-8.172 -5.184,-8.016 -6.597,-15.867 -4.082,-6.602 -5.184,-2.671 -5.344,0 -23.875,2.671 -6.758,2.672 -14.605,-2.672 -22.465,0 -5.34,-2.671 -2.672,1.414 -3.925,0 -1.258,-1.414 -12.098,-4.086 -14.605,1.257 -2.516,4.243 0,3.929 7.855,10.684 0,5.187 3.926,3.926 6.754,41.168 -1.414,18.856 -2.512,5.187 1.258,12.098 5.184,2.515 1.414,-1.257 1.254,0 2.672,2.672 22.621,1.253 8.011,4.086 50.266,5.344 20.109,5.184 1.258,0 0,14.613 -3.929,9.43 -10.68,1.257 -15.867,6.754 -13.352,6.602 -10.527,2.672 -5.184,-2.672 -29.531,0 -21.051,2.672 -22.777,5.34 -33.145,18.543 -42.57,12.097 -21.363,5.184 -1.258,-1.254 -3.926,4.082 -20.109,3.93 -25.133,-8.012 -13.195,4.082 -10.84,7.859 -8.012,1.254 0,1.414 -6.598,2.832 -26.546,9.114 -25.29,17.281 -21.207,18.699 -9.425,19.957 -1.258,0 -1.254,5.34 -16.024,29.383 -8.011,10.687 -6.754,27.653 2.824,14.613 -2.824,33.312 1.57,1.258 0,3.926 -6.758,-1.258 -2.668,-2.668 -18.535,-2.672 -8.172,-3.929 -19.793,0 -21.363,-2.828 -22.621,0 -26.703,-2.512 -18.535,0 -5.184,2.512 -8.1678,0 -2.5157,2.828 -1.414,-1.414 -8.0117,1.414 -10.5235,5.343 -14.7656,9.27 -22.4649,0 -8.1679,-10.684 -7.8555,-15.871 -8.01171,-4.242 -6.59766,0 0,24.039 3.92969,17.285 7.85158,18.7 8.1719,12.097 38.6406,33.156 23.8789,11.942 46.4963,30.64 8.168,6.754 41,31.899 6.754,7.855 13.199,5.344 29.375,22.469 19.793,14.926 49.324,27.968 35.973,23.727 14.609,4.086 35.817,19.957 29.214,18.539 13.356,10.687 11.937,17.282 15.868,19.957 32.203,25.297 14.605,5.343 19.793,2.512 25.293,-2.512 37.387,-2.672 0,0 z m -106.504,-140.945 0,0 -2.672,2.672 -1.258,0 -9.426,-9.43 -5.183,-1.254 -10.68,-9.429 -16.023,-7.856 -5.34,-6.758 5.34,-1.414 5.34,5.5 19.953,9.114 19.949,18.855" style="fill:#231f20;fill-opacity:1;fill-rule:nonzero;stroke:none" id="path6267"/><path d="m 570.859,892.148 13.196,-2.515 13.351,-5.34 7.856,-5.344 3.926,-7.855 -9.11,0 -8.168,6.441 -1.258,0 -2.672,-2.512 0,-5.343 13.356,-9.27 15.863,-5.344 18.535,-25.296 4.243,-10.688 -2.829,1.258 -3.925,0 -1.414,6.914 -5.184,5.187 -2.828,0 0,-7.859 4.086,-9.426 0,-3.929 -1.258,-1.571 -5.496,2.828 -1.258,-1.257 -3.93,5.187 -6.753,14.77 -3.926,2.511 -3.926,-3.925 13.352,-35.985 9.109,-22.469 8.012,-13.355 -10.68,5.344 -17.125,19.953 -8.168,42.582 -3.926,3.93 -2.515,0 0,-18.543 8.011,-30.797 -8.011,-27.813 -8.168,-12.097 -18.536,-13.043 -31.89,-17.442 -10.68,-6.597 -14.609,-5.5 -9.27,-7.856 -21.207,-11.941 -25.289,-27.969 -8.168,-17.285 0,-14.614 4.238,-10.683 10.372,1.414 26.703,9.269 63.933,0 15.867,-4.085 25.289,-5.184 7.856,-3.93 8.168,0 22.621,-9.426 42.414,-21.371 7.856,-1.414 5.496,-2.515 34.402,-7.856 14.609,-4.242 21.364,0 2.672,2.828 -2.672,2.672 -14.61,0 -49.324,13.355 -23.879,6.602 -42.41,21.367 -19.953,6.442 -46.34,12.101 -25.449,2.512 -57.02,-1.258 -8.172,-2.668 -13.351,-5.187 -2.512,13.355 13.195,24.984 13.352,13.356 25.293,5.5 21.203,0 1.258,1.258 0,-1.258 30.633,-8.012 9.425,-6.601 8.012,-1.258 3.926,-4.242 30.477,-5.184 6.753,-2.672 17.278,1.258 26.551,2.672 19.793,0 66.601,2.672 6.758,-2.672 11.781,2.672 46.653,-5.344 42.57,-13.199 7.855,-2.672 10.684,-5.5 4.082,-3.926 10.527,0 13.352,-10.687 17.121,-7.856 76.031,-42.582 5.184,0 32.046,-26.555 57.18,-57.351 39.9,-45.094 19.95,-25.301 73.04,-78.406 16.18,-11.941 14.61,-9.426 0,-1.258 -27.96,-5.187 -14.61,2.515 -12.09,7.856 -17.44,8.172 -29.22,24.039 -22.46,25.3 -10.68,17.125 -42.58,40.067 -3.92,-2.668 0,-2.832 37.07,-35.824 42.57,-52.008 30.64,-21.371 32.04,-18.539 0,-15.871 -13.35,1.257 -8.01,5.34 -6.6,1.414 -9.43,9.274 -6.44,18.695 -4.24,0 -2.51,-4.082 9.27,-21.215 13.35,-10.683 2.67,0 -5.34,-3.93 -8.02,1.258 -33.14,35.824 -6.75,10.687 -5.34,2.668 -35.98,33.313 -1.25,3.93 -6.6,3.925 -14.61,13.36 -24.04,22.625 -2.51,0 -2.83,-2.516 11.94,-17.441 1.26,1.414 18.85,-16.028 37.07,-35.824 20.11,-17.285 15.86,-21.367 5.35,-5.188 4.08,-4.242 -2.83,-2.512 -34.56,3.926 -23.87,16.028 -7.86,9.273 -6.75,4.082 -31.89,33.156 -29.22,26.711 -21.364,19.797 -1.414,0 -2.512,-2.668 25.29,-25.301 76.97,-74.32 17.44,-12.098 2.67,0 2.51,-2.515 -11.93,-3.926 -2.68,3.926 -3.92,-2.672 -23.88,3.93 -55.92,39.91 -50.585,39.91 -19.949,9.269 -9.27,5.344 -5.34,0 -1.257,-1.258 9.113,-8.011 34.715,-18.543 85.143,-66.621 15.86,-8.012 3.93,0 1.41,-1.418 -17.28,-2.512 -18.53,8.012 -50.584,30.484 -31.887,16.028 -13.351,9.269 -13.356,6.602 -9.265,6.754 -22.465,7.859 -24.035,13.355 -18.536,13.356 -4.242,-2.672 17.438,-14.613 6.597,-3.93 3.926,-4.082 4.242,0 14.61,-9.273 17.121,-4.086 24.035,-16.028 62.362,-34.41 35.97,-22.625 1.42,-1.414 -38.65,1.414 -17.274,5.344 -14.609,5.34 -1.258,0 -2.668,2.515 -13.352,1.414 -16.023,8.012 -13.356,3.93 -11.781,2.672 -14.609,10.683 -25.289,8.012 0,1.258 -9.426,1.414 -24.035,2.516 -35.656,10.683 -2.672,2.672 -10.684,0 -9.422,2.672 -3.929,-1.414 -8.012,2.672 -6.598,0 -2.668,2.668 -22.621,0 -59.851,13.359 -17.438,1.254 -22.461,8.016 -13.195,6.757 -1.258,-1.418 -13.352,6.758 -22.621,18.543 -17.281,8.012 -26.547,9.113 -13.351,1.57 -13.352,5.188 -5.183,0 -34.719,5.34 -11.938,5.5 -33.144,10.687 -14.61,5.184 -18.851,14.457 -11.781,15.867 -6.754,17.285 -1.258,38.653 5.183,20.113 8.168,18.543 14.61,22.625 0,3.93 -5.34,2.671 -8.012,-9.429 -18.535,-41.168 -4.242,-39.91 4.242,-25.141 9.109,-17.441 25.293,-23.727 17.278,-9.269 25.293,-8.172 29.218,-9.114 49.325,-9.425 30.632,-7.856 26.547,-11.945 27.961,-22.781 17.121,-5.188 21.368,-9.426 23.875,-3.929 19.949,-1.258 13.195,-5.496 21.524,-3.93 30.472,-3.93 31.891,-5.5 8.012,0 29.218,-10.683 1.41,0 17.125,-2.512 22.778,-2.672 22.465,-10.687 4.082,-5.184 -4.082,-18.539 -17.282,-21.527 -26.546,-30.485 -22.465,-15.871 -5.496,2.516 -9.426,0 -1.258,1.414 -13.352,-6.598 -9.113,1.254 -4.238,3.93 -7.856,0 -9.269,9.426 0,3.929 -13.352,13.356 -5.183,1.258 -5.5,3.929 -5.184,6.754 -1.41,-1.258 -11.941,6.446 -21.207,1.414 -24.032,8.011 -14.609,0 -22.621,12.102 -13.196,3.926 -18.539,-2.672 -43.824,3.93 -21.363,6.597 -19.953,11.942 -55.766,15.871 -41.312,12.097 -14.61,-2.668 -10.683,-3.929 -2.512,0 -2.672,2.672 -9.422,0 -2.515,3.925 -2.985,2.832 -11.781,1.254 -46.656,19.957 -33.145,30.485 -15.863,30.48 -9.426,18.856 -5.183,5.187 -8.172,22.625 0,61.121 5.343,11.942 11.938,9.429 5.5,9.114 17.121,14.769 26.703,31.899 14.61,22.468 24.035,35.985 29.218,36.136 7.856,7.856 2.824,0 3.93,5.344 3.926,1.414 14.609,11.941 10.684,2.672 17.277,10.684 15.867,7.859 20.106,20.109 13.351,1.258 29.219,17.285 2.515,2.512 0,6.758 -5.183,0 -11.942,-10.684 -18.847,-6.758 -1.258,0 1.258,12.102 13.351,13.195 25.289,12.102 15.868,11.941 12.093,16.028 4.086,8.011 0,7.856 -13.195,9.429 -18.852,-5.5 -17.277,6.758 -19.793,0 -16.18,8.012 -14.609,3.93 -1.258,1.414 21.364,17.125 3.929,0 3.926,3.929 27.961,4.243 8.012,-1.414 37.386,-2.829 0,0" style="fill:#e9f5f9;fill-opacity:1;fill-rule:nonzero;stroke:none" id="path6269"/><path d="m 579.813,617.488 10.367,0 c 0,-4.871 14.453,-4.871 16.808,-7.226 l 0,-0.16 -4.398,1.414 -22.777,5.972 0,0 z m 40.843,-11.785 c 6.285,-0.785 12.567,-1.414 15.239,-2.672 l 0,-2.355 c 16.648,-9.586 62.363,-9.586 81.527,-16.813 33.617,-12.097 91.266,-2.515 120.172,-19.328 l 0,-2.355 c 28.902,0 76.972,-12.102 98.492,-28.914 l 0,-2.356 c 4.871,-2.355 21.68,-19.168 26.547,-19.168 0,-7.23 45.557,-33.785 52.777,-38.496 0,-4.875 7.23,-4.875 7.23,-9.586 l 2.36,-2.515 c 27.64,0 45.55,-25.61 59.06,-46.825 l -12.1,11.313 -3.92,-2.668 0,-2.043 c -6.13,5.5 -12.41,11.312 -16.49,13.984 l 0,2.356 -7.23,2.515 -2.52,2.356 0,2.355 -2.35,2.516 c -11.94,0 -24.04,16.656 -33.62,16.656 l -2.35,4.711 -4.875,0 c 0,2.516 -21.675,16.817 -24.031,16.817 0,4.867 -2.359,0 -2.359,4.867 -2.512,0 -12.094,7.23 -12.094,7.23 l 0,2.356 c -2.355,2.359 -11.937,4.871 -16.808,9.586 l -4.711,0 c -4.872,4.871 -14.454,7.226 -19.325,9.742 l 0,2.355 c -19.164,11.942 -79.328,21.528 -100.847,28.754 -61.739,21.215 -112.633,22.313 -167.614,40.539 l -28.273,14.457 -1.887,0.629" style="fill:#bdd0d7;fill-opacity:1;fill-rule:nonzero;stroke:none" id="path6271"/><path d="m 400.422,593.449 -1.731,-4.558 1.731,1.886 0,2.672 z m -17.438,-97.105 2.985,-13.516 64.562,-51.539 17.75,-5.656 11.938,-5.5 34.719,-5.34 5.183,0 13.352,-5.188 13.351,-1.57 26.547,-9.113 17.281,-8.012 22.621,-18.543 13.352,-6.758 1.258,1.418 13.195,-6.757 22.461,-8.016 17.438,-1.254 59.851,-13.359 22.621,0 2.668,-2.668 6.598,0 8.012,-2.672 3.929,1.414 9.422,-2.672 10.684,0 2.672,-2.672 35.656,-10.683 24.035,-2.516 9.426,-1.414 0,-1.258 25.289,-8.012 14.609,-10.683 11.781,-2.672 13.356,-3.93 16.023,-8.012 13.352,-1.414 2.668,-2.515 1.258,0 2.828,-1.098 52.305,-10.371 6.6,-0.316 -131.167,78.093 -0.941,0.157 -11.938,7.386 -2.828,1.887 -4.086,0 -3.926,4.082 -6.597,3.93 -2.043,1.886 -11.465,6.754 -52.941,9.586 L 640.605,487.699 770.359,367.652 587.824,502 731.875,372.367 520.59,502 640.605,391.695 l -81.683,33.625 -52.781,19.168 -67.391,33.469 -38.328,52.953 0,43.524 -5.188,-8.012 -8.168,-18.543 -5.183,-20.113 1.101,-31.422 0,0 z m 192.43,-106.535 15.238,-6.758 27.961,-22.781 13.668,-4.086 -10.84,1.886 -46.027,31.739 0,0 z m 287.625,-82.493 13.512,-1.57 22.465,-10.687 1.57,-2.039 -37.547,14.296" style="fill:#bdd0d7;fill-opacity:1;fill-rule:nonzero;stroke:none" id="path6273"/><path d="m 492.316,850.98 -12.097,-7.855 -17.278,-21.371 -1.257,-1.414 3.925,-3.926 10.684,2.668 0,-2.668 6.598,-2.516 4.086,-4.242 13.351,0 19.793,5.5 9.426,6.598 6.598,13.355 0,8.016 20.105,2.672 2.516,-3.93 -1.258,-5.5 -13.352,-16.027 -13.355,-9.113 -22.621,-11.942 -11.938,-9.426 -9.265,-18.543 1.414,-4.086 0,-2.671 -14.61,5.5 -13.355,14.613 -9.422,18.543 -2.672,10.683 -10.684,15.872 13.356,21.21 10.68,10.684 29.218,-9.113 1.414,-1.571 0,0" style="fill:#f8d041;fill-opacity:1;fill-rule:nonzero;stroke:none" id="path6275"/><path d="m 524.047,839.195 -2.512,-8.011 -21.207,-12.102 -10.683,1.258 -4.082,2.672 -2.672,0 5.5,12.097 11.937,8.016 10.524,2.672 9.269,-2.672 3.926,-3.93 0,0" style="fill:#785f42;fill-opacity:1;fill-rule:nonzero;stroke:none" id="path6277"/><path d="m 444.406,796.613 -35.976,-11.941 -42.571,-21.367 -13.195,-9.43 -5.496,-1.258 -43.828,-29.383 -38.485,-42.421 -46.656,-31.899 -59.691,-31.898 -24.035,-11.942 -1.414,1.258 -27.805,-20.113 -30.6329,-15.871 -29.2188,-22.469 -4.082,-4.242 -1.414,1.414 -2.5157,-3.926 -3.9258,-3.93 -1.414,1.258 -13.1953,-21.371 -1.4141,-5.184 -5.3398,-9.429 -2.67191,0 2.67191,18.699 6.7539,22.469 11.9414,16.027 34.5586,30.797 19.9492,7.855 27.9613,18.7 46.496,33.156 29.218,25.297 22.622,13.355 43.984,34.41 49.012,27.969 13.351,9.43 27.961,15.867 9.27,2.672 29.218,15.871 22.778,13.355 22.461,14.614 9.426,-10.528 5.343,-15.871 0,0" style="fill:#e1cf93;fill-opacity:1;fill-rule:nonzero;stroke:none" id="path6279"/><path d="m 413.773,746.02 -37.23,-25.297 -33.301,-26.715 -73.047,-37.238 -31.886,-9.27 -13.356,-6.758 -2.828,0 -1.254,1.414 8.012,5.344 6.597,2.672 11.938,10.683 5.496,1.415 17.281,15.871 18.535,17.281 1.258,5.344 13.352,11.785 10.683,10.683 6.754,2.672 6.598,6.758 29.219,16.027 22.621,14.614 3.926,0 16.023,9.269 17.121,9.27 14.926,2.828 14.605,2.516 0,-6.758 -32.043,-34.41 0,0" style="fill:#d6ca9e;fill-opacity:1;fill-rule:nonzero;stroke:none" id="path6281"/><path d="m 468.281,763.305 -45.242,-31.899 -25.289,-24.039 -31.891,-38.656 -35.972,-53.266 -17.121,-26.398 -12.094,-16.184 -37.231,-34.41 -22.464,-17.285 -12.094,-1.258 -17.281,-6.754 -41.157,-1.258 -22.621,-2.671 -17.277,0 -33.4611,1.257 -7.8554,3.926 -13.1953,3.93 -18.5352,10.683 -17.5937,2.672 38.6445,32.055 3.9258,0 8.1679,6.598 3.9258,0 38.4887,26.554 17.281,8.172 16.019,7.856 10.684,4.086 8.012,6.601 1.258,-1.414 10.679,5.34 31.891,9.273 37.387,10.684 17.121,5.344 9.425,6.754 3.926,0 2.672,3.929 10.68,3.926 39.902,22.629 59.848,46.508 8.011,3.93 34.403,37.398 10.683,-10.688 5.34,-3.925 0,0" style="fill:#f8d041;fill-opacity:1;fill-rule:nonzero;stroke:none" id="path6283"/><path d="m 399.164,522.582 15.863,-30.641 17.438,-14.769 29.219,-14.613 25.293,-9.114 41.312,-8.011 29.219,-15.871 -21.363,8.011 -9.426,5.188 -57.18,11.941 -33.144,15.871 -17.282,10.684 -18.691,26.711 -6.598,17.129 -1.258,19.953 3.926,0 2.672,-22.469 0,0" style="fill:#231f20;fill-opacity:1;fill-rule:nonzero;stroke:none" id="path6285"/><path d="m 886.918,534.523 8.168,-4.085 6.754,0 5.183,-3.926 10.684,-2.672 57.18,-31.899 -15.867,5.344 -34.715,18.539 -46.496,15.871 -39.903,5.5 -9.426,1.258 0,5.184 30.633,-3.926 27.805,-5.188 0,0" style="fill:#231f20;fill-opacity:1;fill-rule:nonzero;stroke:none" id="path6287"/><path d="m 1258.11,260.648 15.87,-8.168 -9.11,-5.187 -26.55,-5.5 -9.43,0 -31.88,6.758 -9.43,6.597 -3.92,0 -1.26,-2.668 0,-3.929 11.94,-8.016 1.41,0 5.18,-1.414 14.61,-3.926 -33.14,-8.015 -26.55,4.086 -29.37,9.269 -4.09,0 0,-7.855 4.09,-3.926 12.09,-2.832 3.93,0 2.67,-2.668 11.94,-1.258 -13.36,-6.601 -22.61,-1.571 -10.53,2.828 0,1.414 -51.84,9.114 -13.35,2.828 -18.54,0 -8.17,3.93 -27.8,3.929 -13.351,9.426 -17.282,5.187 -13.351,5.497 -27.805,-1.254 -16.023,5.183 5.34,10.684 2.515,14.613 16.024,-4.086 25.289,-7.855 8.011,-5.34 13.352,-2.832 30.481,-10.367 10.68,-2.989 19.95,0 1.25,-1.254 13.36,5.497 35.97,1.257 15.86,5.344 9.43,0 19.79,5.344 5.34,2.668 9.43,-2.668 17.12,2.668 8.17,-8.012 14.61,1.258 5.18,2.672 1.26,4.082 10.68,-5.5 10.69,1.418 6.59,6.754 -1.26,17.129 13.36,-11.942 26.54,-19.801 0,0" style="fill:#e9f5f9;fill-opacity:1;fill-rule:nonzero;stroke:none" id="path6289"/><path d="m 715.535,243.363 2.516,-2.828 0,-27.969 9.426,-14.613 1.414,-7.855 10.679,-17.442 0,-6.597 -2.672,1.257 -4.082,0 -7.855,-6.445 -24.035,-9.426 -13.352,-10.683 -15.863,-26.555 -6.758,-1.414 -34.402,2.668 -31.887,-1.254 -1.258,-1.414 -1.57,0 -2.512,2.668 -9.269,-3.926 -5.34,0 -10.684,-1.258 0,6.442 8.012,18.855 2.672,15.871 3.926,15.871 -3.926,29.383 1.254,5.34 24.035,3.93 8.012,3.929 15.867,1.415 12.094,2.511 21.05,0 5.34,2.828 10.528,0 14.609,3.93 4.082,6.598 -6.754,22.629 14.609,-5.188 12.094,-1.258 0,0" style="fill:#d48b5b;fill-opacity:1;fill-rule:nonzero;stroke:none" id="path6291"/><path d="m 1204.86,213.824 -18.54,-6.441 -15.86,1.258 -8.17,3.925 -2.51,0 8.01,5.5 11.94,2.516 10.52,0 27.96,8.172 11.94,2.512 1.42,1.414 -1.42,-3.926 -25.29,-14.93 0,0" style="fill:#ddd3b3;fill-opacity:1;fill-rule:nonzero;stroke:none" id="path6293"/><path d="m 724.961,169.984 0,-1.254 -2.668,0 -12.098,37.239 6.598,-6.758 8.168,-29.227 0,0" style="fill:#231f20;fill-opacity:1;fill-rule:nonzero;stroke:none" id="path6295"/><path d="m 634.48,191.355 -41.156,0 -2.672,2.672 49.325,1.258 8.957,3.926 1.41,-1.258 -15.864,-6.598 0,0" style="fill:#231f20;fill-opacity:1;fill-rule:nonzero;stroke:none" id="path6297"/><path d="m 835.238,195.285 3.926,-37.242 10.684,-33.152 5.34,-8.172 -1.415,-9.114 -13.195,-6.757 -22.777,-26.7113 -2.516,-6.4414 -6.597,-8.1719 L 770.047,23.8555 752.766,11.7578 748.68,10.5 l -30.629,17.2852 -41.156,11.9414 -25.293,2.6718 -26.235,0 -12.094,2.5157 -1.257,1.414 -2.828,0 0,1.2539 -1.254,1.5743 14.609,9.1132 37.07,14.6094 8.168,1.2578 7.856,5.5 10.679,6.6016 13.2,15.8667 5.339,12.102 10.68,13.195 6.758,0 11.781,-3.925 5.496,0 22.465,-10.684 9.266,-1.258 24.035,-1.258 0,-9.429 3.93,-3.9261 2.668,0 2.828,14.6131 9.109,6.754 8.172,10.531 -2.672,8.012 0,9.43 -5.5,13.195 -11.937,30.641 13.351,5.187 6.758,0 3.926,1.414 6.754,-1.414 2.515,0 0,0" style="fill:#d48b5b;fill-opacity:1;fill-rule:nonzero;stroke:none" id="path6299"/><path d="m 716.164,123.633 c 8.328,0 16.965,0.316 25.133,-0.942 l 20.738,-9.898 4.867,-0.629 c 1.731,-0.785 3.457,-1.414 5.344,-2.043 6.91,-1.887 13.664,-1.57 20.891,-4.086 l 0,-0.941 c -13.352,-4.715 -24.821,-5.5002 -38.328,-0.317 -4.086,1.571 -7.7,4.715 -11.625,6.602 -4.711,2.199 -9.739,3.141 -14.454,5.027 -4.554,1.883 -8.48,4.555 -12.566,7.227" style="fill:#eea36f;fill-opacity:1;fill-rule:nonzero;stroke:none" id="path6301"/><path d="m 613.117,49.1563 c 4.711,0.9414 9.582,2.039 14.61,2.3554 10.523,0.6289 19.32,-0.4726 30,1.8867 4.871,1.0977 9.586,3.2969 14.453,4.2422 5.027,0.9414 10.367,0.6289 15.394,1.7266 4.871,1.2578 9.114,4.2422 13.981,5.3437 9.113,2.043 17.437,-0.4726 26.234,4.5547 4.555,2.6719 8.012,7.0703 12.723,9.4297 17.754,8.4844 37.074,2.043 53.41,11.7852 l 0.945,-0.9453 c -6.758,-11.1563 -22.777,-10.211 -33.304,-13.0391 -5.813,-1.4141 -11.625,-3.457 -16.809,-6.4453 -4.242,-2.5117 -7.066,-7.2266 -11.152,-9.8985 -10.524,-6.914 -18.067,-5.1835 -29.219,-7.3828 -5.028,-1.1015 -9.738,-3.6132 -14.766,-4.4023 -5.183,-0.7852 -10.683,0 -15.867,-0.625 -4.867,-0.4727 -9.582,-2.3594 -14.293,-2.9883 -15.867,-1.8828 -30.945,1.7305 -46.34,4.4024" style="fill:#eea36f;fill-opacity:1;fill-rule:nonzero;stroke:none" id="path6303"/><path d="m 670.297,163.387 -3.93,-49.18 -2.828,2.512 2.828,49.34 7.856,21.367 2.672,-2.828 -6.598,-21.211 0,0" style="fill:#231f20;fill-opacity:1;fill-rule:nonzero;stroke:none" id="path6305"/><path d="m 658.355,179.414 -31.73,-22.785 -4.082,-1.254 -1.414,-1.258 -15.867,-9.429 -19.793,-11.786 0,2.672 33.144,22.469 31.731,20.113 5.344,2.516 1.414,0 1.253,-1.258 0,0" style="fill:#231f20;fill-opacity:1;fill-rule:nonzero;stroke:none" id="path6307"/><path d="m 807.434,126.148 -10.84,-5.187 -26.547,0 -5.184,1.258 -10.683,3.929 10.683,3.926 9.11,6.758 10.683,14.613 22.778,-24.043 0,-1.254" style="fill:#d48b5b;fill-opacity:1;fill-rule:nonzero;stroke:none" id="path6309"/><path d="m 746.012,112.793 2.668,-2.516 -1.254,-1.414 -16.024,2.672 -11.937,0 -1.414,-1.258 -1.258,1.258 0,3.926 2.672,1.258 18.691,-1.258 7.856,-2.668 0,0" style="fill:#231f20;fill-opacity:1;fill-rule:nonzero;stroke:none" id="path6311"/><path d="m 714.121,51.668 -8.012,-1.2578 -2.668,-2.8282 -2.515,0 0,2.8282 18.539,7.8593 25.289,8.0118 2.672,2.6718 0,-3.9297 -33.305,-13.3554 0,0" style="fill:#231f20;fill-opacity:1;fill-rule:nonzero;stroke:none" id="path6313"/><path d="m 776.645,44.9141 -16.024,-21.0586 -2.516,2.5156 14.61,18.543 13.195,17.4375 0,-6.7539 -9.265,-10.6836 0,0" style="fill:#231f20;fill-opacity:1;fill-rule:nonzero;stroke:none" id="path6315"/><path d="m 401.363,710.82 0.629,1.258 c -0.316,-0.312 -1.414,-1.57 -2.672,-3.14 l 2.043,1.882 0,0 z m -16.179,-18.695 c -7.383,-5.5 -20.579,-20.898 -25.922,-24.043 -5.184,-2.672 -28.59,-14.297 -28.59,-18.227 -11.621,0 -19.477,-19.484 -29.844,-19.484 0,-5.183 -8.953,-7.699 -11.625,-8.953 l 0,-1.418 -2.515,0 c 0,-1.254 -2.668,-2.512 -3.926,-3.926 -7.856,0 -19.477,-2.515 -25.918,-5.187 -2.672,-1.254 -10.367,0 -13.039,0 -1.258,0 -6.442,-2.512 -7.696,-2.512 L 194.48,590.148 103.84,548.664 c -2.672,0 -18.2228,-6.441 -18.2228,-10.367 -10.3672,0 -17.2774,-5.188 -21.6758,-13.043 l 12.0938,-6.914 13.1953,-3.93 7.8554,-3.926 33.4611,-1.257 17.277,0 22.621,2.671 41.157,1.258 17.281,6.754 12.094,1.258 22.464,17.285 37.231,34.41 12.094,16.184 17.121,26.398 35.972,53.266 19.325,23.414" style="fill:#ebc748;fill-opacity:1;fill-rule:nonzero;stroke:none" id="path6317"/><path d="m 335.859,626.602 10.368,16.812 c -14.141,-35.039 -51.84,-41.48 -76.504,-66.152 -14.293,0 -20.735,-7.856 -31.102,-11.625 -5.183,-2.672 -36.289,0 -36.289,-10.528 -7.852,0 -23.406,-14.144 -31.102,-15.558 -20.734,-3.77 -45.398,-5.184 -64.875,-12.883 -7.6987,-2.672 -20.7378,-1.258 -27.1792,-5.184 -1.4102,-0.789 -2.5117,-1.886 -3.4531,-2.988 l 0.3125,-0.156 13.1953,-3.93 7.8554,-3.926 33.4611,-1.257 17.277,0 22.621,2.671 41.157,1.258 17.281,6.754 12.094,1.258 22.464,17.285 37.231,34.41 12.094,16.184 17.121,26.398 6.129,8.957 c -0.157,0.786 -0.157,1.414 -0.157,2.2" style="fill:#e4bf3f;fill-opacity:1;fill-rule:nonzero;stroke:none" id="path6319"/><path d="m 435.766,812.012 c -7.7,-7.699 -27.176,-11.625 -33.774,-18.071 -2.515,0 -6.441,-3.925 -8.957,-3.925 0,-2.672 -9.109,-10.371 -11.781,-10.371 0,-2.672 -8.953,-7.856 -11.621,-7.856 -1.258,-3.93 -15.555,-7.699 -19.481,-7.699 l -1.257,-2.672 c -9.11,0 -31.102,-16.813 -38.957,-19.484 -12.879,-5.184 -54.508,-19.485 -54.508,-38.813 -2.516,0 -2.516,-2.668 -2.516,-2.668 l -1.254,0 c -1.414,-1.258 -3.93,-5.187 -6.597,-6.445 0,-1.254 -1.258,-3.926 -1.258,-5.184 -2.512,0 -2.512,-2.672 -3.926,-2.672 0,-5.183 -6.441,-8.957 -7.699,-12.882 -6.442,-16.973 -18.223,-19.485 -27.176,-31.114 l 0,-0.312 13.195,7.07 46.656,31.899 38.485,42.421 43.828,29.383 5.496,1.258 13.195,9.43 42.571,21.367 35.976,11.941 0,0 -4.398,12.887 c -1.414,0.785 -2.988,1.727 -4.242,2.512" style="fill:#cdbc86;fill-opacity:1;fill-rule:nonzero;stroke:none" id="path6321"/><path d="m 441.734,786.559 c -3.3,-4.715 -11.468,-16.028 -15.082,-16.028 0,-2.672 -6.437,-6.441 -7.695,-6.441 0,-1.414 -2.672,-2.672 -3.93,-2.672 0,-5.188 -25.918,-5.188 -25.918,-14.301 -5.183,0 -35.031,-24.668 -35.031,-25.926 l -1.254,-1.253 c -5.183,0 -10.371,-5.188 -15.554,-5.188 0,-2.672 -6.598,-6.441 -6.598,-9.113 l -1.254,-1.258 c -2.516,0 -23.406,-13.039 -23.406,-6.441 l -3.77,0 c 0,1.257 -1.414,2.515 -2.672,2.515 0,2.199 -0.785,4.871 -1.57,7.539 l -8.012,-7.226 -1.258,-5.344 -18.535,-17.281 -17.281,-15.871 -5.496,-1.415 -11.938,-10.683 -6.597,-2.672 -8.012,-5.344 1.254,-1.414 2.828,0 13.356,6.758 31.886,9.27 73.047,37.238 33.301,26.715 37.23,25.297 0,0 32.043,34.41 0,6.758 -4.082,-0.629" style="fill:#beb596;fill-opacity:1;fill-rule:nonzero;stroke:none" id="path6323"/><path d="m 447.23,815.629 1.258,0 0.629,0.625 c 0,4.086 0.629,11.941 1.727,15.559 7.226,17.441 22.937,15.082 36.133,21.683 0.312,0 0.625,0 0.941,0 l 2.984,-0.945 1.414,-1.571 0,0 -12.097,-7.855 -17.278,-21.371 -1.257,-1.414 3.925,-3.926 0.946,0.313 c -1.887,-2.356 -3.77,-4.559 -4.242,-6.598 -1.098,-4.242 -3.614,-15.559 -4.086,-21.215 l -7.223,14.301 -2.672,10.683 -1.102,1.731" style="fill:#cdbc86;fill-opacity:1;fill-rule:nonzero;stroke:none" id="path6325"/><path d="m 535.359,833.539 c 2.825,-5.027 17.121,-8.484 17.121,-0.473 1.415,0.789 3.458,2.516 5.184,4.086 l 1.102,4.715 -2.516,3.77 c -0.156,0 -0.156,0 -0.312,0 l -19.793,-2.512 0,-8.016 -0.786,-1.57" style="fill:#cdbc86;fill-opacity:1;fill-rule:nonzero;stroke:none" id="path6327"/><path d="m 496.871,831.813 c 1.887,0 3.301,-1.731 3.301,-3.93 0,-2.043 -1.414,-3.93 -3.301,-3.93 -1.887,0 -3.297,1.887 -3.297,3.93 0,2.199 1.41,3.93 3.297,3.93" style="fill:#fffccc;fill-opacity:1;fill-rule:nonzero;stroke:none" id="path6329"/><path d="m 491.688,851.609 -7.54,-5.972 8.168,5.343 0,0 -0.628,0.629 0,0 z m -8.797,-6.757 c -2.985,-1.254 -7.539,-4.086 -10.368,-4.086 l -1.726,-1.098 0,-0.629 c -2.516,-1.887 -11.469,-5.344 -11.469,-9.586 -1.258,0 0,-0.629 -1.258,-0.629 0,-1.254 -1.726,-2.984 -2.355,-3.613 0,-1.727 -1.258,-4.242 -1.727,-5.34 -2.359,-7.074 -0.472,-16.187 0.625,-23.726 l 2.828,-5.661 c 0.786,2.36 1.575,4.559 2.043,7.075 0.629,3.14 1.414,6.441 2.043,9.113 0.786,3.769 1.414,7.383 2.672,10.683 0,0.157 0,0.313 0.156,0.473 l -2.671,2.512 1.257,1.414 17.278,21.371 2.672,1.727" style="fill:#988d6c;fill-opacity:1;fill-rule:nonzero;stroke:none" id="path6331"/><path d="m 607.148,875.336 c -4.242,-0.156 -8.957,0.473 -13.824,1.102 l 6.754,-5.344 9.11,0 -2.04,4.242 0,0 z m -17.125,1.57 -2.043,-1.883 0,-5.343 10.055,-7.071 c -2.199,0.629 -4.398,0.942 -5.969,1.571 -5.5,2.515 -12.566,9.113 -18.066,12.097 0,0.629 -0.629,1.731 -0.629,2.36 5.027,0 10.684,-0.785 16.652,-1.731 l 0,0 z m 15.868,-18.07 c 0.312,-0.313 0.468,-0.785 0.629,-1.254 2.355,-1.102 5.339,-5.973 5.339,-8.957 -10.839,0 -12.566,9.582 -6.597,-0.629 1.726,-3.613 2.355,-8.957 2.355,-13.199 -3.613,0 -10.84,4.871 -10.84,8.484 -0.468,-0.629 3.614,-14.457 3.614,-17.441 -7.227,3.613 -11.309,11.312 -16.809,16.812 0,-4.242 1.258,-9.586 1.258,-13.828 l 2.355,0 c 0,-1.254 0.629,-2.355 0.629,-3.613 0.629,-3.613 -1.258,-8.484 -0.629,-11.469 0,-0.472 1.887,-2.359 1.887,-2.984 1.727,-4.086 1.727,-8.957 2.984,-13.199 2.043,-5.817 3.297,-12.731 4.555,-19.641 l 0.785,2.512 -8.011,30.797 0,18.543 2.515,0 3.926,-3.93 8.168,-42.582 17.125,-19.953 10.68,-5.344 -8.012,13.355 -9.109,22.469 -13.352,35.985 3.926,3.925 3.926,-2.511 6.753,-14.77 3.93,-5.187 1.258,1.257 5.496,-2.828 1.258,1.571 0,3.929 -4.086,9.426 0,7.859 2.828,0 5.184,-5.187 1.414,-6.914 3.925,0 2.829,-1.258 -4.243,10.688 -18.535,25.296 -11.308,3.77" style="fill:#fffdd1;fill-opacity:1;fill-rule:nonzero;stroke:none" id="path6333"/><path d="m 553.895,815.941 c 3.457,-8.015 27.332,-2.199 32.203,-2.199 -9.114,-8.957 -19.95,-19.172 -30.633,-25.769 -6.598,-3.93 -13.508,-7.387 -20.735,-10.371 l 0,5.656 -5.183,0 -11.942,-10.684 -18.847,-6.758 -1.258,0 1.258,12.102 13.351,13.195 25.289,12.102 15.868,11.941 0.629,0.785" style="fill:#d0dfe5;fill-opacity:1;fill-rule:nonzero;stroke:none" id="path6335"/><path d="m 514.309,763.461 c -1.571,-5.973 -7.383,-25.77 -14.297,-25.77 -1.098,-3.613 -8.324,-5.972 -11.938,-7.226 0,-2.36 -2.355,-5.973 -3.613,-8.488 -3.613,0 -10.84,-7.227 -13.195,-9.582 -19.164,-19.172 -43.2,-31.27 -64.875,-45.727 -7.227,-4.711 -31.262,-15.555 -31.262,-25.141 l -2.356,-2.355 0,-2.516 c -2.515,0 0,-1.097 -2.515,-1.097 0,-1.258 -2.356,-3.614 -3.61,-3.614 0,-3.617 -5.972,-7.23 -5.972,-12.101 -7.223,0 -20.422,-34.883 -20.422,-40.852 -19.164,-26.398 -31.258,-56.41 -56.391,-81.707 0,-3.613 0,-32.527 -3.613,-32.527 l 0,-2.356 c -9.742,-9.429 -8.484,-23.882 -7.383,-38.496 l -1.414,2.985 -5.183,5.187 -8.172,22.625 0,61.121 5.343,11.942 11.938,9.429 5.5,9.114 17.121,14.769 26.703,31.899 14.61,22.468 24.035,35.985 29.218,36.136 7.856,7.856 2.824,0 3.93,5.344 3.926,1.414 14.609,11.941 10.684,2.672 17.277,10.684 15.867,7.859 20.106,20.109 13.351,1.258 11.313,6.758 0,0 z m -15.868,11.629 c 1.102,-0.789 2.2,-1.887 2.829,-2.516 9.113,0 12.253,0 19.32,2.828 l -2.985,-2.828 -18.847,-6.758 -1.258,0 0.941,9.274" style="fill:#d0dfe5;fill-opacity:1;fill-rule:nonzero;stroke:none" id="path6337"/><path d="m 284.961,530.91 c 0,-19.168 4.871,-38.496 4.871,-57.664 14.449,0 9.582,-43.055 9.582,-52.797 4.867,0 19.164,-4.715 28.902,-4.715 4.715,-4.871 14.297,-14.457 14.297,-19.324 9.739,0 9.739,-9.586 9.739,-9.586 l 4.711,0 9.585,-14.457 9.739,0 0,-4.715 c 4.711,0 19.164,4.715 24.035,4.715 0,-9.586 57.648,-28.754 62.363,-28.754 l 0,9.586 c 9.738,0 24.031,-4.871 28.903,-9.586 24.035,0 57.652,0 76.972,9.586 4.711,-4.871 24.035,-14.457 24.035,-19.172 28.746,0 105.563,-14.453 129.598,-24.039 l 9.582,9.586 c 4.711,0 24.031,-4.871 24.031,-9.586 19.481,0 41.785,3.301 64.563,6.442 l 14.769,-5.5 1.41,0 17.125,-2.512 22.778,-2.672 22.465,-10.687 4.082,-5.184 -4.082,-18.539 -17.282,-21.527 -26.546,-30.485 -22.465,-15.871 -5.496,2.516 -9.426,0 -1.258,1.414 -13.352,-6.598 -9.113,1.254 -4.238,3.93 -7.856,0 -9.269,9.426 0,3.929 -13.352,13.356 -5.183,1.258 -5.5,3.929 -5.184,6.754 -1.41,-1.258 -11.941,6.446 -21.207,1.414 -24.032,8.011 -14.609,0 -22.621,12.102 -13.196,3.926 -18.539,-2.672 -43.824,3.93 -21.363,6.597 -19.953,11.942 -55.766,15.871 -41.312,12.097 -14.61,-2.668 -10.683,-3.929 -2.512,0 -2.672,2.672 -9.422,0 -2.515,3.925 -2.985,2.832 -11.781,1.254 -46.656,19.957 -33.145,30.485 -15.863,30.48 -9.426,18.856 -5.183,5.187 -8.172,22.625 0,13.668 2.828,0 c 0,4.875 0,24.043 4.871,28.914 l 4.711,0 c 0,0 9.742,14.457 9.742,19.168 4.711,0 9.582,4.871 4.711,14.457 l 0,0 z m 554.359,-211.965 3.77,-1.257 24.035,-2.516 9.426,-1.414 0,-1.258 25.289,-8.012 14.609,-10.683 11.781,-2.672 13.356,-3.93 16.023,-8.012 1.727,-0.156 c -5.027,17.281 -12.883,30.953 -25.606,35.668 -27.96,10.211 -61.265,8.324 -94.41,4.242" style="fill:#d0dfe5;fill-opacity:1;fill-rule:nonzero;stroke:none" id="path6339"/><path d="m 447.391,319.102 c 0.625,1.886 1.097,3.769 1.097,5.183 4.399,0 21.364,-4.086 23.719,-12.41 l -16.336,4.711 c -0.941,1.258 -1.883,2.199 -2.668,2.988 l -7.543,0 1.731,-0.472 0,0 z m 27.804,-8.172 c 4.868,3.457 11.621,14.14 11.621,18.226 9.743,0 24.036,-24.039 28.907,-28.91 l 0,24.039 4.867,-9.582 4.715,0 4.871,-9.586 c 0,4.871 4.711,9.586 4.711,14.457 0,-4.871 4.871,-14.457 4.871,-14.457 l 4.867,-4.871 0,14.457 4.715,-9.586 c 4.867,0 14.449,-9.586 14.449,-9.586 l 0,14.457 c 4.871,-4.871 19.164,-14.457 19.164,-19.328 0,4.871 4.871,14.457 4.871,19.328 4.871,0 14.453,-9.742 19.164,-9.742 l 4.871,-9.586 0,19.328 c 3.926,-7.855 7.696,-28.125 16.653,-35.668 l -12.571,-1.73 -43.824,3.93 -21.363,6.597 -19.953,11.942 -55.606,15.871 0,0 z m 160.7,-36.141 0,11.156 14.293,-14.453 0,14.453 c 4.714,0 9.582,-4.871 9.582,-9.738 0,4.867 9.582,19.324 9.582,24.039 l 14.453,-28.754 0,24.039 c 4.711,-4.871 14.453,-19.324 14.453,-24.039 0,9.582 4.711,19.168 9.582,24.039 4.711,-4.871 24.035,-19.324 24.035,-28.91 0,9.586 4.711,24.039 4.711,33.625 9.738,-9.586 24.035,-38.34 24.035,-52.797 0,19.172 4.867,48.082 4.867,67.254 9.586,-24.043 14.453,-86.578 28.907,-100.879 0,32.684 9.109,74.637 9.582,107.789 l 1.097,0 c 8.012,-19.48 3.614,-51.222 3.614,-74.164 0,19.172 9.742,28.758 14.453,43.211 9.582,-33.625 9.582,0 9.582,19.328 l 0,-48.082 c 0,9.586 4.871,14.301 4.871,19.168 0,-4.867 4.871,-14.453 4.871,-19.168 9.582,43.211 9.582,33.625 9.582,38.34 0,-24.039 -4.871,-38.34 4.711,-14.301 l 4.871,-9.738 14.449,14.453 c 4.715,-4.715 9.582,-14.453 9.582,-33.625 2.043,2.043 5.028,5.028 8.012,7.699 l -11.938,-14.925 -26.546,-30.485 -22.465,-15.871 -5.496,2.516 -9.426,0 -1.258,1.414 -13.352,-6.598 -9.113,1.254 -4.238,3.93 -7.856,0 -9.269,9.426 0,3.929 -13.352,13.356 -5.183,1.258 -5.5,3.929 -5.184,6.754 -1.41,-1.258 -11.941,6.446 -21.207,1.414 -24.032,8.011 -14.609,0 -22.621,12.102 -11.781,3.453" style="fill:#bdd0d7;fill-opacity:1;fill-rule:nonzero;stroke:none" id="path6341"/><path d="m 397.75,570.348 -1.414,-40.223 c -0.785,-18.855 -5.813,-48.238 8.484,-63.008 4.399,-4.558 10.836,-6.601 16.649,-9.113 21.363,-6.914 42.258,-16.184 64.25,-19.957 10.367,-1.887 21.051,-1.258 31.101,-3.926 9.426,-2.359 18.067,-7.23 26.864,-11.316 7.695,-3.614 15.394,-7.071 22.148,-12.41 2.672,-2.043 3.93,-5.5 5.813,-8.489 l -1.415,-1.414 c -2.828,2.043 -5.339,4.559 -8.48,5.973 -6.598,3.301 -13.984,4.871 -21.051,6.914 -8.797,2.672 -17.121,6.598 -26.078,7.855 -10.367,1.571 -21.047,0 -31.418,0.942 -3.609,0.316 -7.066,0.789 -10.367,1.414 l -4.555,2.043 -33.144,10.687 -14.61,5.184 -18.851,14.457 -11.781,15.867 -6.754,17.285 -0.942,29.071 c 1.727,11.312 4.082,22.312 5.969,32.211 l 7.066,16.027 2.516,3.926 0,0 z m 10.996,-128.059 -21.68,20.27 -3.769,7.07 c 1.73,-5.184 4.242,-10.055 7.855,-14.297 4.555,-5.5 10.84,-9.742 17.594,-13.043" style="fill:#e1cf93;fill-opacity:1;fill-rule:nonzero;stroke:none" id="path6343"/><path d="m 513.367,406.152 -10.683,2.512 10.367,-1.887 c 4.715,-1.57 8.953,-3.14 12.254,-3.14 l 0,-4.715 c 0,0 2.355,-2.512 2.355,-4.871 7.227,-4.871 19.32,-14.457 28.906,-14.457 0,-2.356 24.032,-16.813 26.387,-16.813 l 0,9.586 21.68,-19.168 c 0,4.871 16.808,-24.043 16.808,-26.398 4.872,0 9.582,-7.227 2.356,0 0,2.355 -2.356,9.586 -4.711,9.586 l 0,7.226 2.355,2.356 c 7.227,0 23.879,-21.684 26.235,-24.039 0,4.871 -4.715,12.097 -4.715,19.168 0,0 24.035,-16.813 28.75,-16.813 0,2.516 -2.359,4.871 -2.359,9.742 0,-7.226 16.808,-19.324 21.679,-19.324 l 0,14.453 c 11.938,-4.871 28.746,-26.398 43.199,-26.398 l 0,9.586 31.258,-9.586 c 0,4.715 2.36,9.586 2.36,14.301 2.511,0 9.738,-7.071 9.738,-9.586 2.355,0 7.07,4.871 9.582,4.871 l 35.973,-14.453 c 0,2.355 2.511,4.867 2.511,7.226 2.36,0 4.715,-2.359 4.715,-4.871 4.871,0 16.809,-4.715 24.035,-7.226 l 2.356,4.871 c 6.441,0 32.988,-5.5 45.871,-10.059 l 0.469,2.043 -4.082,5.184 -22.465,10.687 -22.778,2.672 -17.125,2.512 -1.41,0 -29.218,10.683 -8.012,0 -31.891,5.5 -30.472,3.93 -21.524,3.93 -13.195,5.496 -19.949,1.258 -23.875,3.929 -21.368,9.426 -17.121,5.188 -27.961,22.781 -26.547,11.945 -30.632,7.856 -18.223,3.457 c -1.57,-0.157 -2.512,-0.157 -1.883,-0.157 l 0,0 z m 389.262,-102.293 -0.789,0.629 -3.141,0.942 c 1.414,-0.157 2.672,-0.313 3.77,-0.313 0,-0.316 0,-0.785 0.16,-1.258 l 0,0 z m -29.219,10.371 -6.285,0.942 -10.055,1.101 c 5.969,0.313 11.782,0.786 14.141,0.786 0,-3.77 1.57,-1.571 2.199,-2.829 l 0,0 z m -30.945,3.77 -14.297,4.242 c 5.496,-0.785 11.469,-1.254 14.297,-2.668 l 0,-1.574 z m -24.035,7.23 -9.426,2.672 c 3.769,0 7.226,-0.16 9.426,-1.101 l 0,-1.571 z m -21.68,5.813 -2.672,0 -9.422,2.672 -3.929,-1.414 -8.012,2.672 -6.598,0 -2.668,2.668 -22.621,0 -15.238,3.3 c 24.664,-0.472 60.476,-2.199 71.16,-9.425 l 0,-0.473 z m -94.41,15.086 -21.363,4.871 -17.438,1.254 -7.223,2.672 c 16.649,-1.571 38.172,-3.141 46.024,-8.797 l 0,0 z m -81.527,22.469 -7.54,3.769 -17.593,14.457 c 7.066,-0.629 16.808,-12.414 25.133,-18.226 l 0,0 z m -25.762,18.699 -4.399,3.613 -13.351,6.285 c 5.812,-2.828 13.824,-5.5 15.394,-5.5 0,-4.715 2.2,-0.316 2.356,-4.398 l 0,0 z m -18.535,10.211 -3.145,1.414 -6.754,2.355 c 2.199,0 3.93,0 4.399,0 0,-0.785 2.355,-2.355 5.5,-3.769" style="fill:#e1cf93;fill-opacity:1;fill-rule:nonzero;stroke:none" id="path6345"/><path d="m 924.148,442.133 c 25.918,-3.93 48.227,-12.57 69.747,-27.969 20.425,-16.184 40.215,-32.211 59.535,-49.34 l 32.05,-35.039 c 5.18,-6.441 8.64,-14.457 14.92,-19.64 5.65,-4.555 13.19,-5.344 19.79,-8.172 l 20.58,-10.368 -0.63,-1.73 -22.78,3.93 c -7.85,1.726 -16.49,2.043 -23.56,6.285 -7.54,4.555 -12.25,12.57 -18.69,18.855 -30.48,27.813 -61.27,55.153 -91.114,83.907 -17.433,15.554 -39.898,27.023 -59.848,39.281" style="fill:#bdd0d7;fill-opacity:1;fill-rule:nonzero;stroke:none" id="path6347"/><path d="m 950.539,482.828 c 14.453,-1.726 48.539,-19.168 61.101,-26.398 7.86,-4.555 13.67,-12.41 20.58,-18.383 l 40.85,-32.996 35.5,-40.856 34.56,-35.351 c 13.19,-17.129 24.19,-34.571 36.44,-52.168 l -1.41,-0.942 c -3.77,2.672 -7.86,4.871 -11.31,8.012 -22.15,24.828 -45.4,47.141 -71.48,68.195 l -36.6,40.696 -36.13,34.41 c -6.12,6.445 -10.68,14.457 -17.75,19.957 -5.499,4.242 -12.722,5.344 -19.32,7.699 -8.011,3.141 -27.492,24.039 -35.031,28.125" style="fill:#bdd0d7;fill-opacity:1;fill-rule:nonzero;stroke:none" id="path6349"/><path d="m 897.758,408.508 c 18.691,-3.774 30.633,-7.699 46.812,-18.699 5.969,-4.086 10.524,-9.899 16.336,-14.297 6.125,-4.871 13.352,-8.328 19.637,-13.199 23.407,-21.528 46.497,-40.071 73.987,-55.938 5.97,-3.457 11.63,-7.859 18.06,-10.687 6.92,-3.141 14.46,-3.77 21.21,-6.286 l 8.33,-5.656 -0.47,-0.941 c -10.84,1.726 -22.15,0.312 -32.68,2.828 -7.07,1.726 -13.51,5.5 -20.26,8.484 l -31.26,22.313 -50.585,39.91 -16.336,7.543 c -0.316,0.312 -0.473,0.472 -0.629,0.629 -4.555,4.554 -7.855,10.211 -12.566,14.457 l -39.586,29.539 0,0 z m 124.252,-102.293 -47.123,36.926 -1.414,0.785 c 4.554,-5.34 8.953,-10.996 14.297,-15.711 9.738,-8.641 21.83,-15.715 34.24,-22" style="fill:#bdd0d7;fill-opacity:1;fill-rule:nonzero;stroke:none" id="path6351"/><path d="m 813.559,425.32 c 7.382,-3.457 14.765,-6.757 21.679,-11 13.981,-8.957 27.176,-20.742 40.211,-31.109 17.125,-9.742 32.047,-19.641 48.227,-30.957 33.144,-16.184 63.148,-35.824 95.034,-54.051 l 18.23,-13.199 c 8.17,-4.715 17.75,-8.797 24.35,-15.711 l -0.32,-0.629 c -4.87,0.629 -9.42,1.727 -13.67,3.141 l -1.88,0.785 -50.584,30.484 -31.887,16.028 -13.351,9.269 -13.356,6.602 -9.265,6.754 -22.465,7.859 -24.035,13.355 -18.223,13.039 c -16.492,16.344 -32.828,32.528 -48.695,49.34 l 0,0 z m 153.16,-115.175 -21.051,11.468 -24.035,16.028 -14.61,3.457 c 2.672,-2.043 5.344,-4.082 7.856,-6.285 11.469,-7.54 26.234,-12.883 38.801,-18.696 4.398,-1.887 8.64,-3.929 13.039,-5.972" style="fill:#bdd0d7;fill-opacity:1;fill-rule:nonzero;stroke:none" id="path6353"/><path d="m 453.203,619.844 c 2.356,0 19.32,14.457 19.32,16.812 l 64.875,-2.355 0,7.226 16.809,0 c 24.035,-24.039 100.695,-24.039 134.309,-24.039 0,2.356 -4.711,4.715 -4.711,7.227 2.355,0 4.711,2.359 7.226,2.359 38.485,0 84.043,-2.359 122.528,-11.941 26.39,-4.871 91.269,-16.973 103.363,-43.367 11.937,0 40.844,-7.231 48.07,-19.172 14.449,0 31.258,-24.039 45.708,-28.91 13.83,-5.032 28.91,-10.844 44.93,-16.657 l -27.49,27.496 -32.046,26.555 -5.184,0 -76.031,42.582 -17.121,7.856 -13.352,10.687 -10.527,0 -4.082,3.926 -10.684,5.5 -7.855,2.672 -42.57,13.199 -46.653,5.344 -11.781,-2.672 -6.758,2.672 -66.601,-2.672 -19.793,0 -26.551,-2.672 -17.278,-1.258 -6.753,2.672 -30.477,5.184 -3.926,4.242 -8.012,1.258 -9.425,6.601 -30.633,8.012 0,1.258 -1.258,-1.258 -21.203,0 -25.137,-5.5 c -0.156,0 -0.156,-0.156 -0.312,-0.156 l -1.887,-1.887 c -1.098,-1.258 -1.727,-2.512 -1.727,-3.457 l -1.726,0 -1.887,-1.883 c -1.414,-2.359 -3.613,-6.129 -3.613,-7.859 -4.711,0 -0.313,-2.199 -4.555,-2.356 l -0.785,-1.57 -1.887,-5.656 -1.097,0 -4.559,-8.328 c -0.785,-7.856 2.516,-15.715 0.789,-15.715" style="fill:#d0dfe5;fill-opacity:1;fill-rule:nonzero;stroke:none" id="path6355"/><path d="m 741.457,487.699 c 29.215,-6.285 55.922,-13.511 80.113,-32.523 17.121,-12.571 36.914,-21.215 53.254,-34.571 3.614,-2.984 6.281,-6.753 9.582,-10.054 12.25,-10.215 25.918,-20.586 35.973,-32.84 2.984,-3.773 5.184,-8.484 8.637,-11.941 4.242,-3.93 9.425,-6.446 13.984,-10.059 9.582,-8.328 19.164,-16.34 29.375,-23.883 l -0.316,-0.629 c -12.094,3.301 -23.25,12.258 -33.145,19.485 -4.871,3.144 -10.523,5.343 -14.922,9.113 -4.086,3.457 -6.914,8.172 -10.527,12.098 -10.367,11.316 -24.035,20.429 -36.285,29.699 -3.301,2.828 -5.969,6.441 -9.426,9.113 -18.223,12.098 -35.816,23.254 -52.625,37.398 -21.52,18.696 -48.066,27.809 -73.672,39.594 z" style="fill:#ddd3b3;fill-opacity:1;fill-rule:nonzero;stroke:none" id="path6357"/><path d="m 808.688,494.93 c 33.148,1.097 52.625,-13.516 77.601,-32.215 4.715,-3.297 10.055,-5.813 14.766,-9.27 19.636,-18.539 39.746,-35.824 60.48,-53.265 15.863,-16.813 30.945,-34.254 48.385,-49.496 3.61,-2.829 7.85,-4.871 11.46,-7.7 4.09,-3.3 7.55,-7.382 11.16,-11.156 l -0.47,-0.629 c -12.73,8.016 -26.39,14.457 -38.019,24.043 -13.508,12.41 -26.703,24.981 -40.055,37.551 -21.68,16.187 -41.16,32.684 -59.695,52.324 -4.399,3.774 -9.426,6.442 -13.981,9.742 -13.507,11.473 -25.605,22.313 -41.629,30.168 -9.582,4.559 -19.793,7.071 -30.003,9.903" style="fill:#ddd3b3;fill-opacity:1;fill-rule:nonzero;stroke:none" id="path6359"/><path d="m 890.531,482.828 c 19.008,-8.012 36.285,-15.711 52.938,-28.125 12.097,-8.957 24.82,-16.183 36.758,-25.297 l 12.253,-9.273 c 3.77,-2.512 8.17,-3.926 11.94,-6.754 3.77,-2.672 6.44,-6.602 10.21,-9.586 l 25.76,-19.797 c 3.77,-2.672 8.33,-4.558 11.94,-7.543 8.48,-6.914 14.92,-16.34 21.37,-24.984 15.23,-16.34 33.3,-31.27 50.1,-45.879 l -0.46,-0.945 c -16.19,8.171 -30.95,20.269 -45.4,31.113 -11.94,9.898 -19.96,23.566 -32.05,32.523 -3.77,2.828 -8.32,4.403 -12.1,6.914 l -12.41,9.43 c -4.71,3.297 -10.2,5.656 -14.61,9.27 -3.45,2.828 -5.65,6.914 -9.106,9.585 -3.769,2.985 -8.168,4.872 -12.094,7.7 l -23.566,19.953 c -3.609,2.672 -7.852,4.558 -11.465,7.23 l -23.723,20.11 c -4.238,2.988 -9.265,4.871 -13.664,7.543 -7.855,5.343 -15.55,10.527 -22.621,16.812" style="fill:#ddd3b3;fill-opacity:1;fill-rule:nonzero;stroke:none" id="path6361"/><path d="m 700.613,482.828 c 17.438,-10.84 34.246,-21.055 50.582,-33.308 3.77,-3.457 6.442,-8.016 9.895,-11.786 24.664,-23.257 49.012,-44.781 75.719,-65.367 3.613,-2.512 8.011,-4.086 11.464,-6.914 3.457,-2.828 5.813,-7.07 9.426,-9.742 6.598,-4.871 13.668,-6.285 20.739,-9.742 l 14.136,-7.383 c 4.555,-2.043 9.426,-2.984 13.981,-4.871 24.035,-12.727 47.91,-25.457 71.633,-38.656 8.324,-5.028 12.566,-8.325 18.378,-16.024 l -0.628,-0.629 c -2.672,2.043 -5.028,4.399 -7.856,6.125 -27.488,14.614 -56.707,26.871 -84.828,40.071 -4.867,1.882 -10.051,2.828 -14.922,4.714 l -14.766,6.911 c -7.539,3.3 -15.082,4.558 -22.308,9.586 -3.77,2.671 -6.281,6.757 -9.895,9.429 -3.925,2.985 -8.64,4.711 -12.566,7.699 -26.234,21.684 -49.797,44.309 -73.359,69.137 -3.301,3.926 -5.813,8.641 -9.27,12.254 -14.922,12.57 -32.832,24.199 -45.555,38.496" style="fill:#ddd3b3;fill-opacity:1;fill-rule:nonzero;stroke:none" id="path6363"/><path d="m 763.133,25.1133 c 5.812,13.8281 14.297,22.7851 23.406,34.5703 13.195,18.6953 28.746,33.3086 45.871,48.3944 5.028,4.242 8.012,5.5 3.141,-2.515 C 824.398,89.3789 812.461,73.9805 800.051,58.582 788.738,46.0117 776.172,35.7969 763.133,25.1133" style="fill:#eea36f;fill-opacity:1;fill-rule:nonzero;stroke:none" id="path6365"/><path d="m 700.613,33.4414 87.653,46.8242 -39.586,-14.2968 -40.84,-14.4571 -59.535,-9.1133 3.297,0 25.293,-2.6718 3.613,-1.1016 4.555,-0.3125 15.55,-4.8711" style="fill:#b1744a;fill-opacity:1;fill-rule:nonzero;stroke:none" id="path6367"/><path d="m 692.129,87.4922 37.387,14.4568 37.23,-5.9685 28.746,2.3554 -14.293,2.5121 -34.875,4.715 -24.031,5.972 -19.48,-2.043 -3.297,-7.387 -3.93,-4.7105 c -1.727,-5.3437 -3.457,-10.3711 -3.457,-9.9023" style="fill:#b1744a;fill-opacity:1;fill-rule:nonzero;stroke:none" id="path6369"/><path d="m 812.461,194.184 19.164,-54.996 c 0,0 4.711,-24.04 3.613,-31.266 -0.785,-4.559 -9.113,-20.1134 -14.769,-30.6407 l 20.109,23.5667 13.195,6.757 1.415,9.114 -5.34,8.172 -10.684,33.152 -3.926,37.242 -2.515,0 -6.754,1.414 -3.926,-1.414 -6.758,0 -2.824,-1.101 0,0 z m 3.141,-125.7035 c -0.473,-0.7852 -0.786,-1.4141 -0.786,-1.4141 l 0,0 0.469,0.6289 0.317,0.7852" style="fill:#b1744a;fill-opacity:1;fill-rule:nonzero;stroke:none" id="path6371"/><path d="m 770.047,86.2383 -11.942,1.2539 -5.339,-1.2539 -4.086,-3.9297 -9.11,-1.4141 L 716.793,66.2813 697,59.5234 664.953,53.082 l -23.875,2.5157 2.668,2.6718 37.231,1.2539 13.351,5.5 1.258,0 5.34,1.2579 19.793,7.8554 21.367,12.1016 12.094,6.7539 15.867,-2.6719 0,-4.082" style="fill:#231f20;fill-opacity:1;fill-rule:nonzero;stroke:none" id="path6373"/><path d="m 569.762,111.535 -5.973,2.512 99.594,68.512 -31.102,-64.895 -62.519,-6.129" style="fill:#cd7f4b;fill-opacity:1;fill-rule:nonzero;stroke:none" id="path6375"/><path d="m 574.629,194.5 c 14.453,0 71.945,-2.359 71.945,-2.359 l -64.719,-21.684 -7.226,24.043" style="fill:#b1744a;fill-opacity:1;fill-rule:nonzero;stroke:none" id="path6377"/><path d="m 691.031,145.316 3.614,56.411 11.937,9.586 16.809,-48.083 -32.36,-17.914" style="fill:#cd7f4b;fill-opacity:1;fill-rule:nonzero;stroke:none" id="path6379"/></g></g></svg>