<?xml version="1.0" encoding="UTF-8" standalone="no"?>
<!-- Created with Inkscape (http://www.inkscape.org/) -->
<svg height="297mm" id="svg12042" version="1.0" width="210mm" xmlns="http://www.w3.org/2000/svg" xmlns:svg="http://www.w3.org/2000/svg" xmlns:xlink="http://www.w3.org/1999/xlink">
  <metadata>
    <rdf:RDF xmlns:cc="http://web.resource.org/cc/" xmlns:dc="http://purl.org/dc/elements/1.1/" xmlns:rdf="http://www.w3.org/1999/02/22-rdf-syntax-ns#">
      <cc:Work rdf:about="">
        <dc:title>Rabbit</dc:title>
        <dc:description/>
        <dc:subject>
          <rdf:Bag>
            <rdf:li>rabbit</rdf:li>
            <rdf:li>mammals</rdf:li>
            <rdf:li>animal</rdf:li>
          </rdf:Bag>
        </dc:subject>
        <dc:publisher>
          <cc:Agent rdf:about="http://www.openclipart.org/">
            <dc:title>Open Clip Art Library</dc:title>
          </cc:Agent>
        </dc:publisher>
        <dc:creator>
          <cc:Agent>
            <dc:title>Aurore D. (Rore)</dc:title>
          </cc:Agent>
        </dc:creator>
        <dc:rights>
          <cc:Agent>
            <dc:title/>
          </cc:Agent>
        </dc:rights>
        <dc:date/>
        <dc:format>image/svg+xml</dc:format>
        <dc:type rdf:resource="http://purl.org/dc/dcmitype/StillImage"/>
        <cc:license rdf:resource="http://web.resource.org/cc/PublicDomain"/>
        <dc:language>en</dc:language>
      </cc:Work>
      <cc:License rdf:about="http://web.resource.org/cc/PublicDomain">
        <cc:permits rdf:resource="http://web.resource.org/cc/Reproduction"/>
        <cc:permits rdf:resource="http://web.resource.org/cc/Distribution"/>
        <cc:permits rdf:resource="http://web.resource.org/cc/DerivativeWorks"/>
      </cc:License>
    </rdf:RDF>
  </metadata>
  <defs id="defs12044">
    <linearGradient id="linearGradient42821">
      <stop id="stop42823" offset="0" style="stop-color:#e1d1a4;stop-opacity:1"/>
      <stop id="stop42829" offset="0.65909094" style="stop-color:#e1d1a4;stop-opacity:1"/>
      <stop id="stop42825" offset="1" style="stop-color:#9e8a61;stop-opacity:1"/>
    </linearGradient>
    <linearGradient id="linearGradient41938">
      <stop id="stop41940" offset="0" style="stop-color:#a27b3e;stop-opacity:1"/>
      <stop id="stop41942" offset="1" style="stop-color:#e1d1a4;stop-opacity:1"/>
    </linearGradient>
    <linearGradient id="linearGradient21711">
      <stop id="stop21713" offset="0" style="stop-color:#8d5400;stop-opacity:1"/>
      <stop id="stop21715" offset="1" style="stop-color:#ffbb00;stop-opacity:1"/>
    </linearGradient>
    <linearGradient id="linearGradient19072">
      <stop id="stop19074" offset="0" style="stop-color:#000000;stop-opacity:1"/>
      <stop id="stop19076" offset="1" style="stop-color:#000000;stop-opacity:0"/>
    </linearGradient>
    <linearGradient id="linearGradient12925">
      <stop id="stop12927" offset="0" style="stop-color:#ffc300;stop-opacity:1"/>
      <stop id="stop12933" offset="0.28977272" style="stop-color:#000000;stop-opacity:1"/>
      <stop id="stop12939" offset="0.28977272" style="stop-color:#7f5c00;stop-opacity:1"/>
      <stop id="stop12935" offset="0.75" style="stop-color:#ffb800;stop-opacity:1"/>
      <stop id="stop12937" offset="0.875" style="stop-color:#000000;stop-opacity:1"/>
      <stop id="stop12929" offset="1" style="stop-color:#ffcb00;stop-opacity:1"/>
    </linearGradient>
    <linearGradient gradientUnits="userSpaceOnUse" id="linearGradient19078" x1="93.444183" x2="94.444191" xlink:href="#linearGradient19072" y1="234.64879" y2="281.84036"/>
    <linearGradient gradientUnits="userSpaceOnUse" id="linearGradient21717" x1="269.15112" x2="261.79648" xlink:href="#linearGradient21711" y1="320.45981" y2="262.0162"/>
    <radialGradient cx="476.0235" cy="511.81183" fx="476.0235" fy="511.81183" gradientTransform="matrix(0.932141,-6.835986e-3,2.466066e-3,0.336268,31.00664,361.8875)" gradientUnits="userSpaceOnUse" id="radialGradient41946" r="104.48756" xlink:href="#linearGradient41938"/>
    <radialGradient cx="425.66315" cy="421.40005" fx="425.66315" fy="421.40005" gradientTransform="matrix(0.517373,1.260615,-1.704809,0.699679,925.3226,-391.2223)" gradientUnits="userSpaceOnUse" id="radialGradient42827" r="92.5" xlink:href="#linearGradient42821"/>
  </defs>
  <g id="layer1">
    <path d="M 452.14287 450.57648 A 8.5714283 11.071428 0 1 1  435.00001,450.57648 A 8.5714283 11.071428 0 1 1  452.14287 450.57648 z" id="path33100" style="opacity:1;fill:#ffffff;fill-opacity:1;fill-rule:evenodd;stroke:none;stroke-width:3;stroke-linecap:round;stroke-miterlimit:4;stroke-dasharray:none;stroke-dashoffset:0;stroke-opacity:1" transform="translate(-190,-60)"/>
    <g id="g42831" transform="matrix(2.820404,0,0,2.820404,-975.227,-786.3692)">
      <path d="M 479.28571,509.50504 C 443.13477,522.16775 351.98931,513.37191 359.28571,589.50504 C 361.22585,609.7491 592.6282,614.51475 592.85714,590.93361 C 593.57143,516.64789 510.71429,521.6479 479.28571,509.50504 z " id="path40116" style="fill:#e1d1a4;fill-opacity:1;fill-rule:evenodd;stroke:#000000;stroke-width:5;stroke-linecap:butt;stroke-linejoin:miter;stroke-miterlimit:4;stroke-dasharray:none;stroke-opacity:1"/>
      <path d="M 431.42857,495.21932 C 405,508.07646 343.57143,591.64789 392.14286,605.21932 C 423.95202,614.10718 533.77448,610.45992 565.71429,604.50504 C 607.85714,596.64789 527.85714,495.9336 527.85714,495.9336 L 431.42857,495.21932 z " id="path24346" style="fill:url(#radialGradient41946);fill-opacity:1;fill-rule:evenodd;stroke:#000000;stroke-width:5;stroke-linecap:butt;stroke-linejoin:miter;stroke-miterlimit:4;stroke-dasharray:none;stroke-opacity:1"/>
      <g id="g39225" transform="translate(2.142858,-1.428572)">
        <path d="M 440.71429,422.36218 C 448.58974,400.90615 409.44102,272.97081 369.28572,293.79075 C 327.12851,315.64864 408.57143,418.79076 429.28571,425.21933 C 429.28571,425.21933 439.28572,424.50504 440.71429,422.36218 z " id="path36600" style="fill:#e1d1a4;fill-opacity:1;fill-rule:evenodd;stroke:#000000;stroke-width:5;stroke-linecap:butt;stroke-linejoin:miter;stroke-miterlimit:4;stroke-dasharray:none;stroke-opacity:1"/>
        <path d="M 432.85714,416.6479 C 437.14285,406.6479 395.85356,312.50844 382.14286,320.93361 C 367.07541,330.19251 422.45965,418.17331 432.85714,416.6479 z " id="path37477" style="fill:#ffacd5;fill-opacity:1;fill-rule:evenodd;stroke:#000000;stroke-width:3;stroke-linecap:butt;stroke-linejoin:miter;stroke-miterlimit:4;stroke-dasharray:none;stroke-opacity:1"/>
      </g>
      <g id="g39229" transform="matrix(-1,0,0,1,944.7952,1.428571)">
        <path d="M 440.71429,422.36218 C 448.58974,400.90615 409.44102,272.97081 369.28572,293.79075 C 327.12851,315.64864 408.57143,418.79076 429.28571,425.21933 C 429.28571,425.21933 439.28572,424.50504 440.71429,422.36218 z " id="path39231" style="fill:#e1d1a4;fill-opacity:1;fill-rule:evenodd;stroke:#000000;stroke-width:5;stroke-linecap:butt;stroke-linejoin:miter;stroke-miterlimit:4;stroke-dasharray:none;stroke-opacity:1"/>
        <path d="M 432.85714,416.6479 C 437.14285,406.6479 395.85356,312.50844 382.14286,320.93361 C 367.07541,330.19251 422.45965,418.17331 432.85714,416.6479 z " id="path39233" style="fill:#ffacd5;fill-opacity:1;fill-rule:evenodd;stroke:#000000;stroke-width:3;stroke-linecap:butt;stroke-linejoin:miter;stroke-miterlimit:4;stroke-dasharray:none;stroke-opacity:1"/>
      </g>
      <path d="M 565 475.93362 A 90 68.571426 0 1 1  385,475.93362 A 90 68.571426 0 1 1  565 475.93362 z" id="path20834" style="fill:url(#radialGradient42827);fill-opacity:1;fill-rule:evenodd;stroke:#000000;stroke-width:5;stroke-linecap:round;stroke-miterlimit:4;stroke-dasharray:none;stroke-dashoffset:0;stroke-opacity:1"/>
      <path d="M 470.71429,614.50504 C 486.31452,604.10489 465.71428,561.6479 434.28571,562.36218 C 396.86517,563.21265 379.58763,602.22859 398.57143,613.07648 C 408.57143,618.79076 460,621.6479 470.71429,614.50504 z " id="path21709" style="fill:#e1d1a4;fill-opacity:1;fill-rule:evenodd;stroke:#000000;stroke-width:5;stroke-linecap:butt;stroke-linejoin:miter;stroke-miterlimit:4;stroke-dasharray:none;stroke-opacity:1"/>
      <path d="M 483.98687,615.93361 C 468.38664,605.53346 488.98687,563.07647 520.41544,563.79075 C 557.83598,564.64122 575.11352,603.65716 556.12973,614.50504 C 546.12973,620.21933 494.70115,623.07647 483.98687,615.93361 z " id="path23465" style="fill:#e1d1a4;fill-opacity:1;fill-rule:evenodd;stroke:#000000;stroke-width:5;stroke-linecap:butt;stroke-linejoin:miter;stroke-miterlimit:4;stroke-dasharray:none;stroke-opacity:1"/>
      <path d="M 467.14286 469.50504 A 16.785715 23.571428 0 1 1  433.57143,469.50504 A 16.785715 23.571428 0 1 1  467.14286 469.50504 z" id="path25221" style="fill:#ffffff;fill-opacity:1;fill-rule:evenodd;stroke:#000000;stroke-width:5;stroke-linecap:round;stroke-miterlimit:4;stroke-dasharray:none;stroke-dashoffset:0;stroke-opacity:1" transform="matrix(1.258913,0,0,1.068021,-117.3175,-38.72164)"/>
      <path d="M 467.14286 469.50504 A 16.785715 23.571428 0 1 1  433.57143,469.50504 A 16.785715 23.571428 0 1 1  467.14286 469.50504 z" id="path26096" style="fill:#ffffff;fill-opacity:1;fill-rule:evenodd;stroke:#000000;stroke-width:5;stroke-linecap:round;stroke-miterlimit:4;stroke-dasharray:none;stroke-dashoffset:0;stroke-opacity:1" transform="matrix(1.258913,0,0,1.068021,-65.88891,-39.43592)"/>
      <path d="M 457.14286,488.79075 L 492.85714,486.6479 L 474.28571,510.21933 L 457.14286,488.79075 z " id="path26971" style="fill:#ff77a1;fill-opacity:1;fill-rule:evenodd;stroke:#000000;stroke-width:5;stroke-linecap:butt;stroke-linejoin:miter;stroke-miterlimit:4;stroke-dasharray:none;stroke-opacity:1"/>
      <path d="M 472.85714,512.36218 C 471.42857,515.93361 457.85715,520.21932 457.85715,520.21932 L 463.57142,544.50504 L 485,544.50504 L 490,518.79075 C 490,518.79075 477.9963,515.94285 472.85714,512.36218 z " id="path27846" style="fill:#ffffff;fill-opacity:1;fill-rule:evenodd;stroke:#000000;stroke-width:5;stroke-linecap:butt;stroke-linejoin:miter;stroke-miterlimit:4;stroke-dasharray:none;stroke-opacity:1"/>
      <path d="M 474.28571,513.79076 L 475,543.07647" id="path28721" style="fill:none;fill-opacity:0.75;fill-rule:evenodd;stroke:#000000;stroke-width:4;stroke-linecap:butt;stroke-linejoin:miter;stroke-miterlimit:4;stroke-dasharray:none;stroke-opacity:1"/>
      <path d="M 457.85714,519.50504 C 448.57143,523.07647 435,504.50504 435,504.50504" id="path29596" style="fill:none;fill-opacity:0.75;fill-rule:evenodd;stroke:#000000;stroke-width:5;stroke-linecap:round;stroke-linejoin:miter;stroke-miterlimit:4;stroke-dasharray:none;stroke-opacity:1"/>
      <path d="M 489.28571,518.07646 C 498.57142,521.64789 512.14285,503.07646 512.14285,503.07646" id="path31344" style="fill:none;fill-opacity:0.75;fill-rule:evenodd;stroke:#000000;stroke-width:5;stroke-linecap:round;stroke-linejoin:miter;stroke-miterlimit:4;stroke-dasharray:none;stroke-opacity:1"/>
      <path d="M 463.57142 469.14789 A 13.928572 18.928572 0 1 1  435.71428,469.14789 A 13.928572 18.928572 0 1 1  463.57142 469.14789 z" id="path31346" style="fill:#308d54;fill-opacity:1;fill-rule:evenodd;stroke:none;stroke-width:3;stroke-linecap:round;stroke-miterlimit:4;stroke-dasharray:none;stroke-dashoffset:0;stroke-opacity:1" transform="matrix(1.02217,0,0,0.982667,-8.183125,4.917366)"/>
      <path d="M 463.57142 469.14789 A 13.928572 18.928572 0 1 1  435.71428,469.14789 A 13.928572 18.928572 0 1 1  463.57142 469.14789 z" id="path32221" style="fill:#308d54;fill-opacity:1;fill-rule:evenodd;stroke:none;stroke-width:3;stroke-linecap:round;stroke-miterlimit:4;stroke-dasharray:none;stroke-dashoffset:0;stroke-opacity:1" transform="matrix(1.02217,0,0,0.947594,43.95973,21.37191)"/>
      <path d="M 454.28572 477.00504 A 6.0714288 9.6428576 0 1 1  442.14287,477.00504 A 6.0714288 9.6428576 0 1 1  454.28572 477.00504 z" id="path32223" style="fill:#000000;fill-opacity:1;fill-rule:evenodd;stroke:#000000;stroke-width:3;stroke-linecap:round;stroke-miterlimit:4;stroke-dasharray:none;stroke-dashoffset:0;stroke-opacity:1" transform="matrix(1.090618,0,0,0.936847,-32.75945,22.26718)"/>
      <path d="M 454.28572 477.00504 A 6.0714288 9.6428576 0 1 1  442.14287,477.00504 A 6.0714288 9.6428576 0 1 1  454.28572 477.00504 z" id="path33098" style="fill:#000000;fill-opacity:1;fill-rule:evenodd;stroke:#000000;stroke-width:3;stroke-linecap:round;stroke-miterlimit:4;stroke-dasharray:none;stroke-dashoffset:0;stroke-opacity:1" transform="matrix(1.043338,0,0,1,40.21808,-8.571436)"/>
      <path d="M 457.85714 460.93362 A 5.3571429 7.1428571 0 1 1  447.14286,460.93362 A 5.3571429 7.1428571 0 1 1  457.85714 460.93362 z" id="path35721" style="fill:#ffffff;fill-opacity:1;fill-rule:evenodd;stroke:none;stroke-width:3;stroke-linecap:round;stroke-miterlimit:4;stroke-dasharray:none;stroke-dashoffset:0;stroke-opacity:1" transform="translate(-4.285714,-3.571393)"/>
      <path d="M 457.85714 460.93362 A 5.3571429 7.1428571 0 1 1  447.14286,460.93362 A 5.3571429 7.1428571 0 1 1  457.85714 460.93362 z" id="path36596" style="fill:#ffffff;fill-opacity:1;fill-rule:evenodd;stroke:none;stroke-width:3;stroke-linecap:round;stroke-miterlimit:4;stroke-dasharray:none;stroke-dashoffset:0;stroke-opacity:1" transform="translate(47.85714,-4.285693)"/>
      <path d="M 417.85714,617.36219 C 410.71428,605.93362 416.42857,591.6479 421.42857,588.07648" id="path39235" style="fill:none;fill-opacity:0.75;fill-rule:evenodd;stroke:#000000;stroke-width:5;stroke-linecap:round;stroke-linejoin:miter;stroke-miterlimit:4;stroke-dasharray:none;stroke-opacity:1"/>
      <path d="M 446.63964,617.36219 C 453.7825,605.93362 448.06821,591.6479 443.06821,588.07648" id="path40110" style="fill:none;fill-opacity:0.75;fill-rule:evenodd;stroke:#000000;stroke-width:5;stroke-linecap:round;stroke-linejoin:miter;stroke-miterlimit:4;stroke-dasharray:none;stroke-opacity:1"/>
      <path d="M 511.38126,619.87555 C 502.76912,609.50908 506.51431,594.58566 510.98972,590.37547" id="path40112" style="fill:none;fill-opacity:0.75;fill-rule:evenodd;stroke:#000000;stroke-width:5;stroke-linecap:round;stroke-linejoin:miter;stroke-miterlimit:4;stroke-dasharray:none;stroke-opacity:1"/>
      <path d="M 539.90334,616.01243 C 545.44765,603.72857 537.86767,590.33907 532.43356,587.47105" id="path40114" style="fill:none;fill-opacity:0.75;fill-rule:evenodd;stroke:#000000;stroke-width:5;stroke-linecap:round;stroke-linejoin:miter;stroke-miterlimit:4;stroke-dasharray:none;stroke-opacity:1"/>
    </g>
  </g>
</svg>