<?xml version="1.0" encoding="UTF-8" standalone="no"?>
<svg
   xmlns:dc="http://purl.org/dc/elements/1.1/"
   xmlns:cc="http://creativecommons.org/ns#"
   xmlns:rdf="http://www.w3.org/1999/02/22-rdf-syntax-ns#"
   xmlns:svg="http://www.w3.org/2000/svg"
   xmlns="http://www.w3.org/2000/svg"
   xmlns:sodipodi="http://sodipodi.sourceforge.net/DTD/sodipodi-0.dtd"
   xmlns:inkscape="http://www.inkscape.org/namespaces/inkscape"
   width="544.92023"
   height="244.03127"
   version="1.1"
   id="svg352"
   sodipodi:docname="shark.svg"
   inkscape:version="0.92.1 r15371">
  <metadata
     id="metadata358">
    <rdf:RDF>
      <cc:Work
         rdf:about="">
        <dc:format>image/svg+xml</dc:format>
        <dc:type
           rdf:resource="http://purl.org/dc/dcmitype/StillImage" />
        <dc:title></dc:title>
      </cc:Work>
    </rdf:RDF>
  </metadata>
  <defs
     id="defs356" />
  <sodipodi:namedview
     pagecolor="#ffffff"
     bordercolor="#666666"
     borderopacity="1"
     objecttolerance="10"
     gridtolerance="10"
     guidetolerance="10"
     inkscape:pageopacity="0"
     inkscape:pageshadow="2"
     inkscape:window-width="1056"
     inkscape:window-height="685"
     id="namedview354"
     showgrid="false"
     fit-margin-top="0"
     fit-margin-left="0"
     fit-margin-right="0"
     fit-margin-bottom="0"
     inkscape:zoom="0.49166667"
     inkscape:cx="218.9202"
     inkscape:cy="11.440272"
     inkscape:window-x="592"
     inkscape:window-y="366"
     inkscape:window-maximized="0"
     inkscape:current-layer="svg352" />
  <linearGradient
     y2="65.622518"
     x2="259.72176"
     y1="65.622518"
     x1="144.15445"
     id="SVGID_1_"
     gradientTransform="scale(0.71538763,1.3978436)"
     gradientUnits="userSpaceOnUse">
    <stop
       stop-color="#4880AD"
       offset="0"
       id="stop2" />
    <stop
       stop-color="#3E627F"
       offset="1"
       id="stop4" />
    <stop
       stop-color="#3E627F"
       offset="1"
       id="stop6" />
  </linearGradient>
  <linearGradient
     y2="290.77613"
     x2="374.22998"
     y1="290.77613"
     x1="90.371325"
     id="SVGID_2_"
     gradientTransform="scale(1.7262113,0.57930337)"
     gradientUnits="userSpaceOnUse">
    <stop
       stop-color="#76A9CD"
       offset="0"
       id="stop9" />
    <stop
       stop-color="#295F84"
       offset="1"
       id="stop11" />
  </linearGradient>
  <linearGradient
     y2="68.534343"
     x2="405.3998"
     y1="68.534343"
     x1="331.3499"
     id="SVGID_3_"
     gradientTransform="scale(1.0668481,0.93734059)"
     gradientUnits="userSpaceOnUse">
    <stop
       stop-color="#76A9CD"
       offset="0"
       id="stop14" />
    <stop
       stop-color="#295F84"
       offset="1"
       id="stop16" />
  </linearGradient>
  <linearGradient
     y2="154.39813"
     x2="202.3193"
     y1="154.39813"
     x1="189.55019"
     id="SVGID_4_"
     gradientTransform="scale(1.17471,0.85127395)"
     gradientUnits="userSpaceOnUse">
    <stop
       stop-color="#5B8FB7"
       offset="0"
       id="stop19" />
    <stop
       stop-color="#3E627F"
       offset="1"
       id="stop21" />
  </linearGradient>
  <linearGradient
     y2="138.72811"
     x2="166.3837"
     y1="138.72811"
     x1="156.02042"
     id="SVGID_5_"
     gradientTransform="scale(1.4634847,0.6833006)"
     gradientUnits="userSpaceOnUse">
    <stop
       stop-color="#5B8FB7"
       offset="0"
       id="stop24" />
    <stop
       stop-color="#3E627F"
       offset="1"
       id="stop26" />
  </linearGradient>
  <linearGradient
     y2="413.62388"
     x2="208.62075"
     y1="413.62388"
     x1="141.9091"
     id="SVGID_6_"
     gradientTransform="scale(2.0699476,0.48310403)"
     gradientUnits="userSpaceOnUse">
    <stop
       stop-color="#76A9CD"
       offset="0"
       id="stop29" />
    <stop
       stop-color="#4880AD"
       offset="1"
       id="stop31" />
  </linearGradient>
  <linearGradient
     y2="136.46604"
     x2="561.48273"
     y1="136.46604"
     x1="527.70887"
     id="SVGID_7_"
     gradientTransform="scale(0.76612508,1.3052699)"
     gradientUnits="userSpaceOnUse">
    <stop
       stop-color="#5B8FB7"
       offset="0.2809"
       id="stop34" />
    <stop
       stop-color="#6495BB"
       offset="0.3158"
       id="stop36" />
    <stop
       stop-color="#84ACCA"
       offset="0.4524"
       id="stop38" />
    <stop
       stop-color="#9DBFD6"
       offset="0.5899"
       id="stop40" />
    <stop
       stop-color="#B0CEDF"
       offset="0.7271"
       id="stop42" />
    <stop
       stop-color="#BCD8E5"
       offset="0.8639"
       id="stop44" />
    <stop
       stop-color="#C0DBE7"
       offset="1"
       id="stop46" />
  </linearGradient>
  <linearGradient
     y2="404.79678"
     x2="324.32106"
     y1="404.79678"
     x1="300.9974"
     id="SVGID_8_"
     gradientTransform="scale(1.6963685,0.58949458)"
     gradientUnits="userSpaceOnUse">
    <stop
       stop-color="#5B8FB7"
       offset="0"
       id="stop49" />
    <stop
       stop-color="#246EA0"
       offset="0.618"
       id="stop51" />
    <stop
       stop-color="#295F84"
       offset="1"
       id="stop53" />
  </linearGradient>
  <linearGradient
     y2="327.11939"
     x2="406.18095"
     y1="327.11939"
     x1="371.80712"
     id="SVGID_9_"
     gradientTransform="scale(1.3997958,0.71438991)"
     gradientUnits="userSpaceOnUse">
    <stop
       stop-color="#5B8FB7"
       offset="0"
       id="stop56" />
    <stop
       stop-color="#6495BB"
       offset="0.0485"
       id="stop58" />
    <stop
       stop-color="#84ACCA"
       offset="0.2384"
       id="stop60" />
    <stop
       stop-color="#9DBFD6"
       offset="0.4297"
       id="stop62" />
    <stop
       stop-color="#B0CEDF"
       offset="0.6205"
       id="stop64" />
    <stop
       stop-color="#BCD8E5"
       offset="0.8108"
       id="stop66" />
    <stop
       stop-color="#C0DBE7"
       offset="1"
       id="stop68" />
  </linearGradient>
  <linearGradient
     y2="238.32677"
     x2="586.20033"
     y1="238.32677"
     x1="579.28182"
     id="SVGID_10_"
     gradientTransform="scale(1.0681482,0.93619967)"
     gradientUnits="userSpaceOnUse">
    <stop
       stop-color="#5B8FB7"
       offset="0.7022"
       id="stop71" />
    <stop
       stop-color="#6495BB"
       offset="0.7167"
       id="stop73" />
    <stop
       stop-color="#84ACCA"
       offset="0.7732"
       id="stop75" />
    <stop
       stop-color="#9DBFD6"
       offset="0.8302"
       id="stop77" />
    <stop
       stop-color="#B0CEDF"
       offset="0.887"
       id="stop79" />
    <stop
       stop-color="#BCD8E5"
       offset="0.9437"
       id="stop81" />
    <stop
       stop-color="#C0DBE7"
       offset="1"
       id="stop83" />
  </linearGradient>
  <linearGradient
     y2="260.80778"
     x2="252.54694"
     y1="260.80778"
     x1="121.49659"
     id="SVGID_11_"
     gradientTransform="scale(1.7640683,0.56687147)"
     gradientUnits="userSpaceOnUse">
    <stop
       stop-color="#5B8FB7"
       offset="0"
       id="stop86" />
    <stop
       stop-color="#295F84"
       offset="1"
       id="stop88" />
  </linearGradient>
  <linearGradient
     y2="387.81557"
     x2="131.7291"
     y1="387.81557"
     x1="64.41133"
     id="SVGID_12_"
     gradientTransform="scale(3.3174142,0.30143959)"
     gradientUnits="userSpaceOnUse">
    <stop
       stop-color="#4880AD"
       offset="0"
       id="stop91" />
    <stop
       stop-color="#3E627F"
       offset="1"
       id="stop93" />
    <stop
       stop-color="#3E627F"
       offset="1"
       id="stop95" />
  </linearGradient>
  <linearGradient
     y2="312.06837"
     x2="463.20086"
     y1="312.06837"
     x1="408.14036"
     id="SVGID_13_"
     gradientTransform="scale(1.2485443,0.80093271)"
     gradientUnits="userSpaceOnUse">
    <stop
       stop-color="#C0DBE7"
       offset="0"
       id="stop98" />
    <stop
       stop-color="#5B8FB7"
       offset="0.618"
       id="stop100" />
  </linearGradient>
  <linearGradient
     y2="363.15473"
     x2="385.41715"
     y1="363.15473"
     x1="349.48374"
     id="SVGID_14_"
     gradientTransform="scale(1.5963223,0.6264399)"
     gradientUnits="userSpaceOnUse">
    <stop
       stop-color="#80B1D3"
       offset="0"
       id="stop103" />
    <stop
       stop-color="#5B8FB7"
       offset="1"
       id="stop105" />
  </linearGradient>
  <linearGradient
     y2="293.50454"
     x2="421.27527"
     y1="293.50454"
     x1="421.27527"
     id="SVGID_15_"
     gradientTransform="scale(1.3252586,0.75456972)"
     gradientUnits="userSpaceOnUse">
    <stop
       stop-color="#673366"
       offset="0.3427"
       id="stop108" />
    <stop
       stop-color="#ED1C24"
       offset="1"
       id="stop110" />
  </linearGradient>
  <linearGradient
     y2="39.328004"
     x2="598.69512"
     y1="39.328004"
     x1="558.4091"
     id="SVGID_16_"
     gradientTransform="scale(0.67020756,1.4920751)"
     gradientUnits="userSpaceOnUse">
    <stop
       stop-color="#5B8FB7"
       offset="0"
       id="stop113" />
    <stop
       stop-color="#3E627F"
       offset="1"
       id="stop115" />
  </linearGradient>
  <linearGradient
     y2="200.15276"
     x2="254.0373"
     y1="200.15276"
     x1="228.95214"
     id="SVGID_17_"
     gradientTransform="scale(1.2242297,0.8168402)"
     gradientUnits="userSpaceOnUse">
    <stop
       stop-color="#76A9CD"
       offset="0"
       id="stop118" />
    <stop
       stop-color="#295F84"
       offset="1"
       id="stop120" />
  </linearGradient>
  <linearGradient
     y2="0.49761999"
     x2="0.97695601"
     y1="0.49761999"
     x1="0.023599001"
     id="SVGID_18_">
    <stop
       stop-color="#4880AD"
       offset="0"
       id="stop123" />
    <stop
       stop-color="#3E627F"
       offset="1"
       id="stop125" />
    <stop
       stop-color="#3E627F"
       offset="1"
       id="stop127" />
  </linearGradient>
  <linearGradient
     y2="0.495305"
     x2="1"
     y1="0.495305"
     x1="0"
     id="SVGID_19_">
    <stop
       stop-color="#76A9CD"
       offset="0"
       id="stop130" />
    <stop
       stop-color="#72A4C8"
       offset="0.1877"
       id="stop132" />
    <stop
       stop-color="#6798BB"
       offset="0.3981"
       id="stop134" />
    <stop
       stop-color="#5785A9"
       offset="0.6195"
       id="stop136" />
    <stop
       stop-color="#3F6F94"
       offset="0.8469"
       id="stop138" />
    <stop
       stop-color="#295F84"
       offset="1"
       id="stop140" />
  </linearGradient>
  <linearGradient
     y2="0.53316998"
     x2="1"
     y1="0.53316998"
     x1="0"
     id="SVGID_20_">
    <stop
       stop-color="#76A9CD"
       offset="0"
       id="stop143" />
    <stop
       stop-color="#295F84"
       offset="1"
       id="stop145" />
  </linearGradient>
  <linearGradient
     y2="0.50004601"
     x2="0.99996603"
     y1="0.50004601"
     x1="-3.4000001e-05"
     id="SVGID_21_">
    <stop
       stop-color="#5B8FB7"
       offset="0"
       id="stop148" />
    <stop
       stop-color="#3E627F"
       offset="1"
       id="stop150" />
  </linearGradient>
  <linearGradient
     y2="0.499998"
     x2="1"
     y1="0.499998"
     x1="-3.3e-05"
     id="SVGID_22_">
    <stop
       stop-color="#5B8FB7"
       offset="0"
       id="stop153" />
    <stop
       stop-color="#3E627F"
       offset="1"
       id="stop155" />
  </linearGradient>
  <linearGradient
     y2="0.499964"
     x2="1.000001"
     y1="0.499964"
     x1="-1.2e-05"
     id="SVGID_23_">
    <stop
       stop-color="#5B8FB7"
       offset="0"
       id="stop158" />
    <stop
       stop-color="#246EA0"
       offset="0.618"
       id="stop160" />
    <stop
       stop-color="#295F84"
       offset="1"
       id="stop162" />
  </linearGradient>
  <linearGradient
     y2="0.48931399"
     x2="0.96877301"
     y1="0.48931399"
     x1="0.021891"
     id="SVGID_24_">
    <stop
       stop-color="#5B8FB7"
       offset="0"
       id="stop165" />
    <stop
       stop-color="#6495BB"
       offset="0.0485"
       id="stop167" />
    <stop
       stop-color="#84ACCA"
       offset="0.2384"
       id="stop169" />
    <stop
       stop-color="#9DBFD6"
       offset="0.4297"
       id="stop171" />
    <stop
       stop-color="#B0CEDF"
       offset="0.6205"
       id="stop173" />
    <stop
       stop-color="#BCD8E5"
       offset="0.8108"
       id="stop175" />
    <stop
       stop-color="#C0DBE7"
       offset="1"
       id="stop177" />
  </linearGradient>
  <linearGradient
     y2="0.657206"
     x2="0.56896901"
     y1="0.657206"
     x1="0.397237"
     id="SVGID_25_">
    <stop
       stop-color="#5B8FB7"
       offset="0.7022"
       id="stop180" />
    <stop
       stop-color="#6495BB"
       offset="0.7167"
       id="stop182" />
    <stop
       stop-color="#84ACCA"
       offset="0.7732"
       id="stop184" />
    <stop
       stop-color="#9DBFD6"
       offset="0.8302"
       id="stop186" />
    <stop
       stop-color="#B0CEDF"
       offset="0.887"
       id="stop188" />
    <stop
       stop-color="#BCD8E5"
       offset="0.9437"
       id="stop190" />
    <stop
       stop-color="#C0DBE7"
       offset="1"
       id="stop192" />
  </linearGradient>
  <linearGradient
     y2="0.003451"
     x2="0.49712601"
     y1="0.003451"
     x1="0.49712601"
     id="SVGID_26_">
    <stop
       stop-color="#673366"
       offset="0.3427"
       id="stop195" />
    <stop
       stop-color="#ED1C24"
       offset="1"
       id="stop197" />
  </linearGradient>
  <linearGradient
     y2="0.49725601"
     x2="1"
     y1="0.49725601"
     x1="0"
     id="SVGID_27_">
    <stop
       stop-color="#5B8FB7"
       offset="0"
       id="stop200" />
    <stop
       stop-color="#3E627F"
       offset="1"
       id="stop202" />
  </linearGradient>
  <linearGradient
     y2="1"
     x2="0.50000101"
     y1="1"
     x1="0.50000101"
     id="SVGID_28_">
    <stop
       stop-color="#C0DBE7"
       offset="0"
       id="stop205" />
    <stop
       stop-color="#5B8FB7"
       offset="0.2865"
       id="stop207" />
    <stop
       stop-color="#3E627F"
       offset="0.9888"
       id="stop209" />
  </linearGradient>
  <linearGradient
     y2="0.49996001"
     x2="1"
     y1="0.49996001"
     x1="-4.9999999e-06"
     id="SVGID_29_">
    <stop
       stop-color="#80B1D3"
       offset="0"
       id="stop212" />
    <stop
       stop-color="#5B8FB7"
       offset="1"
       id="stop214" />
  </linearGradient>
  <linearGradient
     y2="0.51115102"
     x2="1"
     y1="0.51115102"
     x1="-3.3e-05"
     id="SVGID_30_">
    <stop
       stop-color="#76A9CD"
       offset="0"
       id="stop217" />
    <stop
       stop-color="#295F84"
       offset="1"
       id="stop219" />
  </linearGradient>
  <linearGradient
     y2="0.485277"
     x2="1"
     y1="0.485277"
     x1="0.0032560001"
     id="SVGID_31_">
    <stop
       stop-color="#76A9CD"
       offset="0"
       id="stop222" />
    <stop
       stop-color="#295F84"
       offset="1"
       id="stop224" />
  </linearGradient>
  <linearGradient
     y2="0.49998799"
     x2="1"
     y1="0.49998799"
     x1="1e-06"
     id="SVGID_32_">
    <stop
       stop-color="#5B8FB7"
       offset="0.2809"
       id="stop227" />
    <stop
       stop-color="#6495BB"
       offset="0.3158"
       id="stop229" />
    <stop
       stop-color="#84ACCA"
       offset="0.4524"
       id="stop231" />
    <stop
       stop-color="#9DBFD6"
       offset="0.5899"
       id="stop233" />
    <stop
       stop-color="#B0CEDF"
       offset="0.7271"
       id="stop235" />
    <stop
       stop-color="#BCD8E5"
       offset="0.8639"
       id="stop237" />
    <stop
       stop-color="#C0DBE7"
       offset="1"
       id="stop239" />
  </linearGradient>
  <linearGradient
     y2="0.86989897"
     x2="0.82779402"
     y1="0.86989897"
     x1="0.180198"
     id="SVGID_33_">
    <stop
       stop-color="#65A9CE"
       offset="0"
       id="stop242" />
    <stop
       stop-color="#5B8FB7"
       offset="0.618"
       id="stop244" />
  </linearGradient>
  <linearGradient
     y2="0.90969998"
     x2="0.847009"
     y1="0.90969998"
     x1="0.152991"
     id="SVGID_35_">
    <stop
       stop-color="#C0DBE7"
       offset="0"
       id="stop247" />
    <stop
       stop-color="#5B8FB7"
       offset="0.618"
       id="stop249" />
  </linearGradient>
  <linearGradient
     y2="0.51877701"
     x2="0.904019"
     y1="0.51877701"
     x1="0.030009"
     id="SVGID_36_">
    <stop
       stop-color="#5B8FB7"
       offset="0"
       id="stop252" />
    <stop
       stop-color="#3E627F"
       offset="1"
       id="stop254" />
  </linearGradient>
  <linearGradient
     y2="0.61767501"
     x2="2.0132239"
     y1="0.61767501"
     x1="-0.855304"
     id="SVGID_37_">
    <stop
       stop-color="#C0DBE7"
       offset="0"
       id="stop257" />
    <stop
       stop-color="#5B8FB7"
       offset="0.618"
       id="stop259" />
  </linearGradient>
  <g
     id="g350"
     transform="translate(-101.0798,-7.409)">
    <title
       id="title262">Layer 1</title>
    <path
       d="M 183,94 C 171.32201,78.426003 157.923,61.363998 145.5,46.5 135.103,34.060001 117.196,12.107 101.26,7.409 c -2.327001,4.927001 18.59,32.450001 21.989,40.536 6.05801,14.41 8.852,28.828003 11.97401,44.110001 C 141.49699,122.777 110.96,176.007 115.48,176.83701 c 4.52001,0.83 31.645,-23.61802 44.52,-37.83701 6.541,-7.224 16.59,-17.11 22.09399,-23.925 C 189.158,106.33 189.896,101.887 183,94"
       id="path264"
       inkscape:connector-curvature="0"
       style="fill:url(#SVGID_1_)" />
    <path
       d="m 183,94 c 11.739,9.933 33.006,6.646 48,4 17,-3 110.5,-8 122.5,-8 12,0 36.5,-3 36.5,-3 0,0 29,3 51,12 22,9 80.41998,34.784 114,59 34.66699,25 57.44,44.94 62.5,50 5,5 28.5,28 28.5,28 0,0 -2,7 -22,5 -20,-2 -38,-3 -43.75,-6.5 l -9,-1.5 c 0,0 18.01501,10.69501 10.75,14.5 -10.5,5.5 -9.25,4.5 -25.25,1.5 -16,-3 -19.75,-1 -40.75,-8 -21,-7 -79,-32 -87,-36 -8,-4 -30,-7 -58,-15 -28,-8 -69,-26 -69,-26 0,0 -32,-13 -48,-22 -16,-9 -43,-22 -56,-25 -13,-3 -42,-12 -42,-12 0,0 14,-1 18,-3 4,-2 9,-8 9,-8 z"
       id="path266"
       inkscape:connector-curvature="0"
       style="fill:url(#SVGID_2_)" />
    <path
       d="M 432.5,96.5 C 421.824,92.264 415.20902,72.608002 412.13901,62.487 408.60199,50.828 399.246,35.077 388.112,28.366 c -11.94501,-7.199999 -6.17001,22.022001 -7.224,28.161001 -1.05399,6.139 -5.44199,15.296997 -11.22101,22.806 -4,5 -8.33297,7 -16.16699,10.667 12.16699,-1 30.086,-1.383003 39.98801,-0.026 12.345,1.693001 27.212,7.662003 39.01199,6.526001"
       id="path268"
       inkscape:connector-curvature="0"
       style="fill:url(#SVGID_3_)" />
    <path
       d="m 237.66701,133.33299 c -1.834,-2.62401 -8.66699,-4.667 -15,-7.333 1.621,3.151 2.832,7.204 2.09601,10.87001 2.67898,-0.239 10.36198,-1.96599 12.90399,-3.53701"
       id="path270"
       inkscape:connector-curvature="0"
       style="fill:url(#SVGID_4_)" />
    <path
       d="M 243.5,96 C 239.675,95.106003 237.05701,91.466003 232.62399,91.251999 232.35201,93.922997 229.25,95.75 228.334,98.333 c 4.41701,-0.083 10.25,-0.455002 14.16701,-1.833"
       id="path272"
       inkscape:connector-curvature="0"
       style="fill:url(#SVGID_5_)" />
    <path
       d="m 431.83402,204.834 c 0,0 -10,-19.66699 -27.875,-20.834 -4.375,-0.285 -43.042,9.5 -48.70801,10.5 -9.14099,1.61301 -23.47901,4.84399 -28,4.75 -8,-0.16701 -18.85001,2.10899 -22.08301,2.91701 -3.33298,0.83299 -8.33298,2 -9.83298,2.83299 -1.5,0.83299 -2.5,1.83299 -1.83301,3.5 1,2.5 4.83301,4 12.33301,5.25 21.35098,3.55901 39.66699,2.58299 55.5,2 15.83301,-0.58299 26.5,-1.74899 36.16699,-2.416 8.66999,-0.599 34.332,-8.5 34.33201,-8.5 z"
       id="path274"
       inkscape:connector-curvature="0"
       style="fill:url(#SVGID_6_)" />
    <path
       d="m 427.00101,205.666 c 2.62399,-0.791 2.87399,-1.041 3.16601,-2.166 -2.332,-3 -6,-9.334 -11.14102,-13.565 -4.69198,-3.86099 -11.25299,-5.46199 -17.19198,-4.769 -9.52601,1.11099 -35.167,9 -48.33301,11.834 -7.28501,1.56799 -12.66699,2.5 -25.16699,3.5 -3.71702,0.298 -8.14301,0.076 -12.5,0.5 -9.03202,0.88001 -17.81202,2.646 -19.667,4.33299 -2.75,2.5 8.83298,5 13.83298,5.5 5.60501,0.56101 10.5,1.08301 17,1.33301 10.34701,0.397 21.60501,0.756 32,0.16699 C 379.06302,211.196 405.02902,196.101 425.16702,206"
       id="path276"
       inkscape:connector-curvature="0"
       style="fill:#4880ad" />
    <path
       d="m 430.16598,200.16701 c -1.798,-2.96601 -4.93701,-7.338 -9.333,-11.334 -4.125,-3.75 -8.83301,-5.166 -16.542,-6.5 1.66202,-0.021 9.80899,-0.75701 11.681,-0.19901 4.02799,1.19901 4.84,3.01001 6.819,3.44901 2.25,0.5 1.85102,-5.375 2.13202,-8.306 0.66397,-6.915 -0.007,-13.944 2.86798,-21.194 0.55899,7.39799 0.301,13.975 0.375,21.375 0.038,3.813 -0.074,8.848 0.25,12.625 0.14801,1.726 1.75,10.084 1.75,10.084 z"
       id="path278"
       inkscape:connector-curvature="0"
       style="opacity:0.61000001;fill:url(#SVGID_7_)" />
    <path
       d="m 428.33301,204.16701 c -2.32001,-1.439 -3.60901,-4.193 -5.20801,-6.29801 -1.73499,-2.28199 -3.992,-4.97699 -6.453,-6.502 -0.862,-0.53399 -2.61499,-1.29499 -3.66999,-0.88299 -1.92401,0.753 -0.051,1.811 0.417,3.19099 1.061,3.13401 -2.91401,3.80501 -5.215,4.44101 -1.048,0.289 -2.77301,0.562 -3.625,1.246 -1.591,1.279 -0.68701,2.006 1.09601,1.94001 1.113,-0.041 2.41598,-0.78101 3.52798,-0.97901 1.181,-0.21 2.42401,-0.155 3.63001,-0.157 2.492,-0.003 4.85199,0.234 7.15799,1.167 2.21802,0.897 4.84802,2.76001 7.34201,2.499"
       id="path280"
       inkscape:connector-curvature="0"
       style="fill:#31688f" />
    <path
       d="m 342.5,205.91701 c 0.16,-1.057 -6.45401,-0.78501 -7.67099,-0.672 -2.54501,0.23801 -5.926,0.25101 -8.19101,-1.12399 0.819,-0.44101 2.42099,-0.55301 2.63101,-1.47602 -0.772,-0.052 -1.582,-0.27398 -1.75101,-1.04199 2.116,-0.79001 4.263,-0.38701 6.478,-0.52 2.388,-0.14301 4.50199,-0.38001 6.83301,-0.88401 2.23099,-0.483 4.58298,-0.33 6.83798,-0.608 1.814,-0.224 5.28702,-2.30099 6.75702,-1.88099 -1.228,5.29499 -7.98001,7.875 -12.75702,7.873"
       id="path282"
       inkscape:connector-curvature="0"
       style="fill:#31688f" />
    <path
       d="m 423,205.5 c -3.66598,-0.5 -5.16598,-0.834 -10.16699,0.5 -5,1.334 -10.33301,4.16701 -18.5,4.66701 -8.16699,0.5 -17,1.83299 -17,1.83299 L 372.5,213.66701 c 0,0 7.5,-0.16701 11.33301,-0.5 3.83301,-0.333 12.33297,-0.666 16.66699,-1 4.33402,-0.334 12.83402,-3 14.33402,-3.33301 1.5,-0.33301 10.83297,-2.834 10.83297,-2.834 z"
       id="path284"
       inkscape:connector-curvature="0"
       style="fill:#bfdcde" />
    <path
       d="m 564.50098,201.00101 c 4,4.166 4,4.166 4,4.166 l -5.33399,-1.166 z"
       id="path286"
       inkscape:connector-curvature="0"
       style="fill:#ffffff" />
    <path
       d="m 550.00098,245.334 c -0.38397,-1.782 -7.65802,-3.604 -9.50897,-4.17101 C 537.349,240.2 533.97699,240.272 530.797,239.5 c -3.427,-0.832 -6.64099,-2.159 -10,-3.334 -3.112,-1.088 -7.599,-2.276 -10.19403,-4.41499 1.89001,0.93799 3.57599,2.71399 5.23101,4.03999 1.65998,1.329 3.39899,2.202 5.19599,3.217 -1.341,0.352 -2.396,0.22399 -3.76196,0.009 4.70397,2.951 10.55896,4.77501 16.22399,5.281 6.008,0.536 10.96198,0.80201 16.67597,1.202"
       id="path288"
       inkscape:connector-curvature="0"
       style="fill:url(#SVGID_8_)" />
    <path
       d="M 563.66699,200.66701 C 568,204 568,204 568,204 l -5.16699,-0.5 z"
       id="path290"
       inkscape:connector-curvature="0"
       style="fill:#ffffff" />
    <path
       d="m 565.5,244.334 c -10.83301,-6.16699 -14.99902,-7.99899 -19.83301,-12.83299 -4.83398,-4.834 -9.33398,-10.5 -9.33398,-10.5 0,0 -13.83399,0.834 -16,1 -2.16602,0.166 -1,1.5 5.66699,4 6.66699,2.5 9.83398,5 15.66699,8.5 5.83301,3.5 12.33301,6.33299 15.5,7.83299 2.77698,1.315 6.83399,3.66701 8.5,4 1.66602,0.33299 6.16602,1.16701 3.83301,0 -2.33301,-1.16701 -4,-2 -4,-2 z"
       id="path292"
       inkscape:connector-curvature="0"
       style="fill:url(#SVGID_9_)" />
    <path
       d="m 644.69702,235.97501 c -2.57898,-1.719 -11.61999,-11.773 -19.44702,-19.47499 -4.31195,-4.24201 -9.56299,-8.30301 -10.75,-9.5 -2.65198,-2.67701 -7,-6 -10.83301,-8.666 0.14002,1.67498 2.90302,3.57699 3.06903,4.99899 0.37799,3.229 -1.979,1.248 -3.48101,2.285 -4.14197,2.858 0.737,5.075 4.07904,6.30699 4.33093,1.596 32.96496,25.639 37.36297,24.05001"
       id="path294"
       inkscape:connector-curvature="0"
       style="fill:url(#SVGID_10_)" />
    <path
       d="m 423.25,186.25 c 2,-1.5 0.75,-19.75 2.25,-25.75 1.5,-6 4,-12 10.5,-17 6.5,-5 12,-5.5 13.5,-5.5 1.5,0 6.5,-6 -27.5,-13 -34,-7 -66,-4.5 -94.5,-5 -28.5,-0.5 -56,-6.5 -70,-7.5 -14,-1 -40.66701,-3 -46.16701,-3.5 -5.5,-0.5 9.16701,5.5 28.16701,15 19,9.5 24,11.5 43,17 19,5.5 17.5,11.5 28,14 10.5,2.5 34,11.5 38.5,13.5 4.5,2 29,6 38,7.5 9,1.5 17.29098,6.33299 17.29098,6.33299 0,0 7.95902,0.91701 9.45902,0.41701 1.5,-0.5 9.5,3.5 9.5,3.5 z"
       id="path296"
       inkscape:connector-curvature="0"
       style="fill:url(#SVGID_11_)" />
    <path
       d="m 437,127.667 c -25.5,1.50001 -78.83301,-6 -103.83301,-7 -25,-1 -41.5,-3.5 -54,-5 -12.5,-1.5 -26.49998,-1.5 -38.49998,-3 -12,-1.5 -17,-2.5 -26.5,-3 -9.5,-0.5 -4.5,-2.5 8,-2.5 12.5,0 36.49998,1.5 45.49998,1.5 9,0 18.87201,0.408 34.5,0.5 17.59201,0.104 19.582,1.773 43.16703,2.167 20,0.333 29.5,1.333 36,2.333 6.5,1 55.66598,14 55.66598,14 z"
       id="path298"
       inkscape:connector-curvature="0"
       style="fill:url(#SVGID_12_)" />
    <path
       d="m 504,172.5 c -13.75,-4.75 -20.36801,0.076 -20.88501,8.38901 -0.509,8.17399 12.10901,18.94699 8.952,26.22999 -2.766,6.383 -19.65998,1.416 -25.456,1.381 -2.64599,-0.016 -11.46499,-2.375 -12.858,-0.58299 -3.07401,3.95399 7.866,10.32799 10.49701,11.33299 20.98498,8.01601 36.103,14.26199 53.25,20.75 9.25,3.5 15.893,4.422 25.02502,5.02499 C 551.03601,245.588 559.75,248.5 568,248.5 c -8.36102,-4.80701 -16.82501,-9.091 -25.5,-13 -4.711,-2.123 -8.409,-5.394 -13,-7.75 -2.97498,-1.526 -10.336,-4.271 -11.44598,-6.77499 C 526,221 537.01398,222.748 542.5,221.75 c 7.71301,-1.403 16.98498,6.638 24.53601,5.097 -2.27704,-2.66 64.09302,7.291 58.71399,5.903 -4.81,-1.241 -14.91101,-28.886 -22.75,-35.41701 -8,-6.66598 -30.54602,-23.88099 -33,-25.66598 -11,-8 -16.75598,-12.817 -21.66699,-15 C 425.33301,102 526.20398,182.601 522,180.5 c -5.758,-2.877 -15.5,-6.75 -19,-8.5"
       id="path300"
       inkscape:connector-curvature="0"
       style="fill:url(#SVGID_13_)" />
    <path
       d="m 615.25,238.48801 c -2.33899,-0.457 -4.48602,-1.98999 -6.84399,-2.622 -2.42798,-0.65001 -4.84101,-0.774 -7.21302,-1.573 -5.05798,-1.701 -9.61902,-4.54299 -14.62402,-6.21099 -4.67798,-1.55901 -9.258,-3.91301 -13.98596,-5.02101 -4.86499,-1.138 -10.64704,-3.633 -14.69403,-6.821 5.086,2.656 1.29901,8.53401 6.24701,11.522 4.41699,2.666 16.221,5.914 21.22003,7.069 4.66199,1.077 9.66699,1.989 14.29199,2.33501 4.90399,0.36599 9.52197,0.50299 14.32398,1.584"
       id="path302"
       inkscape:connector-curvature="0"
       style="fill:url(#SVGID_14_)" />
    <path
       d="m 581.25,242.25 c -6.95203,-6.519 -13.82001,-11.53101 -22.50702,-15.5 -3.74396,-1.711 -7.27099,-3.836 -11.24298,-4.75 -3.08502,-0.711 -9.44702,1.505 -11.849,-0.62 2.12598,0.734 3.336,3.303 4.71198,4.932 1.656,1.962 3.81304,3.46299 5.76104,5.125 3.63599,3.104 7.80597,5.52099 11.87598,8.058 3.992,2.488 7.78497,5.589 12.23602,7.255 2.12,0.793 3.91199,0.87801 6.00598,-0.17599 1.33301,-0.67101 5.35602,-3.25501 5.008,-4.823"
       id="path304"
       inkscape:connector-curvature="0"
       style="fill:url(#SVGID_15_)" />
    <path
       d="m 643.75,235.75 c 0.31799,-0.039 0.604,-0.15401 0.854,-0.345 -1.20001,-1.38201 -11.13,-6.65399 -10.80798,-4.091 0.26697,2.123 10.54199,7.91999 10.203,4.186"
       id="path306"
       inkscape:connector-curvature="0"
       style="fill:#295f84" />
    <path
       d="m 377,85 c 6.25,-7.5 5.25,-9.5 6,-15.75 0.75,-6.25 0.5,-10.75 -0.5,-18.25 -1,-7.5 -0.083,-8.167 -0.83301,-13.833 -0.39499,-2.984001 0.73602,-8.215 2.5,-8.333 1.875,-0.125 2.95801,-0.083 5.45801,1.667 2.5,1.75 4.125,3 4.625,4.5 0.5,1.5 -3,3.5 -3.5,10.25 -0.5,6.75 -1.5,14.75 -0.75,19 0.75,4.25 3,9.5 4.75,12.25 1.75,2.75 2.75,5 5,9 1.47601,2.624001 1.5,3.25 1.5,3.25 0,0 -0.83499,0.566002 -7.5,-0.5 -6.25,-1 -15.5,-1.5 -15.5,-1.5 l -4,-0.75 2.75,-1.000999 z"
       id="path308"
       inkscape:connector-curvature="0"
       style="fill:url(#SVGID_16_)" />
    <path
       d="m 401,88.125 c -2.75,-5.25 -10.25,-18.5 -11.25,-22.375 -1,-3.875 -0.241,-9.278 0.375,-15 0.70801,-6.583 1.16699,-10.708 2.20801,-13.583 0.539,-1.487 1.16699,-3 1.16699,-3 0,0 5.75,6.417 6.5,7.667 0,0 -1.5,2.042 -2.25,6.042 -0.75,4 -0.875,10.25 -0.25,13.625 0.625,3.375 1.33301,6.333 4,12.625 1.22299,2.886002 7.125,11.375 9.5,13.75 2.375,2.375 5.125,5 5.875,5.75 0.75,0.75 -6.375,-1 -10.5,-2 -4.125,-1 -4.75,-1.5 -4.75,-1.5 z"
       id="path310"
       inkscape:connector-curvature="0"
       style="opacity:0.70999995;fill:#3e627f" />
    <path
       d="m 428.375,95.5 c 0,0 -5.625,-0.25 -10.375,-1.125 -4.75,-0.875 -13.125,-3.25 -15,-3.75 -1.875,-0.5 -10.375,-2.375 -13.625,-2.625 -3.25,-0.25 10.5,0 14,0.125 3.5,0.125 7,1.5 9.75,2 2.75,0.5 3.875,-0.5 4.375,-1.25 0.5,-0.75 -0.25,-3.875 -1,-6.5 -0.75,-2.625 -2.48199,-9.18 -3.25,-12.25 -0.25,-1 1.875,3.625 2.125,4.875 0.25,1.25 4.125,9.125 5.5,11.25 1.375,2.125 4,5.75 4.625,6.5 0.625,0.75 2.875,2.75 2.875,2.75 z"
       id="path312"
       inkscape:connector-curvature="0"
       style="opacity:0.5;fill:#c0dbe7" />
    <path
       d="m 572.5,233.25 c -7.5,-3.25 -8.75,-6 -18.25,-9 -9.5,-3 -16.25,-2.75 -25.25,-2.75 -9,0 -10.25,-0.75 -10.25,-0.75 0,0 8,6.5 15,10.25 7,3.75 19.5,10.25 22.25,11.5 2.75,1.25 16,8.25 16,8.25"
       id="path314"
       inkscape:connector-curvature="0"
       style="fill:none" />
    <path
       d="m 177,102.5 c 1.75,-1.25 7,-6.25 7,-6.25 0,0 4.75,3.25 11.5,4.75 6.75,1.5 14,1.5 14,1.5 0,0 -5.25,3.25 -10.5,3.25 -5.25,0 -14,-1 -15.5,-1.5 -1.5,-0.5 -7.25,-2 -7.25,-2"
       id="path316"
       inkscape:connector-curvature="0"
       style="fill:#c0dbe7" />
    <path
       d="m 429.5,198.5 c -2,-4.25 -3.75,-34.5 -1.875,-41.25 C 429.5,150.5 431,145 438,141 c 7,-4 14,-4.5 24.5,-5 10.5,-0.5 24.5,0 30.5,1.5 6,1.5 19.75,7.25 25.25,11 4.09003,2.789 7.25,5.5 11.75,10.5 4.5,5 8.5,9.5 8.5,12.5 0,3 0,7.5 -7.5,5.5 -7.5,-2 -12.5,-3.5 -21.5,-5 -9,-1.5 -13.5,-3 -17.5,-2.5 -4,0.5 -7.75,2.75 -9,8.5 -1.25,5.75 2,10 4,14.5 2,4.5 2.5,4 4,7 1.5,3 1.5,4.5 0,7 -1.5,2.5 -0.5,4 -9.5,3.5 -9,-0.5 -14.5,-3 -16,-2.5 -1.5,0.5 -7.5,-2 -10.5,0.5 -3,2.5 -1.5,5 0,6.5 1.5,1.5 -12.83402,-4.334 -18,-7 -5.16598,-2.666 -5.5,-6.5 -5.5,-6.5 0,0 0,1.75 -2,-2.5 z"
       id="path318"
       inkscape:connector-curvature="0"
       style="fill:#3e627f" />
    <path
       d="m 467,219 c -12.017,-12.81599 -1.25201,-42.133 0.92899,-57.392 -10.88099,13.99899 -13.37198,42.59 -7.09497,51.55901 C 463.16699,216.5 466.98999,218.985 467,219"
       id="path320"
       inkscape:connector-curvature="0"
       style="fill:#673366" />
    <path
       d="M 450.66699,210 C 449.33298,207.66701 447,198.334 448.5,190.834 c 5.54999,-27.74699 14.31699,-31.213 13.33398,-30.834 -2.16699,0.834 -11.001,10.666 -13.16699,15.33299 C 446.50101,179.99999 445,189.151 445,197 c 0,6.16701 5.66699,13 5.66699,13 z"
       id="path322"
       inkscape:connector-curvature="0"
       style="fill:#673366" />
    <path
       d="m 446,157.33299 c -3,3.333 -9.66699,16 -10.5,21.333 -0.40601,2.60099 -1.10901,10.832 -0.83301,18 0.16702,4.333 2.66702,8.333 2.66702,8.333 0,0 -0.16702,-1.832 -0.16702,-7.666 0,-10.51201 1.66702,-19.167 5.16703,-28.167 3.5,-9 6.66598,-14.5 6.66598,-14.5 0,0 0,-0.66599 -3,2.667 z"
       id="path324"
       inkscape:connector-curvature="0"
       style="fill:#673366" />
    <path
       d="m 431.04901,199 c -2.31698,-12.067 -2.60699,-27.15199 -0.29001,-33.487 2.31702,-6.336 7.241,-14.179 7.241,-14.179 0,0 -3.18698,8.748 -4.05499,12.67 -0.86899,3.923 -1.737,7.24 -2.02701,11.766 -0.29001,4.526 -0.86899,23.23 -0.86899,23.23 z"
       id="path326"
       inkscape:connector-curvature="0"
       style="fill:#673366" />
    <path
       d="m 311,168.75 c -0.642,2.854 -11.427,3.987 -14.08301,4.25 -4.73498,0.46699 -12.04498,1.16701 -16.62601,-0.83701 0.64203,-4.05699 5.96003,-5.83 6.53901,-9.66999 0.54,-3.577 -2.87299,-7.348 -5.92698,-9.01101 4.20499,-1.61898 12.806,1.32401 16.16599,3.94301 2.71399,2.11499 4.66199,5.066 7.16901,7.39299 2.45098,2.276 3.72699,2.55301 6.76199,3.93201 z"
       id="path328"
       inkscape:connector-curvature="0"
       style="fill:url(#SVGID_17_)" />
    <path
       d="m 571.00098,194.66701 c -4.76203,-2.93801 -14.83301,-8.43399 -20,-10.334 -5.28601,-1.942 -8.00098,-3.5 -15.00098,-5.833 -5.17401,-1.725 -11.56305,-2.794 -16.75,-4.5 -2.51904,-0.828 -5.94,-1.52101 -8.50003,-2.25 -2.19199,-0.623 -6.60898,-0.977 -7.75,0.25 3.80801,1.773 8.04602,3.031 9.70804,3.838 3.16296,1.535 15.82696,7.60401 18.95398,9.25 3.21801,1.69499 6.25897,3.38699 9.33801,5.375 3.11798,2.015 6.06,4.743 8.67096,7.413 1.16003,1.186 2.63605,5.736 2.67004,6.453 0.0699,1.475 -0.073,1.13901 0.706,2.28799 0.86798,1.28 2.20495,2.47 3.61999,3.22 4.08301,2.16301 2.73102,-0.56799 1.79999,-2.53999 -1.32001,-2.795 -2.30499,-6.22301 -0.32001,-9.129 1.79804,-2.63501 5.172,-3.13101 8.021,-4.168"
       id="path330"
       inkscape:connector-curvature="0"
       style="opacity:0.66000001;fill:#1c4866" />
    <path
       d="m 570.66699,197.334 c -6.75,-1.75 -8.98999,3.661 -9.5,5.625 -1.18799,4.571 2,8.5 7.375,9.25 -5.125,9.625 -15.42102,-3.982 -15.76098,-5.535 2.16699,1.499 4.14898,4.04001 7.04199,3.96501 -1.73401,-4.27901 -5.80298,-7.68901 -3.125,-12.86101 2.781,-5.373 9.46899,-5.819 13.96899,-0.444"
       id="path332"
       inkscape:connector-curvature="0"
       style="fill:#183c51" />
    <ellipse
       ry="8.9379997"
       rx="8.8660002"
       cy="203.687"
       cx="566.13397"
       id="ellipse334"
       style="fill:#ffffff" />
    <circle
       r="6.2579999"
       cy="204.49899"
       cx="568.16803"
       id="circle336" />
    <path
       d="m 573.16699,222.25 c -2.32397,-1.54201 11.25,2 17.305,2.27499 1.61102,0.073 5.18402,0.252 6.77801,0.47501 3.61798,0.504 4.99896,2.164 8.47296,3.5 7.00202,2.69299 12.77905,5.41701 20.487,3.718 -4.03595,-2.16099 -7.81897,-4.673 -11.98797,-6.718 -4.146,-2.034 -8.61103,-4.742 -12.31202,-7.55 -4.18396,-3.174 -7.849,-6.61901 -12.25,-9.50499 -1.95099,-1.27901 -3.75897,-2.21302 -5.979,-2.93801 -1.65698,-0.541 -4.65497,-0.878 -5.474,-2.412 5.02801,-0.564 11.64203,1.83299 16.224,3.661 5.70404,2.276 11.37103,3.16999 16.98602,5.744 6.36603,2.919 10.54499,4.647 16.25,8.5 5.48297,3.70199 9,11 17.02997,14.975 -1.08899,3.437 -10.00299,4.157 -13.19696,4.025 -4.659,-0.191 -10.42804,-0.135 -15.02704,-1.068 -5.31598,-1.08 -10.625,-3.15 -15.80597,-4.932 -8,-2.75 -20.5,-8.5 -27.5,-11.75"
       id="path338"
       inkscape:connector-curvature="0"
       style="opacity:0.66000001;fill:#1c4866" />
    <polygon
       points="567.121,204.216 559.977,201.212 559.502,206.091 "
       id="polygon340"
       style="fill:#ffffff" />
    <path
       d="m 590.75,226.25 c -0.32398,-4.73399 5.849,-3.088 6.95398,0.287 -2.49597,-3.11799 -6.56097,0.099 -4.37201,3.056 -1.73895,-1.017 -2.65796,-2.606 -3.58197,-4.343"
       id="path342"
       inkscape:connector-curvature="0"
       style="fill:#1e3f51" />
    <path
       d="m 179.25,96 c -18.5,-22.25 -49.5,-62 -55.5,-69 -6,-7 -15,-12.75 -15,-12.75 l -5,-4.75 c 0,0 27.5,33.5 31.5,41.5 4,8 12.75,25 14.25,31.5 1.5,6.5 0,18 -1,25 -1,7 -3.5,12.75 -7,20.25 -3.5,7.5 -18.75,33 -18.75,33 L 118,173.5 c 0,0 17,-15 24.25,-23.25 7.25,-8.25 21.5,-20.5 25.25,-25.25 3.75,-4.75 8.75,-12.25 8.75,-12.25 l -14,-4.5 c 0,0 -3.75,-2 -4.25,-3.25 -0.5,-1.25 5.75,-2.25 8.25,-3 2.5,-0.75 6,-0.25 8.5,-1.75 2.5,-1.5 4.5,-4.25 4.5,-4.25 z"
       id="path344"
       inkscape:connector-curvature="0"
       style="fill:#295f84" />
    <path
       d="m 133.25,129.75 c 4,-17 5.25,-30.75 4.25,-35.25 -1,-4.5 -5,-24.5 -5,-24.5 0,0 6.5,15.25 8,23.25 1.5,8 1.5,16.75 -0.75,22.25 -2.25,5.5 -6.5,14.25 -6.5,14.25 z"
       id="path346"
       inkscape:connector-curvature="0"
       style="fill:#80b1d3" />
    <path
       d="m 106.75,11.25 c 7,4.75 17,13.25 17,13.25 L 111.5,18 l -5,-7.5"
       id="path348"
       inkscape:connector-curvature="0"
       style="fill:#80b1d3" />
  </g>
</svg>
