<?xml version="1.0" encoding="UTF-8" standalone="no"?>
<!-- Created with Inkscape (http://www.inkscape.org/) -->
<svg xmlns:dc="http://purl.org/dc/elements/1.1/" xmlns:cc="http://creativecommons.org/ns#" xmlns:rdf="http://www.w3.org/1999/02/22-rdf-syntax-ns#" xmlns:svg="http://www.w3.org/2000/svg" xmlns="http://www.w3.org/2000/svg" xmlns:sodipodi="http://sodipodi.sourceforge.net/DTD/sodipodi-0.dtd" xmlns:inkscape="http://www.inkscape.org/namespaces/inkscape" id="svg23595" version="1.1" inkscape:version="0.48.1 " width="285" height="203.75" xml:space="preserve" sodipodi:docname="Skunk_3.pdf"><metadata id="metadata23601"><rdf:RDF><cc:Work rdf:about=""><dc:format>image/svg+xml</dc:format><dc:type rdf:resource="http://purl.org/dc/dcmitype/StillImage"/><dc:title/></cc:Work></rdf:RDF></metadata><defs id="defs23599"/><sodipodi:namedview pagecolor="#ffffff" bordercolor="#666666" borderopacity="1" objecttolerance="10" gridtolerance="10" guidetolerance="10" inkscape:pageopacity="0" inkscape:pageshadow="2" inkscape:window-width="640" inkscape:window-height="480" id="namedview23597" showgrid="false" inkscape:zoom="1.4282209" inkscape:cx="142.5" inkscape:cy="101.875" inkscape:window-x="340" inkscape:window-y="87" inkscape:window-maximized="0" inkscape:current-layer="g23603"/><g id="g23603" inkscape:groupmode="layer" inkscape:label="Skunk_3" transform="matrix(1.25,0,0,-1.25,0,203.75)"><g id="g23605" transform="scale(0.24,0.24)"><path d="m 426.668,56.043 c -15.625,-1.043 -37.5,-5.418 -49.793,5.832 -11.457,10.207 2.293,59.375 -19.375,90.832 -2.5,-6.457 -7.707,-11.457 -14.168,-13.75 17.086,25.836 -28.125,100.625 4.375,112.086 C 323.75,246.457 303.332,230 293.543,207.5 c -12.086,47.082 11.875,95.832 55.832,115.418 -20,8.125 -42.707,-1.25 -51.25,-21.043 0,43.332 43.75,58.75 55.832,57.293 -11.875,10 -34.582,-1.461 -51.25,3.957 -5.832,1.668 -14.375,2.082 -19.789,-0.832 -2.086,-1.461 -3.75,-2.918 -5.625,-4.586 -4.168,-42.5 -42.293,-97.914 21.25,-170.207 -7.711,-1.668 -16.043,-0.418 -22.918,3.75 12.707,-31.25 3.543,-53.957 5.832,-90 -10.414,31.668 -77.914,8.75 -83.332,67.5 0.625,-9.375 -2.082,-18.543 -8.125,-25.832 0.207,22.5 -10.832,44.789 -23.332,62.914 4.582,-21.25 0.414,-43.539 -11.461,-61.664 27.293,151.25 -143.539,175.207 -40.625,324.164 -19.375,3.336 -30.207,-28.539 -50.207,-32.5 19.582,14.586 16.875,54.586 42.918,61.668 15,3.957 26.875,39.582 64.582,56.668 -25.207,-11.461 -51.25,-22.293 -80.625,-2.918 74.375,5.418 69.793,62.707 143.332,61.668 53.75,-0.625 116.25,41.664 127.5,-42.293 6.25,30.418 15.418,63.957 -16.039,84.168 33.539,0.207 52.5,-33.75 66.875,-59.586 -5,24.168 -4.793,48.961 1.25,72.711 0,-104.793 118.75,-83.75 51.25,-187.5 18.332,15.207 33.75,33.75 45.207,55 -14.793,-29.168 15,-40 -18.75,-88.336 25.832,13.75 41.875,37.293 41.668,67.086 -0.418,31.039 16.039,23.125 16.039,47.914 13.543,-35 -4.375,-50.832 5,-71.457 2.711,-6.043 7.293,-27.707 4.586,-33.75 11.664,7.918 21.039,18.75 27.5,31.457 3.539,-11.875 2.082,-24.789 -4.168,-35.414 15.832,13.539 34.375,-2.918 51.457,-0.625 15.625,2.914 12.711,-5 30.418,-6.875 17.918,-1.668 7.918,-6.25 20,-9.168 12.918,-3.125 16.875,-25.418 31.25,-36.043 14.168,-10.207 12.293,-18.539 14.793,-19.375 0.207,1.043 0.207,2.293 0.207,3.336 3.125,-10 7.293,-0.418 7.293,-22.711 l 1.875,1.668 c -2.5,-8.332 0.414,-12.082 3.75,-18.332 l -1.25,9.375 c 6.875,-7.918 16.25,-13.125 26.664,-14.793 -2.707,15 -13.539,27.082 -28.125,31.25 31.25,1.668 28.961,-6.457 50.836,-26.043 -0.836,10.625 -5.836,20.211 -13.75,27.086 12.289,-3.336 23.75,-8.961 33.957,-16.668 3.75,11.875 0,25 -9.582,33.125 20.832,-7.707 33.957,-27.918 33.125,-49.793 10.414,4.168 21.664,5.418 32.707,3.125 -10.625,-2.289 -20.418,-7.914 -28.125,-15.832 17.5,2.5 33.332,9.168 45,-5.418 -9.793,3.543 -18.75,-1.457 -27.918,-4.789 8.75,1.039 17.5,-1.668 24.375,-7.293 8.543,2.5 15.836,6.25 16.25,15.832 7.5,-58.332 -23.332,-54.375 -25.832,-60 3.957,-3.957 10.418,-3.332 13.75,1.043 -3.957,-6.875 -10,-12.082 -17.5,-14.793 4.168,-3.125 9.793,-3.125 13.75,0 -6.668,-8.125 -16.043,-13.125 -26.457,-14.375 4.789,-4.164 12.082,-4.582 17.5,-1.039 -6.461,-3.125 -12.086,-8.961 -18.961,-11.875 -7.289,-10 -14.164,-20.836 -23.125,-29.375 30.418,-35.211 9.375,-63.961 66.668,-71.043 11.875,-1.668 18.125,-5.832 23.957,-5.832 7.5,0 13.75,-5 18.336,-10.211 -3.961,1.043 -8.125,2.086 -12.086,2.711 2.711,-2.918 5,-6.043 7.293,-9.168 -3.75,0.832 -7.707,1.668 -11.668,2.293 2.5,-2.5 4.168,-6.043 4.375,-9.586 -4.582,3.336 -14.164,2.918 -15.414,5 2.082,-3.125 3.75,-6.664 5,-10.207 -9.586,8.543 -14.375,5.207 -43.336,10.207 -30,5.211 -61.457,-4.375 -83.957,18.961 -21.457,22.289 -58.957,16.457 -75.625,26.664 1.25,-3.75 0,-7.707 -2.707,-11.664 41.457,-45 11.039,-56.043 51.039,-67.086 23.543,-6.457 21.461,-15 34.168,-33.125 -3.543,3.543 -8.125,6.043 -13.125,7.086 1.668,-2.5 2.5,-6.668 6.875,-11.043 -5.625,2.082 -11.25,3.332 -17.293,3.957 2.918,-3.957 4.375,-8.539 4.793,-13.125 L 764.168,27.707 765,19.375 c -9.793,9.793 -12.082,1.457 -25.832,13.75 -19.793,17.707 -27.918,-4.582 -53.75,31.043 -13.336,18.125 -106.25,45.625 -102.293,119.375 -2.293,-41.043 -40.418,-76.461 -39.375,-89.793 -7.293,-1.043 -14.375,-2.707 -21.25,-5.207 3.125,-0.211 5.832,-2.086 7.5,-4.586 -10.418,-1.664 -20,-6.875 -27.293,-14.789 19.168,-16.875 37.918,-1.875 54.793,-13.75 10.418,-7.293 12.082,0.414 23.332,-7.293 8.125,-5.832 15.418,0.207 23.543,-13.332 -5.625,3.332 -12.707,3.125 -18.125,-0.211 2.707,-2.707 5.418,-5.832 7.707,-8.957 -30,9.375 -50.832,-16.04297 -101.664,-1.043 -20,5.836 -66.25,-1.25 -65.625,31.461" style="fill:#696767;fill-opacity:1;fill-rule:nonzero;stroke:none" id="path23607"/><path d="m 426.668,56.043 c -15.625,-1.043 -37.5,-5.418 -49.793,5.832 -11.457,10.207 2.293,59.375 -19.375,90.832 -2.5,-6.457 -7.707,-11.457 -14.168,-13.75 17.086,25.836 -28.125,100.625 4.375,112.086 C 323.75,246.457 303.332,230 293.543,207.5 c -12.086,47.082 11.875,95.832 55.832,115.418 -20,8.125 -42.707,-1.25 -51.25,-21.043 0,43.332 43.75,58.75 55.832,57.293 -11.875,10 -34.582,-1.461 -51.25,3.957 -5.832,1.668 -14.375,2.082 -19.789,-0.832 -2.086,-1.461 -3.75,-2.918 -5.625,-4.586 -4.168,-42.5 -42.293,-97.914 21.25,-170.207 -7.711,-1.668 -16.043,-0.418 -22.918,3.75 12.707,-31.25 3.543,-53.957 5.832,-90 -10.414,31.668 -77.914,8.75 -83.332,67.5 0.625,-9.375 -2.082,-18.543 -8.125,-25.832 0.207,22.5 -10.832,44.789 -23.332,62.914 4.582,-21.25 0.414,-43.539 -11.461,-61.664 27.293,151.25 -143.539,175.207 -40.625,324.164 -19.375,3.336 -30.207,-28.539 -50.207,-32.5 19.582,14.586 16.875,54.586 42.918,61.668 15,3.957 26.875,39.582 64.582,56.668 -25.207,-11.461 -51.25,-22.293 -80.625,-2.918 74.375,5.418 69.793,62.707 143.332,61.668 53.75,-0.625 116.25,41.664 127.5,-42.293 6.25,30.418 15.418,63.957 -16.039,84.168 33.539,0.207 52.5,-33.75 66.875,-59.586 -5,24.168 -4.793,48.961 1.25,72.711 0,-104.793 118.75,-83.75 51.25,-187.5 18.332,15.207 33.75,33.75 45.207,55 -14.793,-29.168 15,-40 -18.75,-88.336 25.832,13.75 41.875,37.293 41.668,67.086 -0.418,31.039 16.039,23.125 16.039,47.914 13.543,-35 -4.375,-50.832 5,-71.457 2.711,-6.043 7.293,-27.707 4.586,-33.75 11.664,7.918 21.039,18.75 27.5,31.457 3.539,-11.875 2.082,-24.789 -4.168,-35.414 15.832,13.539 34.375,-2.918 51.457,-0.625 15.625,2.914 12.711,-5 30.418,-6.875 17.918,-1.668 7.918,-6.25 20,-9.168 12.918,-3.125 16.875,-25.418 31.25,-36.043 14.168,-10.207 12.293,-18.539 14.793,-19.375 0.207,1.043 0.207,2.293 0.207,3.336 3.125,-10 7.293,-0.418 7.293,-22.711 l 1.875,1.668 c -2.5,-8.332 0.414,-12.082 3.75,-18.332 l -1.25,9.375 c 6.875,-7.918 16.25,-13.125 26.664,-14.793 -2.707,15 -13.539,27.082 -28.125,31.25 31.25,1.668 28.961,-6.457 50.836,-26.043 -0.836,10.625 -5.836,20.211 -13.75,27.086 12.289,-3.336 23.75,-8.961 33.957,-16.668 3.75,11.875 0,25 -9.582,33.125 20.832,-7.707 33.957,-27.918 33.125,-49.793 10.414,4.168 21.664,5.418 32.707,3.125 -10.625,-2.289 -20.418,-7.914 -28.125,-15.832 17.5,2.5 33.332,9.168 45,-5.418 -9.793,3.543 -18.75,-1.457 -27.918,-4.789 8.75,1.039 17.5,-1.668 24.375,-7.293 8.543,2.5 15.836,6.25 16.25,15.832 7.5,-58.332 -23.332,-54.375 -25.832,-60 3.957,-3.957 10.418,-3.332 13.75,1.043 -3.957,-6.875 -10,-12.082 -17.5,-14.793 4.168,-3.125 9.793,-3.125 13.75,0 -6.668,-8.125 -16.043,-13.125 -26.457,-14.375 4.789,-4.164 12.082,-4.582 17.5,-1.039 -6.461,-3.125 -12.086,-8.961 -18.961,-11.875 -7.289,-10 -14.164,-20.836 -23.125,-29.375 30.418,-35.211 9.375,-63.961 66.668,-71.043 11.875,-1.668 18.125,-5.832 23.957,-5.832 7.5,0 13.75,-5 18.336,-10.211 -3.961,1.043 -8.125,2.086 -12.086,2.711 2.711,-2.918 5,-6.043 7.293,-9.168 -3.75,0.832 -7.707,1.668 -11.668,2.293 2.5,-2.5 4.168,-6.043 4.375,-9.586 -4.582,3.336 -14.164,2.918 -15.414,5 2.082,-3.125 3.75,-6.664 5,-10.207 -9.586,8.543 -14.375,5.207 -43.336,10.207 -30,5.211 -61.457,-4.375 -83.957,18.961 -21.457,22.289 -58.957,16.457 -75.625,26.664 1.25,-3.75 0,-7.707 -2.707,-11.664 41.457,-45 11.039,-56.043 51.039,-67.086 23.543,-6.457 21.461,-15 34.168,-33.125 -3.543,3.543 -8.125,6.043 -13.125,7.086 1.668,-2.5 2.5,-6.668 6.875,-11.043 -5.625,2.082 -11.25,3.332 -17.293,3.957 2.918,-3.957 4.375,-8.539 4.793,-13.125 L 764.168,27.707 765,19.375 c -9.793,9.793 -12.082,1.457 -25.832,13.75 -19.793,17.707 -27.918,-4.582 -53.75,31.043 -13.336,18.125 -106.25,45.625 -102.293,119.375 -2.293,-41.043 -40.418,-76.461 -39.375,-89.793 -7.293,-1.043 -14.375,-2.707 -21.25,-5.207 3.125,-0.211 5.832,-2.086 7.5,-4.586 -10.418,-1.664 -20,-6.875 -27.293,-14.789 19.168,-16.875 37.918,-1.875 54.793,-13.75 10.418,-7.293 12.082,0.414 23.332,-7.293 8.125,-5.832 15.418,0.207 23.543,-13.332 -5.625,3.332 -12.707,3.125 -18.125,-0.211 2.707,-2.707 5.418,-5.832 7.707,-8.957 -30,9.375 -50.832,-16.04297 -101.664,-1.043 -20,5.836 -66.25,-1.25 -65.625,31.461 z" style="fill:none;stroke:#231f20;stroke-opacity:1;stroke-width:1.04167;stroke-linecap:butt;stroke-linejoin:miter;stroke-miterlimit:4;stroke-dasharray:none" id="path23609"/><path d="m 426.668,56.043 c 1.039,63.75 -46.043,82.5 -48.125,117.082 C 380,166.668 378.332,160 374.168,155 c 0.414,23.125 -26.043,43.543 -11.043,66.875" style="fill:none;stroke:#231f20;stroke-opacity:1;stroke-width:1.04167;stroke-linecap:butt;stroke-linejoin:miter;stroke-miterlimit:4;stroke-dasharray:none" id="path23611"/><path d="m 307.293,408.957 c -3.961,-27.5 -13.961,-37.914 -24.375,-46.664" style="fill:none;stroke:#231f20;stroke-opacity:1;stroke-width:1.04167;stroke-linecap:butt;stroke-linejoin:miter;stroke-miterlimit:4;stroke-dasharray:none" id="path23613"/><path d="M 277.293,357.707 C 270,351.668 262.707,345 257.5,332.918" style="fill:none;stroke:#231f20;stroke-opacity:1;stroke-width:1.04167;stroke-linecap:butt;stroke-linejoin:miter;stroke-miterlimit:4;stroke-dasharray:none" id="path23615"/><path d="m 269.375,203.543 c 2.5,-4.375 4.582,-8.336 6.25,-12.293" style="fill:none;stroke:#231f20;stroke-opacity:1;stroke-width:1.04167;stroke-linecap:butt;stroke-linejoin:miter;stroke-miterlimit:4;stroke-dasharray:none" id="path23617"/><path d="m 198.125,168.75 c -3.543,37.5 -128.75,236.875 -25.832,301.25 11.25,82.5 142.289,107.082 190.832,52.082 37.918,6.25 79.582,-21.457 61.875,-63.539 18.75,-8.961 33.957,-24.168 43.332,-42.918 25,12.707 75,-2.082 105.625,5.832 29.793,7.5 53.75,-3.75 66.461,0.625 46.039,15.418 51.457,-39.582 83.539,-52.707" style="fill:none;stroke:#231f20;stroke-opacity:1;stroke-width:1.04167;stroke-linecap:butt;stroke-linejoin:miter;stroke-miterlimit:4;stroke-dasharray:none" id="path23619"/><path d="m 675.625,307.5 c -16.875,-33.543 -63.957,-33.332 -80,-67.918 7.082,3.336 14.793,4.586 22.293,4.168 -23.75,-1.457 -33.75,-41.875 -34.793,-60.207 0.832,16.664 -1.457,33.75 -2.293,50.207" style="fill:none;stroke:#231f20;stroke-opacity:1;stroke-width:1.04167;stroke-linecap:butt;stroke-linejoin:miter;stroke-miterlimit:4;stroke-dasharray:none" id="path23621"/><path d="m 830.832,193.543 c -17.289,-16.668 -34.375,-22.5 -48.957,-41.461 -4.582,-6.25 -14.168,-10 -22.293,-9.789 -1.039,-1.875 -10.625,-0.418 -10.414,2.289 -5.836,2.711 -10,8.543 -13.75,16.461 -11.043,23.957 -27.086,48.539 -29.375,75.207" style="fill:none;stroke:#231f20;stroke-opacity:1;stroke-width:1.04167;stroke-linecap:butt;stroke-linejoin:miter;stroke-miterlimit:4;stroke-dasharray:none" id="path23623"/><path d="m 711.043,232.082 c -8.543,5.625 -13.961,15.211 -14.375,25.418 3.125,-3.332 6.664,-6.043 10.625,-7.918 -2.918,9.586 -6.875,18.75 -11.668,27.5 2.5,-4.582 8.125,-6.875 13.332,-5.207 -7.914,7.293 -12.082,17.707 -11.664,28.125 1.875,-4.793 5.414,-8.957 10,-11.668 -3.125,9.586 -4.375,19.793 -3.125,29.793 0.625,-5.832 3.332,-11.25 7.914,-15 l 1.461,14.375" style="fill:none;stroke:#231f20;stroke-opacity:1;stroke-width:1.04167;stroke-linecap:butt;stroke-linejoin:miter;stroke-miterlimit:4;stroke-dasharray:none" id="path23625"/><path d="m 716.875,335.832 c 1.457,11.875 3.957,22.5 7.082,33.543 l 1.461,4.582 c 1.039,-3.75 1.664,-7.914 1.664,-11.875 2.086,6.043 3.125,12.293 3.336,18.75" style="fill:none;stroke:#231f20;stroke-opacity:1;stroke-width:1.04167;stroke-linecap:butt;stroke-linejoin:miter;stroke-miterlimit:4;stroke-dasharray:none" id="path23627"/><path d="m 735.832,352.293 c -1.039,-6.25 10.211,-21.25 6.25,-32.293 l -2.5,3.75 -1.664,-4.793 -1.461,5.836 -2.707,-7.918 -0.625,5.832 c -3.332,-6.25 -6.25,-12.5 -7.293,-19.582 -18.957,30.625 8.961,42.918 10,49.168" style="fill:none;stroke:#231f20;stroke-opacity:1;stroke-width:1.04167;stroke-linecap:butt;stroke-linejoin:miter;stroke-miterlimit:4;stroke-dasharray:none" id="path23629"/><path d="m 737.918,361.457 c -8.543,-7.5 -16.461,-16.25 -21.043,-25.625 -2.918,-5.832 -4.168,-12.082 -3.332,-18.332 1.25,-7.918 6.039,-16.043 15.832,-24.168 -0.418,4.168 0.418,8.336 2.707,11.875 l 1.043,-1.457 c 0.832,5.418 3.332,10.207 7.082,14.168 0.836,-3.961 2.086,-8.125 3.543,-12.086 7.293,10.625 6.25,12.711 5.418,20 -0.836,9.168 -3.336,14.586 -5.625,18.961" style="fill:none;stroke:#231f20;stroke-opacity:1;stroke-width:1.04167;stroke-linecap:butt;stroke-linejoin:miter;stroke-miterlimit:4;stroke-dasharray:none" id="path23631"/><path d="m 749.168,325.832 13.332,-2.289 c -10,-7.293 -17.918,-16.875 -23.332,-27.711 2.707,4.375 6.875,7.5 11.664,9.168 -3.957,-7.918 -6.664,-16.457 -8.125,-25.207 11.25,12.914 24.375,23.75 38.961,32.082 -6.25,-7.293 -9.375,-16.668 -9.168,-26.043 3.957,6.25 9.168,11.875 15,16.461 -0.625,-5.211 0.625,-10.211 3.75,-14.375 1.457,8.957 7.082,16.457 15.418,20.625 -4.168,-9.168 -4.375,-19.793 -0.625,-29.168 -0.625,9.582 5.207,18.543 14.375,21.668 -4.793,-18.961 -4.586,-23.336 -0.211,-26.043 0.625,7.707 4.168,14.582 10.211,19.375 -0.211,-12.707 5.832,-24.793 16.457,-31.875 -4.582,9.375 -5,20.418 -0.418,30.207 4.168,-7.5 10,-13.75 17.086,-18.539" style="fill:none;stroke:#231f20;stroke-opacity:1;stroke-width:1.04167;stroke-linecap:butt;stroke-linejoin:miter;stroke-miterlimit:4;stroke-dasharray:none" id="path23633"/><path d="m 871.875,263.957 -2.707,-5.832 c -4.793,6.875 -6.668,15.207 -5.418,23.332 -10.625,5.836 3.75,22.293 17.5,26.668" style="fill:none;stroke:#231f20;stroke-opacity:1;stroke-width:1.04167;stroke-linecap:butt;stroke-linejoin:miter;stroke-miterlimit:4;stroke-dasharray:none" id="path23635"/><path d="m 891.457,305.832 c -5,-28.75 -0.414,-20.832 -22.289,-33.332 -0.211,6.668 2.082,13.332 6.457,18.543 -4.168,-1.043 -7.918,-2.918 -11.25,-5.211 4.168,13.543 22.5,8.543 27.082,20" style="fill:none;stroke:#231f20;stroke-opacity:1;stroke-width:1.04167;stroke-linecap:butt;stroke-linejoin:miter;stroke-miterlimit:4;stroke-dasharray:none" id="path23637"/><path d="m 853.957,222.918 c -3.539,-1.461 -7.289,-2.293 -11.25,-1.461" style="fill:none;stroke:#231f20;stroke-opacity:1;stroke-width:1.04167;stroke-linecap:butt;stroke-linejoin:miter;stroke-miterlimit:4;stroke-dasharray:none" id="path23639"/><path d="m 817.082,207.707 c -3.332,-0.414 -2.082,-5.414 -9.789,-5.207 -3.961,0.207 -3.961,3.957 -9.375,3.332 4.789,1.25 3.539,7.918 11.875,7.086 5.832,-0.418 3.75,-5.211 7.289,-5.211" style="fill:none;stroke:#231f20;stroke-opacity:1;stroke-width:1.04167;stroke-linecap:butt;stroke-linejoin:miter;stroke-miterlimit:4;stroke-dasharray:none" id="path23641"/><path d="m 810.418,212.918 c 3.539,-2.086 4.164,-7.086 1.039,-9.793" style="fill:none;stroke:#231f20;stroke-opacity:1;stroke-width:1.04167;stroke-linecap:butt;stroke-linejoin:miter;stroke-miterlimit:4;stroke-dasharray:none" id="path23643"/><path d="m 804.582,203.332 c -2.289,2.293 -2.289,6.25 -0.207,8.75" style="fill:none;stroke:#231f20;stroke-opacity:1;stroke-width:1.04167;stroke-linecap:butt;stroke-linejoin:miter;stroke-miterlimit:4;stroke-dasharray:none" id="path23645"/><path d="m 793.332,200 c -11.457,-33.332 -16.457,-31.875 -18.957,-42.293 -2.707,-11.039 -10.625,-8.125 -14.793,-15.414" style="fill:none;stroke:#231f20;stroke-opacity:1;stroke-width:1.04167;stroke-linecap:butt;stroke-linejoin:miter;stroke-miterlimit:4;stroke-dasharray:none" id="path23647"/><path d="m 766.25,147.918 c 1.875,3.957 -4.375,3.539 -8.332,3.539 -4.586,0 -8.336,6.25 -10.211,2.918" style="fill:none;stroke:#231f20;stroke-opacity:1;stroke-width:1.04167;stroke-linecap:butt;stroke-linejoin:miter;stroke-miterlimit:4;stroke-dasharray:none" id="path23649"/><path d="m 749.168,144.582 c 1.25,13.75 -4.793,7.5 -5.418,17.5 -0.418,7.086 4.375,27.086 10,46.875" style="fill:none;stroke:#231f20;stroke-opacity:1;stroke-width:1.04167;stroke-linecap:butt;stroke-linejoin:miter;stroke-miterlimit:4;stroke-dasharray:none" id="path23651"/><path d="m 756.875,219.582 c -4.793,3.543 -9.793,-1.25 -14.582,3.961 -3.125,3.539 -2.086,9.582 -3.125,11.875 2.707,-1.668 8.957,2.5 12.707,-3.961 2.707,-4.375 0.832,-8.125 5,-11.875" style="fill:none;stroke:#231f20;stroke-opacity:1;stroke-width:1.04167;stroke-linecap:butt;stroke-linejoin:miter;stroke-miterlimit:4;stroke-dasharray:none" id="path23653"/><path d="m 752.918,229.375 c 1.875,-3.957 -1.043,-8.332 -5.211,-8.332" style="fill:none;stroke:#231f20;stroke-opacity:1;stroke-width:1.04167;stroke-linecap:butt;stroke-linejoin:miter;stroke-miterlimit:4;stroke-dasharray:none" id="path23655"/><path d="m 740.832,226.043 c -1.039,2.5 -0.414,5.414 1.668,7.082 1.875,1.875 4.793,2.293 7.082,1.043" style="fill:none;stroke:#231f20;stroke-opacity:1;stroke-width:1.04167;stroke-linecap:butt;stroke-linejoin:miter;stroke-miterlimit:4;stroke-dasharray:none" id="path23657"/><path d="m 770,213.332 c 5.418,26.461 9.168,20.836 11.457,45.211 2.711,29.164 34.586,12.707 23.543,-5.836 C 782.918,216.25 794.168,217.5 779.168,202.293 767.707,191.043 767.293,199.582 770,213.332" style="fill:none;stroke:#231f20;stroke-opacity:1;stroke-width:1.04167;stroke-linecap:butt;stroke-linejoin:miter;stroke-miterlimit:4;stroke-dasharray:none" id="path23659"/><path d="m 723.125,165.832 c -17.918,-20.414 4.582,-24.164 -52.5,-32.082" style="fill:none;stroke:#231f20;stroke-opacity:1;stroke-width:1.04167;stroke-linecap:butt;stroke-linejoin:miter;stroke-miterlimit:4;stroke-dasharray:none" id="path23661"/><path d="m 696.875,117.293 c 3.957,3.332 10.832,8.539 14.793,14.375" style="fill:none;stroke:#231f20;stroke-opacity:1;stroke-width:1.04167;stroke-linecap:butt;stroke-linejoin:miter;stroke-miterlimit:4;stroke-dasharray:none" id="path23663"/><path d="m 714.375,143.332 c -0.418,1.25 -1.043,2.293 -1.668,3.125" style="fill:none;stroke:#231f20;stroke-opacity:1;stroke-width:1.04167;stroke-linecap:butt;stroke-linejoin:miter;stroke-miterlimit:4;stroke-dasharray:none" id="path23665"/><path d="m 911.043,91.875 c -9.793,4.375 -5,16.043 1.25,5.832" style="fill:none;stroke:#231f20;stroke-opacity:1;stroke-width:1.04167;stroke-linecap:butt;stroke-linejoin:miter;stroke-miterlimit:4;stroke-dasharray:none" id="path23667"/><path d="m 911.25,99.168 c -1.043,5.625 9.582,5.625 11.875,3.125" style="fill:none;stroke:#231f20;stroke-opacity:1;stroke-width:1.04167;stroke-linecap:butt;stroke-linejoin:miter;stroke-miterlimit:4;stroke-dasharray:none" id="path23669"/><path d="m 920.207,103.75 c -5.625,6.043 3.125,10.418 7.5,5.418" style="fill:none;stroke:#231f20;stroke-opacity:1;stroke-width:1.04167;stroke-linecap:butt;stroke-linejoin:miter;stroke-miterlimit:4;stroke-dasharray:none" id="path23671"/><path d="m 925.625,110.832 c -1.668,4.793 3.125,4.375 5.832,2.918" style="fill:none;stroke:#231f20;stroke-opacity:1;stroke-width:1.04167;stroke-linecap:butt;stroke-linejoin:miter;stroke-miterlimit:4;stroke-dasharray:none" id="path23673"/><path d="m 789.793,42.918 c -2.711,4.789 -8.336,0.625 -6.875,-3.125" style="fill:none;stroke:#231f20;stroke-opacity:1;stroke-width:1.04167;stroke-linecap:butt;stroke-linejoin:miter;stroke-miterlimit:4;stroke-dasharray:none" id="path23675"/><path d="m 783.75,38.543 -0.832,1.25 c -7.293,10.832 -12.293,-4.168 -5.836,-8.75" style="fill:none;stroke:#231f20;stroke-opacity:1;stroke-width:1.04167;stroke-linecap:butt;stroke-linejoin:miter;stroke-miterlimit:4;stroke-dasharray:none" id="path23677"/><path d="m 773.543,31.457 c -7.086,9.793 -10.418,-2.914 -7.711,-4.789" style="fill:none;stroke:#231f20;stroke-opacity:1;stroke-width:1.04167;stroke-linecap:butt;stroke-linejoin:miter;stroke-miterlimit:4;stroke-dasharray:none" id="path23679"/><path d="m 764.168,27.707 c -0.418,3.543 -3.543,6.043 -6.668,4.793 -2.918,-1.25 -1.043,-6.457 4.168,-10.207" style="fill:none;stroke:#231f20;stroke-opacity:1;stroke-width:1.04167;stroke-linecap:butt;stroke-linejoin:miter;stroke-miterlimit:4;stroke-dasharray:none" id="path23681"/><path d="m 590,44.793 c -4.793,0.832 -6.25,-4.375 9.375,-7.918" style="fill:none;stroke:#231f20;stroke-opacity:1;stroke-width:1.04167;stroke-linecap:butt;stroke-linejoin:miter;stroke-miterlimit:4;stroke-dasharray:none" id="path23683"/><path d="m 586.25,34.582 c -6.043,5.211 -12.707,9.586 -20.207,12.293" style="fill:none;stroke:#231f20;stroke-opacity:1;stroke-width:1.04167;stroke-linecap:butt;stroke-linejoin:miter;stroke-miterlimit:4;stroke-dasharray:none" id="path23685"/><path d="m 578.543,40.625 c -5,3.125 -5.211,-10.418 11.039,-13.75" style="fill:none;stroke:#231f20;stroke-opacity:1;stroke-width:1.04167;stroke-linecap:butt;stroke-linejoin:miter;stroke-miterlimit:4;stroke-dasharray:none" id="path23687"/><path d="m 748.957,325.832 c 0.836,-7.5 1.875,-9.375 -5.414,-20 -1.461,3.961 -2.711,7.918 -3.543,12.086 -3.75,-3.961 -6.25,-8.961 -7.082,-14.375 l -1.043,1.664 c -2.293,-3.539 -3.125,-7.707 -2.707,-11.875 -9.793,8.125 -14.586,16.25 -15.836,23.961 -0.832,6.457 0.418,12.5 3.336,18.539 1.457,11.668 3.957,22.5 7.082,33.336 -32.082,13.332 -37.5,68.125 -83.543,52.707 -12.707,-4.168 -36.664,7.082 -66.457,-0.625 -30.625,-7.707 -80.625,6.875 -105.625,-5.625 -9.168,18.75 -24.582,33.75 -43.332,42.918 17.707,42.082 -23.961,69.789 -61.668,63.539 C 314.582,576.875 183.543,552.5 172.293,470 69.375,405.625 194.582,206.25 197.918,168.543 198.75,159.375 196.043,150 190,142.918 c 0.207,22.289 -10.832,44.582 -23.332,62.914 4.375,-21.457 0.414,-43.539 -11.461,-61.875 27.293,151.461 -143.332,175.418 -40.625,324.375 -19.375,3.336 -30.207,-28.539 -50.207,-32.707 19.582,14.793 16.875,54.793 42.918,61.875 15,3.957 26.875,39.582 64.375,56.668 -25.211,-11.461 -51.043,-22.293 -80.418,-2.918 74.375,5.207 69.793,62.707 143.332,61.668 53.75,-0.625 116.25,41.664 127.5,-42.293 6.043,30.418 15.211,63.957 -16.039,84.168 33.539,0.207 52.289,-33.75 66.875,-59.586 -5.211,24.168 -4.793,48.961 1.039,72.711 0,-104.793 118.75,-83.75 51.461,-187.711 18.332,15.418 33.539,33.961 45,55.211 -14.793,-29.168 15.207,-40 -18.75,-88.336 25.832,13.543 41.875,37.293 41.664,66.875 -0.207,31.25 16.043,23.336 16.043,48.125 13.75,-35 -4.375,-51.039 5.207,-71.457 2.711,-6.043 7.086,-27.707 4.375,-33.75 11.668,7.918 21.25,18.75 27.5,31.25 3.543,-11.668 2.086,-24.582 -3.957,-35.418 15.625,13.75 34.375,-2.707 51.457,-0.414 15.418,2.914 12.5,-5.211 30.211,-6.875 17.914,-1.875 8.125,-6.25 20,-9.168 12.914,-3.332 16.875,-25.625 31.25,-36.043 14.164,-10.414 12.289,-18.539 14.789,-19.375 0.211,1.043 0.211,2.293 0.211,3.336 3.125,-10 7.289,-0.625 7.289,-22.711 l 1.875,1.668 c -2.5,-8.332 0.418,-12.082 3.75,-18.543 l -1.25,9.586 c 6.875,-7.918 16.25,-13.125 26.668,-15 -2.707,15 -13.543,27.082 -28.125,31.457 31.25,1.457 28.957,-6.457 50.832,-26.043 -0.832,10.418 -5.832,20.211 -13.75,27.086 12.293,-3.336 23.75,-8.961 33.961,-16.875 3.75,12.082 0,25 -9.586,33.332 20.625,-7.918 33.961,-27.918 33.125,-50 10.418,4.375 21.668,5.418 32.711,3.332 -10.836,-2.5 -20.625,-8.125 -28.125,-16.039 17.5,2.707 33.332,9.375 45,-5.211 -9.793,3.543 -18.961,-1.664 -28.125,-4.789 8.75,1.039 17.707,-1.668 24.582,-7.5 8.332,2.707 15.832,6.457 16.25,16.039 7.5,-58.539 -23.332,-54.582 -26.043,-60.207 l -2.5,-5.832 c -3.332,4.789 -5.207,10.414 -5.625,16.039 -7.289,4.793 -13.125,11.043 -17.289,18.543 -4.375,-9.582 -4.168,-20.832 0.625,-30.207 -10.625,7.082 -16.875,19.164 -16.461,31.875 C 824.168,289.582 820.418,282.5 820,275 c -4.375,2.707 -4.582,6.875 0,26.043 -8.957,-3.336 -14.793,-12.086 -14.168,-21.668 -3.75,9.375 -3.539,19.793 0.418,29.168 -8.125,-4.168 -13.543,-11.875 -15.207,-20.836 -3.125,4.168 -4.375,9.168 -3.75,14.375 -5.836,-4.582 -10.836,-10.207 -15,-16.457 -0.211,9.582 2.914,18.75 9.164,26.043 -14.582,-8.336 -27.707,-18.961 -38.75,-31.875 1.25,8.539 3.961,17.082 7.918,25 -4.793,-1.668 -8.957,-4.793 -11.668,-8.961 5.418,10.625 13.336,20.211 23.336,27.5 l -13.336,2.5" style="fill:#ffffff;fill-opacity:1;fill-rule:nonzero;stroke:none" id="path23689"/><path d="m 748.957,325.832 c 0.836,-7.5 1.875,-9.375 -5.414,-20 -1.461,3.961 -2.711,7.918 -3.543,12.086 -3.75,-3.961 -6.25,-8.961 -7.082,-14.375 l -1.043,1.664 c -2.293,-3.539 -3.125,-7.707 -2.707,-11.875 -9.793,8.125 -14.586,16.25 -15.836,23.961 -0.832,6.457 0.418,12.5 3.336,18.539 1.457,11.668 3.957,22.5 7.082,33.336 -32.082,13.332 -37.5,68.125 -83.543,52.707 -12.707,-4.168 -36.664,7.082 -66.457,-0.625 -30.625,-7.707 -80.625,6.875 -105.625,-5.625 -9.168,18.75 -24.582,33.75 -43.332,42.918 17.707,42.082 -23.961,69.789 -61.668,63.539 C 314.582,576.875 183.543,552.5 172.293,470 69.375,405.625 194.582,206.25 197.918,168.543 198.75,159.375 196.043,150 190,142.918 c 0.207,22.289 -10.832,44.582 -23.332,62.914 4.375,-21.457 0.414,-43.539 -11.461,-61.875 27.293,151.461 -143.332,175.418 -40.625,324.375 -19.375,3.336 -30.207,-28.539 -50.207,-32.707 19.582,14.793 16.875,54.793 42.918,61.875 15,3.957 26.875,39.582 64.375,56.668 -25.211,-11.461 -51.043,-22.293 -80.418,-2.918 74.375,5.207 69.793,62.707 143.332,61.668 53.75,-0.625 116.25,41.664 127.5,-42.293 6.043,30.418 15.211,63.957 -16.039,84.168 33.539,0.207 52.289,-33.75 66.875,-59.586 -5.211,24.168 -4.793,48.961 1.039,72.711 0,-104.793 118.75,-83.75 51.461,-187.711 18.332,15.418 33.539,33.961 45,55.211 -14.793,-29.168 15.207,-40 -18.75,-88.336 25.832,13.543 41.875,37.293 41.664,66.875 -0.207,31.25 16.043,23.336 16.043,48.125 13.75,-35 -4.375,-51.039 5.207,-71.457 2.711,-6.043 7.086,-27.707 4.375,-33.75 11.668,7.918 21.25,18.75 27.5,31.25 3.543,-11.668 2.086,-24.582 -3.957,-35.418 15.625,13.75 34.375,-2.707 51.457,-0.414 15.418,2.914 12.5,-5.211 30.211,-6.875 17.914,-1.875 8.125,-6.25 20,-9.168 12.914,-3.332 16.875,-25.625 31.25,-36.043 14.164,-10.414 12.289,-18.539 14.789,-19.375 0.211,1.043 0.211,2.293 0.211,3.336 3.125,-10 7.289,-0.625 7.289,-22.711 l 1.875,1.668 c -2.5,-8.332 0.418,-12.082 3.75,-18.543 l -1.25,9.586 c 6.875,-7.918 16.25,-13.125 26.668,-15 -2.707,15 -13.543,27.082 -28.125,31.457 31.25,1.457 28.957,-6.457 50.832,-26.043 -0.832,10.418 -5.832,20.211 -13.75,27.086 12.293,-3.336 23.75,-8.961 33.961,-16.875 3.75,12.082 0,25 -9.586,33.332 20.625,-7.918 33.961,-27.918 33.125,-50 10.418,4.375 21.668,5.418 32.711,3.332 -10.836,-2.5 -20.625,-8.125 -28.125,-16.039 17.5,2.707 33.332,9.375 45,-5.211 -9.793,3.543 -18.961,-1.664 -28.125,-4.789 8.75,1.039 17.707,-1.668 24.582,-7.5 8.332,2.707 15.832,6.457 16.25,16.039 7.5,-58.539 -23.332,-54.582 -26.043,-60.207 l -2.5,-5.832 c -3.332,4.789 -5.207,10.414 -5.625,16.039 -7.289,4.793 -13.125,11.043 -17.289,18.543 -4.375,-9.582 -4.168,-20.832 0.625,-30.207 -10.625,7.082 -16.875,19.164 -16.461,31.875 C 824.168,289.582 820.418,282.5 820,275 c -4.375,2.707 -4.582,6.875 0,26.043 -8.957,-3.336 -14.793,-12.086 -14.168,-21.668 -3.75,9.375 -3.539,19.793 0.418,29.168 -8.125,-4.168 -13.543,-11.875 -15.207,-20.836 -3.125,4.168 -4.375,9.168 -3.75,14.375 -5.836,-4.582 -10.836,-10.207 -15,-16.457 -0.211,9.582 2.914,18.75 9.164,26.043 -14.582,-8.336 -27.707,-18.961 -38.75,-31.875 1.25,8.539 3.961,17.082 7.918,25 -4.793,-1.668 -8.957,-4.793 -11.668,-8.961 5.418,10.625 13.336,20.211 23.336,27.5 l -13.336,2.5 z" style="fill:none;stroke:#231f20;stroke-opacity:1;stroke-width:1.04167;stroke-linecap:butt;stroke-linejoin:miter;stroke-miterlimit:4;stroke-dasharray:none" id="path23691"/><path d="m 735.625,352.293 c -1.043,-6.461 10.207,-21.461 6.25,-32.293 l -2.5,3.75 -1.668,-4.793 -1.457,5.836 -2.707,-7.918 -0.625,5.832 c -3.336,-6.25 -6.25,-12.707 -7.293,-19.789 -18.957,30.832 8.957,42.914 10,49.375" style="fill:#ffffff;fill-opacity:1;fill-rule:nonzero;stroke:none" id="path23693"/><path d="m 735.625,352.293 c -1.043,-6.461 10.207,-21.461 6.25,-32.293 l -2.5,3.75 -1.668,-4.793 -1.457,5.836 -2.707,-7.918 -0.625,5.832 c -3.336,-6.25 -6.25,-12.707 -7.293,-19.789 -18.957,30.832 8.957,42.914 10,49.375 z" style="fill:none;stroke:#231f20;stroke-opacity:1;stroke-width:1.04167;stroke-linecap:butt;stroke-linejoin:miter;stroke-miterlimit:4;stroke-dasharray:none" id="path23695"/><path d="m 891.043,305.832 c -4.793,-28.957 -0.418,-21.039 -22.086,-33.539 -0.207,6.875 2.086,13.332 6.25,18.539 -3.957,-1.039 -7.707,-2.707 -11.039,-5.207 3.957,13.543 22.5,8.543 26.875,20.207" style="fill:#ffffff;fill-opacity:1;fill-rule:nonzero;stroke:none" id="path23697"/><path d="m 891.043,305.832 c -4.793,-28.957 -0.418,-21.039 -22.086,-33.539 -0.207,6.875 2.086,13.332 6.25,18.539 -3.957,-1.039 -7.707,-2.707 -11.039,-5.207 3.957,13.543 22.5,8.543 26.875,20.207 z" style="fill:none;stroke:#231f20;stroke-opacity:1;stroke-width:1.04167;stroke-linecap:butt;stroke-linejoin:miter;stroke-miterlimit:4;stroke-dasharray:none" id="path23699"/><path d="m 816.875,207.5 c -2.5,-0.207 -2.293,-3.332 -5.625,-4.375 3.125,2.707 2.5,7.707 -1.043,9.582 5,-0.625 3.125,-5.207 6.668,-5.207" style="fill:#ffffff;fill-opacity:1;fill-rule:nonzero;stroke:none" id="path23701"/><path d="m 816.875,207.5 c -2.5,-0.207 -2.293,-3.332 -5.625,-4.375 3.125,2.707 2.5,7.707 -1.043,9.582 5,-0.625 3.125,-5.207 6.668,-5.207 z" style="fill:none;stroke:#231f20;stroke-opacity:1;stroke-width:1.04167;stroke-linecap:butt;stroke-linejoin:miter;stroke-miterlimit:4;stroke-dasharray:none" id="path23703"/><path d="m 797.707,205.832 c 3.543,0.836 3.75,4.168 6.461,6.043 -2.086,-2.5 -2.086,-6.25 0.414,-8.75 -2.082,1.25 -2.914,3.125 -6.875,2.707" style="fill:#ffffff;fill-opacity:1;fill-rule:nonzero;stroke:none" id="path23705"/><path d="m 797.707,205.832 c 3.543,0.836 3.75,4.168 6.461,6.043 -2.086,-2.5 -2.086,-6.25 0.414,-8.75 -2.082,1.25 -2.914,3.125 -6.875,2.707 z" style="fill:none;stroke:#231f20;stroke-opacity:1;stroke-width:1.04167;stroke-linecap:butt;stroke-linejoin:miter;stroke-miterlimit:4;stroke-dasharray:none" id="path23707"/><path d="m 778.957,202.293 c -11.457,-11.461 -11.875,-2.918 -9.164,10.832 5.207,26.457 9.164,20.832 11.457,45.207 2.707,29.375 34.582,12.918 23.332,-5.625 -21.875,-36.457 -10.625,-35.414 -25.625,-50.414" style="fill:#ffffff;fill-opacity:1;fill-rule:nonzero;stroke:none" id="path23709"/><path d="m 778.957,202.293 c -11.457,-11.461 -11.875,-2.918 -9.164,10.832 5.207,26.457 9.164,20.832 11.457,45.207 2.707,29.375 34.582,12.918 23.332,-5.625 -21.875,-36.457 -10.625,-35.414 -25.625,-50.414 z" style="fill:none;stroke:#231f20;stroke-opacity:1;stroke-width:1.04167;stroke-linecap:butt;stroke-linejoin:miter;stroke-miterlimit:4;stroke-dasharray:none" id="path23711"/><path d="m 756.668,219.375 c -3.125,2.293 -6.25,1.25 -9.168,1.457 4.375,0 6.875,4.586 5.207,8.336 1.25,-3.543 0.418,-6.668 3.961,-9.793" style="fill:#ffffff;fill-opacity:1;fill-rule:nonzero;stroke:none" id="path23713"/><path d="m 756.668,219.375 c -3.125,2.293 -6.25,1.25 -9.168,1.457 4.375,0 6.875,4.586 5.207,8.336 1.25,-3.543 0.418,-6.668 3.961,-9.793 z" style="fill:none;stroke:#231f20;stroke-opacity:1;stroke-width:1.04167;stroke-linecap:butt;stroke-linejoin:miter;stroke-miterlimit:4;stroke-dasharray:none" id="path23715"/><path d="m 738.957,235.207 c 2.293,-1.25 6.668,1.25 10.418,-1.25 -2.293,1.25 -5.207,1.043 -7.082,-0.832 -2.086,-1.875 -2.711,-4.582 -1.668,-7.082 -1.25,3.332 -0.832,7.5 -1.668,9.164" style="fill:#ffffff;fill-opacity:1;fill-rule:nonzero;stroke:none" id="path23717"/><path d="m 738.957,235.207 c 2.293,-1.25 6.668,1.25 10.418,-1.25 -2.293,1.25 -5.207,1.043 -7.082,-0.832 -2.086,-1.875 -2.711,-4.582 -1.668,-7.082 -1.25,3.332 -0.832,7.5 -1.668,9.164 z" style="fill:none;stroke:#231f20;stroke-opacity:1;stroke-width:1.04167;stroke-linecap:butt;stroke-linejoin:miter;stroke-miterlimit:4;stroke-dasharray:none" id="path23719"/><path d="m 716.668,335.832 c 4.582,9.168 12.5,17.918 21.039,25.625" style="fill:none;stroke:#231f20;stroke-opacity:1;stroke-width:1.04167;stroke-linecap:butt;stroke-linejoin:miter;stroke-miterlimit:4;stroke-dasharray:none" id="path23721"/><path d="m 723.75,369.168 1.457,4.789 c 1.25,-3.957 1.668,-7.914 1.668,-12.082 2.082,6.25 3.125,12.5 3.332,18.957" style="fill:none;stroke:#231f20;stroke-opacity:1;stroke-width:1.04167;stroke-linecap:butt;stroke-linejoin:miter;stroke-miterlimit:4;stroke-dasharray:none" id="path23723"/><path d="m 743.332,344.582 c 2.293,-4.164 4.793,-9.789 5.625,-18.75" style="fill:none;stroke:#231f20;stroke-opacity:1;stroke-width:1.04167;stroke-linecap:butt;stroke-linejoin:miter;stroke-miterlimit:4;stroke-dasharray:none" id="path23725"/><path d="m 863.332,273.957 c -0.207,2.5 -0.207,5 0.418,7.5 -10.832,5.836 3.543,22.293 17.293,26.461" style="fill:none;stroke:#231f20;stroke-opacity:1;stroke-width:1.04167;stroke-linecap:butt;stroke-linejoin:miter;stroke-miterlimit:4;stroke-dasharray:none" id="path23727"/><path d="m 589.582,26.875 c -16.25,3.332 -15.832,16.875 -11.039,13.75 6.039,-4.168 11.25,-9.168 15.625,-15 -1.668,0.625 -3.125,1.043 -4.586,1.25" style="fill:#231f20;fill-opacity:1;fill-rule:nonzero;stroke:none" id="path23729"/><path d="m 589.582,26.875 c -16.25,3.332 -15.832,16.875 -11.039,13.75 6.039,-4.168 11.25,-9.168 15.625,-15 -1.668,0.625 -3.125,1.043 -4.586,1.25 z" style="fill:none;stroke:#231f20;stroke-opacity:1;stroke-width:1.04167;stroke-linecap:butt;stroke-linejoin:miter;stroke-miterlimit:4;stroke-dasharray:none" id="path23731"/><path d="m 604.375,34.793 c -1.457,1.039 -3.125,1.664 -5,2.082 -15.625,3.332 -13.957,8.75 -9.375,7.918 4.793,-0.836 9.375,-1.668 14.375,-10" style="fill:#231f20;fill-opacity:1;fill-rule:nonzero;stroke:none" id="path23733"/><path d="m 604.375,34.793 c -1.457,1.039 -3.125,1.664 -5,2.082 -15.625,3.332 -13.957,8.75 -9.375,7.918 4.793,-0.836 9.375,-1.668 14.375,-10 z" style="fill:none;stroke:#231f20;stroke-opacity:1;stroke-width:1.04167;stroke-linecap:butt;stroke-linejoin:miter;stroke-miterlimit:4;stroke-dasharray:none" id="path23735"/><path d="m 765,19.375 c -1.25,1.25 -2.293,2.293 -3.332,2.918 -5.211,3.75 -7.086,8.957 -4.168,10.207 3.125,1.25 6.457,-1.25 6.668,-4.793 L 765,19.375" style="fill:#231f20;fill-opacity:1;fill-rule:nonzero;stroke:none" id="path23737"/><path d="m 765,19.375 c -1.25,1.25 -2.293,2.293 -3.332,2.918 -5.211,3.75 -7.086,8.957 -4.168,10.207 3.125,1.25 6.457,-1.25 6.668,-4.793 L 765,19.375 z" style="fill:none;stroke:#231f20;stroke-opacity:1;stroke-width:1.04167;stroke-linecap:butt;stroke-linejoin:miter;stroke-miterlimit:4;stroke-dasharray:none" id="path23739"/><path d="m 765.832,26.668 c -2.707,1.875 0.625,14.582 7.711,4.789 2.707,-3.75 4.375,-8.539 4.582,-13.125 l -12.293,8.336" style="fill:#231f20;fill-opacity:1;fill-rule:nonzero;stroke:none" id="path23741"/><path d="m 765.832,26.668 c -2.707,1.875 0.625,14.582 7.711,4.789 2.707,-3.75 4.375,-8.539 4.582,-13.125 l -12.293,8.336 z" style="fill:none;stroke:#231f20;stroke-opacity:1;stroke-width:1.04167;stroke-linecap:butt;stroke-linejoin:miter;stroke-miterlimit:4;stroke-dasharray:none" id="path23743"/><path d="m 790.625,27.5 c -4.375,1.668 -8.957,2.918 -13.543,3.543 -6.457,4.582 -1.457,19.582 5.836,8.75 -1.461,3.75 4.164,7.914 6.875,3.125 1.875,-3.336 4.164,-7.086 7.082,-11.461 -3.543,3.543 -8.125,6.043 -13.125,7.086 1.668,-2.5 2.707,-6.668 6.875,-11.043" style="fill:#231f20;fill-opacity:1;fill-rule:nonzero;stroke:none" id="path23745"/><path d="m 790.625,27.5 c -4.375,1.668 -8.957,2.918 -13.543,3.543 -6.457,4.582 -1.457,19.582 5.836,8.75 -1.461,3.75 4.164,7.914 6.875,3.125 1.875,-3.336 4.164,-7.086 7.082,-11.461 -3.543,3.543 -8.125,6.043 -13.125,7.086 1.668,-2.5 2.707,-6.668 6.875,-11.043 z" style="fill:none;stroke:#231f20;stroke-opacity:1;stroke-width:1.04167;stroke-linecap:butt;stroke-linejoin:miter;stroke-miterlimit:4;stroke-dasharray:none" id="path23747"/><path d="m 912.293,97.707 c 2.082,-3.125 3.75,-6.664 5,-10.207 -2.086,1.875 -4.168,3.332 -6.25,4.375 -9.375,4.168 -5.418,14.793 0.207,7.293 -0.832,4.375 5,5.207 8.957,4.375 -4.789,5.207 1.043,9.375 5.418,7.082 -1.668,5 3.125,4.582 5.832,2.918 3.125,-1.875 5.836,-4.586 8.336,-7.293 -3.961,1.25 -8.125,2.293 -12.086,2.918 2.711,-2.918 5,-6.043 7.293,-9.168 -3.75,0.832 -7.707,1.668 -11.668,2.293 2.5,-2.711 4.168,-6.043 4.375,-9.793 -4.582,3.543 -14.164,3.125 -15.414,5.207" style="fill:#231f20;fill-opacity:1;fill-rule:nonzero;stroke:none" id="path23749"/><path d="m 912.293,97.707 c 2.082,-3.125 3.75,-6.664 5,-10.207 -2.086,1.875 -4.168,3.332 -6.25,4.375 -9.375,4.168 -5.418,14.793 0.207,7.293 -0.832,4.375 5,5.207 8.957,4.375 -4.789,5.207 1.043,9.375 5.418,7.082 -1.668,5 3.125,4.582 5.832,2.918 3.125,-1.875 5.836,-4.586 8.336,-7.293 -3.961,1.25 -8.125,2.293 -12.086,2.918 2.711,-2.918 5,-6.043 7.293,-9.168 -3.75,0.832 -7.707,1.668 -11.668,2.293 2.5,-2.711 4.168,-6.043 4.375,-9.793 -4.582,3.543 -14.164,3.125 -15.414,5.207 z" style="fill:none;stroke:#231f20;stroke-opacity:1;stroke-width:1.04167;stroke-linecap:butt;stroke-linejoin:miter;stroke-miterlimit:4;stroke-dasharray:none" id="path23751"/><path d="m 804.582,203.332 c -2.289,2.293 -2.289,6.043 -0.207,8.543 1.25,0.832 2.918,1.25 5.418,1.043 l 0.625,0 c 3.539,-2.086 4.164,-7.086 1.039,-9.793 -1.039,-0.418 -2.289,-0.625 -4.164,-0.625 -1.043,0 -1.875,0.418 -2.711,0.832" style="fill:#231f20;fill-opacity:1;fill-rule:nonzero;stroke:none" id="path23753"/><path d="m 804.582,203.332 c -2.289,2.293 -2.289,6.043 -0.207,8.543 1.25,0.832 2.918,1.25 5.418,1.043 l 0.625,0 c 3.539,-2.086 4.164,-7.086 1.039,-9.793 -1.039,-0.418 -2.289,-0.625 -4.164,-0.625 -1.043,0 -1.875,0.418 -2.711,0.832 z" style="fill:none;stroke:#231f20;stroke-opacity:1;stroke-width:1.04167;stroke-linecap:butt;stroke-linejoin:miter;stroke-miterlimit:4;stroke-dasharray:none" id="path23755"/><path d="m 740.832,226.043 c -1.039,2.5 -0.414,5.207 1.668,7.082 1.875,1.875 4.793,2.293 7.082,1.043 0.836,-0.625 1.668,-1.461 2.293,-2.711 0.418,-0.625 0.832,-1.457 1.043,-2.082 1.875,-3.957 -1.043,-8.332 -5.211,-8.543 -1.875,0.211 -3.539,0.836 -5.414,2.711 -0.625,0.832 -1.043,1.457 -1.461,2.5" style="fill:#231f20;fill-opacity:1;fill-rule:nonzero;stroke:none" id="path23757"/><path d="m 740.832,226.043 c -1.039,2.5 -0.414,5.207 1.668,7.082 1.875,1.875 4.793,2.293 7.082,1.043 0.836,-0.625 1.668,-1.461 2.293,-2.711 0.418,-0.625 0.832,-1.457 1.043,-2.082 1.875,-3.957 -1.043,-8.332 -5.211,-8.543 -1.875,0.211 -3.539,0.836 -5.414,2.711 -0.625,0.832 -1.043,1.457 -1.461,2.5 z" style="fill:none;stroke:#231f20;stroke-opacity:1;stroke-width:1.04167;stroke-linecap:butt;stroke-linejoin:miter;stroke-miterlimit:4;stroke-dasharray:none" id="path23759"/><path d="m 747.707,154.168 c 1.875,3.539 5.625,-2.918 10.211,-2.918 3.957,0 10.207,0.625 8.332,-3.332 -2.293,-1.461 -4.793,-2.711 -6.668,-5.836 -1.039,-1.875 -10.625,-0.207 -10.414,2.293 0.625,6.25 -0.211,8.543 -1.461,9.793" style="fill:#231f20;fill-opacity:1;fill-rule:nonzero;stroke:none" id="path23761"/><path d="m 747.707,154.168 c 1.875,3.539 5.625,-2.918 10.211,-2.918 3.957,0 10.207,0.625 8.332,-3.332 -2.293,-1.461 -4.793,-2.711 -6.668,-5.836 -1.039,-1.875 -10.625,-0.207 -10.414,2.293 0.625,6.25 -0.211,8.543 -1.461,9.793 z" style="fill:none;stroke:#231f20;stroke-opacity:1;stroke-width:1.04167;stroke-linecap:butt;stroke-linejoin:miter;stroke-miterlimit:4;stroke-dasharray:none" id="path23763"/><path d="m 925.625,110.625 c 0.832,-0.207 1.457,-0.832 2.082,-1.457" style="fill:none;stroke:#231f20;stroke-opacity:1;stroke-width:1.04167;stroke-linecap:butt;stroke-linejoin:miter;stroke-miterlimit:4;stroke-dasharray:none" id="path23765"/><path d="m 920.207,103.543 c 1.25,-0.211 2.293,-0.625 2.918,-1.25" style="fill:none;stroke:#231f20;stroke-opacity:1;stroke-width:1.04167;stroke-linecap:butt;stroke-linejoin:miter;stroke-miterlimit:4;stroke-dasharray:none" id="path23767"/><path d="m 911.25,99.168 c 0.418,-0.418 0.625,-0.836 1.043,-1.461" style="fill:none;stroke:#231f20;stroke-opacity:1;stroke-width:1.04167;stroke-linecap:butt;stroke-linejoin:miter;stroke-miterlimit:4;stroke-dasharray:none" id="path23769"/><path d="m 783.75,38.543 -0.832,1.25" style="fill:none;stroke:#231f20;stroke-opacity:1;stroke-width:1.04167;stroke-linecap:butt;stroke-linejoin:miter;stroke-miterlimit:4;stroke-dasharray:none" id="path23771"/></g></g></svg>