<?xml version="1.0" encoding="UTF-8" standalone="no"?>
<!-- Created with Inkscape (http://www.inkscape.org/) -->
<svg xmlns:dc="http://purl.org/dc/elements/1.1/" xmlns:cc="http://creativecommons.org/ns#" xmlns:rdf="http://www.w3.org/1999/02/22-rdf-syntax-ns#" xmlns:svg="http://www.w3.org/2000/svg" xmlns="http://www.w3.org/2000/svg" xmlns:sodipodi="http://sodipodi.sourceforge.net/DTD/sodipodi-0.dtd" xmlns:inkscape="http://www.inkscape.org/namespaces/inkscape" id="svg21717" version="1.1" inkscape:version="0.48.1 " width="212.5" height="271.25" xml:space="preserve" sodipodi:docname="Sloth_5.pdf"><metadata id="metadata21723"><rdf:RDF><cc:Work rdf:about=""><dc:format>image/svg+xml</dc:format><dc:type rdf:resource="http://purl.org/dc/dcmitype/StillImage"/><dc:title/></cc:Work></rdf:RDF></metadata><defs id="defs21721"/><sodipodi:namedview pagecolor="#ffffff" bordercolor="#666666" borderopacity="1" objecttolerance="10" gridtolerance="10" guidetolerance="10" inkscape:pageopacity="0" inkscape:pageshadow="2" inkscape:window-width="640" inkscape:window-height="480" id="namedview21719" showgrid="false" inkscape:zoom="1.0728111" inkscape:cx="106.25" inkscape:cy="135.625" inkscape:window-x="339" inkscape:window-y="103" inkscape:window-maximized="0" inkscape:current-layer="g21725"/><g id="g21725" inkscape:groupmode="layer" inkscape:label="Sloth_5" transform="matrix(1.25,0,0,-1.25,0,271.25)"><g id="g21727" transform="scale(0.24,0.24)"><path d="m 32.9336,638.383 c 0.6523,12.308 -1.0898,24.617 0,36.922 0.6523,7.625 1.9609,15.359 5.1211,22.328 8.6094,18.406 17.3281,37.25 30.0781,53.148 14.4961,17.973 31.6055,33.985 50.6762,47.16 31.386,21.676 65.062,40.082 99.5,56.637 27.027,12.961 55.144,24.18 84.132,31.695 25.067,6.536 51.223,7.516 77.051,10.239 24.305,2.722 48.606,5.445 73.02,5.988 32.801,0.871 66.039,3.16 98.625,-1.633 16.676,-2.504 32.914,-9.804 46.32,-19.715 12.75,-9.476 20.703,-24.07 30.078,-36.922 3.051,-4.136 5.774,-8.71 6.863,-13.722 3.161,-14.051 3.598,-28.645 5.997,-42.91 2.179,-13.508 4.14,-27.121 7.738,-40.301 5.555,-20.258 14.93,-39.535 19.726,-60.012 12.422,-53.039 28.77,-105.972 31.93,-160.32 5.777,-102.16 15.149,-206.719 -5.23,-307.027 C 682.461,160.25 652.707,98.7148 605.301,60.375 556.262,20.625 488.258,1.5625 425.047,2 331.215,2.76172 230.406,14.7422 150.414,63.7539 83.0625,105.141 34.5664,180.398 11.3555,255.988 c -21.6875,70.575 7.8476,147.578 11.9883,221.203 3.0507,53.805 6.9726,107.497 9.5898,161.192" style="fill:#ffffff;fill-opacity:1;fill-rule:nonzero;stroke:none" id="path21729"/><path d="m 39.3633,634.68 c 0.543,12.09 -1.0899,24.179 0,36.16 0.6523,7.406 1.8515,15.14 5.0117,21.89 8.3906,18.083 17,36.489 29.4258,52.063 14.168,17.645 31.0582,33.437 49.5862,46.289 30.843,21.238 63.863,39.207 97.648,55.438 26.371,12.742 53.945,23.632 82.387,31.039 24.633,6.425 50.242,7.406 75.527,10.129 23.758,2.613 47.625,5.335 71.492,5.882 32.258,0.762 64.84,3.047 96.774,-1.636 16.238,-2.504 32.148,-9.582 45.336,-19.387 12.531,-9.254 20.269,-23.524 29.426,-36.156 2.941,-4.032 5.668,-8.496 6.757,-13.399 3.161,-13.832 3.594,-28.097 5.883,-42.039 2.18,-13.18 4.031,-26.578 7.629,-39.535 5.449,-19.824 14.606,-38.668 19.289,-58.816 12.207,-51.95 28.227,-103.793 31.278,-157.051 5.667,-100.094 14.824,-202.582 -5.012,-300.93 C 675.922,166.023 646.715,105.793 600.289,68.2188 552.121,29.3359 485.531,10.6016 423.629,11.0391 331.652,11.8008 232.914,23.457 154.445,71.5938 88.4023,112.109 40.9961,185.848 18.2188,259.906 c -21.25005,69.27 7.6289,144.641 11.7695,216.848 2.9453,52.605 6.8672,105.32 9.375,157.926" style="fill:#eaf0e7;fill-opacity:1;fill-rule:nonzero;stroke:none" id="path21731"/><path d="m 45.6836,630.977 c 0.6523,11.871 -0.9805,23.636 0,35.398 0.6523,7.297 1.8516,14.813 5.0117,21.457 8.2852,17.75 16.5664,35.832 28.7735,51.078 13.9492,17.211 30.4062,32.676 48.6052,45.199 30.188,20.914 62.555,38.45 95.574,54.348 25.938,12.527 52.965,23.199 80.758,30.496 24.082,6.32 49.258,7.192 73.996,9.914 23.325,2.504 46.645,5.117 70.075,5.77 31.605,0.765 63.429,2.941 94.707,-1.742 15.91,-2.286 31.601,-9.258 44.464,-18.84 12.313,-9.149 19.942,-23.2 28.879,-35.399 2.832,-4.031 5.45,-8.386 6.539,-13.179 3.161,-13.504 3.594,-27.555 5.778,-41.168 2.176,-12.961 3.922,-26.032 7.41,-38.774 5.34,-19.496 14.383,-37.902 18.961,-57.617 11.988,-50.863 27.683,-101.617 30.625,-153.895 5.664,-98.132 14.601,-198.441 -4.906,-294.722 C 669.273,171.906 640.719,112.875 595.168,76.0625 548.086,37.9414 482.809,19.6445 422.105,20.0781 332.086,20.7305 235.309,32.2773 158.48,79.4375 93.8516,119.082 47.3164,191.293 24.9766,263.828 4.16016,331.68 32.6055,405.527 36.5273,476.211 c 2.9454,51.625 6.7579,103.141 9.1563,154.766" style="fill:#d8e4d5;fill-opacity:1;fill-rule:nonzero;stroke:none" id="path21733"/><path d="m 52.1133,627.273 c 0.5469,11.547 -0.9805,23.2 0,34.747 0.6523,7.078 1.8515,14.375 4.7969,20.91 8.1718,17.316 16.3437,35.07 28.332,49.992 13.5156,16.879 29.7538,32.019 47.5158,44.328 29.535,20.367 61.25,37.684 93.617,53.258 25.391,12.199 51.766,22.656 79.012,29.734 23.648,6.207 48.277,7.078 72.472,9.692 22.778,2.507 45.661,5.121 68.547,5.664 30.953,0.765 62.231,2.941 92.852,-1.633 15.586,-2.289 30.844,-9.149 43.484,-18.516 11.988,-8.82 19.508,-22.652 28.227,-34.633 2.832,-3.921 5.449,-8.277 6.539,-12.961 2.941,-13.179 3.379,-26.902 5.558,-40.3 2.18,-12.633 3.922,-25.485 7.301,-37.903 5.231,-19.058 14.059,-37.136 18.528,-56.414 11.66,-49.883 27.027,-99.55 29.968,-150.629 5.559,-96.171 14.278,-194.304 -4.793,-288.625 C 662.734,177.785 634.727,119.953 590.152,84.0117 543.945,46.6523 480.082,28.6836 420.688,29.1172 332.414,29.7734 237.707,41.0977 162.512,87.1719 99.1914,126.051 53.6406,196.848 31.8438,267.859 c -20.379,66.329 7.4101,138.649 11.332,207.918 2.8359,50.536 6.539,100.961 8.9375,151.496" style="fill:#c5d5c0;fill-opacity:1;fill-rule:nonzero;stroke:none" id="path21735"/><path d="m 58.543,623.57 c 0.5468,11.328 -0.9805,22.766 0,33.981 0.5468,6.972 1.7461,14.16 4.6875,20.476 7.9531,16.993 15.9101,34.309 27.6797,48.903 13.2968,16.554 29.0978,31.367 46.5348,43.457 28.879,19.933 59.942,36.812 91.543,52.062 24.848,11.981 50.785,22.219 77.379,29.188 23.102,5.992 47.188,6.863 70.946,9.476 22.339,2.395 44.683,5.008 67.132,5.555 30.297,0.762 60.813,2.832 90.782,-1.633 15.257,-2.289 30.187,-8.933 42.613,-18.082 11.769,-8.711 19.07,-22.219 27.68,-33.98 2.726,-3.813 5.23,-8.059 6.32,-12.633 2.941,-12.961 3.379,-26.36 5.449,-39.43 2.07,-12.414 3.816,-24.937 7.195,-37.137 5.121,-18.625 13.731,-36.269 18.09,-55.218 C 654.016,619.758 669.055,571.184 672,521.082 677.34,427.09 685.84,330.918 667.203,238.668 656.086,183.668 628.734,127.141 585.031,91.8516 539.914,55.2578 477.359,37.7227 419.27,38.1602 332.848,38.8125 240.215,49.8125 166.652,95.0117 104.641,133.023 60.0703,202.293 38.7109,271.777 c -20.0546,65.024 7.1914,135.817 11.0039,203.563 2.836,49.445 6.4297,98.785 8.8282,148.23" style="fill:#b3c7ad;fill-opacity:1;fill-rule:nonzero;stroke:none" id="path21737"/><path d="m 64.8633,619.977 c 0.5469,11 -0.9805,22.109 0,33.109 0.6562,6.863 1.7461,13.832 4.6875,20.043 7.7383,16.664 15.4765,33.652 27.0273,47.922 12.9689,16.117 28.4449,30.601 45.5549,42.476 28.226,19.493 58.629,36.051 89.582,50.864 24.301,11.761 49.586,21.781 75.633,28.64 22.668,5.883 46.207,6.645 69.422,9.258 21.902,2.289 43.699,4.793 65.714,5.34 29.536,0.762 59.504,2.832 88.821,-1.527 14.929,-2.176 29.531,-8.711 41.629,-17.75 11.445,-8.497 18.636,-21.676 27.027,-33.219 2.727,-3.703 5.23,-7.844 6.211,-12.309 2.836,-12.633 3.269,-25.812 5.449,-38.554 1.965,-12.2 3.707,-24.399 6.867,-36.27 5.012,-18.297 13.516,-35.613 17.766,-54.129 11.223,-47.707 25.937,-95.301 28.769,-144.203 5.231,-92.031 13.622,-186.023 -4.687,-276.316 C 649.438,189.551 622.629,134.223 580.02,99.6953 535.773,63.9727 474.633,46.7617 417.746,47.1992 333.285,47.8516 242.613,58.6328 170.684,102.746 109.98,139.992 66.3906,207.738 45.4648,275.699 c -19.5078,63.606 7.086,132.875 10.7891,199.098 2.7266,48.465 6.3203,96.715 8.6094,145.18" style="fill:#a3ba9a;fill-opacity:1;fill-rule:nonzero;stroke:none" id="path21739"/><path d="m 546.344,837.371 9.261,-8.168 54.493,10.453 16.129,4.793 3.488,0 0,-3.594 5.883,-8.058 5.668,-42.805 0,-3.484 -18.418,-4.684 -27.899,-2.289 -16.129,-5.664 -1.199,0 -3.379,-3.484 11.551,-39.426 9.156,-12.633 15.149,-23.199 6.863,-18.406 -5.664,2.285 0,-8.168 6.754,-11.543 2.289,-27.664 1.418,-1.199 -3.707,0 -5.664,7.078 1.199,-10.457 10.352,-33.543 6.867,-41.715 3.593,-11.652 0,-1.09 -1.089,-1.2 -2.504,0 -4.578,8.168 -1.09,1.2 0,-5.774 16.129,-55.547 -1.2,-16.117 -4.468,7.949 0,-9.257 2.289,-11.325 -3.489,-29.082 -1.089,-5.554 -9.371,13.722 -6.977,-34.633 2.289,-10.457 -1.199,-1.089 -3.375,3.379 -1.09,0 0,-4.469 3.375,-26.574 0,-19.711 2.289,-3.489 0,-3.593 -2.289,0 -3.375,5.882 -7.086,4.575 -1.09,-1.09 6.977,-11.653 2.289,-24.289 0,-2.175 -2.289,0 -4.688,6.968 -10.242,6.864 -1.418,0 -1.09,-1.2 6.973,-11.546 1.199,-37.032 1.09,-1.086 0,-2.289 -1.09,-1.09 -7.082,11.547 -12.641,9.039 1.305,-13.832 3.379,-14.922 -6.973,-25.484 -6.867,-8.168 -4.687,13.938 0,1.089 -2.289,2.504 -4.575,-7.078 -1.199,-33.543 -3.597,-9.148 -12.641,-17.43 -1.199,-1.086 -3.379,13.832 -5.887,-20.914 -15.039,-20.582 -3.379,-1.199 0,12.742 -4.793,5.664 -3.379,-4.574 -5.668,-12.633 -12.75,-16.34 -1.09,-1.199 -1.308,0 0,24.289 -2.285,4.793 -6.868,-16.336 -19.726,-20.695 -2.289,0 -2.289,20.695 -1.09,1.09 -1.414,0 -4.469,-9.043 -22.015,-22 -2.29,-4.793 -2.289,-2.285 -1.199,0 -1.09,16.336 -8.172,16.121 -2.289,2.285 -13.839,-28.863 -1.09,-1.086 -7.082,25.375 -10.465,12.742 -2.289,2.289 -4.465,-18.625 -1.418,-1.09 -1.09,0 -4.578,12.637 -17.219,15.246 -16.238,12.633 -15.039,15.031 -2.18,-4.574 0,-4.684 1.09,-1.199 -1.09,-1.086 -7.086,2.285 -33.566,25.379 0,1.086 -2.285,2.508 -1.2,0 -3.378,-8.168 -2.289,0 -34.657,44 -10.461,6.859 -12.75,5.883 -1.093,1.09 0,-5.883 2.289,-2.285 0,-4.469 -11.661,7.953 -11.55,13.833 -3.379,3.593 -27.899,3.375 0,1.199 1.309,1.09 -2.508,2.285 -33.348,2.508 -11.554,3.375 0,2.289 17.219,3.375 6.976,5.883 -16.238,6.86 -1.199,1.308 8.175,6.86 -13.843,10.457 -17.4379,25.378 -5.664,11.543 -3.7071,34.743 2.5078,23.199 10.461,19.605 14.9292,16.117 19.618,17.211 9.265,3.594 4.793,4.574 18.418,6.973 2.289,2.285 -2.289,2.285 12.641,7.082 -16.125,3.375 0,2.289 35.851,8.168 6.868,0 3.597,13.832 1.196,27.665 -1.196,1.199 -3.597,-3.489 -2.289,3.489 8.175,31.258 4.575,9.257 0,7.95 4.687,10.457 9.152,12.742 6.977,20.801 -2.18,30.062 2.18,8.168 -1.09,5.773 0,3.485 -35.855,-5.883 -18.637,-3.375 -56.559,-18.406 -16.3473,-9.367 -25.3946,-8.168 -27.6797,-4.465 -9.2656,-2.289 -4.5742,0 0,38.121 4.5742,21.781 32.3711,4.793 6.8633,3.375 4.7969,0 3.3789,3.379 45.117,18.625 20.926,4.574 13.84,-2.289 11.551,2.289 33.457,6.969 14.058,4.574 1.09,0 5.668,17.426 13.84,12.742 10.461,1.09 3.488,2.289 2.399,0 1.199,-1.09 5.668,4.465 9.261,0 7.082,-4.465 0,-1.199 2.29,-2.285 9.265,22 4.578,4.574 4.574,-1.09 8.067,2.289 2.289,2.285 7.082,-2.285 12.535,-8.172 11.66,-16.117 25.391,6.973 1.09,0 3.488,15.027 10.461,16.121 17.437,0 3.379,-3.488 11.551,-2.285 3.488,-5.774 0,-6.859 9.266,0 3.379,2.285 15.039,1.09 41.738,13.832 1.2,-1.09 3.378,2.289 9.262,1.09 0,19.711 3.488,6.863 6.973,5.879 9.266,-1.09 20.707,-9.363 0,0 z M 281.52,690.555 l 0,9.367 -5.668,0 -11.551,-3.598 1.09,-19.601 10.461,-26.575 3.378,-4.687 4.793,20.805 -2.503,24.289 0,0 z m 245.316,54.238 0,0 -3.598,17.535 -3.488,0 -54.27,-12.742 -15.148,-4.793 -6.867,0 -20.817,-11.547 -1.199,-24.285 4.578,-32.238 18.637,-36.922 6.758,-23.199 18.633,-32.457 -1.09,-1.09 -5.883,-1.196 1.309,-3.379 18.418,-30.167 9.261,-20.805 -2.289,-2.285 -2.398,0 5.887,-10.457 4.468,9.257 12.75,10.457 5.883,16.118 1.09,40.625 -3.375,-4.789 -2.508,2.285 1.418,34.742 2.285,19.715 -1.195,6.972 15.039,42.692 0,17.426 -2.289,34.527 0,0 z m -157.371,-73.953 0,0 4.578,53.367 -2.289,2.18 -19.723,-8.059 -16.129,-4.574 0,-2.289 12.75,-18.625 10.352,-19.711 9.375,-32.238 13.84,-19.715 0,1.09 -4.797,15.246 -7.957,33.328" style="fill:#231f20;fill-opacity:1;fill-rule:nonzero;stroke:none" id="path21741"/><path d="m 542.965,835.082 10.461,-10.348 4.469,-15.027 8.171,-15.031 7.086,-37.141 11.551,-32.238 7.957,-10.457 18.637,-28.86 0,-3.593 -3.598,2.285 -2.289,0 0,-6.754 9.266,-20.91 1.195,-13.832 0,-4.574 -8.172,6.859 -2.289,0 0,-5.66 13.84,-38.121 3.598,-23.2 0,-5.882 5.668,-25.375 -3.379,4.574 -3.379,3.594 -2.508,0 0,-4.793 8.176,-28.86 10.461,-33.547 0,-9.257 -9.371,9.257 -2.289,-3.375 7.082,-15.031 -1.305,-38.336 -1.199,-1.09 -5.668,12.743 -1.199,1.089 -2.18,0 -7.082,-39.101 1.195,0 0,-5.774 -1.195,0 0,3.489 -3.379,3.375 -3.598,-3.375 5.887,-44.004 -1.199,-7.949 0,-4.793 -6.977,3.593 -3.488,0 0,-5.879 7.086,-10.457 2.289,-13.832 0,-4.574 -16.348,10.453 -6.867,0 -1.09,-1.304 11.555,-16.121 0,-27.665 -17.438,13.832 -1.199,0 -2.289,-7.078 5.777,-23.089 0,-10.239 -6.867,-20.91 -2.289,-2.289 0,4.574 -4.687,9.367 -3.489,3.375 -2.285,0 -4.687,-13.832 2.398,-12.742 -5.887,-26.574 -9.261,-12.633 -1.09,-1.199 -1.199,7.949 -4.578,4.793 -2.18,0 -4.793,-25.375 -12.754,-16.34 -3.379,11.547 -5.883,5.879 -1.09,0 -11.66,-23.086 -4.468,-5.883 -1.2,-1.199 -3.379,18.625 -2.507,3.375 -2.286,2.289 -1.089,0 -8.176,-22 -15.039,-15.031 -2.289,15.031 -4.469,9.258 -2.504,0 -5.668,-14.922 -22.016,-22 -6.863,19.711 -9.265,12.746 -2.29,0 -2.503,-15.25 -7.957,-13.832 -6.977,20.91 -12.75,14.922 -3.379,3.594 -2.285,0 0,-16.227 -1.418,-1.199 -13.84,15.031 -22.016,17.426 -17.109,19.496 -3.379,0 -2.289,-2.289 0,-9.258 -1.418,-1.086 -28.769,19.711 -8.176,11.547 0,1.09 -2.285,2.285 -2.289,-1.09 -4.578,-9.367 -30.188,39.535 13.84,-3.593 30.187,1.089 27.789,10.457 8.176,6.969 11.551,5.774 17.109,16.23 0,2.285 -4.574,2.289 -2.18,0 13.84,15.028 10.352,20.804 0,13.832 -5.883,10.457 -4.469,4.79 -2.289,0 0,-3.594 7.957,-11.653 1.09,-6.753 -2.289,-7.079 1.199,-1.089 -18.418,-26.575 -8.066,-5.882 -3.379,1.089 -7.082,12.743 -2.289,-2.286 2.289,-7.953 13.84,-11.543 2.179,0 -13.73,-12.742 -5.668,-2.398 -4.797,-1.2 -11.332,-9.148 -11.555,5.773 -1.304,0 -1.199,-1.199 6.972,-6.969 -14.929,-5.664 -17.438,4.465 -10.461,15.032 0,2.503 -2.289,2.289 -2.289,0 0,-4.792 8.176,-13.833 7.953,-6.863 4.797,0 -20.926,0 -10.461,3.379 -16.129,18.625 -3.379,12.742 -2.508,2.285 -2.289,0 -1.09,-1.195 9.266,-22.004 10.461,-9.258 -16.348,5.883 -7.953,4.574 -1.09,1.09 -2.507,-2.289 1.199,-6.969 -13.949,15.141 -4.469,17.317 0,8.167 -1.199,1.09 -1.09,0 -2.289,-2.289 2.289,-18.625 -20.926,2.289 10.465,12.743 3.375,11.546 -1.086,1.196 -12.754,-19.602 -41.52,1.195 -1.308,1.09 -2.289,0 10.355,3.485 9.371,5.882 2.289,2.18 0,2.285 -16.128,7.078 3.375,1.09 3.378,3.489 -2.285,4.464 -10.355,5.879 -13.84,15.032 0,1.089 17.437,-7.953 17.219,2.289 1.199,1.2 0,1.089 -18.418,0 -16.3472,8.168 -12.75,13.832 -4.4687,18.407 5.664,-9.149 4.6875,-3.597 3.4883,1.199 1.0899,1.09 -8.1719,7.078 -7.9571,14.922 0,10.457 2.2891,2.285 0,15.14 1.0899,1.2 0,2.285 1.1992,-13.942 3.3789,-6.968 5.8828,0 1.1992,1.09 0,1.195 -2.2891,1.09 -2.289,0 -2.5039,15.25 0,10.343 11.5508,16.012 0,-13.723 3.7033,-10.347 3.379,-3.485 0,6.86 -3.379,12.637 3.379,10.347 0,4.574 14.933,14.047 7.082,-9.258 0,6.754 -3.597,4.793 17.437,10.457 8.176,-4.793 2.285,-2.289 2.289,2.289 -7.082,7.079 16.348,8.062 5.664,1.195 1.199,1.09 -2.285,4.574 9.262,1.2 1.199,1.089 0,2.504 -5.887,3.375 -11.66,1.09 31.387,6.86 33.566,-2.286 5.668,-4.574 2.504,-2.179 2.289,2.179 -1.199,15.031 10.246,-3.378 8.172,-12.743 4.797,-1.089 9.047,-10.454 4.793,4.575 0,10.343 11.55,-14.918 1.2,-5.882 1.089,-1.2 2.289,2.289 -1.199,20.911 4.578,-2.286 3.598,-7.082 0,-5.664 1.199,-1.086 2.289,0 1.09,10.454 4.574,9.039 0,5.882 -1.09,1.2 16.239,-7.082 2.289,-3.375 -1.09,-1.2 0,-3.375 1.09,-1.089 3.488,1.089 6.867,10.457 7.953,-7.082 15.149,16.121 3.488,-9.039 3.379,0 2.289,3.375 3.594,3.379 3.379,-6.754 4.578,4.575 1.199,3.375 3.598,2.504 2.289,1.089 3.375,0 -2.285,-6.968 0,-4.575 5.664,0 1.418,1.09 3.379,0 4.578,-9.258 0,-5.664 2.285,-4.793 -1.195,-14.921 -5.668,-9.368 0,-2.285 1.089,-1.09 8.172,10.457 3.489,6.75 -2.289,17.536 -20.922,66.875 1.195,49.773 -1.195,18.516 -10.465,37.031 2.289,41.496 2.508,29.078 -1.309,38.121 0,18.516 9.262,15.031 8.176,2.285 5.668,0 10.461,-7.078 4.683,0 0,-46.07 1.199,-70.578 20.707,-48.465 8.176,-19.824 8.172,-19.711 6.758,-9.043 -4.578,-1.196 3.488,-15.14 24.305,-39.211 1.086,-4.574 -1.086,1.089 -1.2,0 -2.289,-2.285 12.75,-27.883 5.883,-14.921 2.289,-29.95 -7.082,3.375 -2.179,-2.289 13.839,-26.789 2.289,-24.07 0,-4.574 -1.199,0 -2.289,-2.289 4.578,-17.426 0,-10.238 -7.957,5.664 -2.289,0 0,-7.082 4.578,-24.286 -2.289,-21.785 -4.793,-17.425 -2.289,5.882 -3.379,3.375 -1.09,0 -20.925,-42.8 0,-7.954 -2.289,0 -2.286,-2.503 0,-5.665 -8.175,-22 -8.063,-11.652 -2.289,-2.18 -1.199,12.633 -1.09,1.199 -1.199,0 -8.172,-18.406 -28.773,-27.883 1.089,-1.199 17.329,12.746 16.238,18.621 1.199,3.379 0,1.09 1.09,-7.953 1.199,-1.309 16.129,17.43 9.262,28.859 3.379,3.598 3.707,16.117 14.929,25.489 0,1.086 5.668,-9.258 2.504,0 2.289,2.398 0,7.949 6.867,37.032 -3.488,24.289 5.668,-7.953 3.703,3.378 -1.195,20.911 -2.508,43.675 -6.758,18.621 1.09,0 2.289,2.29 -2.289,8.058 -2.289,31.152 -2.289,4.79 0,2.179 17.328,-12.633 23.106,-29.082 5.777,-18.406 2.398,-25.269 -5.886,5.664 0,2.289 -2.289,2.504 -1.09,0 -2.289,-2.504 9.156,-33.328 -1.199,-15.25 0,-2.286 -1.09,3.704 0,1.089 -1.199,1.09 -3.379,0 0,-4.683 3.379,-9.149 0,-18.515 -6.758,-10.457 0,-1.2 1.09,-1.086 2.289,0 6.867,10.454 1.309,26.574 2.285,8.062 -1.196,24.285 -2.398,6.864 4.684,-4.575 1.199,0 2.179,2.286 -2.179,11.547 -3.485,30.058 -6.976,17.32 -15.039,18.516 -25.395,20.691 -4.793,9.368 2.504,6.968 17.219,17.317 2.289,6.972 0,7.95 2.289,42.914 3.598,6.754 0,2.504 -2.399,2.285 -7.957,-9.258 2.18,33.547 5.777,18.406 3.598,3.594 0,2.289 -1.199,1.09 -5.887,-1.09 7.086,22 9.047,26.574 -2.289,18.297 -3.379,31.367 -6.977,28.754 0,20.91 -7.957,11.547 -2.285,0 -3.598,13.832 3.598,11.652 5.664,4.684 8.176,-1.305 16.129,-6.863 0,0" style="fill:#b2987c;fill-opacity:1;fill-rule:nonzero;stroke:none" id="path21743"/><path d="m 354.645,372.633 -10.352,34.308 -22.125,33.329 -14.602,15.464 18.852,15.465 40.215,1.742 23.215,-25.808 2.504,-44.438 -23.973,-31.695 -13.734,1.633" style="fill:#b2987c;fill-opacity:1;fill-rule:nonzero;stroke:none" id="path21745"/><path d="m 355.297,375.902 c -3.156,10.672 -6.211,21.453 -9.371,32.129 -7.192,11 -14.492,21.782 -21.578,32.782 -4.36,4.902 -8.719,9.804 -12.969,14.812 5.777,4.574 11.66,9.258 17.437,13.832 11.661,0.219 23.325,0.438 35.094,0.656 7.625,-7.953 15.363,-15.902 22.992,-23.855 0.875,-14.375 1.746,-28.645 2.618,-43.02 -7.086,-9.691 -14.278,-19.386 -21.36,-29.078 -4.25,0.653 -8.5,1.195 -12.863,1.742" style="fill:#b69a7d;fill-opacity:1;fill-rule:nonzero;stroke:none" id="path21747"/><path d="m 356.063,379.168 c -2.942,9.91 -5.778,19.93 -8.61,29.844 -6.976,10.781 -13.949,21.562 -20.816,32.347 -3.813,4.684 -7.739,9.368 -11.551,14.051 5.449,4.137 10.789,8.274 16.019,12.305 10.028,-0.11 20.051,-0.219 30.079,-0.324 7.629,-7.301 15.148,-14.598 22.777,-21.895 0.871,-13.941 1.742,-27.883 2.617,-41.82 -6.215,-8.715 -12.316,-17.43 -18.527,-26.25 -4.035,0.652 -8.067,1.199 -11.988,1.742" style="fill:#b89c7f;fill-opacity:1;fill-rule:nonzero;stroke:none" id="path21749"/><path d="m 356.715,382.438 c -2.613,9.257 -5.121,18.406 -7.738,27.664 -6.754,10.562 -13.512,21.128 -20.161,31.8 -3.269,4.356 -6.648,8.825 -9.918,13.289 4.907,3.594 9.809,7.297 14.606,10.891 8.281,-0.543 16.672,-0.98 24.957,-1.418 7.519,-6.641 15.039,-13.394 22.559,-20.039 0.871,-13.504 1.742,-26.902 2.613,-40.406 -5.231,-7.844 -10.461,-15.684 -15.801,-23.528 -3.707,0.657 -7.41,1.2 -11.117,1.747" style="fill:#bda080;fill-opacity:1;fill-rule:nonzero;stroke:none" id="path21751"/><path d="m 357.371,385.703 c -2.289,8.496 -4.578,16.883 -6.867,25.379 -6.539,10.453 -13.078,20.801 -19.508,31.258 -2.723,4.246 -5.558,8.496 -8.391,12.742 4.469,3.051 8.829,6.098 13.297,9.258 6.645,-0.871 13.184,-1.637 19.723,-2.399 7.52,-6.097 15.039,-12.089 22.559,-18.187 0.875,-13.07 1.636,-26.031 2.507,-38.992 -4.359,-6.969 -8.609,-13.832 -12.968,-20.801 -3.489,0.652 -6.864,1.199 -10.352,1.742" style="fill:#bfa280;fill-opacity:1;fill-rule:nonzero;stroke:none" id="path21753"/><path d="m 358.023,388.969 -5.992,23.199 -18.855,30.715 -6.758,11.98 11.879,7.735 14.605,-3.379 22.34,-16.336 2.617,-37.574 -10.355,-18.082 -9.481,1.742" style="fill:#c1a482;fill-opacity:1;fill-rule:nonzero;stroke:none" id="path21755"/><path d="m 462.754,185.629 36.074,73.844 46.317,66.871 12.097,34.308 5.121,53.153 -3.379,51.406 -6.863,51.406 -3.488,73.844 1.742,71.992 1.746,34.309 -8.613,56.636 -10.352,44.653 -13.73,30.824 11.988,3.484 25.828,-34.308 15.473,-73.844 20.598,-68.613 13.734,-106.301 5.121,-90.945 -11.988,-49.664 -13.731,-66.875 -13.734,-36.047 -25.828,-58.379 -34.328,-48.031 c 0,0 -54.926,-11.981 -49.805,-13.723" style="fill:#b2987c;fill-opacity:1;fill-rule:nonzero;stroke:none" id="path21757"/><path d="m 469.293,191.836 c 10.789,22.328 21.578,44.766 32.258,67.09 15.258,22.219 30.406,44.328 45.554,66.547 4.032,11.761 8.067,23.418 12.208,35.179 1.742,17.973 3.488,36.051 5.23,54.024 -0.652,16.879 -1.418,33.871 -2.18,50.863 -1.961,17.641 -4.031,35.176 -5.992,52.82 -1.199,24.399 -2.398,48.903 -3.598,73.301 0,23.633 0,47.27 0,71.012 0.325,11.543 0.762,23.199 1.2,34.851 -3.051,18.844 -6.106,37.684 -9.157,56.528 -3.269,14.594 -6.648,29.187 -9.918,43.785 -4.25,9.801 -8.609,19.711 -12.859,29.516 3.379,0.871 6.867,1.742 10.246,2.613 7.738,-10.895 15.473,-21.676 23.211,-32.457 5.34,-24.508 10.789,-49.012 16.129,-73.41 6.539,-22.981 13.078,-45.852 19.617,-68.832 4.25,-35.399 8.5,-70.793 12.86,-106.192 1.746,-29.953 3.378,-59.793 5.125,-89.746 -3.598,-16.664 -7.196,-33.328 -10.789,-49.992 -4.579,-21.891 -9.047,-43.891 -13.625,-65.891 -4.469,-12.199 -9.043,-24.398 -13.512,-36.703 -8.5,-18.625 -17.11,-37.359 -25.613,-56.094 -10.79,-15.027 -21.579,-30.168 -32.368,-45.308 0,0 -49.148,-11.762 -44.027,-13.504" style="fill:#b89c7f;fill-opacity:1;fill-rule:nonzero;stroke:none" id="path21759"/><path d="m 475.832,198.043 c 9.481,20.043 18.965,40.191 28.555,60.34 14.82,22.109 29.75,44.109 44.57,66.219 4.141,11.98 8.285,24.07 12.426,36.05 1.742,18.297 3.597,36.598 5.449,54.895 -0.328,16.664 -0.652,33.543 -0.98,50.316 -1.747,18.082 -3.489,36.16 -5.231,54.239 -1.199,24.179 -2.508,48.468 -3.707,72.757 -0.652,23.305 -1.199,46.614 -1.742,69.922 0.219,11.871 0.433,23.633 0.652,35.395 -3.16,18.844 -6.429,37.683 -9.59,56.637 -3.16,14.269 -6.429,28.535 -9.589,42.914 -4.036,9.363 -8.067,18.73 -12.098,28.097 2.941,0.547 5.777,1.09 8.609,1.742 6.867,-10.238 13.731,-20.367 20.598,-30.605 5.668,-24.285 11.226,-48.684 16.891,-73.078 6.105,-22.981 12.316,-45.965 18.527,-68.945 4.035,-35.395 7.957,-70.684 11.988,-106.083 1.746,-29.406 3.488,-58.921 5.121,-88.437 -3.16,-16.883 -6.429,-33.652 -9.59,-50.316 -4.468,-21.676 -8.933,-43.243 -13.402,-64.914 -4.469,-12.418 -8.937,-24.942 -13.406,-37.36 -8.391,-17.969 -16.891,-35.941 -25.395,-53.91 -10.133,-14.16 -20.379,-28.32 -30.511,-42.586 0,0 -43.266,-11.652 -38.145,-13.289" style="fill:#bda080;fill-opacity:1;fill-rule:nonzero;stroke:none" id="path21761"/><path d="m 482.371,204.145 c 8.281,17.968 16.457,35.832 24.738,53.695 14.606,22 29.207,44 43.704,65.89 4.25,12.309 8.39,24.614 12.531,36.922 1.961,18.625 3.816,37.141 5.668,55.766 0.109,16.555 0.109,33.109 0.218,49.773 -1.417,18.516 -2.835,37.032 -4.25,55.657 -1.308,24.066 -2.726,48.136 -4.035,72.207 -1.09,22.98 -2.289,45.961 -3.379,68.945 0,11.98 0.11,23.852 0.11,35.832 -3.379,18.84 -6.649,37.793 -10.024,56.633 -3.164,14.051 -6.214,27.992 -9.375,42.043 -3.703,8.93 -7.41,17.863 -11.113,26.793 2.285,0.219 4.574,0.543 6.863,0.871 5.996,-9.586 11.989,-19.168 18.094,-28.645 5.774,-24.289 11.66,-48.574 17.434,-72.754 5.886,-23.089 11.664,-46.179 17.547,-69.16 3.707,-35.289 7.41,-70.578 11.117,-105.867 1.742,-29.078 3.488,-58.266 5.23,-87.348 -2.832,-16.882 -5.668,-33.871 -8.5,-50.644 -4.359,-21.238 -8.828,-42.586 -13.187,-63.824 -4.36,-12.742 -8.828,-25.375 -13.188,-38.121 -8.39,-17.207 -16.89,-34.414 -25.281,-51.625 -9.59,-13.286 -19.074,-26.575 -28.664,-39.754 0,0 -37.379,-11.543 -32.258,-13.285" style="fill:#c1a482;fill-opacity:1;fill-rule:nonzero;stroke:none" id="path21763"/><path d="m 488.91,210.352 c 6.973,15.683 13.949,31.367 20.926,47.05 14.273,21.782 28.66,43.676 42.937,65.457 4.25,12.637 8.391,25.161 12.641,37.793 1.961,18.844 3.926,37.684 5.887,56.637 0.433,16.336 0.871,32.781 1.308,49.231 -1.093,19.058 -2.289,38.007 -3.379,56.96 -1.417,23.961 -2.726,47.813 -4.14,71.774 -1.746,22.652 -3.379,45.309 -5.125,67.961 -0.11,12.09 -0.219,24.18 -0.324,36.379 -3.598,18.84 -7.086,37.683 -10.684,56.527 -2.941,13.723 -5.883,27.445 -8.934,41.168 -3.378,8.496 -6.867,16.992 -10.246,25.488 1.637,0 3.379,0 5.121,0 5.125,-8.933 10.356,-17.863 15.477,-26.793 5.996,-24.179 12.098,-48.25 18.199,-72.429 5.449,-23.09 11.008,-46.18 16.457,-69.27 3.379,-35.289 6.867,-70.469 10.246,-105.754 1.743,-28.644 3.485,-57.398 5.231,-86.043 -2.399,-17.101 -4.797,-34.09 -7.195,-51.082 -4.36,-20.91 -8.719,-41.82 -13.079,-62.734 -4.355,-12.961 -8.718,-25.922 -13.074,-38.774 -8.394,-16.554 -16.676,-33 -25.066,-49.445 -8.938,-12.308 -17.875,-24.726 -26.813,-37.031 0,0 -31.492,-11.328 -26.371,-13.07" style="fill:#c8a784;fill-opacity:1;fill-rule:nonzero;stroke:none" id="path21765"/><path d="m 495.449,216.559 17.11,40.3 42.066,65.239 12.859,38.554 5.996,57.508 2.614,48.793 -2.614,58.27 -4.25,71.23 -6.867,66.871 -0.871,36.922 -11.117,56.637 -8.609,40.297 -9.481,23.961 3.488,-0.871 12.86,-24.832 18.851,-72.102 15.477,-69.379 9.48,-105.535 5.122,-84.953 -5.993,-51.41 -12.859,-61.754 -12.859,-39.426 -24.957,-47.16 -24.848,-34.309 c 0,0 -25.828,-11.219 -20.598,-12.851" style="fill:#ccab85;fill-opacity:1;fill-rule:nonzero;stroke:none" id="path21767"/><path d="m 349.523,235.402 29.207,60.012 29.098,66.981 15.477,48.031 8.609,65.023 -21.473,77.219 -12.859,66.875 -12.859,55 1.636,51.406 -0.761,66.875 9.371,9.477 14.601,-5.992 2.618,-51.516 4.25,-71.121 36.074,-91.813 27.461,-106.41 5.125,-92.469 -20.598,-87.566 -51.441,-68.617 -49.805,-29.188 -13.731,37.793" style="fill:#b2987c;fill-opacity:1;fill-rule:nonzero;stroke:none" id="path21769"/><path d="m 353.227,236.816 c 10.027,18.735 19.945,37.469 29.972,56.204 9.918,22.761 19.832,45.523 29.86,68.289 4.906,16.336 9.808,32.781 14.714,49.117 2.286,21.566 4.575,43.347 6.864,65.023 -6.758,26.574 -13.512,53.149 -20.27,79.617 -4.687,22.219 -9.371,44.434 -14.058,66.543 -4.36,17.645 -8.829,35.289 -13.188,52.934 0.328,17.316 0.656,34.637 0.981,51.953 -0.219,21.348 -0.543,42.801 -0.872,64.149 2.727,3.16 5.45,6.316 8.067,9.476 4.141,-2.07 8.281,-4.137 12.422,-6.207 0.871,-16.34 1.851,-32.676 2.722,-49.121 1.309,-23.961 2.508,-47.922 3.817,-71.883 11.769,-30.605 23.648,-61.101 35.527,-91.707 9.047,-35.394 18.09,-70.683 27.137,-106.082 1.637,-30.605 3.379,-61.211 5.121,-91.812 -6.973,-28.754 -13.949,-57.399 -20.922,-86.153 -16.238,-22.437 -32.586,-44.871 -48.824,-67.199 -15.258,-9.148 -30.625,-18.297 -45.992,-27.449 -4.36,11.437 -8.715,22.875 -13.078,34.308" style="fill:#b89c7f;fill-opacity:1;fill-rule:nonzero;stroke:none" id="path21771"/><path d="m 357.043,238.125 c 10.242,17.535 20.379,35.07 30.516,52.496 10.242,23.199 20.379,46.508 30.621,69.703 4.687,16.664 9.375,33.328 14.058,50.102 1.746,21.566 3.489,43.347 5.125,65.023 -6.324,27.336 -12.644,54.676 -19.074,82.012 -5.012,22.109 -10.133,44.219 -15.258,66.219 -4.465,16.992 -9.043,33.871 -13.511,50.863 0.109,17.426 0.218,34.961 0.328,52.496 -0.328,20.477 -0.547,40.844 -0.875,61.32 2.289,3.157 4.468,6.317 6.648,9.477 3.379,-2.07 6.758,-4.25 10.137,-6.32 0.98,-15.575 1.961,-31.149 2.941,-46.723 1.09,-24.18 2.18,-48.359 3.27,-72.539 11.66,-30.602 23.324,-61.207 34.984,-91.813 8.934,-35.179 17.871,-70.464 26.809,-105.644 1.742,-30.391 3.488,-60.777 5.121,-91.164 -7.082,-28.207 -14.168,-56.528 -21.25,-84.735 -15.367,-22 -30.625,-43.89 -45.992,-65.894 -14.059,-8.602 -28.118,-17.207 -42.282,-25.703 -4.035,10.238 -8.175,20.586 -12.316,30.824" style="fill:#bda080;fill-opacity:1;fill-rule:nonzero;stroke:none" id="path21773"/><path d="m 360.859,239.539 c 10.352,16.231 20.813,32.457 31.168,48.688 10.461,23.742 20.922,47.375 31.278,71.011 4.468,17.098 8.933,34.09 13.402,51.188 1.09,21.566 2.289,43.347 3.379,65.023 -5.883,28.207 -11.879,56.309 -17.762,84.406 -5.558,22.004 -11.008,44.004 -16.566,65.895 -4.578,16.227 -9.266,32.457 -13.84,48.793 -0.109,17.645 -0.219,35.289 -0.328,52.934 -0.328,19.601 -0.652,39.097 -0.871,58.703 1.742,3.16 3.488,6.316 5.34,9.476 2.613,-2.179 5.23,-4.359 7.847,-6.535 1.09,-14.812 2.071,-29.516 3.051,-44.328 0.981,-24.398 1.852,-48.793 2.832,-73.191 11.445,-30.606 22.996,-61.207 34.438,-91.813 8.828,-35.07 17.656,-70.25 26.484,-105.32 1.742,-30.168 3.379,-60.34 5.121,-90.508 -7.191,-27.773 -14.387,-55.547 -21.578,-83.32 -14.496,-21.563 -28.879,-43.02 -43.266,-64.586 -12.859,-7.95 -25.718,-16.008 -38.468,-23.961 -3.926,9.148 -7.848,18.297 -11.661,27.445" style="fill:#c1a482;fill-opacity:1;fill-rule:nonzero;stroke:none" id="path21775"/><path d="m 364.563,240.848 c 10.679,15.031 21.359,30.058 31.929,44.98 10.68,24.18 21.363,48.25 31.934,72.43 4.25,17.316 8.5,34.742 12.75,52.168 0.547,21.566 1.09,43.347 1.742,65.023 -5.555,28.969 -11.113,57.942 -16.672,86.805 -5.887,21.891 -11.769,43.781 -17.656,65.566 -4.793,15.575 -9.59,31.149 -14.277,46.723 -0.325,17.754 -0.653,35.617 -1.086,53.477 -0.219,18.625 -0.547,37.25 -0.766,55.98 1.309,3.051 2.617,6.211 3.926,9.367 1.851,-2.176 3.703,-4.465 5.664,-6.64 1.09,-13.942 2.179,-27.993 3.269,-41.934 0.766,-24.613 1.418,-49.23 2.18,-73.953 11.336,-30.496 22.668,-61.102 34.004,-91.707 8.719,-35.07 17.437,-70.031 26.156,-104.992 1.633,-29.95 3.379,-59.903 5.121,-89.852 -7.301,-27.34 -14.715,-54.676 -22.015,-82.016 -13.512,-21.019 -27.028,-42.039 -40.539,-63.058 -11.555,-7.516 -23.106,-14.922 -34.657,-22.328 -3.597,7.949 -7.304,16.011 -11.007,23.961" style="fill:#c8a784;fill-opacity:1;fill-rule:nonzero;stroke:none" id="path21777"/><path d="m 368.379,242.266 32.582,41.168 32.695,73.734 11.989,53.258 0,65.023 -15.477,89.199 -18.852,65.239 -14.605,44.656 -1.742,54.023 -0.871,53.149 2.613,9.476 3.379,-6.863 3.488,-39.535 1.742,-74.605 33.457,-91.817 25.723,-104.555 5.121,-89.203 -22.234,-80.593 -37.817,-61.754 -30.84,-20.586 -10.351,20.586" style="fill:#ccab85;fill-opacity:1;fill-rule:nonzero;stroke:none" id="path21779"/><path d="m 105.949,407.813 16.239,22.218 23.214,19.715 26.59,11.109 31.715,7.731 42.066,-3.375 39.45,-23.199 27.465,-39.317 11.226,-42.043 -0.875,-34.308 -13.73,-34.305 -19.727,-22.328 -26.699,-7.625 -34.328,10.238 -42.832,17.969 -44.68,25.812 -32.586,29.954 -11.1172,34.308 8.6092,27.446" style="fill:#b2987c;fill-opacity:1;fill-rule:nonzero;stroke:none" id="path21781"/><path d="m 110.09,406.18 c 5.234,7.078 10.465,14.265 15.695,21.238 7.41,6.316 14.82,12.633 22.231,18.949 8.5,3.594 17.004,7.082 25.504,10.676 10.132,2.504 20.269,5.008 30.511,7.406 13.407,-1.09 26.922,-2.179 40.324,-3.269 12.645,-7.407 25.286,-14.813 37.926,-22.219 8.719,-12.633 17.547,-25.156 26.375,-37.793 3.485,-13.395 7.082,-26.902 10.68,-40.297 -0.328,-11 -0.547,-22 -0.871,-33 -4.36,-10.891 -8.719,-21.894 -13.188,-32.894 -6.32,-7.079 -12.535,-14.266 -18.855,-21.348 -8.609,-2.504 -17.109,-5.008 -25.609,-7.402 -11.008,3.265 -21.907,6.531 -32.915,9.8 -13.73,5.774 -27.46,11.543 -41.195,17.317 -14.273,8.277 -28.551,16.445 -42.828,24.722 -10.461,9.586 -20.926,19.168 -31.277,28.754 -3.598,11 -7.192,22 -10.789,33 2.832,8.715 5.558,17.535 8.281,26.36" style="fill:#b89e7a;fill-opacity:1;fill-rule:nonzero;stroke:none" id="path21783"/><path d="m 114.234,404.438 c 5.012,6.859 10.024,13.722 15.039,20.472 7.082,5.992 14.165,11.985 21.36,18.082 8.062,3.375 16.238,6.86 24.41,10.238 9.809,2.395 19.508,4.793 29.207,7.079 12.969,-0.981 25.828,-2.071 38.691,-3.157 12.094,-7.082 24.192,-14.16 36.289,-21.238 8.5,-11.98 16.891,-24.07 25.282,-36.16 3.488,-12.961 6.867,-25.813 10.246,-38.664 -0.219,-10.567 -0.438,-21.129 -0.762,-31.586 -4.25,-10.566 -8.391,-21.02 -12.644,-31.586 -5.993,-6.859 -12.094,-13.723 -18.09,-20.477 -8.172,-2.394 -16.348,-4.789 -24.52,-7.187 -10.57,3.16 -21.035,6.316 -31.605,9.476 -13.078,5.555 -26.266,11.11 -39.449,16.665 -13.625,7.839 -27.356,15.683 -41.086,23.632 -9.918,9.149 -19.946,18.407 -29.973,27.555 -3.379,10.566 -6.863,21.129 -10.242,31.586 2.613,8.387 5.23,16.883 7.847,25.27" style="fill:#c1a379;fill-opacity:1;fill-rule:nonzero;stroke:none" id="path21785"/><path d="m 118.484,402.695 c 4.793,6.535 9.59,13.067 14.274,19.711 6.867,5.664 13.625,11.438 20.488,17.211 7.738,3.266 15.586,6.535 23.324,9.801 9.371,2.285 18.637,4.574 28.008,6.754 12.317,-0.981 24.629,-1.961 36.945,-2.942 11.551,-6.863 23.211,-13.613 34.766,-20.367 8.063,-11.547 16.129,-23.09 24.191,-34.636 3.27,-12.305 6.54,-24.723 9.809,-37.028 -0.328,-10.023 -0.543,-20.043 -0.762,-30.172 -4.031,-10.019 -8.066,-20.148 -12.097,-30.168 -5.778,-6.535 -11.551,-13.07 -17.328,-19.605 -7.848,-2.285 -15.692,-4.574 -23.43,-6.859 -10.137,3.046 -20.164,6.097 -30.188,9.148 -12.644,5.227 -25.175,10.562 -37.816,15.793 -13.078,7.516 -26.156,15.137 -39.234,22.652 -9.59,8.821 -19.18,17.645 -28.664,26.356 -3.266,10.129 -6.536,20.152 -9.915,30.281 2.614,8.059 5.122,16.008 7.629,24.07" style="fill:#c8a977;fill-opacity:1;fill-rule:nonzero;stroke:none" id="path21787"/><path d="m 122.625,401.059 c 4.578,6.211 9.152,12.418 13.73,18.734 6.43,5.445 12.969,10.891 19.399,16.445 7.519,3.16 14.93,6.211 22.449,9.367 8.828,2.18 17.766,4.356 26.594,6.426 11.769,-0.871 23.539,-1.851 35.308,-2.832 11.118,-6.535 22.125,-12.961 33.239,-19.496 7.629,-10.89 15.367,-21.89 22.996,-33 3.16,-11.762 6.32,-23.523 9.371,-35.289 -0.215,-9.582 -0.434,-19.168 -0.652,-28.859 -3.922,-9.586 -7.739,-19.172 -11.551,-28.754 -5.559,-6.211 -11.117,-12.528 -16.567,-18.735 -7.519,-2.179 -14.929,-4.355 -22.339,-6.535 -9.7,2.942 -19.293,5.774 -28.883,8.715 -11.985,5.008 -23.973,10.02 -36.071,15.137 -12.425,7.191 -24.957,14.379 -37.492,21.566 -9.043,8.387 -18.199,16.774 -27.351,25.27 -3.16,9.582 -6.211,19.168 -9.375,28.75 2.398,7.734 4.797,15.359 7.195,23.09" style="fill:#ceae74;fill-opacity:1;fill-rule:nonzero;stroke:none" id="path21789"/><path d="m 126.875,399.316 12.969,17.864 18.527,15.683 21.359,8.93 25.391,6.102 33.567,-2.723 31.605,-18.516 22.016,-31.476 8.937,-33.547 -0.766,-27.445 -10.898,-27.446 -15.801,-17.863 -21.359,-6.207 -27.465,8.277 -34.328,14.375 -35.637,20.586 -26.047,24.07 -8.937,27.446 6.867,21.89" style="fill:#d5b270;fill-opacity:1;fill-rule:nonzero;stroke:none" id="path21791"/><path d="m 634.398,830.617 5.668,-38.34 -1.089,-1.195 -11.551,-4.574 -33.567,-3.375 -20.707,-6.973 -2.507,18.516 -5.665,13.832 -4.578,9.148 -2.507,7.078 15.257,5.883 50.786,9.039 1.199,1.199 3.379,-1.199 5.882,-9.039 0,0" style="fill:#888070;fill-opacity:1;fill-rule:nonzero;stroke:none" id="path21793"/><path d="m 557.895,796.961 0,-3.594 -6.758,15.141 -16.348,15.031 0,2.285 16.348,-13.832 6.758,-15.031 0,0" style="fill:#231f20;fill-opacity:1;fill-rule:nonzero;stroke:none" id="path21795"/><path d="m 517.461,801.535 4.578,-33.543 -62.445,-15.031 -14.93,-3.375 -15.039,-5.883 -6.977,-4.574 -2.289,34.742 2.289,16.121 35.856,8.168 40.434,11.547 10.46,0 8.063,-8.172 0,0" style="fill:#888070;fill-opacity:1;fill-rule:nonzero;stroke:none" id="path21797"/><path d="m 553.426,789.992 4.469,-10.457 -2.29,0 -8.062,16.34 -8.066,6.859 5.777,-1.199 8.172,-11.543 0,0" style="fill:#231f20;fill-opacity:1;fill-rule:nonzero;stroke:none" id="path21799"/><path d="m 323.258,795.875 -4.688,-7.082 -6.863,0 -4.797,-5.66 -2.18,-14.051 -10.46,-4.578 -3.489,0 7.086,27.773 2.289,2.399 5.664,-2.399 9.266,5.883 7.082,-1.199 1.09,-1.086 0,0" style="fill:#94826f;fill-opacity:1;fill-rule:nonzero;stroke:none" id="path21801"/><path d="m 344.074,772.676 0,-23.09 -3.597,-9.258 -4.575,18.516 -6.976,20.691 -5.668,5.883 3.488,5.664 4.359,0 12.969,-18.406 0,0" style="fill:#656266;fill-opacity:1;fill-rule:nonzero;stroke:none" id="path21803"/><path d="m 408.809,784.328 -10.461,-3.703 -4.578,-5.664 -1.09,-1.09 -1.418,1.09 1.418,2.289 10.242,8.168 4.687,0 1.2,-1.09 0,0" style="fill:#231f20;fill-opacity:1;fill-rule:nonzero;stroke:none" id="path21805"/><path d="m 330.125,764.504 -1.199,-25.375 -7.957,28.863 -6.973,10.453 -1.199,1.09 0,3.598 2.289,1.195 7.082,-3.703 7.957,-16.121 0,0" style="fill:#656266;fill-opacity:1;fill-rule:nonzero;stroke:none" id="path21807"/><path d="m 375.133,755.25 -1.09,-20.695 -33.566,-15.141 -50.786,-12.742 -59.066,-10.348 -29.969,-9.148 -23.105,-2.504 -57.867,-18.406 -31.3871,-13.832 -36.9453,-6.973 -6.8672,-3.484 -9.2617,0 0,38.23 3.375,12.633 30.1914,4.574 20.7031,8.168 38.2538,17.43 11.66,2.285 5.668,3.375 16.129,-1.086 30.188,3.375 44.027,11.543 3.379,3.703 18.418,2.18 7.086,-16.227 0,-3.488 5.664,-4.465 8.176,13.832 2.289,-10.453 2.289,-2.289 8.062,2.289 3.489,9.258 -1.2,22 15.258,5.66 9.047,0 5.883,-18.297 1.199,-16.336 1.09,-1.199 3.379,1.199 6.976,12.633 1.086,-9.258 1.2,-1.086 3.378,1.086 7.086,12.961 1.09,26.469 19.723,5.769 3.379,-1.195 2.289,-22 0,0" style="fill:#888070;fill-opacity:1;fill-rule:nonzero;stroke:none" id="path21809"/><path d="m 289.691,757.535 0,-20.691 -3.378,-5.883 -3.594,4.793 -4.578,17.207 -5.778,7.078 -1.09,4.465 -5.882,5.883 1.089,4.574 3.485,2.289 11.555,-3.379 8.171,-16.336 0,0" style="fill:#656266;fill-opacity:1;fill-rule:nonzero;stroke:none" id="path21811"/><path d="m 313.996,771.586 0,-1.199 -4.578,0 1.199,5.773 2.18,-3.484 1.199,-1.09 0,0" style="fill:#636063;fill-opacity:1;fill-rule:nonzero;stroke:none" id="path21813"/><path d="m 556.805,744.793 10.461,-13.832 5.886,-4.574 -4.797,1.199 -13.839,17.207 -5.664,12.742 -5.887,14.051 8.172,-12.742 5.668,-14.051 0,0" style="fill:#231f20;fill-opacity:1;fill-rule:nonzero;stroke:none" id="path21815"/><path d="m 241.086,764.504 -6.973,-9.254 -2.289,-7.953 -1.199,-1.09 3.488,12.637 14.059,11.543 -1.418,-3.594 -5.668,-2.289 0,0" style="fill:#94826f;fill-opacity:1;fill-rule:nonzero;stroke:none" id="path21817"/><path d="m 268.77,758.844 4.793,-15.141 -3.598,-12.742 -10.242,24.289 -10.461,9.254 5.664,5.883 3.488,0 10.356,-11.543 0,0" style="fill:#656266;fill-opacity:1;fill-rule:nonzero;stroke:none" id="path21819"/><path d="m 253.836,754.16 -16.129,-4.574 3.379,7.949 3.379,2.504 7.086,-3.594 2.285,-2.285 0,0" style="fill:#636063;fill-opacity:1;fill-rule:nonzero;stroke:none" id="path21821"/><path d="m 409.898,751.871 0,-2.285 -4.578,3.375 -3.593,0 -6.868,-9.258 -1.089,-5.664 0,-1.195 -2.508,3.484 8.176,14.922 7.082,0 3.378,-3.379 0,0" style="fill:#231f20;fill-opacity:1;fill-rule:nonzero;stroke:none" id="path21823"/><path d="m 406.52,720.504 -5.883,-1.09 -3.489,-2.285 -2.289,-2.289 0,-5.879 -3.597,4.793 7.086,8.168 6.972,0 1.2,-1.418 0,0" style="fill:#231f20;fill-opacity:1;fill-rule:nonzero;stroke:none" id="path21825"/><path d="m 592.66,690.555 -12.75,27.773 12.75,-25.488 0,-2.285" style="fill:#231f20;fill-opacity:1;fill-rule:nonzero;stroke:none" id="path21827"/><path d="m 341.566,691.75 -1.089,-7.078 -2.289,-6.754 -25.391,9.258 -6.977,10.238 -2.289,4.793 4.797,3.375 9.047,2.289 3.594,-1.199 5.777,-10.348 0,-10.344 1.09,-1.308 3.269,3.594 -2.179,13.941 -4.469,6.754 2.289,2.504 3.379,0 11.441,-19.715 0,0" style="fill:#636063;fill-opacity:1;fill-rule:nonzero;stroke:none" id="path21829"/><path d="m 588.082,659.297 -1.09,16.336 -17.437,33.328 19.726,-35.832 -1.199,-13.832 0,0" style="fill:#231f20;fill-opacity:1;fill-rule:nonzero;stroke:none" id="path21831"/><path d="m 322.168,677.918 17.109,-5.879 7.086,10.348 0,2.285 1.09,1.308 -1.09,1.196 5.668,-9.258 10.461,-31.367 1.09,-9.039 18.637,-26.793 -2.289,-44.981 5.668,-23.09 5.664,-16.335 0,-3.379 -9.043,0 -5.887,-4.575 -1.199,-1.089 0,1.089 -2.289,2.289 -10.352,-7.078 -5.777,11.653 -1.09,1.09 -1.305,0 -4.578,-12.743 -8.176,-7.953 -6.863,5.774 -2.18,0 -1.418,1.089 -3.269,-6.863 -1.09,-1.308 -9.371,7.082 -11.555,3.375 -9.152,8.168 -1.09,13.832 -15.148,35.832 -2.289,12.746 4.578,46.289 0,10.344 2.394,3.484 0,6.973 4.578,13.832 -2.289,28.863 -1.089,2.285 0,3.594 10.355,2.289 10.242,-18.625 15.258,-6.754 0,0" style="fill:#94826f;fill-opacity:1;fill-rule:nonzero;stroke:none" id="path21833"/><path d="m 316.176,525.223 -10.356,25.703 -17.98,24.832 0,23.199 4.25,30.93 5.121,28.211 1.746,11.218 16.348,-5.23 27.351,-7.621 10.246,-22.328 8.61,-23.199 1.742,-25.704 1.637,-33.437 -5.125,-18.844 -19.723,-4.355 -23.867,-3.375" style="fill:#94826f;fill-opacity:1;fill-rule:nonzero;stroke:none" id="path21835"/><path d="m 317.699,527.836 c -3.269,8.168 -6.539,16.336 -9.808,24.504 -5.555,7.953 -11.223,16.012 -16.782,23.961 -0.328,7.734 -0.652,15.359 -0.871,22.984 1.2,10.02 2.504,19.93 3.703,29.84 1.856,9.258 3.707,18.406 5.559,27.664 0.762,3.16 1.527,6.426 2.18,9.586 4.797,-1.523 9.699,-3.051 14.496,-4.684 8.281,-2.394 16.562,-4.902 24.957,-7.296 3.16,-6.973 6.32,-13.832 9.59,-20.805 2.722,-7.731 5.449,-15.465 8.172,-23.09 0.328,-8.492 0.765,-16.879 1.089,-25.266 0.875,-10.566 1.746,-21.023 2.508,-31.586 -1.418,-5.882 -2.941,-11.761 -4.469,-17.644 -6.101,-1.414 -12.207,-2.832 -18.308,-4.246 -7.41,-1.309 -14.606,-2.613 -22.016,-3.922" style="fill:#988671;fill-opacity:1;fill-rule:nonzero;stroke:none" id="path21837"/><path d="m 319.227,530.34 c -3.051,7.844 -6.211,15.574 -9.266,23.308 -5.231,7.735 -10.461,15.465 -15.582,23.2 -0.656,7.625 -1.199,15.246 -1.742,22.761 1.086,9.696 2.176,19.278 3.269,28.864 1.961,8.929 3.922,17.972 5.774,26.902 0.98,2.723 1.851,5.445 2.832,8.059 4.144,-1.309 8.285,-2.723 12.535,-4.137 7.519,-2.289 14.93,-4.684 22.449,-6.973 3.051,-6.426 5.996,-12.851 8.938,-19.277 2.613,-7.625 5.339,-15.356 7.957,-23.09 0.105,-8.277 0.214,-16.445 0.324,-24.723 1.09,-9.91 2.289,-19.824 3.379,-29.625 -1.199,-5.554 -2.504,-11 -3.703,-16.554 -5.668,-1.418 -11.336,-2.832 -17.004,-4.25 -6.754,-1.524 -13.403,-2.938 -20.16,-4.465" style="fill:#9c8874;fill-opacity:1;fill-rule:nonzero;stroke:none" id="path21839"/><path d="m 320.75,532.953 c -2.941,7.301 -5.773,14.707 -8.715,22.113 -4.797,7.403 -9.594,14.809 -14.387,22.325 -0.871,7.515 -1.742,15.031 -2.617,22.656 0.875,9.258 1.856,18.516 2.727,27.773 2.07,8.711 4.14,17.426 6.211,26.246 1.09,2.18 2.179,4.25 3.269,6.426 3.489,-1.195 7.082,-2.394 10.571,-3.594 6.757,-2.175 13.406,-4.464 20.164,-6.644 2.722,-5.879 5.554,-11.762 8.281,-17.641 2.508,-7.734 5.012,-15.468 7.519,-23.199 -0.109,-8.062 -0.218,-16.121 -0.328,-24.18 1.418,-9.257 2.836,-18.515 4.25,-27.773 -0.98,-5.121 -2.07,-10.129 -3.05,-15.25 -5.231,-1.414 -10.461,-2.828 -15.582,-4.356 -6.215,-1.632 -12.208,-3.265 -18.313,-4.902" style="fill:#a18c75;fill-opacity:1;fill-rule:nonzero;stroke:none" id="path21841"/><path d="m 322.277,535.461 c -2.722,6.969 -5.449,13.941 -8.172,21.019 -4.468,7.079 -8.828,14.266 -13.296,21.348 -1.09,7.516 -2.289,15.031 -3.379,22.543 0.761,8.934 1.527,17.754 2.179,26.684 2.18,8.605 4.36,17.101 6.539,25.597 1.309,1.633 2.508,3.266 3.813,5.008 2.945,-1.086 5.777,-2.066 8.719,-3.156 5.996,-2.07 11.879,-4.25 17.765,-6.316 2.508,-5.34 5.012,-10.786 7.52,-16.122 2.398,-7.734 4.797,-15.464 7.191,-23.199 -0.324,-7.84 -0.652,-15.683 -0.98,-23.633 1.746,-8.605 3.488,-17.207 5.121,-25.921 -0.762,-4.684 -1.524,-9.368 -2.395,-14.051 -4.687,-1.414 -9.48,-2.832 -14.168,-4.246 -5.558,-1.852 -10.898,-3.703 -16.457,-5.555" style="fill:#a58e77;fill-opacity:1;fill-rule:nonzero;stroke:none" id="path21843"/><path d="m 323.914,538.074 -7.738,19.715 -12.098,20.582 -4.25,22.328 1.742,25.703 6.868,24.832 4.25,3.489 6.867,-2.618 15.363,-5.988 6.867,-14.594 6.867,-23.089 -1.746,-23.2 5.996,-23.961 -1.746,-12.96 -12.859,-4.25 -14.383,-5.989" style="fill:#a9927a;fill-opacity:1;fill-rule:nonzero;stroke:none" id="path21845"/><path d="m 262.012,670.84 1.09,-1.09 0,-2.285 -6.977,-4.574 -6.863,1.089 -4.797,5.77 -1.09,24.289 8.176,2.285 6.863,0 3.598,-25.484 0,0" style="fill:#636063;fill-opacity:1;fill-rule:nonzero;stroke:none" id="path21847"/><path d="m 252.641,655.918 13.839,6.973 4.793,-17.43 3.379,-5.66 2.289,-9.367 -3.378,-49.664 5.667,-19.715 10.461,-22 2.289,-15.032 1.09,-12.632 0,-1.2 1.2,-1.089 1.308,0 1.09,3.378 0,3.375 4.578,-5.664 -2.289,-11.543 -13.844,9.258 -1.09,0 -2.503,-2.289 4.793,-12.633 0,-1.418 -15.04,15.25 -2.503,-2.507 0,-12.743 -24.305,23.2 -13.84,3.593 -1.09,0 -1.199,1.09 -1.09,-2.179 0,-3.7 5.668,-5.664 0,-4.683 -10.461,4.683 -20.601,0 2.289,7.949 1.089,32.458 2.29,2.285 0,2.289 -3.379,2.504 -1.196,-1.2 -3.379,0 4.575,20.696 6.976,13.832 3.379,3.594 -2.289,3.484 0,5.883 12.75,20.586 6.867,19.711 -1.199,34.746 2.289,9.257 -2.289,2.286 7.082,4.574 3.379,-28.86 11.555,-8.062 0,0" style="fill:#94826f;fill-opacity:1;fill-rule:nonzero;stroke:none" id="path21849"/><path d="m 216.566,532.082 1.743,32.566 7.738,37.793 12.859,32.567 10.246,15.355 7.739,-25.703 1.742,-42.801 14.601,-43.785 -4.25,-17.101 -27.461,5.121 -24.957,5.988" style="fill:#94826f;fill-opacity:1;fill-rule:nonzero;stroke:none" id="path21851"/><path d="m 218.855,533.609 c 0.762,10.672 1.415,21.239 2.18,31.911 2.399,12.089 4.793,24.289 7.192,36.378 4.031,10.454 7.957,20.911 11.878,31.368 2.942,4.683 5.997,9.367 8.938,14.05 2.07,-7.843 4.141,-15.683 6.211,-23.527 0.219,-13.941 0.547,-27.992 0.762,-41.93 4.578,-14.05 9.047,-27.992 13.625,-41.933 -1.528,-5.227 -3.051,-10.567 -4.688,-15.903 -8.062,1.309 -16.129,2.723 -24.191,4.141 -7.305,1.742 -14.606,3.594 -21.907,5.445" style="fill:#988671;fill-opacity:1;fill-rule:nonzero;stroke:none" id="path21853"/><path d="m 221.035,535.133 c 0.981,10.457 1.852,20.801 2.723,31.258 2.289,11.656 4.469,23.308 6.758,34.961 3.597,10.019 7.191,20.152 10.789,30.171 2.508,4.247 5.011,8.493 7.519,12.743 1.528,-7.082 3.16,-14.161 4.688,-21.239 0,-13.722 0,-27.445 0,-41.168 4.14,-13.398 8.281,-26.687 12.531,-39.972 -1.633,-5.012 -3.379,-9.91 -5.012,-14.813 -6.976,1.09 -13.949,2.071 -20.926,3.156 -6.32,1.637 -12.75,3.27 -19.07,4.903" style="fill:#9c8874;fill-opacity:1;fill-rule:nonzero;stroke:none" id="path21855"/><path d="m 223.324,536.656 c 1.09,10.239 2.18,20.367 3.27,30.606 1.961,11.218 4.031,22.328 6.101,33.547 3.27,9.691 6.539,19.386 9.809,29.078 2.07,3.703 4.141,7.515 6.211,11.218 0.98,-6.316 2.07,-12.632 3.051,-18.949 -0.325,-13.504 -0.543,-26.902 -0.871,-40.297 3.816,-12.746 7.738,-25.379 11.55,-38.121 -1.851,-4.574 -3.593,-9.039 -5.34,-13.508 -5.882,0.657 -11.769,1.309 -17.652,1.961 -5.449,1.528 -10.789,3.051 -16.129,4.465" style="fill:#a18c75;fill-opacity:1;fill-rule:nonzero;stroke:none" id="path21857"/><path d="m 225.504,538.293 c 1.305,9.91 2.504,19.82 3.812,29.84 1.852,10.676 3.707,21.457 5.668,32.238 2.942,9.258 5.778,18.516 8.719,27.774 1.633,3.269 3.16,6.644 4.793,9.914 0.547,-5.555 1.09,-11.219 1.527,-16.774 -0.546,-13.18 -1.089,-26.359 -1.636,-39.426 3.488,-12.089 6.976,-24.179 10.465,-36.269 -1.961,-4.141 -3.817,-8.168 -5.668,-12.309 -4.797,0.328 -9.59,0.653 -14.496,0.981 -4.36,1.308 -8.715,2.613 -13.184,4.031" style="fill:#a58e77;fill-opacity:1;fill-rule:nonzero;stroke:none" id="path21859"/><path d="m 227.789,539.816 4.254,29.082 5.121,30.93 7.738,26.574 3.485,8.606 0,-14.594 -2.614,-38.555 9.481,-34.308 -6.102,-11.219 -11.117,0 -10.246,3.484" style="fill:#a9927a;fill-opacity:1;fill-rule:nonzero;stroke:none" id="path21861"/><path d="m 256.125,682.387 0,-9.258 -1.199,-1.09 -2.285,13.941 -3.379,5.77 2.289,0 4.574,-9.363 0,0" style="fill:#231f20;fill-opacity:1;fill-rule:nonzero;stroke:none" id="path21863"/><path d="m 420.359,651.344 -8.171,4.574 -5.668,11.547 -2.29,19.711 7.958,-27.879 8.171,-7.953 0,0" style="fill:#231f20;fill-opacity:1;fill-rule:nonzero;stroke:none" id="path21865"/><path d="m 568.355,619.977 20.926,-22 3.379,-25.379 -6.867,26.578 -19.727,19.711 -6.972,15.031 0,19.715 3.597,-22 5.664,-11.656 0,0" style="fill:#231f20;fill-opacity:1;fill-rule:nonzero;stroke:none" id="path21867"/><path d="m 605.41,607.344 2.289,-9.367 0,-4.465 -4.578,0 2.289,3.375 -2.289,10.457 -19.723,26.574 -3.488,14.922 5.883,-14.922 19.617,-26.574 0,0" style="fill:#231f20;fill-opacity:1;fill-rule:nonzero;stroke:none" id="path21869"/><path d="m 360.203,608.434 8.176,-5.664 -5.887,0 -19.726,37.031 1.308,6.75 4.578,-14.918 11.551,-23.199 0,0" style="fill:#231f20;fill-opacity:1;fill-rule:nonzero;stroke:none" id="path21871"/><path d="m 294.27,605.055 -1.2,32.457 2.508,0 -1.308,-32.457 0,0" style="fill:#231f20;fill-opacity:1;fill-rule:nonzero;stroke:none" id="path21873"/><path d="m 313.996,579.68 -2.289,-16.336 -2.289,35.832 0,24.285 1.199,9.258 1.09,-46.285 2.289,-6.754 0,0" style="fill:#231f20;fill-opacity:1;fill-rule:nonzero;stroke:none" id="path21875"/><path d="m 438.777,601.68 14.059,-20.91 2.289,-12.743 -2.289,0 -3.594,16.118 -30.082,44 0,1.199 2.289,0 17.328,-27.664 0,0" style="fill:#231f20;fill-opacity:1;fill-rule:nonzero;stroke:none" id="path21877"/><path d="m 222.453,541.449 0,-1.304 -1.094,-1.09 8.176,40.625 5.883,14.922 3.379,3.375 -11.551,-32.239 -4.793,-24.289 0,0" style="fill:#231f20;fill-opacity:1;fill-rule:nonzero;stroke:none" id="path21879"/><path d="m 326.746,568.027 -2.289,-22.004 -4.578,-11.543 -2.504,-2.289 7.082,22 0,23.2 -3.488,10.238 0,4.684 1.199,0 4.578,-24.286 0,0" style="fill:#231f20;fill-opacity:1;fill-rule:nonzero;stroke:none" id="path21881"/><path d="m 377.422,557.68 -4.578,1.09 -11.551,18.621 8.172,-10.453 7.957,-9.258 0,0" style="fill:#231f20;fill-opacity:1;fill-rule:nonzero;stroke:none" id="path21883"/><path d="m 460.793,534.48 -1.199,-1.089 -24.301,29.953 -3.379,10.453 18.418,-26.574 10.461,-12.743 0,0" style="fill:#231f20;fill-opacity:1;fill-rule:nonzero;stroke:none" id="path21885"/><path d="m 344.074,539.055 -2.508,-11.547 -2.289,-2.285 -1.089,1.09 4.578,11.542 0,22 -1.2,10.458 2.508,-4.575 0,-26.683" style="fill:#231f20;fill-opacity:1;fill-rule:nonzero;stroke:none" id="path21887"/><path d="m 586.992,549.512 19.508,-37.032 5.887,-8.171 2.289,-26.575 -1.09,-6.75 -4.578,34.633 -10.461,18.406 -8.176,16.122 -4.578,8.168 -1.09,16.117 2.289,-4.575 0,-10.343" style="fill:#231f20;fill-opacity:1;fill-rule:nonzero;stroke:none" id="path21889"/><path d="m 614.676,539.055 2.285,-2.289 0,-1.09 -1.09,-1.196 -10.461,18.407 -2.289,9.258 4.578,-6.754 6.977,-16.336 0,0" style="fill:#231f20;fill-opacity:1;fill-rule:nonzero;stroke:none" id="path21891"/><path d="m 234.113,518.359 3.594,19.496 4.578,16.336 2.18,0 -10.352,-35.832 0,0" style="fill:#231f20;fill-opacity:1;fill-rule:nonzero;stroke:none" id="path21893"/><path d="m 554.516,527.508 -2.289,0 -4.684,17.426 -3.488,6.863 7.082,-9.149 3.379,-15.14 0,0" style="fill:#231f20;fill-opacity:1;fill-rule:nonzero;stroke:none" id="path21895"/><path d="m 390.172,512.48 2.508,4.79 3.379,-4.79 -5.887,0 0,0" style="fill:#94826f;fill-opacity:1;fill-rule:nonzero;stroke:none" id="path21897"/><path d="m 478.23,477.734 -1.089,-27.664 -1.418,27.664 -19.508,27.883 -1.09,6.863 1.09,3.375 3.379,-12.632 18.636,-25.489 0,0" style="fill:#231f20;fill-opacity:1;fill-rule:nonzero;stroke:none" id="path21899"/><path d="m 575.441,484.816 -1.199,-3.484 -1.09,-1.309 -9.371,25.594 -1.09,3.485 2.289,-1.196 10.461,-23.09 0,0" style="fill:#231f20;fill-opacity:1;fill-rule:nonzero;stroke:none" id="path21901"/><path d="m 448.043,470.984 0,-4.793 -6.867,20.911 -6.973,8.168 1.09,2.179 9.371,-12.633 3.379,-13.832 0,0" style="fill:#231f20;fill-opacity:1;fill-rule:nonzero;stroke:none" id="path21903"/><path d="m 397.148,477.734 0,-5.664 -5.886,7.953 -16.129,0 -3.379,-2.289 -2.289,-2.285 -2.504,0 0,2.285 9.371,5.883 6.977,0 1.199,1.199 0,1.086 -2.289,2.289 -9.375,-1.089 0,1.089 1.199,1.2 -4.578,2.175 -10.461,-2.175 -8.172,-4.575 -3.379,-4.793 -8.176,0 1.2,-1.089 0,-2.289 -1.2,-1.196 -8.172,5.883 -7.847,2.285 -30.188,-8.168 -4.578,-2.179 -1.09,0 4.578,4.464 30.188,7.082 10.355,-1.199 6.754,0 8.176,1.199 13.84,8.168 5.668,1.09 16.348,-4.683 13.839,-11.657 0,0" style="fill:#231f20;fill-opacity:1;fill-rule:nonzero;stroke:none" id="path21905"/><path d="m 264.301,474.359 5.664,-9.257 3.598,4.683 -3.598,4.574 0,1.09 1.308,1.196 6.868,-3.375 3.379,8.062 1.199,0 1.304,-1.309 -4.793,-12.632 -3.378,2.394 -2.289,-5.883 16.128,-1.086 3.379,-2.289 3.598,-3.375 -1.09,-3.703 -8.176,8.168 -10.461,-2.289 -3.378,-3.594 -5.883,7.082 -1.2,4.575 -12.644,10.343 -17.328,3.598 -1.09,0 -1.305,3.484 18.528,-4.793 11.66,-5.664 0,0" style="fill:#231f20;fill-opacity:1;fill-rule:nonzero;stroke:none" id="path21907"/><path d="m 577.621,423.605 1.199,-33.546 -3.379,-2.286 -1.199,-18.625 -2.398,24.29 -1.199,1.195 0,2.398 6.976,0 -2.18,28.754 -8.175,20.91 -32.477,32.239 0,4.683 34.766,-36.922 8.066,-23.09 0,0" style="fill:#231f20;fill-opacity:1;fill-rule:nonzero;stroke:none" id="path21909"/><path d="m 213.406,470.984 0,-1.199 -5.886,3.485 -7.954,1.089 -11.554,-4.574 -9.371,-6.969 -2.289,-2.289 0,3.375 19.617,11.547 4.687,1.196 7.953,-1.196 4.797,-4.465 0,0" style="fill:#231f20;fill-opacity:1;fill-rule:nonzero;stroke:none" id="path21911"/><path d="m 609.008,460.527 0,-4.793 -1.309,-1.089 -1.199,0 -3.379,12.746 -4.574,9.254 2.285,0 8.176,-16.118 0,0" style="fill:#231f20;fill-opacity:1;fill-rule:nonzero;stroke:none" id="path21913"/><path d="m 317.375,468.477 0,-1.086 -1.09,-1.2 -10.465,5.879 -13.84,-2.285 -3.488,-3.594 -1.09,0 -1.089,1.2 7.957,5.879 16.347,-1.2 6.758,-3.593 0,0" style="fill:#231f20;fill-opacity:1;fill-rule:nonzero;stroke:none" id="path21915"/><path d="m 360.203,423.605 4.578,-30.167 3.598,-6.754 -2.508,0 -3.379,10.347 -5.777,28.754 -15.149,20.91 -6.863,9.039 17.328,-18.406 8.172,-13.723 0,0" style="fill:#231f20;fill-opacity:1;fill-rule:nonzero;stroke:none" id="path21917"/><path d="m 381.02,426.98 5.773,-21.89 0,-1.199 -10.461,26.468 -12.75,13.832 4.797,-1.089 12.641,-16.122 0,0" style="fill:#231f20;fill-opacity:1;fill-rule:nonzero;stroke:none" id="path21919"/><path d="m 338.188,420.012 8.175,-25.379 1.09,-5.664 -10.465,25.379 1.2,1.09 -14.93,18.515 -11.551,9.149 13.84,-6.864 12.641,-16.226 0,0" style="fill:#231f20;fill-opacity:1;fill-rule:nonzero;stroke:none" id="path21921"/><path d="m 464.391,397.031 7.953,-16.23 2.289,-13.832 -2.289,-10.453 -2.289,-2.289 3.379,12.742 -9.043,27.664 -9.266,18.625 -4.793,16.012 -1.09,1.089 -1.199,6.969 1.199,0 15.149,-40.297 0,0" style="fill:#231f20;fill-opacity:1;fill-rule:nonzero;stroke:none" id="path21923"/><path d="m 175.262,433.953 0,-1.09 10.246,-3.593 6.972,-4.465 3.489,-7.082 15.148,3.593 5.668,7.954 10.461,5.878 23.106,-5.878 12.75,-9.258 9.261,-7.953 6.867,-18.621 -1.089,-10.348 -8.176,-9.149 1.308,-5.882 15.04,-10.457 2.179,-4.575 3.488,-3.375 2.29,2.289 0,1.086 1.308,0 1.09,-1.086 -4.688,-6.972 -4.578,-3.485 -1.089,1.2 3.378,5.879 -10.461,10.238 -3.378,0 -11.551,-18.406 -23.215,-18.625 -13.84,-4.575 -23.105,3.489 -16.129,9.257 -16.348,17.207 -5.773,15.247 3.488,29.953 16.129,24.285 4.683,3.379 -4.683,5.773 -6.867,3.485 -6.977,-2.29 -2.285,-4.464 -1.199,0 -2.289,2.289 8.062,10.343 2.399,0 -1.09,-1.195 0,0" style="fill:#231f20;fill-opacity:1;fill-rule:nonzero;stroke:none" id="path21925"/><path d="m 252.641,423.605 15.039,-12.632 6.972,-13.942 0,-11.547 -2.289,-3.593 -2.398,-2.286 -3.485,16.118 -16.128,15.25 -25.395,9.039 -9.262,1.304 4.575,6.754 6.976,2.289 13.84,-2.289 11.555,-4.465 0,0" style="fill:#625b57;fill-opacity:1;fill-rule:nonzero;stroke:none" id="path21927"/><path d="m 326.746,402.805 2.18,-11.657 0,-17.207 -3.379,25.375 -5.668,10.457 -11.551,10.239 0,1.304 7.957,-4.683 10.461,-13.828 0,0" style="fill:#231f20;fill-opacity:1;fill-rule:nonzero;stroke:none" id="path21929"/><path d="m 188.012,409.773 2.179,-4.683 4.579,0 4.796,6.969 7.954,3.379 16.347,0 25.395,-9.258 13.84,-13.832 2.289,-11.547 -1.09,-5.77 0,-2.179 -5.887,-3.704 0,-3.375 8.066,-1.089 2.29,-4.793 -1.09,-7.95 -22.016,-23.089 -15.039,-7.082 -22.016,1.199 -19.507,10.347 -8.172,8.168 -9.266,15.032 1.09,33.543 10.465,17.32 9.261,9.254 1.2,-1.195 -5.668,-5.665 0,0" style="fill:#625b57;fill-opacity:1;fill-rule:nonzero;stroke:none" id="path21931"/><path d="m 195.969,388.102 c 15.039,0.214 9.699,-25.817 -6.102,-21.895 l 2.395,10.02 c 2.398,5.773 3.16,5.554 3.707,11.875" style="fill:#423d3d;fill-opacity:1;fill-rule:nonzero;stroke:none" id="path21933"/><path d="m 237.164,364.902 c -1.855,-5.554 -1.746,-7.082 -2.289,-12.855 l 2.508,-5.445 c -3.707,-0.981 -7.195,-1.957 -10.246,0.328 -1.633,0.98 -4.684,9.91 -3.598,11.109 3.926,8.168 9.266,12.852 13.625,6.863" style="fill:#423d3d;fill-opacity:1;fill-rule:nonzero;stroke:none" id="path21935"/><path d="m 155.535,381.891 2.289,-9.039 -2.289,-11.653 -10.461,-9.258 -12.75,0 -11.554,3.375 -3.375,1.2 -9.375,12.632 0,11.653 12.75,11.547 10.464,3.375 14.93,-1.09 9.371,-12.742 0,0" style="fill:#231f20;fill-opacity:1;fill-rule:nonzero;stroke:none" id="path21937"/><path d="m 148.453,387.773 0,-1.089 2.508,-2.504 -5.887,2.504 -20.926,-1.2 -5.664,-2.394 -2.289,0 9.153,6.969 8.175,2.289 9.262,-1.2 5.668,-3.375 0,0" style="fill:#8f7e6d;fill-opacity:1;fill-rule:nonzero;stroke:none" id="path21939"/><path d="m 207.52,378.516 -4.575,-9.368 -6.976,-5.664 -5.778,1.2 -1.089,1.089 0,1.196 7.957,1.09 7.082,9.257 -1.196,5.774 -4.687,3.594 -1.199,0 -2.289,-2.504 0,4.789 7.082,-1.196 5.668,-9.257 0,0" style="fill:#231f20;fill-opacity:1;fill-rule:nonzero;stroke:none" id="path21941"/><path d="m 154.34,373.941 -11.555,-5.882 -22.015,3.375 -4.575,2.507 -2.398,3.375 15.148,4.575 18.418,-1.09 6.977,-6.86 0,0" style="fill:#ebb662;fill-opacity:1;fill-rule:nonzero;stroke:none" id="path21943"/><path d="m 150.305,375.031 c -2.942,-1.527 -5.883,-2.941 -8.828,-4.468 -5.664,0.871 -11.223,1.742 -16.891,2.617 -1.199,0.652 -2.289,1.195 -3.488,1.851 -0.653,0.871 -1.309,1.742 -1.852,2.614 3.813,1.195 7.738,2.394 11.551,3.484 4.797,-0.219 9.48,-0.543 14.168,-0.871 1.742,-1.742 3.598,-3.485 5.34,-5.227 l 0,0" style="fill:#f1cd8f;fill-opacity:1;fill-rule:nonzero;stroke:none" id="path21945"/><path d="m 146.273,376.117 c -1.96,-0.98 -4.031,-2.066 -6.101,-3.156 -3.926,0.652 -7.848,1.305 -11.774,1.852 -0.761,0.433 -1.632,0.871 -2.394,1.304 -0.438,0.656 -0.875,1.199 -1.309,1.852 2.614,0.765 5.34,1.636 8.063,2.398 3.269,-0.219 6.539,-0.328 9.808,-0.547 1.309,-1.195 2.508,-2.504 3.707,-3.703 l 0,0" style="fill:#f9e7c5;fill-opacity:1;fill-rule:nonzero;stroke:none" id="path21947"/><path d="m 142.352,377.207 -3.489,-1.742 -6.648,1.09 -1.309,0.652 -0.761,1.09 4.578,1.308 5.449,-0.328 2.18,-2.07 0,0" style="fill:#ffffff;fill-opacity:1;fill-rule:nonzero;stroke:none" id="path21949"/><path d="m 134.613,373.941 -2.289,-2.507 -3.379,0 -1.199,3.597 2.289,2.285 3.488,0 1.09,-3.375 0,0" style="fill:#231f20;fill-opacity:1;fill-rule:nonzero;stroke:none" id="path21951"/><path d="m 134.613,363.484 16.348,2.289 1.09,1.196 -1.09,-5.77 -8.176,-6.972 -20.922,3.375 -10.355,12.746 0,2.504 9.262,-7.079 13.843,-2.289 0,0" style="fill:#8f7e6d;fill-opacity:1;fill-rule:nonzero;stroke:none" id="path21953"/><path d="m 236.508,366.969 1.199,-1.196 -7.082,0 -4.469,-4.574 0,-11.547 3.379,-3.593 5.883,0 1.09,1.089 1.199,-1.089 -4.793,-2.286 -4.578,0 -5.883,7.079 1.414,11.543 5.668,6.753 6.973,-1.089 0,-1.09" style="fill:#231f20;fill-opacity:1;fill-rule:nonzero;stroke:none" id="path21955"/><path d="m 453.926,327.652 -2.504,-25.379 0,27.668 -11.336,25.375 6.867,-9.257 6.973,-18.407 0,0" style="fill:#231f20;fill-opacity:1;fill-rule:nonzero;stroke:none" id="path21957"/><path d="m 119.684,340.395 -8.176,5.664 -3.488,8.168 2.289,0 9.375,-13.832 0,0" style="fill:#231f20;fill-opacity:1;fill-rule:nonzero;stroke:none" id="path21959"/><path d="m 376.332,288.441 -3.488,-17.535 1.199,-20.801 -2.289,22 5.668,46.29 -1.09,10.457 -3.488,8.058 -3.379,13.942 1.199,1.089 9.266,-33.546 -3.598,-29.954 0,0" style="fill:#231f20;fill-opacity:1;fill-rule:nonzero;stroke:none" id="path21961"/><path d="m 341.566,329.941 0,-17.211 -3.378,-5.878 1.089,0 0,-1.2 -1.089,0 0,4.575 3.378,9.257 -6.863,19.711 -9.156,11.657 5.558,-3.704 10.461,-17.207 0,0" style="fill:#231f20;fill-opacity:1;fill-rule:nonzero;stroke:none" id="path21963"/><path d="m 272.363,319.484 9.157,-5.664 9.261,-12.742 0,-16.23 -5.668,-8.059 -15.148,-2.394 -10.242,2.394 -15.258,16.121 -4.469,12.742 1.09,8.168 7.086,5.664 13.84,2.286 3.379,-2.286 6.972,0 0,0" style="fill:#231f20;fill-opacity:1;fill-rule:nonzero;stroke:none" id="path21965"/><path d="m 279.23,310.227 8.172,-10.457 -1.089,-14.922 0,10.347 -11.661,13.832 -11.55,7.078 1.199,1.09 9.262,-2.285 5.667,-4.683 0,0" style="fill:#8f7e6d;fill-opacity:1;fill-rule:nonzero;stroke:none" id="path21967"/><path d="m 273.563,304.563 9.156,-12.743 -1.199,-3.379 0,-1.414 -7.957,0 -16.348,8.168 -11.551,12.743 2.508,6.972 10.242,-1.09 15.149,-9.257 0,0" style="fill:#ebb662;fill-opacity:1;fill-rule:nonzero;stroke:none" id="path21969"/><path d="m 270.402,304.891 c 2.289,-3.27 4.578,-6.536 6.977,-9.805 -0.328,-0.871 -0.656,-1.742 -0.875,-2.613 0,-0.328 0,-0.653 0,-0.981 -2.07,0 -4.141,0 -6.102,0 -4.25,2.071 -8.39,4.141 -12.531,6.207 -2.945,3.27 -5.887,6.535 -8.937,9.805 0.652,1.742 1.308,3.594 1.961,5.336 2.617,-0.328 5.23,-0.543 7.847,-0.871 3.813,-2.395 7.738,-4.793 11.66,-7.078 l 0,0" style="fill:#f1cd8f;fill-opacity:1;fill-rule:nonzero;stroke:none" id="path21971"/><path d="m 267.133,305.215 c 1.637,-2.285 3.269,-4.574 4.906,-6.86 -0.219,-0.546 -0.437,-1.199 -0.656,-1.742 0,-0.218 0,-0.547 0,-0.765 -1.418,0 -2.832,0 -4.25,0 -2.832,1.418 -5.778,2.941 -8.719,4.359 -1.961,2.285 -4.031,4.574 -6.101,6.75 0.433,1.309 0.871,2.508 1.308,3.813 1.852,-0.219 3.594,-0.434 5.449,-0.653 2.723,-1.633 5.45,-3.265 8.063,-4.902 l 0,0" style="fill:#f9e7c5;fill-opacity:1;fill-rule:nonzero;stroke:none" id="path21973"/><path d="m 263.973,305.543 2.726,-3.813 -0.328,-1.089 0,-0.325 -2.398,0 -4.903,2.395 -3.488,3.812 0.762,2.071 3.051,-0.328 4.578,-2.723 0,0" style="fill:#ffffff;fill-opacity:1;fill-rule:nonzero;stroke:none" id="path21975"/><path d="m 157.824,310.227 -1.199,-3.375 -8.172,-2.289 -7.957,1.089 -3.594,4.575 9.262,-3.375 11.66,3.375 0,0" style="fill:#231f20;fill-opacity:1;fill-rule:nonzero;stroke:none" id="path21977"/><path d="m 266.48,295.195 -3.378,2.289 -2.289,2.286 1.199,2.503 6.758,-1.195 -2.29,-5.883 0,0" style="fill:#231f20;fill-opacity:1;fill-rule:nonzero;stroke:none" id="path21979"/><path d="m 279.23,280.273 -7.957,-2.285 -10.46,3.375 -14.059,15.032 -1.09,4.683 16.348,-14.051 17.218,-6.754 0,0" style="fill:#8f7e6d;fill-opacity:1;fill-rule:nonzero;stroke:none" id="path21981"/><path d="m 436.488,246.621 -6.863,-19.715 -3.598,-3.375 10.461,27.664 -1.195,30.168 -5.668,12.742 1.199,2.29 6.754,-16.122 -1.09,-33.652 0,0" style="fill:#231f20;fill-opacity:1;fill-rule:nonzero;stroke:none" id="path21983"/><path d="m 552.227,245.531 -1.09,-1.09 2.289,13.832 -1.199,0 -6.973,27.665 1.09,0 7.082,-28.864 -1.199,-11.543 0,0" style="fill:#231f20;fill-opacity:1;fill-rule:nonzero;stroke:none" id="path21985"/><path d="m 201.852,266.441 -2.286,-2.503 -7.086,11.542 -1.089,5.883 6.867,-13.832 3.594,-1.09 0,0" style="fill:#231f20;fill-opacity:1;fill-rule:nonzero;stroke:none" id="path21987"/><path d="m 356.715,238.559 0,-12.743 -2.395,15.141 4.684,40.406 0,-16.117 -2.289,-26.687 0,0" style="fill:#231f20;fill-opacity:1;fill-rule:nonzero;stroke:none" id="path21989"/><path d="m 268.77,267.531 1.195,-1.09 0,-2.503 -9.152,0 -8.172,3.593 -1.09,2.289 12.75,-3.379 4.469,1.09 0,0" style="fill:#231f20;fill-opacity:1;fill-rule:nonzero;stroke:none" id="path21991"/><path d="m 527.926,204.035 1.199,0 0,-3.594 -1.199,0 0,27.883 -5.887,21.781 0,6.969 8.176,-35.832 -2.289,-17.207 0,0" style="fill:#231f20;fill-opacity:1;fill-rule:nonzero;stroke:none" id="path21993"/><path d="m 501.332,228.324 3.488,-14.051 -1.199,-13.832 -3.379,-10.457 -2.504,-2.285 5.883,18.621 -2.289,20.586 -3.594,11.653 2.504,9.257 1.09,-1.195 0,-18.297" style="fill:#231f20;fill-opacity:1;fill-rule:nonzero;stroke:none" id="path21995"/><path d="m 331.105,198.152 10.461,-19.711 7.086,-6.863 0,-1.199 -4.578,2.289 -9.371,12.742 -9.156,23.09 -6.977,22 5.887,-9.258 6.648,-23.09 0,0" style="fill:#231f20;fill-opacity:1;fill-rule:nonzero;stroke:none" id="path21997"/><path d="m 456.215,174.953 -2.289,-8.168 0,-3.375 1.199,26.574 -4.793,12.633 5.883,-7.949 0,-19.715" style="fill:#231f20;fill-opacity:1;fill-rule:nonzero;stroke:none" id="path21999"/><path d="m 377.422,172.668 4.797,-12.633 0,-1.199 -4.797,4.574 -2.289,8.168 -10.352,12.742 -2.289,8.063 1.09,2.285 4.797,-10.348 9.043,-11.652 0,0" style="fill:#231f20;fill-opacity:1;fill-rule:nonzero;stroke:none" id="path22001"/><path d="m 195.098,401.387 6.863,10.347 13.297,2.504 15.039,-2.504 13.73,-6.101 11.664,-8.059 7.629,-13.285 -2.945,-10.348 -8.172,-5.554 -15.91,2.176 -11.117,-1.743 -3.817,-8.168 1.2,-13.285 6.429,-4.683 12.098,2.504 4.687,9.91 11.551,9.476 8.176,-8.168 -10.246,-14.597 -18.09,-15.899 -23.539,-1.742 -23.215,10.348 -12.422,15.464 -4.687,14.157 -0.438,16.664 3.379,14.16 8.61,11.547 7.738,-4.684 0,-14.16 -6.43,-10.238 0.438,-9.477 2.07,-5.988 9.914,1.305 7.305,5.121 2.941,9.476 -3.812,8.93 -8.176,6.426 -1.742,8.168" style="fill:#625b57;fill-opacity:1;fill-rule:nonzero;stroke:none" id="path22003"/><path d="m 196.84,401.277 c 2.18,3.161 4.469,6.207 6.648,9.258 4.032,0.762 8.063,1.524 12.098,2.289 4.793,-0.871 9.59,-1.742 14.387,-2.722 4.355,-1.852 8.605,-3.813 12.968,-5.664 3.813,-2.723 7.52,-5.34 11.332,-8.063 2.29,-4.027 4.688,-8.168 6.977,-12.195 -0.766,-3.051 -1.527,-6.102 -2.289,-9.149 -2.398,-1.851 -4.797,-3.597 -7.195,-5.34 -5.121,0.657 -10.243,1.309 -15.364,2.071 -4.035,-0.653 -7.957,-1.309 -11.988,-1.961 -1.418,-2.942 -2.836,-5.988 -4.254,-8.93 0.219,-4.683 0.547,-9.367 0.875,-14.051 2.613,-1.742 5.121,-3.593 7.629,-5.336 4.25,0.981 8.609,1.961 12.859,2.832 1.633,3.266 3.379,6.536 5.122,9.801 3.378,2.942 6.757,5.883 10.246,8.824 2.285,-2.289 4.574,-4.574 6.863,-6.863 -3.16,-4.465 -6.32,-9.039 -9.59,-13.613 -5.559,-5.012 -11.223,-9.91 -16.781,-14.922 -7.629,-0.543 -15.149,-1.09 -22.778,-1.742 -7.519,3.484 -15.148,6.863 -22.777,10.238 -4.14,4.793 -8.285,9.582 -12.426,14.375 -1.742,4.574 -3.488,9.149 -5.23,13.723 -0.219,5.449 -0.328,10.894 -0.543,16.34 1.195,4.464 2.394,8.929 3.594,13.394 2.617,3.484 5.23,7.078 7.847,10.567 2.18,-1.2 4.469,-2.508 6.649,-3.813 -0.219,-4.141 -0.438,-8.387 -0.656,-12.523 -2.071,-3.489 -4.141,-7.082 -6.102,-10.676 0.109,-3.266 0.328,-6.535 0.437,-9.91 0.981,-2.18 1.961,-4.356 2.832,-6.536 3.489,0.329 6.977,0.762 10.465,1.09 2.504,1.852 5.012,3.703 7.52,5.555 1.305,3.375 2.504,6.859 3.812,10.238 -1.418,3.157 -2.726,6.426 -4.031,9.582 -2.617,2.071 -5.234,4.25 -7.738,6.317 -0.438,2.508 -0.981,5.011 -1.418,7.515" style="fill:#69615e;fill-opacity:1;fill-rule:nonzero;stroke:none" id="path22005"/><path d="m 198.582,401.277 c 2.074,2.723 4.254,5.446 6.324,8.168 3.703,0.657 7.301,1.309 10.895,1.852 4.578,-0.871 9.265,-1.742 13.844,-2.723 4.031,-1.851 8.062,-3.594 12.203,-5.445 3.707,-2.613 7.304,-5.227 11.007,-7.84 2.18,-3.703 4.25,-7.516 6.43,-11.219 -0.543,-2.722 -1.09,-5.336 -1.633,-8.058 -2.179,-1.637 -4.25,-3.379 -6.32,-5.012 -4.906,0.652 -9.918,1.305 -14.824,1.961 -4.25,-0.762 -8.61,-1.527 -12.86,-2.289 -1.632,-3.156 -3.16,-6.317 -4.683,-9.473 0.105,-5.011 0.324,-9.914 0.543,-14.812 2.945,-2.071 5.887,-4.141 8.828,-6.102 4.578,1.09 9.047,2.18 13.621,3.27 1.856,3.156 3.707,6.425 5.559,9.691 2.945,2.723 5.886,5.445 8.828,8.168 1.851,-1.851 3.816,-3.703 5.777,-5.555 -3.051,-4.246 -5.996,-8.492 -8.937,-12.742 -5.231,-4.574 -10.461,-9.258 -15.692,-13.941 -7.304,-0.543 -14.496,-1.09 -21.797,-1.742 -7.519,3.375 -14.933,6.754 -22.343,10.129 -4.141,4.464 -8.282,8.929 -12.422,13.398 -1.961,4.355 -3.817,8.711 -5.778,13.176 -0.218,5.34 -0.543,10.676 -0.761,16.011 1.199,4.141 2.507,8.387 3.812,12.633 2.399,3.16 4.797,6.426 7.195,9.696 1.743,-1.09 3.594,-2.071 5.45,-3.051 -0.438,-3.594 -0.871,-7.297 -1.418,-10.891 -1.852,-3.703 -3.817,-7.297 -5.668,-11 0.218,-3.484 0.328,-6.972 0.547,-10.457 1.199,-2.285 2.394,-4.683 3.484,-6.969 3.707,0.215 7.414,0.434 11.117,0.762 2.508,1.961 5.121,3.922 7.629,5.988 1.527,3.704 3.051,7.407 4.578,11.11 -1.418,3.379 -2.836,6.754 -4.25,10.023 -2.398,2.067 -4.797,4.246 -7.301,6.317 -0.328,2.285 -0.656,4.574 -0.984,6.968" style="fill:#6f6662;fill-opacity:1;fill-rule:nonzero;stroke:none" id="path22007"/><path d="m 200.328,401.168 c 1.961,2.398 4.031,4.793 6.102,7.187 3.16,0.547 6.429,0.981 9.699,1.528 4.359,-0.981 8.719,-1.852 13.187,-2.832 3.817,-1.742 7.629,-3.485 11.446,-5.227 3.593,-2.508 7.191,-5.121 10.789,-7.625 1.851,-3.379 3.703,-6.863 5.664,-10.238 -0.324,-2.289 -0.652,-4.574 -0.981,-6.973 -1.742,-1.523 -3.593,-3.156 -5.339,-4.789 -4.793,0.653 -9.481,1.305 -14.278,1.961 -4.574,-0.875 -9.152,-1.746 -13.73,-2.508 -1.742,-3.375 -3.489,-6.859 -5.231,-10.238 0.11,-5.226 0.219,-10.344 0.328,-15.574 3.375,-2.285 6.645,-4.574 10.024,-6.75 4.797,1.195 9.59,2.394 14.277,3.594 2.07,3.156 4.031,6.425 6.102,9.582 2.398,2.507 4.906,5.121 7.414,7.625 1.523,-1.418 3.051,-2.832 4.574,-4.246 -2.723,-3.922 -5.555,-7.844 -8.281,-11.766 -4.797,-4.356 -9.59,-8.711 -14.387,-13.07 -6.973,-0.543 -14.059,-1.086 -21.031,-1.743 -7.305,3.379 -14.606,6.754 -21.906,10.024 -4.141,4.137 -8.282,8.277 -12.422,12.414 -2.075,4.141 -4.145,8.387 -6.215,12.633 -0.324,5.23 -0.653,10.457 -0.981,15.683 1.309,3.922 2.618,7.844 3.926,11.766 2.18,2.941 4.356,5.879 6.535,8.82 1.418,-0.761 2.946,-1.414 4.364,-2.179 -0.657,-3.047 -1.309,-6.207 -2.075,-9.258 -1.742,-3.809 -3.593,-7.512 -5.339,-11.324 0.218,-3.704 0.437,-7.297 0.656,-11 1.414,-2.508 2.832,-5.012 4.25,-7.516 3.812,0.109 7.738,0.328 11.66,0.543 2.617,2.07 5.121,4.25 7.738,6.426 1.852,3.922 3.598,7.953 5.34,11.98 -1.418,3.488 -2.941,6.973 -4.359,10.567 -2.289,2.07 -4.578,4.136 -6.868,6.097 -0.218,2.18 -0.433,4.25 -0.652,6.426" style="fill:#786e68;fill-opacity:1;fill-rule:nonzero;stroke:none" id="path22009"/><path d="m 201.961,401.059 c 1.965,2.07 3.926,4.14 5.887,6.211 2.832,0.324 5.668,0.761 8.5,1.195 4.14,-0.981 8.39,-1.957 12.64,-2.938 3.489,-1.636 7.086,-3.379 10.575,-5.011 3.593,-2.504 7.082,-4.903 10.57,-7.407 1.633,-3.05 3.379,-6.097 5.012,-9.257 -0.11,-1.852 -0.219,-3.813 -0.325,-5.774 -1.418,-1.523 -2.836,-3.047 -4.359,-4.574 -4.578,0.656 -9.156,1.199 -13.734,1.851 -4.903,-0.98 -9.809,-1.851 -14.602,-2.722 -1.855,-3.703 -3.707,-7.297 -5.668,-10.891 0,-5.554 0,-11 0,-16.445 3.703,-2.508 7.41,-5.012 11.227,-7.406 5.011,1.304 10.023,2.613 15.039,3.918 2.179,3.16 4.359,6.32 6.429,9.476 2.071,2.399 4.141,4.684 6.102,7.082 1.199,-0.98 2.289,-2.07 3.379,-3.051 -2.508,-3.593 -5.012,-7.187 -7.52,-10.781 -4.468,-4.031 -8.828,-8.062 -13.187,-12.09 -6.758,-0.547 -13.512,-1.09 -20.27,-1.742 -7.086,3.375 -14.277,6.641 -21.359,10.02 -4.145,3.703 -8.285,7.515 -12.535,11.324 -2.18,4.031 -4.469,8.062 -6.758,12.09 -0.324,5.121 -0.762,10.238 -1.09,15.359 1.418,3.594 2.727,7.297 4.145,11 1.961,2.613 3.921,5.227 5.773,7.84 1.09,-0.434 2.18,-0.871 3.27,-1.305 -0.872,-2.504 -1.852,-5.121 -2.723,-7.625 -1.637,-3.922 -3.379,-7.84 -5.016,-11.652 0.219,-3.813 0.438,-7.734 0.766,-11.547 1.633,-2.613 3.269,-5.336 4.902,-8.059 4.032,0.11 8.176,0.219 12.207,0.325 2.723,2.289 5.34,4.578 7.953,6.863 2.075,4.25 4.145,8.496 6.106,12.852 -1.527,3.703 -2.942,7.296 -4.469,11 -2.18,2.07 -4.359,4.14 -6.43,6.101 -0.109,1.961 -0.328,3.809 -0.437,5.77" style="fill:#7e746d;fill-opacity:1;fill-rule:nonzero;stroke:none" id="path22011"/><path d="m 203.707,400.949 5.559,5.121 7.3,0.871 11.989,-2.941 9.918,-4.793 10.351,-7.297 4.25,-8.058 0.438,-4.793 -3.489,-4.246 -13.296,1.742 -15.368,-3.051 -6.101,-11.543 -0.328,-17.211 12.425,-8.059 15.801,4.25 6.867,9.473 4.797,6.426 2.071,-1.742 -6.868,-9.91 -11.988,-11.11 -19.289,-1.742 -21.035,9.91 -12.422,10.238 -7.301,11.653 -1.308,14.922 4.25,10.347 5.23,6.864 2.07,-0.438 -3.378,-5.992 -4.684,-11.977 0.762,-12.09 5.668,-8.496 12.859,0 8.172,7.297 6.867,13.614 -4.797,11.652 -5.992,5.992 0,5.117" style="fill:#857a71;fill-opacity:1;fill-rule:nonzero;stroke:none" id="path22013"/><path d="m 226.918,425.02 c 6.324,0.765 6.324,-0.11 11.879,-2.286 15.914,-6.207 30.082,-9.148 31.277,-28.972 l -0.543,-0.11 c -4.14,7.953 -6.539,13.071 -15.476,16.993 -9.262,4.355 -17.653,10.671 -27.137,14.375" style="fill:#857a71;fill-opacity:1;fill-rule:nonzero;stroke:none" id="path22015"/><path d="m 244.465,267.531 -3.379,1.09 0,0.109 2.289,0 1.09,-1.199 0,0 z m -115.52,59.684 -2.941,2.726 7.519,0 0,-1.089 -1.199,-1.2 -3.379,-0.437" style="fill:#231f20;fill-opacity:1;fill-rule:nonzero;stroke:none" id="path22017"/><path d="m 256.453,765.379 c 6.43,-2.18 8.5,-6.754 9.699,-12.961 0.438,-2.617 3.707,-9.477 2.942,-11.547 l -0.324,0 c -0.875,2.289 -2.618,4.684 -3.926,6.754 -2.18,4.137 -1.633,7.949 -4.141,11.762 -1.418,2.289 -2.398,3.922 -4.25,5.992" style="fill:#abaab4;fill-opacity:1;fill-rule:nonzero;stroke:none" id="path22019"/><path d="m 273.234,772.238 c 5.778,-5.008 11.336,-15.465 11.555,-23.09 0,-2.285 1.09,-8.82 0.109,-10.671 -0.656,1.414 -1.527,3.375 -1.855,4.902 -1.523,10.781 -5.34,18.949 -9.809,28.859" style="fill:#abaab4;fill-opacity:1;fill-rule:nonzero;stroke:none" id="path22021"/><path d="m 317.809,779.102 c 6.867,-9.258 11.336,-17.317 10.027,-29.192 l -0.219,0 c -2.832,9.805 -6.758,19.281 -9.808,29.192" style="fill:#abaab4;fill-opacity:1;fill-rule:nonzero;stroke:none" id="path22023"/><path d="m 329.906,786.398 c 7.082,-6.316 14.496,-24.289 11.551,-33.546 l -0.215,0 c -3.379,11.546 -6.215,22.656 -11.336,33.546" style="fill:#abaab4;fill-opacity:1;fill-rule:nonzero;stroke:none" id="path22025"/><path d="m 35.2227,677.266 28.7695,7.625 c 12.0976,2.394 25.0664,4.355 36.5078,8.929 3.488,1.309 6.648,3.375 9.047,6.207 3.922,4.578 5.668,10.895 10.461,14.379 11.66,8.387 34.222,5.008 48.172,4.465 21.468,0.762 43.047,1.309 63.535,8.93 5.012,1.851 9.371,5.23 14.387,7.297 1.742,0.761 3.593,0.656 5.449,0.875 l 0.433,-1.309 c -1.632,-0.871 -3.379,-1.523 -4.793,-2.613 -4.468,-3.051 -8.285,-7.192 -13.078,-9.805 -5.996,-3.156 -12.535,-5.117 -18.965,-7.078 -24.738,-8.059 -50.019,-8.168 -75.742,-8.93 -4.031,-0.547 -8.281,-0.871 -11.551,-3.16 -3.921,-2.723 -5.121,-8.058 -8.5,-11.433 -10.246,-10.129 -23.7573,-11.657 -37.4917,-13.727 -15.582,-1.852 -31.168,-4.137 -46.6406,-6.969 l 0,6.317" style="fill:#a89e85;fill-opacity:1;fill-rule:nonzero;stroke:none" id="path22027"/><path d="m 302.441,728.457 c -1.304,5.555 -3.593,10.891 -1.304,16.117 1.304,3.379 5.449,4.141 8.718,5.555 1.524,-1.09 2.942,-6.859 2.395,-8.711 -1.414,-5.559 -5.664,-8.934 -9.809,-12.961" style="fill:#a89e85;fill-opacity:1;fill-rule:nonzero;stroke:none" id="path22029"/><path d="m 358.895,749.91 c -0.653,6.426 -1.305,11.875 2.179,17.32 1.09,1.743 3.922,1.305 5.559,1.524 0.871,-1.742 2.617,-3.484 2.18,-5.336 -1.309,-6.102 -5.231,-9.477 -9.918,-13.508" style="fill:#a89e85;fill-opacity:1;fill-rule:nonzero;stroke:none" id="path22031"/><path d="m 429.297,770.496 c 2.941,5.555 5.012,11.762 10.355,15.031 5.774,3.594 13.293,3.157 19.614,5.555 9.589,3.594 20.925,12.633 31.277,12.633 6.539,0 12.645,-3.156 18.309,-6.426 1.308,-0.762 1.746,-2.394 2.617,-3.594 l -1.309,-1.851 c -5.992,2.07 -12.312,3.594 -18.633,2.07 -4.25,-1.09 -7.519,-4.684 -11.445,-6.863 -5.449,-3.266 -11.008,-6.645 -17.219,-8.059 -6.539,-1.418 -13.406,0.324 -19.945,-1.308 -5.012,-1.196 -9.152,-4.684 -13.621,-7.188" style="fill:#a89e85;fill-opacity:1;fill-rule:nonzero;stroke:none" id="path22033"/><path d="m 574.352,809.922 c 4.359,5.121 8.171,10.894 14.492,13.398 7.847,3.051 16.785,2.071 24.957,3.922 5.996,1.742 12.426,3.918 18.965,5.879 l 1.632,-2.504 0,0 1.637,-10.566 c -6.867,-2.395 -13.84,-4.356 -20.597,-5.117 -8.176,-0.871 -16.567,1.414 -24.739,0.543 -5.777,-0.653 -10.898,-3.594 -16.347,-5.555" style="fill:#a89e85;fill-opacity:1;fill-rule:nonzero;stroke:none" id="path22035"/></g></g></svg>