<?xml version="1.0" encoding="UTF-8" standalone="no"?>
<!-- Created with Inkscape (http://www.inkscape.org/) -->
<svg xmlns:dc="http://purl.org/dc/elements/1.1/" xmlns:cc="http://creativecommons.org/ns#" xmlns:rdf="http://www.w3.org/1999/02/22-rdf-syntax-ns#" xmlns:svg="http://www.w3.org/2000/svg" xmlns="http://www.w3.org/2000/svg" xmlns:sodipodi="http://sodipodi.sourceforge.net/DTD/sodipodi-0.dtd" xmlns:inkscape="http://www.inkscape.org/namespaces/inkscape" width="1185" height="1427.8572" id="svg2" sodipodi:version="0.32" inkscape:version="0.46" version="1.0" sodipodi:docname="squirrel.svg" inkscape:output_extension="org.inkscape.output.svg.inkscape">
  <defs id="defs4">
    <inkscape:perspective sodipodi:type="inkscape:persp3d" inkscape:vp_x="0 : 526.18109 : 1" inkscape:vp_y="0 : 1000 : 0" inkscape:vp_z="744.09448 : 526.18109 : 1" inkscape:persp3d-origin="372.04724 : 350.78739 : 1" id="perspective10"/>
    <inkscape:perspective id="perspective2450" inkscape:persp3d-origin="372.04724 : 350.78739 : 1" inkscape:vp_z="744.09448 : 526.18109 : 1" inkscape:vp_y="0 : 1000 : 0" inkscape:vp_x="0 : 526.18109 : 1" sodipodi:type="inkscape:persp3d"/>
  </defs>
  <sodipodi:namedview id="base" pagecolor="#ffffff" bordercolor="#666666" borderopacity="1.0" gridtolerance="10000" guidetolerance="10" objecttolerance="10" inkscape:pageopacity="0.0" inkscape:pageshadow="2" inkscape:zoom="0.25" inkscape:cx="533.59949" inkscape:cy="726.71989" inkscape:document-units="px" inkscape:current-layer="layer1" showgrid="false" inkscape:window-width="1280" inkscape:window-height="746" inkscape:window-x="0" inkscape:window-y="32"/>
  <metadata id="metadata7">
    <rdf:RDF>
      <cc:Work rdf:about="">
        <dc:format>image/svg+xml</dc:format>
        <dc:type rdf:resource="http://purl.org/dc/dcmitype/StillImage"/>
      </cc:Work>
    </rdf:RDF>
  </metadata>
  <g inkscape:label="Layer 1" inkscape:groupmode="layer" id="layer1" transform="translate(255.35714,618.70925)">
    <path style="fill:#784421;fill-rule:evenodd;stroke:#000000;stroke-width:5;stroke-linecap:butt;stroke-linejoin:miter;stroke-miterlimit:4;stroke-dasharray:none;stroke-opacity:1" d="M 581.42857,763.79075 L 602.85714,778.07647 L 594.28571,750.93361 L 582.85714,728.07647 L 561.42857,713.79075 L 550,708.07647 L 528.57143,676.6479 L 520,659.50504 L 515.71429,646.6479 L 514.28571,635.21933 L 514.28571,628.07647 L 517.14286,625.21933 L 522.85714,628.07647 L 528.57143,632.36218 L 530,619.50504 L 537.14286,596.6479 L 538.57143,589.50504 L 551.42857,569.50504 L 568.57143,552.36218 L 581.42857,556.6479 L 590,562.36218 L 618.57143,582.36218 L 642.85714,593.79075 L 682.85714,608.07647 L 717.14286,616.6479 L 757.14286,632.36218 L 787.14286,643.79075 L 811.42857,646.6479 L 832.85714,642.36218 L 845.71429,636.6479 L 860,632.36218 L 881.42857,623.79075 L 894.28571,612.36218 L 895.71429,599.50504 L 897.14286,595.21933 L 904.28571,599.50504 L 922.85714,610.93361 L 927.14286,612.36218 L 922.85714,596.6479 L 910,586.6479 L 914.28571,583.79075 L 918.57143,583.79075 L 914.28571,576.6479 L 907.14286,568.07647 L 900,563.79075 L 892.85714,555.21933 L 891.42857,550.93361 L 891.42857,530.93361 L 891.42857,502.36218 L 890,468.07647 L 885.71429,436.6479 L 875.71429,413.79075 L 861.42857,398.07647 L 848.57143,383.79075 L 832.85714,369.50504 L 815.71429,348.07647 L 810,332.36218 L 808.57143,315.21933 L 814.28571,300.93361 L 815.71429,260.93361 L 811.42857,216.6479 L 810,172.36218 L 798.57143,123.79075 L 785.71429,88.076468 L 774.28571,62.362182 L 768.57143,32.362182 L 768.57143,29.505039 L 764.28571,40.933611 L 761.42857,46.647896 L 758.57143,36.647896 L 757.14286,30.933611 L 747.14286,18.076468 L 737.14286,8.0764678 L 744.28571,30.933611 L 745.71429,50.933611 L 741.42857,48.076468 L 750,66.647896 L 750,99.505039 L 752.85714,119.50504 L 748.57143,113.79075 L 747.14286,119.50504 L 754.28571,132.36218 L 757.14286,170.93361 L 755.71429,199.50504 L 755.71429,219.50504 L 734.28571,183.79075 L 730,170.93361 L 731.42857,196.6479 L 740,229.50504 L 742.85714,243.79075 L 740,256.6479 L 732.85714,248.07647 L 732.85714,263.79075 L 730,269.50504 L 718.57143,255.21933 L 712.85714,252.36218 L 708.57143,250.93361 L 710,260.93361 L 704.28571,262.36218 L 701.42857,260.93361 L 702.85714,268.07647 L 700,272.36218 L 698.57143,276.6479 L 694.28571,278.07647 L 692.85714,276.6479 L 684.28571,246.6479 L 671.42857,199.50504 L 655.71429,156.6479 L 641.42857,116.6479 L 627.14286,90.933611 L 625.71429,75.219325 L 612.85714,50.933611 L 614.28571,70.933611 L 604.28571,60.933611 L 591.42857,46.647896 L 598.57143,69.505039 L 585.71429,59.505039 L 598.57143,95.219325 L 605.71429,116.6479 L 610,129.50504 L 594.28571,115.21932 L 601.42857,129.50504 L 611.42857,155.21933 L 595.71429,135.21932 L 580,110.93361 L 561.42857,90.933611 L 555.71429,89.505039 L 560,110.93361 L 567.14286,128.07647 L 580,159.50504 L 585.71429,172.36218 L 565.71429,146.6479 L 555.71429,140.93361 L 558.57143,155.21933 L 551.42857,152.36218 L 558.57143,166.6479 L 567.14286,185.21933 L 574.28571,199.50504 L 575.71429,216.6479 L 560,195.21933 L 550,182.36218 L 542.85714,178.07647 L 557.14286,200.93361 L 571.42857,225.21933 L 577.14286,245.21933 L 577.14286,256.6479 L 557.14286,255.21933 L 527.14286,248.07647 L 497.14286,233.79075 L 441.42857,209.50504 L 402.85714,193.79075 L 367.14286,182.36218 L 325.71429,175.21933 L 288.57143,178.07647 L 240,185.21933 L 204.28571,196.6479 L 172.85714,212.36218 L 168.57143,208.07647 L 171.42857,183.79075 L 178.57143,160.93361 L 181.42857,148.07647 L 187.14286,133.79075 L 201.42857,139.50504 L 214.28571,143.79075 L 220,143.79075 L 221.42857,139.50504 L 230,142.36218 L 237.14286,140.93361 L 241.42857,140.93361 L 240,132.36218 L 240,128.07647 L 247.14286,128.07647 L 271.42857,135.21932 L 281.42857,133.79075 L 281.42857,125.21932 L 287.14286,120.93361 L 298.57143,126.6479 L 302.85714,132.36218 L 305.71429,90.933611 L 307.14286,100.93361 L 317.14286,103.79075 L 330,110.93361 L 340,115.21932 L 342.85714,112.36218 L 340,99.505039 L 342.85714,92.362182 L 347.14286,85.219325 L 355.71429,86.647896 L 362.85714,90.933611 L 368.57143,86.647896 L 368.57143,82.362182 L 374.28571,72.362182 L 382.85714,63.790754 L 390,62.362182 L 407.14286,62.362182 L 418.57143,53.790754 L 432.85714,56.647896 L 440,49.505039 L 448.57143,43.790754 L 442.85714,40.933611 L 448.57143,26.647896 L 461.42857,15.219325 L 470,16.647896 L 480,8.0764678 L 495.71429,-1.9235322 L 480,-3.3521037 L 477.14286,-9.0663894 L 485.71429,-9.0663894 L 520,-17.637818 L 535.71429,-27.637818 L 537.14286,-34.780675 L 514.28571,-33.352104 L 502.85714,-33.352104 L 517.14286,-41.923532 L 524.28571,-46.209247 L 532.85714,-51.923532 L 545.71429,-64.780675 L 554.28571,-70.494961 L 561.42857,-83.352104 L 571.42857,-96.209247 L 572.85714,-107.63782 L 561.42857,-99.066389 L 542.85714,-93.352104 L 522.85714,-84.780675 L 511.42857,-84.780675 L 527.14286,-96.209247 L 542.85714,-107.63782 L 560,-119.06639 L 575.71429,-129.06639 L 594.28571,-150.49496 L 595.71429,-156.20925 L 562.85714,-139.06639 L 547.14286,-131.92353 L 535.71429,-130.49496 L 574.28571,-147.63782 L 587.14286,-166.20925 L 604.28571,-190.49496 L 615.71429,-244.78068 L 594.28571,-193.3521 L 582.85714,-189.06639 L 590,-209.06639 L 600,-237.63782 L 592.85714,-234.78068 L 570,-223.3521 L 580,-236.20925 L 588.57143,-264.78068 L 567.14286,-244.78068 L 558.57143,-239.06639 L 545.71429,-229.06639 L 521.42857,-214.78068 L 540,-240.49496 L 564.28571,-280.49496 L 567.14286,-290.49496 L 557.14286,-289.06639 L 557.14286,-301.92353 L 544.28571,-299.06639 L 531.42857,-299.06639 L 552.85714,-316.20925 L 552.85714,-324.78068 L 542.85714,-320.49496 L 550,-334.78068 L 548.57143,-351.92353 L 537.14286,-339.06639 L 527.14286,-333.3521 L 537.14286,-357.63782 L 545.71429,-393.3521 L 532.85714,-364.78068 L 524.28571,-351.92353 L 502.85714,-326.20925 L 490,-299.06639 L 495.71429,-331.92353 L 511.42857,-391.92353 L 508.57143,-407.63782 L 502.85714,-377.63782 L 487.14286,-347.63782 L 482.85714,-346.20925 L 492.85714,-381.92353 L 491.42857,-394.78068 L 487.14286,-399.06639 L 480,-380.49496 L 478.57143,-406.20925 L 482.85714,-426.20925 L 481.42857,-454.78068 L 462.85714,-411.92353 L 462.85714,-441.92353 L 457.14286,-431.92353 L 450,-406.20925 L 440,-393.3521 L 434.28571,-386.20925 L 434.28571,-406.20925 L 437.14286,-441.92353 L 437.14286,-461.92353 L 422.85714,-441.92353 L 427.14286,-464.78068 L 425.71429,-484.78068 L 414.28571,-471.92353 L 408.57143,-449.06639 L 398.57143,-430.49496 L 388.57143,-420.49496 L 387.14286,-447.63782 L 390,-483.3521 L 388.57143,-516.20925 L 384.28571,-513.3521 L 378.57143,-500.49496 L 365.71429,-483.3521 L 370,-519.06639 L 347.14286,-541.92353 L 352.85714,-521.92353 L 351.42857,-497.63782 L 351.42857,-497.63782 L 348.57143,-486.20925 L 340,-523.3521 L 331.42857,-537.63782 L 330,-521.92353 L 331.42857,-491.92353 L 330,-484.78068 L 317.14286,-514.78068 L 305.71429,-534.78068 L 294.28571,-541.92353 L 288.57143,-543.3521 L 288.57143,-531.92353 L 287.14286,-519.06639 L 272.85714,-539.06639 L 258.57143,-543.3521 L 252.85714,-543.3521 L 255.71429,-531.92353 L 258.57143,-507.63782 L 258.57143,-486.20925 L 260,-447.63782 L 258.57143,-419.06639 L 258.57143,-417.63782 L 242.85714,-470.49496 L 237.14286,-494.78068 L 215.71429,-534.78068 L 204.28571,-546.20925 L 192.85714,-549.06639 L 202.85714,-527.63782 L 205.71429,-509.06639 L 210,-486.20925 L 197.14286,-520.49496 L 175.71429,-546.20925 L 158.57143,-550.49496 L 174.28571,-530.49496 L 188.57143,-503.3521 L 190,-489.06639 L 172.85714,-506.20925 L 162.85714,-530.49496 L 145.71429,-554.78068 L 107.14286,-567.63782 L 92.857143,-574.78068 L 87.142857,-576.20925 L 92.857143,-567.63782 L 95.714286,-559.06639 L 77.142857,-567.63782 L 30,-586.20925 L 1.4285714,-590.49496 L 14.285714,-581.92353 L 17.142857,-574.78068 L -40,-603.3521 L -82.857143,-610.49496 L -70,-606.20925 L -60,-597.63782 L -60,-590.49496 L -70,-599.06639 L -105.71429,-613.3521 L -118.57143,-616.20925 L -108.57143,-604.78068 L -100,-599.06639 L -94.285714,-589.06639 L -122.85714,-593.3521 L -144.28571,-593.3521 L -135.71429,-589.06639 L -130,-581.92353 L -122.85714,-571.92353 L -150,-567.63782 L -162.85714,-566.20925 L -170,-560.49496 L -154.28571,-556.20925 L -141.42857,-549.06639 L -134.28571,-541.92353 L -130,-537.63782 L -122.85714,-534.78068 L -140,-539.06639 L -167.14286,-543.3521 L -190,-546.20925 L -195.71429,-543.3521 L -181.42857,-540.49496 L -170,-534.78068 L -142.85714,-524.78068 L -134.28571,-517.63782 L -152.85714,-521.92353 L -178.57143,-523.3521 L -171.42857,-513.3521 L -160,-504.78068 L -177.14286,-504.78068 L -184.28571,-500.49496 L -178.57143,-490.49496 L -165.71429,-474.78068 L -167.14286,-467.63782 L -185.71429,-474.78068 L -187.14286,-474.78068 L -181.42857,-467.63782 L -175.71429,-459.06639 L -191.42857,-457.63782 L -207.14286,-456.20925 L -234.28571,-454.78068 L -241.42857,-457.63782 L -222.85714,-443.3521 L -242.85714,-431.92353 L -251.42857,-424.78068 L -252.85714,-421.92353 L -244.28571,-416.20925 L -247.14286,-409.06639 L -252.85714,-406.20925 L -225.71429,-381.92353 L -188.57143,-356.20925 L -161.42857,-337.63782 L -144.28571,-329.06639 L -171.42857,-330.49496 L -178.57143,-330.49496 L -185.71429,-329.06639 L -177.14286,-314.78068 L -188.57143,-306.20925 L -191.42857,-306.20925 L -181.42857,-299.06639 L -155.71429,-279.06639 L -148.57143,-264.78068 L -154.28571,-257.63782 L -160,-257.63782 L -144.28571,-243.3521 L -125.71429,-233.3521 L -111.42857,-217.63782 L -81.428571,-207.63782 L -64.285714,-200.49496 L -97.142857,-201.92353 L -124.28571,-199.06639 L -142.85714,-196.20925 L -112.85714,-180.49496 L -77.142857,-170.49496 L -57.142857,-164.78068 L -17.142857,-156.20925 L 12.857143,-150.49496 L -17.142857,-146.20925 L -42.857143,-143.3521 L -54.285714,-139.06639 L -24.285714,-120.49496 L -20,-109.06639 L -5.7142857,-89.066389 L 1.4285714,-71.923532 L -17.142857,-70.494961 L -17.142857,-59.066389 L -37.142857,-69.066389 L -90,-109.06639 L -102.85714,-116.20925 L -91.428571,-86.209247 L -92.857143,-74.780675 L -101.42857,-77.637818 L -107.14286,-80.494961 L -130,-83.352104 L -122.85714,-73.352104 L -124.28571,-66.209247 L -130,-61.923532 L -134.28571,-60.494961 L -114.28571,-37.637818 L -112.85714,-26.209247 L -125.71429,-31.923532 L -147.14286,-40.494961 L -157.14286,-40.494961 L -134.28571,-21.923532 L -125.71429,-10.494961 L -141.42857,-10.494961 L -152.85714,-9.0663894 L -147.14286,3.7907535 L -147.14286,16.647896 L -151.42857,19.505039 L -141.42857,35.219325 L -137.14286,43.790754 L -140,55.219325 L -147.14286,60.933611 L -132.85714,73.790754 L -147.14286,75.219325 L -135.71429,86.647896 L -127.14286,96.647896 L -120,106.6479 L -132.85714,115.21932 L -138.57143,116.6479 L -124.28571,125.21932 L -115.71429,129.50504 L -98.571429,148.07647 L -87.142857,163.79075 L -71.428571,176.6479 L -40,193.79075 L -14.285714,206.6479 L -22.857143,213.79075 L -14.285714,220.93361 L -11.428571,223.79075 L -5.7142857,236.6479 L -8.5714286,240.93361 L 8.5714286,253.79075 L 17.142857,268.07647 L 12.857143,278.07647 L 15.714286,288.07647 L 32.857143,298.07647 L 37.142857,318.07647 L 31.428571,322.36218 L 27.142857,340.93361 L 25.714286,373.79075 L 31.428571,398.07647 L 35.714286,436.6479 L 42.857143,468.07647 L 44.285714,499.50504 L 52.857143,528.07647 L 62.857143,553.79075 L 72.857143,563.79075 L 87.142857,582.36218 L 94.285714,595.21933 L 114.28571,605.21933 L 131.42857,599.50504 L 157.14286,606.6479 L 211.42857,620.93361 L 248.57143,620.93361 L 260,618.07647 L 268.57143,615.21933 L 254.28571,608.07647 L 258.57143,603.79075 L 251.42857,598.07647 L 241.42857,593.79075 L 231.42857,588.07647 L 242.85714,586.6479 L 244.28571,582.36218 L 224.28571,570.93361 L 202.85714,572.36218 L 177.14286,569.50504 L 164.28571,565.21933 L 207.14286,572.36218 L 232.85714,575.21933 L 250,578.07647 L 270,575.21933 L 285.71429,569.50504 L 297.14286,566.6479 L 310,562.36218 L 324.28571,560.93361 L 334.28571,560.93361 L 324.28571,553.79075 L 314.28571,545.21933 L 304.28571,535.21933 L 294.28571,528.07647 L 317.14286,548.07647 L 338.57143,563.79075 L 362.85714,596.6479 L 395.71429,646.6479 L 410,666.6479 L 442.85714,703.79075 L 471.42857,729.50504 L 485.71429,752.36218 L 495.71429,785.21933 L 502.85714,783.79075 L 508.57143,770.93361 L 511.42857,762.36218 L 511.42857,752.36218 L 525.71429,766.6479 L 528.57143,783.79075 L 550,806.6479 L 554.28571,796.6479 L 557.14286,782.36218 L 557.14286,772.36218 L 558.57143,765.21933 L 577.14286,785.21933 L 590,792.36218 L 587.14286,779.50504 L 582.85714,772.36218 L 581.42857,763.79075 z" id="path2456"/>
    <path style="fill:#a05a2c;fill-rule:evenodd;stroke:none;stroke-width:5;stroke-linecap:butt;stroke-linejoin:miter;stroke-miterlimit:4;stroke-dasharray:none;stroke-opacity:1" d="M 737.41136,621.02705 L 729.33014,610.92552 L 741.45197,607.89506 L 749.53319,604.86461 L 757.61441,596.78338 L 773.77685,585.67171 L 784.88853,580.62094 L 796.00021,579.61079 L 804.08143,578.60064 L 819.23371,567.48896 L 835.39616,564.4585 L 845.49768,566.47881 L 854.58905,567.48896 L 863.68043,563.44835 L 878.83271,560.41789 L 887.92409,556.37728 L 890.95455,558.39759 L 893.985,587.69201 L 896.00531,597.79354 L 894.99516,609.91537 L 887.92409,617.99659 L 867.72104,629.10827 L 852.56875,636.17933 L 829.33524,643.2504 L 802.06112,646.28086 L 769.73624,638.19964 L 745.49258,627.08796 L 737.41136,621.02705 z" id="path2488"/>
    <path style="fill:#502d16;fill-rule:evenodd;stroke:#000000;stroke-width:5;stroke-linecap:butt;stroke-linejoin:miter;stroke-miterlimit:4;stroke-dasharray:none;stroke-opacity:1" d="M 838.42661,639.20979 L 830.34539,634.15903 L 831.35554,629.10827 L 835.39616,623.04735 L 836.40631,615.97628 L 838.42661,607.89506 L 847.51799,601.83415 L 860.64997,610.92552 L 870.75149,613.95598 L 881.86317,610.92552 L 885.90378,620.01689 L 865.70073,630.11842 L 848.52814,636.17933 L 838.42661,639.20979 z" id="path2492"/>
    <path style="fill:none;fill-rule:evenodd;stroke:#000000;stroke-width:5;stroke-linecap:butt;stroke-linejoin:miter;stroke-miterlimit:4;stroke-dasharray:none;stroke-opacity:1" d="M 835.35714,609.1479 L 839.64286,610.93361 L 843.21429,613.43361 L 845.71429,619.50504 L 846.78572,624.50504 L 849.28572,629.50504 L 853.57143,632.00504 L 858.21429,632.36218 L 860.35714,632.36218" id="path2458"/>
    <path style="fill:none;fill-rule:evenodd;stroke:#000000;stroke-width:5;stroke-linecap:butt;stroke-linejoin:miter;stroke-miterlimit:4;stroke-dasharray:none;stroke-opacity:1" d="M 890.71429,549.1479 L 891.42857,567.00504 L 893.21429,577.71932 L 894.64286,591.29075 L 896.42857,595.57647" id="path2460"/>
    <path style="fill:#a05a2c;fill-rule:evenodd;stroke:none;stroke-width:5;stroke-linecap:butt;stroke-linejoin:miter;stroke-miterlimit:4;stroke-dasharray:none;stroke-opacity:1" d="M 689.64286,469.86218 L 685,477.71932 L 682.85714,488.07647 L 682.85714,502.71932 L 687.5,513.43361 L 692.85714,519.50504 L 701.42857,525.93361 L 711.07143,527.71932 L 721.07143,528.43361 L 735,529.50504 L 746.07143,530.21932 L 750.35714,530.57647 L 745.71429,515.93361 L 741.42857,501.29075 L 735.71429,487.71932 L 730.71429,480.57647 L 725,474.50504 L 715.35714,468.07647 L 706.07143,466.29075 L 696.42857,464.86218 L 692.5,465.21932 L 689.64286,469.86218 z" id="path2466"/>
    <path style="fill:#000000;fill-rule:evenodd;stroke:#000000;stroke-width:5;stroke-linecap:butt;stroke-linejoin:miter;stroke-miterlimit:4;stroke-dasharray:none;stroke-opacity:1" d="M 692.85714,468.07647 L 704.28572,469.86218 L 716.42857,474.50504 L 724.64286,480.57647 L 732.5,490.57647 L 735.71429,502.71932 L 737.85714,512.36218 L 736.42857,522.36218 L 736.78572,524.1479 L 729.64286,523.79075 L 720,524.1479 L 710.71429,524.86218 L 701.42857,521.29075 L 694.28572,512.00504 L 688.92857,504.1479 L 686.42857,499.50504 L 685.71429,492.71932 L 686.78572,482.36218 L 689.64286,476.29075 L 692.85714,468.07647 z" id="path2462"/>
    <path style="fill:#ffffff;fill-rule:evenodd;stroke:#000000;stroke-width:5;stroke-linecap:butt;stroke-linejoin:miter;stroke-miterlimit:4;stroke-dasharray:none;stroke-opacity:1" d="M 718.92857,475.21932 L 713.21429,477.36218 L 712.14286,479.1479 L 711.07143,483.07647 L 711.78572,490.93361 L 713.21429,495.57647 L 714.64286,494.86218 L 714.64286,493.07647 L 717.5,493.07647 L 721.42857,490.57647 L 723.57143,488.79075 L 724.64286,491.6479 L 724.28572,494.1479 L 723.92857,495.57647 L 725,496.29075 L 726.07143,495.57647 L 727.85714,492.71932 L 730,491.6479 L 729.64286,490.57647 L 726.78572,482.71932 L 718.92857,475.21932 z" id="path2464"/>
    <path style="fill:none;fill-rule:evenodd;stroke:#000000;stroke-width:5;stroke-linecap:butt;stroke-linejoin:miter;stroke-miterlimit:4;stroke-dasharray:none;stroke-opacity:1" d="M 607.14286,448.07647 L 625,437.36218 L 642.14286,425.93361 L 650.71429,417.36218 L 660.71429,399.50504 L 667.14286,385.21932 L 670,373.07647 L 664.28571,345.21932 L 657.85714,325.21932 L 655.71429,305.93361 L 648.57143,278.07647 L 643.57143,264.50504 L 640.71429,258.79075 L 633.57143,251.6479" id="path2468"/>
    <path style="fill:none;fill-rule:evenodd;stroke:#000000;stroke-width:5;stroke-linecap:butt;stroke-linejoin:miter;stroke-miterlimit:4;stroke-dasharray:none;stroke-opacity:1" d="M 601.42857,314.50504 L 614.28571,321.6479 L 630,333.79075 L 641.42857,350.21932 L 646.42857,363.79075 L 647.14286,372.36218" id="path2470"/>
    <path style="fill:none;fill-rule:evenodd;stroke:#000000;stroke-width:5;stroke-linecap:butt;stroke-linejoin:miter;stroke-miterlimit:4;stroke-dasharray:none;stroke-opacity:1" d="M 610.71429,368.07647 L 621.42857,363.07647 L 630.71429,361.6479 L 633.57143,367.36218 L 635,384.50504 L 633.57143,404.50504 L 629.28571,414.50504 L 625,421.6479 L 617.14286,421.6479 L 612.14286,423.07647 L 608.57143,427.36218 L 602.14286,433.79075 L 602.85714,433.07647 L 602.85714,433.07647" id="path2472"/>
    <path style="fill:none;fill-rule:evenodd;stroke:#000000;stroke-width:5;stroke-linecap:butt;stroke-linejoin:miter;stroke-miterlimit:4;stroke-dasharray:none;stroke-opacity:1" d="M 610.71429,394.50504 L 617.14286,403.07647 L 617.85714,410.21932 L 617.14286,410.21932" id="path2474"/>
    <path style="fill:none;fill-rule:evenodd;stroke:#000000;stroke-width:5;stroke-linecap:butt;stroke-linejoin:miter;stroke-miterlimit:4;stroke-dasharray:none;stroke-opacity:1" d="M 562.85714,432.36218 L 542.14286,420.93361 L 522.85714,417.36218 L 547.85714,413.79075 L 552.85714,413.79075 L 547.14286,408.79075 L 550.71429,405.93361 L 547.14286,399.50504 L 542.14286,393.79075 L 528.57143,386.6479 L 550,385.93361 L 532.14286,376.6479 L 527.85714,373.79075 L 525.71429,370.21932 L 530,369.50504 L 535.71429,366.6479 L 527.85714,355.93361 L 535,354.50504 L 537.85714,349.50504 L 532.85714,336.6479 L 538.57143,336.6479 L 545,334.50504 L 543.57143,330.93361 L 542.85714,327.36218 L 547.85714,329.50504 L 554.28571,325.93361 L 548.57143,315.21932 L 539.28571,303.07647 L 528.57143,285.93361 L 537.85714,290.93361 L 544.28571,292.36218 L 540.71429,284.50504 L 547.14286,285.93361 L 545.71429,278.79075 L 550,278.07647 L 548.57143,258.07647 L 552.14286,267.36218 L 552.14286,260.21932 L 558.57143,260.93361 L 562.14286,259.50504 L 560,255.93361 L 570.71429,256.6479 L 575.71429,256.6479" id="path2476"/>
    <path style="fill:none;fill-rule:evenodd;stroke:#000000;stroke-width:5;stroke-linecap:butt;stroke-linejoin:miter;stroke-miterlimit:4;stroke-dasharray:none;stroke-opacity:1" d="M 802.14286,342.36218 L 781.42857,320.21932 L 763.57143,292.36218 L 755,275.93361" id="path2478"/>
    <path style="fill:#6f3916;fill-opacity:1;fill-rule:evenodd;stroke:none;stroke-width:5;stroke-linecap:butt;stroke-linejoin:miter;stroke-miterlimit:4;stroke-dasharray:none;stroke-opacity:1" d="M 186.87822,135.14367 L 174.75639,174.53962 L 169.70563,210.90511 L 178.797,210.90511 L 203.04066,194.74267 L 230.31478,188.68176 L 271.73103,180.60054 L 313.14729,175.54977 L 338.4011,176.55993 L 368.70568,182.62084 L 390.92904,190.70206 L 378.8072,196.76298 L 383.85797,202.82389 L 377.79705,208.88481 L 381.83766,218.98633 L 372.74629,221.00664 L 377.79705,230.09801 L 360.62446,239.18938 L 364.66507,245.2503 L 351.53309,252.32137 L 362.64476,260.40259 L 354.56354,268.48381 L 361.63461,273.53457 L 353.55339,282.62594 L 359.61431,288.68686 L 353.55339,294.74777 L 330.31988,297.77823 L 303.04576,297.77823 L 271.73103,292.72747 L 245.46707,286.66655 L 228.29448,273.53457 L 211.12188,262.42289 L 187.88837,258.38228 L 157.5838,246.26045 L 136.37059,248.28076 L 109.09647,266.4635 L 96.974644,272.52442 L 81.822356,282.62594 L 71.720831,294.74777 L 63.63961,300.80869 L 58.588848,296.76808 L 49.497475,283.6361 L 39.395949,267.47365 L 34.345187,260.40259 L 40.406102,255.35182 L 25.253814,237.16908 L 14.142136,227.06755 L 33.335034,229.08786 L 18.182746,215.95588 L 3.0304576,206.8645 L 18.182746,210.90511 L 28.284271,209.89496 L 13.131983,195.75282 L 1.0101525,188.68176 L 22.223356,188.68176 L 26.263966,186.66145 L -2.0203051,162.41779 L -6.0609153,158.37718 L 6.0609153,159.38733 L 14.142136,157.36703 L -12.121831,138.17413 L 3.0304576,137.16398 L -10.101525,124.03199 L -23.233509,110.90001 L -8.0812204,108.87971 L -15.152288,102.81879 L -32.324881,85.646197 L -3.0304576,96.757875 L -17.172593,66.453298 L 11.111678,88.676654 L 30.304576,93.727417 L 47.47717,90.696959 L 59.599,90.696959 L 88.893424,103.82894 L 115.15739,115.95077 L 130.30968,122.01169 L 151.52288,128.0726 L 170.71578,131.10306 L 181.82746,132.11321 L 186.87822,135.14367 z" id="path2498"/>
    <path style="fill:none;fill-rule:evenodd;stroke:#000000;stroke-width:5;stroke-linecap:butt;stroke-linejoin:miter;stroke-miterlimit:4;stroke-dasharray:none;stroke-opacity:1" d="M 169.28571,208.79075 L 155,218.07647 L 134.28571,235.93361 L 118.57143,249.50504 L 105,260.93361 L 99.285714,268.79075 L 84.285714,278.07647 L 75,290.93361 L 66.428571,302.36218 L 62.857143,305.93361" id="path2480"/>
    <path style="fill:none;fill-rule:evenodd;stroke:#000000;stroke-width:5;stroke-linecap:butt;stroke-linejoin:miter;stroke-miterlimit:4;stroke-dasharray:none;stroke-opacity:1" d="M 160,261.6479 L 190.71429,265.93361 L 222.14286,276.6479 L 242.14286,295.21932 L 250.71429,312.36218 L 254.28571,356.6479 L 256.42857,363.07647" id="path2482"/>
    <path style="fill:none;fill-rule:evenodd;stroke:#000000;stroke-width:5;stroke-linecap:butt;stroke-linejoin:miter;stroke-miterlimit:4;stroke-dasharray:none;stroke-opacity:1" d="M 185.71429,290.93361 L 205.71429,303.79075 L 222.85714,323.79075 L 239.28571,355.93361 L 247.85714,384.50504 L 254.28571,409.50504 L 257.14286,429.50504 L 257.85714,455.21932 L 255.71429,471.6479 L 245.71429,488.79075 L 236.42857,508.07647" id="path2484"/>
    <path style="fill:none;fill-rule:evenodd;stroke:#000000;stroke-width:5;stroke-linecap:butt;stroke-linejoin:miter;stroke-miterlimit:4;stroke-dasharray:none;stroke-opacity:1" d="M 394.28571,520.93361 L 407.85714,520.21932 L 422.14286,527.36218 L 435.71429,538.79075 L 451.42857,543.79075 L 460,543.79075 L 477.14286,538.79075 L 492.85714,540.93361 L 512.85714,545.21932 L 528.57143,548.79075 L 538.57143,550.93361 L 552.85714,553.07647 L 556.42857,553.07647" id="path2486"/>
    <path style="fill:none;fill-rule:evenodd;stroke:#000000;stroke-width:5;stroke-linecap:butt;stroke-linejoin:miter;stroke-miterlimit:4;stroke-dasharray:none;stroke-opacity:1" d="M 707.10678,575.57018 L 732.3606,578.60064 L 748.52304,582.64125 L 767.71593,581.6311 L 779.83777,577.59049" id="path2490"/>
    <path style="fill:#a05a2c;fill-rule:evenodd;stroke:none;stroke-width:5;stroke-linecap:butt;stroke-linejoin:miter;stroke-miterlimit:4;stroke-dasharray:none;stroke-opacity:1" d="M 815.1931,571.52957 L 805.09158,539.20469 L 776.80731,477.58538 L 749.53319,449.30111 L 741.45197,437.17928 L 747.51288,436.16913 L 743.47227,417.98638 L 754.58395,418.99654 L 743.47227,392.73257 L 732.3606,373.53967 L 746.50273,387.68181 L 746.50273,371.51937 L 757.61441,380.61074 L 769.73624,397.78333 L 782.86822,412.93562 L 774.787,382.63105 L 789.93929,402.8341 L 801.05097,408.89501 L 796.00021,387.68181 L 805.09158,393.74272 L 804.08143,372.52952 L 808.12204,373.53967 L 814.18295,374.54982 L 810.14234,360.40769 L 806.10173,339.19449 L 807.11188,336.16403 L 824.28448,359.39754 L 855.59921,391.72242 L 873.78195,413.94577 L 881.86317,430.10821 L 881.86317,451.32142 L 878.83271,474.55493 L 872.7718,496.77828 L 872.7718,511.93057 L 875.80226,559.40774 L 875.80226,563.44835 L 855.59921,567.48896 L 842.59222,567.46866 L 834.761,567.2085 L 828.45009,567.4585 L 815.1931,571.52957 z" id="path2494" sodipodi:nodetypes="ccccccccccccccccccccccccccccccccccccccccc"/>
  </g>
</svg>