<?xml version="1.0" encoding="UTF-8"?>
<!-- Generator: Adobe Illustrator 15.0.2, SVG Export Plug-In . SVG Version: 6.00 Build 0)  -->
<!DOCTYPE svg PUBLIC "-//W3C//DTD SVG 1.1//EN" "http://www.w3.org/Graphics/SVG/1.1/DTD/svg11.dtd">
<svg version="1.1" id="layer_x5F_www.ABC-color.com" xmlns="http://www.w3.org/2000/svg" xmlns:xlink="http://www.w3.org/1999/xlink" x="0px" y="0px" width="822px" height="567px" viewBox="0 0 822 567" enable-background="new 0 0 822 567" xml:space="preserve">
<rect display="none" fill="#FFFFFF" width="822" height="567"/>
<text id="image_1_" transform="matrix(1 0 0 1 16 549)" font-family="'MyriadPro-Regular'" font-size="12">www . ABC - color . com</text>
<g id="XMLID_2_">
	<g>
		<path fill="#FFFFFF" d="M186.7,140c8.7-0.7,2.6-1.8,6.8,1.1c5.2,3.6,1.8,9.6,6,14.4s29.6-31.1,29.6-31.1    c126.7-108.7,300-105.7,225.2-76.1c-7.5,3-56,21.4-89.899,39l-28.9,38.4c0,0-20,20.5-30.8,28.9c-10.8,8.4-17.8,18.5-15.7,22    c4.2,7.2,27.1,31.9,135.9,112.7c23.1,17.2-15.5,26.2-61.2,24.601c-3-1.4-4.7-2.101-4.9-2.2c-3-1.2-164-6.4-176.1-9.2    c-14-3.2-22.4-9.1-24.9-8.2l-0.2-0.899c-3.6-1.9-6.9-4-10-6.2c-39.7-27.9-41.9-75.6-41.7-88.7c0-0.7,0-1.3,0-1.8h0.2    C107.1,173.1,183.8,140.2,186.7,140z"/>
		<path d="M104.5,197.6c-95,34.6-17.6,226.6,55.5,230.9c3.7,0.2,6.9-4.9,2.4-13.7c-48.1-93.3-27.4-125.1-15-127.5    c3.1,2.2,6.4,4.2,10,6.2l0.2,0.9c-0.3,0.1-0.5,0.3-0.6,0.6c-3,7.5-24.8,6,4.2,44.4c18.6,24.6,8.4,19.8,4.8,22.199l1.7,0.9    c3.5,5.7,16.1,19.8,21.6,23.4c6.2,4,12.6,7.1,18.6,11.399c7.7,5.601,12.5,9.5,19.2,16.2c4,4,13.8,9.6,8.9,16.7    c-3.6,0.1-6.7,0-10.1-1.101l-0.1,0.101c5.4,4.3,11,8.3,16.7,12.3c10.4,7.1,23.2,10.2,33.2,18.1c4.1,3.301,10.8,13.801,9.5,19.2    c-4.6,0.2-14.1-0.1-18.1-3.7c-0.3-0.3-0.6-0.6-0.9-0.899c0.2,0.3,0.5,0.6,0.9,0.899c3.1,3.4,6.2,6.7,9.2,10    C292.3,502.4,342.9,527.7,342.9,527.7s-31.101,17.399-213-84c-30.4-17-53.4-48.601-64.8-84.601C63.6,354.5,17.2,234.7,63,210.3    c22.1-11.8,40.3-22.6,40.3-22.6h0.1c0.9,4.7,1.8,9.5,1.8,10.8C105.2,199.2,105,199,104.5,197.6z"/>
		<path fill="#FFFFFF" d="M160,428.5c-73.1-4.2-150.5-196.3-55.5-230.9c0.5,1.4,0.7,1.6,0.7,0.9h0.5c-0.2,13.1,2,60.8,41.7,88.7    c-12.4,2.399-33.1,34.3,15,127.5C166.9,423.5,163.7,428.7,160,428.5z"/>
		<ellipse fill="#FFFFFF" cx="102.9" cy="62.5" rx="1.9" ry="1.9"/>
		<path fill="#DCF7F4" d="M102.9,64.4c1.1,0,1.9-0.8,1.9-1.9s-0.9-1.9-1.9-1.9s-1.9,0.8-1.9,1.9S101.9,64.4,102.9,64.4z M99.8,56.8    c3.6-2.1,5.3-1.1,7.6,0.3c2.6,1.5,5.2,7.4,1.7,9.5C109.6,66,97.6,66,98.2,67C96.8,64.5,96.2,58.8,99.8,56.8z"/>
		<path d="M98.2,66.8c-0.6-1,11.4-1,10.9-0.4c3.5-2.1,0.9-8-1.7-9.5c-2.3-1.3-4-2.3-7.6-0.3C96.2,58.8,96.8,64.5,98.2,66.8z     M78.1,79.8c-1.6-5-8.6-9-7.5-11.5c61.2-91.7,132.6,37.1,132.6,37.1s17.4,19.2,35.4-1.8s41.9-30.1,57-38.4    C388,14.5,427.2-35.3,708.9,91.1c20,9-70.7,6.9-74.2,5.7c-32.7-11.3-26.8,6.4-43.4-5.7c-17-12.3-5.7,13.2-9.399,10.7    c-33.7-22.5-28.101-1.3-28.301-1.3c-17-0.6-27.8-11.2-41.5-13.2c-12.199-1.8,18.2,17.6-30.8,15.7c-9.8-0.4-35.3-7.1-31.399-3.8    c18.899,16.4-55.5,27.5-66.7,32.1c-32.7,13.3-13.9,36.4-16,39.2c-14,18.7-55.3,9.3-55.3,9.3c85.8,78.6,455.3,144.5,455.3,144.5    s11.1,4.7,10.2,7.8c-1.2,3.9-16.2,1.2-16.2,1.2s-290.5-31.7-303-33c-33.601-3.6-9,13.8-9,13.8l237,133.2l28.8,18    c0,0,20,11.8,17.4,14.4C727.6,484.6,694.6,469.5,694.6,469.5c-9.5-10.6-290.199-137.3-331.1-155.6c45.7,1.6,84.3-7.5,61.2-24.601    C315.9,208.5,293,183.8,288.8,176.6c-2-3.5,4.9-13.6,15.7-22s30.8-28.9,30.8-28.9l28.9-38.4c34-17.6,82.5-36,89.899-39    c74.801-29.6-98.5-32.6-225.2,76.1c0,0-25.4,35.9-29.6,31.1c-4.2-4.8-0.8-10.8-6-14.4c-4.2-2.9,1.9-1.8-6.8-1.1    c-2.9,0.2-79.5,33.1-80.7,56.8h-0.2c0,0.5,0,1.1,0,1.8h-0.5c0-1.3-0.9-6.1-1.8-10.8c-0.8-4.3-1.6-8.5-1.7-9.8    c1,2.9,1.5,3.3,0.9,1.7c-0.7-2.2-1-2.5-0.9-1.7c-1.1-3.3-2.7-9.7-4.2-20.4c-0.3-1.8-0.5-3.6-0.8-5.4c9.6,1.8,52.4-11.4,60.4-15    c6.3-2.7,12.1-8.4,17.7-18.3c4.7-8.4,8.4-28.7-12.5-26.6C101.4,98.6,114.3,82.4,78.1,79.8L78.1,79.8z"/>
		<path fill="#FFFFFF" d="M78.1,79.8c36.2,2.6,23.3,18.9,84.3,12.6c20.9-2.1,17.1,18.2,12.5,26.6c-5.5,9.9-11.4,15.6-17.7,18.3    c-8,3.6-50.8,16.8-60.4,15c-7.4-48.6-19-58.6-24.3-62.6l0.2-0.2C78.1,85.9,79,82.7,78.1,79.8L78.1,79.8z"/>
		<path fill="#5E3505" d="M78.1,79.8c0.9,2.9,0,6.1-5.4,9.6l-0.2,0.2c-0.8-0.6-1.5-1.1-2-1.6c-3.6-3.6-14.4-4.8-14.4-4.8    s-12.5-1.1-16.8-1.8c-7.2-1.2,1.8-3.6,9.6-5.4c12.2-2.8,19.1-3.8,21.6-7.7C69.5,70.8,76.5,74.8,78.1,79.8z"/>
	</g>
	<g>
		<path fill="none" stroke="#000000" stroke-miterlimit="10" d="M72.5,89.5c-0.8-0.6-1.5-1.1-2-1.6c-3.6-3.6-14.4-4.8-14.4-4.8    S43.6,82,39.3,81.3c-7.2-1.2,1.8-3.6,9.6-5.4c12.2-2.8,19.1-3.8,21.6-7.7"/>
		<path fill="none" stroke="#000000" stroke-miterlimit="10" d="M96.8,152.2c-7.4-48.6-19-58.6-24.3-62.6l0.2-0.2    c5.4-3.4,6.3-6.6,5.4-9.6"/>
		<path fill="none" stroke="#000000" stroke-miterlimit="10" d="M101.7,177.9c1,2.9,1.5,3.3,0.9,1.7    C101.9,177.4,101.7,177.1,101.7,177.9z"/>
		<path fill="none" stroke="#000000" stroke-miterlimit="10" d="M103.4,187.7c-0.8-4.3-1.6-8.5-1.7-9.8"/>
		<path fill="none" stroke="#000000" stroke-miterlimit="10" d="M101.7,177.9c-1.1-3.3-2.7-9.7-4.2-20.4c-0.3-1.8-0.5-3.6-0.8-5.4    c9.6,1.8,52.4-11.4,60.4-15c6.3-2.7,12.1-8.4,17.7-18.3c4.7-8.4,8.4-28.7-12.5-26.6c-61,6.3-48.1-9.9-84.3-12.6h-0.1    c-1.6-5-8.6-9-7.5-11.5C131.6-23.6,203,105.2,203,105.2s17.4,19.2,35.4-1.8s41.9-30.1,57-38.4C388,14.5,427.2-35.3,708.9,91.1    c20,9-70.7,6.9-74.2,5.7c-32.7-11.3-26.8,6.4-43.4-5.7c-17-12.3-5.7,13.2-9.399,10.7c-33.7-22.5-28.101-1.3-28.301-1.3    c-17-0.6-27.8-11.2-41.5-13.2c-12.199-1.8,18.2,17.6-30.8,15.7c-9.8-0.4-35.3-7.1-31.399-3.8c18.899,16.4-55.5,27.5-66.7,32.1    c-32.7,13.3-13.9,36.4-16,39.2c-14,18.7-55.3,9.3-55.3,9.3c85.8,78.6,455.3,144.5,455.3,144.5s11.1,4.7,10.2,7.8    c-1.2,3.9-16.2,1.2-16.2,1.2s-290.5-31.7-303-33c-33.601-3.6-9,13.8-9,13.8l237,133.2l28.8,18c0,0,20,11.8,17.4,14.4    C727.6,484.6,694.6,469.5,694.6,469.5c-9.5-10.6-290.199-137.3-331.1-155.6"/>
		<path fill="none" stroke="#000000" stroke-miterlimit="10" d="M107.4,57c-2.3-1.3-4-2.3-7.6-0.3c-3.6,2.1-2.9,7.8-1.6,10.1    c-0.6-1,11.4-1,10.9-0.4C112.5,64.4,110,58.5,107.4,57z"/>
		<line fill="none" stroke="#000000" stroke-miterlimit="10" x1="105.2" y1="198.5" x2="105.7" y2="198.5"/>
		<path fill="none" stroke="#000000" stroke-miterlimit="10" d="M267.1,475.1c3.1,3.4,6.2,6.7,9.2,10    C292.3,502.4,342.9,527.7,342.9,527.7s-31.101,17.399-213-84c-30.4-17-53.4-48.601-64.8-84.601C63.6,354.5,17.2,234.7,63,210.3    c22.1-11.8,40.3-22.6,40.3-22.6h0.1c0.9,4.7,1.8,9.5,1.8,10.8c0,0.6-0.2,0.5-0.7-0.9c-95,34.6-17.6,226.6,55.5,230.9    c3.7,0.2,6.9-4.9,2.4-13.7c-48.1-93.3-27.4-125.1-15-127.5"/>
		<path fill="none" stroke="#000000" stroke-miterlimit="10" d="M267.1,475.1c-0.3-0.3-0.6-0.6-0.9-0.899    C266.5,474.5,266.8,474.8,267.1,475.1z"/>
		<path fill="none" stroke="#000000" stroke-miterlimit="10" d="M157.6,294.3c-0.3,0.101-0.5,0.3-0.6,0.601    c-3,7.5-24.8,6,4.2,44.399c18.6,24.601,8.4,19.8,4.8,22.2l1.7,0.9c3.5,5.699,16.1,19.8,21.6,23.399c6.2,4,12.6,7.101,18.6,11.4    c7.7,5.6,12.5,9.5,19.2,16.2c4,4,13.8,9.6,8.9,16.699c-3.6,0.101-6.7,0-10.1-1.1l-0.1,0.1c5.4,4.301,11,8.301,16.7,12.301    c10.4,7.1,23.2,10.199,33.2,18.1c4.1,3.3,10.8,13.8,9.5,19.2c-4.6,0.2-14.1-0.101-18.1-3.7"/>
		<path fill="none" stroke="#000000" stroke-miterlimit="10" d="M363.5,313.9c-3-1.4-4.7-2.101-4.9-2.2c-3-1.2-164-6.4-176.1-9.2    c-14-3.2-22.4-9.1-24.9-8.2l-0.2-0.899c-3.6-1.9-6.9-4-10-6.2c-39.7-27.9-41.9-75.6-41.7-88.7c0-0.7,0-1.3,0-1.8h0.2    c1.2-23.7,77.8-56.6,80.7-56.8c8.7-0.7,2.6-1.8,6.8,1.1c5.2,3.6,1.8,9.6,6,14.4c4.2,4.8,29.6-31.1,29.6-31.1    C355.7,15.6,529,18.6,454.2,48.2c-7.5,3-56,21.4-89.9,39L335.4,125.6c0,0-20,20.5-30.801,28.9c-10.8,8.4-17.8,18.5-15.7,22    c4.2,7.2,27.1,31.9,135.9,112.7C447.8,306.5,409.2,315.5,363.5,313.9z"/>
		<ellipse fill="none" stroke="#000000" stroke-width="3" stroke-miterlimit="10" cx="102.9" cy="62.5" rx="1.9" ry="1.9"/>
	</g>
</g>
</svg>