<?xml version="1.0" encoding="UTF-8" standalone="no"?>
<!-- Created with Inkscape (http://www.inkscape.org/) -->

<svg
   xmlns:dc="http://purl.org/dc/elements/1.1/"
   xmlns:cc="http://creativecommons.org/ns#"
   xmlns:rdf="http://www.w3.org/1999/02/22-rdf-syntax-ns#"
   xmlns:svg="http://www.w3.org/2000/svg"
   xmlns="http://www.w3.org/2000/svg"
   xmlns:sodipodi="http://sodipodi.sourceforge.net/DTD/sodipodi-0.dtd"
   xmlns:inkscape="http://www.inkscape.org/namespaces/inkscape"
   width="81.576118mm"
   height="47.67902mm"
   id="svg1307"
   sodipodi:version="0.32"
   inkscape:version="0.92.1 r15371"
   sodipodi:docname="swan2.svg"
   version="1.1">
  <defs
     id="defs1309">
    <linearGradient
       id="linearGradient7528">
      <stop
         style="stop-color:#ffffff;stop-opacity:1;"
         offset="0"
         id="stop7530" />
      <stop
         id="stop7536"
         offset="0.10714286"
         style="stop-color:#ffffd0;stop-opacity:1;" />
      <stop
         style="stop-color:#c8c5cb;stop-opacity:1;"
         offset="1"
         id="stop7532" />
    </linearGradient>
  </defs>
  <sodipodi:namedview
     inkscape:document-units="mm"
     pagecolor="#ffffff"
     bordercolor="#666666"
     borderopacity="1.0"
     inkscape:pageopacity="0.0"
     inkscape:pageshadow="2"
     inkscape:zoom="0.2493585"
     inkscape:cx="-226.0761"
     inkscape:cy="112.34767"
     inkscape:current-layer="layer1"
     id="namedview1311"
     showguides="true"
     inkscape:guide-bbox="true"
     inkscape:window-width="791"
     inkscape:window-height="543"
     inkscape:window-x="119"
     inkscape:window-y="38"
     showgrid="false"
     fit-margin-top="0"
     fit-margin-left="0"
     fit-margin-right="0"
     fit-margin-bottom="0"
     inkscape:window-maximized="0" />
  <metadata
     id="metadata1313">
    <rdf:RDF>
      <cc:Work
         rdf:about="">
        <dc:format>image/svg+xml</dc:format>
        <dc:type
           rdf:resource="http://purl.org/dc/dcmitype/StillImage" />
        <dc:title>Swan Swimming</dc:title>
        <dc:date>10 Sept 2006</dc:date>
        <dc:creator>
          <cc:Agent>
            <dc:title>Theresa Knott (theresaknott@gmail.com)</dc:title>
          </cc:Agent>
        </dc:creator>
        <dc:description>A white swan swimming</dc:description>
        <cc:license
           rdf:resource="http://web.resource.org/cc/PublicDomain" />
      </cc:Work>
      <cc:License
         rdf:about="http://web.resource.org/cc/PublicDomain">
        <cc:permits
           rdf:resource="http://web.resource.org/cc/Reproduction" />
        <cc:permits
           rdf:resource="http://web.resource.org/cc/Distribution" />
        <cc:permits
           rdf:resource="http://web.resource.org/cc/DerivativeWorks" />
      </cc:License>
    </rdf:RDF>
  </metadata>
  <g
     inkscape:label="Layer 1"
     inkscape:groupmode="layer"
     id="layer1"
     transform="translate(-115.62991,-67.618675)">
    <path
       style="fill:#000000;fill-opacity:0.20430106;fill-rule:nonzero;stroke:none;stroke-width:1px;stroke-linecap:butt;stroke-linejoin:miter;stroke-opacity:1"
       id="path10208"
       d="m 194.15844,208.17482 c -16.73087,4.09953 -35.71111,6.32966 -52.13119,10.7163 21.48803,-6.45362 -4.35616,2.46237 -9.98725,4.75187 -6.31875,3.16527 -5.1703,6.10035 0.57892,9.19759 8.30081,3.13872 18.54497,5.05603 28.3009,7.07614 10.23109,1.7148 21.3254,2.37742 32.13713,2.95652 18.8468,0.45791 37.59835,1.52934 56.50645,1.35181 14.41721,-0.51508 28.38426,-2.31244 42.49051,-3.67369 19.37678,-1.52189 38.6919,-3.44804 58.25846,-4.44472 9.03211,-0.37257 18.07394,0.12558 27.05929,-0.45106 7.43861,-1.0902 15.32155,-1.14448 22.95914,-1.77459 5.27997,-0.60169 10.58557,-1.16113 15.96523,-1.55466 2.62022,-0.23314 5.12034,-0.65926 7.65306,-1.02527 l -10.54414,3.76649 c -2.64166,0.36677 -5.26211,0.78396 -7.97206,1.03647 -5.3503,0.4316 -10.63143,0.9879 -15.93414,1.51946 -7.68386,0.5236 -15.48057,0.76889 -22.9834,1.76211 -8.92445,0.36211 -17.90061,0.0662 -26.84743,0.33748 -19.63286,0.82742 -38.8712,2.83026 -58.21319,4.50609 -14.15607,1.29348 -28.12486,3.21298 -42.59461,3.59369 -18.905,-0.0995 -37.74153,-1.12507 -56.63192,-1.42045 -10.88955,-0.63249 -22.22648,-1.15233 -32.38495,-3.11975 -9.86555,-2.11308 -20.46238,-3.87624 -28.67015,-7.24482 -6.03873,-3.2774 -7.94572,-6.47964 -1.63963,-10.03102 10.03125,-4.23586 20.82467,-8.09895 32.95539,-10.9993 16.9706,-4.10271 35.69805,-6.71551 52.90421,-10.57852 z"
       inkscape:connector-curvature="0" />
    <path
       style="fill:#000000;fill-opacity:0.12365591;fill-rule:nonzero;stroke:none;stroke-width:1px;stroke-linecap:butt;stroke-linejoin:miter;stroke-opacity:1"
       id="path10206"
       d="m 178.04238,217.18609 c -17.4038,2.8762 6.39434,-2.114 -3.06073,0.21071 -5.07036,1.86583 -10.90097,3.49975 -15.0329,5.6856 -2.54698,2.9631 -0.62049,4.58238 6.22518,6.03565 8.41935,0.93897 16.5987,2.30522 25.1885,2.99519 8.43226,0.24852 16.90996,0.13341 25.36118,0.1257 7.99653,-0.3783 16.15224,-0.30128 24.13241,-0.77383 3.35979,-0.4363 6.85807,-0.66083 10.32376,-0.91149 l -10.82939,3.2187 c -3.47705,0.24502 -6.92906,0.51857 -10.34699,0.87058 -8.04586,0.32589 -16.17301,0.45724 -24.22519,0.70176 -8.505,0.002 -17.06153,0.10831 -25.53091,-0.18586 -8.56695,-0.82834 -16.82015,-2.15962 -25.28908,-3.12192 -7.1475,-1.65216 -9.87191,-3.50408 -7.40285,-6.75538 3.68436,-2.39875 9.84968,-3.94452 14.83482,-5.95407 8.40577,-2.1147 16.88864,-4.65209 26.88682,-5.32839 z"
       inkscape:connector-curvature="0" />
    <path
       style="fill:#f3f4e5;fill-opacity:1;fill-rule:evenodd;stroke:#000000;stroke-width:0.34850693px;stroke-linecap:butt;stroke-linejoin:miter;stroke-opacity:1"
       d="m 173.08098,224.48722 c -6.3355,-0.79992 -3.98475,-10.51089 -3.98475,-16.1706 0,-5.65971 25.50236,-84.89564 25.50236,-88.12975 0,-3.23412 -2.59717,-5.47917 -0.20632,-9.52181 2.39084,-4.04265 2.59717,-6.64879 2.59717,-9.88291 0,-3.234119 -20.72067,-4.04265 -24.70541,-1.617061 -3.98475,2.425591 -11.57579,4.906171 -18.32983,8.893831 -2.97195,-0.37057 -3.98474,-1.61706 -0.79694,-3.23412 3.18779,-1.61706 16.73592,-12.936479 16.73592,-12.936479 l -0.79695,-4.851178 4.7817,-4.042651 c 0,0 2.39084,-6.468237 6.37558,-8.893826 3.98475,-2.425589 19.43627,-9.493031 27.79005,-4.641852 6.37675,3.703085 13.267,11.813957 14.8609,21.516317 1.5939,9.702359 -13.54813,99.077619 -15.14203,105.545859 -1.59389,6.46824 5.16599,-20.54556 5.16599,-20.54556 0,0 36.65964,-38.00091 42.23828,-40.4265 5.57865,-2.42558 29.48711,-12.93647 29.48711,-12.93647 l -10.36033,5.65971 23.90846,-5.65971 -10.36033,6.46823 c 0,0 23.11152,-2.42559 29.4871,0 6.3756,2.4256 35.8627,4.04266 40.6444,8.0853 -3.98475,3.23412 -7.96949,4.04265 -7.96949,4.04265 0,0 14.34508,7.27677 17.53287,10.51089 3.1878,3.23412 7.96949,13.74501 4.7817,18.59619 -3.1878,4.85118 -15.93898,19.40472 -15.93898,19.40472 0,0 8.43888,-12.75594 25.04327,-17.00791 11.40899,-2.92157 18.78891,-6.43946 18.78891,-6.43946 0,0 -11.15728,33.14973 -20.72067,39.61796 -9.56338,6.46824 -55.94631,23.44737 -74.11624,23.44737 -6.37559,0 -130.71257,-4.65157 -132.2935,-4.85118 z"
       id="path1393"
       sodipodi:nodetypes="cssssscscccsssscscccccccsscscsss"
       inkscape:connector-curvature="0" />
    <path
       style="opacity:0.0918919;fill:#000000;fill-opacity:1;fill-rule:nonzero;stroke:none;stroke-width:1px;stroke-linecap:butt;stroke-linejoin:miter;stroke-opacity:1"
       id="path7544"
       d="m 358.04196,190.88763 c 2.8378,0.32928 5.1998,-0.03 7.68884,-1.39269 -21.63764,12.33994 21.6011,-14.07074 -0.78394,-0.59812 26.05241,-15.62405 -12.08127,8.18997 12.14012,-7.02363 1.59046,-0.99897 -3.29074,1.7917 -4.93611,2.68756 4.91183,-2.67995 10.37596,-8.18862 7.13511,-0.40693 -1.12567,3.08556 -3.20231,5.51408 -5.23437,7.96851 -4.19375,4.64772 -10.11264,7.32852 -15.79994,9.31377 -3.81351,0.50316 -6.0292,-0.42997 -7.19602,-4.01298 4.60609,-5.72764 9.63028,-5.39288 15.35188,-7.21854 6.23743,-3.17434 -9.51898,6.1997 -0.65823,0.13248 13.75907,-9.33813 6.17167,-1.42295 2.60608,1.81785 -15.94934,11.25742 -8.30726,1.53288 -0.61168,0.93486 -0.7064,1.30807 5.4204,-1.83308 4.1721,-1.094 -23.80045,14.09163 -0.68676,0.3022 -6.28399,2.76516 14.76059,-7.86532 -2.63918,1.11014 -8.16863,3.54169 -4.63976,-0.98474 7.30734,-4.46627 10.24949,-5.27175 6.19384,-2.94926 -3.33976,1.98074 -5.27248,3.08036 l 6.45415,-5.31067 c 7.90601,-0.43058 -3.33897,6.35235 -7.65909,7.41157 -8.76821,2.18124 -5.67219,-1.41332 2.6444,-5.26198 14.72905,-5.33705 -13.74708,7.89281 8.26553,-3.4201 4.12796,4.85219 -5.43249,7.85537 -10.92779,8.69625 -13.0202,0.0332 18.59922,-12.7995 -0.46383,-2.8942 5.02462,-4.28767 5.76508,-6.12684 12.67561,-8.2458 -4.21915,3.15143 -8.54348,6.49475 -13.4717,8.41892 -7.20032,1.57812 -8.49643,2.23408 -1.45378,-1.7352 1.24792,2.28048 2.78947,3.36666 6.24503,2.46939 11.19179,-4.76706 -5.45172,4.41971 1.78691,-0.78015 2.01251,-2.39906 4.13516,-4.75306 5.29069,-7.75124 1.51526,-3.58945 11.79541,-12.31214 7.95027,-6.26428 -20.02345,12.90408 8.32085,-4.3016 -10.05328,6.42496 -2.19222,1.27979 4.3394,-2.64263 6.50964,-3.96299 3.17433,-1.93124 -12.8145,7.50493 -9.66225,5.53432 1.99423,-1.24669 9.04508,-5.45989 6.01665,-3.6797 -18.37795,11.28877 -2.37483,1.45589 -0.96913,0.60278 4.24749,-2.57774 -16.16752,11.66017 -12.2663,8.53804 -2.63419,1.07673 -5.19758,1.25346 -8.03851,1.11287 z"
       inkscape:connector-curvature="0" />
    <path
       style="fill:#000000;fill-opacity:1;fill-rule:evenodd;stroke:none;stroke-width:1px;stroke-linecap:butt;stroke-linejoin:miter;stroke-opacity:1"
       d="m 150.34515,110.64976 c -0.32371,-0.97452 -0.98447,-1.93021 -1.02631,-2.91747 -0.0334,-0.78759 -0.14482,-1.91968 0.41518,-2.42142 2.94756,-2.64091 6.67843,-4.52585 9.94243,-6.890702 1.9918,-1.704805 4.02962,-3.365265 5.99289,-5.097563 0.67348,-0.91101 1.34694,-1.822021 2.02041,-2.733028 -0.6832,-0.516997 -1.72673,-0.804561 -2.10925,-1.50681 -0.37906,-0.695907 -0.86175,-1.756235 -0.60684,-2.448301 0.32226,-0.874939 0.93602,-2.019749 1.77356,-2.406234 1.60517,-0.740708 3.50782,-1.187636 5.30838,-1.381176 1.96466,-0.211176 3.9896,0.188208 5.95042,-0.08744 1.94746,-0.273769 4.00885,-0.28121 5.81835,-1.068448 1.02885,-0.447612 1.95206,-1.615886 2.94446,-1.659585 0.91413,-0.04025 2.53188,0.729061 2.77513,1.407735 0.21927,0.611747 -0.69508,1.95542 -1.38757,2.463529 -0.73935,0.542506 -2.05485,0.14117 -2.82519,0.89097 -0.53369,0.519454 -1.46489,0.740129 -1.75985,1.41198 -0.8095,1.843897 -1.60683,3.736349 -2.15371,5.687447 -0.48336,1.724484 -0.67254,3.567234 -1.33842,5.211279 -0.42487,1.049004 -0.80125,2.460591 -1.63581,2.987247 -0.84253,0.53167 -2.33836,-0.248412 -3.40982,0.10155 -5.21717,1.70406 -11.12663,4.11476 -15.50269,5.62425 -4.37605,1.50949 -6.12383,1.79217 -9.18575,4.83219 z"
       id="path1397"
       sodipodi:nodetypes="csscccssssssssssssssszc"
       inkscape:connector-curvature="0" />
    <path
       style="fill:#bd5900;fill-opacity:1;fill-rule:evenodd;stroke:none;stroke-width:1px;stroke-linecap:butt;stroke-linejoin:miter;stroke-opacity:1"
       d="m 172.67586,86.037838 c 1.1975,-0.142929 1.26794,1.214897 2.81764,3.144442 1.5497,1.929545 1.70299,2.085059 2.68917,3.871675 0.98617,1.786616 1.02231,1.932469 0.56352,2.572727 -0.42123,0.587849 -1.43592,1.583177 -4.94327,2.988929 l -22.82288,9.147469 c 0,0 -1.33838,-1.08455 2.25411,-4.15753 3.59249,-3.07298 7.19101,-5.21696 10.8631,-8.785268 2.34924,-2.282843 2.90511,-3.294406 3.2251,-4.494567 3.16191,-0.951098 4.15601,-4.144948 5.35351,-4.287877 z"
       id="path3154"
       sodipodi:nodetypes="cszzzcsscc"
       inkscape:connector-curvature="0" />
    <path
       style="fill:#383430;fill-opacity:1;fill-rule:evenodd;stroke:#000000;stroke-width:0.0558494px;stroke-linecap:butt;stroke-linejoin:miter;stroke-opacity:1"
       d="m 171.36729,91.71605 c -0.42998,-0.164549 -3.85833,2.502767 -4.20909,2.788796 -0.35075,0.28603 -2.19223,1.287136 -1.22765,2.145229 0.80594,0.716961 1.70995,0.303908 3.06913,-0.929598 1.35918,-1.233505 2.86967,-3.812291 2.36761,-4.004427 z"
       id="path4031"
       sodipodi:nodetypes="cssss"
       inkscape:connector-curvature="0" />
    <path
       style="fill:#000000;fill-opacity:0.14516129;fill-rule:nonzero;stroke:none;stroke-width:1px;stroke-linecap:butt;stroke-linejoin:miter;stroke-opacity:1"
       id="path7546"
       d="m 179.16842,84.2627 c 1.59424,-4.68816 3.58984,-3.883136 8.74603,-7.773296 2.07376,-1.564576 -8.62703,5.646914 -6.47011,4.23551 2.47802,-1.621509 4.97138,-3.213058 7.4334,-4.865844 1.67335,-1.123345 -3.43063,2.076262 -5.14594,3.114391 15.79602,-8.607968 7.12351,-5.283402 2.01209,-3.514158 -11.04518,4.213445 2.74035,-4.867319 -1.10163,-0.328726 -0.0667,2.227658 -2.35793,3.755084 -4.08502,4.805699 3.252,-3.317472 7.94627,-4.278378 12.18291,-5.483727 -0.69155,1.076549 -23.28937,14.619483 -6.55458,3.706108 l -7.52951,3.425898 c 3.9675,-2.696482 20.24775,-12.465612 6.67408,-3.266007 3.14522,-2.328677 9.21546,-6.901377 2.75053,-1.780874 -3.40778,2.323061 -13.32484,11.431067 -10.8505,2.27663 3.47581,-5.34195 9.37564,-8.329707 15.13267,-8.630431 9.33943,5.227813 -18.6788,14.861371 -1.09948,5.370801 -22.09497,15.468102 1.87588,-2.627607 -4.77226,4.461234 z"
       inkscape:connector-curvature="0" />
    <path
       style="fill:#000000;fill-opacity:0.34408599;fill-rule:evenodd;stroke:none;stroke-width:1px;stroke-linecap:butt;stroke-linejoin:miter;stroke-opacity:0.40322583"
       d="m 193.07042,98.199409 c 1.9319,0 8.88043,0 12.57182,0 5.02441,0 1.39947,4.149691 -0.56352,5.145451 -2.48638,1.26125 -5.52839,2.34165 -7.32587,1.14343 -2.28338,-1.52212 2.54642,-3.47702 -4.68243,-6.288881 z"
       id="path7551"
       sodipodi:nodetypes="csssc"
       inkscape:connector-curvature="0" />
    <path
       style="fill:#000000;fill-opacity:0.32795697;fill-rule:evenodd;stroke:none;stroke-width:1px;stroke-linecap:butt;stroke-linejoin:miter;stroke-opacity:1"
       d="m 197.93875,97.238643 c 4.27307,0 7.81645,0.328231 11.83409,1.143435 2.92996,0.594504 -1.3824,2.233252 -2.25412,4.002012 -1.39763,2.8359 -1.73488,3.7274 -5.07174,4.57374 -2.7043,0.6859 -6.912,2.75806 -6.76234,1.71515 0.36513,-2.54436 1.69058,-5.27546 1.69058,-8.00404 0,-2.507846 -5.84861,-1.584033 -7.12243,-2.876364 -0.59401,-0.602641 4.88693,-0.553933 7.68596,-0.553933 z"
       id="path7553"
       sodipodi:nodetypes="csssssss"
       inkscape:connector-curvature="0" />
    <path
       style="fill:#000000;fill-opacity:0.04838712;fill-rule:evenodd;stroke:none;stroke-width:1px;stroke-linecap:butt;stroke-linejoin:miter;stroke-opacity:1"
       d="m 215.90784,92.907698 c -0.56564,0.08148 -1.71693,8.709792 -4.9058,11.945002 -3.18886,3.23521 -6.6357,4.36148 -9.81159,5.97251 -3.17589,1.61102 -4.29485,10.70535 -5.88696,13.93584 -1.5921,3.23048 -1.96231,8.4666 -1.96231,13.93583 0,5.46923 0.0231,9.90728 -1.96232,13.93584 -1.98543,4.02857 -3.86675,8.72382 -4.9058,12.94042 -1.03905,4.21659 -1.83937,10.45066 -2.94347,14.93126 -1.10411,4.48061 -2.67341,6.86735 -3.92464,11.945 -1.25123,5.07765 -1.29217,6.65239 2.94348,10.94959 4.23565,4.2972 13.30133,-2.15763 15.69854,-3.98167 2.39722,-1.82404 1.80169,-1.46229 4.9058,-3.98167 3.10411,-2.51937 5.88696,-4.78479 5.88696,-9.95417 0,-5.16938 0.78771,-37.04085 1.96231,-41.80751 1.1746,-4.76667 2.94348,-10.15763 2.94348,-14.93126 0,-4.77362 0.98116,-8.83103 0.98116,-13.93584 0,-5.1048 0.98285,-8.96562 1.96231,-12.94042 0.97947,-3.974803 -0.41551,-9.040233 -0.98115,-8.958752 z"
       id="path7557"
       sodipodi:nodetypes="czzzzzzzzzzzzzzzzz"
       inkscape:connector-curvature="0" />
    <path
       style="fill:#000000;fill-opacity:0.38709675;fill-rule:evenodd;stroke:none;stroke-width:1px;stroke-linecap:butt;stroke-linejoin:miter;stroke-opacity:1"
       d="m 189.01817,80.762043 c 0.78517,0.340625 3.39421,0.285858 5.07175,0.285858 1.7256,0 2.64322,-0.912025 3.66294,-1.429293 1.10438,-0.560215 2.59245,-0.342974 2.81764,-0.285857 1.09719,0.278282 -1.45441,1.761391 -2.25412,2.572723 -1.02547,1.040376 -2.22569,1.129021 -3.38116,1.715154 -1.11392,0.565049 -2.69994,0.202635 -3.66294,-0.285862 -1.5393,-0.780838 -2.25411,-0.354333 -2.25411,-2.572723 z"
       id="path7563"
       inkscape:connector-curvature="0" />
    <path
       style="fill:#ffffff;fill-opacity:0.66129037;fill-rule:evenodd;stroke:none;stroke-width:1px;stroke-linecap:butt;stroke-linejoin:miter;stroke-opacity:1"
       d="m 203.10637,69.041843 c 1.14574,0.308366 2.39596,1.001485 3.38117,2.001011 0.8301,0.842167 2.37799,1.103389 3.66293,1.429293 1.15124,0.29199 2.14017,1.313694 3.0994,2.286865 0.85746,0.869919 1.0746,1.894572 1.69059,3.144446 0.61219,1.242183 1.17056,2.375146 1.69058,3.4303 0.83591,1.696121 1.50408,1.807714 0.84529,3.144443 -0.83018,1.684484 -2.9936,-2.072179 -3.0994,-2.286866 -0.93573,-1.898651 0.4601,-2.625195 -1.69059,-3.716161 -1.73458,-0.879896 -3.89509,-1.547063 -5.35351,-2.286869 -0.78088,-0.396113 -2.00973,-3.01029 -2.25411,-4.002016 -0.46922,-1.904141 -1.97235,-0.248438 -1.97235,-3.144446 z"
       id="path7565"
       inkscape:connector-curvature="0" />
    <path
       style="fill:none;fill-opacity:0.75;fill-rule:evenodd;stroke:#000000;stroke-width:0.34850693px;stroke-linecap:butt;stroke-linejoin:miter;stroke-opacity:1"
       d="m 140.55477,146.50949 c -0.0228,-0.0924 0,-0.19057 0,0 z"
       id="path7567"
       inkscape:connector-curvature="0" />
    <path
       style="fill:#000000;fill-opacity:0.15053765;fill-rule:nonzero;stroke:none;stroke-width:1px;stroke-linecap:butt;stroke-linejoin:miter;stroke-opacity:1"
       id="path8444"
       d="m 286.7183,158.53604 c 1.96747,-2.79569 4.0406,-5.61915 6.06546,-8.41679 4.31669,-7.00155 8.73012,-8.83318 16.47958,-13.08908 7.0823,-2.60029 13.07534,-6.10557 1.46149,0.39213 l 9.59419,-3.83757 c -6.31209,3.83014 -12.22544,7.64889 -19.21875,9.88187 12.01231,-7.36297 5.20625,-4.02335 1.25638,2.57869 -2.09834,2.6745 -4.36886,5.40271 -5.92604,8.40931 z"
       inkscape:connector-curvature="0" />
    <path
       style="fill:#000000;fill-opacity:0.12365591;fill-rule:nonzero;stroke:none;stroke-width:1px;stroke-linecap:butt;stroke-linejoin:miter;stroke-opacity:1"
       id="path8446"
       d="m 293.58641,146.59103 c 3.12239,-3.49442 3.44804,-6.36115 2.40241,-10.01563 -4.15307,-2.69576 -8.66759,-1.58963 -13.16872,-0.57782 -1.40619,0.6905 -2.96224,0.89547 -4.45853,1.27569 l 8.1698,-6.30258 c 1.49217,-0.43881 3.01503,-0.77604 4.47076,-1.34448 4.76617,-0.9894 9.51863,-1.66339 13.725,1.34774 2.82714,4.09688 0.95638,7.43601 -1.42841,11.53565 z"
       inkscape:connector-curvature="0" />
    <path
       style="fill:#000000;fill-opacity:0.09139787;fill-rule:nonzero;stroke:none;stroke-width:1px;stroke-linecap:butt;stroke-linejoin:miter;stroke-opacity:1"
       id="path8448"
       d="m 286.94399,149.66687 c 0.48053,-4.78151 0.17066,-6.12147 -4.21303,-7.83517 -1.11633,-0.60637 -2.34155,-0.94949 -3.50953,-1.4231 l 8.50127,-5.82021 c 1.17334,0.47135 2.35599,0.91887 3.52026,1.41416 4.64312,1.844 5.39956,3.82411 5.07815,8.817 z"
       inkscape:connector-curvature="0" />
    <path
       style="opacity:0.06486487;fill:#000000;fill-opacity:1;fill-rule:nonzero;stroke:none;stroke-width:1px;stroke-linecap:butt;stroke-linejoin:miter;stroke-opacity:1"
       d="m 237.43462,197.1717 c 8.59697,4.17943 16.32233,13.70218 25.57093,13.67131 12.57666,0.76008 24.74232,6.8899 37.18865,9.32608 7.77236,-0.1598 14.18846,-9.02489 21.84431,-10.34055 8.65772,-2.92504 17.60821,-3.86422 25.97619,-8.8394 -2.43365,2.63766 -4.57543,2.36346 -4.05621,-2.50727 -2.18631,-1.99115 -8.37619,5.53178 -3.38036,0.27739 1.46937,-1.59762 4.18801,-3.36111 1.29716,-0.62844 -7.68073,8.07057 -15.86993,14.79012 -24.51559,19.53593 -5.35433,3.64675 -11.17303,4.93056 -16.93127,4.19827 -6.13841,0.40256 -12.41828,0.20965 -18.16676,-3.84258 -3.36326,-3.57148 -9.83902,-1.11888 -11.75203,-5.75784 3.90242,-5.4173 8.79222,-9.00439 13.76755,-10.98333 6.68386,-3.18329 13.3465,-7.39007 20.42862,-7.09101 8.08942,0.44051 16.14695,2.53922 24.06173,5.28486 0.48742,7.30652 -6.33504,7.82859 -9.03065,11.92079 -7.57383,5.40462 -16.02305,3.77381 -24.01976,3.20835 -3.81888,1.11803 -8.3236,-7.39872 -2.97306,-9.84931 5.55079,-1.98624 11.35455,-0.69858 16.9704,0.056 6.43753,0.93282 12.84556,3.33794 19.31413,3.13014 3.10246,-0.34856 8.39415,-4.09128 9.93403,-4.05473 -1.40266,1.48375 -7.08175,7.02406 -2.96314,2.21825 1.87544,-1.92073 4.37595,-8.84717 0.16857,-5.56637 -6.82042,3.45646 -12.5787,12.46726 -20.09257,11.93703 -10.79434,1.20997 -21.40237,-3.65994 -32.10233,-4.39104 2.51941,-5.39881 7.78369,-11.67535 12.74773,-8.7064 11.51016,1.92504 23.73425,7.90072 34.97141,0.55391 4.90311,-3.04087 9.17393,-9.8765 14.676,-9.45607 5.40972,5.57534 -3.72201,12.38751 -6.56616,15.50618 -6.50286,6.79092 -13.98784,12.40761 -21.88148,11.00131 -8.64614,-2.12226 -17.56772,-1.48786 -26.00586,-5.71274 -2.6687,-5.60699 5.16164,-7.09594 7.47726,-7.32326 8.70217,2.91647 17.93422,3.5654 26.47462,-1.0098 -4.00448,6.44138 -9.97879,4.87905 -14.86786,2.81593 -9.80882,-3.20061 -20.15564,-3.2147 -29.60931,2.66696 -2.73332,1.23112 -9.75791,5.56432 -9.82031,4.65324 4.23448,-5.09816 9.56739,-10.58164 14.84533,-5.99113 6.194,3.49719 12.64827,6.73986 19.27028,5.53866 6.81029,0.53337 13.81896,-0.36612 20.03107,-5.37137 3.10651,-1.7042 11.80967,-7.51649 11.32372,-6.77138 -1.37932,1.70805 -8.8392,8.47008 -3.89171,3.19914 5.15151,-5.59767 10.28458,-11.62334 16.18542,-14.8557 6.705,0.30224 2.91881,13.61803 -1.27331,15.94847 -8.44975,9.4533 -19.05753,9.53868 -28.7175,13.03572 -6.64566,1.72509 -9.2275,-0.11128 -15.28889,4.71801 -7.08349,4.39478 -18.21992,3.93585 -25.29536,2.4016 -9.12598,-2.89674 -18.38214,-4.50462 -27.64282,-5.49669 -7.64712,-2.17097 -14.02668,-10.57069 -21.68649,-12.67147 2.66856,-3.19522 5.33712,-6.39043 8.00568,-9.58564 z"
       id="path9323"
       sodipodi:nodetypes="ccccccccccccccccccccccccccccccccccccccccccccccccc"
       inkscape:connector-curvature="0" />
    <path
       style="fill:#f8f9ef;fill-opacity:1;fill-rule:evenodd;stroke:#000000;stroke-width:0.40187261px;stroke-linecap:butt;stroke-linejoin:miter;stroke-opacity:1"
       d="m 224.39182,191.96961 c 2.60025,-9.39268 10.6146,-18.07069 18.94732,-21.123 8.31876,-3.0472 16.86841,-5.98234 25.04926,-9.58049 10.3575,-4.55551 25.39603,-8.14035 28.79311,-18.55932 3.23952,-9.93572 13.30574,-13.38606 22.16768,-15.20676 9.33511,-1.9179 19.49281,-5.00414 28.55392,-3.10235 5.97496,1.25406 19.13072,9.3633 19.77905,11.29034 0.46826,1.39179 -3.09181,0.83855 -6.39576,0.30796 1.14051,1.10279 8.22348,-0.0498 9.18786,3.00458 1.05883,3.35352 -3.98795,1.73228 -6.31458,2.18693 1.32884,1.28488 7.41291,-1.20654 8.58058,2.05488 1.01561,2.83673 -2.18356,3.52522 -4.40881,3.81787 2.81764,0.0424 5.74055,-0.79558 7.38313,1.79298 1.53087,2.41254 -0.008,3.9396 -6.57038,3.27326 5.52052,0.66761 9.53538,1.11532 9.3631,2.85452 -0.17311,1.74766 -2.4354,2.26575 -7.23172,1.1892 4.75105,1.01738 9.61269,1.14301 9.66698,3.02843 0.0419,1.45477 -2.36463,2.82021 -4.97597,3.03396 2.57588,0.68005 4.67053,0.81837 4.53061,2.92052 -0.13072,1.96398 -6.21833,2.7552 -6.12909,3.64026 0.0937,0.92929 4.3509,0.16889 3.70357,2.55715 -0.28578,1.05438 -3.85026,1.49277 -4.67456,2.96273 -0.55571,0.991 6.03287,3.01748 -0.54473,2.98057 -4.31775,-0.0242 -5.54304,-0.14223 -8.67914,0.30328 8.08538,0.48089 8.08961,-0.22503 9.18421,1.36256 0.82753,1.20025 -4.67171,7.08421 -7.68854,7.43425 -4.99207,0.57924 -1.97256,0.40318 -11.64037,0.11968 9.98816,-0.2733 11.38274,-1.46072 12.60143,0.80961 0.8349,1.55534 -12.67884,7.61523 -18.8534,6.44774 24.06204,-3.88933 9.06557,3.60545 1.69307,8.38446 -8.6735,5.62234 -19.82223,8.65915 -29.57163,6.68647 -7.80944,-1.58015 -41.12029,2.834 -50.84936,5.86836 -6.39403,1.99421 -40.8238,-11.44579 -45.00458,-20.42423 l 0.10436,-1.06581 z"
       id="path5779"
       sodipodi:nodetypes="cssssssczczczczczczsssscsscscssscccc"
       inkscape:connector-curvature="0" />
    <path
       style="opacity:0.09729728;fill:#000000;fill-opacity:1;fill-rule:nonzero;stroke:none;stroke-width:1px;stroke-linecap:butt;stroke-linejoin:miter;stroke-opacity:1"
       id="path7542"
       d="m 338.08979,133.51566 c 1.80009,-0.15284 3.11204,0.48827 4.40806,1.48987 0.77292,1.55957 0.45857,3.12365 -0.0446,4.69812 -1.4029,1.82641 0.62988,2.17396 2.27024,2.92494 1.66831,0.55102 2.89677,1.51043 4.09509,2.64349 1.34891,1.25936 1.28392,2.85461 1.45716,4.47495 0.6345,1.63317 1.99026,2.88265 2.85595,4.39355 0.71463,1.59563 0.94212,3.2315 0.98924,4.935 0.12207,1.78369 -0.17293,3.50966 -0.85551,5.17794 -1.1644,1.42323 -2.81857,2.33423 -3.7781,3.84688 -0.0543,1.7741 -0.36981,3.37849 -1.11701,5.02396 -0.6595,1.57105 -1.60411,2.90488 -2.88687,4.1029 -2.49812,1.83507 -5.10337,3.25284 -7.93961,4.68268 6.20147,-4.46372 1.68341,0.12818 0.28765,1.53039 -1.28,2.48899 -15.38273,9.32002 -6.8782,4.97176 -1.60931,0.99592 -3.12119,2.12003 -4.54823,3.31672 -1.03481,1.43756 -2.60279,2.36136 -4.10827,3.35371 -1.29221,0.8262 -2.55248,1.68646 -3.83673,2.52087 -1.945,1.08582 -1.16147,1.60961 -0.23648,3.02554 -1.01243,3.14093 -4.15207,4.1919 -7.17912,5.69144 -1.73144,0.32944 -3.30931,1.03867 -4.89027,1.71172 -1.82749,0.70833 -3.32094,1.19705 -5.23083,0.71226 -0.156,-0.1098 -0.34608,-0.16045 -0.51912,-0.24068 l 3.51727,-2.08006 c 0.17564,0.083 0.35689,0.15646 0.52691,0.24897 1.81305,0.27783 3.31028,-0.34916 5.00615,-0.98094 1.57855,-0.69349 3.18932,-1.30235 4.90004,-1.69326 -5.7729,3.09085 -1.04951,0.90558 0.135,-1.62708 -0.97845,-1.29028 -1.85007,-2.27381 0.0596,-3.37418 1.28049,-0.8437 2.54528,-1.69038 3.84278,-2.52112 1.51274,-0.97126 3.13565,-1.88242 4.17419,-3.3066 1.388,-1.23171 2.89427,-2.35325 4.46303,-3.38949 11.59424,-6.02315 -5.5745,3.95934 7.04329,-4.92178 2.22225,-2.40315 2.95067,-4.03623 6.76238,-5.30516 -3.90084,2.09798 -2.39385,1.22395 0.74555,-0.93677 1.3747,-1.08438 2.33573,-2.37566 3.00234,-3.92976 0.77686,-1.61919 1.15114,-3.19124 1.11853,-4.9633 0.78826,-1.68066 2.32891,-2.59533 3.73316,-3.93168 0.70941,-1.60818 1.11549,-3.24344 0.95586,-5.00805 -0.0319,-1.67282 -0.21591,-3.2751 -0.94443,-4.83654 -0.84265,-1.519 -2.22232,-2.76535 -2.84636,-4.40497 -0.26687,-1.5407 -0.051,-3.11117 -1.36812,-4.32383 -1.18217,-1.09097 -2.4167,-1.9758 -4.01923,-2.54275 -1.74797,-0.78814 -4.03571,-1.43553 -2.578,-3.41019 0.55471,-1.43106 0.9059,-2.85276 0.2474,-4.32492 -1.283,-0.93387 -2.54055,-1.38053 -4.24968,-1.17284 z"
       inkscape:connector-curvature="0" />
    <path
       style="opacity:0.26486487;fill:#585655;fill-opacity:0.51075266;fill-rule:nonzero;stroke:none;stroke-width:1px;stroke-linecap:butt;stroke-linejoin:miter;stroke-opacity:1"
       id="path7540"
       d="m 319.49208,136.6227 c 1.46357,-0.6086 3.25032,-0.65747 4.85811,-0.93725 2.01362,-0.42131 2.88746,0.40733 4.10409,1.83734 0.9932,1.3646 0.98071,2.81715 0.37202,4.2904 -7.51313,5.06945 -3.6305,0.77962 0.27186,0.95248 1.94182,-0.1936 3.47104,0.11374 5.10276,1.09544 2.02407,3.37298 0.002,4.17296 -3.19628,6.01835 -4.23331,0.97035 0.31566,-0.63554 2.03078,-1.41658 2.2611,0.0152 4.06168,0.45392 4.80429,2.71394 0.21897,1.65827 -0.14241,3.31394 -0.48913,4.93064 -0.15775,3.97599 -1.28562,3.90783 -5.23112,6.13571 -1.70577,0.78532 -3.36109,1.03588 -5.21216,0.83546 -2.73065,-1.31708 1.57771,-2.13412 3.59513,-0.10573 1.35239,1.20636 2.19938,2.65607 2.63376,4.39557 0.28557,3.37769 -2.76422,3.78986 -5.5396,5.19938 -4.21426,0.1463 -3.04229,-0.20687 -0.65446,-1.25314 0.48547,1.66511 0.60903,3.14821 0.0682,4.79754 -1.5173,2.68849 -4.43314,4.29349 -7.40467,4.79899 -1.65615,0.25201 -3.31926,0.53357 -4.95237,0.92333 -1.56164,0.78501 -3.2777,0.86677 -4.9704,1.14411 -2.51442,1.68296 0.90251,-4.51303 0.97853,1.28624 0.55837,2.05446 -0.0165,3.32634 -1.47565,4.71906 -1.99002,1.3511 -0.44976,0.86462 -7.33477,3.81337 8.748,-4.8925 -9.49254,5.85083 -0.27366,0.55119 -6.83126,6.71461 -1.13438,-5.14655 -1.4523,3.50611 -1.24226,2.69464 -4.49515,4.06876 -7.38891,4.16906 -2.06242,0.99511 3.6072,-5.45252 -1.0258,2.4684 -1.9294,3.28462 -5.13356,3.44251 -8.35934,3.35021 -1.91601,-0.0299 -3.83223,-0.0134 -5.74837,-0.0103 -1.96415,-0.10452 -3.87761,-0.0556 -5.79127,0.35344 l 2.98392,-2.29038 c 1.9431,-0.29864 3.89389,-0.29812 5.86401,-0.28477 1.91808,0.002 3.83632,0.003 5.75427,0.0157 7.21538,0.22028 -1.34603,2.38222 1.94373,0.34924 1.65609,-2.77047 3.46107,-6.81233 7.46433,-6.15192 4.64757,-0.4906 -2.9136,2.86678 0.90452,-0.29284 0.2243,-4.50646 6.15845,-7.35656 1.31087,-3.79161 8.07763,-4.75252 1.4844,-0.87035 0.45269,-0.27415 -2.16323,1.25009 7.98136,-5.8949 6.32201,-4.02667 4.31601,-1.65412 5.67436,-2.41422 0.85105,-0.0494 1.4985,-1.26087 2.22951,-2.30981 1.65882,-4.3541 -0.30506,-3.31551 2.00242,-4.67238 5.3794,-5.31712 1.69451,-0.27766 3.37089,-0.46889 4.9603,-1.16912 1.65002,-0.35396 3.30873,-0.69039 4.98367,-0.89895 4.79671,-1.20556 -3.2527,2.77745 0.92896,-0.99012 0.64988,-1.57521 0.51742,-2.99771 -0.0287,-4.61665 2.55426,-2.01467 3.73884,-2.98447 7.05702,-2.769 -2.39199,1.56809 -1.32218,2.25266 -0.80521,-1.13463 -0.44885,-1.66354 -1.19704,-3.03676 -2.50498,-4.21743 -2.76873,-2.71465 -1.2621,-4.2627 2.69025,-4.02718 1.8054,0.15715 3.43322,-0.23374 5.08461,-0.99169 -3.63972,2.1729 -1.17028,1.39796 -1.11468,-2.13693 0.36088,-1.56983 0.68999,-3.19493 0.55099,-4.81098 -0.79096,-2.08241 -2.39449,-2.29506 -4.55946,-2.29941 -3.50735,-0.98149 2.30058,-2.85582 4.0301,-3.14996 -5.16961,3.05129 -1.08567,1.27752 -2.97116,-1.61891 -1.59036,-0.86206 -3.107,-1.07465 -4.94177,-0.92465 -6.42956,-0.32839 4.6764,-4.22063 -0.73693,-1.66219 0.66612,-1.28718 0.85122,-2.50282 -0.10602,-3.81802 -1.16289,-1.39013 -1.9985,-1.95157 -3.88738,-1.52987 -1.65742,0.2852 -3.37124,0.40584 -4.95788,0.93818 z"
       inkscape:connector-curvature="0" />
    <path
       style="fill:#ffffff;fill-opacity:0.75806448;fill-rule:nonzero;stroke:none;stroke-width:1px;stroke-linecap:butt;stroke-linejoin:miter;stroke-opacity:1"
       d="m 233.09392,186.20394 c 1.70701,-7.16013 9.03301,-9.93401 14.77437,-13.01573 5.84317,-2.68256 12.31418,-3.63561 18.15335,-6.3879 5.55646,-2.35043 11.3055,-3.98731 17.11275,-5.5216 2.28321,-0.41314 8.55556,-3.58422 8.16128,-3.11229 -1.52956,1.12362 -7.88617,5.12711 -6.86388,4.4405 3.6317,-2.3184 7.32149,-4.54866 10.93783,-6.88787 -2.03413,1.08288 -8.08942,4.97063 -8.09302,4.59654 5.42062,-3.09802 8.75842,-8.63527 10.67165,-14.48096 2.43894,-6.56828 7.43334,-11.99975 13.87274,-14.64464 9.6889,-4.34374 20.52905,-3.6744 30.82349,-5.01626 5.30208,-0.73714 10.69219,0.57259 15.42089,2.91576 1.33269,1.41411 -2.57701,2.1525 -3.6308,3.259 -1.57458,0.93676 -3.14916,1.87351 -4.72375,2.81026 -4.94049,-2.76005 -10.86034,-3.54032 -16.44789,-2.70396 -7.96829,0.76815 -15.96914,1.16776 -23.80748,2.91425 -5.17633,0.63049 8.38887,-5.99117 2.61917,-1.56805 -5.97749,6.0909 -5.90957,16.20166 -13.20522,21.23722 -3.2324,2.73065 -6.47653,5.44782 -9.66177,8.23518 1.89287,-1.23997 8.46609,-7.8949 2.58579,-4.61257 -5.65552,2.92652 -10.39043,7.71225 -16.7872,8.9752 -8.65463,1.93219 -16.72014,5.74434 -25.10445,8.51149 -2.38061,0.50373 -8.29028,2.67538 -8.66471,2.68812 1.45536,-1.20363 5.60247,-2.94715 2.55588,0.35161 -0.88365,2.28868 -3.00098,3.07207 -5.03653,4.08959 -1.88749,0.97571 -3.77499,1.95141 -5.66249,2.92711 z"
       id="path9327"
       inkscape:connector-curvature="0" />
    <path
       style="fill:#ffffff;fill-opacity:0.55913978;fill-rule:nonzero;stroke:none;stroke-width:1px;stroke-linecap:butt;stroke-linejoin:miter;stroke-opacity:1"
       d="m 270.05197,138.96391 c -3.97498,-0.12887 -7.98013,0.7028 -11.70342,2.03753 -1.05402,0.71078 -4.95069,2.26659 -2.04359,0.27186 1.11271,-0.59427 4.25058,-3.22624 4.58907,-2.24191 -2.61733,2.649 -5.90711,4.5235 -8.37224,7.3634 -2.22576,2.54434 -4.60306,4.96897 -7.43224,6.84575 -3.01308,2.13168 -6.09595,4.18542 -9.34848,5.92275 2.51896,-1.77645 5.26709,-3.23338 7.90789,-4.82793 -4.57433,3.57971 -9.52998,6.64254 -14.59494,9.44853 2.07482,-1.32376 4.2455,-2.491 6.37786,-3.71779 -4.40133,3.2223 -9.08183,6.02049 -13.7379,8.83702 1.30254,-0.34593 3.88316,-2.04947 4.3177,-1.74992 -2.01613,3.03665 -4.24253,5.95731 -6.88858,8.45963 1.06392,-0.79563 4.7747,-3.25747 4.14741,-3.08155 -1.35179,0.66412 -4.94553,3.86356 -2.7967,0.62757 1.81013,-3.2163 3.3374,-7.09201 7.03353,-8.41409 2.48457,-1.87144 4.7118,-4.16279 7.674,-5.29309 3.76138,-1.8232 7.85252,-2.80719 11.50735,-4.85188 1.1369,-0.60172 5.05305,-2.23258 2.00055,-0.58406 -1.29289,0.70083 -4.31308,2.27478 -4.555,2.34195 5.83766,-3.67268 9.16941,-9.96907 13.45931,-15.17876 -1.29914,0.96419 -3.8805,1.47092 -1.37816,-0.30608 0.71566,-0.76415 4.23499,-2.98645 1.8391,-0.74322 -2.49827,1.7449 -4.45272,3.96803 -4.27102,7.10538 -3.96277,3.53476 -8.7269,5.9967 -13.28819,8.63617 -0.77138,0.26641 3.17391,-1.87814 4.34332,-2.55758 1.1462,-0.6354 2.68726,-1.56385 0.79032,-0.27479 -3.98101,2.92241 -6.91069,7.10237 -11.24208,9.56665 -3.33614,2.19681 -6.71492,4.35267 -10.25604,6.19266 2.9945,-2.01247 6.30357,-3.51871 9.15874,-5.75198 -1.1935,0.80031 -4.6172,3.12319 -1.59679,1.02357 4.34687,-3.05236 8.91724,-5.79789 12.91125,-9.34163 -1.1683,0.11712 -4.43689,1.6299 -4.15684,1.22396 2.72236,-1.46976 5.31074,-3.32433 8.1005,-4.5755 -1.12508,1.43736 -4.59072,3.0569 -5.01763,3.55415 3.12004,-1.23707 6.24007,-2.47415 9.36011,-3.71122 -4.24896,2.40857 -8.20374,6.79225 -13.51132,6.00715 3.2896,-3.16999 6.41831,-7.37626 11.20221,-8.04761 2.08952,-0.26677 4.95258,1.62055 2.04244,2.93383 -3.95085,3.59358 -8.75644,5.98347 -12.8321,9.41433 -4.79631,3.48749 -9.76119,7.718 -15.89634,8.15227 -1.66699,0.10392 -4.0139,-0.38279 -1.35646,-1.41653 3.3993,-2.15694 6.77277,-4.35782 10.21483,-6.44412 -2.15124,1.3664 -4.34681,2.99954 -6.63942,3.92923 2.70306,-2.17412 5.25383,-4.54473 7.74188,-6.97915 4.00572,-3.66844 9.0664,-5.82323 13.64406,-8.63223 2.13683,-0.96967 4.98697,-3.19379 6.88127,-3.20089 -2.63523,2.45105 -5.71608,4.35538 -8.61995,6.45837 -3.16604,0.10357 -4.21748,-3.23486 -1.64725,-5.08714 3.31958,-3.66608 7.18641,-6.85378 11.29597,-9.57357 3.32957,-2.08074 7.3778,-3.76252 11.32863,-2.69854 -1.99349,4.99439 -5.5462,9.17196 -9.07561,13.13026 -3.76259,4.0782 -8.91598,6.33391 -13.52632,9.23234 -4.19259,2.28849 -8.52419,4.62887 -13.25497,5.47504 0.12035,-1.60717 3.80744,-2.84012 5.45508,-3.88286 2.39995,-0.82841 -1.92191,1.81273 -2.59347,2.26671 -1.58714,1.04881 -5.17207,3.18427 -5.4355,3.40473 1.87795,-1.03031 5.0164,-3.05293 6.14413,-3.40884 -3.33919,2.42959 -3.70401,7.29317 -6.85105,9.55294 -5.20464,3.43108 -10.30389,7.83379 -16.69522,8.54556 -2.47015,0.0686 1.7931,-3.10557 2.3432,-4.53714 1.59397,-1.73676 2.47947,-4.1694 4.41502,-5.51736 3.38733,-2.38323 6.87669,-4.63399 10.15012,-7.1736 -2.29415,1.23361 -4.40817,2.81335 -6.69162,4.05083 5.28533,-3.93064 11.0679,-7.1011 16.75979,-10.3712 -2.25461,1.43114 -4.51758,2.96537 -6.99809,3.94997 3.08178,-3.11465 7.2325,-4.86049 10.9282,-7.1212 2.25676,-1.10103 -2.11287,1.54778 -2.8243,1.83548 -1.22728,0.95982 -2.73409,0.70973 -0.87323,-0.61859 2.87669,-2.34203 5.43009,-5.01779 8.07654,-7.61685 6.57422,-5.65095 13.83401,-10.99577 22.27159,-13.27521 3.31348,-0.75671 6.69527,-1.34436 10.10335,-1.26782 -2.83809,2.09195 -5.67618,4.1839 -8.51426,6.27586 z"
       id="path10203"
       inkscape:connector-curvature="0" />
  </g>
</svg>
