<?xml version="1.0" encoding="UTF-8" standalone="no"?>
<!-- Created with Inkscape (http://www.inkscape.org/) -->
<svg xmlns:dc="http://purl.org/dc/elements/1.1/" xmlns:cc="http://creativecommons.org/ns#" xmlns:rdf="http://www.w3.org/1999/02/22-rdf-syntax-ns#" xmlns:svg="http://www.w3.org/2000/svg" xmlns="http://www.w3.org/2000/svg" xmlns:xlink="http://www.w3.org/1999/xlink" xmlns:sodipodi="http://sodipodi.sourceforge.net/DTD/sodipodi-0.dtd" xmlns:inkscape="http://www.inkscape.org/namespaces/inkscape" width="210mm" height="297mm" id="svg2" version="1.1" inkscape:version="0.48.0 r9654" sodipodi:docname="tucano.svg">
  <defs id="defs4">
    <linearGradient id="linearGradient3918">
      <stop style="stop-color:#be6c34;stop-opacity:1;" offset="0" id="stop3920"/>
      <stop style="stop-color:#784421;stop-opacity:1;" offset="1" id="stop3922"/>
    </linearGradient>
    <linearGradient id="linearGradient3894">
      <stop style="stop-color:#81756d;stop-opacity:1;" offset="0" id="stop3896"/>
      <stop style="stop-color:#4d4641;stop-opacity:1;" offset="1" id="stop3898"/>
    </linearGradient>
    <linearGradient id="linearGradient3864">
      <stop style="stop-color:#ff6e48;stop-opacity:1;" offset="0" id="stop3866"/>
      <stop style="stop-color:#fff71f;stop-opacity:1;" offset="0.45576921" id="stop3878"/>
      <stop style="stop-color:#f43300;stop-opacity:1;" offset="1" id="stop3868"/>
    </linearGradient>
    <linearGradient id="linearGradient3852">
      <stop style="stop-color:#ffa100;stop-opacity:1;" offset="0" id="stop3854"/>
      <stop style="stop-color:#ee710b;stop-opacity:1;" offset="1" id="stop3856"/>
    </linearGradient>
    <linearGradient id="linearGradient3840">
      <stop id="stop3848" offset="0" style="stop-color:#5a83ff;stop-opacity:1;"/>
      <stop style="stop-color:#283a71;stop-opacity:1;" offset="1" id="stop3844"/>
    </linearGradient>
    <linearGradient id="linearGradient3828">
      <stop style="stop-color:#ffffff;stop-opacity:1;" offset="0" id="stop3830"/>
      <stop id="stop3836" offset="0.54615384" style="stop-color:#000000;stop-opacity:1;"/>
      <stop style="stop-color:#000000;stop-opacity:1;" offset="1" id="stop3832"/>
    </linearGradient>
    <linearGradient id="linearGradient3814">
      <stop style="stop-color:#fd9616;stop-opacity:1;" offset="0" id="stop3816"/>
      <stop style="stop-color:#f23e00;stop-opacity:1;" offset="1" id="stop3818"/>
    </linearGradient>
    <linearGradient id="linearGradient3778">
      <stop style="stop-color:#4c4c4c;stop-opacity:1;" offset="0" id="stop3780"/>
      <stop style="stop-color:#000000;stop-opacity:1;" offset="1" id="stop3782"/>
    </linearGradient>
    <linearGradient id="linearGradient3000">
      <stop style="stop-color:#ffffff;stop-opacity:1;" offset="0" id="stop3002"/>
      <stop style="stop-color:#f2f2f2;stop-opacity:1;" offset="1" id="stop3004"/>
    </linearGradient>
    <radialGradient inkscape:collect="always" xlink:href="#linearGradient3000" id="radialGradient3006" cx="409.12241" cy="402.42886" fx="409.12241" fy="402.42886" r="89.401665" gradientTransform="matrix(0.99999807,0.00196408,-0.00488652,2.487946,1.9672667,-597.09394)" gradientUnits="userSpaceOnUse"/>
    <radialGradient inkscape:collect="always" xlink:href="#linearGradient3778" id="radialGradient3793" gradientUnits="userSpaceOnUse" gradientTransform="matrix(1.274624,0.00825164,-0.02627681,4.0589827,-97.414598,-1236.0162)" cx="403.49359" cy="436.84491" fx="403.49359" fy="436.84491" r="131.99583"/>
    <linearGradient inkscape:collect="always" xlink:href="#linearGradient3814" id="linearGradient3820" x1="332.45291" y1="224.50636" x2="380.5079" y2="296.15195" gradientUnits="userSpaceOnUse"/>
    <radialGradient inkscape:collect="always" xlink:href="#linearGradient3778" id="radialGradient3824" cx="112.97613" cy="415.52771" fx="112.97613" fy="415.52771" r="32.63544" gradientTransform="matrix(0.858894,0.5121534,-1.107764,1.8577479,476.24827,-422.03636)" gradientUnits="userSpaceOnUse"/>
    <radialGradient inkscape:collect="always" xlink:href="#linearGradient3828" id="radialGradient3834" cx="382.52631" cy="257.33432" fx="382.52631" fy="257.33432" r="12.94" gradientTransform="matrix(1,0,0,1.0230769,0,-6.0238046)" gradientUnits="userSpaceOnUse"/>
    <linearGradient inkscape:collect="always" xlink:href="#linearGradient3840" id="linearGradient3846" x1="373.466" y1="233.45929" x2="386.41058" y2="288.00638" gradientUnits="userSpaceOnUse"/>
    <linearGradient inkscape:collect="always" xlink:href="#linearGradient3852" id="linearGradient3858" x1="192.57475" y1="381.53601" x2="209.36819" y2="408.38486" gradientUnits="userSpaceOnUse"/>
    <radialGradient inkscape:collect="always" xlink:href="#linearGradient3864" id="radialGradient3880" cx="201.77332" cy="350.80551" fx="201.77332" fy="350.80551" r="140.2719" gradientTransform="matrix(2.3110209,-1.4888,0.45824396,0.71131875,-420.16284,402.39412)" gradientUnits="userSpaceOnUse"/>
    <radialGradient inkscape:collect="always" xlink:href="#linearGradient3894" id="radialGradient3900" cx="427.38077" cy="749.05872" fx="427.38077" fy="749.05872" r="40.97068" gradientTransform="matrix(0.33562259,0.11166801,-0.25933014,0.77942688,484.93696,115.10719)" gradientUnits="userSpaceOnUse"/>
    <radialGradient inkscape:collect="always" xlink:href="#linearGradient3894" id="radialGradient3902" cx="418.1312" cy="825.36151" fx="418.1312" fy="825.36151" r="17.87278" gradientTransform="matrix(0.98892617,0.14840835,-0.46392075,3.0913582,387.53265,-1795.5815)" gradientUnits="userSpaceOnUse"/>
    <radialGradient inkscape:collect="always" xlink:href="#linearGradient3894" id="radialGradient3904" cx="394.28223" cy="821.39001" fx="394.28223" fy="821.39001" r="15.739786" gradientTransform="matrix(0.9951487,0.09838222,-0.27593732,2.791141,228.56494,-1515.5504)" gradientUnits="userSpaceOnUse"/>
    <radialGradient inkscape:collect="always" xlink:href="#linearGradient3894" id="radialGradient3906" cx="290.72501" cy="758.41821" fx="290.72501" fy="758.41821" r="42.74744" gradientTransform="matrix(0.33439387,0.18799636,-0.56691673,1.0083891,633.21339,-62.805795)" gradientUnits="userSpaceOnUse"/>
    <radialGradient inkscape:collect="always" xlink:href="#linearGradient3894" id="radialGradient3908" cx="258.88968" cy="837.0824" fx="258.88968" fy="837.0824" r="18.934632" gradientTransform="matrix(0.77000487,0.03083014,-0.10426937,2.6042021,146.82542,-1360.8524)" gradientUnits="userSpaceOnUse"/>
    <radialGradient inkscape:collect="always" xlink:href="#linearGradient3894" id="radialGradient3910" cx="290.59921" cy="841.69867" fx="290.59921" fy="841.69867" r="9.18639" gradientTransform="matrix(1,0,0,4.3747515,0,-2847.2247)" gradientUnits="userSpaceOnUse"/>
    <linearGradient inkscape:collect="always" xlink:href="#linearGradient3778" id="linearGradient3914" x1="492.72934" y1="1162.5256" x2="490.41199" y2="868.7677" gradientUnits="userSpaceOnUse" gradientTransform="matrix(1.0352543,0.11063068,0,0.97031358,-32.089375,-66.631597)"/>
    <radialGradient inkscape:collect="always" xlink:href="#linearGradient3918" id="radialGradient3924" cx="390.6947" cy="728.99121" fx="390.6947" fy="728.99121" r="264.7475" gradientTransform="matrix(1,0,0,0.22440066,0,648.79483)" gradientUnits="userSpaceOnUse"/>
    <linearGradient inkscape:collect="always" xlink:href="#linearGradient3778" id="linearGradient3963" gradientUnits="userSpaceOnUse" gradientTransform="matrix(1.0352543,0.11063068,0,0.97031358,-32.089375,-66.631597)" x1="492.72934" y1="1162.5256" x2="490.41199" y2="868.7677"/>
    <radialGradient inkscape:collect="always" xlink:href="#linearGradient3918" id="radialGradient3965" gradientUnits="userSpaceOnUse" gradientTransform="matrix(1,0,0,0.22440066,0,648.79483)" cx="390.6947" cy="728.99121" fx="390.6947" fy="728.99121" r="264.7475"/>
    <radialGradient inkscape:collect="always" xlink:href="#linearGradient3864" id="radialGradient3967" gradientUnits="userSpaceOnUse" gradientTransform="matrix(2.3110209,-1.4888,0.45824396,0.71131875,-420.16284,402.39412)" cx="201.77332" cy="350.80551" fx="201.77332" fy="350.80551" r="140.2719"/>
    <linearGradient inkscape:collect="always" xlink:href="#linearGradient3852" id="linearGradient3969" gradientUnits="userSpaceOnUse" x1="192.57475" y1="381.53601" x2="209.36819" y2="408.38486"/>
    <radialGradient inkscape:collect="always" xlink:href="#linearGradient3778" id="radialGradient3971" gradientUnits="userSpaceOnUse" gradientTransform="matrix(1.274624,0.00825164,-0.02627681,4.0589827,-97.414598,-1236.0162)" cx="403.49359" cy="436.84491" fx="403.49359" fy="436.84491" r="131.99583"/>
    <radialGradient inkscape:collect="always" xlink:href="#linearGradient3894" id="radialGradient3973" gradientUnits="userSpaceOnUse" gradientTransform="matrix(0.33439387,0.18799636,-0.56691673,1.0083891,633.21339,-62.805795)" cx="290.72501" cy="758.41821" fx="290.72501" fy="758.41821" r="42.74744"/>
    <radialGradient inkscape:collect="always" xlink:href="#linearGradient3894" id="radialGradient3975" gradientUnits="userSpaceOnUse" gradientTransform="matrix(1,0,0,4.3747515,0,-2847.2247)" cx="290.59921" cy="841.69867" fx="290.59921" fy="841.69867" r="9.18639"/>
    <radialGradient inkscape:collect="always" xlink:href="#linearGradient3894" id="radialGradient3977" gradientUnits="userSpaceOnUse" gradientTransform="matrix(0.77000487,0.03083014,-0.10426937,2.6042021,146.82542,-1360.8524)" cx="258.88968" cy="837.0824" fx="258.88968" fy="837.0824" r="18.934632"/>
    <radialGradient inkscape:collect="always" xlink:href="#linearGradient3894" id="radialGradient3979" gradientUnits="userSpaceOnUse" gradientTransform="matrix(0.33562259,0.11166801,-0.25933014,0.77942688,484.93696,115.10719)" cx="427.38077" cy="749.05872" fx="427.38077" fy="749.05872" r="40.97068"/>
    <radialGradient inkscape:collect="always" xlink:href="#linearGradient3894" id="radialGradient3981" gradientUnits="userSpaceOnUse" gradientTransform="matrix(0.98892617,0.14840835,-0.46392075,3.0913582,387.53265,-1795.5815)" cx="418.1312" cy="825.36151" fx="418.1312" fy="825.36151" r="17.87278"/>
    <radialGradient inkscape:collect="always" xlink:href="#linearGradient3894" id="radialGradient3983" gradientUnits="userSpaceOnUse" gradientTransform="matrix(0.9951487,0.09838222,-0.27593732,2.791141,228.56494,-1515.5504)" cx="394.28223" cy="821.39001" fx="394.28223" fy="821.39001" r="15.739786"/>
    <linearGradient inkscape:collect="always" xlink:href="#linearGradient3814" id="linearGradient3985" gradientUnits="userSpaceOnUse" x1="332.45291" y1="224.50636" x2="380.5079" y2="296.15195"/>
    <linearGradient inkscape:collect="always" xlink:href="#linearGradient3840" id="linearGradient3987" gradientUnits="userSpaceOnUse" x1="373.466" y1="233.45929" x2="386.41058" y2="288.00638"/>
    <radialGradient inkscape:collect="always" xlink:href="#linearGradient3000" id="radialGradient3989" gradientUnits="userSpaceOnUse" gradientTransform="matrix(0.99999807,0.00196408,-0.00488652,2.487946,1.9672667,-597.09394)" cx="409.12241" cy="402.42886" fx="409.12241" fy="402.42886" r="89.401665"/>
    <radialGradient inkscape:collect="always" xlink:href="#linearGradient3778" id="radialGradient3991" gradientUnits="userSpaceOnUse" gradientTransform="matrix(0.858894,0.5121534,-1.107764,1.8577479,476.24827,-422.03636)" cx="112.97613" cy="415.52771" fx="112.97613" fy="415.52771" r="32.63544"/>
    <radialGradient inkscape:collect="always" xlink:href="#linearGradient3828" id="radialGradient3993" gradientUnits="userSpaceOnUse" gradientTransform="matrix(1,0,0,1.0230769,0,-6.0238046)" cx="382.52631" cy="257.33432" fx="382.52631" fy="257.33432" r="12.94"/>
  </defs>
  <sodipodi:namedview id="base" pagecolor="#ffffff" bordercolor="#666666" borderopacity="1.0" inkscape:pageopacity="0.0" inkscape:pageshadow="2" inkscape:zoom="0.77064723" inkscape:cx="372.04724" inkscape:cy="526.18109" inkscape:document-units="px" inkscape:current-layer="layer1" showgrid="false" inkscape:window-width="1920" inkscape:window-height="1030" inkscape:window-x="-8" inkscape:window-y="-8" inkscape:window-maximized="1"/>
  <metadata id="metadata7">
    <rdf:RDF>
      <cc:Work rdf:about="">
        <dc:format>image/svg+xml</dc:format>
        <dc:type rdf:resource="http://purl.org/dc/dcmitype/StillImage"/>
        <dc:title/>
      </cc:Work>
    </rdf:RDF>
  </metadata>
  <g inkscape:label="Camada 1" inkscape:groupmode="layer" id="layer1">
    <g id="g3943" transform="matrix(1.0591008,0,0,1.0591008,-28.110167,-161.75063)">
      <path inkscape:connector-curvature="0" id="path3941" d="m 164.31376,399.92572 -10.60089,16.28682 -19.37071,24.76753 -8.48071,15.3231 -9.15531,16.19045 -11.95009,19.17797 -6.55328,3.46938 c 0,0 -4.240355,5.30044 2.50566,-9.15531 6.74602,-14.45576 6.74602,-14.45576 6.74602,-14.45576 0,0 -3.85486,1.44558 10.89001,-18.11788 14.74487,-19.56346 14.74487,-19.56346 14.74487,-19.56346 l 18.02151,-21.78 12.43195,-13.10655 z" style="fill:#552200;stroke:none"/>
      <path sodipodi:nodetypes="cssssscc" inkscape:connector-curvature="0" id="path3912" d="m 505.01539,837.18621 c 0,0 -7.35761,8.79162 -6.13134,17.35118 1.22627,8.55957 128.45225,224.35221 104.23266,260.16301 -12.6998,18.7777 -92.54638,5.3134 -124.17231,3.0523 -40.03305,-2.8624 -117.00965,-6.0981 -132.1174,-29.674 -13.63385,-21.2758 92.78749,-240.25818 93.60501,-248.98245 0.8175,-8.72427 -1.22627,-16.60497 -1.22627,-16.60497 z" style="fill:url(#linearGradient3963);stroke:#000000;stroke-width:4.00903225;stroke-linecap:butt;stroke-linejoin:miter;stroke-miterlimit:4;stroke-opacity:1;stroke-dasharray:none"/>
      <path inkscape:connector-curvature="0" id="path3916" d="m 433.5298,864.02547 95.55028,8.29155 c 0,0 26.454,5.13287 61.98923,12.23991 35.53523,7.10705 17.37278,6.71221 35.53523,7.10705 18.16245,0.39484 35.53523,0.78967 37.90425,-8.68639 2.36901,-9.47606 -9.8709,-20.13663 -9.8709,-20.13663 0,0 -3.94836,-2.36901 -5.92254,-7.50188 -1.97418,-5.13287 -8.68639,-35.14039 -8.68639,-35.14039 0,0 -0.39483,-4.73804 -3.94836,-7.50189 -3.55352,-2.76385 -62.7789,-16.5831 -74.22914,-17.76761 -11.45024,-1.18451 -98.31414,-10.26573 -98.31414,-10.26573 l -74.62398,-5.92254 -35.14039,0.78967 -38.29908,9.47606 -72.25497,10.26573 -70.28078,9.47606 -16.18828,14.2141 -18.55728,14.60892 c 0,0 -2.76385,3.94836 -1.57935,6.71221 1.18451,2.76386 5.13287,4.73803 5.13287,4.73803 0,0 -6.31737,6.71221 -3.15869,9.47607 3.15869,2.76385 18.55729,6.71221 18.55729,6.71221 0,0 14.21409,-3.55353 35.14039,-3.15869 20.92631,0.39483 45.01129,-4.3432 55.27703,-3.94836 10.26573,0.39484 26.84884,3.15869 26.84884,3.15869 l 35.53523,-2.36902 c 0,0 54.48735,-7.10704 69.49111,-4.73803 15.00376,2.36902 15.00376,2.36902 15.00376,2.36902 l 20.53147,3.55352 z" style="fill:url(#radialGradient3965);stroke:none"/>
      <path sodipodi:nodetypes="cccccccccccccccccccc" inkscape:connector-curvature="0" id="path3862" d="m 349.82459,311.65007 -20.9263,-17.37278 1.97418,-27.24367 -9.47606,-29.21786 -13.81926,-22.11081 -69.09628,20.13663 -70.28079,40.6681 -56.85636,56.46153 -32.376544,51.32866 -8.686389,37.11458 1.184507,31.58687 16.583107,35.93006 19.741799,-39.48359 36.3249,-43.82678 31.70889,-28.44399 36.59771,-27.22787 41.06293,-19.34696 35.1404,-16.5831 42.64227,-2.36902 z" style="fill:url(#radialGradient3967);fill-opacity:1;stroke:none"/>
      <path sodipodi:nodetypes="cccccccccccccccccccccc" inkscape:connector-curvature="0" id="path3850" d="m 106.21085,496.43326 17.76762,-11.84507 15.79343,-24.87466 39.08875,-35.1404 50.14416,-33.56105 57.2512,-24.47982 21.32114,-5.13287 2.36902,-15.79343 10.66056,-15.3986 29.6127,-7.50188 3.94835,-11.84508 -21.71597,0.78967 -44.22162,3.55353 -29.61269,11.45024 -39.48359,22.50564 -6.71221,10.66057 -28.42818,21.71597 -19.88491,20.21431 -25.91605,33.08854 -20.13663,35.14039 -16.18827,26.05917 z" style="fill:url(#linearGradient3969);fill-opacity:1;stroke:none"/>
      <path id="path3776" d="m 416.34375,171.65625 -43.6875,5.65625 -45,14.875 L 308,214.46875 l 16.15625,25.3125 6.125,27.09375 -2.1875,25.78125 L 346,307.9375 l 4.8125,10.9375 -27.53125,7.84375 -12.25,15.75 -6.09375,18.78125 21.84375,-1.75 -8.3125,37.125 -4.8125,25.78125 -7.84375,18.34375 -20.96875,20.09375 c 0,0 -1.59638,9.98224 -7.75,22 l -14.53125,16.875 -9.1875,24.90625 -19.21875,43.6875 -5.6875,30.15625 13.5625,37.5625 12.21875,50.6875 28.40625,61.59375 28.375,24.03125 8.75,15.71875 31.46875,-9.1875 40.625,0 16.59375,-11.78125 13.96875,-29.28125 14.4375,-10.03125 11.34375,3.5 -3.9375,33.1875 5.25,7.4375 14.84375,14.40625 66.40625,3.5 18.34375,-90.4375 8.75,-92.1875 -8.34375,-72.375 c 1.68054,-1.16681 2.65625,-1.875 2.65625,-1.875 l -10.90625,-41.0625 2.625,-19.65625 3.90625,-46.75 -1.28125,-36.6875 -2.1875,-32.34375 1.3125,-36.6875 -5.25,-20.53125 L 525.125,266.4375 505.875,234.125 489.28125,211.84375 433.375,183.4375 416.34375,171.65625 z" style="fill:url(#radialGradient3971);stroke:none" inkscape:connector-curvature="0"/>
      <path inkscape:connector-curvature="0" id="path3886" d="m 299.68043,818.61934 -51.7235,-7.89672 11.84508,-13.42442 18.55729,-23.69015 17.76761,-30.40236 20.13663,-20.13663 9.47606,-5.5277 6.71221,6.71221 -2.76385,8.68639 -14.21409,25.66433 -4.73803,11.0554 0,2.76385 11.84507,15.00377 -9.47606,4.34319 -11.45024,2.36902 z" style="fill:url(#radialGradient3973);stroke:none"/>
      <path inkscape:connector-curvature="0" id="path3882" d="m 296.12691,883.37243 2.36902,-17.76762 0.39483,-33.95588 -0.78967,-20.13663 c 0,0 -3.55352,-7.89672 -8.68639,-7.50189 -5.13287,0.39484 -5.5277,13.42442 -5.5277,13.42442 l -2.36902,18.55729 3.15869,21.71597 5.13287,18.16245 z" style="fill:url(#radialGradient3975);stroke:none"/>
      <path inkscape:connector-curvature="0" id="path3884" d="m 266.90905,892.45365 1.18451,-17.76761 3.55353,-15.79344 -3.15869,-18.16245 3.55352,-15.3986 6.31738,-9.8709 2.36901,-2.76385 c 0,0 1.57934,-11.45024 -5.5277,-16.18827 -7.10705,-4.73803 -15.00377,-1.18451 -15.00377,-1.18451 l -10.26573,11.84508 -5.13286,15.3986 -0.78968,19.34696 7.10705,17.37278 3.15869,14.60892 4.34319,11.05541 z" style="fill:url(#radialGradient3977);stroke:none"/>
      <path inkscape:connector-curvature="0" id="path3892" d="m 439.84717,788.21698 13.02958,-2.36902 14.2141,1.18451 -23.29532,-19.74179 4.34319,-35.53523 -8.29155,-3.94836 c 0,0 -10.66057,-1.97418 -15.3986,7.10705 -4.73803,9.08122 -12.63475,29.21785 -12.63475,29.21785 l -15.00376,14.21409 -5.5277,6.31738 -5.13287,26.05916 41.8526,11.05541 5.52771,-22.11081 z" style="fill:url(#radialGradient3979);fill-opacity:1;stroke:none"/>
      <path inkscape:connector-curvature="0" id="path3890" d="m 418.1312,882.58275 5.92253,-38.69391 6.31738,-37.90425 9.47606,-18.95212 c 0,0 -3.15869,-13.02958 -13.81926,-11.45024 -10.66056,1.57934 -20.9263,38.69392 -20.9263,38.69392 l 1.57935,24.08499 0,20.53146 z" style="fill:url(#radialGradient3981);stroke:none"/>
      <path inkscape:connector-curvature="0" id="path3888" d="m 387.72883,875.87054 7.50189,-37.5094 10.26573,-26.45401 c 0,0 5.5277,-16.58311 4.73803,-25.66433 -0.78967,-9.08123 -4.73803,-14.60893 -4.73803,-14.60893 l -12.23991,8.29156 -7.10705,24.87466 -6.31737,43.03711 1.57934,14.60892 z" style="fill:url(#radialGradient3983);stroke:none"/>
      <path inkscape:connector-curvature="0" id="path3812" d="m 430.74714,269.50328 -24.46434,-35.38592 -16.6008,-11.79531 -37.13337,-2.62118 -20.53258,3.49491 0,7.86353 6.11609,16.16394 3.05804,28.39611 10.04786,23.59062 0.87372,26.64865 13.1059,-19.65884 16.6008,-13.97962 25.77493,-10.92159 16.16394,-8.3004 z" style="fill:url(#linearGradient3985);fill-opacity:1;stroke:none"/>
      <path inkscape:connector-curvature="0" id="path3838" d="m 364.21121,246.10068 14.234,-13.93538 13.93539,6.86815 11.44692,19.60908 -7.36585,26.47723 -17.51876,3.18523 -21.89846,-16.42385 0.7963,-13.63677 z" style="fill:url(#linearGradient3987);fill-opacity:1;stroke:none"/>
      <path inkscape:connector-curvature="0" id="path2998" d="m 307.11485,442.06425 34.51219,42.37574 26.2118,31.89101 16.6008,11.35845 19.65885,-1.74746 34.07533,-20.53257 12.23217,-14.41649 18.34825,-9.61099 13.1059,-43.68632 3.05804,-49.36554 -10.04785,-45.43378 -17.03767,-37.13337 -1.74745,-19.22199 -26.21179,-20.09571 -24.02748,15.72708 -31.45415,15.72708 -21.4063,20.09571 -9.61099,24.9012 -17.91139,20.96943 -6.98982,26.64866 -3.4949,25.33807 z" style="fill:url(#radialGradient3989);stroke:none"/>
      <path sodipodi:nodetypes="ssssssssssscccssscccccsssssssscccsssssssssssssssssssssssssssssssssssssssssscssscssssccsssssscccccssscccsssssssscssssssssssssssssssscccccssscccssssssssssssssssssssssssssssssscssssscccccsssssccscssssssssssssssssssscssssssscssssssscssssssssssssscssssssssssssssssssssssscscssssssssssssssscccssscsssssssssssssssssssssssssssscsssssscscsssssssscssssssscccsssssssssssscssssssssscccsscccssssssssssssssccccccssssssssssssssssscsssssssssssssssssssssssssss" inkscape:connector-curvature="0" id="path2996" d="m 414.84375,169.28125 c -25.45612,0.26224 -63.62074,8.4391 -83.78125,18.59375 -8.09535,4.07754 -25.03125,19.63397 -25.03125,23 0,2.98835 -8.99821,6.58522 -24.0625,9.59375 C 251.22581,226.6085 204.563,248.38374 174.125,270.8125 127.56762,305.11909 89.81512,351.5271 74.09375,393.75 c -4.36871,11.73306 -5.2435,17.78794 -5.3125,37.0625 -0.08023,22.41599 0.1291,23.53467 8.28125,41.875 4.60703,10.3647 9.76688,19.10908 11.46875,19.4375 2.12576,0.41023 3.9096,-2.56296 5.6875,-9.5 4.82066,-18.80922 22.66538,-45.46087 47.84375,-71.5 12.46681,-12.89302 21.03189,-20.14475 23.8125,-21.96875 4.61279,-3.02449 8.43532,-6.53304 12.78125,-9.25 1.2984,-0.76803 2.42992,-1.49465 3.9375,-2.5625 3.64252,-2.5937 11.85815,-9.28164 18.25,-14.875 6.39184,-5.59336 12.56782,-10.1875 13.71875,-10.1875 3.1418,0 -4.63978,7.92055 -12.65625,12.875 -3.68519,2.27757 -6.38734,4.54054 -6.21875,5.1875 l -4.625,3.5 c -1.47126,0.99472 -3.25452,2.33319 -5.125,3.875 -0.0463,0.0382 -0.0787,0.0871 -0.125,0.125 -7.21023,5.52673 -13.95802,11.04425 -20.86694,16.79572 -2.5789,2.7036 -6.2315,6.04245 -11.10181,11.48553 -25.0942,28.04534 -45.71531,58.00309 -54.03125,78.46875 -7.12412,17.53256 -5.503813,19.43537 10.40625,12.1875 7.99421,-3.64178 17.84375,-13.4867 17.84375,-17.84375 0,-1.75218 14.41469,-19.65707 25,-31.0625 9.28171,-10.00089 32.38241,-27.43605 50.375,-38 7.48561,-4.395 15.96467,-9.54575 18.84375,-11.46875 8.52616,-5.6948 29.07846,-15.84045 48.875,-24.125 14.21257,-5.94774 22.42977,-8.01897 35.375,-8.90625 l 16.875,-1.15625 -1.65625,6.0625 c -2.21122,8.15606 -4.87478,22.24191 -7.09375,37.5 -2.61255,17.96427 -6.59002,25.68476 -19.90625,38.65625 -6.46193,6.29463 -11.75,12.53712 -11.75,13.875 0,1.33787 -1.39755,3.59759 -3.125,5.03125 -1.8116,1.50351 -3.15625,6.09152 -3.15625,10.8125 0,5.20425 -1.07672,8.60574 -3,9.34375 -4.39067,1.68486 -20.01535,22.98933 -20.09375,27.40625 -0.0366,2.06478 -1.43418,5.57703 -3.125,7.8125 -1.69082,2.23546 -3.09375,5.41005 -3.09375,7.03125 0,3.24488 -2.45269,9.02508 -15.78125,37.0625 -7.51085,15.79952 -8.97781,21.00496 -9.09375,32.125 -0.11955,11.46634 4.51984,29.83917 6.90625,27.34375 0.44443,-0.46473 1.3223,-10.97576 1.96875,-23.375 1.0901,-20.90868 1.81897,-23.88723 9.875,-40.84375 4.77737,-10.05551 11.4626,-25.90573 14.84375,-35.25 4.07705,-11.26746 9.20937,-20.60536 15.28125,-27.71875 5.0355,-5.89925 9.84449,-13.80198 10.65625,-17.5625 3.18336,-14.7472 15.16986,-30.9375 22.9375,-30.9375 1.42111,0 7.64665,6.28922 13.84375,13.96875 6.19708,7.67951 16.82927,19.9361 23.625,27.21875 6.79574,7.28265 15.2748,17.70818 18.84375,23.1875 4.4291,6.79987 9.65556,11.52713 16.46875,14.90625 9.09725,4.51197 10.87464,4.7401 19.90625,2.46875 13.21427,-3.32326 39.67162,-18.53765 44.84375,-25.78125 2.27994,-3.19306 7.85974,-7.6965 12.375,-10 19.16572,-9.77763 30.53691,-40.1677 31.3125,-83.65625 0.73677,-41.31124 -1.36942,-57.11332 -9.75,-72.875 -2.74597,-5.16448 -5,-10.48031 -5,-11.8125 0,-1.33218 -2.37092,-5.62887 -5.25,-9.53125 C 462.52239,311.67736 461,306.90838 461,300.46875 c 0,-12.73714 -4.20709,-19.52405 -17.875,-28.9375 -7.82432,-5.38882 -16.41588,-14.39616 -25.4375,-26.6875 -15.39687,-20.97724 -18.67019,-22.96106 -43.625,-26.4375 -16.1675,-2.25228 -31.24746,-0.78964 -40.8125,3.96875 -4.32145,2.14982 -5.09789,9.87765 -1.5625,15.40625 1.6144,2.52459 4.09621,13.0728 5.53125,23.4375 1.43755,10.38273 4.91635,23.79284 7.71875,29.875 9.59402,20.82223 6.37518,28.63502 -13.25,32.28125 -10.25671,1.90563 -13.84671,3.58992 -16.59375,7.8125 -1.92798,2.96356 -4.91182,6.44575 -6.625,7.71875 -1.84352,1.36982 -2.53526,3.77846 -1.71875,5.90625 1.43259,3.73322 -1.71266,11.57506 -5.71875,14.25 -1.26715,0.84609 -4.68301,1.5449 -7.59375,1.5625 -2.91076,0.0176 -7.16591,1.30315 -9.4375,2.84375 -2.2716,1.5406 -12.60406,6.38943 -22.96875,10.78125 -54.80479,23.22236 -103.31613,58.34344 -132.5,95.9375 -15.03875,19.37262 -16.49099,20.87799 -19.21875,19.96875 -2.14998,-0.71668 -2.02833,-1.62794 0.5625,-4.21875 1.82163,-1.82166 6.03112,-8.86082 9.34375,-15.625 3.31263,-6.76419 9.72906,-17.94835 14.25,-24.875 11.89331,-18.22205 42.6856,-57.5625 45.0625,-57.5625 1.30306,0 6.10483,-4.13284 10.15625,-8.1875 L 211.21875,361.25 c 3.07006,-2.286 5.75955,-4.48691 6.9375,-5.90625 6.10524,-7.35637 43.0302,-28.64109 62.75,-36.1875 4.11926,-1.57636 20.01653,-3.32667 36.28125,-3.96875 19.72587,-0.77872 28.24157,-1.82095 26.78125,-3.28125 -2.93865,-2.93867 -39.31623,-2.54894 -52.96875,0.5625 -13.46677,3.06911 -55.34671,23.06316 -77.46875,37 -19.00524,11.97326 -55.96341,40.64518 -67.3125,52.21875 l -8,8.1875 1.34375,-12.5625 c 0.73679,-6.90979 -0.68931,-18.42676 -0.0937,-21.59375 -12.65066,-7.59472 -18.04308,-2.69863 -22.3125,0.125 -2.63451,1.76619 -8.01853,6.14172 -11.96875,9.71875 -3.95023,3.57701 -7.96204,6.5 -8.90625,6.5 -2.36604,0 -9.27742,7.12498 -12.1875,12.5625 -2.46287,4.60193 -6.58452,19.64113 -9.5,34.5625 l -1.65625,8.375 -1.46875,-8.125 c -1.85855,-10.28964 2.24897,-33.8767 9,-51.65625 14.07068,-37.05659 56.62282,-86.58314 100.875,-117.40625 21.2952,-14.83281 59.53375,-34.62235 71.125,-36.8125 3.55839,-0.67235 8.34227,-2.17072 10.625,-3.34375 6.5047,-3.3426 32.82773,-9.7728 40.1875,-9.8125 5.8579,-0.0316 7.37635,1.28738 12.8125,10.96875 8.65722,15.41784 13.71691,33.1006 12.25,42.78125 -3.33431,22.00429 -3.25566,22.31357 4.5,27.4375 3.98974,2.63589 7.58489,4.44635 8,4.03125 0.41509,-0.41511 -1.44802,-3.71531 -4.125,-7.34375 -4.33915,-5.88138 -4.7682,-8.35642 -4,-22.875 0.99704,-18.84348 -3.33778,-34.1911 -14.28125,-50.40625 -6.09892,-9.03689 -6.39023,-10.20639 -3.6875,-15.0625 7.82057,-14.05159 42.54905,-28.34231 78.875,-32.4375 21.00726,-2.36826 22.07773,-2.29526 27.34375,1.9375 3.01376,2.4224 11.12146,6.62919 18.03125,9.34375 30.59823,12.0207 63.875,35.04166 63.875,44.1875 0,3.7392 11.17778,24.10668 18.375,33.46875 2.21333,2.87908 5.25271,9.01847 6.75,13.625 1.49729,4.60653 3.89508,10.25923 5.34375,12.5625 6.79379,10.8016 9.90257,30.08014 8.8125,54.78125 -0.59027,13.37594 -0.32833,31.02795 0.59375,39.25 2.90905,25.93998 2.47593,53.67956 -1.34375,83.28125 -4.07152,31.55365 -4.65663,26.15273 7.9375,72.90625 3.54607,13.1641 4.1958,21.96605 4.125,54.4375 -0.11024,50.58264 -7.36323,122.47578 -14.90625,147.625 -1.03622,3.4549 -3.0327,13.3315 -4.4375,21.96875 -1.4048,8.63724 -3.69857,16.9451 -5.09375,18.46875 -2.08613,2.27823 -7.87488,2.33315 -32.65625,0.25 l -30.15625,-2.53125 -9.0625,-8.625 -9.0625,-8.59375 1.375,-17.125 c 1.35356,-16.69417 1.27078,-17.20163 -3.90625,-20.59375 -10.36096,-6.78877 -25.25906,4.12631 -32.65625,23.90625 -2.95655,7.90574 -6.93302,13.81935 -11.9375,17.8125 -7.01884,5.60047 -8.88401,6.04393 -28.9375,6.53125 l -21.4375,0.5 -12.8438,-11.4375 c -7.07143,-6.29903 -12.875,-13.07497 -12.875,-15.0625 0,-1.98753 2.37092,-6.81637 5.25,-10.71875 5.61791,-7.61466 6.7869,-16.4631 2.71875,-20.53125 -1.38196,-1.38196 -5.79378,-2.5 -9.8125,-2.5 -6.08807,0 -8.92037,1.75479 -17.03125,10.53125 -6.84397,7.40557 -10.77301,10.12602 -13.21875,9.1875 -4.46145,-1.71202 -4.44772,0.86329 0.0312,5.8125 2.20634,2.43797 2.77623,4.63002 1.53125,5.875 -2.5994,2.5994 -16.67515,-16.2546 -23.4375,-31.40625 -2.82693,-6.33398 -8.96229,-20.01031 -13.65625,-30.375 -8.90211,-19.6567 -8.69534,-18.44941 -13.15625,-74.3125 -0.78169,-9.78887 -2.16419,-19.18127 -3.0625,-20.875 -2.85735,-5.38744 -4.74182,11.85274 -3.0625,27.90625 0.85953,8.21669 1.77175,21.65759 2.03125,29.875 0.46522,14.73193 8.14791,38.63341 15.125,47 1.51618,1.81813 2.75,4.70856 2.75,6.40625 0,3.65594 15.24373,35.62827 20.71875,43.46875 7.34113,10.51284 7.24942,16.10427 -0.34375,24.78125 -3.79809,4.34023 -9.35166,11.21794 -12.34375,15.28125 -5.85143,7.94635 -17.03842,11.95885 -38.375,13.71875 -26.97612,2.22506 -52.84147,5.94632 -57.59375,8.3125 -2.87908,1.43351 -8.69565,6.25255 -12.9375,10.6875 -4.24186,4.43494 -10.19428,9.78539 -13.21875,11.90625 -7.3406,5.14755 -10.79551,14.07543 -6.625,17.125 2.17219,1.58833 2.49994,3.26853 1.09375,5.78125 -1.26746,2.26484 -1.2408,4.94386 0.0937,7.4375 2.69898,5.04308 22.03946,7.3018 39.0625,4.53125 6.73094,-1.09548 17.94568,-1.50495 24.90625,-0.90625 7.30164,0.62801 19.27155,-0.22758 28.3125,-2 16.3695,-3.20914 20.9763,-2.15929 21,4.75 0.0273,7.9518 4.76033,19.48524 10,24.34375 3.09975,2.87425 6.13116,5.21675 6.71875,5.21875 0.58758,0.002 0.72863,-5.53735 0.34375,-12.34375 -0.89768,-15.87511 1.56199,-20.74677 9.84375,-19.53125 4.62647,0.67902 6.58025,2.31204 7.59375,6.4375 1.93713,7.88505 6.91108,14.96875 10.53125,14.96875 2.378,0 3.09375,-2.84542 3.09375,-12.34375 l 0,-12.34375 26.71875,-1.3125 c 14.68332,-0.7182 32.48695,-1.80952 39.5625,-2.4375 l 12.84375,-1.15625 3.90625,11.65625 c 2.13751,6.41254 4.81712,11.89959 5.96875,12.1875 1.15163,0.28791 2.3894,-3.7239 2.75,-8.90625 0.36061,-5.18234 1.47414,-10.24027 2.46875,-11.25 2.34738,-2.3831 12.59375,0.18573 12.59375,3.15625 0,3.39185 9.17458,22.75 10.78125,22.75 0.7624,0 2.02066,-4.71188 2.8125,-10.46875 0.79176,-5.75688 2.33708,-11.00739 3.4375,-11.6875 1.10042,-0.68009 8.9033,0.28539 17.3125,2.15625 8.40921,1.87088 18.94751,3.25116 23.4375,3.0625 8.09763,-0.3401 34.88208,1.99303 75.15625,6.5625 11.51633,1.30664 32.2429,5.7409 46.0625,9.84375 20.21383,6.0012 29.70316,7.64604 48.4375,8.40625 25.84871,1.04888 31.09269,-0.44808 32.78125,-9.28125 1.51943,-7.94827 -1.40411,-14.40903 -10.28125,-22.78125 -6.62611,-6.24918 -7.45071,-8.09999 -6.4375,-14.34375 0.73294,-4.51657 0.0868,-8.57619 -1.75,-11 -1.60234,-2.11446 -2.9634,-5.91216 -3,-8.4375 -0.0366,-2.52534 -1.997,-7.9071 -4.375,-11.9375 -3.73849,-6.33626 -5.95715,-7.63461 -16.25,-9.65625 -23.89297,-4.69284 -41.50211,-8.5057 -54.8125,-11.875 -7.48561,-1.89485 -18.15316,-3.86677 -23.71875,-4.375 -9.08493,-0.82957 -10.02774,-1.39981 -9.09375,-5.4375 0.5722,-2.47358 2.16793,-10.12146 3.53125,-17.03125 1.3633,-6.9098 3.72778,-18.24646 5.28125,-25.15625 14.42646,-64.16883 19.16956,-166.48347 9.40625,-203.09375 -2.45696,-9.21306 -5.34768,-20.87788 -6.4375,-25.9375 -1.08984,-5.05963 -2.98736,-10.42252 -4.21875,-11.90625 -1.58381,-1.90838 -1.60177,-5.03181 -0.0312,-10.6875 1.22102,-4.39718 2.244,-11.52513 2.25,-15.84375 0.006,-4.31862 0.86598,-7.875 1.9375,-7.875 1.07154,0 1.99755,-4.46725 2.03125,-9.9375 0.0336,-5.47026 0.42072,-17.019 0.875,-25.65625 0.45427,-8.63724 0.087,-17.68004 -0.8125,-20.125 -0.94533,-2.56931 -0.72717,-5.36658 0.53125,-6.625 1.28259,-1.28258 1.43928,-3.35074 0.375,-5 -2.15462,-3.33888 -2.57187,-8.59222 -3,-36.625 -0.17865,-11.69755 0.3097,-22.29388 1.09375,-23.5625 0.78403,-1.26863 0.72237,-4.41913 -0.125,-7 -0.84737,-2.58087 -1.37064,-7.28516 -1.15625,-10.4375 0.46603,-6.8521 -7.16442,-30.58411 -11.34375,-35.25 -1.62854,-1.81813 -2.96875,-5.4238 -2.96875,-8 0,-6.14731 -3.63768,-12.77037 -10.03125,-18.3125 -2.84395,-2.46522 -4.57567,-5.39753 -3.875,-6.53125 0.70068,-1.13372 -1.72874,-6.18526 -5.375,-11.21875 -3.64624,-5.0335 -6.7246,-11.37378 -6.84375,-14.09375 -0.12217,-2.79105 -2.66984,-6.75896 -5.875,-9.09375 -3.12354,-2.27534 -5.6875,-5.41126 -5.6875,-6.96875 0,-1.55748 -5.89604,-5.799 -13.09375,-9.4375 -7.1977,-3.6385 -14.4913,-7.87201 -16.21875,-9.40625 -1.72745,-1.53424 -8.57211,-4.49487 -15.1875,-6.59375 -7.68925,-2.43958 -11.68224,-4.76428 -11.0625,-6.4375 0.68449,-1.84803 -1.7685,-2.625 -8.375,-2.625 -5.1462,0 -9.34375,-0.94212 -9.34375,-2.09375 0,-1.15164 2.33966,-2.09375 5.21875,-2.09375 8.75274,0 5.84884,-3.70364 -3.65625,-4.65625 -3.02833,-0.30351 -6.39466,-0.41246 -10.03125,-0.375 z M 353.8125,221.5625 c 3.04331,-0.0811 5.92772,0.15722 8.0625,0.75 4.42392,1.22841 12.1167,2.244 17.125,2.25 12.60737,0.0162 22.94161,5.48704 29.40625,15.59375 3.01167,4.70839 8.1443,12.0362 11.40625,16.28125 3.68087,4.7902 5.47447,9.13285 4.71875,11.46875 -0.66973,2.07005 -6.89559,6.72797 -13.84375,10.34375 -11.85407,6.16878 -12.56181,6.29776 -11.15625,2.09375 3.99307,-11.94332 6.25001,-23.34339 5.4375,-27.59375 -1.35541,-7.09026 -15.62835,-19.90231 -24.375,-21.875 -7.63409,-1.72177 -7.71816,-1.65639 -16.0625,10.90625 -5.05334,7.60794 -8.88483,16.19374 -9.625,21.59375 -1.16631,8.50925 -0.73426,9.42199 8.46875,18.625 9.15766,9.15766 10.23243,9.65166 19.625,9 9.81072,-0.68068 35.87843,-11.40216 42.71875,-17.5625 3.07693,-2.7711 4.1687,-2.75851 9.4375,0 3.27171,1.71291 9.25054,6.5562 13.28125,10.75 6.70707,6.97854 7.2901,8.55678 6.84375,18.78125 -0.34893,7.99267 0.42976,11.94937 2.75,13.875 4.19176,3.47885 9.25,13.2862 9.25,17.9375 0,1.99833 1.7037,5.56001 3.8125,7.9375 4.86289,5.48246 8.90956,23.63732 7.375,33.09375 -0.75639,4.66103 0.0462,9.61337 2.25,13.875 2.33545,4.51626 2.81045,7.76482 1.5,10.25 -1.05724,2.00495 -1.9825,10.25107 -2.0625,18.3125 -0.0799,8.06143 -1.57936,19.36683 -3.34375,25.125 -1.76438,5.75816 -3.2374,12.91839 -3.25,15.90625 -0.0125,2.98785 -2.37232,8.15388 -5.25,11.5 -2.87768,3.34612 -5.21775,7.11397 -5.21875,8.375 -0.004,3.7297 -7.30049,9.25 -12.25,9.25 -3.02341,0 -6.75189,3.04368 -10.90625,8.9375 -4.71208,6.68511 -10.64303,11.15865 -23.5,17.75 -9.4637,4.85171 -20.04511,9.2393 -23.5,9.75 -9.10592,1.34599 -21.10657,-5.59326 -25.9375,-15 -2.2192,-4.3212 -9.32216,-13.00977 -15.78125,-19.34375 -6.45906,-6.33398 -14.2984,-15.29972 -17.4375,-19.90625 -3.1391,-4.60653 -9.71896,-12.54082 -14.625,-17.625 -9.81947,-10.17606 -10.44886,-12.77297 -5.71875,-24.09375 1.767,-4.229 4.17602,-15.31216 5.34375,-24.625 3.25447,-25.95503 7.26712,-38.91545 14,-45.28125 8.97032,-8.48124 18.5006,-23.56716 20.09375,-31.78125 0.94243,-4.85906 5.08804,-11.02842 12.3125,-18.34375 5.97972,-6.05493 11.54691,-11 12.375,-11 3.12084,0 12.78067,-4.34433 11.8125,-5.3125 -2.51971,-2.51971 -18.80735,5.79701 -25.53125,13.03125 l -7.4375,8 -0.0625,-6.6875 c -0.0312,-3.67484 -0.97337,-7.257 -2.125,-7.96875 -1.15163,-0.71175 -2.09375,-2.97444 -2.09375,-5.03125 0,-2.05681 -1.85623,-5.41259 -4.09375,-7.4375 -2.69222,-2.43643 -4.01157,-6.25937 -3.90625,-11.3125 0.0876,-4.19965 -0.8513,-13.54326 -2.09375,-20.75 -2.49225,-14.45617 -12.75221,-21.68372 -4.875,-28.8125 2.43435,-2.20309 9.96096,-3.8216 16.65625,-4 z m 28.28125,15.5 c 5.55349,-0.0703 10.59047,5.19987 15.9375,15.90625 4.67766,9.36615 4.68055,9.81039 1.21875,18.875 -1.95139,5.10964 -5.27898,10.23651 -7.40625,11.375 -7.2466,3.87825 -15.4247,2.20344 -23.46875,-4.78125 -12.69891,-11.02652 -13.11769,-15.30772 -2.84375,-28.78125 6.34534,-8.32147 11.66236,-12.53175 16.5625,-12.59375 z m 1.34375,8.8125 c -3.91805,0.0221 -8.22583,1.59254 -12.3125,5.03125 -7.65648,6.44249 -8.585,15.47749 -2.25,21.8125 5.33715,5.33714 16.79639,5.48176 23.21875,0.28125 3.50189,-2.83566 4.8125,-6.08666 4.8125,-11.78125 0,-9.67402 -5.98883,-15.38596 -13.46875,-15.34375 z m -0.34375,4.21875 c 0.23595,-0.0105 0.45808,-0.009 0.6875,0 8.87083,0.36647 12.70855,13.44911 4.375,20 -4.57464,3.59606 -12.04492,3.29883 -16,-0.65625 -6.68069,-6.68068 -2.29805,-16.23496 8.71875,-19 0.76344,-0.19161 1.51089,-0.31228 2.21875,-0.34375 z M 343.625,325.5625 c 0.8714,0.0235 1.50201,0.18951 1.84375,0.53125 2.19735,2.19736 -8.32693,19.76373 -15.75,26.28125 -16.00625,14.05369 -26.63421,1.74248 -13.21875,-15.3125 3.69325,-4.69521 21.02517,-11.66467 27.125,-11.5 z m -214.4375,52.21875 c 1.53262,-0.0572 3.15263,0.0796 4.84375,0.40625 2.89452,0 0.61058,23.78342 -2.59375,31.21875 -1.59707,3.70581 -7.26796,11.78211 -12.59375,17.9375 -9.24423,10.68424 -26.375,37.75117 -26.375,41.65625 0,1.01851 -1.23538,3.5224 -2.75,5.59375 -2.48848,3.4032 -3.29507,2.56959 -8.375,-8.75 -6.8596,-15.28522 -6.85937,-16.31187 -0.3125,-36.8125 7.16461,-22.43493 8.451067,-24.41519 24,-36.84375 6.37067,-5.06792 13.4279,-14.0058 24.15625,-14.40625 z m 15.125,44.65625 c 0.0748,-0.0328 16.70118,-22.10012 18.56325,-21.1054 0.73292,0.39153 -19.19473,24.26878 -21.4695,26.8554 -5.37647,6.1136 -15.4375,21.91883 -15.4375,24.25 0,0.99784 -1.88423,3.50932 -4.1875,5.59375 -2.30326,2.08443 -4.1875,5.14921 -4.1875,6.8125 0,1.66329 -3.4306,8.57953 -7.625,15.375 -4.1944,6.79547 -8.39673,12.375 -9.34375,12.375 -1.985493,0 4.05285,-14.79147 9.875,-24.1875 8.68046,-14.00894 31.49355,-44.95106 33.8125,-45.96875 z m 179.65625,298.625 c 0.40731,0.0137 0.82744,0.0336 1.25,0.0937 6.83631,0.97252 7.31266,7.43301 1.03125,14 -4.91766,5.14126 -13.86029,22.59001 -16.9375,33.0625 -0.90589,3.08298 0.34677,6.4084 4,10.75 6.70509,7.96854 6.64137,8.84375 -0.65625,8.84375 -10.66824,0 -18.28106,14.34638 -16.3125,30.78125 0.66208,5.52763 0.49584,21.82335 -0.375,36.21875 L 294.40625,881 290.8125,872.875 c -1.97854,-4.45927 -3.625,-10.30934 -3.625,-13.03125 0,-2.72192 -1.10241,-9.14147 -2.46875,-14.25 -1.76663,-6.60523 -1.86759,-11.94605 -0.375,-18.46875 2.30681,-10.08072 1.69983,-14.23137 -2.03125,-14.125 -9.39598,0.26793 -18.65727,22.90803 -14.71875,35.96875 1.14177,3.7863 1.38291,9.24591 0.5625,12.125 -0.82041,2.87908 -1.57271,10.20392 -1.6875,16.25 -0.11688,6.15606 -1.17383,10.96875 -2.40625,10.96875 -2.51288,0 -8.25055,-12.64856 -8.28125,-18.25 -0.0112,-2.05236 -2.44266,-8.88784 -5.375,-15.1875 -4.69317,-10.08252 -5.14361,-13.08941 -3.875,-25.125 1.88152,-17.85043 3.88719,-22.72523 10.28125,-25.15625 2.89973,-1.10249 5.27525,-3.21946 5.28125,-4.6875 0.006,-1.46804 3.73819,-7.36683 8.3125,-13.125 4.57431,-5.75816 15.75496,-21.31873 24.84375,-34.5625 17.74871,-25.86268 22.60916,-31.36124 28.71875,-31.15625 z m 115.46875,10.21875 c 7.19725,0 7.33135,0.17602 6.0625,6.8125 -5.31813,27.81528 -4.35079,33.1655 7.125,39.71875 9.03406,5.1589 11.25569,9.33962 3.65625,6.875 -7.67977,-2.49067 -14.12818,-1.74068 -18.46875,2.1875 -5.08556,4.60236 -11.73197,26.65573 -16.71875,55.375 -2.10013,12.09482 -4.16344,24.82636 -4.59375,28.28125 l -0.78125,6.28125 -3.78125,-8.375 c -4.16598,-9.23335 -4.55188,-14.22497 -3.3125,-41.875 0.47615,-10.62237 -0.0422,-19.31611 -1.15625,-19.90625 -3.47242,-1.83939 -10.98584,17.08654 -16.1875,40.78125 l -5.03125,23 -2.53125,-7.71875 c -2.11865,-6.41957 -1.81206,-13.10813 1.90625,-39.75 4.89354,-35.06257 9.02104,-44.89485 20.96875,-49.84375 4.85593,-2.0114 6.9217,-5.12204 10.53125,-15.96875 6.0338,-18.13155 12.71867,-25.875 22.3125,-25.875 z m -121.6875,25.125 c 0.56357,0 5.44662,4.28611 10.875,9.53125 5.42837,5.24512 12.45801,10.093 15.625,10.75 8.49612,1.7625 7.00684,4.84375 -2.34375,4.84375 -4.46258,0 -10.81406,0.46025 -14.125,1.03125 -4.81523,0.83041 -6.95718,-0.15753 -10.65625,-4.9375 -3.99101,-5.15728 -4.34838,-7.01263 -2.53125,-13.59375 1.15804,-4.1941 2.59268,-7.625 3.15625,-7.625 z m 58.5625,23.0625 c 12.05288,0.0469 14.76836,2.33046 11.65625,9.84375 -1.3832,3.33936 -4.12619,18.73771 -6.09375,34.21875 l -3.59375,28.15625 -12.5625,1.34375 c -6.9098,0.74659 -24.53277,2.0257 -39.15625,2.84375 l -26.59375,1.5 0.4375,-28.3125 c 0.38138,-24.51596 0.98143,-28.89985 4.4375,-32.71875 2.3981,-2.64988 5.45634,-3.94823 7.65625,-3.25 2.01314,0.63895 4.16353,0.34324 4.78125,-0.65625 2.42104,-3.91735 43.90181,-13.02755 59.03125,-12.96875 z m 77.375,7.9375 c 2.85861,-0.0338 6.4168,0.0133 10.90625,0.125 32.75268,0.81508 83.19442,6.23816 99.59375,10.6875 8.31179,2.25509 26.72474,6.19579 40.9375,8.78125 14.21278,2.58545 27.18859,5.70463 28.8125,6.90625 3.75386,2.77769 11.3125,23.37492 11.3125,30.8125 0,9.20052 3.90285,17.03001 11.875,23.8125 6.64146,5.65039 7.33924,7.10722 6.03125,13.0625 -1.00351,4.56888 -2.93981,7.03508 -6.03125,7.65625 -19.73033,3.9644 -34.71166,2.28187 -71.21875,-7.96875 -25.29096,-7.1013 -60.79964,-12.42328 -100.84375,-15.09375 -45.43011,-3.02963 -62.95838,-5.32822 -62.375,-8.21875 0.23242,-1.15163 1.46813,-8.68857 2.75,-16.75 3.42443,-21.53547 10.53657,-45.48871 14.875,-50.125 2.49431,-2.66493 4.79917,-3.58604 13.375,-3.6875 z M 251.59375,799.125 c 2.74766,0.0302 2.15476,1.98576 -1.5625,5.96875 -5.4635,5.85409 -10.39847,36.75598 -6.90625,43.28125 1.20361,2.24897 2.1875,4.90242 2.1875,5.90625 0,2.6189 -34.18482,7.08486 -50.25,6.5625 -7.48562,-0.24342 -18.30433,0.0466 -24.0625,0.65625 -13.33349,1.41176 -26.743,-0.0174 -28.625,-3.0625 -0.80315,-1.29953 -0.95674,-4.99753 -0.3125,-8.21875 0.67691,-3.38454 0.27924,-5.875 -0.96875,-5.875 -4.67791,0 0.53604,-8.95266 7.9375,-13.625 4.30756,-2.71926 10.16846,-7.93579 13.03125,-11.59375 6.58975,-8.42014 19.844,-12.09334 49.75,-13.78125 12.09214,-0.6825 26.10832,-2.57891 31.15625,-4.21875 4.10336,-1.33299 6.97641,-2.01813 8.625,-2 z m 28.28125,20.09375 c 1.85412,0 2.78853,0.95025 2.0625,2.125 -1.75233,2.83544 -1.66964,22.55868 0.125,32.125 1.26693,6.75321 0.93337,7.625 -2.875,7.625 -5.55389,0 -6.27934,-1.36098 -7.875,-14.9375 -1.52166,-12.94697 2.9218,-26.9375 8.5625,-26.9375 z m 122.96875,2.40625 c 1.08113,-0.18677 1.5274,4.79149 1.5625,14.875 0.0631,18.16397 0.002,18.3125 -5.1875,18.3125 -6.18624,0 -6.20068,-0.0601 -1.875,-17.09375 2.67978,-10.5525 4.41887,-15.90698 5.5,-16.09375 z" style="fill:#000000"/>
      <path inkscape:connector-curvature="0" id="path3822" d="m 89.125628,480.20075 12.803962,-23.59946 23.09735,-31.1312 9.28915,-11.79974 2.76164,-16.56983 0,-20.83782 -12.05079,-1.75741 -15.06349,9.79127 c 0,0 -16.318776,13.30608 -17.323008,13.80819 -1.004232,0.50212 -9.28915,16.8209 -9.28915,16.8209 l -7.280685,23.85052 -3.263756,15.5656 13.055022,26.3611 z" style="fill:url(#radialGradient3991);stroke:none"/>
      <path sodipodi:open="true" sodipodi:end="6.1962091" sodipodi:start="0" d="m 394.47091,261.03146 c 0,7.31149 -5.79343,13.23862 -12.94,13.23862 -7.14656,0 -12.94,-5.92713 -12.94,-13.23862 0,-7.31148 5.79344,-13.23861 12.94,-13.23861 6.7109,0 12.30814,5.24881 12.89109,12.08862" sodipodi:ry="13.238615" sodipodi:rx="12.94" sodipodi:cy="261.03146" sodipodi:cx="381.53091" id="path3826" style="fill:url(#radialGradient3993);fill-opacity:1;fill-rule:nonzero;stroke:none" sodipodi:type="arc"/>
    </g>
  </g>
</svg>