<?xml version="1.0" encoding="UTF-8" standalone="no"?>
<!-- Created with Inkscape (http://www.inkscape.org/) -->
<svg xmlns:dc="http://purl.org/dc/elements/1.1/" xmlns:cc="http://creativecommons.org/ns#" xmlns:rdf="http://www.w3.org/1999/02/22-rdf-syntax-ns#" xmlns:svg="http://www.w3.org/2000/svg" xmlns="http://www.w3.org/2000/svg" xmlns:sodipodi="http://sodipodi.sourceforge.net/DTD/sodipodi-0.dtd" xmlns:inkscape="http://www.inkscape.org/namespaces/inkscape" id="svg10631" version="1.1" inkscape:version="0.48.1 " width="212.5" height="215" xml:space="preserve" sodipodi:docname="Turkey_1.pdf"><metadata id="metadata10637"><rdf:RDF><cc:Work rdf:about=""><dc:format>image/svg+xml</dc:format><dc:type rdf:resource="http://purl.org/dc/dcmitype/StillImage"/><dc:title/></cc:Work></rdf:RDF></metadata><defs id="defs10635"/><sodipodi:namedview pagecolor="#ffffff" bordercolor="#666666" borderopacity="1" objecttolerance="10" gridtolerance="10" guidetolerance="10" inkscape:pageopacity="0" inkscape:pageshadow="2" inkscape:window-width="640" inkscape:window-height="480" id="namedview10633" showgrid="false" inkscape:zoom="1.3534884" inkscape:cx="106.25" inkscape:cy="107.5" inkscape:window-x="744" inkscape:window-y="71" inkscape:window-maximized="0" inkscape:current-layer="g10639"/><g id="g10639" inkscape:groupmode="layer" inkscape:label="Turkey_1" transform="matrix(1.25,0,0,-1.25,0,215)"><g id="g10641" transform="scale(0.24,0.24)"><path d="m 428.117,40.0039 c 6.832,-13.3359 22.832,-22.668 25.164,-36.66796 -4.332,2.83203 -8.5,5.83203 -11.664,9.99996 -11.668,15.3321 -31.5,14.668 -31,42.8321 -2.836,-1.5 -5.5,-3.5 -7.668,-5.5 4,5 6.5,29.5 5.168,38.6679 -4,27.8321 -12.336,55.3361 -17.168,82.6681 -3.832,0.5 -5.168,3.168 -7.168,6.168 -11.164,15.5 13.5,28.164 -0.164,38.332 -5,-4 -10.668,-7.5 -16.836,-10.168 -11.668,-13.164 -25.332,-23.332 -42,-26.164 -10,-8.168 -21.668,-13.668 -34.832,-12.668 -11.168,-6.668 -23.168,-10.5 -32.836,-7 -14.5,-6.668 -30.664,-8.832 -48.5,-2.832 -3.832,-2.336 -7.832,-3.668 -12.5,-3.5 -21.832,-11.668 -45.664,-2 -63.5,-17.836 2.5,5.168 5.5,10 8.836,14.668 -6.5,8.168 -6.668,19.832 -0.168,28 -7.832,16.332 8.832,40.832 18.668,52.668 -4.836,13.832 15.664,23 25,29 -4.168,3.664 0.832,10 6.832,15.164 l -6.332,3.168 2.332,9.5 c -15.668,-1.168 -29.668,-10.5 -36.832,-24.5 -1,7 -0.836,14 0.664,21 -4.5,-3.168 -8.164,-7.332 -10.664,-12.168 -5.168,4.168 -9.5,9.336 -12.668,15.168 -26.332,-4.668 -128.167719,-13.5 -117.9997,18 -8.16802,5.5 -3.83599,14.168 5.164,22 -1.164,3.332 1.168,7 9.168,10.832 -1.668,4 0.332,8.836 9.5,14.168 18.668,11 21.8359,16.332 45,18.832 29.6677,33.5 63.9997,9.668 120.8357,19 l 0,4 11.664,1.168 -1.164,4.332 c 14.332,-4.164 17.832,19.336 29.664,15.336 4.336,8.164 9.668,7 16.668,16.5 59.332,80.332 167.5,109.5 234,101.668 61,-7 87.336,40.332 84.336,91.164 -11.5,24.668 -10.168,40.336 5.164,51.5 0.336,30.668 28.836,43.668 55.836,33.336 23,-9 31.332,-9.836 32.332,-23.336 7.168,-2.164 14.168,-8.164 15.832,-13.832 14.336,-6.5 23.504,-25.5 13.168,-39.668 1.5,8.668 -8,18.836 -26.668,21.836 2.836,-13.168 10.836,-25.836 5.336,-39.336 -3,11.836 -13.5,14.336 -22.5,20 -3.336,-2 -7.168,-2.832 -11,-2.832 l -2.168,-2.5 c 7,-18.332 -3.668,-37.5 -3.168,-56 0.5,-14 26,-44.332 6.5,-47.668 5.5,-9.5 6.5,-28.332 -8.164,-29.332 33.5,-135.5 21.664,-259.168 -143.5,-281 -2,-9.668 -14.336,-4.336 -19.336,-21.336 -4.332,-14.664 -5.332,-18.164 -10.332,-22 -3,-27.164 -16,-88.5001 12.5,-105.168 l 10.332,1.5 c 14.168,2.1679 13.5,-1.5 28.168,-3 -7.168,0 -14.168,-1.6641 -20.668,-5 12.168,-2.6641 25,-4 34,-10 l -56,7.1679 c 9.5,-10.332 20.168,-19.832 31.668,-27.832 -10.332,6 -62.668,26.6641 -58,42.332 -3.5,-0.332 -6.832,-2.332 -9,-5 -1,21.168 14.332,22.168 2.168,47.3321 14.832,-4.332 6.164,36.836 6.5,56.004 -19.168,22.5 2.164,23 -1.836,39 -5.164,-1.668 -9.5,-6.336 -14.664,-3.668 1.664,-2.668 -4,-9.332 -8.336,-10 -13.164,-2 -4.332,-19.668 -12.332,-24.332 3.332,-29.5 11.332,-99.8361 26.832,-119.1681 16,-5.168 32.168,-11 48.668,-17.5 l -33.668,3.6641 c 11,-8.1641 23.5,-15.1641 32.336,-24.8321 -18.668,5.5 -34.5,18.8321 -53,25.668" style="fill:#b38b5f;fill-opacity:1;fill-rule:nonzero;stroke:none" id="path10643"/><path d="m 428.117,40.0039 c 6.832,-13.3359 22.832,-22.668 25.164,-36.66796 -4.332,2.83203 -8.5,5.83203 -11.664,9.99996 -11.668,15.3321 -31.5,14.668 -31,42.8321 -2.836,-1.5 -5.5,-3.5 -7.668,-5.5 4,5 6.5,29.5 5.168,38.6679 -4,27.8321 -12.336,55.3361 -17.168,82.6681 -3.832,0.5 -5.168,3.168 -7.168,6.168 -11.164,15.5 13.5,28.164 -0.164,38.332 -5,-4 -10.668,-7.5 -16.836,-10.168 -11.668,-13.164 -25.332,-23.332 -42,-26.164 -10,-8.168 -21.668,-13.668 -34.832,-12.668 -11.168,-6.668 -23.168,-10.5 -32.836,-7 -14.5,-6.668 -30.664,-8.832 -48.5,-2.832 -3.832,-2.336 -7.832,-3.668 -12.5,-3.5 -21.832,-11.668 -45.664,-2 -63.5,-17.836 2.5,5.168 5.5,10 8.836,14.668 -6.5,8.168 -6.668,19.832 -0.168,28 -7.832,16.332 8.832,40.832 18.668,52.668 -4.836,13.832 15.664,23 25,29 -4.168,3.664 0.832,10 6.832,15.164 l -6.332,3.168 2.332,9.5 c -15.668,-1.168 -29.668,-10.5 -36.832,-24.5 -1,7 -0.836,14 0.664,21 -4.5,-3.168 -8.164,-7.332 -10.664,-12.168 -5.168,4.168 -9.5,9.336 -12.668,15.168 -26.332,-4.668 -128.167719,-13.5 -117.9997,18 -8.16802,5.5 -3.83599,14.168 5.164,22 -1.164,3.332 1.168,7 9.168,10.832 -1.668,4 0.332,8.836 9.5,14.168 18.668,11 21.8359,16.332 45,18.832 29.6677,33.5 63.9997,9.668 120.8357,19 l 0,4 11.664,1.168 -1.164,4.332 c 14.332,-4.164 17.832,19.336 29.664,15.336 4.336,8.164 9.668,7 16.668,16.5 59.332,80.332 167.5,109.5 234,101.668 61,-7 87.336,40.332 84.336,91.164 -11.5,24.668 -10.168,40.336 5.164,51.5 0.336,30.668 28.836,43.668 55.836,33.336 23,-9 31.332,-9.836 32.332,-23.336 7.168,-2.164 14.168,-8.164 15.832,-13.832 14.336,-6.5 23.504,-25.5 13.168,-39.668 1.5,8.668 -8,18.836 -26.668,21.836 2.836,-13.168 10.836,-25.836 5.336,-39.336 -3,11.836 -13.5,14.336 -22.5,20 -3.336,-2 -7.168,-2.832 -11,-2.832 l -2.168,-2.5 c 7,-18.332 -3.668,-37.5 -3.168,-56 0.5,-14 26,-44.332 6.5,-47.668 5.5,-9.5 6.5,-28.332 -8.164,-29.332 33.5,-135.5 21.664,-259.168 -143.5,-281 -2,-9.668 -14.336,-4.336 -19.336,-21.336 -4.332,-14.664 -5.332,-18.164 -10.332,-22 -3,-27.164 -16,-88.5001 12.5,-105.168 l 10.332,1.5 c 14.168,2.1679 13.5,-1.5 28.168,-3 -7.168,0 -14.168,-1.6641 -20.668,-5 12.168,-2.6641 25,-4 34,-10 l -56,7.1679 c 9.5,-10.332 20.168,-19.832 31.668,-27.832 -10.332,6 -62.668,26.6641 -58,42.332 -3.5,-0.332 -6.832,-2.332 -9,-5 -1,21.168 14.332,22.168 2.168,47.3321 14.832,-4.332 6.164,36.836 6.5,56.004 -19.168,22.5 2.164,23 -1.836,39 -5.164,-1.668 -9.5,-6.336 -14.664,-3.668 1.664,-2.668 -4,-9.332 -8.336,-10 -13.164,-2 -4.332,-19.668 -12.332,-24.332 3.332,-29.5 11.332,-99.8361 26.832,-119.1681 16,-5.168 32.168,-11 48.668,-17.5 l -33.668,3.6641 c 11,-8.1641 23.5,-15.1641 32.336,-24.8321 -18.668,5.5 -34.5,18.8321 -53,25.668 z" style="fill:none;stroke:#1f1d20;stroke-opacity:1;stroke-width:0.833333;stroke-linecap:butt;stroke-linejoin:miter;stroke-miterlimit:4;stroke-dasharray:none" id="path10645"/><path d="m 428.117,40.0039 c -1.168,2.5 -2.168,5 -2.668,7.832" style="fill:none;stroke:#1f1d20;stroke-opacity:1;stroke-width:0.833333;stroke-linecap:butt;stroke-linejoin:miter;stroke-miterlimit:4;stroke-dasharray:none" id="path10647"/><path d="m 433.781,53.0039 c 4.168,-5.168 9.5,-9.668 15,-13.8359" style="fill:none;stroke:#1f1d20;stroke-opacity:1;stroke-width:0.833333;stroke-linecap:butt;stroke-linejoin:miter;stroke-miterlimit:4;stroke-dasharray:none" id="path10649"/><path d="m 410.617,56.168 c 0.164,11.1679 -0.836,22.1679 -2.5,33.1679" style="fill:none;stroke:#1f1d20;stroke-opacity:1;stroke-width:0.833333;stroke-linecap:butt;stroke-linejoin:miter;stroke-miterlimit:4;stroke-dasharray:none" id="path10651"/><path d="m 408.449,86.8359 5.5,0.5" style="fill:none;stroke:#1f1d20;stroke-opacity:1;stroke-width:0.833333;stroke-linecap:butt;stroke-linejoin:miter;stroke-miterlimit:4;stroke-dasharray:none" id="path10653"/><path d="m 412.617,98.3359 -5.668,-0.832" style="fill:none;stroke:#1f1d20;stroke-opacity:1;stroke-width:0.833333;stroke-linecap:butt;stroke-linejoin:miter;stroke-miterlimit:4;stroke-dasharray:none" id="path10655"/><path d="m 404.117,111.668 c 2.164,-1.332 4.664,-1.332 6.832,-0.164" style="fill:none;stroke:#1f1d20;stroke-opacity:1;stroke-width:0.833333;stroke-linecap:butt;stroke-linejoin:miter;stroke-miterlimit:4;stroke-dasharray:none" id="path10657"/><path d="m 407.949,127.668 c -2,-1.164 -4.668,-1.5 -7.168,-1.164" style="fill:none;stroke:#1f1d20;stroke-opacity:1;stroke-width:0.833333;stroke-linecap:butt;stroke-linejoin:miter;stroke-miterlimit:4;stroke-dasharray:none" id="path10659"/><path d="m 398.281,137.672 c 2.668,-0.836 5.5,-0.668 8,0.332" style="fill:none;stroke:#1f1d20;stroke-opacity:1;stroke-width:0.833333;stroke-linecap:butt;stroke-linejoin:miter;stroke-miterlimit:4;stroke-dasharray:none" id="path10661"/><path d="m 404.117,145.672 c -2.336,-0.668 -4.836,-1.168 -7.5,-0.836" style="fill:none;stroke:#1f1d20;stroke-opacity:1;stroke-width:0.833333;stroke-linecap:butt;stroke-linejoin:miter;stroke-miterlimit:4;stroke-dasharray:none" id="path10663"/><path d="m 394.449,154.336 c 2.332,-1.164 5,-1.332 7.668,-0.5" style="fill:none;stroke:#1f1d20;stroke-opacity:1;stroke-width:0.833333;stroke-linecap:butt;stroke-linejoin:miter;stroke-miterlimit:4;stroke-dasharray:none" id="path10665"/><path d="m 399.449,163.672 -7,0" style="fill:none;stroke:#1f1d20;stroke-opacity:1;stroke-width:0.833333;stroke-linecap:butt;stroke-linejoin:miter;stroke-miterlimit:4;stroke-dasharray:none" id="path10667"/><path d="m 390.949,172.004 c 4.832,-0.668 11.168,-2.668 16,0.168" style="fill:none;stroke:#1f1d20;stroke-opacity:1;stroke-width:0.833333;stroke-linecap:butt;stroke-linejoin:miter;stroke-miterlimit:4;stroke-dasharray:none" id="path10669"/><path d="m 444.117,171.172 c 3.5,-4.168 14.5,-1.168 18.332,1.664" style="fill:none;stroke:#1f1d20;stroke-opacity:1;stroke-width:0.833333;stroke-linecap:butt;stroke-linejoin:miter;stroke-miterlimit:4;stroke-dasharray:none" id="path10671"/><path d="m 451.449,163.672 c -2.332,-0.5 -4.832,-0.668 -7.168,-0.5" style="fill:none;stroke:#1f1d20;stroke-opacity:1;stroke-width:0.833333;stroke-linecap:butt;stroke-linejoin:miter;stroke-miterlimit:4;stroke-dasharray:none" id="path10673"/><path d="m 444.949,155.504 c 2.5,-0.832 5,-0.668 7.5,0.5" style="fill:none;stroke:#1f1d20;stroke-opacity:1;stroke-width:0.833333;stroke-linecap:butt;stroke-linejoin:miter;stroke-miterlimit:4;stroke-dasharray:none" id="path10675"/><path d="m 452.449,144.004 c -2.332,-0.668 -4.5,-0.5 -6.668,0" style="fill:none;stroke:#1f1d20;stroke-opacity:1;stroke-width:0.833333;stroke-linecap:butt;stroke-linejoin:miter;stroke-miterlimit:4;stroke-dasharray:none" id="path10677"/><path d="m 446.281,134.172 c 2.336,-0.336 4.5,0 6.5,0.832" style="fill:none;stroke:#1f1d20;stroke-opacity:1;stroke-width:0.833333;stroke-linecap:butt;stroke-linejoin:miter;stroke-miterlimit:4;stroke-dasharray:none" id="path10679"/><path d="m 452.449,124.336 c -2.168,-0.664 -4.5,-0.5 -6.5,0.5" style="fill:none;stroke:#1f1d20;stroke-opacity:1;stroke-width:0.833333;stroke-linecap:butt;stroke-linejoin:miter;stroke-miterlimit:4;stroke-dasharray:none" id="path10681"/><path d="m 444.281,118.168 c 2.5,-0.832 5.168,-0.832 7.668,-0.164" style="fill:none;stroke:#1f1d20;stroke-opacity:1;stroke-width:0.833333;stroke-linecap:butt;stroke-linejoin:miter;stroke-miterlimit:4;stroke-dasharray:none" id="path10683"/><path d="m 449.449,106.836 c -2.832,-0.668 -5.832,-0.5 -8.5,0.168" style="fill:none;stroke:#1f1d20;stroke-opacity:1;stroke-width:0.833333;stroke-linecap:butt;stroke-linejoin:miter;stroke-miterlimit:4;stroke-dasharray:none" id="path10685"/><path d="m 442.281,96.668 c 2.336,-0.6641 4.668,-0.6641 7,0" style="fill:none;stroke:#1f1d20;stroke-opacity:1;stroke-width:0.833333;stroke-linecap:butt;stroke-linejoin:miter;stroke-miterlimit:4;stroke-dasharray:none" id="path10687"/><path d="m 464.449,65.668 c 2,-2.5 4.168,-5 6.5,-7.5" style="fill:none;stroke:#1f1d20;stroke-opacity:1;stroke-width:0.833333;stroke-linecap:butt;stroke-linejoin:miter;stroke-miterlimit:4;stroke-dasharray:none" id="path10689"/><path d="m 492.781,61.168 c -6.332,1.5 -12.664,3.3359 -17.832,6.5" style="fill:none;stroke:#1f1d20;stroke-opacity:1;stroke-width:0.833333;stroke-linecap:butt;stroke-linejoin:miter;stroke-miterlimit:4;stroke-dasharray:none" id="path10691"/><path d="m 442.281,210.172 c 15.668,5.832 33.168,3.832 49.836,6" style="fill:none;stroke:#1f1d20;stroke-opacity:1;stroke-width:0.833333;stroke-linecap:butt;stroke-linejoin:miter;stroke-miterlimit:4;stroke-dasharray:none" id="path10693"/><path d="m 450.449,329.672 c 5.5,-0.168 22.332,3 21.168,11.164" style="fill:none;stroke:#1f1d20;stroke-opacity:1;stroke-width:0.833333;stroke-linecap:butt;stroke-linejoin:miter;stroke-miterlimit:4;stroke-dasharray:none" id="path10695"/><path d="m 468.949,335.004 c 37.668,5.332 30.5,36.5 55.668,45.332 26.332,9.336 20,34 31.164,53.5 14.668,25.836 37.5,45.836 43.668,76.168" style="fill:none;stroke:#1f1d20;stroke-opacity:1;stroke-width:0.833333;stroke-linecap:butt;stroke-linejoin:miter;stroke-miterlimit:4;stroke-dasharray:none" id="path10697"/><path d="m 575.117,625.004 c 19,-35.832 24.832,-53.164 18.332,-93 -5.668,-34.5 37.5,-35.332 27.668,17" style="fill:none;stroke:#1f1d20;stroke-opacity:1;stroke-width:0.833333;stroke-linecap:butt;stroke-linejoin:miter;stroke-miterlimit:4;stroke-dasharray:none" id="path10699"/><path d="m 616.281,512.672 c 3.336,-10.168 8.168,-16.332 19.336,-15.5" style="fill:none;stroke:#1f1d20;stroke-opacity:1;stroke-width:0.833333;stroke-linecap:butt;stroke-linejoin:miter;stroke-miterlimit:4;stroke-dasharray:none" id="path10701"/><path d="m 632.617,539.672 c 2.832,-9.168 -0.336,-15.168 -10.5,-12.5" style="fill:none;stroke:#1f1d20;stroke-opacity:1;stroke-width:0.833333;stroke-linecap:butt;stroke-linejoin:miter;stroke-miterlimit:4;stroke-dasharray:none" id="path10703"/><path d="m 632.617,529.84 c 1.832,-2.5 7,-4.168 11.164,-3.336" style="fill:none;stroke:#1f1d20;stroke-opacity:1;stroke-width:0.833333;stroke-linecap:butt;stroke-linejoin:miter;stroke-miterlimit:4;stroke-dasharray:none" id="path10705"/><path d="m 629.281,582.672 c -2,14.168 -4,30.832 3,43.832" style="fill:none;stroke:#1f1d20;stroke-opacity:1;stroke-width:0.833333;stroke-linecap:butt;stroke-linejoin:miter;stroke-miterlimit:4;stroke-dasharray:none" id="path10707"/><path d="m 640.449,630.172 c -7,-7.668 -32.5,-4.332 -42.832,7.168" style="fill:none;stroke:#1f1d20;stroke-opacity:1;stroke-width:0.833333;stroke-linecap:butt;stroke-linejoin:miter;stroke-miterlimit:4;stroke-dasharray:none" id="path10709"/><path d="m 601.949,654.34 c 8,-14.168 25,-22.168 40.668,-21.668" style="fill:none;stroke:#1f1d20;stroke-opacity:1;stroke-width:0.833333;stroke-linecap:butt;stroke-linejoin:miter;stroke-miterlimit:4;stroke-dasharray:none" id="path10711"/><path d="m 670.781,654.84 c -14.164,2.164 -20.5,3.332 -34.332,-2.668 3.832,16.668 17.5,10.332 23.5,16.668 3.832,4.164 18.668,6.5 24.332,3.832" style="fill:none;stroke:#1f1d20;stroke-opacity:1;stroke-width:0.833333;stroke-linecap:butt;stroke-linejoin:miter;stroke-miterlimit:4;stroke-dasharray:none" id="path10713"/><path d="m 668.449,686.504 c -19.168,5.668 -19.668,-15.832 -2.168,-14.332" style="fill:none;stroke:#1f1d20;stroke-opacity:1;stroke-width:0.833333;stroke-linecap:butt;stroke-linejoin:miter;stroke-miterlimit:4;stroke-dasharray:none" id="path10715"/><path d="m 638.281,653.004 c -0.5,-3.832 14.5,-17 15.336,-17.5" style="fill:none;stroke:#1f1d20;stroke-opacity:1;stroke-width:0.833333;stroke-linecap:butt;stroke-linejoin:miter;stroke-miterlimit:4;stroke-dasharray:none" id="path10717"/><path d="m 664.117,655.84 c 3.5,-7 5.332,-14.668 5.664,-22.336 -8.332,7.5 -20.5,10.668 -25.5,21.668" style="fill:none;stroke:#1f1d20;stroke-opacity:1;stroke-width:0.833333;stroke-linecap:butt;stroke-linejoin:miter;stroke-miterlimit:4;stroke-dasharray:none" id="path10719"/><path d="m 623.781,676.84 c 7.668,0 6.836,4.332 15.668,6 -7,-0.336 -6.5,9.332 -15.668,9.332 -11,0 -6.664,-10.5 -15.5,-11.5 5.5,0 11.168,-3.832 15.5,-3.832" style="fill:none;stroke:#1f1d20;stroke-opacity:1;stroke-width:0.833333;stroke-linecap:butt;stroke-linejoin:miter;stroke-miterlimit:4;stroke-dasharray:none" id="path10721"/><path d="m 617.281,678.504 c -2,2.168 -2.832,5.168 -2.164,8" style="fill:none;stroke:#1f1d20;stroke-opacity:1;stroke-width:0.833333;stroke-linecap:butt;stroke-linejoin:miter;stroke-miterlimit:4;stroke-dasharray:none" id="path10723"/><path d="m 631.617,688.504 c 1.664,-3.332 1,-7.332 -1.5,-10" style="fill:none;stroke:#1f1d20;stroke-opacity:1;stroke-width:0.833333;stroke-linecap:butt;stroke-linejoin:miter;stroke-miterlimit:4;stroke-dasharray:none" id="path10725"/><path d="m 623.781,680.004 c 3.5,0 5.668,3.836 3.836,6.836 -1.668,3 -6,3 -7.836,0 -1.664,-3 0.336,-6.836 4,-6.836" style="fill:none;stroke:#1f1d20;stroke-opacity:1;stroke-width:0.833333;stroke-linecap:butt;stroke-linejoin:miter;stroke-miterlimit:4;stroke-dasharray:none" id="path10727"/><path d="m 623.781,680.34 c 3.168,0 5.336,3.5 3.668,6.332 -1.668,2.832 -5.832,2.832 -7.332,0 -1.668,-2.832 0.332,-6.332 3.664,-6.332" style="fill:none;stroke:#1f1d20;stroke-opacity:1;stroke-width:0.833333;stroke-linecap:butt;stroke-linejoin:miter;stroke-miterlimit:4;stroke-dasharray:none" id="path10729"/><path d="m 623.781,680.672 c 3,0 4.836,3.332 3.336,5.832 -1.5,2.668 -5.336,2.836 -6.836,0 -1.5,-2.5 0.336,-5.832 3.5,-5.832" style="fill:none;stroke:#1f1d20;stroke-opacity:1;stroke-width:0.833333;stroke-linecap:butt;stroke-linejoin:miter;stroke-miterlimit:4;stroke-dasharray:none" id="path10731"/><path d="m 623.781,680.84 c 2.836,0 4.668,3.164 3.168,5.664 -1.332,2.5 -5,2.5 -6.5,0 -1.5,-2.5 0.5,-5.664 3.332,-5.664" style="fill:none;stroke:#1f1d20;stroke-opacity:1;stroke-width:0.833333;stroke-linecap:butt;stroke-linejoin:miter;stroke-miterlimit:4;stroke-dasharray:none" id="path10733"/><path d="m 623.781,681.172 c 2.668,0 4.336,2.832 3,5.168 -1.5,2.164 -4.664,2.332 -6,0 -1.5,-2.336 0.336,-5.168 3,-5.168" style="fill:none;stroke:#1f1d20;stroke-opacity:1;stroke-width:0.833333;stroke-linecap:butt;stroke-linejoin:miter;stroke-miterlimit:4;stroke-dasharray:none" id="path10735"/><path d="m 623.781,681.34 c 2.5,0 4,2.664 2.668,4.832 -1.168,2.168 -4.332,2.168 -5.5,0 -1.332,-2.168 0.332,-4.832 2.832,-4.832" style="fill:none;stroke:#1f1d20;stroke-opacity:1;stroke-width:0.833333;stroke-linecap:butt;stroke-linejoin:miter;stroke-miterlimit:4;stroke-dasharray:none" id="path10737"/><path d="m 623.781,681.672 c 2.168,0 3.668,2.332 2.5,4.332 -1.164,2 -4,2.168 -5.164,0 -1,-2 0.332,-4.332 2.664,-4.332" style="fill:none;stroke:#1f1d20;stroke-opacity:1;stroke-width:0.833333;stroke-linecap:butt;stroke-linejoin:miter;stroke-miterlimit:4;stroke-dasharray:none" id="path10739"/><path d="m 623.781,681.84 c 2,0 3.336,2.332 2.336,4.164 -1.168,1.668 -3.668,1.668 -4.668,0 -1.168,-1.832 0.168,-4.164 2.332,-4.164" style="fill:none;stroke:#1f1d20;stroke-opacity:1;stroke-width:0.833333;stroke-linecap:butt;stroke-linejoin:miter;stroke-miterlimit:4;stroke-dasharray:none" id="path10741"/><path d="m 623.781,682.172 c 1.836,0 3,2 2,3.668 -1,1.5 -3.164,1.5 -4.164,0 -0.836,-1.668 0.164,-3.668 2.164,-3.668" style="fill:none;stroke:#1f1d20;stroke-opacity:1;stroke-width:0.833333;stroke-linecap:butt;stroke-linejoin:miter;stroke-miterlimit:4;stroke-dasharray:none" id="path10743"/><path d="m 623.781,682.34 c 1.668,0 2.668,1.832 1.836,3.332 -0.836,1.5 -3,1.5 -3.836,0 -0.832,-1.5 0.336,-3.332 2,-3.332" style="fill:none;stroke:#1f1d20;stroke-opacity:1;stroke-width:0.833333;stroke-linecap:butt;stroke-linejoin:miter;stroke-miterlimit:4;stroke-dasharray:none" id="path10745"/><path d="m 623.781,682.672 c 1.5,0 2.336,1.668 1.5,2.832 -0.664,1.336 -2.5,1.336 -3.164,0 -0.836,-1.332 0.164,-2.832 1.664,-2.832" style="fill:none;stroke:#1f1d20;stroke-opacity:1;stroke-width:0.833333;stroke-linecap:butt;stroke-linejoin:miter;stroke-miterlimit:4;stroke-dasharray:none" id="path10747"/><path d="m 623.781,683.004 c 1.168,0 2,1.336 1.336,2.5 -0.668,1 -2.168,1 -2.836,0 -0.664,-1.164 0.168,-2.5 1.5,-2.5" style="fill:none;stroke:#1f1d20;stroke-opacity:1;stroke-width:0.833333;stroke-linecap:butt;stroke-linejoin:miter;stroke-miterlimit:4;stroke-dasharray:none" id="path10749"/><path d="m 623.781,683.172 c 1,0 1.668,1.168 1.168,2.168 -0.668,0.832 -1.832,1 -2.5,0 -0.5,-1 0.168,-2.168 1.332,-2.168" style="fill:none;stroke:#1f1d20;stroke-opacity:1;stroke-width:0.833333;stroke-linecap:butt;stroke-linejoin:miter;stroke-miterlimit:4;stroke-dasharray:none" id="path10751"/><path d="m 623.781,683.504 c 0.836,0 1.336,0.836 1,1.668 -0.5,0.832 -1.664,0.668 -2,0 -0.5,-0.832 0.168,-1.668 1,-1.668" style="fill:none;stroke:#1f1d20;stroke-opacity:1;stroke-width:0.833333;stroke-linecap:butt;stroke-linejoin:miter;stroke-miterlimit:4;stroke-dasharray:none" id="path10753"/><path d="m 623.781,683.672 c 0.5,0 1,0.832 0.668,1.332 -0.332,0.5 -1,0.668 -1.5,0 -0.332,-0.5 0,-1.332 0.832,-1.332" style="fill:none;stroke:#1f1d20;stroke-opacity:1;stroke-width:0.833333;stroke-linecap:butt;stroke-linejoin:miter;stroke-miterlimit:4;stroke-dasharray:none" id="path10755"/><path d="m 623.781,684.004 c 0.5,0 0.668,0.5 0.5,1 -0.332,0.336 -0.832,0.336 -1.164,0 -0.168,-0.5 0.164,-1 0.664,-1" style="fill:none;stroke:#1f1d20;stroke-opacity:1;stroke-width:0.833333;stroke-linecap:butt;stroke-linejoin:miter;stroke-miterlimit:4;stroke-dasharray:none" id="path10757"/><path d="m 623.781,684.172 c 0.336,0 0.5,0.332 0.336,0.668 -0.168,0.164 -0.668,0.164 -0.668,0 -0.168,-0.336 0,-0.668 0.332,-0.668" style="fill:none;stroke:#1f1d20;stroke-opacity:1;stroke-width:0.833333;stroke-linecap:butt;stroke-linejoin:miter;stroke-miterlimit:4;stroke-dasharray:none" id="path10759"/><path d="m 623.781,684.504 c 0.168,0 0.168,0 0.168,0.168 -0.168,0.168 -0.332,0 -0.332,0 -0.168,-0.168 0,-0.168 0.164,-0.168" style="fill:none;stroke:#1f1d20;stroke-opacity:1;stroke-width:0.833333;stroke-linecap:butt;stroke-linejoin:miter;stroke-miterlimit:4;stroke-dasharray:none" id="path10761"/><path d="m 480.949,338.172 c -30.332,-21.336 -15.668,-58.836 -58.5,-58.668" style="fill:none;stroke:#1f1d20;stroke-opacity:1;stroke-width:0.833333;stroke-linecap:butt;stroke-linejoin:miter;stroke-miterlimit:4;stroke-dasharray:none" id="path10763"/><path d="m 428.781,279.836 c -12.5,-22.5 -25.164,-47.332 -45.164,-63.332" style="fill:none;stroke:#1f1d20;stroke-opacity:1;stroke-width:0.833333;stroke-linecap:butt;stroke-linejoin:miter;stroke-miterlimit:4;stroke-dasharray:none" id="path10765"/><path d="m 366.781,206.336 c 17.836,20 31.336,47 43.836,66.168" style="fill:none;stroke:#1f1d20;stroke-opacity:1;stroke-width:0.833333;stroke-linecap:butt;stroke-linejoin:miter;stroke-miterlimit:4;stroke-dasharray:none" id="path10767"/><path d="m 403.781,272.172 c 18.168,-2.336 27,18.332 31.668,32.332" style="fill:none;stroke:#1f1d20;stroke-opacity:1;stroke-width:0.833333;stroke-linecap:butt;stroke-linejoin:miter;stroke-miterlimit:4;stroke-dasharray:none" id="path10769"/><path d="m 442.617,283.672 c -8,-17.336 -18,-30.836 -32,-35.5" style="fill:none;stroke:#1f1d20;stroke-opacity:1;stroke-width:0.833333;stroke-linecap:butt;stroke-linejoin:miter;stroke-miterlimit:4;stroke-dasharray:none" id="path10771"/><path d="m 324.781,180.172 c 10.332,8.164 19.168,19.164 26.668,28.664" style="fill:none;stroke:#1f1d20;stroke-opacity:1;stroke-width:0.833333;stroke-linecap:butt;stroke-linejoin:miter;stroke-miterlimit:4;stroke-dasharray:none" id="path10773"/><path d="m 320.781,196.004 c -5.832,-8.832 -17.832,-20.668 -30.832,-28.5" style="fill:none;stroke:#1f1d20;stroke-opacity:1;stroke-width:0.833333;stroke-linecap:butt;stroke-linejoin:miter;stroke-miterlimit:4;stroke-dasharray:none" id="path10775"/><path d="m 257.113,160.504 c 32.836,15.332 58,54.332 79.336,80.5" style="fill:none;stroke:#1f1d20;stroke-opacity:1;stroke-width:0.833333;stroke-linecap:butt;stroke-linejoin:miter;stroke-miterlimit:4;stroke-dasharray:none" id="path10777"/><path d="m 222.281,168.672 c -4.332,-4 -8.832,-8.168 -13.668,-11" style="fill:none;stroke:#1f1d20;stroke-opacity:1;stroke-width:0.833333;stroke-linecap:butt;stroke-linejoin:miter;stroke-miterlimit:4;stroke-dasharray:none" id="path10779"/><path d="m 196.113,154.172 -5.664,1.164" style="fill:none;stroke:#1f1d20;stroke-opacity:1;stroke-width:0.833333;stroke-linecap:butt;stroke-linejoin:miter;stroke-miterlimit:4;stroke-dasharray:none" id="path10781"/><path d="m 141.449,150.836 c 4.832,6.5 10.5,12.336 16.664,17.336" style="fill:none;stroke:#1f1d20;stroke-opacity:1;stroke-width:0.833333;stroke-linecap:butt;stroke-linejoin:miter;stroke-miterlimit:4;stroke-dasharray:none" id="path10783"/><path d="m 141.281,179.004 c 7.5,-15.832 32,-13.5 32,2.5" style="fill:none;stroke:#1f1d20;stroke-opacity:1;stroke-width:0.833333;stroke-linecap:butt;stroke-linejoin:miter;stroke-miterlimit:4;stroke-dasharray:none" id="path10785"/><path d="m 159.949,231.672 c 3.664,-11 18.5,-5 26.164,-3.336" style="fill:none;stroke:#1f1d20;stroke-opacity:1;stroke-width:0.833333;stroke-linecap:butt;stroke-linejoin:miter;stroke-miterlimit:4;stroke-dasharray:none" id="path10787"/><path d="m 245.613,291.172 c 0.836,-6.336 7.836,-9.836 13.336,-6.668 -7.336,-8 6.164,-21.332 14.5,-17.168 -3.336,-4.5 1.664,-6.164 19.5,-9.5 7.832,-1.5 26.164,-2.832 27.164,9.5" style="fill:none;stroke:#1f1d20;stroke-opacity:1;stroke-width:0.833333;stroke-linecap:butt;stroke-linejoin:miter;stroke-miterlimit:4;stroke-dasharray:none" id="path10789"/><path d="m 317.449,261.172 c 9.832,-4.336 23.164,0.832 25.664,11.664" style="fill:none;stroke:#1f1d20;stroke-opacity:1;stroke-width:0.833333;stroke-linecap:butt;stroke-linejoin:miter;stroke-miterlimit:4;stroke-dasharray:none" id="path10791"/><path d="m 191.781,275.836 c 4.5,3.836 9.668,6.836 11.5,7.5 5.5,32.336 46,42.168 63,71" style="fill:none;stroke:#1f1d20;stroke-opacity:1;stroke-width:0.833333;stroke-linecap:butt;stroke-linejoin:miter;stroke-miterlimit:4;stroke-dasharray:none" id="path10793"/><path d="M 412.117,497.84 C 342.781,477.004 309.113,410.004 260.113,364.172 c 6.168,-24.668 97,-54.336 98.504,-26.168" style="fill:none;stroke:#1f1d20;stroke-opacity:1;stroke-width:0.833333;stroke-linecap:butt;stroke-linejoin:miter;stroke-miterlimit:4;stroke-dasharray:none" id="path10795"/><path d="m 351.449,328.504 c 13.168,-5.832 17.5,-7.168 24.5,6.168" style="fill:none;stroke:#1f1d20;stroke-opacity:1;stroke-width:0.833333;stroke-linecap:butt;stroke-linejoin:miter;stroke-miterlimit:4;stroke-dasharray:none" id="path10797"/><path d="m 369.949,326.172 c 17.332,-11.336 15.5,2.664 27.668,9" style="fill:none;stroke:#1f1d20;stroke-opacity:1;stroke-width:0.833333;stroke-linecap:butt;stroke-linejoin:miter;stroke-miterlimit:4;stroke-dasharray:none" id="path10799"/><path d="m 128.281,288.004 c -2.832,5.168 -4.832,10.832 -5.668,16.5 2.668,2.332 6,3.832 9.5,4.5 l -3.5,6.168 c -12.664,0.164 -12.332,16.832 -7.164,25 -6.336,6.832 0.832,15 6.664,19" style="fill:none;stroke:#1f1d20;stroke-opacity:1;stroke-width:0.833333;stroke-linecap:butt;stroke-linejoin:miter;stroke-miterlimit:4;stroke-dasharray:none" id="path10801"/><path d="m 10.2813,306.004 c 3.332,-2.168 8.832,-4 16.664,-4.832 l 53.836,-6.668" style="fill:none;stroke:#1f1d20;stroke-opacity:1;stroke-width:0.833333;stroke-linecap:butt;stroke-linejoin:miter;stroke-miterlimit:4;stroke-dasharray:none" id="path10803"/><path d="m 60.7813,309.004 c -7.8321,2.168 -42,9.168 -45.336,19" style="fill:none;stroke:#1f1d20;stroke-opacity:1;stroke-width:0.833333;stroke-linecap:butt;stroke-linejoin:miter;stroke-miterlimit:4;stroke-dasharray:none" id="path10805"/><path d="m 24.6133,338.836 c 3.168,-7.164 18,-12 27.8359,-13.664" style="fill:none;stroke:#1f1d20;stroke-opacity:1;stroke-width:0.833333;stroke-linecap:butt;stroke-linejoin:miter;stroke-miterlimit:4;stroke-dasharray:none" id="path10807"/><path d="m 79.1133,371.836 c 11.168,1.168 22.6677,0.336 33.9997,-2.664" style="fill:none;stroke:#1f1d20;stroke-opacity:1;stroke-width:0.833333;stroke-linecap:butt;stroke-linejoin:miter;stroke-miterlimit:4;stroke-dasharray:none" id="path10809"/><path d="m 238.949,413.172 1.164,2.5" style="fill:none;stroke:#1f1d20;stroke-opacity:1;stroke-width:0.833333;stroke-linecap:butt;stroke-linejoin:miter;stroke-miterlimit:4;stroke-dasharray:none" id="path10811"/><path d="m 390.949,172.004 c 4.832,-0.668 11.168,-2.668 15.832,0.168 3.5,-29.5 11.5,-99.8361 27,-119.1681 16,-5.168 32.168,-11 48.5,-17.5 l -33.5,3.6641 c 11,-8.1641 23.5,-15.1641 32.336,-24.8321 -18.668,5.5 -34.668,18.8321 -53,25.668 6.832,-13.3359 22.832,-22.668 25.164,-36.66796 -4.332,2.83203 -8.664,5.83203 -11.664,9.99996 -11.668,15.3321 -31.5,14.668 -31,42.8321 -2.836,-1.5 -5.5,-3.5 -7.668,-5.5 3.832,5 6.5,29.5 5.168,38.6679 -4,27.8321 -12.336,55.3361 -17.168,82.6681" style="fill:#f5804b;fill-opacity:1;fill-rule:nonzero;stroke:none" id="path10813"/><path d="m 390.949,172.004 c 4.832,-0.668 11.168,-2.668 15.832,0.168 3.5,-29.5 11.5,-99.8361 27,-119.1681 16,-5.168 32.168,-11 48.5,-17.5 l -33.5,3.6641 c 11,-8.1641 23.5,-15.1641 32.336,-24.8321 -18.668,5.5 -34.668,18.8321 -53,25.668 6.832,-13.3359 22.832,-22.668 25.164,-36.66796 -4.332,2.83203 -8.664,5.83203 -11.664,9.99996 -11.668,15.3321 -31.5,14.668 -31,42.8321 -2.836,-1.5 -5.5,-3.5 -7.668,-5.5 3.832,5 6.5,29.5 5.168,38.6679 -4,27.8321 -12.336,55.3361 -17.168,82.6681 z" style="fill:none;stroke:#200e05;stroke-opacity:1;stroke-width:0.833333;stroke-linecap:butt;stroke-linejoin:miter;stroke-miterlimit:4;stroke-dasharray:none" id="path10815"/><path d="m 462.281,172.836 c -2.832,-27.164 -15.832,-88.5001 12.5,-105.168 l 10.5,1.5 c 14.168,2.1679 13.5,-1.5 28.168,-3 -7.168,0 -14.332,-1.6641 -20.668,-5 12,-2.6641 25,-4 34,-10 l -56,7.1679 c 9.5,-10.332 20.168,-19.832 31.668,-27.832 -10.332,6 -62.668,26.6641 -58,42.332 -3.668,-0.332 -6.832,-2.332 -9,-5 -1,21.168 14.332,22.168 2.168,47.3321 14.832,-4.332 6.164,36.836 6.5,56.004 3.5,-4.168 14.5,-1.168 18.164,1.664" style="fill:#f5804b;fill-opacity:1;fill-rule:nonzero;stroke:none" id="path10817"/><path d="m 462.281,172.836 c -2.832,-27.164 -15.832,-88.5001 12.5,-105.168 l 10.5,1.5 c 14.168,2.1679 13.5,-1.5 28.168,-3 -7.168,0 -14.332,-1.6641 -20.668,-5 12,-2.6641 25,-4 34,-10 l -56,7.1679 c 9.5,-10.332 20.168,-19.832 31.668,-27.832 -10.332,6 -62.668,26.6641 -58,42.332 -3.668,-0.332 -6.832,-2.332 -9,-5 -1,21.168 14.332,22.168 2.168,47.3321 14.832,-4.332 6.164,36.836 6.5,56.004 3.5,-4.168 14.5,-1.168 18.164,1.664 z" style="fill:none;stroke:#200e05;stroke-opacity:1;stroke-width:0.833333;stroke-linecap:butt;stroke-linejoin:miter;stroke-miterlimit:4;stroke-dasharray:none" id="path10819"/><path d="m 635.617,497.172 c -11.168,-0.832 -16,5.332 -19.5,15.5 -9.668,-11.168 -26.336,-3 -22.836,19.332 6.668,39.836 0.836,57.168 -18.164,93 -11.5,24.668 -10.336,40.336 5,51.5 0.332,30.668 29,43.668 55.832,33.336 23,-9 31.5,-9.836 32.5,-23.336 7,-2.164 14.168,-8.164 15.832,-13.832 -5.664,2.668 -20.5,0.332 -24.332,-3.832 -6,-6.336 -19.668,0 -23.5,-16.668 0.5,0.332 1.168,0.5 1.668,0.832 -0.336,-3.832 14.664,-17 15.5,-17.5 -3.5,-2 -7.168,-2.832 -11,-2.832 l -2.168,-2.5 c 7,-18.332 -3.668,-37.5 -3.168,-56 0.336,-14 26,-44.332 6.336,-47.668 5.664,-9.5 6.5,-28.332 -8,-29.332" style="fill:#f5804b;fill-opacity:1;fill-rule:nonzero;stroke:none" id="path10821"/><path d="m 635.617,497.172 c -11.168,-0.832 -16,5.332 -19.5,15.5 -9.668,-11.168 -26.336,-3 -22.836,19.332 6.668,39.836 0.836,57.168 -18.164,93 -11.5,24.668 -10.336,40.336 5,51.5 0.332,30.668 29,43.668 55.832,33.336 23,-9 31.5,-9.836 32.5,-23.336 7,-2.164 14.168,-8.164 15.832,-13.832 -5.664,2.668 -20.5,0.332 -24.332,-3.832 -6,-6.336 -19.668,0 -23.5,-16.668 0.5,0.332 1.168,0.5 1.668,0.832 -0.336,-3.832 14.664,-17 15.5,-17.5 -3.5,-2 -7.168,-2.832 -11,-2.832 l -2.168,-2.5 c 7,-18.332 -3.668,-37.5 -3.168,-56 0.336,-14 26,-44.332 6.336,-47.668 5.664,-9.5 6.5,-28.332 -8,-29.332 z" style="fill:none;stroke:#200e05;stroke-opacity:1;stroke-width:0.833333;stroke-linecap:butt;stroke-linejoin:miter;stroke-miterlimit:4;stroke-dasharray:none" id="path10823"/><path d="m 644.117,655.172 c 7.164,2 12.5,1.668 20,0.668 3.5,-7 5.332,-14.668 5.5,-22.336 -8.336,7.5 -20.5,10.668 -25.5,21.668" style="fill:#f5804b;fill-opacity:1;fill-rule:nonzero;stroke:none" id="path10825"/><path d="m 644.117,655.172 c 7.164,2 12.5,1.668 20,0.668 3.5,-7 5.332,-14.668 5.5,-22.336 -8.336,7.5 -20.5,10.668 -25.5,21.668 z" style="fill:none;stroke:#200e05;stroke-opacity:1;stroke-width:0.833333;stroke-linecap:butt;stroke-linejoin:miter;stroke-miterlimit:4;stroke-dasharray:none" id="path10827"/><path d="m 639.449,682.84 c -8.832,-1.668 -8.168,-6 -15.832,-6 -4.336,0 -9.836,3.832 -15.336,3.832 8.836,1 4.5,11.5 15.336,11.5 9.332,0 8.832,-9.668 15.832,-9.332" style="fill:none;stroke:#200e05;stroke-opacity:1;stroke-width:0.833333;stroke-linecap:butt;stroke-linejoin:miter;stroke-miterlimit:4;stroke-dasharray:none" id="path10829"/><path d="m 631.617,688.504 c 1.664,-3.332 1,-7.332 -1.5,-10" style="fill:none;stroke:#200e05;stroke-opacity:1;stroke-width:0.833333;stroke-linecap:butt;stroke-linejoin:miter;stroke-miterlimit:4;stroke-dasharray:none" id="path10831"/><path d="m 617.281,678.504 c -2,2.168 -2.832,5.168 -2.164,8" style="fill:none;stroke:#200e05;stroke-opacity:1;stroke-width:0.833333;stroke-linecap:butt;stroke-linejoin:miter;stroke-miterlimit:4;stroke-dasharray:none" id="path10833"/><path d="m 623.617,680.004 c 3.5,0 5.664,3.836 4,6.836 -1.668,3 -6,3 -7.836,0 -1.832,-3 0.336,-6.836 3.836,-6.836" style="fill:none;stroke:#200e05;stroke-opacity:1;stroke-width:0.833333;stroke-linecap:butt;stroke-linejoin:miter;stroke-miterlimit:4;stroke-dasharray:none" id="path10835"/><path d="m 623.617,680.34 c 3.332,0 5.332,3.5 3.664,6.332 -1.5,2.832 -5.664,2.832 -7.332,0 -1.668,-2.832 0.5,-6.332 3.668,-6.332" style="fill:none;stroke:#200e05;stroke-opacity:1;stroke-width:0.833333;stroke-linecap:butt;stroke-linejoin:miter;stroke-miterlimit:4;stroke-dasharray:none" id="path10837"/><path d="m 623.617,680.672 c 3.164,0 5,3.332 3.5,5.832 -1.5,2.668 -5.336,2.836 -6.836,0 -1.5,-2.5 0.336,-5.832 3.336,-5.832" style="fill:none;stroke:#200e05;stroke-opacity:1;stroke-width:0.833333;stroke-linecap:butt;stroke-linejoin:miter;stroke-miterlimit:4;stroke-dasharray:none" id="path10839"/><path d="m 623.617,680.84 c 3,0 4.664,3.164 3.332,5.664 -1.5,2.5 -5.168,2.5 -6.5,0 -1.5,-2.5 0.332,-5.664 3.168,-5.664" style="fill:none;stroke:#200e05;stroke-opacity:1;stroke-width:0.833333;stroke-linecap:butt;stroke-linejoin:miter;stroke-miterlimit:4;stroke-dasharray:none" id="path10841"/><path d="m 623.617,681.172 c 2.832,0 4.332,2.832 3,5.168 -1.336,2.164 -4.5,2.332 -6,0 -1.336,-2.336 0.5,-5.168 3,-5.168" style="fill:none;stroke:#200e05;stroke-opacity:1;stroke-width:0.833333;stroke-linecap:butt;stroke-linejoin:miter;stroke-miterlimit:4;stroke-dasharray:none" id="path10843"/><path d="m 623.617,681.34 c 2.5,0 4,2.664 2.832,4.832 -1.168,2.168 -4.332,2.168 -5.5,0 -1.332,-2.168 0.332,-4.832 2.668,-4.832" style="fill:none;stroke:#200e05;stroke-opacity:1;stroke-width:0.833333;stroke-linecap:butt;stroke-linejoin:miter;stroke-miterlimit:4;stroke-dasharray:none" id="path10845"/><path d="m 623.617,681.672 c 2.332,0 3.832,2.332 2.664,4.332 -1.164,2 -4,2.168 -5.164,0 -1.168,-2 0.164,-4.332 2.5,-4.332" style="fill:none;stroke:#200e05;stroke-opacity:1;stroke-width:0.833333;stroke-linecap:butt;stroke-linejoin:miter;stroke-miterlimit:4;stroke-dasharray:none" id="path10847"/><path d="m 623.617,681.84 c 2.164,0 3.5,2.332 2.332,4.164 -1,1.668 -3.5,1.668 -4.668,0 -1,-1.832 0.336,-4.164 2.336,-4.164" style="fill:none;stroke:#200e05;stroke-opacity:1;stroke-width:0.833333;stroke-linecap:butt;stroke-linejoin:miter;stroke-miterlimit:4;stroke-dasharray:none" id="path10849"/><path d="m 623.617,682.172 c 1.832,0 3.164,2 2.164,3.668 -1,1.5 -3.164,1.5 -4.164,0 -1,-1.668 0.164,-3.668 2,-3.668" style="fill:none;stroke:#200e05;stroke-opacity:1;stroke-width:0.833333;stroke-linecap:butt;stroke-linejoin:miter;stroke-miterlimit:4;stroke-dasharray:none" id="path10851"/><path d="m 623.617,682.34 c 1.832,0 2.832,1.832 2,3.332 -0.836,1.5 -3,1.5 -3.836,0 -1,-1.5 0.336,-3.332 1.836,-3.332" style="fill:none;stroke:#200e05;stroke-opacity:1;stroke-width:0.833333;stroke-linecap:butt;stroke-linejoin:miter;stroke-miterlimit:4;stroke-dasharray:none" id="path10853"/><path d="m 623.617,682.672 c 1.5,0 2.5,1.668 1.664,2.832 -0.664,1.336 -2.5,1.336 -3.164,0 -0.836,-1.332 0.164,-2.832 1.5,-2.832" style="fill:none;stroke:#200e05;stroke-opacity:1;stroke-width:0.833333;stroke-linecap:butt;stroke-linejoin:miter;stroke-miterlimit:4;stroke-dasharray:none" id="path10855"/><path d="m 623.617,683.004 c 1.332,0 2.164,1.336 1.5,2.5 -0.668,1 -2.168,1 -2.836,0 -0.664,-1.164 0.168,-2.5 1.336,-2.5" style="fill:none;stroke:#200e05;stroke-opacity:1;stroke-width:0.833333;stroke-linecap:butt;stroke-linejoin:miter;stroke-miterlimit:4;stroke-dasharray:none" id="path10857"/><path d="m 623.617,683.172 c 1.164,0 1.832,1.168 1.332,2.168 -0.668,0.832 -2,1 -2.5,0 -0.5,-1 0.168,-2.168 1.168,-2.168" style="fill:none;stroke:#200e05;stroke-opacity:1;stroke-width:0.833333;stroke-linecap:butt;stroke-linejoin:miter;stroke-miterlimit:4;stroke-dasharray:none" id="path10859"/><path d="m 623.617,683.504 c 0.832,0 1.5,0.836 1,1.668 -0.336,0.832 -1.5,0.668 -2,0 -0.336,-0.832 0.164,-1.668 1,-1.668" style="fill:none;stroke:#200e05;stroke-opacity:1;stroke-width:0.833333;stroke-linecap:butt;stroke-linejoin:miter;stroke-miterlimit:4;stroke-dasharray:none" id="path10861"/><path d="m 623.617,683.672 c 0.664,0 1.164,0.832 0.832,1.332 -0.332,0.5 -1.168,0.668 -1.5,0 -0.332,-0.5 0,-1.332 0.668,-1.332" style="fill:none;stroke:#200e05;stroke-opacity:1;stroke-width:0.833333;stroke-linecap:butt;stroke-linejoin:miter;stroke-miterlimit:4;stroke-dasharray:none" id="path10863"/><path d="m 623.617,684.004 c 0.5,0 0.832,0.5 0.664,1 -0.332,0.336 -1,0.336 -1.164,0 -0.336,-0.5 0.164,-1 0.5,-1" style="fill:none;stroke:#200e05;stroke-opacity:1;stroke-width:0.833333;stroke-linecap:butt;stroke-linejoin:miter;stroke-miterlimit:4;stroke-dasharray:none" id="path10865"/><path d="m 623.617,684.172 c 0.332,0 0.664,0.332 0.332,0.668 0,0.164 -0.5,0.164 -0.668,0 -0.164,-0.336 0,-0.668 0.336,-0.668" style="fill:none;stroke:#200e05;stroke-opacity:1;stroke-width:0.833333;stroke-linecap:butt;stroke-linejoin:miter;stroke-miterlimit:4;stroke-dasharray:none" id="path10867"/><path d="m 623.617,684.504 c 0.164,0 0.332,0 0.164,0.168 0,0.168 -0.164,0 -0.332,0 0,-0.168 0.168,-0.168 0.168,-0.168" style="fill:none;stroke:#200e05;stroke-opacity:1;stroke-width:0.833333;stroke-linecap:butt;stroke-linejoin:miter;stroke-miterlimit:4;stroke-dasharray:none" id="path10869"/><path d="m 668.449,686.504 c -19.332,5.668 -19.668,-15.832 -2.168,-14.332" style="fill:none;stroke:#200e05;stroke-opacity:1;stroke-width:0.833333;stroke-linecap:butt;stroke-linejoin:miter;stroke-miterlimit:4;stroke-dasharray:none" id="path10871"/><path d="m 642.617,632.672 c -15.668,-0.5 -32.836,7.5 -40.668,21.668" style="fill:none;stroke:#200e05;stroke-opacity:1;stroke-width:0.833333;stroke-linecap:butt;stroke-linejoin:miter;stroke-miterlimit:4;stroke-dasharray:none" id="path10873"/><path d="m 597.617,637.34 c 10.164,-11.5 35.832,-14.836 42.832,-7.168" style="fill:none;stroke:#200e05;stroke-opacity:1;stroke-width:0.833333;stroke-linecap:butt;stroke-linejoin:miter;stroke-miterlimit:4;stroke-dasharray:none" id="path10875"/><path d="m 632.281,626.504 c -7,-13 -5,-29.664 -3,-43.832" style="fill:none;stroke:#200e05;stroke-opacity:1;stroke-width:0.833333;stroke-linecap:butt;stroke-linejoin:miter;stroke-miterlimit:4;stroke-dasharray:none" id="path10877"/><path d="m 643.617,526.504 c -4,-0.832 -9.336,0.836 -11,3.336" style="fill:none;stroke:#200e05;stroke-opacity:1;stroke-width:0.833333;stroke-linecap:butt;stroke-linejoin:miter;stroke-miterlimit:4;stroke-dasharray:none" id="path10879"/><path d="m 632.617,539.672 c 2.832,-9.168 -0.5,-15.168 -10.5,-12.5" style="fill:none;stroke:#200e05;stroke-opacity:1;stroke-width:0.833333;stroke-linecap:butt;stroke-linejoin:miter;stroke-miterlimit:4;stroke-dasharray:none" id="path10881"/><path d="m 621.117,549.004 c 3.332,-18.5 0.332,-30.332 -5,-36.332" style="fill:none;stroke:#200e05;stroke-opacity:1;stroke-width:0.833333;stroke-linecap:butt;stroke-linejoin:miter;stroke-miterlimit:4;stroke-dasharray:none" id="path10883"/><path d="m 451.449,163.672 -7.168,-0.5" style="fill:none;stroke:#200e05;stroke-opacity:1;stroke-width:0.833333;stroke-linecap:butt;stroke-linejoin:miter;stroke-miterlimit:4;stroke-dasharray:none" id="path10885"/><path d="m 444.949,155.504 c 2.5,-0.832 5,-0.668 7.332,0.5" style="fill:none;stroke:#200e05;stroke-opacity:1;stroke-width:0.833333;stroke-linecap:butt;stroke-linejoin:miter;stroke-miterlimit:4;stroke-dasharray:none" id="path10887"/><path d="m 452.281,144.004 c -2.164,-0.668 -4.332,-0.5 -6.5,0" style="fill:none;stroke:#200e05;stroke-opacity:1;stroke-width:0.833333;stroke-linecap:butt;stroke-linejoin:miter;stroke-miterlimit:4;stroke-dasharray:none" id="path10889"/><path d="m 446.281,134.172 c 2.168,-0.336 4.5,0 6.5,0.832" style="fill:none;stroke:#200e05;stroke-opacity:1;stroke-width:0.833333;stroke-linecap:butt;stroke-linejoin:miter;stroke-miterlimit:4;stroke-dasharray:none" id="path10891"/><path d="m 452.281,124.336 c -2,-0.664 -4.332,-0.5 -6.332,0.5" style="fill:none;stroke:#200e05;stroke-opacity:1;stroke-width:0.833333;stroke-linecap:butt;stroke-linejoin:miter;stroke-miterlimit:4;stroke-dasharray:none" id="path10893"/><path d="m 444.281,118.168 c 2.5,-0.832 5,-0.832 7.5,-0.164" style="fill:none;stroke:#200e05;stroke-opacity:1;stroke-width:0.833333;stroke-linecap:butt;stroke-linejoin:miter;stroke-miterlimit:4;stroke-dasharray:none" id="path10895"/><path d="m 449.281,106.836 c -2.832,-0.668 -5.664,-0.5 -8.332,0.168" style="fill:none;stroke:#200e05;stroke-opacity:1;stroke-width:0.833333;stroke-linecap:butt;stroke-linejoin:miter;stroke-miterlimit:4;stroke-dasharray:none" id="path10897"/><path d="m 442.281,96.668 c 2.336,-0.6641 4.668,-0.6641 7,0" style="fill:none;stroke:#200e05;stroke-opacity:1;stroke-width:0.833333;stroke-linecap:butt;stroke-linejoin:miter;stroke-miterlimit:4;stroke-dasharray:none" id="path10899"/><path d="m 474.781,67.668 c 5.336,-3.1641 11.5,-5 18,-6.5" style="fill:none;stroke:#200e05;stroke-opacity:1;stroke-width:0.833333;stroke-linecap:butt;stroke-linejoin:miter;stroke-miterlimit:4;stroke-dasharray:none" id="path10901"/><path d="m 470.781,58.3359 c -2.164,2.3321 -4.332,4.668 -6.5,7.3321" style="fill:none;stroke:#200e05;stroke-opacity:1;stroke-width:0.833333;stroke-linecap:butt;stroke-linejoin:miter;stroke-miterlimit:4;stroke-dasharray:none" id="path10903"/><path d="m 433.781,53.0039 c 4.168,-5.168 9.336,-9.668 15,-13.8359" style="fill:none;stroke:#200e05;stroke-opacity:1;stroke-width:0.833333;stroke-linecap:butt;stroke-linejoin:miter;stroke-miterlimit:4;stroke-dasharray:none" id="path10905"/><path d="m 428.117,40.0039 c -1.336,2.5 -2.168,5 -2.668,7.832" style="fill:none;stroke:#200e05;stroke-opacity:1;stroke-width:0.833333;stroke-linecap:butt;stroke-linejoin:miter;stroke-miterlimit:4;stroke-dasharray:none" id="path10907"/><path d="m 410.617,56.168 c 0,11.1679 -0.836,22.1679 -2.5,33.1679" style="fill:none;stroke:#200e05;stroke-opacity:1;stroke-width:0.833333;stroke-linecap:butt;stroke-linejoin:miter;stroke-miterlimit:4;stroke-dasharray:none" id="path10909"/><path d="m 408.449,86.8359 5.5,0.5" style="fill:none;stroke:#200e05;stroke-opacity:1;stroke-width:0.833333;stroke-linecap:butt;stroke-linejoin:miter;stroke-miterlimit:4;stroke-dasharray:none" id="path10911"/><path d="m 412.617,98.3359 -5.836,-0.832" style="fill:none;stroke:#200e05;stroke-opacity:1;stroke-width:0.833333;stroke-linecap:butt;stroke-linejoin:miter;stroke-miterlimit:4;stroke-dasharray:none" id="path10913"/><path d="m 404.117,111.668 c 2.164,-1.332 4.664,-1.332 6.832,-0.164" style="fill:none;stroke:#200e05;stroke-opacity:1;stroke-width:0.833333;stroke-linecap:butt;stroke-linejoin:miter;stroke-miterlimit:4;stroke-dasharray:none" id="path10915"/><path d="m 407.949,127.668 c -2.168,-1.164 -4.668,-1.5 -7.168,-1.164" style="fill:none;stroke:#200e05;stroke-opacity:1;stroke-width:0.833333;stroke-linecap:butt;stroke-linejoin:miter;stroke-miterlimit:4;stroke-dasharray:none" id="path10917"/><path d="m 398.281,137.672 c 2.668,-0.836 5.5,-0.668 8,0.332" style="fill:none;stroke:#200e05;stroke-opacity:1;stroke-width:0.833333;stroke-linecap:butt;stroke-linejoin:miter;stroke-miterlimit:4;stroke-dasharray:none" id="path10919"/><path d="m 404.117,145.672 c -2.336,-0.668 -5,-1.168 -7.5,-0.836" style="fill:none;stroke:#200e05;stroke-opacity:1;stroke-width:0.833333;stroke-linecap:butt;stroke-linejoin:miter;stroke-miterlimit:4;stroke-dasharray:none" id="path10921"/><path d="m 394.449,154.336 c 2.332,-1.164 5,-1.332 7.5,-0.5" style="fill:none;stroke:#200e05;stroke-opacity:1;stroke-width:0.833333;stroke-linecap:butt;stroke-linejoin:miter;stroke-miterlimit:4;stroke-dasharray:none" id="path10923"/><path d="m 399.449,163.672 -7,0" style="fill:none;stroke:#200e05;stroke-opacity:1;stroke-width:0.833333;stroke-linecap:butt;stroke-linejoin:miter;stroke-miterlimit:4;stroke-dasharray:none" id="path10925"/><path d="m 608.281,680.84 c 4.336,0.5 5.5,3.164 6.668,5.832 -0.5,-2.832 0.332,-6 2.332,-8.168 -2.832,1.168 -6,2.336 -9,2.336" style="fill:#fddeb6;fill-opacity:1;fill-rule:nonzero;stroke:none" id="path10927"/><path d="m 608.281,680.84 c 4.336,0.5 5.5,3.164 6.668,5.832 -0.5,-2.832 0.332,-6 2.332,-8.168 -2.832,1.168 -6,2.336 -9,2.336 z" style="fill:none;stroke:#221a15;stroke-opacity:1;stroke-width:0.833333;stroke-linecap:butt;stroke-linejoin:miter;stroke-miterlimit:4;stroke-dasharray:none" id="path10929"/><path d="m 639.449,683.004 c -5.168,-1 -7.168,-3 -9.332,-4.332 2.5,2.668 3,6.668 1.332,10 2.5,-2.832 4,-5.832 8,-5.668" style="fill:#fddeb6;fill-opacity:1;fill-rule:nonzero;stroke:none" id="path10931"/><path d="m 639.449,683.004 c -5.168,-1 -7.168,-3 -9.332,-4.332 2.5,2.668 3,6.668 1.332,10 2.5,-2.832 4,-5.832 8,-5.668 z" style="fill:none;stroke:#221a15;stroke-opacity:1;stroke-width:0.833333;stroke-linecap:butt;stroke-linejoin:miter;stroke-miterlimit:4;stroke-dasharray:none" id="path10933"/><path d="m 638.117,653.004 c -0.5,-0.332 -1,-0.5 -1.668,-0.832 3.832,16.668 17.5,10.332 23.5,16.668 3.832,4.164 18.668,6.5 24.332,4 14.336,-6.668 23.504,-25.668 13.168,-39.836 1.5,8.5 -8,18.836 -26.668,21.836 2.836,-13.168 10.836,-26 5.336,-39.336 -3,11.668 -13.5,14.336 -22.5,20 -0.836,0.5 -15.836,13.668 -15.5,17.5" style="fill:#fddeb6;fill-opacity:1;fill-rule:nonzero;stroke:none" id="path10935"/><path d="m 638.117,653.004 c -0.5,-0.332 -1,-0.5 -1.668,-0.832 3.832,16.668 17.5,10.332 23.5,16.668 3.832,4.164 18.668,6.5 24.332,4 14.336,-6.668 23.504,-25.668 13.168,-39.836 1.5,8.5 -8,18.836 -26.668,21.836 2.836,-13.168 10.836,-26 5.336,-39.336 -3,11.668 -13.5,14.336 -22.5,20 -0.836,0.5 -15.836,13.668 -15.5,17.5 z" style="fill:none;stroke:#221a15;stroke-opacity:1;stroke-width:0.833333;stroke-linecap:butt;stroke-linejoin:miter;stroke-miterlimit:4;stroke-dasharray:none" id="path10937"/><path d="m 644.281,655.172 c 7,2 12.5,1.668 19.836,0.668 3.5,-7 5.332,-14.668 5.664,-22.5 -8.332,7.664 -20.664,10.664 -25.5,21.832" style="fill:#fddeb6;fill-opacity:1;fill-rule:nonzero;stroke:none" id="path10939"/><path d="m 644.281,655.172 c 7,2 12.5,1.668 19.836,0.668 3.5,-7 5.332,-14.668 5.664,-22.5 -8.332,7.664 -20.664,10.664 -25.5,21.832 z" style="fill:none;stroke:#221a15;stroke-opacity:1;stroke-width:0.833333;stroke-linecap:butt;stroke-linejoin:miter;stroke-miterlimit:4;stroke-dasharray:none" id="path10941"/><path d="m 664.117,655.84 c 2.164,-0.336 4.332,-0.668 6.664,-1" style="fill:none;stroke:#221a15;stroke-opacity:1;stroke-width:0.833333;stroke-linecap:butt;stroke-linejoin:miter;stroke-miterlimit:4;stroke-dasharray:none" id="path10943"/><path d="m 644.281,655.172 c -1.832,-0.668 -3.832,-1.332 -6.164,-2.168" style="fill:none;stroke:#221a15;stroke-opacity:1;stroke-width:0.833333;stroke-linecap:butt;stroke-linejoin:miter;stroke-miterlimit:4;stroke-dasharray:none" id="path10945"/></g></g></svg>