<?xml version="1.0" encoding="UTF-8"?>
<svg width="640" height="480" xmlns="http://www.w3.org/2000/svg">
 <metadata id="metadata10429">image/svg+xml</metadata>
 <g>
  <title>Layer 1</title>
  <path stroke-width="4" fill="#746801" fill-rule="nonzero" id="path10435" d="m263.597961,399.354187c6.636841,-6.212646 18.80307,0.11441 24.444427,-7.456024c2.876709,-3.613617 -6.524841,-6.778198 -13.605621,-18.413391c-10.728912,14.57312 -31.525208,23.384796 -26.767349,2.823547c-5.531433,6.43927 -7.522507,6.43927 -10.509094,-7.456024c-4.31398,5.310303 -11.836502,-2.145721 -10.397095,-7.680542c-13.937454,7.456024 -28.538589,13.217499 -43.693512,16.606598l5.087555,2.596893c9.955322,2.372345 17.809692,2.372345 25.332199,3.615753c3.760193,-4.632507 11.17067,-1.806824 15.374741,1.016724c6.636887,1.355621 12.500168,6.778198 10.065231,14.912018c-2.432816,-5.6492 -5.419418,-10.279541 -11.392609,-6.778198c4.31398,2.823547 7.190659,8.246094 6.195129,13.217499c-1.549316,-7.117096 -9.291641,-9.150574 -15.59668,-8.360504c-3.098633,13.670807 -15.928528,2.033478 -20.02269,0.565582c-7.964249,-2.937927 -21.45784,1.128967 -32.076859,-9.601746c-2.876663,-2.825684 -14.823059,-0.565552 -19.578796,-6.100372c-8.296112,1.355652 -16.260361,0.224518 -23.560928,-4.066925c-4.09417,0 -8.076294,-0.792206 -12.058426,-2.260101c-4.977661,15.702118 -13.493584,39.540192 -34.621704,37.618988c-7.190666,6.665955 -19.246964,2.59903 -24.556469,-6.100372c-3.096523,-5.083649 0.331844,-17.623322 18.915119,-57.953583l-0.55378,-1.69455c-11.614548,-4.179199 -8.627949,-27.563965 -4.75573,-36.263367c-8.074165,1.582275 -11.060764,2.033447 -10.177261,-2.937958c1.217468,-6.100372 4.094162,-11.747437 7.190666,-18.074463c-2.100975,-9.716125 1.881157,-19.317871 6.636887,-27.790619l19.910645,-35.585541c-5.08757,2.033463 -11.946388,3.276871 -7.078629,-6.439285c22.343468,-44.848343 58.956223,-101.334061 111.941391,-107.322205c20.242508,-13.556396 54.754303,-21.012413 77.873474,-13.556396c22.121552,-7.22934 45.240723,-11.974075 67.474304,-5.195877c-1.659241,-2.823517 -2.986603,-5.873703 -3.760193,-9.038338c6.746765,-5.761467 15.59668,-8.019394 24.22464,-6.439293c-4.977661,-2.711273 -10.731079,-3.84024 -16.260376,-3.162415c8.62796,-4.40583 18.583282,-5.422562 27.874908,-2.823517c-2.434967,-2.260132 -5.089722,-4.6325 -7.744476,-6.892639c15.154938,0.453354 27.433167,13.105255 27.765015,28.695107c0.885651,-5.310326 0.441742,-10.732887 -1.437256,-15.816536c10.838776,6.439293 12.719971,22.821411 5.751251,31.406395c2.213013,1.582314 3.982117,3.728004 5.087524,6.327057c-0.77356,-7.570465 0.112091,-13.783073 3.982147,-14.348663c-0.219818,-3.501335 0.11203,-6.66375 1.439423,-8.472748c-1.327393,-3.274651 -1.991058,-6.890434 -1.881165,-10.167297c-3.318451,-3.728012 -4.645813,-9.150566 -1.217499,-12.539665c-5.751221,-17.508869 6.527008,-44.848343 17.036102,-47.332941c18.251434,-3.615778 35.839172,-8.133839 52.541321,2.823509c10.618988,7.004877 23.007111,2.484602 38.715851,7.794928c15.596649,5.310329 7.852142,21.578003 10.728912,33.552082c-4.092041,-3.728012 -4.755737,-7.22934 -7.632385,-9.15057c-7.854431,7.682697 -16.702148,3.954689 -24.888336,3.84024c-13.937469,-0.224461 -29.534149,12.539669 -45.240723,14.121983c-1.327393,1.355644 -2.766815,2.372375 -4.313965,3.276871c0,2.596832 -0.88562,4.9692 -2.322906,6.890427c1.54715,5.761475 6.524811,12.878578 3.760193,16.041c3.650269,3.050194 4.09201,6.778198 2.212982,9.716156c-1.107574,4.179153 -0.88562,6.439285 -0.221924,7.907158c5.751221,12.088524 -4.423889,9.828392 -5.087585,14.687569c-3.430481,23.948166 -25.99588,24.852661 -43.139709,31.857529c2.764648,63.827301 -51.879761,114.776031 -100.107056,149.798157c-2.322906,15.024292 -6.083099,30.048584 -13.051849,43.492737c7.078644,11.635193 15.59668,23.158112 25.77182,32.647614c7.08075,-3.840271 14.932983,-1.58017 22.123657,0.338898c12.719971,-4.291412 20.796295,-0.677826 26.879395,11.637329c9.733368,-2.59903 39.157593,-2.033447 30.087921,20.559113c-1.549316,-9.489471 -8.408173,-16.606598 -18.031647,-11.069611c2.434967,13.66864 -11.614563,4.179169 -18.471222,8.019409c2.322937,4.066925 3.096497,8.811676 1.991089,13.895325c-1.217499,-4.969238 -4.094177,-10.052887 -7.854401,-12.990845c-3.540344,6.665955 -12.610077,3.389099 -15.264832,-1.806793c-14.711029,0 -25.552002,-19.432281 -38.825775,-14.912048c-7.410461,2.484619 -17.365784,0.677826 -20.242462,2.935791c-6.19516,4.971405 -12.500183,0.338928 -11.282684,-6.32489c-8.518066,-2.59903 -15.264847,6.32489 -20.464462,11.974121c1.881165,-11.974121 13.163864,-21.124664 25.332199,-16.833252"/>
  <path fill="#7f3f00" stroke="#231f20" stroke-width="4" stroke-miterlimit="4" id="path10437" d="m263.597961,399.354187c6.636841,-6.212646 18.80307,0.11441 24.444427,-7.456024c2.876709,-3.613617 -6.524841,-6.778198 -13.605621,-18.413391c-10.728912,14.57312 -31.525208,23.384796 -26.767349,2.823547c-5.531433,6.43927 -7.522507,6.43927 -10.509094,-7.456024c-4.31398,5.310303 -11.836502,-2.145721 -10.397095,-7.680542c-13.937454,7.456024 -28.538589,13.217499 -43.693512,16.606598l5.087555,2.596893c9.955322,2.372345 17.809692,2.372345 25.332199,3.615753c3.760193,-4.632507 11.17067,-1.806824 15.374741,1.016724c6.636887,1.355621 12.500168,6.778198 10.065231,14.912018c-2.432816,-5.6492 -5.419418,-10.279541 -11.392609,-6.778198c4.31398,2.823547 7.190659,8.246094 6.195129,13.217499c-1.549316,-7.117096 -9.291641,-9.150574 -15.59668,-8.360504c-3.098633,13.670807 -15.928528,2.033478 -20.02269,0.565582c-7.964249,-2.937927 -21.45784,1.128967 -32.076859,-9.601746c-2.876663,-2.825684 -14.823059,-0.565552 -19.578796,-6.100372c-8.296112,1.355652 -16.260361,0.224518 -23.560928,-4.066925c-4.09417,0 -8.076294,-0.792206 -12.058426,-2.260101c-4.977661,15.702118 -13.493584,39.540192 -34.621704,37.618988c-7.190666,6.665955 -19.246964,2.59903 -24.556469,-6.100372c-3.096523,-5.083649 0.331844,-17.623322 18.915119,-57.953583l-0.55378,-1.69455c-11.614548,-4.179199 -8.627949,-27.563965 -4.75573,-36.263367c-8.074165,1.582275 -11.060764,2.033447 -10.177261,-2.937958c1.217468,-6.100372 4.094162,-11.747437 7.190666,-18.074463c-2.100975,-9.716125 1.881157,-19.317871 6.636887,-27.790619l19.910645,-35.585541c-5.08757,2.033463 -11.946388,3.276871 -7.078629,-6.439285c22.343468,-44.848343 58.956223,-101.334061 111.941391,-107.322205c20.242508,-13.556396 54.754303,-21.012413 77.873474,-13.556396c22.121552,-7.22934 45.240723,-11.974075 67.474304,-5.195877c-1.659241,-2.823517 -2.986603,-5.873703 -3.760193,-9.038338c6.746765,-5.761467 15.59668,-8.019394 24.22464,-6.439293c-4.977661,-2.711273 -10.731079,-3.84024 -16.260376,-3.162415c8.62796,-4.40583 18.583282,-5.422562 27.874908,-2.823517c-2.434967,-2.260132 -5.089722,-4.6325 -7.744476,-6.892639c15.154938,0.453354 27.433167,13.105255 27.765015,28.695107c0.885651,-5.310326 0.441742,-10.732887 -1.437256,-15.816536c10.838776,6.439293 12.719971,22.821411 5.751251,31.406395c2.213013,1.582314 3.982117,3.728004 5.087524,6.327057c-0.77356,-7.570465 0.112091,-13.783073 3.982147,-14.348663c-0.219818,-3.501335 0.11203,-6.66375 1.439423,-8.472748c-1.327393,-3.274651 -1.991058,-6.890434 -1.881165,-10.167297c-3.318451,-3.728012 -4.645813,-9.150566 -1.217499,-12.539665c-5.751221,-17.508869 6.527008,-44.848343 17.036102,-47.332941c18.251434,-3.615778 35.839172,-8.133839 52.541321,2.823509c10.618988,7.004877 23.007111,2.484602 38.715851,7.794928c15.596649,5.310329 7.852142,21.578003 10.728912,33.552082c-4.092041,-3.728012 -4.755737,-7.22934 -7.632385,-9.15057c-7.854431,7.682697 -16.702148,3.954689 -24.888336,3.84024c-13.937469,-0.224461 -29.534149,12.539669 -45.240723,14.121983c-1.327393,1.355644 -2.766815,2.372375 -4.313965,3.276871c0,2.596832 -0.88562,4.9692 -2.322906,6.890427c1.54715,5.761475 6.524811,12.878578 3.760193,16.041c3.650269,3.050194 4.09201,6.778198 2.212982,9.716156c-1.107574,4.179153 -0.88562,6.439285 -0.221924,7.907158c5.751221,12.088524 -4.423889,9.828392 -5.087585,14.687569c-3.430481,23.948166 -25.99588,24.852661 -43.139709,31.857529c2.764648,63.827301 -51.879761,114.776031 -100.107056,149.798157c-2.322906,15.024292 -6.083099,30.048584 -13.051849,43.492737c7.078644,11.635193 15.59668,23.158112 25.77182,32.647614c7.08075,-3.840271 14.932983,-1.58017 22.123657,0.338898c12.719971,-4.291412 20.796295,-0.677826 26.879395,11.637329c9.733368,-2.59903 39.157593,-2.033447 30.087921,20.559113c-1.549316,-9.489471 -8.408173,-16.606598 -18.031647,-11.069611c2.434967,13.66864 -11.614563,4.179169 -18.471222,8.019409c2.322937,4.066925 3.096497,8.811676 1.991089,13.895325c-1.217499,-4.969238 -4.094208,-10.052887 -7.854401,-12.990845c-3.540375,6.665955 -12.610077,3.389099 -15.264832,-1.806793c-14.711029,0 -25.552002,-19.432281 -38.825775,-14.912048c-7.410461,2.484619 -17.365784,0.677826 -20.242493,2.935791c-6.195129,4.971405 -12.500183,0.338928 -11.282684,-6.32489c-8.518051,-2.59903 -15.264832,6.32489 -20.464447,11.974121c1.881165,-11.974121 13.163864,-21.124664 25.332214,-16.833252l0,0z"/>
  <path stroke-width="4" fill="#746801" fill-rule="nonzero" id="path10439" d="m337.931061,405.56897c0.77359,-1.582306 0.663696,-3.389099 -0.221954,-4.859131c7.410492,0.11438 13.163879,0.338898 17.919586,5.422546c-6.305023,1.470032 -12.056274,0.90448 -17.697632,-0.563416"/>
  <path fill="none" stroke="#231f20" stroke-width="4" stroke-miterlimit="4" id="path10441" d="m337.931061,405.56897c0.77359,-1.582306 0.663696,-3.389099 -0.221954,-4.859131c7.410492,0.11438 13.163879,0.338898 17.919586,5.422546c-6.305023,1.470032 -12.056274,0.90448 -17.697632,-0.563416z"/>
  <path fill="none" stroke="#231f20" stroke-width="4" stroke-miterlimit="4" id="path10443" d="m355.628693,406.132385l0.995544,-0.224518"/>
  <path fill="none" stroke="#231f20" stroke-width="4" stroke-miterlimit="4" id="path10445" d="m337.931061,405.56897c-9.51358,-2.486786 -18.363495,-7.682678 -27.986938,-9.489471"/>
  <path fill="none" stroke="#231f20" stroke-width="4" stroke-miterlimit="4" id="path10447" d="m307.621185,393.931641c9.51358,8.811646 20.354553,15.704254 32.96463,18.978943"/>
  <path fill="none" stroke="#231f20" stroke-width="4" stroke-miterlimit="4" id="path10449" d="m344.345978,424.321259c-2.876709,-2.145691 -12.056274,-3.389099 -6.968719,-8.811646c6.746765,-7.343781 9.181763,0.90448 12.832031,7.907166"/>
  <path fill="none" stroke="#231f20" stroke-width="4" stroke-miterlimit="4" id="path10451" d="m368.680511,415.397369c-3.982147,2.372345 -10.950867,-6.553711 -7.520416,-10.281708"/>
  <path fill="none" stroke="#231f20" stroke-width="4" stroke-miterlimit="4" id="path10453" d="m329.744843,394.270538c-1.881165,0.677826 1.105438,6.214783 7.964264,6.439301"/>
  <path fill="none" stroke="#231f20" stroke-width="4" stroke-miterlimit="4" id="path10455" d="m329.081146,422.514465l-1.769104,-3.164581"/>
  <path fill="none" stroke="#231f20" stroke-width="4" stroke-miterlimit="4" id="path10457" d="m258.730194,404.213318c7.85434,2.484619 7.300568,-3.954651 4.867767,-4.859131"/>
  <path fill="none" stroke="#231f20" stroke-width="4" stroke-miterlimit="4" id="path10459" d="m227.536835,393.141541c-3.760193,-2.598999 -10.177277,-3.727997 -12.832031,1.128998c-1.327362,2.711273 0.443878,4.066925 3.430481,3.727997"/>
  <path fill="none" stroke="#231f20" stroke-width="4" stroke-miterlimit="4" id="path10461" d="m217.249664,391.673676c-5.309509,-5.536987 6.305038,-7.794952 11.614548,-6.665955"/>
  <path fill="none" stroke="#231f20" stroke-width="4" stroke-miterlimit="4" id="path10463" d="m213.489471,383.990997c1.991058,0.338898 5.08757,0.112244 5.529312,1.921204"/>
  <path fill="none" stroke="#231f20" stroke-width="4" stroke-miterlimit="4" id="path10465" d="m217.249664,391.673676c-10.065231,-2.033478 -20.020569,-6.439301 -29.092392,-11.298431"/>
  <path fill="none" stroke="#231f20" stroke-width="4" stroke-miterlimit="4" id="path10467" d="m183.069717,377.778351c-9.291641,2.033447 -18.693192,3.050201 -28.316666,3.050201"/>
  <path fill="none" stroke="#231f20" stroke-width="4" stroke-miterlimit="4" id="path10469" d="m244.79274,310.674194c-20.464447,17.169983 -62.496628,66.538605 -98.3358,72.187805"/>
  <path fill="none" stroke="#231f20" stroke-width="4" stroke-miterlimit="4" id="path10471" d="m122.896011,378.795074c35.395279,0 73.779312,-52.645447 92.25267,-75.238007"/>
  <path fill="none" stroke="#231f20" stroke-width="4" stroke-miterlimit="4" id="path10473" d="m192.915131,297.907867c-23.892792,29.14624 -45.794495,64.28064 -82.077545,78.627106"/>
  <path fill="none" stroke="#231f20" stroke-width="4" stroke-miterlimit="4" id="path10475" d="m114.931747,363.656403l-4.094162,12.878571"/>
  <path fill="none" stroke="#231f20" stroke-width="4" stroke-miterlimit="4" id="path10477" d="m97.231972,370.885742c-5.309502,15.138702 -10.065231,32.874268 -21.01609,43.268219"/>
  <path fill="none" stroke="#231f20" stroke-width="4" stroke-miterlimit="4" id="path10479" d="m90.926933,350.438904c-8.847763,6.439301 -17.475716,25.530487 1.549316,21.577972c40.484993,-8.24823 64.819511,-47.674042 90.703362,-77.15921"/>
  <path fill="none" stroke="#231f20" stroke-width="4" stroke-miterlimit="4" id="path10481" d="m125.660667,290.112946c-18.361336,12.766327 -58.29467,50.385315 -55.639915,58.292511"/>
  <path fill="none" stroke="#231f20" stroke-width="4" stroke-miterlimit="4" id="path10483" d="m70.574532,350.100006c1.881157,5.873718 23.007156,0.226654 27.765007,-2.372375c16.592209,-9.377228 30.861511,-22.819214 44.245178,-36.37561"/>
  <path fill="none" stroke="#231f20" stroke-width="4" stroke-miterlimit="4" id="path10485" d="m62.278427,291.129669c5.64135,-11.974091 12.832016,-27.112793 19.800743,-35.924454"/>
  <path fill="none" stroke="#231f20" stroke-width="4" stroke-miterlimit="4" id="path10487" d="m95.904594,239.276443c-11.834358,11.184036 -38.713737,78.061539 3.208534,41.120346"/>
  <path fill="none" stroke="#231f20" stroke-width="4" stroke-miterlimit="4" id="path10489" d="m65.265022,312.14209c7.964264,-0.112274 32.410828,-25.191589 50.662254,-57.275787c-15.818611,56.936859 27.099197,14.121979 40.704803,-4.632477"/>
  <path fill="none" stroke="#231f20" stroke-width="4" stroke-miterlimit="4" id="path10491" d="m128.093475,279.155579c21.018219,8.697235 45.684601,-6.214783 59.290207,-27.678375"/>
  <path fill="none" stroke="#231f20" stroke-width="4" stroke-miterlimit="4" id="path10493" d="m177.650299,263.904602c-21.350052,50.158691 16.260361,32.647614 32.076843,6.663818"/>
  <path fill="none" stroke="#231f20" stroke-width="4" stroke-miterlimit="4" id="path10495" d="m216.807907,251.026047c-4.094162,10.3918 -17.036087,44.282791 -10.731049,50.044266c7.964264,7.34375 31.637238,-26.659485 41.48053,-39.086884"/>
  <path fill="none" stroke="#231f20" stroke-width="4" stroke-miterlimit="4" id="path10497" d="m254.416214,267.518219c-7.522522,16.606598 -24.002701,42.929321 -45.572571,34.568817"/>
  <path fill="none" stroke="#231f20" stroke-width="4" stroke-miterlimit="4" id="path10499" d="m221.45372,303.21817c23.780762,11.522949 44.90889,-29.372894 50.991989,-47.222885"/>
  <path fill="none" stroke="#231f20" stroke-width="4" stroke-miterlimit="4" id="path10501" d="m296.892273,263.904602c-1.437286,9.713989 -41.258591,57.388062 -50.88208,34.454437"/>
  <path fill="none" stroke="#231f20" stroke-width="4" stroke-miterlimit="4" id="path10503" d="m265.47699,300.392487c-4.201965,7.794922 8.73996,8.587158 13.163849,6.327026c12.278259,-5.988129 21.238037,-17.396637 30.307739,-27.451691"/>
  <path fill="none" stroke="#231f20" stroke-width="4" stroke-miterlimit="4" id="path10505" d="m294.901215,317.79129c-12.610107,9.150574 -20.132599,14.119812 -25.220184,5.873718c-4.645813,-7.34375 -3.872192,-10.618439 0.109924,-16.155426"/>
  <path fill="none" stroke="#231f20" stroke-width="4" stroke-miterlimit="4" id="path10507" d="m275.212494,327.731934c-17.699799,14.912048 -33.516266,25.530487 -48.449265,33.439819"/>
  <path fill="none" stroke="#231f20" stroke-width="4" stroke-miterlimit="4" id="path10509" d="m237.160324,368.852295c-0.663696,-2.711273 0.109894,-8.697266 2.100952,-14.797638"/>
  <path fill="none" stroke="#231f20" stroke-width="4" stroke-miterlimit="4" id="path10511" d="m247.669418,376.308319c5.86116,-7.002716 14.932999,-28.692963 20.130447,-42.476013"/>
  <path fill="none" stroke="#231f20" stroke-width="4" stroke-miterlimit="4" id="path10513" d="m274.436768,373.484772c2.766785,-3.727997 5.199615,-8.021576 7.412598,-12.200745"/>
  <path fill="none" stroke="#231f20" stroke-width="4" stroke-miterlimit="4" id="path10515" d="m329.744843,255.544128c-4.09201,5.649231 -15.264832,34.342163 -25.552002,19.769012c-8.62796,-12.313019 1.327393,-21.463562 6.195129,-30.387482"/>
  <path fill="none" stroke="#231f20" stroke-width="4" stroke-miterlimit="4" id="path10517" d="m302.311707,258.820953c-4.423889,4.066925 -22.011658,22.59259 -25.771851,8.811676c-2.876678,-10.959503 3.096527,-23.499191 8.62796,-32.535339"/>
  <path fill="none" stroke="#231f20" stroke-width="4" stroke-miterlimit="4" id="path10519" d="m278.530945,248.314758c-19.468903,27.790619 -35.507339,21.914734 -30.419769,4.291428"/>
  <path fill="none" stroke="#231f20" stroke-width="4" stroke-miterlimit="4" id="path10521" d="m263.485901,230.125885c-12.82988,24.740417 -25.771805,33.213165 -32.188873,30.05072c-7.520386,-3.727997 -2.100967,-14.799774 0,-22.594711c-9.733383,15.363205 -28.094727,23.158127 -22.453384,-2.823517c-11.946381,12.76416 -25.220154,14.912033 -20.022675,-6.778198"/>
  <path fill="none" stroke="#231f20" stroke-width="4" stroke-miterlimit="4" id="path10523" d="m216.807907,251.026047c-10.3992,12.651932 -23.009277,33.213181 -34.843643,25.418228c-5.641342,-3.615753 3.760208,-20.900146 5.419418,-24.967072"/>
  <path fill="none" stroke="#231f20" stroke-width="4" stroke-miterlimit="4" id="path10525" d="m191.255905,244.021194c-1.439407,6.890442 -6.968735,13.668625 -17.255905,5.195892c-4.645813,-3.840256 -0.331833,-16.26767 2.764679,-21.575806c-28.760544,31.857498 -36.724808,14.346451 -24.888321,-17.623322c-22.787338,24.740417 -38.603828,25.418243 -22.787338,-9.94281"/>
  <path fill="none" stroke="#231f20" stroke-width="4" stroke-miterlimit="4" id="path10527" d="m158.071487,172.962357c-10.509109,14.687546 -24.556473,27.339447 -41.812363,32.874268c-7.300568,2.260117 -7.300568,-0.79007 -6.526978,-6.663788"/>
  <path fill="none" stroke="#231f20" stroke-width="4" stroke-miterlimit="4" id="path10529" d="m88.825958,227.75351c7.300575,-2.937927 23.119194,-37.845657 39.931213,-51.626541"/>
  <path fill="none" stroke="#231f20" stroke-width="4" stroke-miterlimit="4" id="path10531" d="m191.587753,146.527374c16.592209,-2.25795 8.074173,-22.706963 79.974442,-46.091751"/>
  <path fill="none" stroke="#231f20" stroke-width="4" stroke-miterlimit="4" id="path10533" d="m339.036499,95.239746c1.327362,2.145691 2.986572,4.293594 4.867767,6.100372"/>
  <path fill="none" stroke="#231f20" stroke-width="4" stroke-miterlimit="4" id="path10535" d="m201.652985,178.950485c24.778412,-17.396637 46.68013,-9.601715 62.164764,-24.174835c15.70871,-14.799805 37.610413,-14.234207 56.303619,-23.160324c8.849915,-4.179131 21.569885,10.055069 28.760559,-3.840225"/>
  <path fill="none" stroke="#231f20" stroke-width="4" stroke-miterlimit="4" id="path10537" d="m343.904266,101.22789c-8.186218,5.647057 -6.636902,21.124649 -4.426025,29.709656c-0.77359,-10.279556 5.641357,-19.769035 15.486755,-22.592545c-8.074127,10.391792 -8.186188,25.191559 0,35.585541c1.769135,-7.570435 6.19516,-14.348648 12.500214,-18.978958c-2.544891,11.296249 1.65921,23.045868 10.619019,30.048569c-4.204102,-12.651932 -2.87674,-26.434982 3.428314,-38.182404c0.77359,11.522934 1.105438,23.045868 1.105438,34.454391c5.973206,-10.279556 8.296112,-22.253647 6.636902,-33.776573c6.085236,10.73069 7.522491,23.497017 3.762329,35.358849c7.964264,-7.456009 12.278229,-24.628159 7.520355,-35.358849"/>
  <path fill="none" stroke="#231f20" stroke-width="4" stroke-miterlimit="4" id="path10539" d="m436.930511,117.381119c3.096497,-0.451141 5.309509,-1.919044 6.526978,-3.84024"/>
  <path fill="none" stroke="#231f20" stroke-width="4" stroke-miterlimit="4" id="path10541" d="m433.502167,105.407043c4.313965,0.338905 6.636871,-0.338913 7.74234,-1.582321"/>
  <path fill="none" stroke="#231f20" stroke-width="4" stroke-miterlimit="4" id="path10543" d="m437.484314,87.783722c-1.659241,2.260139 -4.204071,3.728012 -7.412598,3.615784"/>
  <path fill="none" stroke="#231f20" stroke-width="4" stroke-miterlimit="4" id="path10545" d="m431.289185,83.829041c2.986572,-0.338913 5.973175,-1.355644 8.518036,-2.935776"/>
  <path fill="none" stroke="#231f20" stroke-width="4" stroke-miterlimit="4" id="path10547" d="m444.121185,77.616425c-3.098633,0.338913 -6.195129,0.226677 -9.403687,-0.338905"/>
  <path fill="none" stroke="#231f20" stroke-width="4" stroke-miterlimit="4" id="path10549" d="m412.1521,88.800453c-2.986603,0 -5.973206,-1.806778 -8.074158,-4.293594"/>
  <path fill="none" stroke="#231f20" stroke-width="4" stroke-miterlimit="4" id="path10551" d="m405.959106,94.674156c1.991058,4.859154 5.419403,9.150566 10.17514,11.071793"/>
  <path fill="none" stroke="#231f20" stroke-width="4" stroke-miterlimit="4" id="path10553" d="m404.519684,103.146904c0.443909,5.988144 2.876709,12.878578 6.19516,15.477623"/>
  <path fill="none" stroke="#231f20" stroke-width="4" stroke-miterlimit="4" id="path10555" d="m402.418732,128.226227c0.885651,3.389099 1.991058,6.665985 3.096466,9.603912"/>
  <path fill="none" stroke="#231f20" stroke-width="4" stroke-miterlimit="4" id="path10557" d="m393.680878,155.339035c0.663696,4.293579 1.105438,8.472748 1.327393,12.654083"/>
  <path fill="none" stroke="#231f20" stroke-width="4" stroke-miterlimit="4" id="path10559" d="m471.110474,68.239182c0.88562,-7.002693 -5.531464,-9.036152 -10.728912,-11.069611c13.493561,-10.055031 12.498016,-14.009724 12.056305,-29.711809"/>
  <path fill="none" stroke="#231f20" stroke-width="4" stroke-miterlimit="4" id="path10561" d="m460.381561,57.169605c9.843292,-0.904499 15.816498,-7.79493 28.31665,-0.677822c5.199615,2.935776 20.020569,-0.56559 25.552032,3.162418"/>
  <path fill="none" stroke="#231f20" stroke-width="4" stroke-miterlimit="4" id="path10563" d="m507.613342,47.341217c0.553772,1.69455 5.641357,1.69455 5.199585,0.338909c0.663696,-1.35564 -4.426056,-2.033459 -5.199585,-0.338909"/>
  <path fill="none" stroke="#231f20" stroke-width="4" stroke-miterlimit="4" id="path10565" d="m461.377075,43.386532c-6.195129,1.016727 -5.863281,-8.472752 -11.394714,-8.472752c-4.755737,0 -6.305054,4.293598 -14.157288,3.501328"/>
  <path fill="none" stroke="#231f20" stroke-width="4" stroke-miterlimit="4" id="path10567" d="m443.345459,37.286148c-0.995544,7.45602 11.282684,12.20076 13.385773,4.17915"/>
  <path fill="none" stroke="#231f20" stroke-width="4" stroke-miterlimit="4" id="path10569" d="m455.4039,39.431839c-0.443878,3.276871 -3.762329,5.310329 -6.858826,4.066917c-2.986603,-1.12896 -4.204071,-4.969231 -2.432831,-7.680511"/>
  <path stroke-width="4" fill="#e5e4e4" fill-rule="nonzero" id="path10571" d="m146.34491,382.974243c2.766785,-0.451141 5.531448,-1.243378 8.296112,-2.033447c9.623474,0 19.137054,-1.128998 28.318771,-3.162445l5.197479,2.596893c9.955322,2.372345 17.699783,2.372345 25.220169,3.615753c1.991058,0.338898 5.089691,0.112244 5.531448,1.921204c-2.764664,1.128967 -4.31398,3.050171 -1.659225,5.873718c-1.105438,0.451172 -1.881165,1.355621 -2.544861,2.59903c-1.437271,2.596863 0.443878,3.952515 3.430481,3.613586c-3.208527,13.670807 -16.040558,2.033478 -20.02269,0.565582c-8.074158,-2.937927 -21.56987,1.128967 -32.188889,-9.489471c-2.874557,-2.937958 -14.820953,-0.677826 -19.578796,-6.100403"/>
  <path fill="none" stroke="#231f20" stroke-width="4" stroke-miterlimit="4" id="path10573" d="m146.34491,382.974243c2.766785,-0.451141 5.531448,-1.243378 8.296112,-2.033447c9.623474,0 19.137054,-1.128998 28.318771,-3.162445l5.197479,2.596893c9.955322,2.372345 17.699783,2.372345 25.220169,3.615753c1.991058,0.338898 5.089691,0.112244 5.531448,1.921204c-2.764664,1.128967 -4.31398,3.050171 -1.659225,5.873718c-1.105438,0.451172 -1.881165,1.355621 -2.544861,2.59903c-1.437271,2.596863 0.443878,3.952515 3.430481,3.613586c-3.208527,13.670807 -16.040558,2.033478 -20.02269,0.565582c-8.074158,-2.937927 -21.56987,1.128967 -32.188889,-9.489471c-2.874557,-2.937958 -14.820953,-0.677826 -19.578796,-6.100403z"/>
  <path stroke-width="4" fill="#e5e4e4" fill-rule="nonzero" id="path10575" d="m281.737366,361.284027c7.190643,11.635193 15.708679,23.272522 25.88382,32.761993c6.96875,-3.842407 14.932983,-1.582275 22.123657,0.338928c-1.881165,0.563416 1.105438,6.212616 7.964264,6.32489c0.77359,1.470032 0.885651,3.276825 0.221954,4.859131c5.529297,1.467896 11.392609,2.033447 17.697632,0.563416l0.995544,-0.224518c1.217468,-0.338898 2.764618,-0.565552 4.535919,-0.792206c-3.430511,3.727997 3.538208,12.654053 7.410461,10.393951c2.4328,13.556396 -11.504669,4.066925 -18.361328,7.907166c-3.76236,-7.002686 -6.085266,-15.250946 -12.832031,-7.907166c-5.087555,5.422546 4.09201,6.665955 6.858856,8.811646c-3.540405,6.665955 -12.610077,3.389099 -15.264832,-1.806793c-14.601166,0 -25.442139,-19.317871 -38.825806,-14.912048c-7.412598,2.484619 -17.25589,0.677826 -20.242493,2.935791c-6.195129,4.971405 -12.390289,0.453308 -11.282715,-6.32489c7.964264,2.484619 7.410492,-3.954651 4.865631,-4.859131c6.748901,-6.212646 18.805206,0.11441 24.556488,-7.456024c2.766754,-3.613617 -6.524841,-6.663788 -13.715515,-18.413391c2.876678,-3.727997 5.199585,-7.907166 7.410492,-12.200745"/>
  <path fill="none" stroke="#231f20" stroke-width="4" stroke-miterlimit="4" id="path10577" d="m281.737366,361.284027c7.190643,11.635193 15.708679,23.272522 25.88382,32.761993c6.96875,-3.842407 14.932983,-1.582275 22.123657,0.338928c-1.881165,0.563416 1.105438,6.212616 7.964264,6.32489c0.77359,1.470032 0.885651,3.276825 0.221954,4.859131c5.529297,1.467896 11.392609,2.033447 17.697632,0.563416l0.995544,-0.224518c1.217468,-0.338898 2.764618,-0.565552 4.535919,-0.792206c-3.430511,3.727997 3.538208,12.654053 7.410461,10.393951c2.4328,13.556396 -11.504669,4.066925 -18.361328,7.907166c-3.76236,-7.002686 -6.085266,-15.250946 -12.832031,-7.907166c-5.087555,5.422546 4.09201,6.665955 6.858856,8.811646c-3.540405,6.665955 -12.610077,3.389099 -15.264832,-1.806793c-14.601166,0 -25.442139,-19.317871 -38.825806,-14.912048c-7.412598,2.484619 -17.25589,0.677826 -20.242493,2.935791c-6.195129,4.971405 -12.390289,0.453308 -11.282715,-6.32489c7.964264,2.484619 7.410492,-3.954651 4.865631,-4.859131c6.748901,-6.212646 18.805206,0.11441 24.556488,-7.456024c2.766754,-3.613617 -6.524841,-6.663788 -13.715515,-18.413391c2.876678,-3.727997 5.199585,-7.907166 7.410492,-12.200745z"/>
  <path stroke-width="4" fill="#e5e4e4" fill-rule="nonzero" id="path10579" d="m472.437866,27.457762c0.331818,15.702085 1.437256,19.656778 -12.168365,29.711843c5.309509,2.033459 11.726593,4.066917 10.840973,11.069576c-8.737854,3.728012 -17.919586,8.472748 -26.989288,9.377243c-1.327393,1.355644 -2.766815,2.372375 -4.313965,3.389099c0,2.484604 -0.88562,4.856972 -2.322906,6.778198c1.437286,5.761475 6.524811,12.878578 3.650269,16.041c3.760193,3.050194 4.201935,6.892647 2.322906,9.716156c-1.107574,4.179153 -0.995514,6.439285 -0.221924,7.907158c5.751221,12.088524 -4.423889,9.828392 -5.199615,14.687569c-3.428345,23.948166 -25.88385,24.852661 -43.027679,31.857529c-0.221954,-4.181351 -0.663696,-8.360519 -1.327393,-12.654099l0.663696,-3.840256c7.078613,-8.021591 10.619019,-23.835915 6.083099,-34.003212c-0.663696,-7.570465 0.221954,-13.783073 4.09201,-14.348663c-0.331848,-3.501335 0.11203,-6.66375 1.327362,-8.472748c-1.327362,-3.274651 -1.991058,-6.890434 -1.878998,-10.167297c-3.208557,-3.728012 -4.645813,-9.150566 -1.217468,-12.539665c-5.751251,-17.396641 6.636871,-44.848343 17.145966,-47.332941c18.251434,-3.615778 35.727142,-8.133839 52.541321,2.823509"/>
  <path fill="#f4dccd" stroke="#231f20" stroke-width="4" stroke-miterlimit="4" id="path10581" d="m472.437866,27.457762c0.331818,15.702085 1.437256,19.656778 -12.168365,29.711843c5.309509,2.033459 11.726593,4.066917 10.840973,11.069576c-8.737854,3.728012 -17.919586,8.472748 -26.989288,9.377243c-1.327393,1.355644 -2.766815,2.372375 -4.313965,3.389099c0,2.484604 -0.88562,4.856972 -2.322906,6.778198c1.437286,5.761475 6.524811,12.878578 3.650269,16.041c3.760193,3.050194 4.201935,6.892647 2.322906,9.716156c-1.107574,4.179153 -0.995514,6.439285 -0.221924,7.907158c5.751221,12.088524 -4.423889,9.828392 -5.199615,14.687569c-3.428345,23.948166 -25.88385,24.852661 -43.027679,31.857529c-0.221954,-4.181351 -0.663696,-8.360519 -1.327393,-12.654099l0.663696,-3.840256c7.078613,-8.021591 10.619019,-23.835915 6.083099,-34.003212c-0.663696,-7.570465 0.221954,-13.783073 4.09201,-14.348663c-0.331848,-3.501335 0.11203,-6.66375 1.327362,-8.472748c-1.327362,-3.274651 -1.991058,-6.890434 -1.878998,-10.167297c-3.208557,-3.728012 -4.645813,-9.150566 -1.217468,-12.539665c-5.751251,-17.396641 6.636871,-44.848343 17.145966,-47.332941c18.251434,-3.615778 35.727142,-8.133839 52.541321,2.823509z"/>
  <path stroke-width="4" fill="#e5e4e4" fill-rule="nonzero" id="path10583" d="m455.29184,39.431839c-0.441742,3.276871 -3.650299,5.310329 -6.746765,4.066917c-2.986603,-1.12896 -4.204102,-4.969231 -2.432861,-7.680511c1.215363,-0.565556 2.322906,-0.904465 3.870117,-0.904465c2.654755,0 3.982147,2.260105 5.309509,4.518059"/>
  <path fill="none" stroke="#231f20" stroke-width="4" stroke-miterlimit="4" id="path10585" d="m455.29184,39.431839c-0.441742,3.276871 -3.650299,5.310329 -6.746765,4.066917c-2.986603,-1.12896 -4.204102,-4.969231 -2.432861,-7.680511c1.215363,-0.565556 2.322906,-0.904465 3.870117,-0.904465c2.654755,0 3.982147,2.260105 5.309509,4.518059z"/>
  <path fill="none" stroke="#231f20" stroke-width="4" stroke-miterlimit="4" id="path10587" d="m455.29184,39.431839c1.439392,2.260139 2.876709,4.40583 6.085205,3.954693"/>
  <path fill="none" stroke="#231f20" stroke-width="4" stroke-miterlimit="4" id="path10589" d="m456.731262,41.465298c-2.103119,8.02161 -14.381348,3.276871 -13.385803,-4.17915"/>
  <path fill="none" stroke="#231f20" stroke-width="4" stroke-miterlimit="4" id="path10591" d="m446.222168,35.930511c-2.544861,1.12896 -4.977661,3.050186 -10.509125,2.484596"/>
  <path fill="none" stroke="#231f20" stroke-width="4" stroke-miterlimit="4" id="path10593" d="m444.121185,77.616425c-3.098633,0.338913 -6.195129,0.226677 -9.403687,-0.338905"/>
  <path fill="none" stroke="#231f20" stroke-width="4" stroke-miterlimit="4" id="path10595" d="m431.289185,83.829041c2.986572,-0.338913 5.863281,-1.355644 8.518036,-2.823517"/>
  <path fill="none" stroke="#231f20" stroke-width="4" stroke-miterlimit="4" id="path10597" d="m437.484314,87.783722c-1.77124,2.260139 -4.313995,3.728012 -7.412598,3.615784"/>
  <path fill="none" stroke="#231f20" stroke-width="4" stroke-miterlimit="4" id="path10599" d="m433.502167,105.407043c4.201965,0.338905 6.524872,-0.226677 7.632416,-1.582321"/>
  <path fill="none" stroke="#231f20" stroke-width="4" stroke-miterlimit="4" id="path10601" d="m443.457489,113.540878c-1.217468,1.921227 -3.540375,3.389099 -6.526978,3.84024"/>
  <path fill="none" stroke="#231f20" stroke-width="4" stroke-miterlimit="4" id="path10603" d="m405.515198,137.83017l-3.096466,-9.603943"/>
  <path fill="none" stroke="#231f20" stroke-width="4" stroke-miterlimit="4" id="path10605" d="m410.604919,118.624527c-3.208527,-2.599045 -5.641327,-9.489479 -6.085205,-15.477623"/>
  <path fill="none" stroke="#231f20" stroke-width="4" stroke-miterlimit="4" id="path10607" d="m416.024353,105.745949c-4.645844,-1.921227 -8.186249,-6.212608 -10.177307,-11.071793"/>
  <path fill="none" stroke="#231f20" stroke-width="4" stroke-miterlimit="4" id="path10609" d="m412.042206,88.800453c-2.986603,0 -5.973206,-1.806778 -8.074158,-4.293594"/>
  <path fill="none" stroke="#231f20" stroke-width="4" stroke-miterlimit="4" id="path10611" d="m337.931061,405.56897c-9.51358,-2.486786 -18.363495,-7.682678 -27.986938,-9.489471"/>
  <path fill="none" stroke="#231f20" stroke-width="4" stroke-miterlimit="4" id="path10613" d="m307.621185,394.046021c9.403687,8.697266 20.354553,15.702118 32.96463,18.978973"/>
  <path fill="none" stroke="#231f20" stroke-width="4" stroke-miterlimit="4" id="path10615" d="m328.971283,422.514465l-1.659241,-3.164581"/>
  <path fill="none" stroke="#231f20" stroke-width="4" stroke-miterlimit="4" id="path10617" d="m217.249664,391.785919c-10.065231,-2.033478 -20.020569,-6.551544 -29.092392,-11.410675"/>
  <path stroke-width="4" fill="#7f7986" fill-rule="nonzero" id="path10619" d="m471.000549,68.465858c0.883514,-7.117107 -5.531433,-9.150566 -10.840942,-11.184021c13.605621,-10.055069 12.500183,-14.12199 12.168335,-29.824076c10.728912,7.004877 23.117065,2.37237 38.825775,7.794928c15.596649,5.310329 7.852264,21.690231 10.728912,33.664318c-4.204041,-3.728012 -4.867737,-7.229347 -7.632385,-9.150574c-7.964294,7.682693 -16.702148,3.954689 -24.99826,3.842457c-5.863281,-0.114449 -11.946381,2.145695 -18.251434,4.856968"/>
  <path fill="#ff7f00" stroke="#1f1a1d" stroke-width="4" stroke-miterlimit="4" id="path10621" d="m471.000549,68.465858c0.883514,-7.117107 -5.531433,-9.150566 -10.840942,-11.184021c13.605621,-10.055069 12.500183,-14.12199 12.168335,-29.824076c10.728912,7.004877 23.117065,2.37237 38.825775,7.794928c15.596649,5.310329 7.852264,21.690231 10.728912,33.664318c-4.204041,-3.728012 -4.867737,-7.229347 -7.632385,-9.150574c-7.964294,7.682693 -16.702148,3.954689 -24.99826,3.842457c-5.863281,-0.114449 -11.946381,2.145695 -18.251434,4.856968z"/>
  <path stroke-width="4" fill="#7f7986" fill-rule="nonzero" id="path10623" d="m455.181946,39.431839c-0.441742,3.276871 -3.760193,5.310329 -6.858826,4.181335c-2.986603,-1.243378 -4.201935,-5.083649 -2.322906,-7.79493c1.107574,-0.565556 2.322906,-0.904465 3.762329,-0.904465c2.764648,0 4.092041,2.260105 5.419403,4.518059"/>
  <path fill="none" stroke="#1f1a1d" stroke-width="4" stroke-miterlimit="4" id="path10625" d="m455.181946,39.431839c-0.441742,3.276871 -3.760193,5.310329 -6.858826,4.181335c-2.986603,-1.243378 -4.201935,-5.083649 -2.322906,-7.79493c1.107574,-0.565556 2.322906,-0.904465 3.762329,-0.904465c2.764648,0 4.092041,2.260105 5.419403,4.518059z"/>
  <path fill="none" stroke="#1f1a1d" stroke-width="4" stroke-miterlimit="4" id="path10627" d="m460.159607,57.281837c9.955322,-0.904503 15.928528,-7.79493 28.428711,-0.790054c5.309509,3.05019 20.130402,-0.453358 25.661926,3.274651"/>
  <path fill="none" stroke="#1f1a1d" stroke-width="4" stroke-miterlimit="4" id="path10629" d="m512.812927,47.792358c0.441772,1.35564 -4.757843,1.35564 -5.309509,-0.451141c0.773621,-1.582317 5.973206,-0.904499 5.309509,0.451141"/>
 </g>
</svg>