<?xml version="1.0" encoding="UTF-8" standalone="no"?>
<!-- Created with Inkscape (http://www.inkscape.org/) -->
<svg xmlns:dc="http://purl.org/dc/elements/1.1/" xmlns:cc="http://creativecommons.org/ns#" xmlns:rdf="http://www.w3.org/1999/02/22-rdf-syntax-ns#" xmlns:svg="http://www.w3.org/2000/svg" xmlns="http://www.w3.org/2000/svg" xmlns:xlink="http://www.w3.org/1999/xlink" xmlns:sodipodi="http://sodipodi.sourceforge.net/DTD/sodipodi-0.dtd" xmlns:inkscape="http://www.inkscape.org/namespaces/inkscape" width="1628.5854" height="1021.9062" id="svg2" version="1.1" inkscape:version="0.48.0 r9654" sodipodi:docname="yak.svg">
  <title id="title2985">Yak</title>
  <defs id="defs4">
    <linearGradient id="linearGradient3828">
      <stop style="stop-color:#555242;stop-opacity:1;" offset="0" id="stop3830"/>
      <stop style="stop-color:#000000;stop-opacity:1;" offset="1" id="stop3832"/>
    </linearGradient>
    <linearGradient id="linearGradient3776">
      <stop style="stop-color:#ffffff;stop-opacity:1;" offset="0" id="stop3778"/>
      <stop style="stop-color:#cccc9a;stop-opacity:1;" offset="1" id="stop3780"/>
    </linearGradient>
    <linearGradient inkscape:collect="always" xlink:href="#linearGradient3776-7" id="linearGradient3782-1" x1="1217.0886" y1="157.33231" x2="1209.9423" y2="231.09985" gradientUnits="userSpaceOnUse"/>
    <linearGradient id="linearGradient3776-7">
      <stop style="stop-color:#ffffff;stop-opacity:1;" offset="0" id="stop3778-4"/>
      <stop style="stop-color:#cccc9a;stop-opacity:1;" offset="1" id="stop3780-0"/>
    </linearGradient>
    <linearGradient inkscape:collect="always" xlink:href="#linearGradient3828" id="linearGradient3834" x1="1287.6953" y1="340.35135" x2="1203.012" y2="300.84357" gradientUnits="userSpaceOnUse" gradientTransform="matrix(0.95739466,-0.28878271,0.28878271,0.95739466,-35.682035,480.77535)"/>
    <linearGradient inkscape:collect="always" xlink:href="#linearGradient3776-7" id="linearGradient3840" gradientUnits="userSpaceOnUse" gradientTransform="matrix(-1,-0.12611877,0.37418247,1.0471914,2663.8671,230.85253)" x1="1217.0886" y1="157.33231" x2="1209.9423" y2="231.09985"/>
    <linearGradient inkscape:collect="always" xlink:href="#linearGradient3776" id="linearGradient3842" gradientUnits="userSpaceOnUse" x1="1217.0886" y1="157.33231" x2="1209.9423" y2="231.09985" gradientTransform="translate(-27.748456,95.265599)"/>
  </defs>
  <sodipodi:namedview id="base" pagecolor="#ffffff" bordercolor="#666666" borderopacity="1.0" inkscape:pageopacity="0.0" inkscape:pageshadow="2" inkscape:zoom="0.216241" inkscape:cx="963.98178" inkscape:cy="374.471" inkscape:document-units="px" inkscape:current-layer="layer1" showgrid="false" inkscape:window-width="1024" inkscape:window-height="712" inkscape:window-x="-4" inkscape:window-y="-4" inkscape:window-maximized="1" fit-margin-top="0" fit-margin-left="0" fit-margin-right="0" fit-margin-bottom="0"/>
  <metadata id="metadata7">
    <rdf:RDF>
      <cc:Work rdf:about="">
        <dc:format>image/svg+xml</dc:format>
        <dc:type rdf:resource="http://purl.org/dc/dcmitype/StillImage"/>
        <dc:title>Yak</dc:title>
        <dc:date>2011-01-01</dc:date>
        <dc:creator>
          <cc:Agent>
            <dc:title>Jordan Irwin</dc:title>
          </cc:Agent>
        </dc:creator>
        <cc:license rdf:resource="http://creativecommons.org/licenses/publicdomain/"/>
        <dc:description>v0.2</dc:description>
        <dc:subject>
          <rdf:Bag>
            <rdf:li>yak</rdf:li>
            <rdf:li>animal</rdf:li>
            <rdf:li>cow</rdf:li>
            <rdf:li>hooved</rdf:li>
            <rdf:li>horned</rdf:li>
          </rdf:Bag>
        </dc:subject>
      </cc:Work>
      <cc:License rdf:about="http://creativecommons.org/licenses/publicdomain/">
        <cc:permits rdf:resource="http://creativecommons.org/ns#Reproduction"/>
        <cc:permits rdf:resource="http://creativecommons.org/ns#Distribution"/>
        <cc:permits rdf:resource="http://creativecommons.org/ns#DerivativeWorks"/>
      </cc:License>
    </rdf:RDF>
  </metadata>
  <g inkscape:label="Layer 1" inkscape:groupmode="layer" id="layer1" transform="translate(22.066018,-127.76843)">
    <path style="fill:#cccccc;stroke:#000000;stroke-opacity:1" d="m 32.258065,1020.8729 -1.897534,47.4383 89.184059,28.463 51.2334,-22.7704 -22.7704,-49.3359 -68.311195,-30.3605 z" id="path3769" inkscape:connector-curvature="0" transform="translate(0,52.362183)"/>
    <path style="fill:#000000;stroke:none" d="m 108.15939,1041.2713 c 5.23599,17.8685 7.07945,35.7369 4.26945,53.6054 l 7.67153,1.8449 15.85114,-7.2596 c -10.99814,-15.6151 -17.48788,-31.681 -19.54097,-48.1906 z" id="path3773" inkscape:connector-curvature="0" transform="translate(0,52.362183)" sodipodi:nodetypes="cccccc"/>
    <path style="fill:#cccccc;stroke:#000000;stroke-opacity:1" d="m 131.21586,1031.4893 5.6926,47.4384 121.44212,13.2827 c -4.72578,-18.9567 -5.24186,-38.4746 -27.98861,-55.0285 l -46.01518,-24.6679 z" id="path3771" inkscape:connector-curvature="0" sodipodi:nodetypes="cccccc"/>
    <path style="fill:#241f1c;stroke:none" d="m 37.950664,806.45161 c 0,0 9.132292,77.05366 8.401144,115.7224 -0.589665,31.186 -15.991276,102.49389 -15.991276,102.49389 81.742488,31.5739 106.488668,18.7447 123.339658,5.6927 -8.31047,-23.8182 -19.90291,-46.35146 -38.32345,-68.10665 -15.06934,-17.79733 -5.02329,-157.55161 -1.52475,-155.80234 z" id="path3759" inkscape:connector-curvature="0" transform="translate(0,52.362183)" sodipodi:nodetypes="csccscc"/>
    <path style="fill:#000000;stroke:none" d="m 223.24622,1041.9258 c 7.6998,14.0264 16.24592,30.1297 15.18027,47.9127 l 15.65464,1.4231 c -5.61995,-16.8 -12.93546,-33.3174 -26.09107,-48.8615 z" id="path3775" inkscape:connector-curvature="0" sodipodi:nodetypes="ccccc"/>
    <path style="fill:#241c1c;stroke:none" d="m 112.24053,852.17243 c -1.74613,40.51059 24.07412,86.77013 25.795,127.82789 0.65935,15.73111 -7.60556,36.33858 -3.02461,51.48898 46.77095,12.6639 66.79536,9.5254 94.87667,13.2828 -0.52771,-26.5105 -12.86178,-44.1662 -33.61676,-55.50624 -8.11142,-46.01407 -24.79374,-92.02813 -4.33391,-138.0422 z" id="path3761" inkscape:connector-curvature="0" sodipodi:nodetypes="csccccc"/>
    <path style="fill:#cccccc;fill-opacity:1;stroke:#000000;stroke-opacity:1" d="m 944.25928,934.83231 -6.56242,51.04104 99.16544,18.22895 41.562,-27.708 -24.7914,-40.83283 z" id="path2996" inkscape:connector-curvature="0" transform="translate(-21.561348,128.26351)"/>
    <path style="fill:#000000;fill-opacity:1;stroke:none" d="m 1022.1383,957.1246 c 2.6193,15.20591 5.1502,30.39708 2.4481,44.7161 l 12.4666,2.4336 9.6224,-6.73567 c -6.6561,-12.90151 -12.0397,-26.82107 -16.4286,-41.53637 z" id="path3768" inkscape:connector-curvature="0" transform="translate(-21.561348,128.26351)" sodipodi:nodetypes="cccccc"/>
    <path style="fill:#241f1c;stroke:none" d="m 927.32247,779.62206 9.94898,87.07423 c 0.71568,22.32221 1.66227,54.96495 1.64841,74.36901 -0.017,23.77243 -17.12577,51.44634 -17.00004,75.7895 35.28336,19.992 127.95178,29.0188 109.69898,-9.6787 l -36.99435,-61.4895 2.73269,-77.19936 17.36656,-96.45532 z" id="path3763" inkscape:connector-curvature="0" transform="translate(0,52.362183)" sodipodi:nodetypes="ccscccccc"/>
    <path style="fill:#cccccc;fill-opacity:1;stroke:#000000;stroke-opacity:1" d="m 1071.8619,885.24958 -3.2919,32.8121 22.0959,14.48661 96.2045,14.32585 c 4.4675,-35.55636 -8.9096,-49.39392 -29.6971,-76.20771 z" id="path2998" inkscape:connector-curvature="0" transform="translate(-21.561348,128.26351)" sodipodi:nodetypes="cccccc"/>
    <path style="fill:#000000;fill-opacity:1;stroke:none" d="m 1163.4937,895.25303 c 2.15,-2.48945 25.0136,37.79117 24.1544,44.99182 -0.5089,4.26456 -0.6804,6.67649 -0.6804,6.67649 l -16.2873,-2.42395 c -0.3612,-14.51532 -5.1662,-30.22135 -9.9084,-44.73667 z" id="path3770" inkscape:connector-curvature="0" transform="translate(-21.561348,128.26351)" sodipodi:nodetypes="cscccc"/>
    <path style="fill:#241f1c;stroke:none" d="m 1041.0732,806.12297 c 1.0613,22.18743 20.4627,129.19467 19.0411,157.05812 -0.8202,16.07587 -9.5538,41.98781 -9.5585,51.20061 25.3942,15.1962 66.1443,18.356 91.5385,14.1635 5.8261,-28.1482 -7.2497,-43.99814 -21.9785,-53.97264 -15.407,-10.43373 -9.435,-41.42241 -11.0688,-57.66611 -1.7505,-17.40384 25.8667,-101.38936 20.2549,-122.65454 -21.4013,-6.39883 -69.9393,-32.76956 -88.2287,11.87106 z" id="path3765" inkscape:connector-curvature="0" sodipodi:nodetypes="csccsscc"/>
    <path style="fill:#5f5242;fill-opacity:1;stroke:#000000;stroke-opacity:1" d="M 3.7950664,669.82922 C 1.6829644,646.19963 2.5646328,568.98391 -5.3371934,557.60864 c -6.6937946,-9.63622 -11.3113016,47.86907 -12.8715116,27.47633 -0.6488,-8.48015 -2.696143,-54.66947 -3.318222,-78.70272 C -22.237523,478.92924 -11.905179,391.09533 5.6925996,333.96584 18.706687,291.71686 28.462998,240.98672 79.696395,223.90892 130.92979,206.83112 221.80112,197.45594 248.57685,199.24099 c 56.92599,3.79506 85.70648,19.40898 129.03226,26.56546 40.25034,6.64848 94.87666,13.28273 121.44212,15.18027 26.56547,1.89753 154.64896,-1.89753 179.31689,-20.87287 18.11093,-13.93148 128.96276,-72.57026 190.70209,-106.26186 41.48944,-22.641085 81.59393,-37.950662 136.62239,-37.950662 55.0285,0 87.2865,3.795067 127.1347,7.590133 39.8482,3.795067 46.8499,20.461629 68.3112,34.155599 33.3928,21.30717 57.1843,57.0388 92.9791,74.00379 21.6366,10.25471 86.2503,82.26278 86.2503,82.26278 l 1.0363,172.83341 c 0,0 -31.6751,24.77269 -74.0038,39.02146 -28.4285,9.56965 -55.7959,36.539 -77.7988,56.926 -30.3286,28.10123 -33.426,104.2843 -41.5416,145.27436 -8.1157,40.99006 -4.0687,108.3447 -10.9031,103.49226 -2.5489,-13.59582 -0.8946,-22.15837 -8.7494,-30.91843 -1.847,3.07186 -2.4715,28.06993 -8.8381,28.77879 -10.7261,-2.77453 -24.1461,9.36029 -38.4832,10.60712 -4.635,0.40308 -9.6469,-0.52882 -14.3256,-0.71074 -12.417,2.91336 -10.9424,-22.14944 -11.3467,-23.17027 -7.1645,1.08951 -8.6814,20.60764 -7.7015,24.60779 -2.292,2.59497 -9.4306,-36.87245 -12.6773,-35.4208 -4.1469,0.92972 0.5421,32.4544 -6.7238,41.21703 -7.2659,8.76263 -17.5481,7.01881 -24.9474,9.04777 -3.4299,0.94053 -6.6632,-29.00738 -9.6703,-28.50094 -3.4801,0.58608 -6.6571,31.58475 -9.4852,32.13229 -12.6618,2.4514 -24.88933,2.30219 -31.32689,3.22357 -11.12404,1.06892 -9.01245,19.74499 -13.20848,24.32693 -2.79791,-0.4478 8.49115,-49.03263 2.64832,-54.35102 -5.17898,2.20354 -7.01273,28.18264 -7.4638,35.91749 -0.56904,2.027 -0.90449,-9.33867 -1.87878,-5.14399 -0.97429,4.19469 -3.08216,17.82657 -4.23727,17.79155 -1.83557,0.0223 2.5087,-13.82533 -1.48068,-18.00548 -1.73902,-1.40531 -0.44127,-26.33723 -5.27081,-34.11652 -6.68177,1.63174 0.0761,54.70067 -7.42221,55.41522 -1.17062,-0.17705 1.283,-31.94095 -0.27634,-33.04558 -5.6892,-1.10463 -8.70768,29.30762 -9.0294,26.55518 -1.39787,-2.75244 0.10375,-6.41983 -1.70124,-12.96545 -5.11944,-4.67106 -7.4823,35.86004 -13.79911,34.93608 1.93332,-0.22689 5.53499,-17.86404 1.56322,-39.55558 -15.56462,-19.37297 -101.71326,-20.11439 -107.79551,-19.35411 -7.06936,0.88367 -102.05244,-18.12089 -124.43437,-22.8948 -10.39078,1.22168 0.27496,-20.26772 -0.49197,-28.63314 -13.57971,3.56766 -17.10305,23.23724 -21.74586,21.05819 -5.12839,-1.26125 8.68592,-22.01085 3.18619,-28.3612 -5.5231,1.79652 -11.20533,22.90221 -14.70898,22.07062 -48.28297,-11.45992 -96.04162,-21.71107 -124.53746,-23.96074 -72.10626,-5.6926 -189.75333,0 -208.72866,0 -2.19448,0 -78.71398,16.24308 -80.78238,53.46428 -5.46544,-16.01504 1.19917,-1.09785 -3.75312,-21.75911 -9.60887,3.55134 -9.22994,19.88147 -11.28745,33.78858 -12.01785,-20.3016 0.19497,-23.42949 -6.43834,-45.1077 -7.08462,23.19724 -8.35544,52.54586 -23.26618,58.5948 -5.40147,2.19125 -56.96592,19.648 -75.46304,31.48809 5.42095,-12.33307 3.42687,-18.86649 1.19792,-17.68763 -7.24945,2.71665 -12.46723,12.8385 -9.51213,23.43848 -10.13995,-11.16303 -13.10154,-20.25948 -15.53786,-29.3844 -14.812588,3.69586 -13.519295,35.25237 -16.684092,45.96061 -4.02174,-18.58401 -0.239677,-48.75235 -1.717479,-56.66687 -14.751261,13.97855 -13.172609,54.55423 -14.25481,69.81817 -0.898846,-1.846 -4.003288,-46.20432 -5.897784,-49.16376 -0.740534,-1.1568 -2.131029,5.20393 -2.131029,5.20393 0,0 -2.827211,-5.59684 -3.359129,-6.10479 -0.946343,1.41284 -3.33901,41.53429 -4.796288,45.25733 -1.335457,-6.90348 -0.735633,-52.90942 -2.333152,-55.23802 -2.31827,1.93804 -2.461337,18.8011 -4.036378,21.64669 -0.558165,-1.80318 -1.9412,-21.34587 -3.264539,-24.57305 0,0 1.278946,33.83737 -0.472366,40.15973 -1.269422,-7.01899 -5.521453,-48.58773 -8.238922,-53.12294 -2.405503,4.2063 -2.480329,32.15773 -6.358551,49.53217 -5.736155,-22.24222 -5.678753,-55.13998 -10.910409,-65.93178 -4.818213,10.89211 -4.934878,17.20693 -8.92245,30.07515 C 7.4290156,787.33597 6.8261788,703.74043 3.7950664,669.82922 z" id="path2987" inkscape:connector-curvature="0" transform="translate(0,52.362183)" sodipodi:nodetypes="sssssssssssssssccssccccsccccccscccccccccccccccsccccsssccccscccccccccccccccccccs"/>
    <path style="fill:#f4eed7;fill-opacity:0.16129031;stroke:none" d="m 79.696395,256.16698 c 23.960795,-18.69873 39.848195,-18.97533 89.184055,-18.97533 49.33587,0 67.26787,2.98408 100.56927,7.59013 56.89165,7.86892 113.80998,29.12503 168.88046,34.1556 75.68104,6.9133 191.43222,31.2985 267.55217,18.97533 65.02271,-10.52662 77.8072,-47.88494 117.64706,-70.20873 49.85692,-27.93673 102.46679,-79.69639 151.80266,-79.69639 49.33583,0 108.64413,-0.53058 127.13473,39.8482 17.1228,37.39189 -1.0244,75.99914 -48.9767,113.24032 -47.9523,37.24118 -40.782,42.94743 -96.16248,72.7492 -55.38047,29.80177 -113.47065,124.47452 -186.52568,124.47452 -73.05503,0 -339.17577,-104.56674 -400.78296,-111.22306 -61.60718,-6.65633 -124.00426,-14.38776 -187.85579,-9.48766 -63.85152,4.90009 -113.774876,53.00895 -134.724861,39.8482 -19.25522,-12.0961 -15.003446,-48.04359 -11.385198,-72.10627 4.921349,-32.72877 17.551345,-68.82223 43.643264,-89.18406 z" id="path2989" inkscape:connector-curvature="0" transform="translate(0,52.362183)" sodipodi:nodetypes="sssssssazzzzzsss"/>
    <path style="fill:#000000;stroke:none" d="m 163.18786,543.64326 c 0,0 29.41176,28.463 39.84819,77.79887 10.43644,49.33586 10.43644,60.72106 11.3852,73.05502 0.94877,12.33397 0.94877,39.8482 8.5389,1.89754 7.59013,-37.95067 7.59013,-67.36243 7.59013,-92.03036 0,-24.66794 -0.94876,-58.82353 1.89754,-50.28463 2.8463,8.5389 21.82163,53.13093 21.82163,65.46489 0,12.33397 4.74383,17.0778 10.43643,-6.64136 5.6926,-23.71917 6.64137,-45.5408 6.64137,-55.97723 0,-10.43644 33.20683,14.2315 36.05313,26.56546 2.8463,12.33397 8.5389,37.95067 8.5389,45.5408 0,7.59013 7.59013,33.20683 12.33396,19.9241 4.74384,-13.28274 4.74384,-36.05313 9.48767,-42.6945 4.74383,-6.64137 14.2315,0 14.2315,0 l 19.9241,18.97533 c 0,0 23.71916,23.71917 23.71916,4.74383 0,-18.97533 0,-24.66793 0,-31.30929 0,-6.64137 8.5389,-24.66794 11.3852,-6.64137 2.8463,18.02657 20.87287,18.02657 22.7704,6.64137 1.89753,-11.3852 4.74383,-17.0778 0.94877,-34.1556 -3.79507,-17.0778 -25.6167,-54.0797 -29.41177,-62.6186 -3.79506,-8.5389 -26.56546,-47.43833 -21.82163,-20.87286 4.74383,26.56546 11.3852,56.92599 1.89753,51.23339 -9.48766,-5.6926 -45.54079,-43.64326 -45.54079,-43.64326 0,0 -15.18027,-2.8463 -15.18027,8.5389 0,11.3852 6.64137,36.05313 6.64137,42.6945 0,6.64136 -3.79507,22.7704 -15.18027,1.89753 -11.3852,-20.87286 -30.36053,-52.18216 -37.00189,-61.66983 -6.64137,-9.48766 -27.51424,-42.6945 -18.02657,-20.87286 9.48767,21.82163 16.12903,42.69449 16.12903,52.18216 0,9.48767 0.94877,26.56546 0.94877,26.56546 0,0 -20.87287,-27.51423 -24.66793,-36.05313 -3.79507,-8.5389 -20.87287,-28.463 -22.7704,-32.25806 -1.89753,-3.79507 -17.0778,-21.82163 -17.0778,-14.2315 0,7.59013 17.0778,42.6945 17.0778,51.2334 0,8.5389 0,17.07779 0,21.82163 0,4.74383 -14.2315,-3.79507 -17.0778,-7.59013 C 206.83112,517.0778 191.65085,500 191.65085,500 c 0,0 5.6926,24.66793 5.6926,30.36053 0,5.6926 11.3852,31.3093 -0.94876,16.12903 C 184.06072,531.3093 161.29032,502.8463 161.29032,502.8463 z" id="path3767" inkscape:connector-curvature="0" transform="translate(0,52.362183)"/>
    <path style="fill:#000000;fill-opacity:1;stroke:none" d="m 1094.8767,400.37957 c 0,0 -1.8976,48.38709 -29.4118,74.00379 -27.5142,25.6167 -21.8216,24.66793 -21.8216,24.66793 0,0 14.2315,14.2315 27.5142,3.79507 13.2827,-10.43643 19.9241,-14.2315 30.3605,-25.6167 10.4365,-11.3852 20.8729,-20.87286 13.2828,-2.8463 -7.5902,18.02657 -27.5143,55.97723 9.4876,5.6926 37.0019,-50.28463 40.797,-72.10626 40.797,-72.10626 0,0 17.0778,23.71916 9.4877,39.8482 -7.5902,16.12903 -32.2581,70.20872 -22.7704,61.66983 9.4876,-8.5389 23.7191,-37.0019 23.7191,-25.6167 0,11.3852 1.8976,53.13093 1.8976,53.13093 0,0 2.8463,-11.3852 5.6926,-24.66794 2.8463,-13.28273 -5.6926,-42.69449 8.5389,-9.48766 14.2315,33.20683 11.3852,45.5408 20.8728,18.97533 9.4877,-26.56546 7.5902,-34.1556 18.9754,-56.926 11.3852,-22.77039 23.7191,-53.13093 23.7191,-53.13093 0,0 -24.6679,27.51424 -37.0019,48.3871 -12.3339,20.87287 -27.5142,51.2334 -15.1802,20.87287 12.3339,-30.36053 24.6679,-67.36243 25.6167,-73.05503 0.9487,-5.6926 5.6926,-23.71917 -3.7951,-5.6926 -9.4877,18.02656 -27.5142,44.59203 -27.5142,44.59203 0,0 -6.6414,-11.3852 2.8463,-31.3093 9.4876,-19.9241 13.2827,-37.0019 13.2827,-41.74573 0,-4.74383 3.7951,-36.05313 0,-32.25806 -3.7951,3.79506 -30.3605,41.74573 -30.3605,41.74573 0,0 0.9487,-13.28274 0.9487,-20.87287 0,-7.59013 -9.4876,-11.3852 -19.9241,3.79507 -10.4364,15.18026 -25.6167,32.25806 -31.3093,39.8482 -5.6926,7.59013 -24.6679,41.74573 -16.129,16.12903 8.5389,-25.6167 31.3093,-73.05503 13.2827,-51.2334 -18.0265,21.82163 -35.1043,29.41177 -35.1043,29.41177 z" id="path2994" inkscape:connector-curvature="0" transform="translate(-21.561348,128.26351)"/>
    <path style="fill:#000000;fill-opacity:1;stroke:none" d="m 1104.3643,527.51429 c 0,0 13.2828,-7.59013 20.8729,-17.0778 7.5901,-9.48766 19.9241,-25.6167 19.9241,-25.6167 0,0 -9.4877,16.12904 -12.334,25.6167 -2.8463,9.48767 -7.5901,30.36053 -6.6413,26.56547 0.9487,-3.79507 14.2315,-16.12904 14.2315,-16.12904 0,0 3.795,2.8463 0,13.28274 -3.7951,10.43643 -12.334,20.87286 -17.0778,26.56546 -4.7439,5.6926 -10.4365,14.2315 -10.4365,3.79507 0,-10.43643 6.6414,-16.12903 0,-16.12903 -6.6413,0 -12.3339,0.94876 -12.3339,-2.8463 0,-3.79507 3.795,-18.02657 3.795,-18.02657 z" id="path3764" inkscape:connector-curvature="0" transform="translate(-21.561348,128.26351)"/>
    <path style="fill:url(#linearGradient3840);fill-opacity:1;stroke:#000000;stroke-width:1px;stroke-linecap:butt;stroke-linejoin:miter;stroke-opacity:1" d="m 1359.9479,263.96297 c -7.0047,4.99016 -1.6086,22.6905 -0.4489,30.46789 1.1596,7.77738 10.6888,20.84983 17.3626,25.93103 6.6738,5.08121 16.843,13.14696 26.1699,14.32326 9.327,1.17631 26.3808,21.35947 48.6396,22.47092 22.2588,1.11144 77.2245,-19.03605 93.2685,-23.64689 16.7255,-4.80668 30.0233,-13.87051 39.0385,-20.36466 9.0153,-6.49412 21.1232,-22.50262 21.3422,-30.95403 4.5692,-41.45757 -13.4632,-76.07324 -39.965,-125.44255 6.2016,35.79754 11.1615,83.12957 0.6663,106.47356 -7.8556,14.27153 -30.9451,22.25767 -60.6866,26.76222 -54.7705,8.29538 -116.1201,-39.87874 -145.3871,-26.02075 z" id="path3774-9" inkscape:connector-curvature="0" sodipodi:nodetypes="csssssscccsc"/>
    <path style="fill:#555242;fill-opacity:1;stroke:#000000;stroke-opacity:1" d="m 1290.4693,274.32466 c 11.0593,0 30.413,-39.58801 88.4744,-24.36185 58.0613,15.22616 70.8591,4.35733 96.7688,27.40708 20.841,18.54057 30.4131,51.76894 35.9428,79.17601 5.5296,27.40709 -38.7076,100.49265 -44.2372,118.76403 -5.5297,18.27139 -5.5297,63.94986 -2.7648,88.31171 2.7648,24.36186 20.292,70.1633 -2.6497,90.85373 -22.9417,20.69042 -57.2756,18.86917 -80.2951,12.68414 -17.7722,-4.77517 -41.4724,-39.58801 -41.4724,-39.58801 0,0 -22.1186,-21.31662 -22.1186,-45.67847 0,-24.36185 -5.5296,-60.90462 -16.5889,-66.99509 -11.0593,-6.09046 -33.1779,-30.45232 -38.7075,-54.81416 -5.5297,-24.36186 -5.5297,-51.76894 -2.7649,-88.31172 2.7649,-36.54277 30.4131,-97.4474 30.4131,-97.4474 z" id="path3772" inkscape:connector-curvature="0" sodipodi:nodetypes="cssssszscssssc"/>
    <path style="fill:url(#linearGradient3834);fill-opacity:1;stroke:#000000;stroke-width:1px;stroke-linecap:butt;stroke-linejoin:miter;stroke-opacity:1" d="m 1280.8972,351.45774 c -8.3153,6.63476 -48.1181,86.72943 -45.6256,108.67385 2.4926,21.94442 -4.6817,32.36161 1.7732,46.92099 6.4549,14.55935 19.5445,37.43392 19.5445,37.43392 l 33.0502,-40.9185 c 0,0 17.4116,3.00125 25.3053,-32.3925 7.8937,-35.39376 7.8628,-56.01739 7.0816,-72.28812 -0.7812,-16.27074 -6.1261,-47.67129 -6.1261,-47.67129 l -5.1341,-17.02105 -25.547,-2.61062 z" id="path3818" inkscape:connector-curvature="0"/>
    <path style="fill:url(#linearGradient3842);fill-opacity:1;stroke:#000000;stroke-width:1px;stroke-linecap:butt;stroke-linejoin:miter;stroke-opacity:1" d="m 1350.0938,292.82474 c 9.2025,5.87359 10.1749,22.89338 11.8707,30.52451 1.6958,7.63113 -3.3916,19.50177 -8.4791,23.74128 -5.0874,4.23952 -12.7185,11.02274 -22.0454,11.02274 -9.327,0 -36.4599,-7.63113 -59.3532,-9.32693 -22.8934,-1.69581 -55.1137,-5.08742 -73.7676,-6.78323 -18.6539,-1.6958 -46.6347,-12.71854 -58.5053,-20.34967 -11.8707,-7.63112 -36.4598,-33.06821 -39.8515,-41.54724 -20.2976,-42.03384 -14.3668,-74.37528 -5.0874,-120.40222 6.9005,35.01539 14.1907,67.75379 33.9161,92.42142 13.5665,15.26227 35.8497,20.57319 68.6802,28.8287 60.4592,15.20297 116.7889,-5.67847 152.6225,11.87064 z" id="path3774" inkscape:connector-curvature="0" sodipodi:nodetypes="csssssscccsc"/>
    <g id="g3856" transform="matrix(1,0,0,0.79594259,4.087493,70.839381)">
      <path sodipodi:nodetypes="ccc" transform="translate(-21.561348,128.26351)" inkscape:connector-curvature="0" id="path3846" d="m 1362.7957,257.44475 c -9.9759,29.17455 -3.3919,45.68564 19.6873,49.58272 9.1396,-25.2509 6.098,-43.73451 -19.6873,-49.58272 z" style="fill:#ffffd9;fill-opacity:1;stroke:#000000;stroke-width:1px;stroke-linecap:butt;stroke-linejoin:miter;stroke-opacity:1"/>
      <path sodipodi:nodetypes="ccc" transform="translate(-21.561348,128.26351)" inkscape:connector-curvature="0" id="path3848" d="m 1359.1935,286.75921 c 4.3254,22.53444 34.5728,22.69661 27.0796,-9.19686 -4.0015,-20.49389 -32.026,-25.98364 -27.0796,9.19686 z" style="fill:#000000;fill-opacity:1;stroke:#000000;stroke-width:1px;stroke-linecap:butt;stroke-linejoin:miter;stroke-opacity:1"/>
      <path sodipodi:nodetypes="ccc" transform="translate(-21.561348,128.26351)" inkscape:connector-curvature="0" id="path3852" d="m 1363.3832,286.14609 c -1.0005,-5.65973 6.283,-21.28139 11.5471,-22.58341 -10.4624,-2.7562 -18.5095,12.27211 -11.5471,22.58341 z" style="fill:#ffffff;fill-opacity:0.75806448;stroke:none"/>
    </g>
  </g>
</svg>